<svg id="attributes_icon_animated" xmlns="http://www.w3.org/2000/svg" width="100" height="100" viewBox="0 0 100 100">
  <rect id="shape" width="100" height="100" fill="none"/>
  <path id="svg-fill-primary" d="M-5640.022-74.452a17.837,17.837,0,0,1-.429-6.486c.2-3.865.452-7.728.663-11.593.209-3.834.394-7.668.587-11.5.011-.239,0-.477,0-.849-1.269,0-2.492.078-3.7-.018a32.859,32.859,0,0,1-5.544-.673,16.245,16.245,0,0,1-11.619-13.3c-.092-.756-.15-1.516-.231-2.352h65.67a16.075,16.075,0,0,1-3.912,10.539,16.236,16.236,0,0,1-13.084,5.811c-1.346-.009-2.691,0-4.006,0,0,.97-.041,1.85.006,2.725.274,5.091.574,10.182.851,15.274.156,2.852.379,5.7.41,8.56a12.526,12.526,0,0,1-9.427,12.345,14.028,14.028,0,0,1-3.692.5A13.045,13.045,0,0,1-5640.022-74.452Zm12.529-9.09a5.043,5.043,0,0,0-4.871,5,4.975,4.975,0,0,0,4.963,4.887,4.9,4.9,0,0,0,4.834-4.982,4.956,4.956,0,0,0-4.82-4.908Zm-32.764-44.4v-.969c0-8.238.043-16.476-.027-24.713a3.543,3.543,0,0,1,3.857-3.851c12.593.041,25.185.018,37.778.018h1.017v1.071q0,7.424,0,14.848c0,2.043,1.044,3.446,2.728,3.73a3.3,3.3,0,0,0,3.879-3.472c.019-5.01.006-10.021.006-15.031v-1.105c.344-.014.638-.038.933-.038,1.195,0,2.39,0,3.584.009,2.677.013,5.352.024,8.026-.033a3.609,3.609,0,0,1,3.892,3.929c-.1,8.175-.037,16.352-.037,24.529v1.078Z" transform="translate(5677.293 161.483)"/>

<style>

/**
 * ----------- SCSS -------------
 * #attributes_icon_animated {
 *  animation: scale-in-center 1s cubic-bezier(0.165, 0.840, 0.440, 1.000) both;
 * }
 * ------------------------------
 */


/**
 * ----------------------------------------
 * animation scale-in-center
 * ----------------------------------------
 */
@keyframes scale-in-center {
  0% {
    transform: scale(0);
    opacity: 1;
  }
  100% {
    transform: scale(1);
    opacity: 1;
  }
}
</style>

</svg>
