<svg xmlns="http://www.w3.org/2000/svg" xmlns:xlink="http://www.w3.org/1999/xlink" width="516" height="200" viewBox="0 0 516 200">
  <defs>
    <clipPath id="clip-path">
      <rect id="shape" width="516" height="200" transform="translate(1404 880)" fill="#313b4e"/>
    </clipPath>
  </defs>
  <g id="backgroudimage" transform="translate(-1404 -880)" clip-path="url(#clip-path)">
    <g id="logo" transform="translate(1452 652.442)">
      <g id="icon" transform="translate(334.058 293.028)">
        <path id="Path_7" data-name="Path 7" d="M476.3,372.219a34.43,34.43,0,0,0-5.619.467,45.94,45.94,0,0,0-85.131,11.932,28.514,28.514,0,1,0-7.463,56.033H476.3a34.216,34.216,0,1,0,0-68.432Z" transform="translate(-349.57 -348.456)" fill="#1dd5c1"/>
        <path id="Path_8" data-name="Path 8" d="M713.378,353.375a15.631,15.631,0,0,0-12.009-5.6,18.5,18.5,0,0,0-3.419.331c-7.614,1.439-13,8.089-13.089,16.171v.119l.012.118c.013.119.025.266.039.431s.032.369.051.574c.031.331.077.771.152,1.238a16.42,16.42,0,0,0,2.938,6.938q3.048,4.281,6.085,8.571l3.059,4.316c.412.583.824,1.166,1.242,1.744a3.332,3.332,0,0,0,2.705,1.43,3.152,3.152,0,0,0,1.991-.707,4.307,4.307,0,0,0,.826-.921l3.748-5.281q2.1-2.956,4.2-5.912l.962-1.356q.705-1,1.413-1.99a16.2,16.2,0,0,0,3.092-9.057A15.516,15.516,0,0,0,713.378,353.375Z" transform="translate(-577.96 -347.774)" fill="#0b535b"/>
        <path id="Path_9" data-name="Path 9" d="M725.814,383.973h.015a4.727,4.727,0,0,1-.007,9.454h-.005a4.727,4.727,0,0,1,0-9.454Z" transform="translate(-602.643 -372.432)" fill="#1dd5c1"/>
      </g>
    </g>
  </g>
</svg>
