<svg id="favicon-fuelstar" xmlns="http://www.w3.org/2000/svg" width="560" height="560" viewBox="0 0 560 560">
  <path id="shape" d="M93.333,0H466.667A93.333,93.333,0,0,1,560,93.333V466.667A93.333,93.333,0,0,1,466.667,560H93.333A93.333,93.333,0,0,1,0,466.667V93.333A93.333,93.333,0,0,1,93.333,0Z" fill="#37b26a"/>
  <g id="logo" transform="translate(93.326 91.106)">
    <path id="Path_9" data-name="Path 9" d="M457.3,1034.539l-126.632.211a10.229,10.229,0,0,0-8.411,4.451L271.237,1113.2A6.9,6.9,0,0,1,259,1111.412l-27.712-85.5a10.583,10.583,0,0,0-6.808-6.641l-86.156-25.709a6.88,6.88,0,0,1-2.075-12.174l72.786-52.756a10.4,10.4,0,0,0,4.248-8.65L211,830.252a6.891,6.891,0,0,1,10.945-5.744l72.7,52.887a10.391,10.391,0,0,0,9.49,1.379L389,850.734a6.878,6.878,0,0,1,6.99,1.623c1.839,1.814,2.52,3.188,1.748,5.658l-16.309,59.93h21.511L427.71,831.6a10.706,10.706,0,0,0-2.507-10.8,10.426,10.426,0,0,0-10.449-2.467L305.741,856.725a6.857,6.857,0,0,1-6.35-.844L205.91,787.758a10.312,10.312,0,0,0-6.032-1.914,10.065,10.065,0,0,0-10.1,10.365l2.841,115.49a6.88,6.88,0,0,1-2.848,5.752L96.266,985.246a10.162,10.162,0,0,0,3.006,18.018l110.782,32.992a6.884,6.884,0,0,1,4.6,4.486l35.607,109.91a10.2,10.2,0,0,0,2.561,4.2,10.066,10.066,0,0,0,5.652,2.77,10.343,10.343,0,0,0,9.878-4.332l65.57-95.113a6.876,6.876,0,0,1,5.678-2.977h0l115.546.057a10.132,10.132,0,0,0,9.126-5.668,9.988,9.988,0,0,0-.543-9.967Z" transform="translate(-92.01 -785.844)" fill="#fcfcfc"/>
    <g id="Group_785" data-name="Group 785" transform="translate(361.333 359.927)" opacity="0">
      <path id="Path_19839" data-name="Path 19839" d="M230.708,824.118a2.39,2.39,0,0,1-.413,1.3,2.978,2.978,0,0,1-2.732,1.112,4.309,4.309,0,0,1-1.852-.554l.147-1.7q.158.148.416.347a1.915,1.915,0,0,0,1.07.406q1.611.118,1.695-1.029l0-.022a1,1,0,0,0-.522-.909,6.19,6.19,0,0,0-1.142-.514c-.22-.084-.459-.184-.714-.3a2.457,2.457,0,0,1-1.221-2.352l.005-.068a2.337,2.337,0,0,1,.464-1.238,2.63,2.63,0,0,1,1.054-.852,2.951,2.951,0,0,1,1.351-.257,4.1,4.1,0,0,1,1.777.491l-.117,1.6a2.435,2.435,0,0,0-1.6-.65,1.315,1.315,0,0,0-.7.142.943.943,0,0,0-.547.82q-.056.764,1.046,1.185.2.082.782.306a2.7,2.7,0,0,1,1.393,1.018A2.964,2.964,0,0,1,230.708,824.118Z" transform="translate(-225.434 -817.489)" fill="#fcfcfc"/>
    </g>
  </g>
</svg>
