<svg id="icon_null" xmlns="http://www.w3.org/2000/svg" width="100" height="100" viewBox="0 0 100 100">
  <rect id="shape" width="100" height="100" fill="none"/>
  <path id="Path_50411" data-name="Path 50411" d="M58.178,0H29.822A9.808,9.808,0,0,0,22.88,2.884L2.836,22.929A9.768,9.768,0,0,0,0,29.822V58.178a9.612,9.612,0,0,0,2.884,6.893L22.929,85.116A9.612,9.612,0,0,0,29.822,88H58.178a9.612,9.612,0,0,0,6.893-2.884L85.116,65.071A9.612,9.612,0,0,0,88,58.178V29.822a9.612,9.612,0,0,0-2.884-6.893L65.071,2.884A9.612,9.612,0,0,0,58.178,0m3.129,61.307h0a4.869,4.869,0,0,1-6.893,0L44,50.893,33.636,61.258a4.874,4.874,0,0,1-6.893-6.893L37.107,44,26.693,33.636a4.874,4.874,0,0,1,6.893-6.893L44,37.107,54.364,26.742a4.874,4.874,0,0,1,6.893,6.893L50.893,44,61.258,54.364a4.884,4.884,0,0,1,.049,6.942" transform="translate(6 6.014)"/>
</svg>
