<svg id="icon_offline" xmlns="http://www.w3.org/2000/svg" xmlns:xlink="http://www.w3.org/1999/xlink" width="100" height="100" viewBox="0 0 100 100">
  <defs>
    <clipPath id="clip-path">
      <rect id="Rectangle_3203" data-name="Rectangle 3203" width="94" height="80" fill="#181818"/>
    </clipPath>
  </defs>
  <rect id="shape" width="100" height="100" fill="none"/>
  <g id="Group_15984" data-name="Group 15984" transform="translate(3 10)">
    <g id="Group_15981" data-name="Group 15981" transform="translate(0 0)" clip-path="url(#clip-path)">
      <path id="Path_50374" data-name="Path 50374" d="M83.538,36.921a6.367,6.367,0,0,0,8.569-.411,6.5,6.5,0,0,0-.449-9.581A70.13,70.13,0,0,0,34.73,12.056L46.479,23.873A57.3,57.3,0,0,1,83.538,36.921m-10.3,8.349a41.933,41.933,0,0,0-11.426-5.931L75.187,52.8a6.255,6.255,0,0,0-1.951-7.528M55.823,64.705a19.318,19.318,0,0,0-17.736,0,4.593,4.593,0,0,0-1.043,7.254l6.668,6.707a4.5,4.5,0,0,0,6.4,0l6.668-6.707a4.507,4.507,0,0,0-.953-7.254m25.991,7.619L11.234,1.335a4.5,4.5,0,0,0-6.4,0,4.562,4.562,0,0,0,0,6.433L15.452,18.489A68.267,68.267,0,0,0,2.343,26.93,6.5,6.5,0,0,0,1.89,36.51a6.261,6.261,0,0,0,8.482.456,57.467,57.467,0,0,1,14.742-8.805L35.229,38.335a43.577,43.577,0,0,0-14.47,6.889,6.384,6.384,0,0,0-.59,9.626l.045.046a6.374,6.374,0,0,0,8.3.593A32.238,32.238,0,0,1,46.524,49.6l28.89,29.062a4.5,4.5,0,0,0,6.4,0,4.452,4.452,0,0,0,0-6.342" transform="translate(0.002 0.002)" fill="#181818"/>
    </g>
  </g>
</svg>
