<svg id="icon_link" xmlns="http://www.w3.org/2000/svg" width="100" height="100" viewBox="0 0 100 100">
  <rect id="shape" width="100" height="100" fill="none"/>
  <path id="link" d="M532.7,135.752c0-7.235.016-14.471-.009-21.706a10.654,10.654,0,0,1,2.245-7.088,9.407,9.407,0,0,1,9.006-3.348,10.565,10.565,0,0,1,8.876,7.622,11.467,11.467,0,0,1,.33,2.835q.031,18.916.013,37.831A2.905,2.905,0,0,1,549,154.387a2.142,2.142,0,0,1-.811-.973,2.819,2.819,0,0,1-.138-1.139q-.01-11.318,0-22.637a5.29,5.29,0,0,0-2.9-5.155,5.068,5.068,0,0,0-7.288,4.075c-.033.464-.052.929-.052,1.393.01,7.8-.065,15.609.066,23.411a11.824,11.824,0,0,0,11.737,11.48c5.549.05,9.835-2.221,12.53-7.178a9.463,9.463,0,0,0,1.179-4.531c.014-13.463.04-26.926-.02-40.389a17.992,17.992,0,0,0-3.714-10.654,20.41,20.41,0,0,0-14.632-8.65,19.323,19.323,0,0,0-17.111,6.153,20.164,20.164,0,0,0-5.392,14.355q.017,21.513.008,43.026a27.826,27.826,0,0,0,9.606,21.609,25.535,25.535,0,0,0,15.313,6.594c9.949.781,18.214-2.764,24.724-10.213a25.4,25.4,0,0,0,6.557-16.918c.074-14.729.016-29.459.051-44.188a5.148,5.148,0,0,0-4.3-5.179,4.992,4.992,0,0,0-5.721,3.738,7.534,7.534,0,0,0-.225,1.989c-.012,14.135-.035,28.27,0,42.405a17.706,17.706,0,0,1-5.128,12.729,18.079,18.079,0,0,1-23.055,2.525,16.863,16.863,0,0,1-7.337-11.834,25.737,25.737,0,0,1-.245-3.7C532.688,149.6,532.7,142.678,532.7,135.752Z" transform="translate(-500.455 -89.284)"/>
</svg>
