<svg id="icon_two_arrow_rounded_right" xmlns="http://www.w3.org/2000/svg" width="100" height="100" viewBox="0 0 100 100">
  <rect id="shape" width="100" height="100" fill="none"/>
  <path id="Path_50250" data-name="Path 50250" d="M47.7,87.633h0a8.379,8.379,0,0,0,0-11.365L18.317,45,47.779,13.723a8.379,8.379,0,0,0,0-11.365,7.257,7.257,0,0,0-10.707,0l-34.846,37a8.364,8.364,0,0,0,0,11.365l34.846,37A7.234,7.234,0,0,0,47.7,87.633" transform="translate(54 95.364) rotate(180)" fill="#181818"/>
  <path id="Path_50414" data-name="Path 50414" d="M47.7,87.633h0a8.379,8.379,0,0,0,0-11.365L18.317,45,47.779,13.723a8.379,8.379,0,0,0,0-11.365,7.257,7.257,0,0,0-10.707,0l-34.846,37a8.364,8.364,0,0,0,0,11.365l34.846,37A7.234,7.234,0,0,0,47.7,87.633" transform="translate(96 95.364) rotate(180)" fill="#181818"/>
</svg>
