<svg xmlns="http://www.w3.org/2000/svg" width="24" height="24" viewBox="0 0 24 24">
  <g id="icon_select_vert_line" transform="translate(-6 -5)">
    <rect id="shape" width="24" height="24" transform="translate(6 5)" fill="none"/>
    <path id="shape-2" data-name="shape" d="M16932.717,20802.549l-8.469-4.887a.5.5,0,0,1-.246-.434v-9.82a.509.509,0,0,1,.246-.434l8.5-4.908a.522.522,0,0,1,.246-.066.537.537,0,0,1,.25.066l8.5,4.908a.5.5,0,0,1,.25.434v9.82a.5.5,0,0,1-.25.434l-8.395,4.85a.424.424,0,0,1-.168.094l-.025.01a.493.493,0,0,1-.156.025A.488.488,0,0,1,16932.717,20802.549Zm-.225-1.287v-8.664l-7.492-4.322v8.666Zm1.039-8.664v8.654l7.471-4.311v-8.656Zm-.523-.854,7.5-4.33-7.51-4.334-7.5,4.33Z" transform="translate(-16915 -20775.207)" fill="#737376"/>
    <path id="svg-fill-primary" d="M16858.947,20664.639q-.029-4.652-.062-9.309a.91.91,0,0,1,.115-.467l.041-.072a1.011,1.011,0,0,1,.342-.332l8.258-4.777a1,1,0,0,1,.99-.006l.031.016a1,1,0,0,1,.348.357,1.013,1.013,0,0,1,.01.986l-.021.031a.968.968,0,0,1-.352.348q-3.882,2.247-7.76,4.486.032,4.365.059,8.723a1,1,0,0,1-1,1.006h-.01A.993.993,0,0,1,16858.947,20664.639Zm-8.506-4.8q-.029-4.652-.062-9.3a1.041,1.041,0,0,1,.115-.471l.041-.072a1.012,1.012,0,0,1,.348-.332l8.256-4.771a1,1,0,0,1,.986-.012l.031.021a.974.974,0,0,1,.348.354,1,1,0,0,1,.01.984l-.02.037a1.057,1.057,0,0,1-.354.348q-3.882,2.238-7.754,4.48.023,4.365.057,8.729a1,1,0,1,1-2,.01Z" transform="translate(-16841.762 -20638.188)" fill="#efa106"/>
  </g>
</svg>
