<svg id="icon_vetor_extensions_light" xmlns="http://www.w3.org/2000/svg" width="100" height="100" viewBox="0 0 100 100">
  <rect id="shape" width="100" height="100" fill="none"/>
  <g id="icon" transform="translate(13.006)">
    <path id="background" d="M12.881.61H45.963L74,30.145V87.591A12.937,12.937,0,0,1,61.143,100.61H12.881A12.942,12.942,0,0,1,0,87.591V13.629A12.942,12.942,0,0,1,12.881.61Z" transform="translate(0 -0.61)" fill="#e8e8e8" fill-rule="evenodd"/>
    <path id="fold" d="M237.139.61V29.92H265.2Z" transform="translate(-191.201 -0.61)" fill="#ff9a00" fill-rule="evenodd" opacity="0.3"/>
    <path id="icon-2" data-name="icon" d="M149.437,275.223h-1.569a21.874,21.874,0,0,0-11.257-17.381H142.2a4.526,4.526,0,0,0,4.238,2.9,4.36,4.36,0,1,0,0-8.717,4.526,4.526,0,0,0-4.238,2.9H129.923v-1.435a1.5,1.5,0,0,0-1.514-1.462h-6a1.477,1.477,0,0,0-1.486,1.462v1.435h-12.3a4.36,4.36,0,1,0,0,2.923h5.615a21.747,21.747,0,0,0-11.257,17.381H101.41a1.479,1.479,0,0,0-1.514,1.435v5.82a1.479,1.479,0,0,0,1.514,1.435h6a1.455,1.455,0,0,0,1.486-1.435v-5.82a1.455,1.455,0,0,0-1.486-1.435h-1.376a19.027,19.027,0,0,1,14.89-16.8v.85a1.478,1.478,0,0,0,1.486,1.462h6a1.5,1.5,0,0,0,1.514-1.462v-.85a19.032,19.032,0,0,1,14.862,16.8h-1.349a1.462,1.462,0,0,0-1.514,1.435v5.82a1.462,1.462,0,0,0,1.514,1.435h6a1.455,1.455,0,0,0,1.486-1.435v-5.82a1.455,1.455,0,0,0-1.486-1.435Z" transform="translate(-88.416 -197.968)" fill="#ff9a00"/>
  </g>
</svg>
