<svg id="icon_power" xmlns="http://www.w3.org/2000/svg" width="100" height="100" viewBox="0 0 100 100">
  <rect id="shape" width="100" height="100" fill="none"/>
  <path id="off" d="M1305.545,927.373a47.5,47.5,0,1,0,47.536,47.434A47.377,47.377,0,0,0,1305.545,927.373Zm-5.119,32.646q0-1.455,0-2.911l.01-1.713q0-.583,0-1.165c0-2.335,0-4.75.007-7.127a4.767,4.767,0,0,1,3.254-4.691,5.911,5.911,0,0,1,2.012-.371h0a4.628,4.628,0,0,1,3.678,1.771,6.1,6.1,0,0,1,1.3,3.562c.073,6.686.058,13.35.03,19.555a5.181,5.181,0,0,1-5.124,5.365h-.053a4.962,4.962,0,0,1-3.713-1.577,5.6,5.6,0,0,1-1.4-3.834C1300.42,964.593,1300.423,962.268,1300.426,960.019Zm31.44,22.515a25.974,25.974,0,0,1-21.424,19.269,29.367,29.367,0,0,1-5.221.476A26.614,26.614,0,0,1,1290.5,997.9a27.508,27.508,0,0,1-12.423-23.092v-.043a27.17,27.17,0,0,1,9.242-20.449,5.449,5.449,0,0,1,3.642-1.5h0a5.016,5.016,0,0,1,3.579,1.558,5.16,5.16,0,0,1,.059,7.209c-.407.479-.828.948-1.236,1.4a23.089,23.089,0,0,0-2.8,3.545,16.984,16.984,0,0,0,3.529,21.061,16.958,16.958,0,0,0,22.407.479,17.143,17.143,0,0,0,.9-25.641l-.185-.17c-.207-.189-.442-.4-.672-.65a5.145,5.145,0,0,1,3.626-8.739,5.306,5.306,0,0,1,3.621,1.47,28.824,28.824,0,0,1,8.31,12.92A26.952,26.952,0,0,1,1331.866,982.534Z" transform="translate(-1255.082 -924.373)"/>
</svg>
