<svg id="icon_text-bold" xmlns="http://www.w3.org/2000/svg" width="100" height="100" viewBox="0 0 100 100">
  <rect id="shape" width="100" height="100" fill="none"/>
  <path id="text" d="M92.667,11.219A7.931,7.931,0,0,0,89.43,4.678a9.069,9.069,0,0,0-5.856-1.649c-8.262,0-65.019.013-67.259-.019A8.925,8.925,0,0,0,9.717,5.5l-.106.111A8.7,8.7,0,0,0,7.347,12c.088,2.566.046,16.062.165,17.508a7.9,7.9,0,0,0,6.155,6.674,9.17,9.17,0,0,0,1.8.176,7.918,7.918,0,0,0,6.852-4.011,9.318,9.318,0,0,0,1.132-4.874V19.2H41.987V80.917S33,81,31.845,81.064A7.483,7.483,0,0,0,26.2,84.351a7.745,7.745,0,0,0-1.21,6.666A7.99,7.99,0,0,0,32.688,97s31.284.006,34.284,0a8.047,8.047,0,0,0,8.362-7.944c.045-4.568-3.411-7.956-8.216-8.058-.5-.011-9-.015-9-.015V19.188H76.612l0,8.714a7.976,7.976,0,0,0,3.3,6.9,7.833,7.833,0,0,0,4.69,1.619,8.117,8.117,0,0,0,3.22-.718,7.171,7.171,0,0,0,4.712-6.5C92.712,23.727,92.667,11.219,92.667,11.219Z" transform="translate(0)"/>
</svg>
