<svg id="icon_rotate_left" xmlns="http://www.w3.org/2000/svg" width="100" height="100" viewBox="0 0 100 100">
  <rect id="shape" width="100" height="100" transform="translate(0 100) rotate(-90)" fill="none"/>
  <g id="rotate_left" data-name="rotate left" transform="translate(-1261 -578.411)">
    <path id="arrow_left" data-name="arrow left" d="M110.3,640.511c.781,1.961-.765,4.216-3.246,4.866-3.734.978-9.578,6.778-11.208,13.267a19.694,19.694,0,0,0,3.478,17.77c.623.837,1.371,1.578,2.063,2.365l.117-.094c-.044-.174-.084-.346-.127-.52q-.521-2.134-1.08-4.274a3.349,3.349,0,0,1,.219-2.524,3.269,3.269,0,0,1,3.26-1.917,3.331,3.331,0,0,1,3.068,2.6q1.71,6.466,3.363,12.966a3.313,3.313,0,0,1,.139.85,3.4,3.4,0,0,1-3.234,3.525q-6.286.529-12.573.962a3.465,3.465,0,0,1-3.639-2.561c-.011-.043-.021-.088-.03-.134a3.484,3.484,0,0,1,2.7-4.08c.88-.139,1.778-.183,2.774-.273-.155-.181-.271-.313-.373-.433a25.9,25.9,0,0,1-6.216-10.25,26.774,26.774,0,0,1,1.847-21.461,27.834,27.834,0,0,1,10.922-10.9C104.152,639.307,109.027,637.307,110.3,640.511Z" transform="translate(1182.668 -35.504)" fill="#101010"/>
    <path id="form" d="M5.669,0H33.86a5.669,5.669,0,0,1,5.669,5.669V33.86a5.669,5.669,0,0,1-5.669,5.669H5.669A5.669,5.669,0,0,1,0,33.86V5.669A5.669,5.669,0,0,1,5.669,0Z" transform="translate(1351.31 628.363) rotate(135)" fill="#101010"/>
  </g>
</svg>
