<svg id="Layout_N3" data-name="Layout N3" xmlns="http://www.w3.org/2000/svg" width="100" height="100" viewBox="0 0 100 100">
  <rect id="shape" width="100" height="100" fill="none"/>
  <g id="Grupo_3846" data-name="Grupo 3846" transform="translate(-2415 -10173.999)">
    <g id="Caminho_19863" data-name="Caminho 19863" transform="translate(2508.2 10192.016) rotate(90)" fill="#28aaca">
      <path d="M 11.46511840820313 85.90008544921875 L 3.582851886749268 85.90008544921875 C 1.882962942123413 85.90008544921875 0.4999962449073792 84.58632659912109 0.4999962449073792 82.97149658203125 L 0.4999962449073792 3.428572177886963 C 0.4999962449073792 1.813750028610229 1.882962942123413 0.5000056028366089 3.582851886749268 0.5000056028366089 L 11.46511840820313 0.5000056028366089 C 11.97965145111084 0.5000056028366089 12.3982629776001 0.890927791595459 12.3982629776001 1.371427774429321 L 12.3982629776001 85.02864074707031 C 12.3982629776001 85.50914764404297 11.97965145111084 85.90008544921875 11.46511840820313 85.90008544921875 Z" stroke="none"/>
      <path d="M 3.582847595214844 1 C 2.158658981323242 1 1 2.089447021484375 1 3.428565979003906 L 1 82.97149658203125 C 1 84.31061553955078 2.158658981323242 85.40007781982422 3.582847595214844 85.40007781982422 L 11.46511745452881 85.40007781982422 C 11.70395278930664 85.40007781982422 11.89825916290283 85.23345184326172 11.89825916290283 85.02864074707031 L 11.89825916290283 1.371429443359375 C 11.89825916290283 1.1666259765625 11.70395278930664 1 11.46511745452881 1 L 3.582847595214844 1 M 3.582847595214844 0 L 11.46511745452881 0 C 12.25662326812744 0 12.89825916290283 0.614013671875 12.89825916290283 1.371429443359375 L 12.89825916290283 85.02864074707031 C 12.89825916290283 85.78607177734375 12.25662326812744 86.40007781982422 11.46511745452881 86.40007781982422 L 3.582847595214844 86.40007781982422 C 1.604094505310059 86.40007781982422 0 84.86505126953125 0 82.97149658203125 L 0 3.428565979003906 C 0 1.535026550292969 1.604094505310059 0 3.582847595214844 0 Z" stroke="none" fill="#28aaca"/>
    </g>
    <path id="Caminho_19875" data-name="Caminho 19875" d="M1,0H85.4a1,1,0,0,1,1,1V24.263a2,2,0,0,1-2,2H2a2,2,0,0,1-2-2V1A1,1,0,0,1,1,0Z" transform="translate(2421.8 10213.514)" fill="#d4d4d4"/>
    <rect id="Retângulo_1192" data-name="Retângulo 1192" width="28.114" height="5.733" rx="1" transform="translate(2421.8 10206.348)" fill="#d4d4d4"/>
    <rect id="Retângulo_1188" data-name="Retângulo 1188" width="27.429" height="5.733" rx="1" transform="translate(2451.286 10206.348)" fill="#d4d4d4"/>
    <rect id="Retângulo_1189" data-name="Retângulo 1189" width="28.114" height="5.733" rx="1" transform="translate(2480.086 10206.348)" fill="#d4d4d4"/>
    <g id="Grupo_3830" data-name="Grupo 3830" transform="translate(2459.422 10196.591)">
      <path id="Caminho_19839" data-name="Caminho 19839" d="M196.831,162.2h4.349a.143.143,0,0,0,.14-.146.15.15,0,0,0-.041-.1l-2.784-2.909a.136.136,0,0,0-.2,0l-.692.723a.285.285,0,0,1-.415,0h0l-2.168-2.266a.136.136,0,0,0-.2,0l-4.24,4.431a.151.151,0,0,0,0,.207.137.137,0,0,0,.1.043h6.154Z" transform="translate(-189.506 -156.055)" fill="#1a758c"/>
      <ellipse id="Elipse_146" data-name="Elipse 146" cx="1.345" cy="1.405" rx="1.345" ry="1.405" transform="translate(0 0)" fill="#1a758c"/>
    </g>
    <g id="Grupo_3829" data-name="Grupo 3829" transform="translate(2417 10187)">
      <g id="image" transform="translate(0 1.2)">
        <g id="image-2" data-name="image">
          <g id="Computer">
            <path id="shape-2" data-name="shape" d="M89.319,2H9.571A7.607,7.607,0,0,0,2,9.625l.047,57.95A7.607,7.607,0,0,0,9.618,75.2H89.2a7.607,7.607,0,0,0,7.571-7.625l.114-57.95A7.607,7.607,0,0,0,89.319,2ZM9.571,5.05H89.319a4.559,4.559,0,0,1,4.543,4.575l.047,46.244H5.075L5.028,9.625A4.559,4.559,0,0,1,9.571,5.05ZM89.2,72.15H9.618a4.559,4.559,0,0,1-4.543-4.575V58.919H93.908l-.161,8.657A4.559,4.559,0,0,1,89.2,72.15Z" transform="translate(-2 -2)" fill="#fcfcfc"/>
            <path id="shape-3" data-name="shape" d="M33.679,41a4.658,4.658,0,1,0,4.679,4.658A4.669,4.669,0,0,0,33.679,41Zm0,6.211a1.553,1.553,0,1,1,1.56-1.553A1.556,1.556,0,0,1,33.679,47.211Z" transform="translate(14.807 17.903)" fill="#fcfcfc"/>
          </g>
        </g>
      </g>
      <g id="image-3" data-name="image" transform="translate(0 0)" opacity="0.5" style="isolation: isolate">
        <g id="image-4" data-name="image">
          <g id="Computer-2" data-name="Computer" style="isolation: isolate">
            <path id="shape-4" data-name="shape" d="M90.34,1H9.66A7.652,7.652,0,0,0,2,8.625l.048,59.15A7.652,7.652,0,0,0,9.707,75.4H90.225a7.652,7.652,0,0,0,7.66-7.625L98,8.625A7.652,7.652,0,0,0,90.34,1ZM9.66,4.05H90.34a4.585,4.585,0,0,1,4.6,4.575l.048,47.444H5.111L5.064,8.625A4.585,4.585,0,0,1,9.66,4.05Zm80.565,68.3H9.707a4.585,4.585,0,0,1-4.6-4.575V59.119H94.984l-.163,8.657A4.585,4.585,0,0,1,90.225,72.35Z" transform="translate(-2 -1)" fill="#b8b8b8"/>
            <path id="shape-5" data-name="shape" d="M33.679,41a4.658,4.658,0,1,0,4.679,4.658A4.669,4.669,0,0,0,33.679,41Zm0,6.211a1.553,1.553,0,1,1,1.56-1.553A1.556,1.556,0,0,1,33.679,47.211Z" transform="translate(14.807 19.103)" fill="#b8b8b8"/>
          </g>
        </g>
      </g>
    </g>
  </g>
</svg>
