<svg id="icon_mobile" xmlns="http://www.w3.org/2000/svg" width="100" height="100" viewBox="0 0 100 100">
  <rect id="shape" width="100" height="100" fill="none"/>
  <g id="mobile" transform="translate(-3366.333 5266)">
    <path id="shape-2" data-name="shape" d="M3437.765-5259H3394.9c-3.622,0-6.569,2.539-6.569,5.661v74.678c0,3.122,2.947,5.662,6.569,5.662h42.863c3.622,0,6.569-2.54,6.569-5.662v-74.678C3444.333-5256.461,3441.387-5259,3437.765-5259Zm-.529,8.1v70.008a.83.83,0,0,1-.872.751H3396.3a.83.83,0,0,1-.872-.751v-70.008a.829.829,0,0,1,.872-.751h40.061A.829.829,0,0,1,3437.236-5250.895Z" transform="translate(0 0)"/>
    <path id="shape-3" data-name="shape" d="M3495.853-4918.667a5.221,5.221,0,0,1,5.185,5.244,5.221,5.221,0,0,1-5.185,5.244,5.221,5.221,0,0,1-5.185-5.244A5.221,5.221,0,0,1,3495.853-4918.667Z" transform="translate(-79.519 -277.407)"/>
  </g>
</svg>
