<svg id="icon_3d_extensions_light" xmlns="http://www.w3.org/2000/svg" width="100" height="100" viewBox="0 0 100 100">
  <rect id="shape" width="100" height="100" fill="none"/>
  <g id="icon" transform="translate(13.006)">
    <path id="background" d="M12.881.61H45.963L74,30.145V87.591A12.937,12.937,0,0,1,61.143,100.61H12.881A12.942,12.942,0,0,1,0,87.591V13.629A12.942,12.942,0,0,1,12.881.61Z" transform="translate(0 -0.61)" fill="#e8e8e8" fill-rule="evenodd"/>
    <path id="fold" d="M237.139.61V29.92H265.2Z" transform="translate(-191.201 -0.61)" fill="#008bf5" fill-rule="evenodd" opacity="0.3"/>
    <path id="icon-2" data-name="icon" d="M48.555,40.687l-2.5-4.583a1.19,1.19,0,0,0-2.075-.026l-.032.058a1.186,1.186,0,0,1-1.625.429l-4.679-2.71a1.191,1.191,0,0,1-.593-1.032V21.284a1.189,1.189,0,0,0-.593-1.027L26.426,14.436a1.189,1.189,0,0,1-.593-1.027V7.974a1.193,1.193,0,0,1,1.191-1.191h.021a1.19,1.19,0,0,0,1.016-1.81L25.368.564a1.189,1.189,0,0,0-2.032.005l-2.7,4.462a1.188,1.188,0,0,0,1.016,1.8h.032A1.193,1.193,0,0,1,22.87,8.026v5.425a1.192,1.192,0,0,1-.6,1.032L12.242,20.252a1.185,1.185,0,0,0-.6,1.032V32.87a1.185,1.185,0,0,1-.6,1.032L6.373,36.575a1.191,1.191,0,0,1-1.62-.434l-.037-.064a1.187,1.187,0,0,0-2.069.032l-2.5,4.583a1.187,1.187,0,0,0,1.016,1.757l5.187.116A1.188,1.188,0,0,0,7.4,40.777l-.021-.032a1.2,1.2,0,0,1,.439-1.635l4.71-2.673a1.189,1.189,0,0,1,1.18.005l10.04,5.774a1.186,1.186,0,0,0,1.186,0l10.029-5.774a1.2,1.2,0,0,1,1.191,0l4.684,2.72a1.186,1.186,0,0,1,.434,1.62h0a1.191,1.191,0,0,0,1.059,1.784l5.2-.116A1.192,1.192,0,0,0,48.555,40.687ZM16.4,25.016l5.875,3.393a1.18,1.18,0,0,1,.593,1.032v6.78a1.191,1.191,0,0,1-1.784,1.032L15.206,33.86a1.18,1.18,0,0,1-.593-1.032v-6.78A1.189,1.189,0,0,1,16.4,25.016Zm7.362.852L17.884,22.48a1.192,1.192,0,0,1,0-2.064l5.875-3.387a1.2,1.2,0,0,1,1.191,0l5.875,3.387a1.192,1.192,0,0,1,0,2.064L24.95,25.868A1.2,1.2,0,0,1,23.759,25.868Zm2.075,10.347v-6.78a1.2,1.2,0,0,1,.593-1.032L32.3,25.01a1.191,1.191,0,0,1,1.784,1.032v6.78a1.2,1.2,0,0,1-.593,1.032l-5.875,3.393A1.191,1.191,0,0,1,25.834,36.215Z" transform="translate(12.642 44.706)" fill="#008bf5"/>
  </g>
</svg>
