<svg id="icon_code_extensions" xmlns="http://www.w3.org/2000/svg" width="100" height="100" viewBox="0 0 100 100">
  <rect id="shape" width="100" height="100" fill="none"/>
  <g id="ps" transform="translate(13.006)">
    <path id="Path_19936" data-name="Path 19936" d="M12.881.61H45.963L74,30.145V87.591A12.937,12.937,0,0,1,61.143,100.61H12.881A12.942,12.942,0,0,1,0,87.591V13.629A12.942,12.942,0,0,1,12.881.61Z" transform="translate(0 -0.61)" fill="#00a1e0" fill-rule="evenodd"/>
    <path id="Path_19937" data-name="Path 19937" d="M237.139.61V29.92H265.2Z" transform="translate(-191.201 -0.61)" fill="rgba(255,255,255,0.3)" fill-rule="evenodd"/>
    <g id="icon_code" transform="translate(20.994 48)">
      <rect id="shape-2" data-name="shape" width="32" height="32" fill="none"/>
      <g id="code" transform="translate(0.32 3.2)">
        <path id="shape-3" data-name="shape" d="M3366.677-6491.393h0c-.3-.077-.6-.152-.9-.228-.966-.242-1.414.031-1.652,1.008l-2.182,8.94q-1.517,6.215-3.034,12.433c-.1.413-.2.827-.282,1.192l-.094.4a1.128,1.128,0,0,0,.78,1.183c.283.083.577.156.862.227l.272.067a1.118,1.118,0,0,0,1.54-.944q1.249-5.118,2.5-10.236l1.537-6.292q.765-3.132,1.528-6.265A1.12,1.12,0,0,0,3366.677-6491.393Z" transform="translate(-3347.372 6491.703)" fill="#fcfcfc"/>
        <path id="shape-4" data-name="shape" d="M3210.376-6415.691a2.091,2.091,0,0,0-.789-.171,1.531,1.531,0,0,0-1.123.5c-1.979,2.009-3.64,3.7-5.311,5.433a1.8,1.8,0,0,0,.049,2.666l.717.736c.709.727,1.442,1.479,2.166,2.214q.33.335.658.675c.617.636,1.255,1.294,1.917,1.895a1.453,1.453,0,0,0,1.189.335,1.7,1.7,0,0,0,1.2-.751,1.9,1.9,0,0,0-.323-2.443c-1.148-1.187-2.276-2.35-3.437-3.52a.736.736,0,0,1-.267-.506.726.726,0,0,1,.257-.5c.765-.763,1.531-1.551,2.272-2.313q.585-.6,1.17-1.2a2.052,2.052,0,0,0,.675-1.344A1.887,1.887,0,0,0,3210.376-6415.691Z" transform="translate(-3202.588 6421.423)" fill="#fcfcfc"/>
        <path id="shape-5" data-name="shape" d="M3526.589-6409.547l-.654-.673c-1.505-1.549-3.062-3.153-4.611-4.709a1.774,1.774,0,0,0-1.261-.539,1.686,1.686,0,0,0-1.216.519,1.816,1.816,0,0,0,.036,2.543c.146.16.3.319.455.472l.2.2q.381.39.761.782c.71.73,1.445,1.485,2.176,2.218a.7.7,0,0,1,.25.521.656.656,0,0,1-.282.454,1.019,1.019,0,0,0-.11.11c-.022.024-.044.049-.067.072q-.512.526-1.026,1.05c-.784.8-1.595,1.628-2.372,2.459a1.821,1.821,0,0,0-.495,1.322,1.829,1.829,0,0,0,.6,1.29,1.693,1.693,0,0,0,2.425-.192c1.184-1.2,2.383-2.432,3.542-3.621l1.672-1.714a1.654,1.654,0,0,0,.489-1.308v-.021l0-.021A1.476,1.476,0,0,0,3526.589-6409.547Z" transform="translate(-3495.748 6421.057)" fill="#fcfcfc"/>
      </g>
    </g>
  </g>
</svg>
