<svg xmlns="http://www.w3.org/2000/svg" width="987" height="812" viewBox="0 0 987 812">
  <g id="currency_debit" transform="translate(10025 -12326)">
    <rect id="bg" width="987" height="812" transform="translate(-10025 12326)" fill="none"/>
    <g id="content" transform="translate(-9971 12442.999)">
      <path id="Path_50459" data-name="Path 50459" d="M123.559,0A123.375,123.375,0,1,1,0,123.374,123.467,123.467,0,0,1,123.559,0Z" transform="translate(287.371 30.581)" fill="#a80000"/>
      <path id="Path_50428" data-name="Path 50428" d="M602.468,518.613c-85.121,0-154.126-68.9-154.126-153.9s69-153.9,154.126-153.9,154.126,68.9,154.126,153.9C756.5,449.671,687.55,518.517,602.468,518.613Zm0-303.665c-82.838,0-149.992,67.053-149.992,149.768S519.63,514.484,602.468,514.484,752.46,447.43,752.46,364.716c-.094-82.676-67.193-149.675-149.992-149.768Z" transform="translate(-192 -210.82)" fill="#090909"/>
      <path id="Path_50430" data-name="Path 50430" d="M907.461,708.71a297.54,297.54,0,0,1,24.692-94.019q5.573-12.43,12.267-24.314c1.147-2.038-1.991-3.87-3.138-1.831a301.726,301.726,0,0,0-33.657,92.713q-2.527,13.629-3.8,27.451c-.215,2.324,3.42,2.31,3.634,0Z" transform="translate(-96.238 -132.447)" fill="#b8b8b8"/>
      <ellipse id="Ellipse_878" data-name="Ellipse 878" cx="23.015" cy="22.98" rx="23.015" ry="22.98" transform="translate(833.971 417.911)" fill="#be4040"/>
      <path id="Path_50431" data-name="Path 50431" d="M909.182,701.845A193.028,193.028,0,0,1,925.2,640.851q3.615-8.064,7.958-15.773a1.179,1.179,0,0,0-2.036-1.188,195.737,195.737,0,0,0-21.835,60.148q-1.639,8.842-2.464,17.809c-.14,1.508,2.219,1.5,2.357,0Z" transform="translate(-95.604 -124.972)" fill="#b8b8b8"/>
      <ellipse id="Ellipse_879" data-name="Ellipse 879" cx="14.931" cy="14.908" rx="14.931" ry="14.908" transform="translate(828.335 474.064)" fill="#be4040"/>
      <path id="Path_50432" data-name="Path 50432" d="M911.674,700.288a193.115,193.115,0,0,1-24.941-57.931q-2.117-8.579-3.441-17.325a1.18,1.18,0,0,0-2.337.313,195.723,195.723,0,0,0,19.833,60.835q4.154,7.978,9.027,15.555c.819,1.275,2.672-.181,1.859-1.448Z" transform="translate(-101.07 -124.823)" fill="#b8b8b8"/>
      <ellipse id="Ellipse_880" data-name="Ellipse 880" cx="14.931" cy="14.908" rx="14.931" ry="14.908" transform="translate(764.934 473.017)" fill="#be4040"/>
      <g id="Person_2" data-name="Person 2" transform="translate(487.012 88.632)">
        <path id="Path_50429" data-name="Path 50429" d="M641.479,440.515a12.2,12.2,0,0,1,19.552-.426l40.983-13.909-5.681,21.731-38.047,9.877a12.238,12.238,0,0,1-16.807-17.273Z" transform="translate(-639.168 -254.906)" fill="#ffc44d"/>
        <path id="Path_50433" data-name="Path 50433" d="M811.632,519.906a12.154,12.154,0,0,0-5.351-17.868l3.138-43.107L789.793,469.9l.029,39.253a12.244,12.244,0,0,0,21.81,10.749Z" transform="translate(-607.486 -248.045)" fill="#ffc44d"/>
        <path id="Path_50435" data-name="Path 50435" d="M515.435,476.141h-14.85l-7.064-57.194h21.917Z" transform="translate(-383.599 -1.438)" fill="#ffc44d"/>
        <path id="Path_50436" data-name="Path 50436" d="M493.741,462.731h28.64v18.005H475.708A18.019,18.019,0,0,1,493.741,462.731Z" transform="translate(-387.362 7.734)" fill="#181818"/>
        <path id="Path_50437" data-name="Path 50437" d="M621.282,460.572l-13.477,6.23-30.476-48.938,19.889-9.193Z" transform="translate(-365.891 -3.591)" fill="#ffc44d"/>
        <path id="Path_50438" data-name="Path 50438" d="M18.028.01,46.66.027l.01,18.01L.01,18.01h0A17.994,17.994,0,0,1,18.028.01Z" transform="translate(214.142 471.389) rotate(-24.841)" fill="#181818"/>
        <path id="Path_50439" data-name="Path 50439" d="M718.957,539.489,734.272,714l20.592-2.419,15.219-159.41L854.19,704.328l21.8-6.047s-70.177-209.6-75.628-227.141c-5.975-19.225-53.3-26.609-53.3-26.609l-1.817-1.814C724.918,470.049,716.773,505.511,718.957,539.489Z" transform="translate(-622.382 -251.442)" fill="#d4d4d4"/>
        <ellipse id="Ellipse_881" data-name="Ellipse 881" cx="29.751" cy="29.706" rx="29.751" ry="29.706" transform="translate(148.413 19.619)" fill="#ffc44d"/>
        <path id="Path_50441" data-name="Path 50441" d="M766.688,411.738s-11.119,23.077-27.048,36.284c-5.6-4.777-9.036-8.333-9.036-8.333s1.792-8.769,3.985-19.146C747.938,413.505,761.7,409.066,766.688,411.738Z" transform="translate(-619.849 -258.096)" fill="#3b7a3b" opacity="0.2"/>
        <g id="Group_16082" data-name="Group 16082">
          <path id="Path_50434" data-name="Path 50434" d="M807.386,372.745l5.367,137.177-21.8-1.21L786.1,364.784l4.6-2.161a11.707,11.707,0,0,1,16.683,10.121Z" transform="translate(-608.122 -268.452)" fill="#484848"/>
          <path id="Path_50440" data-name="Path 50440" d="M816.691,376.164,796.014,483.771s-31.421-6.265-42.614-13.812c-4.434-3-8.455-6.1-11.847-8.9-.666-.544-1.3-1.089-1.913-1.609-5.6-4.777-9.036-8.333-9.036-8.333s1.792-8.769,3.985-19.146c2.447-11.623,5.415-25.278,6.929-30.854,3.331-12.228,14.766-26.476,23.681-36.176a26.356,26.356,0,0,1,26.007-7.692l16.134,4.161A12.751,12.751,0,0,1,816.691,376.164Z" transform="translate(-619.85 -269.521)" fill="#484848"/>
          <path id="Path_50442" data-name="Path 50442" d="M800.18,377.006a19.789,19.789,0,0,0-3.429-1.36,15.153,15.153,0,0,0-13.985,3.217l-65.358,47.8-51.982,17.459,9.392,22.183,77.493-18.9L803.707,401.8a15.413,15.413,0,0,0-3.527-24.8Z" transform="translate(-633.62 -265.604)" fill="#484848"/>
        </g>
        <path id="Path_50443" data-name="Path 50443" d="M793.267,363.328c4.234-6.328,7.576-15.1,2.914-21.125-4.6-5.944-13.678-5.068-20.726-7.7-9.816-3.663-15.51-15.178-13.734-25.491s10.066-18.861,19.943-22.359,21.014-2.36,30.686,1.668c11.906,4.959,22.12,14.55,26.4,26.7s1.993,26.739-6.891,36.078c-9.526,10.013-24.475,12.681-38.3,12.519" transform="translate(-613.342 -284.571)" fill="#181818"/>
        <path id="Path_50444" data-name="Path 50444" d="M827.724,320.915c1.212,6.762,8.641,10.6,15.469,11.447s13.891-.238,20.538,1.535c11.718,3.126,19.447,14.378,23.7,25.72S893.573,383.2,899.1,393.98s16.243,20.285,28.331,19.276a31.185,31.185,0,0,1-58.62-1.9c-4.44-13.688.657-30.011-7.108-42.131-4.3-6.707-11.717-10.652-18.871-14.167s-14.664-7.123-19.46-13.483-5.755-16.4.156-21.747" transform="translate(-601.081 -277.185)" fill="#181818"/>
      </g>
      <path id="Path_50445" data-name="Path 50445" d="M1013.807,689.463H625.838a1.44,1.44,0,1,1,0-2.88h387.97a1.44,1.44,0,1,1,0,2.88Z" transform="translate(-155.278 -111.723)" fill="#e8e8e8"/>
      <path id="Path_50446" data-name="Path 50446" d="M625.807,689.463H237.838a1.44,1.44,0,1,1,0-2.88h387.97a1.44,1.44,0,1,1,0,2.88Z" transform="translate(-236.395 -111.723)" fill="#e8e8e8"/>
      <g id="person_1" data-name="person 1" transform="translate(71.432 88.183)">
        <path id="Path_50447" data-name="Path 50447" d="M208.732,475.716l14.2-4.351-10.049-56.748-20.953,6.421Z" transform="translate(-30.879 -1.896)" fill="#c80"/>
        <path id="Path_50448" data-name="Path 50448" d="M0,0,46.666.02l.008,18.008-28.636-.012A18.037,18.037,0,0,1,0,0H0Z" transform="translate(223.475 474.247) rotate(162.939)" fill="#181818"/>
        <path id="Path_50449" data-name="Path 50449" d="M101.8,475.309h14.85l7.064-57.194H101.8Z" transform="translate(-49.922 -1.163)" fill="#c80"/>
        <path id="Path_50450" data-name="Path 50450" d="M0,0H46.672V18.005H18.033A18.019,18.019,0,0,1,0,0H0Z" transform="translate(95.369 487.915) rotate(179.997)" fill="#181818"/>
        <path id="Path_50451" data-name="Path 50451" d="M341.979,547.162a11.071,11.071,0,0,1,.385-16.988l11.514-144.769,23.415,5.841L358.544,532.465a11.151,11.151,0,0,1-16.566,14.7Z" transform="translate(-286.317 -262.999)" fill="#c80"/>
        <ellipse id="Ellipse_882" data-name="Ellipse 882" cx="29.751" cy="29.706" rx="29.751" ry="29.706" transform="translate(81.279 8.056)" fill="#c80"/>
        <path id="Path_50452" data-name="Path 50452" d="M354.415,395.262c-7.07-9.692-7.288-23.04.328-32.31,4.97-6.05,13.284-10.891,27.164-10.891,37,0,51.03,29.3,51.03,29.3s15.309,28.024,6.379,53.5-8.93,28.024-8.93,28.024l-58.684-5.1S381.6,432.529,354.415,395.262Z" transform="translate(-284.019 -269.983)" fill="#cacaca"/>
        <path id="Path_50453" data-name="Path 50453" d="M338.543,418.321l12.642-41.3a19.785,19.785,0,0,1,27.977-11.777h0a19.769,19.769,0,0,1,9.042,25.489l-16.072,36.548Z" transform="translate(-286.245 -267.681)" fill="#cacaca"/>
        <path id="Path_50454" data-name="Path 50454" d="M432.714,438.425l49.754,257.314-26.79,7.643-65.063-169.42L361.272,707.2l-28.066,3.821s-12.311-229.22,42.1-271.327Z" transform="translate(-287.624 -251.891)" fill="#484848"/>
        <path id="Path_50455" data-name="Path 50455" d="M486.539,421.657a12.734,12.734,0,0,0-1.166,1.632l-60,2.9-11.554-35.22-20.061,9.52,18.881,52.457,74.206-14.491a12.7,12.7,0,1,0-.305-16.8Z" transform="translate(-274.578 -261.832)" fill="#c80"/>
        <path id="Path_50456" data-name="Path 50456" d="M386.317,383.165a19.758,19.758,0,0,1,20.874-22.015h0a19.8,19.8,0,0,1,18.542,19.708v39.915l-34.363,5.279Z" transform="translate(-276.178 -268.087)" fill="#cacaca"/>
        <path id="Path_50457" data-name="Path 50457" d="M400.559,351.937c-4.465-.019-7.91-4.714-7.71-9.168s3.2-8.373,6.806-11,7.843-4.223,11.868-6.153,8.016-4.337,10.5-8.041a17.775,17.775,0,0,0,1.24-16.333,26.222,26.222,0,0,0-11.305-12.366,34.8,34.8,0,0,0-24.731-3.9c-8.344,1.828-20.779,6.888-25.668,13.883l-5.1,13.858c-5.194,6.236-1.173,15.5,2.02,22.956s9.991,13.069,17.662,15.737a43.418,43.418,0,0,0,24.033.719" transform="translate(-282.986 -284.199)" fill="#484848"/>
        <path id="Path_50458" data-name="Path 50458" d="M385.751,303.542c-2.191-3.507-5.989-5.737-9.915-7.046a31.155,31.155,0,0,0-40.981,27.822c-.416,7.637,1.979,15.105,3.386,22.624s1.687,15.822-2.464,22.25c-3.162,4.9-8.435,7.978-13.64,10.61-4.338,2.194-9.03,4.252-13.873,3.815s-9.71-4.267-9.582-9.121a38.725,38.725,0,0,0-3.248,10.983c-.341,3.817.6,7.936,3.363,10.6,4.013,3.869,10.372,3.586,15.887,2.751,11.94-1.807,24.03-5.2,33.463-12.724s15.692-19.926,13.208-31.726c-1.038-4.929-3.476-9.429-5.447-14.066s-3.509-9.709-2.6-14.664a17.824,17.824,0,0,1,9.076-12.073,23.774,23.774,0,0,1,15.169-2.3c3.391.556,7.624,1.418,9.635-1.364a5.445,5.445,0,0,0-.113-5.816,16.036,16.036,0,0,0-4.352-4.305" transform="translate(-295.367 -281.959)" fill="#484848"/>
      </g>
      <g id="Group_16081" data-name="Group 16081" transform="translate(368.621 119.344)">
        <path id="euro_FILL0_wght400_GRAD0_opsz24_1_" data-name="euro_FILL0_wght400_GRAD0_opsz24 (1)" d="M166.041-771.042a33.376,33.376,0,0,1-20.143-6.417,34.474,34.474,0,0,1-12.469-16.569h-9.592a3.716,3.716,0,0,1-2.734-1.1,3.7,3.7,0,0,1-1.1-2.73,3.7,3.7,0,0,1,1.1-2.73,3.716,3.716,0,0,1,2.734-1.1H131.7a28.789,28.789,0,0,1-.24-4.262,32.015,32.015,0,0,1,.24-3.4h-7.865a3.716,3.716,0,0,1-2.734-1.1,3.7,3.7,0,0,1-1.1-2.73,3.7,3.7,0,0,1,1.1-2.729,3.715,3.715,0,0,1,2.734-1.1h9.592A34.474,34.474,0,0,1,145.9-833.583,33.377,33.377,0,0,1,166.041-840a34.24,34.24,0,0,1,10.6,1.628,34.281,34.281,0,0,1,9.352,4.693,3.232,3.232,0,0,1,1.439,2.538,3.143,3.143,0,0,1-1.055,2.634,3.967,3.967,0,0,1-2.782,1.2,5.1,5.1,0,0,1-2.973-.814,27.224,27.224,0,0,0-6.858-3.113,26.871,26.871,0,0,0-7.721-1.1,25.781,25.781,0,0,0-14.58,4.262,27.177,27.177,0,0,0-9.688,11.062H162.2a3.715,3.715,0,0,1,2.734,1.1,3.7,3.7,0,0,1,1.1,2.729,3.7,3.7,0,0,1-1.1,2.73,3.716,3.716,0,0,1-2.734,1.1H139.471a23.58,23.58,0,0,0-.288,4.549,28.211,28.211,0,0,0,.288,3.113H162.2a3.716,3.716,0,0,1,2.734,1.1,3.7,3.7,0,0,1,1.1,2.73,3.7,3.7,0,0,1-1.1,2.73,3.716,3.716,0,0,1-2.734,1.1H141.773a27.178,27.178,0,0,0,9.688,11.062,25.781,25.781,0,0,0,14.58,4.262,25.832,25.832,0,0,0,7.721-1.149,28.533,28.533,0,0,0,6.858-3.161,4.842,4.842,0,0,1,2.973-.766,4.157,4.157,0,0,1,2.782,1.245,3.144,3.144,0,0,1,1.055,2.634,3.231,3.231,0,0,1-1.439,2.538,34.273,34.273,0,0,1-9.352,4.693A34.238,34.238,0,0,1,166.041-771.042Z" transform="translate(-120 840)" fill="#fcfcfc"/>
      </g>
    </g>
  </g>
</svg>
