<svg id="icon_uppercase" xmlns="http://www.w3.org/2000/svg" width="100" height="100" viewBox="0 0 100 100">
  <rect id="shape" width="100" height="100" fill="none"/>
  <path id="Path_24479" data-name="Path 24479" d="M79.2,0H8.8A8.827,8.827,0,0,0,0,8.8V79.2A8.826,8.826,0,0,0,8.8,88H79.2A8.826,8.826,0,0,0,88,79.2V8.8A8.827,8.827,0,0,0,79.2,0M39.9,60.434c0,.032,0,.065,0,.1a4.08,4.08,0,0,1-8.16-.1V31.659h-9.53a4.09,4.09,0,0,1-4.069-4.111v-.011a4.089,4.089,0,0,1,4.08-4.1h27.21a4.089,4.089,0,0,1,4.068,4.11v.012a4.09,4.09,0,0,1-4.08,4.1H39.9ZM65.743,45.361h-4.08V60.434c0,.032,0,.065,0,.1a4.08,4.08,0,0,1-8.159-.1V45.361h-4.08a4.111,4.111,0,0,1,0-8.221H65.743a4.111,4.111,0,1,1,0,8.221" transform="translate(6 6)"/>
</svg>
