<svg id="icon_code_extensions_light" xmlns="http://www.w3.org/2000/svg" width="100" height="100" viewBox="0 0 100 100">
  <rect id="shape" width="100" height="100" fill="none"/>
  <g id="icon" transform="translate(13.006)">
    <path id="background" d="M12.881.61H45.963L74,30.145V87.591A12.937,12.937,0,0,1,61.143,100.61H12.881A12.942,12.942,0,0,1,0,87.591V13.629A12.942,12.942,0,0,1,12.881.61Z" transform="translate(0 -0.61)" fill="#e8e8e8" fill-rule="evenodd"/>
    <path id="fold" d="M237.139.61V29.92H265.2Z" transform="translate(-191.201 -0.61)" fill="#00a1e0" fill-rule="evenodd" opacity="0.3"/>
    <g id="icon-2" data-name="icon" transform="translate(11.824 43.453)">
      <path id="shape-2" data-name="shape" d="M3371.607-6491.2h0q-.722-.185-1.446-.365c-1.55-.389-2.27.049-2.652,1.618l-3.5,14.351q-2.435,9.978-4.87,19.958c-.162.664-.317,1.328-.453,1.914-.054.23-.105.447-.152.647a1.811,1.811,0,0,0,1.252,1.9c.455.135.927.251,1.384.365l.436.107a1.794,1.794,0,0,0,2.473-1.516q2.005-8.216,4.011-16.431l2.467-10.1q1.229-5.028,2.453-10.057A1.8,1.8,0,0,0,3371.607-6491.2Z" transform="translate(-3340.617 6491.703)" fill="#00a1e0"/>
      <path id="shape-3" data-name="shape" d="M3215.089-6415.587a3.361,3.361,0,0,0-1.267-.275,2.461,2.461,0,0,0-1.8.809c-3.177,3.226-5.843,5.945-8.525,8.722a2.893,2.893,0,0,0,.078,4.278l1.152,1.182c1.138,1.166,2.314,2.374,3.477,3.554q.53.539,1.057,1.083c.991,1.021,2.015,2.077,3.077,3.041a2.332,2.332,0,0,0,1.91.539,2.724,2.724,0,0,0,1.919-1.206,3.05,3.05,0,0,0-.519-3.922c-1.844-1.905-3.653-3.771-5.518-5.65a1.183,1.183,0,0,1-.429-.812,1.166,1.166,0,0,1,.414-.794c1.227-1.224,2.457-2.49,3.646-3.714q.939-.966,1.878-1.928a3.291,3.291,0,0,0,1.083-2.158A3.028,3.028,0,0,0,3215.089-6415.587Z" transform="translate(-3202.587 6424.789)" fill="#00a1e0"/>
      <path id="shape-4" data-name="shape" d="M3531.578-6405.963l-1.05-1.08c-2.416-2.487-4.915-5.062-7.4-7.559a2.848,2.848,0,0,0-2.024-.865,2.707,2.707,0,0,0-1.952.833,2.915,2.915,0,0,0,.058,4.083c.234.257.486.512.73.757l.313.318c.408.417.814.837,1.221,1.255,1.14,1.173,2.32,2.384,3.493,3.561a1.127,1.127,0,0,1,.4.835,1.052,1.052,0,0,1-.453.729,1.643,1.643,0,0,0-.177.178c-.035.039-.071.078-.107.115q-.822.844-1.647,1.686c-1.258,1.286-2.56,2.613-3.807,3.948a2.925,2.925,0,0,0-.794,2.122,2.934,2.934,0,0,0,.964,2.071,2.718,2.718,0,0,0,3.893-.309c1.9-1.931,3.825-3.9,5.686-5.812l2.684-2.752a2.653,2.653,0,0,0,.786-2.1v-.033l0-.034A2.369,2.369,0,0,0,3531.578-6405.963Z" transform="translate(-3482.07 6424.439)" fill="#00a1e0"/>
    </g>
  </g>
</svg>
