<svg id="icon_v" xmlns="http://www.w3.org/2000/svg" width="100" height="100" viewBox="0 0 100 100">
  <rect id="shape" width="100" height="100" fill="none"/>
  <path id="AXIS" d="M-608.625-3379.742h-66a13.907,13.907,0,0,1-9.9-4.1,13.909,13.909,0,0,1-4.1-9.9v-66a13.908,13.908,0,0,1,4.1-9.9,13.908,13.908,0,0,1,9.9-4.1h66a13.908,13.908,0,0,1,9.9,4.1,13.908,13.908,0,0,1,4.1,9.9v66a13.909,13.909,0,0,1-4.1,9.9A13.907,13.907,0,0,1-608.625-3379.742Zm-53.484-69.234v3.6l3.285.453,13.82,37.184h4.786l13.82-37.184,3.313-.453v-3.6h-13v3.6l3.71.566-9.2,26.819-.934,3.257h-.17l-.934-3.257-9.233-26.79,3.767-.595v-3.6Z" transform="translate(691.625 3476.741)" fill="#010101"/>
</svg>
