<svg id="icon_suspend" xmlns="http://www.w3.org/2000/svg" width="100" height="100" viewBox="0 0 100 100">
  <rect id="shape" width="100" height="100" fill="none"/>
  <g id="suspense" transform="translate(3 3)">
    <path id="Path_942" data-name="Path 942" d="M46.874,93.98A47,47,0,1,1,84.818,74.89a4.7,4.7,0,0,1-7.577-5.58,37.676,37.676,0,1,0-7.985,7.943,4.7,4.7,0,1,1,5.6,7.548,46.8,46.8,0,0,1-25.487,9.112C48.551,93.961,47.71,93.98,46.874,93.98ZM37.527,61.1a4.7,4.7,0,0,1-4.7-4.7V37.614a4.7,4.7,0,1,1,9.394,0V56.4a4.7,4.7,0,0,1-4.692,4.7h0Zm18.826,0a4.7,4.7,0,0,1-4.7-4.7V37.614a4.7,4.7,0,1,1,9.394,0V56.4a4.7,4.7,0,0,1-4.688,4.7Z" transform="translate(-0.001 0.02)" fill="#181818" fill-rule="evenodd"/>
    <rect id="background" width="94" height="94" fill="none"/>
  </g>
</svg>
