<svg id="icon_filter" xmlns="http://www.w3.org/2000/svg" width="100" height="100" viewBox="0 0 100 100">
  <rect id="shape" width="100" height="100" fill="none"/>
  <path id="shape-2" data-name="shape" d="M268.277,452.778c11.45,0,22.9-.022,34.349.011,4.112.012,7.4,1.644,9.454,5.4a10.162,10.162,0,0,1-.933,11.023,22.674,22.674,0,0,1-1.715,1.9q-15.222,15.392-30.468,30.758a2.877,2.877,0,0,0-.925,2.245c.037,7.437.023,14.873.019,22.31,0,2.66-.647,3.6-3.093,4.524-4.008,1.512-8.066,2.9-12.014,4.561-3.392,1.425-5.968-.242-5.9-4.1.165-9.067.037-18.14.074-27.21a3.278,3.278,0,0,0-.98-2.494q-14.709-15.45-29.335-30.98a13.358,13.358,0,0,1-2.953-4.569c-2.331-6.807,2.665-13.364,10.067-13.381C245.377,452.759,256.827,452.778,268.277,452.778Z" transform="translate(-218.282 -442.771)"/>
</svg>
