<svg id="icon_special2" xmlns="http://www.w3.org/2000/svg" width="24" height="24" viewBox="0 0 24 24">
  <rect id="shape" width="24" height="24" fill="none"/>
  <path id="Path_24495" data-name="Path 24495" d="M17581.219,18817a2.209,2.209,0,0,1-2.219-2.2V18809a8,8,0,0,1,2.344-5.652,8.186,8.186,0,0,1,2.543-1.721,8,8,0,0,1,3.125-.625h1.98a8.014,8.014,0,0,1,3.125.625,8.2,8.2,0,0,1,2.547,1.721A7.95,7.95,0,0,1,17597,18809v5.807a2.207,2.207,0,0,1-2.211,2.2Zm3.594-13.252a5.719,5.719,0,0,0-3.027,3.027,5.692,5.692,0,0,0-.449,2.223v5.7h13.336v-5.7a5.677,5.677,0,0,0-5.68-5.7h-1.98A5.61,5.61,0,0,0,17584.813,18803.75Z" transform="translate(-17576 -18797.002)"/>
</svg>
