<svg id="icon_seasil" xmlns="http://www.w3.org/2000/svg" width="100" height="100" viewBox="0 0 100 100">
  <g id="icon" transform="translate(1 22)">
    <path id="pin" d="M252.063,191.187c-.076.116-.155.231-.236.346q-.431.606-.86,1.213l-.586.826-2.555,3.6-2.282,3.219a2.633,2.633,0,0,1-.5.561,1.919,1.919,0,0,1-1.212.431,2.028,2.028,0,0,1-1.647-.872c-.255-.352-.506-.707-.756-1.062l-1.863-2.631q-1.851-2.614-3.705-5.224a10.012,10.012,0,0,1-1.789-4.229c-.045-.285-.073-.553-.093-.755-.012-.125-.022-.243-.031-.35s-.016-.19-.024-.263l-.007-.072v-.072a10.65,10.65,0,0,1,.916-4.237,27.959,27.959,0,0,0-44.1,16.221,17.377,17.377,0,1,0-4.544,34.153h59.8a20.86,20.86,0,0,0,6.078-40.808Z" transform="translate(-168.82 -175.995)" fill="#181818" />
    <path id="dot" d="M543.219,211.194h.009a2.877,2.877,0,0,1,1.681,5.2,2.839,2.839,0,0,1-1.686.558h0a2.854,2.854,0,0,1-1.535-.451,2.879,2.879,0,0,1,1.533-5.312Z" transform="translate(-468.219 -204.354)" fill="#181818" />
  </g>
</svg>
