<svg id="icon_text-underline" xmlns="http://www.w3.org/2000/svg" width="100" height="100" viewBox="0 0 100 100">
  <rect id="shape" width="100" height="100" fill="none"/>
  <path id="text" d="M-1038.172-6471.023a5.841,5.841,0,0,1-5.824-5.823,5.841,5.841,0,0,1,5.824-5.823h73.291a5.841,5.841,0,0,1,5.825,5.823,5.841,5.841,0,0,1-5.825,5.823Zm18.357-17.867a5.511,5.511,0,0,1-5.449-4.107,5.3,5.3,0,0,1,.811-4.544,5.01,5.01,0,0,1,3.8-2.256c1.114-.058,13.623-.28,13.623-.28v-55.766H-1032.9v11.922a6.965,6.965,0,0,1-.836,3.692,5.336,5.336,0,0,1-4.686,2.685,6.5,6.5,0,0,1-1.269-.127,5.332,5.332,0,0,1-4.143-4.522c-.105-1.318-.051-15.441-.152-18.385a6.294,6.294,0,0,1,1.623-4.652,6.407,6.407,0,0,1,4.75-1.784s63.122.026,71.959.025a6.7,6.7,0,0,1,4.414,1.2,5.347,5.347,0,0,1,2.161,4.438s.049,13.3-.14,19.122c-.023.717-.094,2.9-3.191,4.239a5.783,5.783,0,0,1-2.279.516,5.223,5.223,0,0,1-3.113-1.116,5.409,5.409,0,0,1-2.3-4.8v-12.465h-25.823v55.972s12.069,0,12.583.017c3.435.073,5.811,2.342,5.78,5.516-.033,3.153-2.5,5.449-5.877,5.457-1.78.006-12.495.009-21.844.009C-1012.733-6488.883-1019.317-6488.886-1019.815-6488.891Z" transform="translate(1051.997 6570)" stroke="rgba(0,0,0,0)" stroke-miterlimit="10" stroke-width="1"/>
</svg>
