<svg id="icon_strikethrough" xmlns="http://www.w3.org/2000/svg" width="100" height="100" viewBox="0 0 100 100">
  <rect id="shape" width="100" height="100" fill="none"/>
  <path id="Path_24474" data-name="Path 24474" d="M44,74a9.851,9.851,0,0,0,9.778-9.867V59.2H34.222v4.933A9.851,9.851,0,0,0,44,74M9.778,7.4a7.357,7.357,0,0,0,7.333,7.4H34.222V29.6H53.778V14.8H70.889a7.357,7.357,0,0,0,7.333-7.4A7.357,7.357,0,0,0,70.889,0H17.111A7.357,7.357,0,0,0,9.778,7.4M4.889,49.333H83.111a4.934,4.934,0,0,0,0-9.867H4.889a4.934,4.934,0,0,0,0,9.867" transform="translate(6 13)"/>
</svg>
