<svg id="icon_category" xmlns="http://www.w3.org/2000/svg" width="20" height="20" viewBox="0 0 20 20">
  <path id="Path_22016" data-name="Path 22016" d="M24.487,5.617V3.211l1,1a.957.957,0,0,0,1.347,0,.936.936,0,0,0,.005-1.324l-.005-.005-2.6-2.6A.987.987,0,0,0,22.881.256h0l-2.623,2.6a.953.953,0,0,0,1.347,1.347l.979-.979v2.4H22.6V10.12a2.971,2.971,0,0,0-.092,5.6l0,.008h.022a2.963,2.963,0,0,0,2.048-5.562l0-.008h-.022c-.023-.009-.048-.013-.072-.021V5.617Zm.078,7.158a1.088,1.088,0,0,1,.032.158v.011a1.052,1.052,0,0,1-1.054,1.044,1.03,1.03,0,0,1-.914-.555.906.906,0,0,1-.05-.076,1.061,1.061,0,0,1-.054-.253.922.922,0,0,1-.031-.157.044.044,0,0,1,0-.012,1.05,1.05,0,0,1,1.054-1.042,1.028,1.028,0,0,1,.913.554c.014.027.038.047.05.076a1.01,1.01,0,0,1,.054.253" transform="translate(-13.485 1.999)" />
  <rect id="shape" width="20" height="20" fill="none" />
</svg>