<svg id="icon_bookrmark" xmlns="http://www.w3.org/2000/svg" width="100" height="100" viewBox="0 0 100 100">
  <rect id="shape" width="100" height="100" fill="none"/>
  <path id="bookmark" d="M625.935,251.407c0,13.082-.084,26.165.044,39.246.048,4.853-2.766,5.439-6.027,3.962-8.33-3.772-16.768-7.311-25.158-10.955A13.889,13.889,0,0,0,583.4,283.6q-13.13,5.533-26.284,11.01c-.243.1-.484.21-.73.307-3.332,1.314-5.393-.033-5.4-3.584q-.023-17.064-.006-34.128,0-22.248,0-44.5c0-5.551,2.81-9.365,8.1-10.894a12.9,12.9,0,0,1,3.523-.371c17.225-.022,34.45.018,51.674-.033,5.913-.018,9.968,3.159,11.258,8.039a14.977,14.977,0,0,1,.375,3.763Q625.958,232.309,625.935,251.407Z" transform="translate(-537.979 -198.409)"/>
</svg>
