<svg id="icon_backscape" xmlns="http://www.w3.org/2000/svg" width="100" height="100" viewBox="0 0 100 100">
  <rect id="shape" width="100" height="100" fill="none"/>
  <path id="Exclusion_7" data-name="Exclusion 7" d="M80.2,64H32.42l-.079-.008L32.27,64a6.727,6.727,0,0,1-1.394-.155,2.965,2.965,0,0,1-.378-.111c-.082-.028-.162-.054-.242-.077s-.138-.042-.208-.061l-.023-.006a2.961,2.961,0,0,1-.33-.108,7.823,7.823,0,0,1-3.622-2.8L2.577,38.258A8.912,8.912,0,0,1,1.758,26.67a8.269,8.269,0,0,1,.819-.911L26.07,3.324A7.745,7.745,0,0,1,29.86.469c.158-.062.324-.11.486-.157L30.43.289l.027-.007c.213-.059.408-.111.615-.149A6.863,6.863,0,0,1,32.018.04c.056,0,.114-.011.172-.018A1.585,1.585,0,0,1,32.42,0H80.2A7.848,7.848,0,0,1,88,7.878V56.122A7.847,7.847,0,0,1,80.2,64ZM44.559,20.986a2.627,2.627,0,0,0-1.878.785,2.7,2.7,0,0,0,0,3.792l6.379,6.432-6.375,6.441a2.7,2.7,0,0,0,0,3.794,2.646,2.646,0,0,0,3.761,0l6.372-6.437,6.374,6.432a2.636,2.636,0,0,0,3.755,0,2.7,2.7,0,0,0,0-3.794l-6.382-6.438,6.372-6.43a2.691,2.691,0,0,0,0-3.79,2.632,2.632,0,0,0-3.755,0L52.81,28.211l-6.371-6.44a2.616,2.616,0,0,0-1.876-.785Z" transform="translate(6 18.014)" fill="#181818" stroke="rgba(0,0,0,0)" stroke-width="1"/>
</svg>
