<svg id="icon_y" xmlns="http://www.w3.org/2000/svg" width="16" height="16" viewBox="0 0 16 16">
  <rect id="shape" width="16" height="16" fill="none"/>
  <path id="shape-2" data-name="shape" d="M2.234,0H12.766A2.234,2.234,0,0,1,15,2.234V12.766A2.234,2.234,0,0,1,12.766,15H2.234A2.234,2.234,0,0,1,0,12.766V2.234A2.234,2.234,0,0,1,2.234,0Z" transform="translate(0.5 0.5)" fill="#b8b8b8"/>
  <path id="svg-fill-c-scale-1" d="M120.444-832a.43.43,0,0,1-.317-.128.43.43,0,0,1-.128-.317v-2.667a.43.43,0,0,1,.128-.317.43.43,0,0,1,.317-.128.43.43,0,0,1,.317.128.43.43,0,0,1,.128.317v1.6l5.6-5.6h-1.6a.43.43,0,0,1-.317-.128.43.43,0,0,1-.128-.317.43.43,0,0,1,.128-.317.43.43,0,0,1,.317-.128h2.667a.43.43,0,0,1,.317.128.43.43,0,0,1,.128.317v2.667a.43.43,0,0,1-.128.317.43.43,0,0,1-.317.128.43.43,0,0,1-.317-.128.43.43,0,0,1-.128-.317v-1.6l-5.6,5.6h1.6a.43.43,0,0,1,.317.128.43.43,0,0,1,.128.317.43.43,0,0,1-.128.317.43.43,0,0,1-.317.128Z" transform="translate(-116 844)" fill="#fcfcfc"/>
</svg>
