<svg id="icon_cashregister" xmlns="http://www.w3.org/2000/svg" width="100" height="100" viewBox="0 0 100 100">
  <rect id="shape" width="100" height="100" fill="none"/>
  <path id="Path_979" data-name="Path 979" d="M47.523.529a3.357,3.357,0,0,0-3.349,3.362V10.6a3.346,3.346,0,0,0,3.349,3.349H74.382A3.357,3.357,0,0,0,77.744,10.6V3.891A3.368,3.368,0,0,0,74.382.529Zm-23.5,16.785V47.523H37.462V17.314Zm33.571,0v3.362h6.712V17.314ZM17.314,24.026A10.131,10.131,0,0,0,7.241,34.1V74.382H87.8V34.1A10.12,10.12,0,0,0,77.744,24.026H40.811V44.173a3.356,3.356,0,1,1,.089,6.712H20.676a3.356,3.356,0,1,1-.089-6.712h.089V24.026ZM50.885,34.1H71.019a3.352,3.352,0,0,1,3.362,3.362v3.349a3.36,3.36,0,0,1-3.362,3.362H50.885a3.368,3.368,0,0,1-3.362-3.362V37.462A3.36,3.36,0,0,1,50.885,34.1Zm0,16.785a3.356,3.356,0,1,1-3.362,3.362A3.349,3.349,0,0,1,50.885,50.885Zm10.074,0a3.356,3.356,0,0,1,0,6.712h-.241A3.364,3.364,0,0,1,57.6,54.247a1.458,1.458,0,0,1,.013-.241,3.346,3.346,0,0,1,3.349-3.121Zm10.061,0a3.356,3.356,0,1,1,0,6.712h-.228a3.364,3.364,0,0,1-3.121-3.349v-.241a3.355,3.355,0,0,1,3.349-3.121ZM50.885,60.958a3.356,3.356,0,1,1-3.362,3.349A3.346,3.346,0,0,1,50.885,60.958Zm10.074,0a3.356,3.356,0,0,1,0,6.712,1.458,1.458,0,0,1-.241-.013A3.355,3.355,0,0,1,57.6,64.308a1.38,1.38,0,0,1,.013-.228,3.346,3.346,0,0,1,3.349-3.121Zm10.061,0a3.356,3.356,0,1,1,0,6.712,1.38,1.38,0,0,1-.228-.013,3.355,3.355,0,0,1-3.121-3.349V64.08a3.355,3.355,0,0,1,3.349-3.121ZM3.891,77.744A3.357,3.357,0,0,0,.529,81.093V91.167a3.368,3.368,0,0,0,3.362,3.362H91.167a3.368,3.368,0,0,0,3.362-3.362V81.093a3.357,3.357,0,0,0-3.362-3.349Z" transform="translate(2.471 2.471)" fill="#181818"/>
</svg>
