<svg id="icon_calendar:day" xmlns="http://www.w3.org/2000/svg" width="100" height="100" viewBox="0 0 100 100">
  <path id="calendar:day" d="M-4665.015-1880.588a5.633,5.633,0,0,1-5.78-5.472v-59.158a5.635,5.635,0,0,1,5.78-5.477h6.558v4a9.108,9.108,0,0,0,9.329,8.844,9.11,9.11,0,0,0,9.335-8.844v-4h12v4a9.11,9.11,0,0,0,9.334,8.844,9.11,9.11,0,0,0,9.335-8.844v-4h6.553a5.635,5.635,0,0,1,5.778,5.477v59.158a5.634,5.634,0,0,1-5.778,5.472Zm22.181-41.721h6.207v23.923h7.176v-29.38h-13.382Zm19.482-24.386v-9.26a4.768,4.768,0,0,1,4.891-4.632,4.763,4.763,0,0,1,4.886,4.632v9.26a4.763,4.763,0,0,1-4.886,4.632A4.768,4.768,0,0,1-4623.353-1946.7Zm-30.663,0v-9.26a4.765,4.765,0,0,1,4.891-4.632,4.763,4.763,0,0,1,4.886,4.632v9.26a4.763,4.763,0,0,1-4.886,4.632A4.765,4.765,0,0,1-4654.016-1946.7Z" transform="translate(4683.794 1970.588)" stroke="rgba(0,0,0,0)" stroke-miterlimit="10" stroke-width="1"/>
  <rect id="shape" width="100" height="100" fill="none"/>
</svg>
