<svg xmlns="http://www.w3.org/2000/svg" xmlns:xlink="http://www.w3.org/1999/xlink" width="256" height="259" viewBox="0 0 256 259">
  <defs>
    <filter id="Path_50511" x="68.266" y="145.693" width="116.508" height="57.307" filterUnits="userSpaceOnUse">
      <feOffset dy="2" input="SourceAlpha"/>
      <feGaussianBlur stdDeviation="0.5" result="blur"/>
      <feFlood flood-color="#787878" flood-opacity="0.161"/>
      <feComposite operator="in" in2="blur"/>
      <feComposite in="SourceGraphic"/>
    </filter>
    <linearGradient id="linear-gradient" x1="0.159" y1="-3.713" x2="1.159" y2="-3.713" gradientUnits="objectBoundingBox">
      <stop offset="0" stop-color="gray" stop-opacity="0.251"/>
      <stop offset="0.54" stop-color="gray" stop-opacity="0.122"/>
      <stop offset="1" stop-color="gray" stop-opacity="0.102"/>
    </linearGradient>
  </defs>
  <g id="money-machine_svg" transform="translate(-703 -166)">
    <rect id="Rectangle_3222" data-name="Rectangle 3222" width="256" height="259" transform="translate(703 166)" fill="#fff"/>
    <g id="Group_16079" data-name="Group 16079" transform="translate(692.783 189.806)">
      <path id="Path_50482" data-name="Path 50482" d="M219.98,86.651a44.805,44.805,0,0,1-1.321,10.844q-.445,1.791-1.033,3.512a41.73,41.73,0,0,1-1.666,4.156q-.476,1.026-1.007,2.015a27.035,27.035,0,0,1-2.273,10.89,28.129,28.129,0,0,1-13.669,14.039,28.84,28.84,0,0,1-12.217,2.793H41.746A36.638,36.638,0,0,1,23.363,130q-1.238-.715-2.413-1.523a36.474,36.474,0,0,1-4.776-3.925,35.455,35.455,0,0,1-5.25-6.492,34.524,34.524,0,0,1-5.34-18.475A43.462,43.462,0,0,1-.02,78.01,42.667,42.667,0,0,1,8.649,51.841a36.831,36.831,0,0,1,3.681-4.083,34.227,34.227,0,0,1,4.21-3.435,32.507,32.507,0,0,1,3.736-2.234c.54-.276,1.081-.533,1.632-.773.484-.214.973-.413,1.468-.6q.891-.339,1.8-.62t1.8-.5q1.308-.318,2.66-.518c.747-.11,1.494-.186,2.241-.246q.891-.063,1.8-.074h.327c.665,0,1.326.026,1.982.071.069-.138.144-.277.213-.415.261-.5.532-.991.805-1.476v-.013c.047-.084.093-.168.142-.249.22-.4.45-.789.685-1.179.108-.186.215-.361.325-.538.024-.043.049-.084.077-.127q.168-.279.342-.559.865-1.376,1.8-2.709c.054-.076.1-.151.159-.225.1-.138.187-.274.3-.41.258-.359.523-.721.79-1.076.187-.251.374-.5.575-.745q.728-.938,1.494-1.862c.51-.614,1.048-1.233,1.591-1.838.075-.084.149-.166.228-.249l.8-.866h0c.039-.041.073-.078.11-.115h0c.1-.1.187-.2.29-.305.428-.451.867-.9,1.307-1.335a71.145,71.145,0,0,1,7.18-6.219c.1-.078.2-.153.3-.227.474-.357.956-.709,1.438-1.056a76.027,76.027,0,0,1,8.3-5.157c.2-.112.4-.218.6-.324a79.715,79.715,0,0,1,7.936-3.642q2.215-.873,4.509-1.631c1.012-.33,2.028-.644,3.058-.931q2.387-.683,4.834-1.233A86.816,86.816,0,0,1,100.781.137Q103.022.02,105.314.02a87.118,87.118,0,0,1,21.854,2.756.789.789,0,0,0,.678.352h.628c.273.073.544.149.816.227q2.284.657,4.5,1.432l.374.134A80.53,80.53,0,0,1,144.8,9.575a76.99,76.99,0,0,1,8.9,5.481q.656.469,1.293.948.773-.5,1.573-.948a30.99,30.99,0,0,1,6.515-2.767,29.807,29.807,0,0,1,14.614-.57,32.363,32.363,0,0,1,16.373,9.205,38.1,38.1,0,0,1,4.916,6.2c.1.16.205.322.3.486a40.916,40.916,0,0,1,3.127,6.217c.032.078.063.155.092.233a42.937,42.937,0,0,1,1.924,6.209c.022.106.049.214.071.322a44.584,44.584,0,0,1,.919,6.213,1.169,1.169,0,0,0,.015.227q.118,1.622.12,3.279c0,.987-.034,1.966-.1,2.936,0,.106-.015.218-.024.326-.017.283-.041.559-.065.843a35.388,35.388,0,0,1,3.993,3.754q.816.888,1.58,1.845a39.114,39.114,0,0,1,4.072,6.213A43.626,43.626,0,0,1,219.98,86.651Z" transform="translate(28.236 35.674)" fill="#62cb62" opacity="0.1" style="isolation: isolate"/>
      <path id="Path_50483" data-name="Path 50483" d="M265.456,558.1c0,3.607-3.751,6.983-10.3,9.89H131.531a25.264,25.264,0,0,1-15.669-5.661,6.556,6.556,0,0,1-1.762-4.231c0-3.834,4.241-7.413,11.574-10.437h0l.207-.083c2.07-.846,4.383-1.644,6.911-2.395.064-.019.129-.036.193-.059h0q3.009-.881,6.4-1.669c.072-.016.142-.033.213-.046.872-.206,1.762-.4,2.671-.59h0l.35-.073a200.09,200.09,0,0,1,22.288-3.19h.01q1.713-.159,3.463-.284c1.3-.1,2.611-.19,3.939-.271,1.014-.065,2.041-.121,3.071-.172a.031.031,0,0,1,.024,0c4.647-.233,9.449-.355,14.358-.355a265.36,265.36,0,0,1,33.784,2.063.083.083,0,0,1,.029,0c1.563.2,3.1.417,4.595.646.428.067.855.133,1.274.2q2.533.408,4.935.862h0C253.223,545.811,265.456,551.586,265.456,558.1Z" transform="translate(-51.421 -401.003)" fill="#62cb62" opacity="0.1" style="isolation: isolate"/>
      <rect id="Rectangle_3241" data-name="Rectangle 3241" width="96.544" height="29.537" transform="translate(89.545 69.598)" fill="#404040"/>
      <rect id="Rectangle_3242" data-name="Rectangle 3242" width="156.998" height="31.977" transform="translate(59.471 113.894)" fill="#090909"/>
      <g transform="matrix(1, 0, 0, 1, 10.22, -23.81)" filter="url(#Path_50511)">
        <path id="Path_50511-2" data-name="Path 50511" d="M374.124,510.35h80.5l16.04,53.807H357.16Z" transform="translate(-287.39 -364.66)" fill="#fcfcfc"/>
      </g>
      <path id="Path_50512" data-name="Path 50512" d="M257.73,402.33v51.039H287.8V423.854H393.6v29.515h30.074V402.33Z" transform="translate(-202.732 -307.501)" fill="#232323"/>
      <rect id="Rectangle_3243" data-name="Rectangle 3243" width="165.944" height="16.602" transform="translate(54.998 94.829)" fill="#232323" opacity="0.1" style="isolation: isolate"/>
      <ellipse id="Ellipse_874" data-name="Ellipse 874" cx="2.468" cy="2.46" rx="2.468" ry="2.46" transform="translate(209.531 100.673)" fill="#ffc44d" opacity="0.8" style="isolation: isolate"/>
      <ellipse id="Ellipse_875" data-name="Ellipse 875" cx="2.468" cy="2.46" rx="2.468" ry="2.46" transform="translate(198.427 100.673)" fill="#be4040" opacity="0.8" style="isolation: isolate"/>
      <path id="Path_50573" data-name="Path 50573" d="M551.76,566.428c-3.832-1.581-4.958-2.723-4.958-5.01,0-1.753.774-3.777,4.166-3.777a9.59,9.59,0,0,1,5.3,1.5l1.1-2.908a11.728,11.728,0,0,0-5.727-1.538V550.44h-2.229v4.433c-4.053.659-6.4,3.424-6.4,7.069,0,3.82,2.262,5.841,6.765,7.6,3.262,1.325,4.968,2.818,4.968,5.233,0,2.5-2.113,4.3-5.242,4.3a13.627,13.627,0,0,1-6.845-1.889l-1.058,2.941a12.857,12.857,0,0,0,6.739,1.934v4.434h3.792v-4.566c4.523-.751,6.958-4.008,6.958-7.465C559.09,570.557,556.3,568.272,551.76,566.428Z" transform="translate(-415.27 -418.511)" fill="url(#linear-gradient)"/>
      <path id="Path_50574" data-name="Path 50574" d="M548.38,582.518v-4.434a12.86,12.86,0,0,1-6.74-1.934l1.058-2.941a13.628,13.628,0,0,0,6.845,1.889c3.128,0,5.232-1.8,5.232-4.3,0-2.415-1.716-3.908-4.978-5.225-4.493-1.753-6.765-3.777-6.765-7.6,0-3.645,2.347-6.41,6.4-7.069V546.47h2.229v4.258a11.756,11.756,0,0,1,5.727,1.538l-1.1,2.9a9.59,9.59,0,0,0-5.3-1.5c-3.392,0-4.166,2.022-4.166,3.777,0,2.282,1.126,3.424,4.958,5.01,4.538,1.844,7.33,4.128,7.33,8.035,0,3.469-2.423,6.718-6.958,7.465v4.571Z" transform="translate(-415.3 -415.536)" fill="#62cb62"/>
    </g>
  </g>
</svg>
