<svg xmlns="http://www.w3.org/2000/svg" width="143.467" height="228.947" viewBox="0 0 143.467 228.947">
  <path id="Exclusão_8" data-name="Exclusão 8" d="M111.567,227.947H33.908A25.071,25.071,0,0,1,9.068,205.085L.16,98.231C.054,96.971,0,95.678,0,94.387V17.808A17.828,17.828,0,0,1,17.808,0h106.85a17.828,17.828,0,0,1,17.808,17.808V94.979c0,.855-.025,1.722-.073,2.578L136.456,204.4c0,.019,0,.039,0,.058v.006c0,.017,0,.035,0,.052a.2.2,0,0,0,0,.023c0,.036,0,.073-.007.109a.277.277,0,0,1,0,.028c0,.037,0,.075-.007.111,0,0,0,.006,0,.009s0,.006,0,.009l0,.027-.006.073a.246.246,0,0,1,0,.026l0,.055,0,.055a.178.178,0,0,0,0,.022c0,.019,0,.037,0,.056v.006c0,.017,0,.035,0,.052s0,.005,0,.008,0,.005,0,.008c0,.018,0,.036,0,.054s0,.036,0,.054c0,0,0,0,0,.007s0,.005,0,.008l-.011.114v.02c0,.04-.007.077-.012.118v.005l-.027.252a24.936,24.936,0,0,1-24.771,22.124Zm-75.95-17.809a3.562,3.562,0,0,0,0,7.123h71.232a3.562,3.562,0,1,0,0-7.123ZM92.6,185.207a3.564,3.564,0,0,0-3.56,3.56v7.123a3.566,3.566,0,0,0,3.56,3.563h14.249a3.566,3.566,0,0,0,3.56-3.563v-7.123a3.564,3.564,0,0,0-3.56-3.56Zm-28.493,0a3.565,3.565,0,0,0-3.561,3.56v7.123a3.566,3.566,0,0,0,3.561,3.563H78.356a3.567,3.567,0,0,0,3.563-3.563v-7.123a3.566,3.566,0,0,0-3.563-3.56Zm-28.493,0a3.565,3.565,0,0,0-3.561,3.56v7.123a3.566,3.566,0,0,0,3.561,3.563H49.863a3.567,3.567,0,0,0,3.563-3.563v-7.123a3.566,3.566,0,0,0-3.563-3.56ZM92.6,163.837a3.564,3.564,0,0,0-3.56,3.56v7.123a3.566,3.566,0,0,0,3.56,3.563h14.249a3.566,3.566,0,0,0,3.56-3.563V167.4a3.564,3.564,0,0,0-3.56-3.56Zm-28.493,0a3.565,3.565,0,0,0-3.561,3.56v7.123a3.566,3.566,0,0,0,3.561,3.563H78.356a3.567,3.567,0,0,0,3.563-3.563V167.4a3.566,3.566,0,0,0-3.563-3.56Zm-28.493,0a3.565,3.565,0,0,0-3.561,3.56v7.123a3.566,3.566,0,0,0,3.561,3.563H49.863a3.567,3.567,0,0,0,3.563-3.563V167.4a3.566,3.566,0,0,0-3.563-3.56Zm57.364-21.37a3.565,3.565,0,0,0-3.561,3.561v7.123a3.566,3.566,0,0,0,3.561,3.562h14.246a3.566,3.566,0,0,0,3.562-3.562v-7.123a3.566,3.566,0,0,0-3.562-3.561Zm-28.871,0a3.565,3.565,0,0,0-3.561,3.561v7.123a3.566,3.566,0,0,0,3.561,3.562H78.356a3.567,3.567,0,0,0,3.563-3.562v-7.123a3.566,3.566,0,0,0-3.563-3.561Zm-28.493,0a3.565,3.565,0,0,0-3.561,3.561v7.123a3.566,3.566,0,0,0,3.561,3.562H49.863a3.567,3.567,0,0,0,3.563-3.562v-7.123a3.566,3.566,0,0,0-3.563-3.561ZM92.981,121.1a3.565,3.565,0,0,0-3.561,3.561v7.123a3.566,3.566,0,0,0,3.561,3.563h14.246a3.567,3.567,0,0,0,3.562-3.563v-7.123a3.566,3.566,0,0,0-3.562-3.561Zm-28.495,0a3.565,3.565,0,0,0-3.56,3.561v7.123a3.566,3.566,0,0,0,3.56,3.563H78.734a3.567,3.567,0,0,0,3.562-3.563v-7.123a3.566,3.566,0,0,0-3.562-3.561Zm-28.493,0a3.565,3.565,0,0,0-3.56,3.561v7.123a3.566,3.566,0,0,0,3.56,3.563H50.24a3.567,3.567,0,0,0,3.563-3.563v-7.123A3.566,3.566,0,0,0,50.24,121.1ZM28.871,30.4A10.684,10.684,0,0,0,18.186,41.085v64.11a7.132,7.132,0,0,0,7.123,7.123h92.6a7.131,7.131,0,0,0,7.123-7.123V41.085A10.684,10.684,0,0,0,114.351,30.4Zm42.6,62.995H71.3c-.068,0-.135,0-.2,0a22.583,22.583,0,0,1-8.641-1.708A21.8,21.8,0,0,1,50.623,79.846a23.51,23.51,0,0,1,0-17.63,21.75,21.75,0,0,1,4.729-7.107A22.523,22.523,0,0,1,93.69,70.645V71A22.457,22.457,0,0,1,87.2,86.953a21.743,21.743,0,0,1-7.108,4.729A22.434,22.434,0,0,1,71.472,93.395ZM70.907,51.97A18.648,18.648,0,0,0,52.273,70.228c-.005.26-.005.521,0,.777A18.645,18.645,0,0,0,70.529,90.032c.128,0,.267.006.427.006.144,0,.248,0,.348-.006.155,0,.277,0,.4,0A18.647,18.647,0,0,0,90.333,71.778c0-.258,0-.519,0-.775a18.648,18.648,0,0,0-18.256-19.03c-.115,0-.242,0-.389,0s-.273,0-.387,0S71.069,51.97,70.907,51.97Zm5.531,30.2a1.4,1.4,0,0,1-.6-.134,1.739,1.739,0,0,1-.951-.865,1.481,1.481,0,0,1,0-1.259,23.6,23.6,0,0,0,1.147-4.366,28.271,28.271,0,0,0,.365-4.533,27.761,27.761,0,0,0-.365-4.505,23.618,23.618,0,0,0-1.147-4.337,1.424,1.424,0,0,1,.028-1.259,1.916,1.916,0,0,1,.923-.868,1.482,1.482,0,0,1,1.288.029,1.881,1.881,0,0,1,.9.923,26.8,26.8,0,0,1,1.316,4.925,31.1,31.1,0,0,1,0,10.186A28.09,28.09,0,0,1,78.02,81.08,1.854,1.854,0,0,1,77.1,82,1.418,1.418,0,0,1,76.438,82.165Zm-7.331-3.084a1.474,1.474,0,0,1-.6-.128,1.514,1.514,0,0,1-.95-.839,1.693,1.693,0,0,1-.057-1.288,18.445,18.445,0,0,0,.671-2.883,19.793,19.793,0,0,0,.224-2.938,19.324,19.324,0,0,0-.224-2.911A18.712,18.712,0,0,0,67.5,65.24a1.7,1.7,0,0,1,.057-1.288,1.53,1.53,0,0,1,.895-.84,1.549,1.549,0,0,1,1.344.056,1.725,1.725,0,0,1,.9.95A19.938,19.938,0,0,1,71.5,67.5a24.034,24.034,0,0,1,.252,3.5A24.515,24.515,0,0,1,71.5,74.53a19.89,19.89,0,0,1-.811,3.416,1.719,1.719,0,0,1-.868.952A1.486,1.486,0,0,1,69.107,79.081ZM61.546,75.92a1.475,1.475,0,0,1-.539-.1,1.843,1.843,0,0,1-1.037-.866,1.534,1.534,0,0,1-.029-1.315,7.456,7.456,0,0,0,.337-1.287,8.134,8.134,0,0,0,.112-1.344c0-.452-.02-.9-.056-1.316a4.929,4.929,0,0,0-.279-1.259,1.83,1.83,0,0,1,0-1.4,1.537,1.537,0,0,1,.9-.84,1.666,1.666,0,0,1,1.231.028,1.426,1.426,0,0,1,.84.868,14.446,14.446,0,0,1,.532,1.931,10.091,10.091,0,0,1,.2,1.986,9.817,9.817,0,0,1-.2,1.958,14.791,14.791,0,0,1-.532,1.9,1.547,1.547,0,0,1-.812.9A1.5,1.5,0,0,1,61.546,75.92Z" transform="translate(0.5 0.5)" fill="#232323" stroke="rgba(0,0,0,0)" stroke-miterlimit="10" stroke-width="1"/>
</svg>
