<svg id="icon_layers_off" xmlns="http://www.w3.org/2000/svg" width="24" height="24" viewBox="0 0 24 24">
  <rect id="shape" width="24" height="24" fill="none"/>
  <path id="layers_off" d="M19.99,9.79a1.007,1.007,0,0,0,0-1.58L13.23,2.95a2.011,2.011,0,0,0-2.46,0L9.41,4.02l7.88,7.88,2.7-2.11Zm0,3.49-.01-.01a.991.991,0,0,0-1.22,0l-.05.04,1.4,1.4a.982.982,0,0,0-.12-1.43Zm1.45,5.6L4.12,1.56A1,1,0,0,0,2.71,2.97L6.23,6.49,4.01,8.21a1.007,1.007,0,0,0,0,1.58l6.76,5.26a2.011,2.011,0,0,0,2.46,0l.87-.68,1.42,1.42L12.6,18.06a1.006,1.006,0,0,1-1.23,0L5.22,13.28A.994.994,0,1,0,4,14.85l6.76,5.26a2.011,2.011,0,0,0,2.46,0l3.72-2.89,3.07,3.07a1,1,0,0,0,1.41,0A.979.979,0,0,0,21.44,18.88Z"/>
</svg>
