<svg id="icon_a" xmlns="http://www.w3.org/2000/svg" width="100" height="100" viewBox="0 0 100 100">
  <rect id="shape" width="100" height="100" fill="none"/>
  <path id="AXIS" d="M-608.625-3379.742h-66a13.907,13.907,0,0,1-9.9-4.1,13.909,13.909,0,0,1-4.1-9.9v-66a13.908,13.908,0,0,1,4.1-9.9,13.908,13.908,0,0,1,9.9-4.1h66a13.908,13.908,0,0,1,9.9,4.1,13.908,13.908,0,0,1,4.1,9.9v66a13.909,13.909,0,0,1-4.1,9.9A13.907,13.907,0,0,1-608.625-3379.742Zm-40.945-37.7h16.51l2.719,7.59-3.115.538v3.568h11.838v-3.568l-3.03-.425-14.16-37.241h-4.786l-14.415,37.241-3.059.425v3.568h11.81v-3.568l-3.115-.538,2.8-7.589Zm14.811-4.673h-13.083l6.513-17.7h.17l6.4,17.7Z" transform="translate(691.625 3476.741)" fill="#010101"/>
</svg>
