<svg id="icon_launch" xmlns="http://www.w3.org/2000/svg" width="100" height="100" viewBox="0 0 100 100">
  <rect id="shape" width="100" height="100" fill="none"/>
  <path id="rocket" d="M17087.6,3128.763a17.05,17.05,0,0,1-1.65-10.887,17.573,17.573,0,0,1,3.557-7.839,33.092,33.092,0,0,1-17.062-17.4c-.152.1-.371.246-.584.4a16.582,16.582,0,0,1-14.91,2.513,12.061,12.061,0,0,1-4.1-1.781,4.24,4.24,0,0,1-1.434-5.3,11.125,11.125,0,0,1,2.1-2.984c5.965-6.063,12.039-12.021,17.961-18.122,3.348-3.443,8.322-3.588,12.082-.294.219.192.434.4.668.615,1.545-1.358,3.02-2.711,4.549-4a103.3,103.3,0,0,1,26.1-16.186,64.464,64.464,0,0,1,14.967-4.6,54.345,54.345,0,0,1,6.875-.411,5.226,5.226,0,0,1,1.818.4,2.576,2.576,0,0,1,1.635,2.487,29.984,29.984,0,0,1-.984,9.694,85.015,85.015,0,0,1-8.717,21.881,103.373,103.373,0,0,1-15.422,20.987c-.162.161-.3.332-.355.38a29.827,29.827,0,0,1,2.176,3.8,7.743,7.743,0,0,1-1.982,8.956q-9.226,9.023-18.5,17.993a10.493,10.493,0,0,1-2.324,1.759,5.3,5.3,0,0,1-2.49.67A4.361,4.361,0,0,1,17087.6,3128.763Zm29.963-73.893a9.23,9.23,0,0,0-8.961,9.416,9.123,9.123,0,1,0,9.174-9.419C17117.7,3054.867,17117.633,3054.868,17117.561,3054.87Zm-45.678,61.343a13.563,13.563,0,0,1-7.414-10c-.566-3.257.807-6.626,3.309-8.064a47.249,47.249,0,0,0,15.771,16.218,5.888,5.888,0,0,1-3,2.513,9.419,9.419,0,0,1-3.57.715A10.753,10.753,0,0,1,17071.883,3116.213Z" transform="translate(-17045.992 -3037.479)" fill="#181818"/>
</svg>
