<svg id="icon_info" xmlns="http://www.w3.org/2000/svg" width="100" height="100" viewBox="0 0 100 100">
  <rect id="shape" width="100" height="100" fill="none"/>
  <path id="info" d="M595.616,981.785H595.6a47.492,47.492,0,1,0,.016,0Zm-5.35,18.3H600.93c.048,0,.095,0,.142,0a2.737,2.737,0,0,1,2.6,2.87l-1.551,31.023a2.738,2.738,0,0,1-2.734,2.6h-7.567a2.737,2.737,0,0,1-2.734-2.6l-1.551-31.023c0-.045,0-.091,0-.137A2.738,2.738,0,0,1,590.266,1000.089Zm5.333,58.393a9.124,9.124,0,1,1,9.124-9.123A9.123,9.123,0,0,1,595.6,1058.481Z" transform="translate(-545.1 -978.785)"/>
</svg>
