<svg id="re_order" data-name="re order" xmlns="http://www.w3.org/2000/svg" width="100" height="100" viewBox="0 0 100 100">
  <rect id="shape" width="100" height="100" transform="translate(0)" fill="none"/>
  <path id="Caminho_19836" data-name="Caminho 19836" d="M425.093,69.5h-36.7a5.3,5.3,0,1,0,0,10.6h36.7a5.271,5.271,0,0,0,5.3-5.3A5.335,5.335,0,0,0,425.093,69.5Z" transform="translate(-331.215 -0.182)"/>
  <path id="Caminho_19837" data-name="Caminho 19837" d="M388.393,55.4h29.5a5.271,5.271,0,0,0,5.3-5.3,5.356,5.356,0,0,0-5.3-5.4h-29.5a5.271,5.271,0,0,0-5.3,5.3A5.356,5.356,0,0,0,388.393,55.4Z" transform="translate(-331.215 -0.182)"/>
  <path id="Caminho_19838" data-name="Caminho 19838" d="M388.393,30.5h22.4a5.271,5.271,0,0,0,5.3-5.3,5.335,5.335,0,0,0-5.3-5.3h-22.4a5.3,5.3,0,1,0,0,10.6Z" transform="translate(-331.215 -0.182)"/>
  <path id="Union_1" data-name="Union 1" d="M356.671,61.563h8.618a5.722,5.722,0,0,1,5.9,3.483,5.361,5.361,0,0,1-1.755,6.238C364.889,75.7,360.4,80.205,355.89,84.63a5.567,5.567,0,0,1-8.87.161c-4.741-4.521-9.372-9.172-14-13.8a5.11,5.11,0,0,1-1.336-6.045A5.368,5.368,0,0,1,337,61.666c2.844-.032,5.7,0,8.966,0,0-1.432-.045-42.542.045-43.374a5.392,5.392,0,0,1,5.47-5.109,5.161,5.161,0,0,1,5.182,5.139c0,.164-.006.329-.021.492C356.722,26.084,356.671,55.886,356.671,61.563Z" transform="translate(-331.215 -0.182)"/>
</svg>
