<svg id="icon_2D" xmlns="http://www.w3.org/2000/svg" width="100" height="100" viewBox="0 0 100 100">
  <rect id="shape" width="100" height="100" transform="translate(0 100) rotate(-90)" fill="none"/>
  <path id="_2D" data-name=" 2D" d="M-192.718,145.233a1.475,1.475,0,0,1-1.527-1.409V132.274l-8.234.077a1.244,1.244,0,0,0-1.25,1.233v2.6a1.239,1.239,0,0,1-1.248,1.229,1.255,1.255,0,0,1-.647-.181l-10.777-6.493a1.222,1.222,0,0,1-.419-1.689,1.24,1.24,0,0,1,.419-.414l10.873-6.51a1.25,1.25,0,0,1,1.7.414,1.213,1.213,0,0,1,.18.634v2.616a1.243,1.243,0,0,0,1.25,1.231l8.141-.089V99.769a1.62,1.62,0,0,1,1.629-1.61h26.377V89.77a1.24,1.24,0,0,0-1.247-1.233h-2.646a1.233,1.233,0,0,1-1.245-1.22,1.215,1.215,0,0,1,.179-.639l6.618-10.725a1.273,1.273,0,0,1,1.741-.4,1.257,1.257,0,0,1,.407.4l6.578,10.639a1.223,1.223,0,0,1-.421,1.691,1.255,1.255,0,0,1-.642.178h-2.633a1.24,1.24,0,0,0-1.247,1.233v8.454h11.937a1.732,1.732,0,0,1,1.742,1.722v43.949a1.475,1.475,0,0,1-1.529,1.409Zm5.562-7.984a1.474,1.474,0,0,0,1.528,1.408h29.89a1.5,1.5,0,0,0,1.536-1.421v-30.9a1.619,1.619,0,0,0-1.629-1.61h-4.976v26.012a1.244,1.244,0,0,1-1.241,1.233l-25.1.235Zm0-30.918v20.525l19.675-.213a1.243,1.243,0,0,0,1.248-1.234V104.727h-19.288a1.619,1.619,0,0,0-1.634,1.6v0Z" transform="translate(229.936 -62.426)" fill="#131313"/>
</svg>
