<svg id="icon_phone" xmlns="http://www.w3.org/2000/svg" width="100" height="100" viewBox="0 0 100 100">
  <rect id="shape" width="100" height="100" fill="none"/>
  <path id="phone" d="M85.49,62.185l-19.25-8.25a4.125,4.125,0,0,0-4.813,1.186L52.9,65.536A63.708,63.708,0,0,1,22.447,35.081l10.416-8.525a4.115,4.115,0,0,0,1.186-4.813L25.8,2.493A4.153,4.153,0,0,0,21.072.1L3.2,4.229A4.125,4.125,0,0,0,0,8.249,79.742,79.742,0,0,0,79.751,88a4.125,4.125,0,0,0,4.022-3.2L87.9,66.928a4.175,4.175,0,0,0-2.408-4.744Z" transform="translate(6 6)"/>
</svg>
