<svg id="all_selected" data-name="all selected" xmlns="http://www.w3.org/2000/svg" width="100" height="100" viewBox="0 0 100 100">
  <rect id="shape" width="100" height="100" fill="none"/>
  <g id="icone" transform="translate(-94.924 11.349)">
    <path id="shape-2" data-name="shape" d="M143.23,44.657c-.352-.22-3.351-3.16-4.545-4.354a4.841,4.841,0,0,1-.969-1.335c-7.127-7.1-13.252-13.2-15.292-15.219a3.527,3.527,0,0,1-.812-4.52c.22-.357,3.16-3.356,4.354-4.545a3.515,3.515,0,0,1,5.474,0l13.692,13.692c7.333-7.328,18.746-18.736,27.39-27.385a8.43,8.43,0,0,0-7.788-5.2H114.1a8.436,8.436,0,0,0-8.438,8.438V54.861A8.436,8.436,0,0,0,114.1,63.3h50.631a8.44,8.44,0,0,0,8.438-8.438V18.309C162.4,29.13,150.709,40.861,147.75,43.84A3.528,3.528,0,0,1,143.23,44.657Z" transform="translate(14.011)"/>
    <path id="shape-3" data-name="shape" d="M110.7,35.861V-.51a.1.1,0,0,0-.1-.1h0a8.535,8.535,0,0,0-8.536,8.536V58.363A8.538,8.538,0,0,0,110.6,66.9h50.435a8.541,8.541,0,0,0,8.536-8.536v0a.1.1,0,0,0-.1-.1H133.1C108.366,61.069,110.523,49.289,110.7,35.861Z" transform="translate(0 14.011)"/>
  </g>
</svg>
