<svg id="icon_reset" xmlns="http://www.w3.org/2000/svg" width="100" height="100" viewBox="0 0 100 100">
  <rect id="shape" width="100" height="100" fill="none"/>
  <path id="shape-2" data-name="shape" d="M88.222,22.98A47.352,47.352,0,0,0,60.476,4.307C46.758,1.18,33.861,3.7,22.135,11.789l-1.27-.811C18.243,9.3,15.635,7.636,13.052,6A13.432,13.432,0,0,0,11,4.889a3.239,3.239,0,0,0-3.1.15A3.268,3.268,0,0,0,6.462,7.811c-.016.41-.013.821-.009,1.232l0,.46q0,15.338-.006,30.675c0,.22,0,.441.007.662a3.571,3.571,0,0,0,1.522,3.155,3.57,3.57,0,0,0,3.506-.063L40.195,30.651a12.317,12.317,0,0,0,1.133-.566,3.337,3.337,0,0,0,1.826-2.8,3.417,3.417,0,0,0-1.716-2.964c-1.1-.738-2.206-1.456-3.315-2.174l-2.149-1.4a28.257,28.257,0,0,1,3.913-1.481,31.381,31.381,0,0,1,23.426,1.6c10.055,4.83,16.2,12.759,18.274,23.573A32.249,32.249,0,0,1,60.019,81.2c-12.26,4.011-23.406,1.506-33.113-7.432a30.7,30.7,0,0,1-9.168-16.329,7.85,7.85,0,0,0-4.06-5.772,7.032,7.032,0,0,0-7.371.39,7,7,0,0,0-3.279,6.675,30.028,30.028,0,0,0,2.329,8.593c6.15,15.347,17.26,25.129,33.021,29.076a48.883,48.883,0,0,0,11.893,1.515,45.549,45.549,0,0,0,26.76-8.9A47.359,47.359,0,0,0,88.222,22.98Z" transform="translate(0.009 -0.006)" fill="#181818"/>
  <path id="shape-3" data-name="shape" d="M62,50A12,12,0,1,0,50,62,12.013,12.013,0,0,0,62,50Z" transform="translate(0.009 -0.006)" fill="#181818"/>
</svg>
