<svg id="icon_style" xmlns="http://www.w3.org/2000/svg" width="100" height="100" viewBox="0 0 100 100">
  <rect id="shape" width="100" height="100" fill="none"/>
  <path id="style" d="M-5640.021-74.453a17.793,17.793,0,0,1-.429-6.486c.2-3.865.451-7.729.662-11.592.21-3.835.4-7.669.587-11.5.013-.239,0-.478,0-.849-1.268,0-2.491.078-3.7-.019a32.977,32.977,0,0,1-5.543-.674,16.246,16.246,0,0,1-11.62-13.3c-.091-.758-.149-1.517-.231-2.354h65.669a16.073,16.073,0,0,1-3.912,10.54,16.233,16.233,0,0,1-13.084,5.81c-1.344-.007-2.691,0-4.005,0,0,.969-.042,1.85.005,2.725.274,5.092.574,10.181.853,15.273.154,2.852.376,5.706.41,8.559a12.53,12.53,0,0,1-9.428,12.346,14.032,14.032,0,0,1-3.691.5A13.046,13.046,0,0,1-5640.021-74.453Zm12.529-9.091a5.046,5.046,0,0,0-4.872,5,4.979,4.979,0,0,0,4.965,4.888,4.906,4.906,0,0,0,4.834-4.981,4.959,4.959,0,0,0-4.822-4.91Zm-32.763-44.4v-.967c0-8.238.042-16.477-.026-24.713a3.543,3.543,0,0,1,3.857-3.852c12.591.041,25.184.019,37.776.019h1.02v1.071q0,7.425,0,14.847c0,2.044,1.044,3.447,2.728,3.731a3.3,3.3,0,0,0,3.879-3.472c.018-5.011.005-10.021.005-15.032v-1.1c.343-.015.638-.039.933-.039,1.175,0,2.35,0,3.525.009,2.694.011,5.39.024,8.084-.034a3.611,3.611,0,0,1,3.894,3.931c-.1,8.175-.037,16.352-.037,24.528v1.077Z" transform="translate(5677.293 161.483)"/>
</svg>
