<svg id="icon_sessions" xmlns="http://www.w3.org/2000/svg" width="100" height="100" viewBox="0 0 100 100">
  <rect id="shape" width="100" height="100" fill="none"/>
  <path id="sessions" d="M92.773,64.5A2.245,2.245,0,0,1,95,66.75v7.5a2.245,2.245,0,0,1-2.227,2.25H2.227A2.245,2.245,0,0,1,0,74.25V6.75A2.245,2.245,0,0,1,2.227,4.5H9.648a2.245,2.245,0,0,1,2.227,2.25V64.5ZM69.153,22.406,53.438,33,37.61,11.681a2.218,2.218,0,0,0-3.692.187L17.813,39V58.5h71.25L72.382,23.287a2.215,2.215,0,0,0-3.229-.881Z" transform="translate(3 9.5)" fill="#181818"/>
</svg>
