<svg id="icon_apk_extension" xmlns="http://www.w3.org/2000/svg" width="100" height="100" viewBox="0 0 100 100">
  <rect id="shape" width="100" height="100" fill="none"/>
  <g id="ps" transform="translate(13.006)">
    <path id="Path_19936" data-name="Path 19936" d="M12.881.61H45.963L74,30.145V87.591A12.937,12.937,0,0,1,61.143,100.61H12.881A12.942,12.942,0,0,1,0,87.591V13.629A12.942,12.942,0,0,1,12.881.61Z" transform="translate(0 -0.61)" fill="#092f41" fill-rule="evenodd"/>
    <path id="Path_19937" data-name="Path 19937" d="M237.139.61V29.92H265.2Z" transform="translate(-191.201 -0.61)" fill="rgba(255,255,255,0.3)" fill-rule="evenodd"/>
    <path id="Path_20044" data-name="Path 20044" d="M74.809,283.66l-.72-2.276H70.416l-.72,2.276H66.743l4.153-12h2.689l4.153,12Zm-3.577-4.81h2.04l-1.032-3.181Zm7.394,4.81v-12h4.753a3.778,3.778,0,0,1,2.785,1.06,4.221,4.221,0,0,1,0,5.586,3.762,3.762,0,0,1-2.785,1.035h-1.9v4.319Zm2.857-6.931h1.584a1.472,1.472,0,0,0,.984-.31,1.257,1.257,0,0,0,.336-.905,1.215,1.215,0,0,0-.336-.905,1.361,1.361,0,0,0-.984-.336H81.483v2.457Zm13.684,6.931-2.977-4.94-.936,1.086v3.853H88.4v-12h2.857v4.06l3.457-4.06h3.7L94.182,276.5l4.561,7.164Z" transform="translate(-45.505 -203.66)" fill="#fff"/>
  </g>
</svg>
