<svg id="icon_clock" xmlns="http://www.w3.org/2000/svg" width="100" height="100" viewBox="0 0 100 100">
  <path id="Path_4544" data-name="Path 4544" d="M128.587,76.84A50,50,0,1,0,76.84,128.587,50,50,0,0,0,128.587,76.84Zm-29,30.2h0a4.955,4.955,0,0,1-7.008,0L72.694,87.162q-.176-.16-.337-.337a4.89,4.89,0,0,1-1.274-3.3V55.154A4.955,4.955,0,0,1,76.039,50.2h0a4.955,4.955,0,0,1,4.955,4.955v24.24a4.955,4.955,0,0,0,1.451,3.5l17.139,17.139A4.955,4.955,0,0,1,99.585,107.045Z" transform="translate(-28.619 -28.619)"/>
</svg>
