<svg id="icon_trash" xmlns="http://www.w3.org/2000/svg" width="100" height="100" viewBox="0 0 100 100">
  <rect id="shape" width="100" height="100" fill="none"/>
  <path id="trash" d="M77.143,5.688H55.714L54.036,2.364A4.288,4.288,0,0,0,50.2,0H29.786a4.238,4.238,0,0,0-3.821,2.364L24.286,5.688H2.857A2.85,2.85,0,0,0,0,8.531v5.687a2.85,2.85,0,0,0,2.857,2.844H77.143A2.85,2.85,0,0,0,80,14.219V8.531A2.85,2.85,0,0,0,77.143,5.688ZM9.5,83a8.554,8.554,0,0,0,8.554,8H61.946A8.554,8.554,0,0,0,70.5,83L74.286,22.75H5.714Z" transform="translate(10 5)"/>
</svg>
