<svg id="icon_remove" xmlns="http://www.w3.org/2000/svg" width="100" height="100" viewBox="0 0 100 100">
  <rect id="shape" width="100" height="100" fill="none"/>
  <path id="cross" d="M716.585,350.912a49.785,49.785,0,1,0,.011.012Zm-17.878,56.882a2.3,2.3,0,0,1-3.252,0L683,395.336,670.537,407.8a2.306,2.306,0,0,1-3.253,0l-7.583-7.583a2.306,2.306,0,0,1,0-3.253l12.46-12.46L659.7,372.04a2.3,2.3,0,0,1,0-3.253l7.583-7.583a2.306,2.306,0,0,1,3.253,0L683,373.664l12.459-12.46a2.306,2.306,0,0,1,3.253,0l7.583,7.584a2.3,2.3,0,0,1,0,3.253L693.833,384.5l12.459,12.459a2.3,2.3,0,0,1,0,3.253Z" transform="translate(-632.497 -334)"/>
</svg>
