<svg id="icon_calendar" xmlns="http://www.w3.org/2000/svg" width="100" height="100" viewBox="0 0 100 100">
  <rect id="shape" width="100" height="100" fill="none"/>
  <path id="calendar" d="M-1,87c0,4.969,5.031,9,10,9H75a9,9,0,0,0,9-9V36H0ZM60,50.25A2.257,2.257,0,0,1,62.25,48h7.5A2.257,2.257,0,0,1,72,50.25v7.5A2.257,2.257,0,0,1,69.75,60h-7.5A2.257,2.257,0,0,1,60,57.75Zm0,24A2.257,2.257,0,0,1,62.25,72h7.5A2.257,2.257,0,0,1,72,74.25v7.5A2.257,2.257,0,0,1,69.75,84h-7.5A2.257,2.257,0,0,1,60,81.75Zm-24-24A2.257,2.257,0,0,1,38.25,48h7.5A2.257,2.257,0,0,1,48,50.25v7.5A2.257,2.257,0,0,1,45.75,60h-7.5A2.257,2.257,0,0,1,36,57.75Zm0,24A2.257,2.257,0,0,1,38.25,72h7.5A2.257,2.257,0,0,1,48,74.25v7.5A2.257,2.257,0,0,1,45.75,84h-7.5A2.257,2.257,0,0,1,36,81.75Zm-24-24A2.257,2.257,0,0,1,14.25,48h7.5A2.257,2.257,0,0,1,24,50.25v7.5A2.257,2.257,0,0,1,21.75,60h-7.5A2.257,2.257,0,0,1,12,57.75Zm0,24A2.257,2.257,0,0,1,14.25,72h7.5A2.257,2.257,0,0,1,24,74.25v7.5A2.257,2.257,0,0,1,21.75,84h-7.5A2.257,2.257,0,0,1,12,81.75ZM75,12H66V3a3.009,3.009,0,0,0-3-3H57a3.009,3.009,0,0,0-3,3v9H30V3a3.009,3.009,0,0,0-3-3H21a3.009,3.009,0,0,0-3,3v9H9a9,9,0,0,0-9,9v9H84V21A9,9,0,0,0,75,12Z" transform="translate(9 2)"/>
</svg>
