<svg id="icon_unfold-less" xmlns="http://www.w3.org/2000/svg" width="100" height="100" viewBox="0 0 100 100">
  <rect id="shape" width="100" height="100" fill="none"/>
  <path id="Path_50378" data-name="Path 50378" d="M1.678,86.3a5.7,5.7,0,0,0,8.11,0L24,71.99,38.2,86.3a5.7,5.7,0,0,0,8.11,0,5.8,5.8,0,0,0,0-8.171L28.08,59.762a5.7,5.7,0,0,0-8.11,0L1.736,78.133A5.76,5.76,0,0,0,1.678,86.3M46.313,1.695a5.7,5.7,0,0,0-8.11,0L24,16.009,9.789,1.695a5.7,5.7,0,0,0-8.11,0,5.883,5.883,0,0,0,0,8.229L19.912,28.295a5.7,5.7,0,0,0,8.11,0L46.256,9.924a5.82,5.82,0,0,0,.058-8.229" transform="translate(25.001 6.361)" fill="#181818"/>
</svg>
