<svg id="icon_y" xmlns="http://www.w3.org/2000/svg" width="100" height="100" viewBox="0 0 100 100">
  <rect id="shape" width="100" height="100" fill="none"/>
  <path id="AXIS" d="M-608.625-3379.742h-66a13.907,13.907,0,0,1-9.9-4.1,13.909,13.909,0,0,1-4.1-9.9v-66a13.908,13.908,0,0,1,4.1-9.9,13.908,13.908,0,0,1,9.9-4.1h66a13.908,13.908,0,0,1,9.9,4.1,13.908,13.908,0,0,1,4.1,9.9v66a13.909,13.909,0,0,1-4.1,9.9A13.907,13.907,0,0,1-608.625-3379.742Zm-50.366-69.41v3.57l3.43.535,11.92,22.013v10.486l-4.582.788v3.542h14.675v-3.542l-4.583-.788v-10.065l12.145-22.434,3.459-.535v-3.57h-14.057v3.57l4.386.535-8.574,16.7-8.575-16.7,4.414-.535v-3.57Z" transform="translate(691.625 3476.742)" fill="#010101"/>
</svg>
