<svg id="icon_pages" xmlns="http://www.w3.org/2000/svg" width="100" height="100" viewBox="0 0 100 100">
  <rect id="shape" width="100" height="100" fill="none"/>
  <path id="pages" d="M3057.626-1249.53h-62.545a11.7,11.7,0,0,0-11.317,8.811,11.6,11.6,0,0,0-.41,2.916v62.545a11.457,11.457,0,0,0,.528,3.288,11.7,11.7,0,0,0,8.838,8.2,11.738,11.738,0,0,0,2.361.238h62.545a11.6,11.6,0,0,0,1.381-.14,11.691,11.691,0,0,0,10.347-11.587V-1237.8A11.727,11.727,0,0,0,3057.626-1249.53Zm-6.187,68.081h-50.166a3.584,3.584,0,0,1-3.584-3.584,3.58,3.58,0,0,1,3.584-3.581h50.166a3.584,3.584,0,0,1,3.584,3.581A3.587,3.587,0,0,1,3051.438-1181.449Zm0-14.331h-50.166a3.583,3.583,0,0,1-3.584-3.584,3.58,3.58,0,0,1,3.584-3.581h50.166a3.584,3.584,0,0,1,3.584,3.581A3.587,3.587,0,0,1,3051.438-1195.78Zm0-14.334h-50.166a3.584,3.584,0,0,1-3.584-3.585,3.581,3.581,0,0,1,3.584-3.581h50.166a3.584,3.584,0,0,1,3.584,3.581A3.587,3.587,0,0,1,3051.438-1210.114Zm0-14.335h-50.166a3.584,3.584,0,0,1-3.584-3.584,3.58,3.58,0,0,1,3.584-3.581h50.166a3.584,3.584,0,0,1,3.584,3.581A3.587,3.587,0,0,1,3051.438-1224.449Z" transform="translate(-2976.353 1256.529)"/>
</svg>
