<svg id="icon_special-2" xmlns="http://www.w3.org/2000/svg" width="100" height="100" viewBox="0 0 100 100">
  <rect id="shape" width="100" height="100" fill="none"/>
  <g id="special_2" data-name="special 2" transform="translate(-201.237 -460.706)">
    <g id="Path_6356" data-name="Path 6356" fill="#d6d6d6">
      <path d="M 300.2940673828125 553.8059692382812 L 202.1725006103516 553.8059692382812 C 201.9824523925781 541.8457641601562 202.5567321777344 532.0884399414062 203.9728851318359 523.1650390625 C 205.7553558349609 511.9321594238281 208.8807220458984 502.1429748535156 213.5278015136719 493.2379760742188 C 217.9617004394531 485.4002380371094 224.0186157226562 478.8291320800781 231.0446014404297 474.2342224121094 C 234.3417510986328 472.0783081054688 237.7686157226562 470.4130249023438 241.2299499511719 469.28466796875 C 244.645751953125 468.1707763671875 248.0112457275391 467.6059875488281 251.2330017089844 467.6059875488281 C 254.4939270019531 467.6059875488281 257.8885803222656 468.1343078613281 261.3226928710938 469.1762390136719 C 264.850830078125 470.2455444335938 268.322265625 471.82763671875 271.640869140625 473.8786010742188 C 278.83154296875 478.3228149414062 284.9432067871094 484.7574157714844 289.316162109375 492.4879150390625 C 293.9169311523438 501.3037109375 296.9802856445312 511.2106018066406 298.6815795898438 522.7749633789062 C 299.9849548339844 531.6294555664062 300.499267578125 541.5097045898438 300.2940673828125 553.8059692382812 Z" stroke="none"/>
      <path d="M 299.4077758789062 552.906005859375 C 299.5733642578125 541.0695190429688 299.055908203125 531.4978637695312 297.7911682128906 522.9059448242188 C 296.1056823730469 511.4491882324219 293.0744934082031 501.6391296386719 288.5252685546875 492.9176940917969 C 284.2272338867188 485.3249206542969 278.2255249023438 479.0062866210938 271.167724609375 474.6441955566406 C 267.9153137207031 472.6341247558594 264.5152282714844 471.0842590332031 261.0614013671875 470.0374755859375 C 257.7120666503906 469.021240234375 254.4053192138672 468.5059814453125 251.2330017089844 468.5059814453125 C 248.1061553955078 468.5059814453125 244.8345489501953 469.0558471679688 241.5088806152344 470.1403503417969 C 238.1228942871094 471.244140625 234.7678985595703 472.8749694824219 231.5372009277344 474.9874267578125 C 224.6351928710938 479.5012817382812 218.6814727783203 485.9607238769531 214.3187408447266 493.6676635742188 C 209.7210998535156 502.4816284179688 206.6278839111328 512.17626953125 204.8617553710938 523.30615234375 C 203.489013671875 531.9558715820312 202.9121551513672 541.40185546875 203.0596618652344 552.906005859375 L 299.4077758789062 552.906005859375 M 301.1780090332031 554.7059936523438 L 201.2879943847656 554.7059936523438 C 201.0540008544922 542.2899780273438 201.6260070800781 532.2109985351562 203.0839996337891 523.0239868164062 C 204.8829956054688 511.68701171875 208.0410003662109 501.8030090332031 212.7369995117188 492.8080139160156 C 217.2420043945312 484.8399963378906 223.4019927978516 478.1570129394531 230.552001953125 473.4809875488281 C 233.9149932861328 471.2820129394531 237.4140014648438 469.5820007324219 240.9510040283203 468.4289855957031 C 244.4559936523438 467.2860107421875 247.9149932861328 466.7059936523438 251.2330017089844 466.7059936523438 C 254.5809936523438 466.7059936523438 258.0639953613281 467.2470092773438 261.5840148925781 468.3150024414062 C 265.18701171875 469.4070129394531 268.72900390625 471.02099609375 272.114013671875 473.1130065917969 C 279.43701171875 477.6390075683594 285.6589965820312 484.1900024414062 290.1069946289062 492.0580139160156 C 294.7590026855469 500.9679870605469 297.8550109863281 510.9729919433594 299.5719909667969 522.6439819335938 C 300.9129943847656 531.7540283203125 301.4240112304688 541.9539794921875 301.1780090332031 554.7059936523438 Z" stroke="none" fill="#484848"/>
    </g>
  </g>
</svg>
