<?xml version="1.0" encoding="UTF-8"?>
<svg id="Layer_2" data-name="Layer 2" xmlns="http://www.w3.org/2000/svg" viewBox="0 0 24 24">
  <defs>
    <style>
      .cls-1 {
        fill: none;
      }
    </style>
  </defs>
  <g id="icon_none">
    <path id="shape" class="cls-1" d="M0,0H24V24H0V0Z"/>
    <path id="svg-fill-primary" d="M17.32,13.94h-2.52c-.62,.89-1.64,1.47-2.8,1.47s-2.18-.58-2.8-1.47h-2.52c.8,2.18,2.87,3.75,5.32,3.75s4.53-1.57,5.32-3.75Zm-10.64-3.88h2.52c.62-.89,1.64-1.47,2.8-1.47s2.18,.58,2.8,1.47h2.52c-.8-2.18-2.87-3.75-5.32-3.75s-4.53,1.57-5.32,3.75Zm14.42,.8H2.9c-.63,0-1.14,.51-1.14,1.14s.51,1.14,1.14,1.14H21.1c.63,0,1.14-.51,1.14-1.14s-.51-1.14-1.14-1.14Z"/>
  </g>
</svg>