<svg id="icon_discount" xmlns="http://www.w3.org/2000/svg" width="100" height="100" viewBox="0 0 100 100">
  <rect id="shape" width="100" height="100" fill="none"/>
  <g id="Group_1417" data-name="Group 1417" transform="translate(-0.199 -0.199)">
    <path id="Path_4856" data-name="Path 4856" d="M94.7,45h0l-9.57-9.57V21.92a7.05,7.05,0,0,0-7-7.05H64.55L55,5.3a7,7,0,0,0-9.9-.1l-.1.1-9.57,9.57H21.92a7.049,7.049,0,0,0-7.05,7.05V35.45L5.3,45a7,7,0,0,0-.1,9.9l.1.1,9.57,9.57V78.08a7.05,7.05,0,0,0,7.05,7H35.45L45,94.7a7,7,0,0,0,9.9.1c.034-.033.068-.067.1-.1l9.57-9.57H78.08a7.049,7.049,0,0,0,7-7V64.55L94.7,55a7,7,0,0,0,.1-9.9C94.768,45.067,94.734,45.033,94.7,45ZM33,39.5a6,6,0,1,1,6,6A6,6,0,0,1,33,39.5Zm6.33,25.7a2.5,2.5,0,0,1-3.66-3.4l25-27a2.5,2.5,0,1,1,3.8,3.246c-.045.053-.093.1-.143.154ZM61,66.5a6,6,0,1,1,6-6,6,6,0,0,1-6,6Z"/>
  </g>
</svg>
