<svg id="icon_wallet" xmlns="http://www.w3.org/2000/svg" width="100" height="100" viewBox="0 0 100 100">
  <rect id="shape" width="100" height="100" fill="none"/>
  <path id="wallet" d="M17796.207,3871.494a9.712,9.712,0,0,1-9.732-9.678q-.021-31.945,0-63.9a10.487,10.487,0,0,1,10.129-10.275c4.424-.036,8.855-.036,13.287-.036q5.051,0,10.1-.014a3.145,3.145,0,0,0,1.682-.533c4.732-3.337,9.438-6.719,14.148-10.083.2-.146.414-.287.7-.479,2.523,3.5,5.021,6.92,7.473,10.375a1.612,1.612,0,0,0,1.521.757c3.775-.032,7.547-.046,11.318,0a10.651,10.651,0,0,1,10.691,10.562c.035,1.563,0,3.132,0,4.691.908.2,1.766.324,2.588.574a7.893,7.893,0,0,1,5.547,7.024c.105,2.9.023,5.821.023,8.816h-.934c-4.477,0-8.959.1-13.43-.023a11.464,11.464,0,0,0-11.738,11.168c-.045,3.76-.119,7.521.014,11.277.223,6.605,5.02,11.136,11.678,11.173,4.473.023,8.951,0,13.426,0h.93a2.025,2.025,0,0,1,.105.379c-.01,3.031.076,6.063-.061,9.089a9.6,9.6,0,0,1-9.637,9.131q-17.455.007-34.916.007T17796.207,3871.494Zm55.355-77.863c-.777,0-1.559,0-2.334,0-.068,0-.137.059-.277.128,2.16,3.008,4.3,5.985,6.451,8.948a.791.791,0,0,0,.563.26c1.8.018,3.6.014,5.479.014,0-1.837.133-3.578-.033-5.292a4.308,4.308,0,0,0-4.256-4c-1.262-.052-2.521-.065-3.781-.065C17852.771,3793.626,17852.166,3793.629,17851.563,3793.632Zm-54.041,0a7.036,7.036,0,0,0-1.668.164,4.688,4.688,0,0,0-3.469,4.367,4.533,4.533,0,0,0,3.123,4.508,12.756,12.756,0,0,0,3.32.292,2.335,2.335,0,0,0,1.3-.41c3.895-2.749,7.773-5.534,11.652-8.31.2-.141.377-.292.7-.542-.375-.036-.578-.073-.791-.073q-3.542,0-7.084,0T17797.521,3793.627Zm12.34,9.295h38.248c-4.369-6.09-8.666-12.075-12.99-18.1C17826.7,3790.856,17818.363,3796.832,17809.861,3802.922Zm50.639,45.625a6.781,6.781,0,0,1-6.615-6.92q-.015-5.593-.006-11.191a6.821,6.821,0,0,1,6.252-6.751c1.592-.109,3.193-.1,4.793-.1.479,0,.965,0,1.449,0q6.035-.014,12.07,0c2.176,0,3.01.839,3.014,3.009.01,3.168.006,6.336.006,9.5,0,3.228.008,6.455-.006,9.677,0,1.814-.916,2.813-2.723,2.817-2.877.009-5.754.022-8.629.022C17866.9,3848.624,17863.7,3848.607,17860.5,3848.547Zm4.166-17.527a5.145,5.145,0,1,0,.074,10.288,4.971,4.971,0,0,0,5.057-4.987,5.093,5.093,0,0,0-5.068-5.3Z" transform="translate(-17783.465 -3773.501)" fill="#181818" stroke="rgba(0,0,0,0)" stroke-miterlimit="10" stroke-width="1"/>
</svg>
