<svg id="icon_axis-x" xmlns="http://www.w3.org/2000/svg" width="100" height="100" viewBox="0 0 100 100">
  <rect id="shape" width="100" height="100" fill="none"/>
  <path id="AXIS" d="M-608.625-3379.742h-66a13.907,13.907,0,0,1-9.9-4.1,13.909,13.909,0,0,1-4.1-9.9v-66a13.908,13.908,0,0,1,4.1-9.9,13.908,13.908,0,0,1,9.9-4.1h66a13.908,13.908,0,0,1,9.9,4.1,13.908,13.908,0,0,1,4.1,9.9v66a13.909,13.909,0,0,1-4.1,9.9A13.907,13.907,0,0,1-608.625-3379.742Zm-32.811-44.979h0l8.49,12.594-3.233.365v3.542h13.242v-3.542l-3.712-.618-11.611-16.474,11.358-16.109,3.683-.619v-3.57h-13.353v3.57l3.289.366-8.265,12.285-8.182-12.285,3.289-.366v-3.57h-13.27v3.57l3.683.619,11.358,16.109-11.639,16.474-3.683.618v3.542h13.325v-3.542l-3.289-.365,8.517-12.594Z" transform="translate(691.625 3476.742)" fill="#010101"/>
</svg>
