<svg id="icon_intersection" xmlns="http://www.w3.org/2000/svg" width="100" height="100" viewBox="0 0 100 100">
  <rect id="shape" width="100" height="100" fill="none"/>
  <path id="intersection" d="M1238.118,1562.925H1219.76v-16.163a6.488,6.488,0,0,0-6.488-6.488h-54.178a6.488,6.488,0,0,0-6.488,6.488v54.177a6.488,6.488,0,0,0,6.488,6.488h18.359v16.164a6.488,6.488,0,0,0,6.488,6.488h54.177a6.488,6.488,0,0,0,6.488-6.488v-54.177A6.488,6.488,0,0,0,1238.118,1562.925Zm-79.024,38.014v-54.177h54.178v16.163h-29.331a6.468,6.468,0,0,0-4.588,1.9c-.013.013-.025.028-.038.042a6.462,6.462,0,0,0-1.862,4.546h0v31.525Zm79.024,22.652h-54.177v-16.164h29.331a6.488,6.488,0,0,0,6.488-6.488v-31.525h18.358Z" transform="translate(-1148.606 -1535.283)" fill="#161615"/>
</svg>
