<svg xmlns="http://www.w3.org/2000/svg" width="16" height="13.16" viewBox="0 0 16 13.16">
  <path id="twitter" d="M3160.175-88.459a2.641,2.641,0,0,0,1.4-1.814,6.285,6.285,0,0,1-2.1.782l-.035,0a3.29,3.29,0,0,0-2.4-1.032,3.3,3.3,0,0,0-3.3,3.3,3.31,3.31,0,0,0,.071.683l-.037.02c-3.608.155-6.705-3.407-6.705-3.407a3.451,3.451,0,0,0,.945,4.46,4.249,4.249,0,0,1-1.409-.387,3.23,3.23,0,0,0,2.555,3.252,5.47,5.47,0,0,1-1.409.048,3.03,3.03,0,0,0,3,2.29,6.487,6.487,0,0,1-4.75,1.37,9.359,9.359,0,0,0,9.1.612l.682-.393a9.075,9.075,0,0,0,4.538-7.438l.055-1.171A4.706,4.706,0,0,0,3162-88.887,7.685,7.685,0,0,1,3160.175-88.459Z" transform="translate(-3146.005 90.521)" fill="#484848"/>
</svg>
