<svg id="icon_configurations" xmlns="http://www.w3.org/2000/svg" width="100" height="100" viewBox="0 0 100 100">
  <rect id="shape" width="100" height="100" fill="none"/>
  <path id="manage" d="M86.317,54.606A35.646,35.646,0,0,0,86.656,50a35.646,35.646,0,0,0-.338-4.606l10.2-7.755a2.328,2.328,0,0,0,.58-3.008L87.429,18.369a2.461,2.461,0,0,0-2.947-1.034l-12.031,4.7a35.553,35.553,0,0,0-8.166-4.606L62.448,4.974A2.337,2.337,0,0,0,60.08,3H40.753a2.337,2.337,0,0,0-2.368,1.974L36.549,17.429a37.386,37.386,0,0,0-8.166,4.606l-12.031-4.7A2.388,2.388,0,0,0,13.4,18.369L3.741,34.631a2.275,2.275,0,0,0,.58,3.008l10.2,7.755A36.275,36.275,0,0,0,14.178,50a36.274,36.274,0,0,0,.338,4.606l-10.2,7.755a2.328,2.328,0,0,0-.58,3.008L13.4,81.631a2.461,2.461,0,0,0,2.947,1.034l12.031-4.7a35.553,35.553,0,0,0,8.166,4.606l1.836,12.455A2.337,2.337,0,0,0,40.753,97H60.08a2.337,2.337,0,0,0,2.368-1.974l1.836-12.455a37.386,37.386,0,0,0,8.166-4.606l12.031,4.7a2.388,2.388,0,0,0,2.947-1.034l9.664-16.262a2.328,2.328,0,0,0-.58-3.008l-10.2-7.755ZM50.417,66.45A16.7,16.7,0,0,1,33.505,50a16.918,16.918,0,0,1,33.823,0A16.7,16.7,0,0,1,50.417,66.45Z" transform="translate(-0.406)"/>
</svg>
