<svg id="icon_orbit-camera" xmlns="http://www.w3.org/2000/svg" width="100" height="100" viewBox="0 0 100 100">
  <rect id="shape" width="100" height="100" fill="none"/>
  <path id="icon" d="M105.777,55c0-10.226-9.649-19.18-24.091-24.126C76.883,15.451,67.622,5,56.982,5c-6.3,0-12.125,3.668-16.82,9.865-8.066-1.3-15.117.156-19.74,4.779C16,24.062,14.475,30.694,15.479,38.308c-6.1,4.674-9.7,10.445-9.7,16.692,0,10.846,10.86,20.257,26.776,24.975C37.428,94.93,46.539,105,56.982,105c6.2,0,11.935-3.559,16.59-9.576,7.15.72,13.357-.866,17.559-5.069,4.418-4.418,5.948-11.049,4.942-18.664C102.169,67.017,105.777,61.247,105.777,55ZM61.011,12.224c7.066,0,13.325,6.923,17.195,17.571A77.666,77.666,0,0,0,67.151,27.54a72.042,72.042,0,0,0-16.664-9.718C53.592,14.266,57.181,12.224,61.011,12.224Zm21.28,42.747a83.121,83.121,0,0,1-1.017,13.07,74.517,74.517,0,0,1-25.527,4.21c-2.381,0-4.713-.1-6.989-.288-1.76-1.491-3.5-3.083-5.2-4.785q-1.777-1.777-3.4-3.6a85.253,85.253,0,0,1-.431-8.6,75.505,75.505,0,0,1,3.81-24.4,84.79,84.79,0,0,1,22.476-.263,84.269,84.269,0,0,1,7.638,6.771,83.346,83.346,0,0,1,8.231,9.558C82.15,49.336,82.291,52.12,82.291,54.972ZM85.1,51.4a55.245,55.245,0,0,1,5.621,11.8,37.664,37.664,0,0,1-6.333,3.568A87.37,87.37,0,0,0,85.185,55C85.185,53.789,85.151,52.592,85.1,51.4ZM65.52,82.663a78.4,78.4,0,0,0,12.663-2.452,47.883,47.883,0,0,1-2.376,5.468A38.814,38.814,0,0,1,65.52,82.663ZM25.232,36.074a49.246,49.246,0,0,1,6.3-2.637A79.933,79.933,0,0,0,29.1,47.443,42.757,42.757,0,0,1,25.232,36.074Zm23.3-15.721a58.59,58.59,0,0,1,12.889,6.63c-1.854-.118-3.736-.184-5.646-.184a87.458,87.458,0,0,0-11.066.7A39.678,39.678,0,0,1,48.533,20.352ZM75.719,35.058C74.373,33.712,73,32.435,71.613,31.21a65.37,65.37,0,0,1,7.717,2.013,68.72,68.72,0,0,1,1.788,7.748C79.442,38.963,77.644,36.984,75.719,35.058ZM28.378,21.9c2.32-2.32,5.573-3.46,9.418-3.539a55.889,55.889,0,0,0-5.242,11.66,62.959,62.959,0,0,0-7.691,2.818C24.643,28.333,25.758,24.525,28.378,21.9ZM13,50.972a12.739,12.739,0,0,1,3.323-8.238c1.963,7.977,6.419,16.71,13.029,24.971C19.4,63.808,13,57.763,13,50.972ZM61.011,97.719c-6.455,0-12.233-5.78-16.137-14.895C52.9,88.894,61.28,92.943,68.915,94.66A12.575,12.575,0,0,1,61.011,97.719ZM88.832,82.357c-2.373,2.373-5.725,3.51-9.687,3.541a62.044,62.044,0,0,0,2.54-6.773A55.115,55.115,0,0,0,92.3,74.252,12.707,12.707,0,0,1,88.832,82.357Zm4.457-21.2a69.815,69.815,0,0,0-8.615-15.6,79.8,79.8,0,0,0-1.983-11.1c9.64,3.9,15.8,9.851,15.8,16.519C98.495,54.66,96.608,58.13,93.289,61.155Z" transform="translate(-5.777 -5.001)" fill="#181818"/>
</svg>
