<svg id="icon_o" xmlns="http://www.w3.org/2000/svg" width="100" height="100" viewBox="0 0 100 100">
  <rect id="shape" width="100" height="100" fill="none"/>
  <path id="AXIS" d="M-608.625-3379.742h-66a13.907,13.907,0,0,1-9.9-4.1,13.909,13.909,0,0,1-4.1-9.9v-66a13.908,13.908,0,0,1,4.1-9.9,13.908,13.908,0,0,1,9.9-4.1h66a13.908,13.908,0,0,1,9.9,4.1,13.908,13.908,0,0,1,4.1,9.9v66a13.909,13.909,0,0,1-4.1,9.9A13.907,13.907,0,0,1-608.625-3379.742Zm-34.269-69.828a16.16,16.16,0,0,0-12.971,5.975c-3.307,3.965-4.984,9-4.984,14.954v.595c0,5.976,1.677,11.007,4.984,14.952a16.189,16.189,0,0,0,12.971,5.947,16.971,16.971,0,0,0,13.381-5.947c3.43-3.946,5.169-8.976,5.169-14.952v-.595a22.138,22.138,0,0,0-5.169-14.954A16.939,16.939,0,0,0-642.894-3449.571Zm0,37.864a11.532,11.532,0,0,1-5.193-1.136,10.736,10.736,0,0,1-3.912-3.409c-2.17-3.016-3.271-6.985-3.271-11.8v-.652c0-4.755,1.1-8.7,3.271-11.725a10.751,10.751,0,0,1,3.912-3.419,11.5,11.5,0,0,1,5.193-1.14,12.513,12.513,0,0,1,5.427,1.136,11.183,11.183,0,0,1,4.1,3.409c2.283,3.016,3.441,6.965,3.441,11.739v.652c0,4.829-1.143,8.8-3.4,11.809a10.969,10.969,0,0,1-4.092,3.4A12.721,12.721,0,0,1-642.894-3411.707Z" transform="translate(691.625 3476.741)" fill="#010101"/>
</svg>
