<svg id="icon_translate" xmlns="http://www.w3.org/2000/svg" width="100" height="100" viewBox="0 0 100 100">
  <rect id="shape" width="100" height="100" fill="none"/>
  <path id="translate" d="M226.3-1315.436c-1.277,0-1.487-.209-1.487-1.477q0-13.441,0-26.881t0-26.881c0-1.349.177-1.529,1.512-1.529h53.6c1.32,0,1.55.22,1.55,1.513q0,26.88,0,53.762c0,1.255-.242,1.494-1.492,1.494H226.3Zm31.594-19.838c.854,2.78,1.686,5.529,2.553,8.265.086.272.386.677.593.68,2.634.047,5.269.031,8.057.031-3.65-11.754-7.257-23.366-10.86-34.969H247.8c-3.535,11.652-7.059,23.262-10.6,34.928h8.2c.81-2.995,1.611-5.958,2.416-8.936Zm-57.288,17.529c-5.059,0-8.418-3.37-8.423-8.432q0-3.626,0-7.252v-.965h-3.663c2.051-3.78,4.046-7.456,6.123-11.286l6.02,11.294h-3.531c-.02.279-.05.516-.051.753,0,2.582-.009,5.164,0,7.747a3.084,3.084,0,0,0,3.364,3.379q9.6.012,19.2,0h1.057v4.759H208.028Zm48.433-23.5c1.242-4.707,2.472-9.363,3.7-14.016,1.308,4.668,2.609,9.312,3.928,14.016Zm-28.525-8.169H187.206c-1.452,0-1.728-.276-1.728-1.738q0-26.715,0-53.431c0-1.342.249-1.6,1.579-1.6q26.88,0,53.761,0c1.124,0,1.454.282,1.455,1.294q.008,14.6,0,29.19c0,.109-.017.218-.038.474h-1.022c-5.168,0-10.335.035-15.5-.015a3.908,3.908,0,0,0-4.226,4.254c.051.6.009,1.209.006,1.813,0,.153-.014.307-.029.614l-1.891-2.172c1.783-2.71,3.783-5.5,5.51-8.444a25.079,25.079,0,0,0,3.181-9.668h2.509v-6.354H217.92v-3.453h-6.147v3.39H198.836v6.409h23.556c-.877,5.2-3.453,9.422-6.672,13.333-1.463-1.759-4-7.449-5.633-12.64l-5.664,1.519a49.492,49.492,0,0,0,3.039,8.052c1.273,2.548,2.66,5.039,4.047,7.648a76.936,76.936,0,0,1-11.278,9.06l3.04,4.905a81.018,81.018,0,0,0,11.867-9.379c1.369,1.2,2.687,2.356,4.01,3.508a3.89,3.89,0,0,0,.841.659c1.343.622,1.595,1.665,1.54,3.065-.112,2.909-.034,5.825-.034,8.739v.967Zm43.758-38.817H267.9c.02-.416.046-.708.046-1q.005-3.629,0-7.257c-.007-2.519-1.181-3.7-3.681-3.7q-8.122,0-16.245,0h-.959v-4.673a5.493,5.493,0,0,1,.575-.059c5.635,0,11.27-.028,16.905.006a7.8,7.8,0,0,1,8.022,6.527,9.8,9.8,0,0,1,.113,1.724c.012,2.474.005,4.947.005,7.421v.954h3.751l-6.034,11.238Z" transform="translate(-183.477 1411.182)" fill="#181818"/>
</svg>
