<svg id="icon_rotate_right" xmlns="http://www.w3.org/2000/svg" width="100" height="100" viewBox="0 0 100 100">
  <rect id="shape" width="100" height="100" transform="translate(0 100) rotate(-90)" fill="none"/>
  <g id="rotate_right" data-name="rotate right" transform="translate(-1305.416 -325.962)">
    <path id="arrow_right" data-name="arrow right" d="M275.86,639.812a27.831,27.831,0,0,1,10.921,10.9,26.773,26.773,0,0,1,1.848,21.462,25.9,25.9,0,0,1-6.216,10.249c-.1.12-.219.252-.373.433.995.09,1.893.134,2.774.273a3.485,3.485,0,0,1,2.7,4.08c-.009.046-.02.091-.031.134a3.464,3.464,0,0,1-3.639,2.561q-6.285-.434-12.573-.962a3.409,3.409,0,0,1-3.1-4.375q1.654-6.5,3.364-12.966a3.33,3.33,0,0,1,3.067-2.6,3.272,3.272,0,0,1,3.261,1.917,3.353,3.353,0,0,1,.219,2.524q-.561,2.139-1.08,4.274c-.043.174-.083.346-.128.52l.118.094c.692-.787,1.44-1.527,2.063-2.365a19.694,19.694,0,0,0,3.478-17.77c-1.63-6.489-7.474-12.289-11.208-13.267-2.481-.65-4.027-2.9-3.246-4.866C269.362,636.858,274.237,638.858,275.86,639.812Z" transform="translate(1105.668 -287.504)" fill="#101010"/>
    <path id="form" d="M5.669,0H33.86a5.669,5.669,0,0,1,5.669,5.669V33.86a5.669,5.669,0,0,1-5.669,5.669H5.669A5.669,5.669,0,0,1,0,33.86V5.669A5.669,5.669,0,0,1,5.669,0Z" transform="translate(1343.368 347.962) rotate(45)" fill="#101010"/>
  </g>
</svg>
