<svg id="icon_id_extension_light" xmlns="http://www.w3.org/2000/svg" width="100" height="100" viewBox="0 0 100 100">
  <rect id="shape" width="100" height="100" fill="none"/>
  <g id="icon" transform="translate(13.006)">
    <path id="background" d="M12.881.61H45.963L74,30.145V87.591A12.937,12.937,0,0,1,61.143,100.61H12.881A12.942,12.942,0,0,1,0,87.591V13.629A12.942,12.942,0,0,1,12.881.61Z" transform="translate(0 -0.61)" fill="#e8e8e8" fill-rule="evenodd"/>
    <path id="fold" d="M237.139.61V29.92H265.2Z" transform="translate(-191.201 -0.61)" fill="#f83163" fill-rule="evenodd" opacity="0.3"/>
    <g id="icon-2" data-name="icon" transform="translate(-10.031 -6.978)">
      <path id="Path_20042" data-name="Path 20042" d="M8.133,31.523V20.988q.889.081,2.033.081c4.631,0,8.359-1.162,10.788-3.376a10.1,10.1,0,0,0,3.106-7.644,9.258,9.258,0,0,0-3.615-7.482C18.186.837,14.883,0,10.307,0A63.661,63.661,0,0,0,.367.648.467.467,0,0,0,0,1.08V31.523a.437.437,0,0,0,.452.432h7.23a.437.437,0,0,0,.452-.432Zm0-16.774V6.321a14.569,14.569,0,0,1,2.57-.189c3.332,0,5.253,1.513,5.253,4.106,0,2.891-2.174,4.619-5.845,4.619A16.907,16.907,0,0,1,8.133,14.748Z" transform="translate(70 93.955) rotate(180)" fill="#f83163" stroke="rgba(0,0,0,0)" stroke-width="1" fill-rule="evenodd"/>
      <path id="Path_20043" data-name="Path 20043" d="M85.569,309.47v-31.3h7.825v31.3Z" transform="translate(-61.507 -216.174)" fill="#f83163" stroke="rgba(0,0,0,0)" stroke-width="1"/>
    </g>
  </g>
</svg>
