<svg xmlns="http://www.w3.org/2000/svg" width="16" height="16" viewBox="0 0 16 16">
  <path id="instagram" d="M12,9.336A2.664,2.664,0,1,1,9.336,12h0A2.663,2.663,0,0,1,12,9.336h0m0-1.472A4.136,4.136,0,1,0,16.136,12,4.14,4.14,0,0,0,12,7.864Zm3.526-2.392a3,3,0,0,1,3,3v7.053a3,3,0,0,1-3,3H8.474a3,3,0,0,1-3-3h0V8.472a3,3,0,0,1,3-3h7.052m0-1.472H8.474A4.478,4.478,0,0,0,4,8.473v7.054A4.478,4.478,0,0,0,8.474,20h7.052A4.478,4.478,0,0,0,20,15.527V8.473A4.478,4.478,0,0,0,15.526,4Zm.825,2.672a.975.975,0,1,1-.975.975A.976.976,0,0,1,16.351,6.672Z" transform="translate(-4 -4)" fill="#484848"/>
</svg>
