<svg id="icon_ZA-order" xmlns="http://www.w3.org/2000/svg" width="100" height="100" viewBox="0 0 100 100">
  <rect id="shape" width="100" height="100" fill="none"/>
  <path id="arrow" d="M356.671,31.534h8.618a5.722,5.722,0,0,0,5.9-3.483,5.361,5.361,0,0,0-1.755-6.238C364.889,17.4,360.4,12.892,355.89,8.467a5.567,5.567,0,0,0-8.87-.161c-4.741,4.521-9.372,9.172-14,13.8a5.11,5.11,0,0,0-1.336,6.045A5.368,5.368,0,0,0,337,31.431c2.844.032,5.7,0,8.966,0,0,1.432-.045,49.542.045,50.374a5.392,5.392,0,0,0,5.47,5.109,5.161,5.161,0,0,0,5.182-5.139S356.671,37.211,356.671,31.534Z" transform="translate(-279.215 2.818)"/>
  <path id="A" d="M-10.852,7.952l2.493-.36L2.258-22.75H9.425L19.97,7.592l2.493.36v4.194H10.575V7.952L13,7.52,11.462,2.727H.149L-1.385,7.52l2.421.431v4.194H-10.852ZM1.8-2.426h8l-3.931-12.3H5.734Z" transform="translate(19.369 33.626)"/>
  <path id="Z" d="M19.127-22.75v3.763L.753,9H13.818l.619-4.536h5.721l-.567,10.308H-8.422V10.855l18.3-27.807H-2.056l-.593,4.536H-8.4l.567-10.334Z" transform="translate(18.939 75.71)"/>
</svg>
