<svg id="icon_drag" xmlns="http://www.w3.org/2000/svg" width="100" height="100" viewBox="0 0 100 100">
  <rect id="shape" width="100" height="100" fill="none"/>
  <g id="dots" transform="translate(-2017.86 245.34)">
    <path id="dot" d="M2229.424-73.948a11,11,0,0,1-11.089,10.824,10.834,10.834,0,0,1-10.908-11.282,11.028,11.028,0,0,1,11.212-10.715A11.115,11.115,0,0,1,2229.424-73.948Z" transform="translate(-133.565 -121.217)"/>
    <path id="dot-2" data-name="dot" d="M2218.441,91.854a10.976,10.976,0,0,1-11.081-11.565,11,11,0,0,1,21.972,1.147C2229.07,87.19,2223.938,92.1,2218.441,91.854Z" transform="translate(-133.484 -242.203)"/>
    <path id="dot-3" data-name="dot" d="M2229.425-229.172a11.034,11.034,0,0,1-10.949,10.847,10.944,10.944,0,0,1-11.049-11.27,11.052,11.052,0,0,1,11.183-10.729A11.181,11.181,0,0,1,2229.425-229.172Z" transform="translate(-133.565 -0.015)"/>
    <path id="dot-4" data-name="dot" d="M2040.035-74.137a10.935,10.935,0,0,1,11.142-10.977A11.17,11.17,0,0,1,2062.034-74.1a11.1,11.1,0,0,1-10.857,10.981A10.767,10.767,0,0,1,2040.035-74.137Z" transform="translate(-0.175 -121.225)"/>
    <path id="dot-5" data-name="dot" d="M2040.035,80.92a10.963,10.963,0,0,1,11.1-11.005A11.261,11.261,0,0,1,2062.033,81c-.093,5.864-5.092,10.97-10.688,10.918C2044.8,91.853,2040.029,87.217,2040.035,80.92Z" transform="translate(-0.175 -242.255)"/>
    <path id="dot-6" data-name="dot" d="M2050.72-218.342a10.989,10.989,0,0,1-10.849-11.446,11.112,11.112,0,0,1,11.232-10.549,11.257,11.257,0,0,1,10.757,11.111A11.057,11.057,0,0,1,2050.72-218.342Z" transform="translate(0 0)"/>
  </g>
</svg>
