<svg id="icon_subtract" xmlns="http://www.w3.org/2000/svg" width="100" height="100" viewBox="0 0 100 100">
  <rect id="shape" width="100" height="100" fill="none"/>
  <path id="subtract" d="M1644.025,1565.975a6.447,6.447,0,0,0-.489-.688c-.132-.161-.272-.314-.418-.461a6.534,6.534,0,0,0-.747-.633c-.135-.1-.273-.193-.416-.282a6.531,6.531,0,0,0-3.425-.986h-18.358v-16.163a6.488,6.488,0,0,0-6.489-6.488h-54.177a6.488,6.488,0,0,0-6.488,6.488v54.177a6.488,6.488,0,0,0,6.488,6.488h18.358v16.164a6.469,6.469,0,0,0,1.52,4.169,6.583,6.583,0,0,0,2.732,1.918,6.434,6.434,0,0,0,.862.253c.147.032.3.06.448.081a6.432,6.432,0,0,0,.927.067h54.177a6.488,6.488,0,0,0,6.488-6.488v-54.177A6.448,6.448,0,0,0,1644.025,1565.975Zm-5.495,57.616h-54.177v-54.177h54.177Z" transform="translate(-1549.018 -1535.282)"/>
</svg>
