<svg id="icon_zoom-in" xmlns="http://www.w3.org/2000/svg" width="100" height="100" viewBox="0 0 100 100">
  <rect id="shape" width="100" height="100" transform="translate(0 100) rotate(-90)" fill="none"/>
  <path id="search" d="M1997.077,5581.487q-8.858,8.868-17.725,17.733a9.965,9.965,0,0,1-.827.76,3.44,3.44,0,0,1-4.532-.345c-1.453-1.531-1.359-3.506.261-5.119q8.89-8.908,17.784-17.8c.226-.216.5-.393.735-.58a27.944,27.944,0,1,1,4.785,4.77C1997.384,5581.122,1997.244,5581.319,1997.077,5581.487Zm17.506-43.354a20.851,20.851,0,1,0,20.956,20.75A20.8,20.8,0,0,0,2014.583,5538.133Z" transform="translate(-1961.424 -5518.119)" fill="#181818"/>
  <path id="plus" d="M11.81,23.782a2,2,0,0,1-2-2V13.873H1.982a1.982,1.982,0,0,1,0-3.964H9.81V2a2,2,0,0,1,2-2h.151a2,2,0,0,1,2,2V9.909h7.832a1.982,1.982,0,0,1,0,3.964H13.961v7.908a2,2,0,0,1-2,2Z" transform="translate(41.065 29.877)" fill="#181818"/>
</svg>
