<svg id="grid_cut" data-name="grid cut" xmlns="http://www.w3.org/2000/svg" width="24" height="24" viewBox="0 0 24 24">
  <rect id="shape" width="24" height="24" fill="none"/>
  <g id="grid" transform="translate(3.5 2.24)">
    <path id="Path_24346" data-name="Path 24346" d="M12.85,16.851V21a.2.2,0,0,0,.3.172L16.3,19.357a.2.2,0,0,0,.1-.173V15.033a.2.2,0,0,0-.3-.173L12.95,16.678a.2.2,0,0,0-.1.173" transform="translate(-4 -2.032)" fill="#efa106"/>
    <path id="Path_24347" data-name="Path 24347" d="M15.674,9.1,12.439,7.229a.2.2,0,0,0-.2,0L9.165,9.005a.2.2,0,0,0,0,.346L12.4,11.22a.2.2,0,0,0,.2,0l3.074-1.776a.2.2,0,0,0,0-.346" transform="translate(-4 -2.032)" fill="#efa106"/>
    <path id="Path_24348" data-name="Path 24348" d="M11.346,6.6,8.111,4.729a.2.2,0,0,0-.2,0L4.837,6.505a.2.2,0,0,0,0,.346L8.072,8.72a.2.2,0,0,0,.2,0l3.074-1.776a.2.2,0,0,0,0-.346" transform="translate(-4 -2.032)" fill="#efa106"/>
    <path id="Path_24349" data-name="Path 24349" d="M16.865,4.559,13.331,6.6a.2.2,0,0,0,0,.346l3.235,1.869a.2.2,0,0,0,.2,0L20.3,6.774a.2.2,0,0,0,0-.346L17.065,4.559a.2.2,0,0,0-.2,0" transform="translate(-4 -2.032)" fill="#efa106"/>
    <path id="Path_24350" data-name="Path 24350" d="M12.537,2.059,9,4.1a.2.2,0,0,0,0,.346l3.235,1.869a.2.2,0,0,0,.2,0l3.533-2.04a.2.2,0,0,0,0-.346L12.737,2.059a.2.2,0,0,0-.2,0" transform="translate(-4 -2.032)" fill="#efa106"/>
    <path id="Path_24351" data-name="Path 24351" d="M8.564,13.868l3.3,1.9a.2.2,0,0,0,.3-.173V12a.2.2,0,0,0-.1-.173l-3.3-1.9a.2.2,0,0,0-.3.174v3.6a.2.2,0,0,0,.1.173" transform="translate(-4 -2.032)" fill="#efa106"/>
    <path id="Path_24352" data-name="Path 24352" d="M16.4,13.77V10.238a.2.2,0,0,0-.3-.173L12.95,11.884a.2.2,0,0,0-.1.173v3.531a.2.2,0,0,0,.3.174L16.3,13.943a.2.2,0,0,0,.1-.173" transform="translate(-4 -2.032)" fill="#efa106"/>
    <path id="Path_24353" data-name="Path 24353" d="M17.1,9.608v3.531a.2.2,0,0,0,.3.174l3.5-2.021a.2.2,0,0,0,.1-.173V7.581a.2.2,0,0,0-.3-.173L17.2,9.435a.2.2,0,0,0-.1.173" transform="translate(-4 -2.032)" fill="#efa106"/>
    <path id="Path_24354" data-name="Path 24354" d="M20.7,12.208l-3.5,2.025a.2.2,0,0,0-.1.173v4.151a.2.2,0,0,0,.3.173l3.5-2.023a.2.2,0,0,0,.1-.174V12.382a.2.2,0,0,0-.3-.174" transform="translate(-4 -2.032)" fill="#efa106"/>
    <path id="Path_24355" data-name="Path 24355" d="M7.772,18.824l.692.4Zm.692.285a.2.2,0,0,0,.1.173L12.5,21.554l-.34-.2V16.86a.2.2,0,0,0-.1-.174l-3.3-1.9a.2.2,0,0,0-.3.174ZM4.1,16.7l3.372,1.947a.2.2,0,0,0,.3-.173V14.326a.2.2,0,0,0-.1-.174L4.3,12.208a.2.2,0,0,0-.3.173v4.15a.2.2,0,0,0,.1.173" transform="translate(-4 -2.032)" fill="#efa106"/>
    <path id="Path_24356" data-name="Path 24356" d="M4.1,11.293,7.472,13.24a.2.2,0,0,0,.3-.173V9.462a.2.2,0,0,0-.1-.173L4.3,7.341a.2.2,0,0,0-.3.174V11.12a.2.2,0,0,0,.1.173" transform="translate(-4 -2.032)" fill="#efa106"/>
  </g>
</svg>
