<svg xmlns="http://www.w3.org/2000/svg" width="24" height="24" viewBox="0 0 24 24">
  <g id="icon_loop_cut" transform="translate(-710 -547)">
    <rect id="shape" width="24" height="24" transform="translate(710 547)" fill="none"/>
    <g id="loop_cut" transform="translate(709.498 547.141)">
      <path id="shape-2" data-name="shape" d="M16932.717,20801.912l-8.469-4.734a.487.487,0,0,1-.246-.422v-9.516a.491.491,0,0,1,.246-.42l8.5-4.756a.543.543,0,0,1,.246-.064.559.559,0,0,1,.25.064l8.5,4.756a.487.487,0,0,1,.25.42v9.516a.483.483,0,0,1-.25.422l-8.395,4.7a.421.421,0,0,1-.168.092l-.025.01a.49.49,0,0,1-.156.023A.5.5,0,0,1,16932.717,20801.912Zm-.225-1.248v-8.395l-7.492-4.187v8.4Zm1.039-8.395v8.385l7.471-4.176v-8.387Zm-.523-.826,7.5-4.2-7.51-4.2-7.5,4.2Z" transform="translate(-16920.5 -20780.141)" fill="#737376"/>
      <path id="svg-fill-primary" d="M16937.5,20838.744v-1.871l.838-.484v-6.836l-.838-.482v-1.873l1.621-.936.609.352,6.289-3.629v-.865l1.621-.941,1.623.941v1.867l-1.623.936-1.039-.6-5.859,3.381v1.367l-.951.549v6.7l.951.551v1.871l-1.621.938Z" transform="translate(-16931.375 -20818.326)" fill="#efa106" stroke="rgba(0,0,0,0)" stroke-width="1"/>
    </g>
  </g>
</svg>
