<svg id="icon_selection" xmlns="http://www.w3.org/2000/svg" width="100" height="100" viewBox="0 0 100 100">
  <rect id="shape" width="100" height="100" fill="none"/>
  <path id="shape-2" data-name="shape" d="M1396.085,604.718a2.969,2.969,0,0,1-1.867-3c-.388-6.817-.816-13.631-1.223-20.446q-1.862-31.2-3.719-62.4c-.021-.35-.012-.7-.037-1.053a2.71,2.71,0,0,1,4.625-2.109q5.563,5.068,11.136,10.126,25.207,22.965,50.41,45.934c.149.135.288.281.444.407,1.107.9,1.726,1.958,1.167,3.423-.539,1.412-1.711,1.711-3.042,1.741q-6.016.135-12.033.277c-6.468.154-12.935.342-19.4.441a3.341,3.341,0,0,0-2.8,1.319c-6.7,8-13.469,15.948-20.194,23.93C1398.607,604.42,1397.614,605.211,1396.085,604.718Z" transform="translate(-1373.231 -509.868)" fill="#181818"/>
</svg>
