<svg id="icon_favorite" xmlns="http://www.w3.org/2000/svg" width="100" height="100" viewBox="0 0 100 100">
  <rect id="shape" width="100" height="100" fill="none"/>
  <path id="star" d="M2729.037-960.009c-3.773-.617-7.6-1.162-11.3-1.689-3.975-.566-8.088-1.152-12.127-1.827a3.151,3.151,0,0,1-1.643-1.219c-1.881-3.6-3.715-7.318-5.488-10.914l-.033-.071c-1.648-3.345-3.352-6.8-5.1-10.18-.965-1.859-3.094-3.878-5.295-4.134-2.7-.322-4.949,2.808-5.584,4.042-1.68,3.266-3.324,6.605-4.916,9.835l-.053.112c-1.824,3.7-3.705,7.519-5.637,11.219a3.2,3.2,0,0,1-1.615,1.278c-4.061.69-8.207,1.289-12.26,1.874-3.553.513-7.227,1.043-10.84,1.638-.523.087-5.145.931-6.051,3.972-.91,3.058,2.217,6.345,2.58,6.711,5.566,5.645,11.25,11.113,16.561,16.182.863.821.932,1.168.754,2.108-1.139,6.006-2.143,12.062-3.115,17.917l-.012.081q-.533,3.205-1.061,6.354l-.033.308c-.158,3.4,1.191,5,2.348,5.741a4.657,4.657,0,0,0,2.561.73,7.274,7.274,0,0,0,3.3-.9c8.373-4.308,15.229-7.917,21.58-11.358a2.054,2.054,0,0,1,2.506-.089c6.609,3.645,13.492,7.268,21.039,11.076,1.406.708,4.6,1.647,6.676.127,1.982-1.453,2.293-4.618,2.018-6.391-1.064-6.85-2.354-14.292-4.055-23.422a1.881,1.881,0,0,1,.643-2.194c5.756-5.475,11.473-11.079,17-16.658.145-.148,3.582-3.669,2.232-6.526C2733.668-958.283,2731.09-959.674,2729.037-960.009Z" transform="translate(-2637.927 995.308)" stroke="rgba(0,0,0,0)" stroke-miterlimit="10" stroke-width="1"/>
</svg>
