<svg id="icon_history" xmlns="http://www.w3.org/2000/svg" width="100" height="100" viewBox="0 0 100 100">
  <rect id="shape" width="100" height="100" fill="none"/>
  <path id="clock" d="M-39.352-129.917A47.53,47.53,0,0,1,8.156-177.356a47.593,47.593,0,0,1,47.492,47.48A47.645,47.645,0,0,1,8.17-82.356H7.948A47.61,47.61,0,0,1-39.352-129.917Zm9.514.013A38,38,0,0,0,7.969-91.89a38.009,38.009,0,0,0,38.145-37.8A37.925,37.925,0,0,0,8.245-167.842H7.923A37.926,37.926,0,0,0-29.838-129.9ZM22.693-118.2c-5.35-2.3-10.652-4.715-16.017-6.981a5.207,5.207,0,0,1-3.473-5.31c.016-3.888,0-7.776,0-11.664q0-5.72,0-11.44c0-1.832.384-3.478,1.994-4.627a4.753,4.753,0,0,1,7.459,2.729,8.1,8.1,0,0,1,.186,1.888c.013,6.505.022,13.01-.009,19.516a1.449,1.449,0,0,0,1.017,1.588c4.22,1.812,8.416,3.68,12.608,5.556a4.572,4.572,0,0,1,2.98,5.081,4.9,4.9,0,0,1-4.474,4.056c-.11.009-.222.014-.334.014A5.051,5.051,0,0,1,22.693-118.2Z" transform="translate(41.353 179.356)" stroke="rgba(0,0,0,0)" stroke-miterlimit="10" stroke-width="1"/>
</svg>
