<svg xmlns="http://www.w3.org/2000/svg" width="24" height="24" viewBox="0 0 24 24">
  <g id="icon_cone" transform="translate(6)">
    <rect id="shape" width="24" height="24" transform="translate(-6)" fill="none"/>
    <path id="cone" d="M17.984,15.411c0-.028.016-.052.016-.079,0-.951-2.929-6.367-3.826-8.005C10.158,0,9.621,0,9,0S7.942,0,3.887,7.324C2.435,9.945,0,14.472,0,15.332c0,.028.013.052.015.079S0,15.464,0,15.492H.032C.37,17.921,8.1,18,9,18s8.63-.079,8.968-2.508H18a.811.811,0,0,0-.016-.081M9.032,2.086a116.265,116.265,0,0,1,6.442,11.572A30.2,30.2,0,0,0,9,13.038a30.281,30.281,0,0,0-6.462.617C4.09,10.474,7.623,4.147,9.032,2.086m-6.8,13.376A22.684,22.684,0,0,1,9,14.674a22.653,22.653,0,0,1,6.772.789,19.615,19.615,0,0,1-6.772.9,19.618,19.618,0,0,1-6.772-.9" transform="translate(-3 3)" fill="#161615"/>
  </g>
</svg>
