<svg id="icon_content-manager" xmlns="http://www.w3.org/2000/svg" width="100" height="100" viewBox="0 0 100 100">
  <rect id="shape" width="100" height="100" fill="none"/>
  <g id="manager" transform="translate(-2624.618 -678.971)">
    <path id="shape-2" data-name="shape" d="M2711.032,681.971H2638.2a3.571,3.571,0,0,0-3.586,3.556v86.889a3.571,3.571,0,0,0,3.586,3.555h72.829a3.57,3.57,0,0,0,3.585-3.555V685.527A3.57,3.57,0,0,0,2711.032,681.971Zm-64,58.464c0-1.112.363-2.013.812-2.013h20.337c.448,0,.812.9.812,2.013v3.085c0,1.112-.364,2.013-.812,2.013H2647.84c-.449,0-.812-.9-.812-2.013Zm54.9,18.641a2.022,2.022,0,0,1-2.03,2.013h-50.842a2.021,2.021,0,0,1-2.03-2.013v-3.085a2.022,2.022,0,0,1,2.03-2.013H2699.9a2.022,2.022,0,0,1,2.03,2.013Zm.118-49.805c-2.068,7.224-4.089,14.461-6.22,21.667a25.935,25.935,0,0,1-8.958,12.883,1.763,1.763,0,0,1-3-.871,26.6,26.6,0,0,1-.578-16.535c2.226-7.643,4.388-15.3,6.578-22.957.044-.15.1-.3.169-.507l12.771,3.629C2702.549,707.509,2702.3,708.39,2702.048,709.27Zm2.4-8.351c-.252.929-.531,1.85-.82,2.856l-12.868-3.578c.52-1.467.574-3.057,1.562-4.308a3.934,3.934,0,0,1,4.23-1.5c1.7.4,3.383.863,5.052,1.369A4.088,4.088,0,0,1,2704.451,700.919Z" transform="translate(0 0)"/>
    <path id="shape-3" data-name="shape" d="M2858.838,905.268a22.767,22.767,0,0,0,.229,5.764.666.666,0,0,0,.42.391c.835.251,1.678.479,2.528.672a.707.707,0,0,0,.586-.171c.6-.73,1.2-1.472,1.732-2.251.553-.8,1.037-1.655,1.593-2.553l-6.991-1.988C2858.88,905.206,2858.841,905.235,2858.838,905.268Z" transform="translate(-173.908 -173.57)"/>
  </g>
</svg>
