<svg id="CReate_tabs_pages" data-name="CReate tabs/pages" xmlns="http://www.w3.org/2000/svg" width="100" height="100.014" viewBox="0 0 100 100.014">
  <rect id="shape" width="100" height="100" transform="translate(0 0.014)" fill="none"/>
  <g id="icon" transform="translate(0 0)">
    <path id="shape-2" data-name="shape" d="M494,66.832H419.889A14.264,14.264,0,0,0,406.358,79.97v74.468a12.4,12.4,0,0,0,5.445,10.286,12.18,12.18,0,0,0,6.9,2.121h74.116a12.172,12.172,0,0,0,7.214-2.367,12.343,12.343,0,0,0,6.323-10.771V79.239A12.388,12.388,0,0,0,494,66.832Zm-1.144,83a4.612,4.612,0,0,1-4.614,4.614H424.51a4.617,4.617,0,0,1-4.615-4.614V95.383h72.966Z" transform="translate(-406.358 -66.832)" fill="#131313"/>
    <path id="plus" d="M413.791,95.927h11v11.29a2.679,2.679,0,0,0,2.626,2.547h4.3a2.679,2.679,0,0,0,2.659-2.633v-11.2H445.42a2.662,2.662,0,0,0,2.653-2.64V89.238a2.658,2.658,0,0,0-2.633-2.62H434.376V75.369a2.642,2.642,0,0,0-.831-1.848A2.216,2.216,0,0,0,431.7,72.8h-4.249a2.655,2.655,0,0,0-2.653,2.64v11.2H413.757a2.686,2.686,0,0,0-2.659,2.646v4.082a2.57,2.57,0,0,0,.838,1.848A2.861,2.861,0,0,0,413.791,95.927Z" transform="translate(-379.582 -33.195)" fill="#131313"/>
  </g>
</svg>
