<svg id="icon_warning" xmlns="http://www.w3.org/2000/svg" width="100" height="100" viewBox="0 0 100 100">
  <rect id="shape" width="100" height="100" fill="none"/>
  <path id="warning" d="M836.295,1255.978q-11.95-20.631-23.917-41.253c-3.176-5.473-6.231-11.027-9.631-16.358-2.861-4.482-7.328-6.322-12.581-5.949-5.178.369-8.9,3.09-11.478,7.557q-16.3,28.121-32.554,56.27a20.117,20.117,0,0,0-1.815,4.145c-1.834,6.026,1.311,13.27,6.893,16.214a15.745,15.745,0,0,0,7.507,1.768h32.55q15.881.006,31.761-.01c.876,0,1.754-.034,2.627-.1a14.366,14.366,0,0,0,12.988-12.119C839.211,1262.424,838.137,1259.145,836.295,1255.978Zm-44.936,13.383a7.583,7.583,0,1,1,.281-15.16,7.587,7.587,0,0,1-.281,15.16Zm7.44-51.458c-.2,3.961-.438,7.941-.674,11.921-.254,4.305-.508,8.61-.724,12.916,0,.068,0,.134,0,.2a6.075,6.075,0,0,1-6.069,5.971h-.107a6.079,6.079,0,0,1-5.968-6.119q-.608-11.386-1.225-22.771c-.045-.821-.1-1.641-.161-2.461l-.079-1.141c-.23-4.309,1.681-7.467,5.244-8.663.1-.034.2-.065.3-.094a7.354,7.354,0,0,1,9.068,5.085A18.531,18.531,0,0,1,798.8,1217.9Z" transform="translate(-741.795 -1185.371)"/>
</svg>
