<svg xmlns="http://www.w3.org/2000/svg" width="22.001" height="22" viewBox="0 0 22.001 22">
  <g id="center_left" transform="translate(0 0.499)">
    <rect id="shape" width="22" height="22" transform="translate(0.001 -0.499)" fill="none"/>
    <path id="center_left-2" data-name="center left" d="M10.714,21H3a1.873,1.873,0,0,1-2-1.714v-.572A1.874,1.874,0,0,1,3,17H9V3a1.873,1.873,0,0,1,1.714-2h.571A1.874,1.874,0,0,1,13,3V17h6a1.874,1.874,0,0,1,2,1.714v.572A1.873,1.873,0,0,1,19,21H10.714Z" transform="translate(21.001 -0.499) rotate(90)" fill="#d4d4d4"/>
  </g>
</svg>
