<svg xmlns="http://www.w3.org/2000/svg" width="24" height="24" viewBox="0 0 24 24">
  <g id="icon_save_next" transform="translate(-1240 -202)">
    <path id="svg-primary" d="M20.41,6.521,17.588,3.61A2,2,0,0,0,16.148,3H4.988A1.994,1.994,0,0,0,3,5V19a2,2,0,0,0,1.988,2H6.641A2.77,2.77,0,0,1,6,19.24V14.785A2.785,2.785,0,0,1,8.786,12H12.4a2.814,2.814,0,0,1,2.7-2.1,2.722,2.722,0,0,1,1.966.841L21,14.8V7.973a2.056,2.056,0,0,0-.59-1.452M13,9H7A2,2,0,0,1,7,5h6a2,2,0,0,1,0,4m2.345,3.337,4.105,4.105a.783.783,0,0,1,0,1.108l-4.111,4.111A.784.784,0,0,1,14,21.106V20H8.786A.789.789,0,0,1,8,19.214V14.786A.788.788,0,0,1,8.786,14H14V12.894a.788.788,0,0,1,1.345-.557" transform="translate(1240 202)" fill="#787878"/>
    <rect id="shape" width="24" height="24" transform="translate(1240 202)" fill="none"/>
  </g>
</svg>
