<svg id="icon_8" xmlns="http://www.w3.org/2000/svg" width="100" height="100" viewBox="0 0 100 100">
  <rect id="shape" width="100" height="100" fill="none"/>
  <path id="AXIS" d="M-608.625-3379.742h-66a13.907,13.907,0,0,1-9.9-4.1,13.909,13.909,0,0,1-4.1-9.9v-66a13.908,13.908,0,0,1,4.1-9.9,13.908,13.908,0,0,1,9.9-4.1h66a13.908,13.908,0,0,1,9.9,4.1,13.908,13.908,0,0,1,4.1,9.9v66a13.909,13.909,0,0,1-4.1,9.9A13.907,13.907,0,0,1-608.625-3379.742Zm-34.043-69.828a12.949,12.949,0,0,0-8.851,2.959c-2.227,1.964-3.356,4.789-3.356,8.4a9.417,9.417,0,0,0,1.756,5.65,10.5,10.5,0,0,0,4.843,3.611,12.12,12.12,0,0,0-5.664,3.908,9.7,9.7,0,0,0-2.1,6.145c0,3.8,1.239,6.736,3.682,8.737s5.721,3.016,9.742,3.016a14.952,14.952,0,0,0,9.671-3.016c2.471-2,3.724-4.941,3.724-8.737a9.573,9.573,0,0,0-2.138-6.145,12.4,12.4,0,0,0-5.707-3.908,10.863,10.863,0,0,0,4.9-3.611,9.211,9.211,0,0,0,1.813-5.65c0-3.608-1.158-6.434-3.441-8.4A13.192,13.192,0,0,0-642.668-3449.571Zm.057,38.062a8.061,8.061,0,0,1-5.707-2,7.2,7.2,0,0,1-2.138-5.508,7.6,7.6,0,0,1,2.167-5.594,7.635,7.635,0,0,1,5.621-2.167,7.812,7.812,0,0,1,5.664,2.181,7.484,7.484,0,0,1,2.237,5.579,7.134,7.134,0,0,1-2.181,5.493A8.058,8.058,0,0,1-642.611-3411.509Zm0-19.654a6.469,6.469,0,0,1-4.843-1.9,6.962,6.962,0,0,1-1.841-5.041,7.221,7.221,0,0,1,1.827-5.14,6.314,6.314,0,0,1,4.8-1.94,6.407,6.407,0,0,1,4.829,2.01,7.1,7.1,0,0,1,1.912,5.07,6.9,6.9,0,0,1-1.869,5.041A6.491,6.491,0,0,1-642.611-3431.163Z" transform="translate(691.625 3476.741)" fill="#010101"/>
</svg>
