<svg id="icon_z" xmlns="http://www.w3.org/2000/svg" width="100" height="100" viewBox="0 0 100 100">
  <rect id="shape" width="100" height="100" fill="none"/>
  <path id="AXIS" d="M-608.625-3379.742h-66a13.907,13.907,0,0,1-9.9-4.1,13.909,13.909,0,0,1-4.1-9.9v-66a13.908,13.908,0,0,1,4.1-9.9,13.908,13.908,0,0,1,9.9-4.1h66a13.908,13.908,0,0,1,9.9,4.1,13.908,13.908,0,0,1,4.1,9.9v66a13.909,13.909,0,0,1-4.1,9.9A13.907,13.907,0,0,1-608.625-3379.742Zm-41.94-65.052h16.419l-21.845,32.471v4.1h29.126v-9.024h-4.723l-.45,4.694h-17.739l21.984-32.639v-3.965h-27.916v9.053h4.751l.393-4.694Z" transform="translate(691.625 3476.742)" fill="#010101"/>
</svg>
