<svg id="icon_xd_extension" xmlns="http://www.w3.org/2000/svg" width="100" height="100" viewBox="0 0 100 100">
  <rect id="shape" width="100" height="100" fill="none"/>
  <g id="ps" transform="translate(13.006)">
    <path id="Path_19936" data-name="Path 19936" d="M12.881.61H45.963L74,30.145V87.591A12.937,12.937,0,0,1,61.143,100.61H12.881A12.942,12.942,0,0,1,0,87.591V13.629A12.942,12.942,0,0,1,12.881.61Z" transform="translate(0 -0.61)" fill="#fc49f2" fill-rule="evenodd"/>
    <path id="Path_19937" data-name="Path 19937" d="M237.139.61V29.92H265.2Z" transform="translate(-191.201 -0.61)" fill="rgba(255,255,255,0.3)" fill-rule="evenodd"/>
    <path id="Union_6" data-name="Union 6" d="M12.271,7.471a5.217,5.217,0,0,1-2.037-4.215,5.69,5.69,0,0,1,1.75-4.306,8.872,8.872,0,0,1,6.076-1.9q.645,0,1.146.046V-8.84a.246.246,0,0,1,.254-.244h4.072a.246.246,0,0,1,.255.244V8.308a.263.263,0,0,1-.207.243,35.8,35.8,0,0,1-5.6.366C15.4,8.916,13.543,8.444,12.271,7.471ZM14.8,3.149c0,1.461,1.081,2.313,2.958,2.313a8.24,8.24,0,0,0,1.448-.106V.609A9.456,9.456,0,0,0,18.093.548C16.025.548,14.8,1.521,14.8,3.149ZM3.5,8.545.128,3.138-3.243,8.545H-8.213L-2.357-.863l-5.121-8.22h4.943L.128-4.816,2.764-9.084H7.733L2.612-.839l5.83,9.384Z" transform="translate(29.206 71.083)" fill="#fff" stroke="rgba(0,0,0,0)" stroke-width="1"/>
  </g>
</svg>
