<svg id="icon_content-list" xmlns="http://www.w3.org/2000/svg" width="100" height="100" viewBox="0 0 100 100">
  <rect id="shape" width="100" height="100" fill="none"/>
  <path id="content-list" d="M1514.415,184.25h-72.829a3.571,3.571,0,0,0-3.585,3.556v86.889a3.571,3.571,0,0,0,3.585,3.556h72.829a3.57,3.57,0,0,0,3.585-3.556V187.806A3.57,3.57,0,0,0,1514.415,184.25Zm-56.246,75.209a2.022,2.022,0,0,1-2.03,2.013h-3.111a2.022,2.022,0,0,1-2.03-2.013v-3.085a2.022,2.022,0,0,1,2.03-2.013h3.111a2.022,2.022,0,0,1,2.03,2.013Zm0-17.778a2.022,2.022,0,0,1-2.03,2.013h-3.111a2.022,2.022,0,0,1-2.03-2.013V238.6a2.022,2.022,0,0,1,2.03-2.013h3.111a2.022,2.022,0,0,1,2.03,2.013Zm0-17.778a2.022,2.022,0,0,1-2.03,2.013h-3.111A2.022,2.022,0,0,1,1451,223.9v-3.085a2.022,2.022,0,0,1,2.03-2.013h3.111a2.022,2.022,0,0,1,2.03,2.013Zm0-17.778a2.022,2.022,0,0,1-2.03,2.013h-3.111a2.022,2.022,0,0,1-2.03-2.013v-3.085a2.022,2.022,0,0,1,2.03-2.013h3.111a2.022,2.022,0,0,1,2.03,2.013Zm47.507,53.333a2.022,2.022,0,0,1-2.03,2.013h-34.932a2.022,2.022,0,0,1-2.03-2.013v-3.085a2.022,2.022,0,0,1,2.03-2.013h34.932a2.022,2.022,0,0,1,2.03,2.013Zm0-17.778a2.022,2.022,0,0,1-2.03,2.013h-34.932a2.022,2.022,0,0,1-2.03-2.013V238.6a2.022,2.022,0,0,1,2.03-2.013h34.932a2.022,2.022,0,0,1,2.03,2.013Zm0-17.778a2.022,2.022,0,0,1-2.03,2.013h-34.932a2.022,2.022,0,0,1-2.03-2.013v-3.085a2.022,2.022,0,0,1,2.03-2.013h34.932a2.022,2.022,0,0,1,2.03,2.013Zm0-17.778a2.022,2.022,0,0,1-2.03,2.013h-34.932a2.022,2.022,0,0,1-2.03-2.013v-3.085a2.022,2.022,0,0,1,2.03-2.013h34.932a2.022,2.022,0,0,1,2.03,2.013Z" transform="translate(-1428 -181.25)"/>
</svg>
