<svg id="icon_brands" xmlns="http://www.w3.org/2000/svg" width="100" height="119" viewBox="0 0 100 119">
  <rect id="shape" width="100" height="100" fill="none" />
  <path id="icon" d="M93.307,51.677h0a6.145,6.145,0,0,1,0-7.294l1.473-2.032a6.143,6.143,0,0,0,1.068-5.03,6.263,6.263,0,0,0-3.143-4.114l-2.2-1.178a6.3,6.3,0,0,1-2.689-2.779,6.138,6.138,0,0,1-.528-3.793l.446-2.418a6.137,6.137,0,0,0-1.657-5.4A6.438,6.438,0,0,0,81.791,15.7l-2.563-.05a6.457,6.457,0,0,1-3.655-1.365,6.243,6.243,0,0,1-2.155-3.2l-.675-2.367a6.283,6.283,0,0,0-3.37-3.931,6.5,6.5,0,0,0-5.241-.132L61.818,5.6a6.5,6.5,0,0,1-3.9.324,6.414,6.414,0,0,1-3.361-1.969L52.9,2.113a6.471,6.471,0,0,0-9.14-.426c-.148.135-.29.278-.426.426l-1.66,1.8A6.4,6.4,0,0,1,38.3,5.858a6.5,6.5,0,0,1-3.9-.342L32.1,4.56a6.5,6.5,0,0,0-5.254.122,6.285,6.285,0,0,0-3.378,3.941l-.685,2.367a6.235,6.235,0,0,1-2.188,3.142,6.455,6.455,0,0,1-3.643,1.318l-2.511.122A6.442,6.442,0,0,0,10.127,17.5a6.148,6.148,0,0,0-1.675,5.381L8.878,25.3a6.131,6.131,0,0,1-.544,3.794,6.3,6.3,0,0,1-2.7,2.769l-2.245,1.2A6.272,6.272,0,0,0,.2,37.16a6.146,6.146,0,0,0,1.033,5.05l1.462,2.032a6.155,6.155,0,0,1,1.2,3.647,6.153,6.153,0,0,1-1.2,3.647L1.22,53.567A6.146,6.146,0,0,0,.152,58.6,6.264,6.264,0,0,0,3.3,62.71l2.2,1.178a6.3,6.3,0,0,1,2.689,2.779,6.125,6.125,0,0,1,.528,3.793l-.446,2.418a6.341,6.341,0,0,0-.1,1.108A6.18,6.18,0,0,0,9.918,78.28a6.439,6.439,0,0,0,4.291,1.934l2.511.132a6.454,6.454,0,0,1,3.655,1.365,6.235,6.235,0,0,1,2.155,3.2l.675,2.367a6.284,6.284,0,0,0,3.371,3.931,6.5,6.5,0,0,0,5.24.133L34.13,90.4a6.51,6.51,0,0,1,3.9-.323,6.407,6.407,0,0,1,3.36,1.969l1.66,1.849a6.47,6.47,0,0,0,9.14.426q.224-.2.426-.426l1.67-1.839A6.419,6.419,0,0,1,57.655,90.1a6.511,6.511,0,0,1,3.9.342l2.314.955a6.5,6.5,0,0,0,5.253-.122A6.281,6.281,0,0,0,72.5,87.333l.685-2.367a6.253,6.253,0,0,1,2.2-3.178,6.465,6.465,0,0,1,3.678-1.323l2.511-.112a6.414,6.414,0,0,0,4.679-2.328,6.142,6.142,0,0,0,1.307-4.977l-.426-2.418a6.135,6.135,0,0,1,.544-3.793,6.309,6.309,0,0,1,2.7-2.769l2.241-1.219A6.264,6.264,0,0,0,95.8,58.758a6.143,6.143,0,0,0-1.033-5.05ZM72.988,45.391c-3.1,3.071-6.316,6.156-9.55,9.168a1.022,1.022,0,0,0-.362,1.207c.955,5.025,1.681,9.121,2.279,12.891a3.839,3.839,0,0,1-1.134,3.516,4.016,4.016,0,0,1-3.75-.069C56.227,70,52.36,68.014,48.645,66a1.172,1.172,0,0,0-1.408.048C43.663,67.945,39.809,69.926,35.1,72.3a4.158,4.158,0,0,1-1.857.494,2.659,2.659,0,0,1-1.439-.4,3.224,3.224,0,0,1-1.326-3.161l.018-.17q.3-1.734.6-3.5l.008-.043c.546-3.225,1.109-6.557,1.749-9.862.1-.517.061-.708-.423-1.161-2.985-2.785-6.179-5.8-9.308-8.906-.2-.2-1.961-2.02-1.451-3.694s3.107-2.138,3.4-2.186c2.032-.327,4.1-.619,6.093-.9,2.279-.322,4.611-.651,6.9-1.032a1.785,1.785,0,0,0,.908-.7c1.086-2.037,2.144-4.141,3.167-6.174l.031-.061c.893-1.777,1.818-3.616,2.762-5.413.357-.679,1.625-2.4,3.14-2.224a4.376,4.376,0,0,1,2.979,2.279c.984,1.856,1.94,3.766,2.867,5.6l.02.039c1,1.979,2.03,4.024,3.088,6.007a1.76,1.76,0,0,0,.929.671c2.27.371,4.582.695,6.816,1.007,2.08.29,4.228.59,6.349.928A4.422,4.422,0,0,1,74.253,41.8c.756,1.573-1.175,3.509-1.256,3.592" transform="translate(2 1.998)" fill="#040405" />
</svg>
