<svg id="icon_e" xmlns="http://www.w3.org/2000/svg" width="100" height="100" viewBox="0 0 100 100">
  <rect id="shape" width="100" height="100" fill="none"/>
  <path id="AXIS" d="M-608.625-3379.742h-66a13.907,13.907,0,0,1-9.9-4.1,13.909,13.909,0,0,1-4.1-9.9v-66a13.908,13.908,0,0,1,4.1-9.9,13.908,13.908,0,0,1,9.9-4.1h66a13.908,13.908,0,0,1,9.9,4.1,13.908,13.908,0,0,1,4.1,9.9v66a13.909,13.909,0,0,1-4.1,9.9A13.907,13.907,0,0,1-608.625-3379.742Zm-49.99-69.234v3.6l4.616.793v32.484l-4.616.793v3.567h31.973v-9.884H-631.4l-.454,5.523h-16.567v-14.756h15.774v-4.389h-15.774v-13.339h16.228l.453,5.522h4.786v-9.913Z" transform="translate(691.625 3476.741)" fill="#010101"/>
</svg>
