<svg id="Group_27255" data-name="Group 27255" xmlns="http://www.w3.org/2000/svg" xmlns:xlink="http://www.w3.org/1999/xlink" width="16" height="16" viewBox="0 0 16 16">
  <defs>
    <clipPath id="clip-path">
      <rect id="Rectangle_11859" data-name="Rectangle 11859" width="16" height="16" fill="#0061a8"/>
    </clipPath>
  </defs>
  <g id="Group_26442" data-name="Group 26442" clip-path="url(#clip-path)">
    <path id="Path_50512" data-name="Path 50512" d="M12.04,3.455a5.967,5.967,0,0,0-5.226,3.1,6.046,6.046,0,1,0,8.09,8.09A5.961,5.961,0,0,0,12.04,3.455M9.484,16.235A4.26,4.26,0,0,1,6.076,9.419a5.971,5.971,0,0,0,5.964,5.964,4.247,4.247,0,0,1-2.556.852m4.26-4.26a4.278,4.278,0,0,1-.256,1.448A4.256,4.256,0,0,1,8.035,7.971a4.256,4.256,0,0,1,5.708,4M16.3,9.419a4.242,4.242,0,0,1-.776,2.437A6.029,6.029,0,0,0,9.6,5.935a4.215,4.215,0,0,1,2.437-.776,4.262,4.262,0,0,1,4.26,4.26" transform="translate(-2.731 -2.735)" fill="#0061a8"/>
  </g>
</svg>
