<svg width="232" height="235" viewBox="0 0 232 235" fill="none" xmlns="http://www.w3.org/2000/svg">
<path d="M164.792 11.0059H67.5428C63.2458 11.011 59.1262 12.7505 56.0877 15.8428C53.0492 18.9351 51.34 23.1277 51.335 27.5008V98.4319C51.335 99.617 51.383 100.806 51.4803 101.992L59.5874 200.965C60.0884 206.725 62.6833 212.088 66.8645 216.005C71.0457 219.921 76.5122 222.109 82.1946 222.14H152.872C158.672 222.139 164.251 219.878 168.464 215.822C172.676 211.766 175.203 206.222 175.525 200.328L180.928 101.366C180.972 100.571 180.994 99.7712 180.994 98.9795V27.5008C180.989 23.1288 179.28 18.9371 176.243 15.845C173.206 12.7529 169.088 11.0127 164.792 11.0059Z" fill="#2E2E2E"/>
<path d="M164.792 11.0059H158.309V221.444C163.022 220.263 167.238 217.575 170.338 213.774C173.438 209.973 175.258 205.26 175.53 200.328L180.933 101.366C180.977 100.571 181 99.7712 181 98.9795V27.5008C180.995 23.1277 179.286 18.9351 176.247 15.8428C173.209 12.7505 169.089 11.011 164.792 11.0059Z" fill="#5A5A5A"/>
<path d="M74.0296 11.0059H67.5468C63.2498 11.011 59.1301 12.7505 56.0917 15.8428C53.0532 18.9351 51.344 23.1277 51.339 27.5008V98.4319C51.339 99.617 51.387 100.806 51.4842 101.992L59.5912 200.965C59.9662 205.275 61.5165 209.394 64.0675 212.856C66.6184 216.318 70.0687 218.986 74.0296 220.56V11.0059Z" fill="#5A5A5A"/>
<path d="M148.584 212.242H83.7545C82.9059 212.225 82.0977 211.87 81.5035 211.253C80.9092 210.637 80.5764 209.807 80.5764 208.944C80.5764 208.08 80.9092 207.25 81.5035 206.634C82.0977 206.017 82.9059 205.662 83.7545 205.645H148.584C149.433 205.662 150.241 206.017 150.835 206.634C151.43 207.25 151.763 208.08 151.763 208.944C151.763 209.807 151.43 210.637 150.835 211.253C150.241 211.87 149.433 212.225 148.584 212.242Z" fill="#656565"/>
<path d="M155.411 27.1229H77.6113C76.3342 27.1229 75.0696 27.3789 73.8898 27.8762C72.7099 28.3736 71.6378 29.1027 70.7348 30.0217C69.8317 30.9407 69.1154 32.0318 68.6266 33.2326C68.1379 34.4334 67.8863 35.7204 67.8863 37.0201V96.4035C67.8863 98.1534 68.5693 99.8315 69.7851 101.069C71.0009 102.306 72.6499 103.001 74.3692 103.001H158.649C160.368 103.001 162.017 102.306 163.233 101.069C164.449 99.8315 165.132 98.1534 165.132 96.4035V37.0201C165.132 34.3959 164.108 31.879 162.285 30.0231C160.462 28.1671 157.989 27.1239 155.411 27.1229Z" fill="white"/>
<path d="M97.0638 136.365H84.098C83.2382 136.365 82.4135 136.018 81.8055 135.399C81.1975 134.78 80.856 133.941 80.856 133.066V126.468C80.856 126.035 80.9397 125.606 81.1026 125.205C81.2656 124.805 81.5045 124.441 81.8055 124.135C82.1066 123.829 82.4639 123.586 82.8573 123.42C83.2506 123.254 83.6723 123.169 84.098 123.169H97.0638C97.4895 123.169 97.9111 123.254 98.3044 123.42C98.6978 123.586 99.0551 123.829 99.3562 124.135C99.6572 124.441 99.8961 124.805 100.059 125.205C100.222 125.606 100.306 126.035 100.306 126.468V133.067C100.305 133.942 99.9637 134.781 99.3557 135.399C98.7477 136.018 97.9234 136.365 97.0638 136.365Z" fill="#656565"/>
<path d="M122.997 136.365H110.031C109.171 136.365 108.346 136.018 107.738 135.399C107.13 134.78 106.789 133.941 106.789 133.066V126.468C106.789 126.035 106.872 125.606 107.035 125.205C107.198 124.805 107.437 124.441 107.738 124.135C108.039 123.829 108.397 123.586 108.79 123.42C109.183 123.254 109.605 123.169 110.031 123.169H122.997C123.422 123.169 123.844 123.254 124.237 123.42C124.63 123.586 124.988 123.829 125.289 124.135C125.59 124.441 125.829 124.805 125.992 125.205C126.155 125.606 126.238 126.035 126.238 126.468V133.067C126.238 133.942 125.896 134.781 125.288 135.399C124.68 136.018 123.856 136.365 122.997 136.365Z" fill="#656565"/>
<path d="M148.928 136.365H135.962C135.102 136.365 134.278 136.018 133.67 135.399C133.062 134.78 132.72 133.941 132.72 133.066V126.468C132.72 126.035 132.804 125.606 132.967 125.205C133.13 124.805 133.369 124.441 133.67 124.135C133.971 123.829 134.328 123.586 134.722 123.42C135.115 123.254 135.537 123.169 135.962 123.169H148.928C149.788 123.169 150.612 123.517 151.22 124.135C151.827 124.754 152.169 125.593 152.169 126.468V133.067C152.168 133.942 151.827 134.78 151.219 135.399C150.611 136.017 149.787 136.365 148.928 136.365Z" fill="#656565"/>
<path d="M96.7202 156.16H83.7545C82.8946 156.16 82.0699 155.812 81.4619 155.193C80.8539 154.575 80.5124 153.735 80.5124 152.86V146.263C80.5124 145.387 80.8539 144.548 81.4619 143.929C82.0699 143.311 82.8946 142.963 83.7545 142.963H96.7202C97.5801 142.963 98.4046 143.311 99.0126 143.929C99.6206 144.548 99.9621 145.387 99.9621 146.263V152.862C99.9618 153.736 99.6201 154.575 99.0121 155.194C98.4042 155.812 97.5798 156.16 96.7202 156.16Z" fill="#656565"/>
<path d="M122.653 156.16H109.687C108.827 156.16 108.003 155.812 107.395 155.193C106.787 154.575 106.445 153.735 106.445 152.86V146.263C106.445 145.387 106.787 144.548 107.395 143.929C108.003 143.311 108.827 142.963 109.687 142.963H122.653C123.513 142.963 124.337 143.311 124.945 143.929C125.553 144.548 125.895 145.387 125.895 146.263V152.862C125.895 153.736 125.553 154.575 124.945 155.194C124.337 155.812 123.513 156.16 122.653 156.16Z" fill="#656565"/>
<path d="M148.928 156.16H135.962C135.102 156.16 134.278 155.812 133.67 155.193C133.062 154.575 132.72 153.735 132.72 152.86V146.263C132.72 145.387 133.062 144.548 133.67 143.929C134.278 143.311 135.102 142.963 135.962 142.963H148.928C149.788 142.963 150.612 143.311 151.22 143.93C151.827 144.549 152.169 145.388 152.169 146.263V152.862C152.168 153.736 151.827 154.575 151.219 155.193C150.611 155.812 149.787 156.159 148.928 156.16Z" fill="#656565"/>
<path d="M96.7202 175.953H83.7545C82.8946 175.953 82.0699 175.605 81.4619 174.987C80.8539 174.368 80.5124 173.529 80.5124 172.653V166.056C80.5124 165.181 80.8539 164.341 81.4619 163.723C82.0699 163.104 82.8946 162.756 83.7545 162.756H96.7202C97.5801 162.756 98.4046 163.104 99.0126 163.723C99.6206 164.341 99.9621 165.181 99.9621 166.056V172.655C99.9618 173.53 99.6201 174.369 99.0121 174.987C98.4042 175.606 97.5798 175.953 96.7202 175.953Z" fill="#656565"/>
<path d="M122.653 175.953H109.687C108.827 175.953 108.003 175.605 107.395 174.987C106.787 174.368 106.445 173.529 106.445 172.653V166.056C106.445 165.181 106.787 164.341 107.395 163.723C108.003 163.104 108.827 162.756 109.687 162.756H122.653C123.513 162.756 124.337 163.104 124.945 163.723C125.553 164.341 125.895 165.181 125.895 166.056V172.655C125.895 173.53 125.553 174.369 124.945 174.987C124.337 175.606 123.513 175.953 122.653 175.953Z" fill="#656565"/>
<path d="M148.585 175.953H135.619C134.759 175.953 133.934 175.605 133.326 174.987C132.718 174.368 132.377 173.529 132.377 172.653V166.056C132.377 165.181 132.718 164.341 133.326 163.723C133.934 163.104 134.759 162.756 135.619 162.756H148.585C149.444 162.757 150.268 163.104 150.876 163.723C151.484 164.342 151.825 165.181 151.825 166.056V172.655C151.825 173.529 151.483 174.368 150.876 174.987C150.268 175.605 149.444 175.953 148.585 175.953Z" fill="#656565"/>
<path d="M96.7202 195.748H83.7545C82.8946 195.748 82.0699 195.4 81.4619 194.781C80.8539 194.162 80.5124 193.323 80.5124 192.448V185.85C80.5124 184.975 80.8539 184.136 81.4619 183.517C82.0699 182.898 82.8946 182.551 83.7545 182.551H96.7202C97.5801 182.551 98.4046 182.898 99.0126 183.517C99.6206 184.136 99.9621 184.975 99.9621 185.85V192.449C99.9618 193.324 99.6201 194.163 99.0121 194.782C98.4042 195.4 97.5798 195.748 96.7202 195.748Z" fill="#BE4040"/>
<path d="M122.653 195.748H109.687C108.827 195.748 108.003 195.4 107.395 194.781C106.787 194.162 106.445 193.323 106.445 192.448V185.85C106.445 184.975 106.787 184.136 107.395 183.517C108.003 182.898 108.827 182.551 109.687 182.551H122.653C123.513 182.551 124.337 182.898 124.945 183.517C125.553 184.136 125.895 184.975 125.895 185.85V192.449C125.895 193.324 125.553 194.163 124.945 194.782C124.337 195.4 123.513 195.748 122.653 195.748Z" fill="#FFC44D"/>
<path d="M148.585 195.748H135.619C134.759 195.748 133.934 195.4 133.326 194.781C132.718 194.162 132.377 193.323 132.377 192.448V185.85C132.377 184.975 132.718 184.136 133.326 183.517C133.934 182.898 134.759 182.551 135.619 182.551H148.585C149.444 182.551 150.268 182.899 150.876 183.518C151.484 184.136 151.825 184.975 151.825 185.85V192.449C151.825 193.324 151.483 194.163 150.876 194.781C150.268 195.4 149.444 195.747 148.585 195.748Z" fill="#A1DFA1"/>
<path d="M130.702 50.2028C128.811 48.253 126.562 46.7013 124.082 45.6363C121.602 44.5714 118.94 44.014 116.248 43.9959C113.556 43.9779 110.888 44.4996 108.394 45.5313C105.901 46.563 103.631 48.0844 101.715 50.0087C99.869 51.8937 98.4063 54.1309 97.4111 56.5923C95.3405 61.8296 95.3405 67.6789 97.4111 72.9163C98.4026 75.3796 99.8657 77.6176 101.715 79.4999C103.565 81.3822 105.764 82.8713 108.184 83.8803C110.736 84.9491 113.473 85.4867 116.232 85.4613C118.975 85.4822 121.693 84.9433 124.228 83.8765C126.646 82.8634 128.845 81.3748 130.697 79.496C132.594 77.5544 134.094 75.2486 135.108 72.7125C136.123 70.1763 136.632 67.4603 136.606 64.7221V64.3892C136.489 59.0669 134.377 53.9916 130.702 50.2028ZM133.551 65.4484C133.505 67.7159 133.02 69.9519 132.125 72.0288C131.229 74.1057 129.941 75.9827 128.332 77.5528C126.724 79.1228 124.828 80.3551 122.752 81.1792C120.675 82.0033 118.46 82.4032 116.232 82.3559C115.997 82.3559 115.761 82.3559 115.526 82.3559C113.298 82.309 111.101 81.8158 109.06 80.9047C107.019 79.9935 105.175 78.6822 103.632 77.0456C102.089 75.409 100.878 73.4791 100.068 71.3662C99.2583 69.2532 98.8652 66.9986 98.9115 64.7311C98.9064 64.4929 98.9064 64.2534 98.9115 64.0126C98.9577 61.7451 99.4425 59.509 100.338 57.4321C101.233 55.3553 102.522 53.4782 104.13 51.9082C105.738 50.3382 107.635 49.1059 109.711 48.2818C111.787 47.4577 114.003 47.0578 116.231 47.105C116.464 47.1008 116.699 47.1008 116.937 47.105C121.436 47.2005 125.715 49.1111 128.83 52.4166C131.946 55.7221 133.643 60.1517 133.55 64.7311C133.556 64.9693 133.556 65.2076 133.551 65.4484Z" fill="#E8E8E8"/>
<path opacity="0.3" d="M122.345 55.4573C122.181 55.0834 121.892 54.7807 121.53 54.6025C121.349 54.5088 121.15 54.4578 120.947 54.4533C120.744 54.4489 120.543 54.4911 120.358 54.5768C119.996 54.739 119.7 55.0225 119.518 55.3802C119.426 55.5593 119.376 55.7578 119.371 55.9601C119.367 56.1623 119.409 56.3629 119.493 56.546C119.966 57.8486 120.315 59.194 120.538 60.564C120.76 61.9437 120.87 63.3395 120.868 64.7376C120.869 66.1441 120.759 67.5484 120.538 68.9368C120.317 70.3156 119.968 71.6698 119.493 72.9805C119.409 73.1629 119.365 73.362 119.365 73.5635C119.365 73.765 119.409 73.964 119.493 74.1464C119.671 74.5158 119.981 74.8023 120.359 74.9471C120.539 75.0327 120.736 75.0749 120.935 75.0704C121.134 75.066 121.329 75.015 121.505 74.9214C121.877 74.7495 122.176 74.4458 122.345 74.0667C122.882 72.5699 123.283 71.0262 123.542 69.4548C124.051 66.3313 124.051 63.1438 123.542 60.0203C123.287 58.4639 122.886 56.9359 122.345 55.4573Z" fill="#181818"/>
<path opacity="0.6" d="M115.674 58.3557C115.527 57.9642 115.234 57.6476 114.859 57.4752C114.672 57.3735 114.465 57.3161 114.254 57.3072C114.042 57.2983 113.831 57.3382 113.637 57.4238C113.456 57.4883 113.29 57.5901 113.15 57.7228C113.01 57.8555 112.898 58.0163 112.822 58.195C112.652 58.5703 112.633 58.9987 112.77 59.3878C113.042 60.2514 113.246 61.1355 113.381 62.0318C113.516 62.925 113.584 63.8274 113.585 64.7311C113.584 65.642 113.516 66.5516 113.381 67.4522C113.248 68.3573 113.044 69.25 112.77 70.1219C112.633 70.511 112.652 70.9394 112.822 71.3147C112.903 71.4989 113.023 71.6632 113.172 71.7962C113.321 71.9293 113.497 72.0281 113.687 72.0859C113.877 72.1716 114.084 72.2115 114.292 72.2026C114.499 72.1937 114.702 72.1362 114.884 72.0345C115.249 71.8552 115.532 71.5392 115.674 71.1527C116.012 70.1222 116.259 69.0632 116.413 67.9882C116.566 66.9065 116.642 65.8149 116.641 64.7221C116.643 63.6377 116.566 62.5547 116.413 61.4817C116.256 60.4198 116.009 59.3738 115.674 58.3557Z" fill="#181818"/>
<path d="M108.692 61.1051C108.631 60.9232 108.531 60.757 108.4 60.6183C108.269 60.4795 108.11 60.3715 107.934 60.3017C107.578 60.1478 107.177 60.1386 106.814 60.276C106.633 60.3405 106.468 60.4423 106.328 60.575C106.187 60.7077 106.076 60.8685 105.999 61.0472C105.915 61.2523 105.871 61.4726 105.871 61.6951C105.871 61.9176 105.915 62.1378 105.999 62.3429C106.133 62.7186 106.218 63.1105 106.252 63.5087C106.285 63.9054 106.302 64.3116 106.302 64.7272C106.302 65.1441 106.268 65.5603 106.2 65.9714C106.134 66.3776 106.031 66.7768 105.895 67.1643C105.81 67.3566 105.768 67.5657 105.773 67.7764C105.777 67.9871 105.827 68.1942 105.92 68.3828C106.124 68.7611 106.461 69.0474 106.863 69.1848C107.039 69.2539 107.228 69.285 107.416 69.2761C107.605 69.2673 107.789 69.2187 107.958 69.1334C108.13 69.0533 108.284 68.9385 108.411 68.796C108.538 68.6535 108.635 68.4862 108.697 68.3044C108.897 67.7282 109.059 67.139 109.181 66.5409C109.3 65.944 109.36 65.3363 109.359 64.7272C109.36 64.1092 109.3 63.4926 109.181 62.8866C109.059 62.2818 108.896 61.6866 108.692 61.1051Z" fill="#181818"/>
</svg>
