<svg id="icon_text_color" xmlns="http://www.w3.org/2000/svg" width="100" height="100" viewBox="0 0 100 100">
  <rect id="shape" width="100" height="100" fill="none"/>
  <path id="Path_24475" data-name="Path 24475" d="M75.6,17H8.4a8.381,8.381,0,1,0,0,16.762H75.6A8.381,8.381,0,1,0,75.6,17" transform="translate(8 60.238)"/>
  <path id="Path_24476" data-name="Path 24476" d="M8.707,58.667h0a4.669,4.669,0,0,0,4.452-3.143L17.4,43.665h23.73l4.158,11.817a4.728,4.728,0,1,0,8.9-3.185L36.343,4.9a7.589,7.589,0,0,0-14.2,0L4.3,52.3a4.717,4.717,0,0,0,4.41,6.37M28.993,10.9h.5l8.526,24.263H20.467Z" transform="translate(20.755 6)"/>
</svg>
