<svg id="icon_compressed_extensions_light" xmlns="http://www.w3.org/2000/svg" width="100" height="100" viewBox="0 0 100 100">
  <rect id="shape" width="100" height="100" fill="none"/>
  <g id="icon" transform="translate(13.006)">
    <path id="background" d="M12.881.61H45.963L74,30.145V87.591A12.937,12.937,0,0,1,61.143,100.61H12.881A12.942,12.942,0,0,1,0,87.591V13.629A12.942,12.942,0,0,1,12.881.61Z" transform="translate(0 -0.61)" fill="#e8e8e8" fill-rule="evenodd"/>
    <path id="fold" d="M237.139.61V29.92H265.2Z" transform="translate(-191.201 -0.61)" fill="#ffb536" fill-rule="evenodd" opacity="0.3"/>
    <path id="icon-2" data-name="icon" d="M92.221,74.5V68.8a1.1,1.1,0,0,0-1.1-1.1H88.034a1.1,1.1,0,0,0-1.1,1.1v5.7l-1.721,5.035a4.616,4.616,0,1,0,8.733,0L92.221,74.5ZM91.5,82.414a2.464,2.464,0,0,1-3.879,0,2.389,2.389,0,0,1-.308-2.158l.565-1.7h3.365l.591,1.7a2.4,2.4,0,0,1-.334,2.158ZM82.743,37.079v3.134a1.1,1.1,0,0,0,1.1,1.1h4.187v4.675H83.847a1.1,1.1,0,0,0-1.1,1.1v2.414a1.118,1.118,0,0,0,1.1,1.13h4.187V55.29H83.847a1.1,1.1,0,0,0-1.1,1.1v2.44a1.1,1.1,0,0,0,1.1,1.1h4.187v3.545a1.118,1.118,0,0,0,1.13,1.1H95.3a1.113,1.113,0,0,0,1.1-1.1v-2.44a1.13,1.13,0,0,0-1.1-1.1H91.091V55.29H95.3a1.113,1.113,0,0,0,1.1-1.1v-2.44a1.113,1.113,0,0,0-1.1-1.1H91.091V45.992H95.3a1.135,1.135,0,0,0,1.1-1.13V42.447a1.135,1.135,0,0,0-1.1-1.13H91.091V37.053Z" transform="translate(-68.749 -25.053)" fill="#ffb536"/>
  </g>
</svg>
