<svg xmlns="http://www.w3.org/2000/svg" width="22" height="22" viewBox="0 0 22 22">
  <g id="bottom_rigth" data-name="bottom rigth" transform="translate(4.999 7.999)">
    <path id="bottom_rigth-2" data-name="bottom rigth" d="M2,14H1.715a1.585,1.585,0,0,1-1.168-.536A1.588,1.588,0,0,1,0,12.287V2A1.874,1.874,0,0,1,1.715,0h.571A1.874,1.874,0,0,1,4,2v8h8a1.873,1.873,0,0,1,2,1.715v.571A1.873,1.873,0,0,1,12,14Z" transform="translate(3 14) rotate(-90)" fill="#d4d4d4"/>
    <rect id="shape" width="22" height="22" transform="translate(-4.999 -7.999)" fill="none"/>
  </g>
</svg>
