<svg xmlns="http://www.w3.org/2000/svg" width="22" height="22" viewBox="0 0 22 22">
  <g id="center_bottom" data-name="center bottom" transform="translate(-1 0.998)">
    <path id="center_bottom-2" data-name="center bottom" d="M9.715,21H2a1.873,1.873,0,0,1-2-1.715v-.572A1.873,1.873,0,0,1,2,17H8V3A1.874,1.874,0,0,1,9.715,1h.571A1.874,1.874,0,0,1,12,3V17h6a1.873,1.873,0,0,1,2,1.714v.572A1.874,1.874,0,0,1,18,21H9.715Z" transform="translate(2)" fill="#d4d4d4"/>
    <rect id="shape" width="22" height="22" transform="translate(1 -0.998)" fill="none"/>
  </g>
</svg>
