<svg id="icon_trova" xmlns="http://www.w3.org/2000/svg" width="100" height="100" viewBox="0 0 100 100">
  <rect id="shape" width="100" height="100" fill="none"/>
  <g id="logo" transform="translate(-54.421 -64.899)">
    <path id="shape-2" data-name="shape" d="M.5,0H19.214a.5.5,0,0,1,.5.5V19.214a.5.5,0,0,1-.5.5H.5a.5.5,0,0,1-.5-.5V.5A.5.5,0,0,1,.5,0Z" transform="translate(84.131 137.101) rotate(-90)" fill="#181818"/>
    <path id="shape-3" data-name="shape" d="M.461,0H8.672a.461.461,0,0,1,.461.461V8.672a.461.461,0,0,1-.461.461H.461A.461.461,0,0,1,0,8.672V.461A.461.461,0,0,1,.461,0Z" transform="translate(56.421 137.103) rotate(-90)" fill="#181818"/>
    <path id="shape-4" data-name="shape" d="M.5,0H14.9a.5.5,0,0,1,.5.5V14.9a.5.5,0,0,1-.5.5H.5a.5.5,0,0,1-.5-.5V.5A.5.5,0,0,1,.5,0Z" transform="translate(67.144 154.104) rotate(-90)" fill="#181818"/>
    <path id="shape-5" data-name="shape" d="M152.31,126.058a31.082,31.082,0,0,0-3.8-12.959,30.084,30.084,0,0,0-8.816-9.767c-.1-.168-.21-.294-.315-.441l-.063-.189c-.147-.462-.294-.945-.483-1.407a.3.3,0,0,0-.042-.126c-.084-.21-.147-.42-.231-.63a3.943,3.943,0,0,0-.252-.63c-.084-.231-.189-.462-.273-.693-.042-.084-.084-.189-.126-.273-.21-.5-.441-1.008-.672-1.512-.126-.252-.231-.5-.357-.756-.147-.273-.273-.567-.42-.84-.1-.21-.21-.4-.336-.609-.1-.231-.252-.483-.378-.714a1.132,1.132,0,0,0-.147-.273c-.315-.588-.672-1.176-1.05-1.743-.126-.21-.273-.42-.42-.63-.294-.42-.567-.84-.861-1.239s-.567-.8-.861-1.176l-.756-.945c-.21-.252-.42-.525-.651-.777-.231-.273-.441-.525-.672-.777-.462-.5-.924-1.008-1.406-1.491-.966-.966-1.994-1.89-3.065-2.772l-.063-.063c-.063-.063-.147-.105-.21-.168l-.945-.756-.252-.189c-.021-.021-.063-.042-.084-.063-.231-.168-.462-.336-.693-.525-.063-.042-.126-.105-.189-.147a.439.439,0,0,1-.126-.084c-.735-.525-1.511-1.05-2.288-1.512-.378-.231-.777-.462-1.155-.672l-.693-.378a39.679,39.679,0,0,0-3.673-1.806,40.4,40.4,0,0,0-3.862-1.428c-.021,0-.042-.021-.063-.021-.147-.042-.315-.105-.462-.147a1.6,1.6,0,0,0-.42-.126c-.42-.147-.84-.252-1.26-.357a2.791,2.791,0,0,0-.4-.105c-.546-.147-1.092-.273-1.658-.378a42.249,42.249,0,0,0-8.544-.861c-.735,0-1.469.021-2.183.063a7.455,7.455,0,0,0-.966.063.266.266,0,0,0-.126.021c-.525.021-1.029.063-1.532.126q-1.1.126-2.2.315a3.876,3.876,0,0,0-.483.084c-.672.126-1.343.252-2.015.42a.029.029,0,0,0-.042,0,.612.612,0,0,1-.189.042l-.252.063c-.042,0-.063.021-.1.021-.483.147-.987.252-1.448.4a1.741,1.741,0,0,0-.441.126c-.693.189-1.385.42-2.057.651-.735.273-1.469.546-2.183.84s-1.427.609-2.12.945c-.714.357-1.406.714-2.078,1.092a8.193,8.193,0,0,0-.735.4c-.252.147-.5.294-.735.441-.609.378-1.2.756-1.805,1.134-.168.105-.336.231-.5.357a1.309,1.309,0,0,0-.252.189,4.61,4.61,0,0,0-.378.294,1.9,1.9,0,0,0-.336.231c-.042.021-.084.063-.126.084-1.092.819-2.162,1.68-3.17,2.583-.483.462-.987.924-1.469,1.407a37.3,37.3,0,0,0-2.75,3l-.042.042c-.483.588-.945,1.176-1.385,1.785-.462.63-.9,1.26-1.322,1.911A34.917,34.917,0,0,0,61.543,95.1a.021.021,0,0,0-.021.021c-.63,1.176-1.218,2.394-1.742,3.655a41.237,41.237,0,0,0-1.427,3.907.668.668,0,0,0-.063.189c-.021.063-.042.126-.063.21,0,.021-.021.042-.021.063-.1.315-.189.651-.273.987-.1.357-.21.714-.294,1.092-.021.063-.021.126-.042.189-.1.441-.21.882-.294,1.323-.126.63-.252,1.26-.357,1.911-.1.63-.189,1.281-.252,1.932-.063.5-.1.987-.126,1.491-.042.357-.063.714-.084,1.071-.021.441-.042.861-.042,1.3v.273a.039.039,0,0,0,0,.063,4.752,4.752,0,0,0-.021.546c0,.441,0,.882.042,1.323a1.073,1.073,0,0,0,.987.672H74.935a1.059,1.059,0,0,0,1.05-1.008c.252-6.112,2.9-13.526,6.99-17.517a22.753,22.753,0,0,1,31.739,0,23.06,23.06,0,0,1,7.011,16.593c0,.651-.021,1.3-.063,1.932.231-.021.483-.021.735-.021,4.072,0,10.538,3.8,10.538,10.544A10.606,10.606,0,0,1,122.4,138.408h-16a1.04,1.04,0,0,0-1.05,1.05v17.391a1.229,1.229,0,0,0,.084.4c0,.021.021.021.021.042v.021c0,.021.021.042.042.063a1.008,1.008,0,0,0,.9.525h16a29.963,29.963,0,0,0,30.018-30.056C152.394,127,152.31,126.058,152.31,126.058Z" transform="translate(0 0)" fill="#181818"/>
  </g>
</svg>
