<svg id="icon_server" xmlns="http://www.w3.org/2000/svg" width="100" height="100" viewBox="0 0 100 100">
  <rect id="shape" width="100" height="100" fill="none"/>
  <path id="server" d="M-4308.491,2121.028v-24.387h-1.142c-9.44-.007-18.879.038-28.316-.04a15.642,15.642,0,0,1-11.361-5.03,16.291,16.291,0,0,1-4.743-12.44,16.559,16.559,0,0,1,13.4-15.512c1.5-.268,3.035-.328,4.546-.484,1.613-8.831,6.511-14.915,15.543-16.645,9.127-1.748,15.949,2.128,20.61,9.848a44.483,44.483,0,0,1,4.2-2.925,14.854,14.854,0,0,1,19.3,4.49,26.723,26.723,0,0,1,2.311,4.721,1.086,1.086,0,0,0,.954.8,16.734,16.734,0,0,1,14.209,14.509,16.8,16.8,0,0,1-13.445,18.394,19.544,19.544,0,0,1-3.705.3c-9.092.025-18.184.014-27.276.014h-1.062v24.387h1.149q16.765,0,33.528,0c.348,0,.695-.01,1.04.024a2.049,2.049,0,0,1,1.93,2.067q.02,7.861,0,15.722a2.034,2.034,0,0,1-1.959,2.044,8.424,8.424,0,0,1-.867.012h-73.657c-2.189,0-2.842-.653-2.842-2.854v-14.332c0-1.957.724-2.683,2.671-2.683q16.848,0,33.7,0Zm9.92,11.922h12.766c2.315,0,4.632.014,6.947-.007a2.105,2.105,0,0,0,2.127-1.966,2.157,2.157,0,0,0-2.1-2.02c-.2-.012-.4,0-.606,0q-19.105,0-38.209.008a4.7,4.7,0,0,0-1.448.185,1.785,1.785,0,0,0-1.242,1.627,1.722,1.722,0,0,0,.839,1.782,3.6,3.6,0,0,0,1.647.378C-4311.423,2132.959-4305,2132.949-4298.571,2132.949Zm-35.668-.013a1.969,1.969,0,0,0,1.963-1.992,2.147,2.147,0,0,0-2.032-1.976,2.039,2.039,0,0,0-1.912,1.983A2,2,0,0,0-4334.24,2132.936Zm9.893-1.918a2.154,2.154,0,0,0-1.954-2.051,2.075,2.075,0,0,0-2.008,1.984,2.174,2.174,0,0,0,2.03,1.985A1.967,1.967,0,0,0-4324.347,2131.018Z" transform="translate(4356.46 -2043.577)"/>
</svg>
