<?xml version="1.0" encoding="utf-8"?>
<!-- Generator: Adobe Illustrator 28.1.0, SVG Export Plug-In . SVG Version: 6.00 Build 0)  -->
<svg version="1.1" id="Camada_1" xmlns="http://www.w3.org/2000/svg" xmlns:xlink="http://www.w3.org/1999/xlink" x="0px" y="0px"
	 viewBox="0 0 24 24" style="enable-background:new 0 0 24 24;" xml:space="preserve">
<path d="M6.4,19.7c0.2,0.2,0.3,0.4,0.3,0.8c0,0.3-0.1,0.6-0.3,0.8c-0.2,0.2-0.4,0.3-0.8,0.3c-0.3,0-0.6-0.1-0.8-0.3l-2.9-2.9
	c-0.2-0.2-0.3-0.4-0.3-0.8s0.1-0.6,0.3-0.8l2.9-2.9c0.2-0.2,0.4-0.3,0.8-0.3c0.3,0,0.6,0.1,0.8,0.3s0.3,0.4,0.3,0.8
	c0,0.3-0.1,0.6-0.3,0.8l-1,1H9c0.3,0,0.6,0.1,0.8,0.3c0.2,0.2,0.3,0.4,0.3,0.8s-0.1,0.6-0.3,0.8S9.3,18.7,9,18.7H5.4L6.4,19.7z
	 M17.6,9.4c0.2-0.2,0.3-0.4,0.3-0.8c0-0.3-0.1-0.6-0.3-0.8c-0.2-0.2-0.4-0.3-0.8-0.3h-6.7c-0.3,0-0.6,0.1-0.8,0.3C9.1,8,9,8.3,9,8.6
	c0,0.3,0.1,0.6,0.3,0.8c0.2,0.2,0.4,0.3,0.8,0.3h6.7C17.1,9.7,17.4,9.6,17.6,9.4z M17.6,13.9c0.2-0.2,0.3-0.4,0.3-0.8
	c0-0.3-0.1-0.6-0.3-0.8c-0.2-0.2-0.4-0.3-0.8-0.3h-3.4c-0.3,0-0.6,0.1-0.8,0.3s-0.3,0.4-0.3,0.8c0,0.3,0.1,0.6,0.3,0.8
	c0.2,0.2,0.4,0.3,0.8,0.3h3.4C17.1,14.2,17.4,14.1,17.6,13.9z M13,18.7c-0.2,0-0.3-0.1-0.6-0.2c-0.1-0.1-0.2-0.3-0.2-0.6
	c0-1-0.1-1.9-0.4-2.7c-0.3-0.9-0.9-1.7-1.5-2.4c-0.7-0.7-1.5-1.2-2.4-1.6c-0.8-0.3-1.7-0.4-2.7-0.4c-0.2,0-0.4,0-0.6-0.2
	c-0.1-0.1-0.2-0.3-0.2-0.6V5.2c0-0.6,0.2-1.1,0.7-1.6C5.6,3.2,6.2,3,6.7,3h13.4c0.7,0,1.1,0.2,1.6,0.7c0.4,0.4,0.7,0.9,0.7,1.6v15.4
	c0,0.2-0.1,0.4-0.3,0.6c-0.2,0.1-0.4,0-0.6-0.1l-2.5-2.5H13z"/>
</svg>
