<svg xmlns="http://www.w3.org/2000/svg" width="24" height="24" viewBox="0 0 24 24">
  <g id="Icon_merge_faces" transform="translate(-5663.221 -5422)">
    <rect id="bg" width="24" height="24" transform="translate(5663.221 5422)" fill="none"/>
    <path id="svg-fill-primary" d="M.025-.9,8.538,3.8,16.915-.9V9.071l-8.377,4.7L.025,9.071Z" transform="translate(5666 5430)" fill="#046be1"/>
    <path id="shape" d="M8,4.5a.5.5,0,0,1-.223-.053l-8-4A.5.5,0,0,1-.447-.224.5.5,0,0,1,.224-.447l8,4A.5.5,0,0,1,8,4.5Z" transform="translate(5666.5 5429.5)" fill="#585656"/>
    <path id="shape" data-name="shape" d="M0,4.5a.5.5,0,0,1-.448-.276.5.5,0,0,1,.224-.671l8-4a.5.5,0,0,1,.671.224.5.5,0,0,1-.224.671l-8,4A.5.5,0,0,1,0,4.5Z" transform="translate(5674.5 5429.5)" fill="#585656"/>
    <path id="shape" data-name="shape" d="M12,1.68a.5.5,0,0,1,.25.067l8.5,4.91A.5.5,0,0,1,21,7.09v9.82a.5.5,0,0,1-.25.433l-8.394,4.846a.5.5,0,0,1-.168.1l-.03.01a.5.5,0,0,1-.459-.075L3.25,17.343A.5.5,0,0,1,3,16.91V7.09a.5.5,0,0,1,.25-.433l8.5-4.91A.5.5,0,0,1,12,1.68Zm8,5.7L12,2.757,4,7.379v9.243l8,4.618,8-4.618Z" transform="translate(5662.622 5422)" fill="#585656"/>
  </g>
</svg>
