<svg xmlns="http://www.w3.org/2000/svg" width="26.548" height="24" viewBox="0 0 26.548 24">
  <g id="Icon_examine" transform="translate(-5762 -5397)">
    <rect id="bg" width="24" height="24" transform="translate(5762 5397)" fill="none"/>
    <path id="shape" d="M20.5,7.09v9.82L12.03,21.8v.01l-.03.01-.01-.01L3.5,16.91V7.09L12,2.18Z" transform="translate(5761.53 5396.277)" fill="none" stroke="#585656" stroke-linecap="round" stroke-linejoin="round" stroke-width="1"/>
    <path id="shape" data-name="shape" d="M3.5,6.59a.5.5,0,0,1,.25.067l8.49,4.9a.5.5,0,0,1,.25.433v9.82a.5.5,0,0,1-.75.433l-8.49-4.9A.5.5,0,0,1,3,16.91V7.09a.5.5,0,0,1,.5-.5Zm7.99,5.689L4,7.956v8.665l7.49,4.323Z" transform="translate(5761.53 5396.277)" fill="#585656"/>
    <path id="shape" data-name="shape" d="M20.5,6.6a.5.5,0,0,1,.5.5v9.81a.5.5,0,0,1-.25.433l-8.47,4.89a.5.5,0,0,1-.75-.433V11.99a.5.5,0,0,1,.25-.433l8.47-4.89A.5.5,0,0,1,20.5,6.6ZM20,16.621V7.966l-7.47,4.313v8.655Z" transform="translate(5761.53 5396.277)" fill="#585656"/>
    <path id="svg-fill-primary" d="M7.968,9.8a.7.7,0,0,1-.3-.067L4.826,8.391a.7.7,0,0,1,.6-1.266L8.267,8.465a.7.7,0,0,1-.3,1.333Z" transform="translate(5771.96 5400.898)" fill="#046be1"/>
    <path id="svg-fill-primary" data-name="svg-fill-primary" d="M7.968,9.8a.7.7,0,0,1-.3-.067L4.826,8.391a.7.7,0,0,1,.6-1.266L8.267,8.465a.7.7,0,0,1-.3,1.333Z" transform="translate(5771.96 5406.898)" fill="#046be1"/>
    <path id="svg-fill-primary" data-name="svg-fill-primary" d="M7.968,9.8a.7.7,0,0,1-.3-.067L4.826,8.391a.7.7,0,0,1,.6-1.266L8.267,8.465a.7.7,0,0,1-.3,1.333Z" transform="translate(5776.96 5397.898)" fill="#046be1"/>
    <path id="svg-fill-primary" data-name="svg-fill-primary" d="M.1-.273a.7.7,0,0,1,.35.094l5.3,3.057A.7.7,0,0,1,6.1,3.5L6,9.2a.7.7,0,0,1-1.05.594L-.35,6.733A.7.7,0,0,1-.7,6.114l.1-5.7A.7.7,0,0,1,.1-.273ZM4.693,3.884.782,1.627l-.075,4.1L4.619,7.984Z" transform="translate(5785.172 5406.742) rotate(59)" fill="#046be1"/>
    <path id="svg-fill-primary" data-name="svg-fill-primary" d="M0,6.6A.6.6,0,0,1-.6,6V5.995a.6.6,0,0,1,.6-.6.6.6,0,0,1,.6.6V6A.6.6,0,0,1,0,6.6ZM0,4.595a.6.6,0,0,1-.6-.6V3.989a.6.6,0,0,1,.6-.6.6.6,0,0,1,.6.6v.005A.6.6,0,0,1,0,4.595ZM0,2.589a.6.6,0,0,1-.6-.6V1.984a.6.6,0,0,1,.6-.6.6.6,0,0,1,.6.6v.005A.6.6,0,0,1,0,2.589Z" transform="translate(5777.085 5408.656)" fill="#046be1"/>
    <path id="svg-fill-primary" data-name="svg-fill-primary" d="M5776.522,5409.851a.6.6,0,0,1-.293-1.124l0,0a.6.6,0,0,1,.585,1.047l0,0A.6.6,0,0,1,5776.522,5409.851Zm1.75-.979a.6.6,0,0,1-.293-1.124l0,0a.6.6,0,1,1,.586,1.047l0,0A.594.594,0,0,1,5778.272,5408.873Zm1.75-.979a.6.6,0,0,1-.293-1.124l0,0a.6.6,0,0,1,.585,1.047l0,0A.6.6,0,0,1,5780.023,5407.894Z" transform="translate(0.578 -0.581)" fill="#046be1"/>
  </g>
</svg>
