<svg id="icon_generic" xmlns="http://www.w3.org/2000/svg" width="100" height="100" viewBox="0 0 100 100">
  <rect id="shape" width="100" height="100" fill="none"/>
  <path id="shape-2" data-name="shape" d="M2201.773-402.47a45,45,0,0,0,0-57.3l6.934-6.932a4.279,4.279,0,0,0,0-6.056,4.282,4.282,0,0,0-6.055,0l-6.934,6.932a44.858,44.858,0,0,0-28.65-10.3,44.869,44.869,0,0,0-28.65,10.3l-6.932-6.932a4.282,4.282,0,0,0-6.055,0,4.283,4.283,0,0,0,0,6.056l6.932,6.932a45.007,45.007,0,0,0,0,57.3l-6.932,6.931a4.283,4.283,0,0,0,0,6.056,4.268,4.268,0,0,0,3.027,1.254,4.271,4.271,0,0,0,3.027-1.254l6.932-6.932a44.871,44.871,0,0,0,28.65,10.3,44.86,44.86,0,0,0,28.65-10.3l6.934,6.932a4.268,4.268,0,0,0,3.027,1.254,4.265,4.265,0,0,0,3.027-1.254,4.279,4.279,0,0,0,0-6.056Zm-60.473-2.884a36.194,36.194,0,0,1-10.672-25.765,36.2,36.2,0,0,1,10.672-25.765,36.21,36.21,0,0,1,25.768-10.671,36.2,36.2,0,0,1,25.768,10.671,36.2,36.2,0,0,1,10.674,25.765,36.2,36.2,0,0,1-10.674,25.765,36.2,36.2,0,0,1-25.768,10.672A36.21,36.21,0,0,1,2141.3-405.354Z" transform="translate(-2117.068 481.119)" fill="#161615"/>
</svg>
