<svg id="icon_u" xmlns="http://www.w3.org/2000/svg" width="100" height="100" viewBox="0 0 100 100">
  <rect id="shape" width="100" height="100" fill="none"/>
  <path id="AXIS" d="M-608.625-3379.742h-66a13.907,13.907,0,0,1-9.9-4.1,13.909,13.909,0,0,1-4.1-9.9v-66a13.908,13.908,0,0,1,4.1-9.9,13.908,13.908,0,0,1,9.9-4.1h66a13.908,13.908,0,0,1,9.9,4.1,13.908,13.908,0,0,1,4.1,9.9v66a13.909,13.909,0,0,1-4.1,9.9A13.907,13.907,0,0,1-608.625-3379.742Zm-54.122-69.234v3.6l4.616.793v23.562c0,4.454,1.42,7.917,4.219,10.295s6.517,3.582,11.045,3.582c4.66,0,8.5-1.205,11.4-3.582s4.376-5.841,4.376-10.295v-23.562l4.616-.793v-3.6h-14.811v3.6l4.616.793v23.562c0,3.12-.944,5.511-2.8,7.109a11,11,0,0,1-7.392,2.407,10.075,10.075,0,0,1-7.023-2.421c-1.767-1.607-2.662-3.994-2.662-7.094v-23.562l4.616-.793v-3.6h-14.811Z" transform="translate(691.625 3476.741)" fill="#010101"/>
</svg>
