<svg id="icon_update" xmlns="http://www.w3.org/2000/svg" width="100" height="100" viewBox="0 0 100 100">
  <rect id="shape" width="100" height="100" fill="none"/>
  <path id="update" d="M773.662,292.613c3.419-2.183,6.8-4.35,10.2-6.5a11.4,11.4,0,0,1,1.71-.934c1.046-.434,1.732.031,1.776,1.153.021.537.006,1.076.006,1.614q0,15.338.006,30.675c0,.2,0,.4-.006.595-.054,1.594-.745,2.012-2.189,1.344q-14.375-6.651-28.752-13.3a10.051,10.051,0,0,1-.912-.453c-1.118-.662-1.138-1.626-.013-2.384,1.573-1.06,3.175-2.077,4.764-3.113,1.137-.742,2.274-1.485,3.487-2.277a29.705,29.705,0,0,0-7.2-3.223,33.521,33.521,0,0,0-24.91,1.7c-10.567,5.077-17.161,13.46-19.37,24.993a34.2,34.2,0,0,0,22.909,39.043c13.13,4.294,24.966,1.461,35.1-7.871a32.868,32.868,0,0,0,9.774-17.448,5.834,5.834,0,0,1,3.041-4.356,5.076,5.076,0,0,1,5.329.309,4.963,4.963,0,0,1,2.383,4.764,28.184,28.184,0,0,1-2.2,8.081c-5.853,14.607-16.422,24.068-31.651,27.88-13.3,3.33-25.824.853-37.009-7.078A45.359,45.359,0,0,1,735.778,284.7c13.446-3.065,25.838-.488,37.123,7.43.185.13.37.261.557.388A1.788,1.788,0,0,0,773.662,292.613Z" transform="translate(-695.809 -278.443)" fill="#181818"/>
</svg>
