<svg xmlns="http://www.w3.org/2000/svg" width="100" height="100" viewBox="0 0 100 100">
  <g id="icon__" data-name="icon_?" transform="translate(-100 -141)">
    <rect id="shape" width="100" height="100" transform="translate(100 141)" fill="none"/>
    <path id="AXIS" d="M-608.625-3379.742h-66a13.907,13.907,0,0,1-9.9-4.1,13.909,13.909,0,0,1-4.1-9.9v-66a13.908,13.908,0,0,1,4.1-9.9,13.908,13.908,0,0,1,9.9-4.1h66a13.908,13.908,0,0,1,9.9,4.1,13.908,13.908,0,0,1,4.1,9.9v66a13.909,13.909,0,0,1-4.1,9.9A13.907,13.907,0,0,1-608.625-3379.742Zm-37.356-33.89v5.89h5.806v-5.89Zm3.314-31.237a6.185,6.185,0,0,1,4.574,1.615,6.308,6.308,0,0,1,1.6,4.616,7.618,7.618,0,0,1-1.19,4.3,62.239,62.239,0,0,1-3.993,5.1,14.3,14.3,0,0,0-3.554,4.177,16.953,16.953,0,0,0-.694,5.707h5.579a16.107,16.107,0,0,1,.326-3.8,6.756,6.756,0,0,1,1.827-2.747,37.47,37.47,0,0,0,5.281-6.2,11.949,11.949,0,0,0,2-6.683,10.312,10.312,0,0,0-3.087-7.944c-2.049-1.888-4.964-2.846-8.666-2.846a12.677,12.677,0,0,0-8.383,2.747,8.851,8.851,0,0,0-3.2,7.306l.085.17h5.324a4.926,4.926,0,0,1,1.8-4.12A6.928,6.928,0,0,1-642.668-3444.87Z" transform="translate(791.625 3617.741)" fill="#010101"/>
  </g>
</svg>
