<svg id="icon_layout" xmlns="http://www.w3.org/2000/svg" width="100" height="100" viewBox="0 0 100 100">
  <rect id="shape" width="100" height="100" fill="none"/>
  <g id="layout" transform="translate(-2151.235 -542.176)">
    <path id="shape-2" data-name="shape" d="M2.467,0H91.533A2.457,2.457,0,0,1,94,2.446V25.977a2.457,2.457,0,0,1-2.467,2.446H2.467A2.457,2.457,0,0,1,0,25.977V2.446A2.457,2.457,0,0,1,2.467,0Z" transform="translate(2154.235 545.176)"/>
    <path id="shape-3" data-name="shape" d="M2.467,0H44.533A2.457,2.457,0,0,1,47,2.446V53.792a2.457,2.457,0,0,1-2.467,2.446H2.467A2.457,2.457,0,0,1,0,53.792V2.446A2.457,2.457,0,0,1,2.467,0Z" transform="translate(2154.235 582.939)"/>
    <path id="shape-4" data-name="shape" d="M2.467,0H34.805a2.457,2.457,0,0,1,2.467,2.446V53.792a2.457,2.457,0,0,1-2.467,2.446H2.467A2.457,2.457,0,0,1,0,53.792V2.446A2.457,2.457,0,0,1,2.467,0Z" transform="translate(2210.963 582.939)"/>
  </g>
</svg>
