<svg id="icon_unselect-all" xmlns="http://www.w3.org/2000/svg" width="100" height="100" viewBox="0 0 100 100">
  <rect id="shape" width="100" height="100" fill="none"/>
  <g id="icon" transform="translate(-361.772 -366.066)">
    <path id="shape-2" data-name="shape" d="M377.549,427.286V390.915a.1.1,0,0,0-.1-.1h0a8.535,8.535,0,0,0-8.536,8.534v50.439a8.537,8.537,0,0,0,8.536,8.537h50.435a8.542,8.542,0,0,0,8.536-8.536h0a.1.1,0,0,0-.1-.1H399.949C377.412,449.618,377.372,440.714,377.549,427.286Z" fill="#040405"/>
    <path id="shape-3" data-name="shape" d="M445.864,373.2H394.688a8.191,8.191,0,0,0-8.166,8.167v51.176a8.19,8.19,0,0,0,8.166,8.166h51.176a8.191,8.191,0,0,0,8.167-8.166V381.372A8.191,8.191,0,0,0,445.864,373.2Zm-.469,52.655a6.236,6.236,0,0,1-6.218,6.218h-37.8a6.236,6.236,0,0,1-6.217-6.218v-37.8a6.236,6.236,0,0,1,6.217-6.218h37.8a6.236,6.236,0,0,1,6.218,6.218Z" fill="#040405"/>
  </g>
</svg>
