<svg id="icon_closesattion" xmlns="http://www.w3.org/2000/svg" width="100" height="100" viewBox="0 0 100 100">
  <rect id="shape" width="100" height="100" fill="none"/>
  <g id="Group_16005" data-name="Group 16005" transform="translate(20.501 3)">
    <g id="Group_16001" data-name="Group 16001" transform="translate(-0.501 0)">
      <path id="Path_50381" data-name="Path 50381" d="M9.14,26.651V14.22a4.035,4.035,0,0,1,3.995-3.971H29.741l4.91-8.109H13.134A12.129,12.129,0,0,0,.97,14.22V57.752l18.849-31.1Z" transform="translate(4.807 6.198)" fill="#181818"/>
      <path id="Path_50382" data-name="Path 50382" d="M.973,16.423v-.012l0,.008Z" transform="translate(4.804 47.539)" fill="#181818"/>
      <path id="Path_50383" data-name="Path 50383" d="M57.594.572,57.57.556a3.945,3.945,0,0,0-5.389,1.337L.06,88.08a3.878,3.878,0,0,0,1.347,5.347l.024.016A3.945,3.945,0,0,0,6.819,92.11L13.5,80.953H51.765a3.963,3.963,0,1,0,0-7.926H50.5V54.836h4.8V48.348H50.5V20.419c0-.16-.043-.316-.051-.479L58.937,5.918A3.878,3.878,0,0,0,57.594.572" transform="translate(0.501 0)" fill="#181818"/>
    </g>
  </g>
</svg>
