<svg id="icon_arrow-line-right" xmlns="http://www.w3.org/2000/svg" width="100.5" height="100" viewBox="0 0 100.5 100">
  <rect id="shape" width="100" height="100" transform="translate(0.5)" fill="none"/>
  <path id="arrow_down_big" d="M49.227,16.626c0-3.494.027-6.547-.008-9.6-.034-3,1.093-5.407,3.94-6.567,2.741-1.116,5.054-.1,7.085,1.956C65.259,7.483,70.375,12.451,75.4,17.505c3.371,3.388,3.489,6.494.183,9.883-5.145,5.271-10.416,10.421-15.67,15.587a5.88,5.88,0,0,1-6.869,1.488c-2.622-1.116-3.694-3.237-3.728-5.94-.039-3.171-.009-6.343-.009-9.99-1.625,0-42.588.05-43.533-.048A6.06,6.06,0,0,1,0,22.408c.067-3.371,2.518-5.709,6.4-5.75C14.629,16.571,42.759,16.626,49.227,16.626Z" transform="translate(0 27.5)"/>
  <path id="shape-2" data-name="shape" d="M6,0H67a6,6,0,0,1,0,12H6A6,6,0,0,1,6,0Z" transform="translate(100 13.5) rotate(90)"/>
</svg>
