<svg id="top_left" data-name="top left" xmlns="http://www.w3.org/2000/svg" width="22.001" height="22" viewBox="0 0 22.001 22">
  <rect id="shape" width="22" height="22" transform="translate(0.001)" fill="none"/>
  <path id="top_left-2" data-name="top left" d="M1.715,14A1.874,1.874,0,0,1,0,12V2.337C0,2.32,0,2.3,0,2.286V1.715A1.588,1.588,0,0,1,.546.537,1.586,1.586,0,0,1,1.715,0H12a1.874,1.874,0,0,1,2,1.715v.571A1.873,1.873,0,0,1,12,4H4v8a1.874,1.874,0,0,1-1.714,2Z" transform="translate(0 0)" fill="#d4d4d4"/>
</svg>
