<svg id="icon_landscape" xmlns="http://www.w3.org/2000/svg" width="100" height="100" viewBox="0 0 100 100">
  <rect id="shape" width="100" height="100" fill="none" />
  <path id="Path_50253" data-name="Path 50253" d="M63.385,3H-16.8a8.925,8.925,0,0,0-8.909,8.889V74.111A8.925,8.925,0,0,0-16.8,83H63.385a8.925,8.925,0,0,0,8.909-8.889V11.889A8.925,8.925,0,0,0,63.385,3ZM58.93,74.111H-12.342A4.463,4.463,0,0,1-16.8,69.667V16.333a4.463,4.463,0,0,1,4.455-4.444H58.93a4.463,4.463,0,0,1,4.455,4.444V69.667A4.463,4.463,0,0,1,58.93,74.111Z" transform="translate(26.706 7)" fill="#010101" />
</svg>
