<svg id="icon_analytics:value" xmlns="http://www.w3.org/2000/svg" width="100" height="101" viewBox="0 0 100 101">
  <rect id="shape" width="100" height="100" transform="translate(0 1)" fill="none"/>
  <path id="value" d="M439.007,181.325a50,50,0,1,1,49.949,50.087C461.17,231.324,438.778,208.748,439.007,181.325Zm64.215,10.8c-1.656,0-3.461-.042-5.263.012a2.906,2.906,0,0,0-2.979,2.786,2.859,2.859,0,0,0,2.752,3q6.619.09,13.239,0a2.66,2.66,0,0,0,2.661-2.625c.056-4.447.068-8.9,0-13.341a2.874,2.874,0,0,0-5.739.292c-.023,1.857-.005,3.714-.005,5.571l-.272.116c-1.38-1.416-2.748-2.846-4.144-4.246q-4.386-4.4-8.8-8.765a3.043,3.043,0,0,0-4.238-.478q-1.787,1.109-3.573,2.22c-1.642,1.023-3.282,2.048-4.954,3.092-2.692-3-5.318-5.928-7.943-8.857-1.507-1.681-2.987-3.387-4.525-5.04a2.691,2.691,0,0,0-3.514-.7,2.652,2.652,0,0,0-1.509,3.059,5.709,5.709,0,0,0,1.281,2.156c4.31,4.865,8.664,9.69,13,14.535,1.575,1.762,2.86,1.963,4.845.716q4.122-2.59,8.256-5.19Z" transform="translate(-439.005 -131.412)"/>
</svg>
