<svg id="icon_change" xmlns="http://www.w3.org/2000/svg" width="100" height="100" viewBox="0 0 100 100">
  <rect id="shape" width="100" height="100" fill="none"/>
  <path id="change" d="M0,23.19V20.44a4.125,4.125,0,0,1,4.125-4.125H66V8.065a4.128,4.128,0,0,1,7.042-2.917L86.792,18.9a4.125,4.125,0,0,1,0,5.834l-13.75,13.75A4.128,4.128,0,0,1,66,35.565v-8.25H4.125A4.125,4.125,0,0,1,0,23.19ZM83.875,49.315H22v-8.25a4.128,4.128,0,0,0-7.042-2.917L1.208,51.9a4.125,4.125,0,0,0,0,5.834l13.75,13.75A4.128,4.128,0,0,0,22,68.565v-8.25H83.875A4.125,4.125,0,0,0,88,56.19V53.44A4.125,4.125,0,0,0,83.875,49.315Z" transform="translate(6 12.064)"/>
</svg>
