<svg xmlns="http://www.w3.org/2000/svg" width="13.996" height="16" viewBox="0 0 13.996 16">
  <path id="tiktok" d="M2085.151-114.939a3.939,3.939,0,0,1-2.525-1.673,4.047,4.047,0,0,1-.617-2.1h0c-.2,0-.393,0-.59,0-.731,0-1.463,0-2.194,0h0c0,.121,0,.243,0,.364h0q0,1.211,0,2.431c0,1.9-.013,3.815-.017,5.719q0,1.2,0,2.389a2.245,2.245,0,0,1-.781,1.728,2.275,2.275,0,0,1-1.462.528,2.288,2.288,0,0,1-2.02-1.215,2.277,2.277,0,0,1-.267-1.072,2.287,2.287,0,0,1,2.287-2.287,2.265,2.265,0,0,1,.664.1h0v-2.9h0a5.214,5.214,0,0,0-.664-.044h-.017a5.126,5.126,0,0,0-5.11,5.127c0,.065,0,.129,0,.193h0c0,.057,0,.114,0,.171q0,.111,0,.221a4.7,4.7,0,0,0,3.354,4.268,6.349,6.349,0,0,0,1.769.274,5.128,5.128,0,0,0,5.089-4.507,3.261,3.261,0,0,0,.021-.359c.018-1.828.046-3.763.063-5.584h0a6.567,6.567,0,0,0,3.693.983h0c.006-.9-.006-1.806,0-2.71h0A2.645,2.645,0,0,1,2085.151-114.939Z" transform="translate(-2071.838 118.708)" fill="#484848"/>
</svg>
