<svg id="icon_target_association" data-name="Group 14704" xmlns="http://www.w3.org/2000/svg" xmlns:xlink="http://www.w3.org/1999/xlink" width="20" height="20" viewBox="0 0 20 20">
  <g id="Group_14703" data-name="Group 14703" clip-path="url(#clip-path)">
    <path id="Path_22031" data-name="Path 22031" d="M15.048,4.982a.786.786,0,0,0-.056,1.058,6.283,6.283,0,0,1,1.223,5.535A6.4,6.4,0,1,1,9.2,3.694V8.661A1.585,1.585,0,0,0,8.4,10.04a1.6,1.6,0,1,0,3.2,0h0a1.573,1.573,0,0,0-.8-1.376V2.607a.57.57,0,0,0-.573-.567h0a8,8,0,1,0,7.585,9.7,7.882,7.882,0,0,0-1.575-6.695.8.8,0,0,0-1.125-.124q-.034.029-.066.06Z" />
    <path id="Path_22032" data-name="Path 22032" d="M9.884,15.214A5.021,5.021,0,0,1,4.9,10.32V9.03A.968.968,0,0,1,5.837,8.1h0a.983.983,0,0,1,1,.935v1.29a3.16,3.16,0,0,0,6.32,0V9.029a.956.956,0,0,1,.283-.649A.968.968,0,0,1,14.1,8.1h0a.983.983,0,0,1,.691.26.963.963,0,0,1,.308.676v1.289A5,5,0,0,1,10.1,15.214Z" />
  </g>
</svg>