<svg id="eye" xmlns="http://www.w3.org/2000/svg" width="16" height="16" viewBox="0 0 16 16">
  <rect id="shape" width="16" height="16" fill="none"/>
  <path id="eye-2" data-name="eye" d="M14.949,9.132A8.375,8.375,0,0,0,7.52,4.5,8.376,8.376,0,0,0,.091,9.132a.845.845,0,0,0,0,.762A8.375,8.375,0,0,0,7.52,14.527a8.376,8.376,0,0,0,7.429-4.632A.845.845,0,0,0,14.949,9.132ZM7.52,13.273a3.76,3.76,0,1,1,3.76-3.76A3.76,3.76,0,0,1,7.52,13.273Zm0-6.267a2.489,2.489,0,0,0-.661.1A1.249,1.249,0,0,1,5.112,8.852,2.5,2.5,0,1,0,7.52,7.007Z" transform="translate(0.48 -1.46)" fill="#c1c1c1"/>
</svg>
