<svg id="icon_pre-save" xmlns="http://www.w3.org/2000/svg" width="100" height="100" viewBox="0 0 100 100">
  <rect id="shape" width="100" height="100" fill="none"/>
  <path id="pre-save" d="M1164.972,118.249H1120.6s0,42.385,0,42.435c-.1.005-4.647.01-6.847.013a6.124,6.124,0,0,0-2.658.519,4.246,4.246,0,0,0-1.621,6.193c.306.432,8.131,8.358,11.685,11.929a7.691,7.691,0,0,0,1.893,1.447,3.61,3.61,0,0,0,3.775-.15,8.139,8.139,0,0,0,1.451-1.136q5.652-5.638,11.272-11.307a4.292,4.292,0,0,0-2.059-7.288,11.688,11.688,0,0,0-2.355-.144c-1.918,0-6.021.01-6.021.01,0-.7-.028-33.779-.028-33.779h32.975v74.516h-74.517V118.249h-2.912a5.831,5.831,0,0,0-5.83,5.831v80.339a5.83,5.83,0,0,0,5.83,5.83h80.339a5.83,5.83,0,0,0,5.831-5.83V124.08A5.831,5.831,0,0,0,1164.972,118.249Z" transform="translate(-1074.802 -114.249)"/>
</svg>
