<svg id="icon_email" xmlns="http://www.w3.org/2000/svg" width="100" height="100" viewBox="0 0 100 100">
  <rect id="shape" width="100" height="100" fill="none"/>
  <path id="shape-2" data-name="shape" d="M-615.287-1274.825c-3.071,0-4.34-1.248-4.34-4.276q0-26.2,0-52.4v-1.484c.537.253.929.416,1.3.615q21.495,11.471,42.971,22.979a5.106,5.106,0,0,0,5.4-.033q21.35-11.486,42.775-22.832c.452-.24.91-.469,1.558-.8v1.433q0,26.2,0,52.4c0,3.09-1.3,4.4-4.372,4.4h-85.287Zm32.818-50.372a3.421,3.421,0,0,1-3.619-3.379,3.414,3.414,0,0,1,3.653-3.329c3.287-.011,6.574,0,9.861,0,3.207,0,6.413-.007,9.62,0,2.245.006,3.713,1.343,3.716,3.36a3.386,3.386,0,0,1-3.63,3.351q-4.856.017-9.712.018Q-577.523-1325.177-582.468-1325.2Zm29.882-26.737h-40.177v25.512c-2.282-1.21-4.364-2.291-6.409-3.437-.215-.121-.3-.63-.3-.959q-.024-12.105,0-24.211c.008-2.382,1.254-3.608,3.628-3.757.239-.015.482-.006.723-.006q22.467,0,44.933,0c3.173,0,4.381,1.207,4.382,4.356,0,7.75-.019,15.5.025,23.248a1.719,1.719,0,0,1-1.132,1.83c-1.867.891-3.677,1.9-5.676,2.948Zm10.144,3.3,13.842,9.438-13.842,7.284Zm-74.262,9.566,13.811-9.557v16.7Zm43.985.457c-3.212,0-6.425.013-9.637,0a3.472,3.472,0,0,1-3.73-3.4,3.5,3.5,0,0,1,3.679-3.353q9.759-.031,19.517,0a3.477,3.477,0,0,1,3.657,3.37,3.432,3.432,0,0,1-3.728,3.38q-1.99.009-3.979.008Q-569.83-1338.609-572.72-1338.613Zm-10.579-23.536c1.294-.908,2.356-1.656,3.421-2.4q2.511-1.754,5.026-3.5a3.455,3.455,0,0,1,4.162-.142c2.852,1.922,5.652,3.922,8.694,6.044Z" transform="translate(622.627 1371.824)" stroke="rgba(0,0,0,0)" stroke-miterlimit="10" stroke-width="1"/>
</svg>
