<svg xmlns="http://www.w3.org/2000/svg" width="32" height="32" viewBox="0 0 32 32">
  <g id="icon_locked" transform="translate(-7992 -8677)">
    <rect id="Rectangle_12006" data-name="Rectangle 12006" width="32" height="32" transform="translate(7992 8677)" fill="none"/>
    <path id="lock_open_" d="M162.667-892a2.568,2.568,0,0,1-1.883-.783,2.568,2.568,0,0,1-.783-1.883V-908a2.568,2.568,0,0,1,.783-1.883,2.568,2.568,0,0,1,1.883-.783h12v-2.667a3.858,3.858,0,0,0-1.167-2.833,3.857,3.857,0,0,0-2.833-1.167,3.778,3.778,0,0,0-2.45.85,4.156,4.156,0,0,0-1.417,2.117,1.326,1.326,0,0,1-.55.75,1.6,1.6,0,0,1-.917.283,1.321,1.321,0,0,1-.95-.367.892.892,0,0,1-.283-.867,6.269,6.269,0,0,1,2.217-3.85,6.479,6.479,0,0,1,4.35-1.583,6.425,6.425,0,0,1,4.717,1.95,6.425,6.425,0,0,1,1.95,4.717v2.667h1.333a2.568,2.568,0,0,1,1.883.783,2.568,2.568,0,0,1,.783,1.883v13.333a2.568,2.568,0,0,1-.783,1.883,2.568,2.568,0,0,1-1.883.783Zm8-6.667a2.568,2.568,0,0,0,1.883-.783,2.568,2.568,0,0,0,.783-1.883,2.568,2.568,0,0,0-.783-1.883,2.568,2.568,0,0,0-1.883-.783,2.568,2.568,0,0,0-1.883.783,2.568,2.568,0,0,0-.783,1.883,2.568,2.568,0,0,0,.783,1.883A2.568,2.568,0,0,0,170.667-898.667Z" transform="translate(7837 9599)"/>
  </g>
</svg>
