<svg id="icon_categories" xmlns="http://www.w3.org/2000/svg" width="100" height="118" viewBox="0 0 100 118">
  <rect id="shape" width="100" height="100" fill="none" />
  <path id="svg-fill-primary" d="M4.908,75.987a21,21,0,1,1,21,20.986A20.994,20.994,0,0,1,4.908,75.987ZM90.223,96h0ZM60.53,96a6.725,6.725,0,0,1-5.5-2.536,5.637,5.637,0,0,1-.788-5.3l.073-.21L69.352,58.951l.112-.162a6.73,6.73,0,0,1,6.376-2.73,5.365,5.365,0,0,1,4.44,3.219L94.97,87.615a5.323,5.323,0,0,1,.294,5.546A5.711,5.711,0,0,1,90.223,96ZM29.444,47q-2.276,0-4.552,0c-4.541,0-9.081.016-13.623-.005a5.981,5.981,0,0,1-6.19-4.474,6.448,6.448,0,0,1-.162-1.794C4.9,36.139,4.91,31.557,4.91,26.975h.017c0-4.841-.037-9.683.014-14.523a5.779,5.779,0,0,1,5.718-5.421q15.212-.055,30.415,0a5.86,5.86,0,0,1,5.814,5.361c.005.058.009.115.009.172,0,9.625.038,19.25-.022,28.875a5.737,5.737,0,0,1-5.821,5.522c-2.57.035-5.141.044-7.711.044Q31.393,47,29.444,47ZM62.95,43.973,54.472,29.024a4.032,4.032,0,0,1-.018-4.083l8.479-14.915A4.026,4.026,0,0,1,66.411,8h.013l17.006.061a4.075,4.075,0,0,1,3.46,2.029l8.455,14.867a4.032,4.032,0,0,1,.018,4.083L86.854,44.008a3.881,3.881,0,0,1-3.461,1.975L66.407,46A4.076,4.076,0,0,1,62.95,43.973Z" transform="translate(0.092 -0.001)" />
</svg>
