<svg id="icon_dial" xmlns="http://www.w3.org/2000/svg" width="20" height="20" viewBox="0 0 20 20">
  <path id="Path_50557" d="M10.667,16a1.667,1.667,0,1,0,1.667,1.667A1.672,1.672,0,0,0,10.667,16Zm-5-15A1.667,1.667,0,1,0,7.333,2.667,1.672,1.672,0,0,0,5.667,1Zm0,5A1.667,1.667,0,1,0,7.333,7.667,1.672,1.672,0,0,0,5.667,6Zm0,5a1.667,1.667,0,1,0,1.667,1.667A1.672,1.672,0,0,0,5.667,11Zm10-6.667A1.667,1.667,0,1,0,14,2.667,1.672,1.672,0,0,0,15.667,4.333Zm-5,6.667a1.667,1.667,0,1,0,1.667,1.667A1.672,1.672,0,0,0,10.667,11Zm5,0a1.667,1.667,0,1,0,1.667,1.667A1.672,1.672,0,0,0,15.667,11Zm0-5a1.667,1.667,0,1,0,1.667,1.667A1.672,1.672,0,0,0,15.667,6Zm-5,0a1.667,1.667,0,1,0,1.667,1.667A1.672,1.672,0,0,0,10.667,6Zm0-5a1.667,1.667,0,1,0,1.667,1.667A1.672,1.672,0,0,0,10.667,1Z" transform="translate(-0.667 -0.167)" />
</svg>
