<svg id="icon_apk_extension_light" xmlns="http://www.w3.org/2000/svg" width="100" height="100" viewBox="0 0 100 100">
  <rect id="shape" width="100" height="100" fill="none"/>
  <g id="ps" transform="translate(13.006)">
    <path id="background" d="M12.881.61H45.963L74,30.145V87.591A12.937,12.937,0,0,1,61.143,100.61H12.881A12.942,12.942,0,0,1,0,87.591V13.629A12.942,12.942,0,0,1,12.881.61Z" transform="translate(0 -0.61)" fill="#e8e8e8" fill-rule="evenodd"/>
    <path id="fold" d="M237.139.61V29.92H265.2Z" transform="translate(-191.201 -0.61)" fill="#092f41" fill-rule="evenodd" opacity="0.3"/>
    <path id="icon" d="M79.956,291.317l-1.18-3.728H72.759l-1.18,3.728H66.743l6.8-19.657h4.4l6.8,19.657Zm-5.859-7.88h3.342l-1.691-5.211Zm12.112,7.88V271.66h7.786a6.189,6.189,0,0,1,4.562,1.737,6.914,6.914,0,0,1,0,9.15,6.162,6.162,0,0,1-4.562,1.695H90.887v7.075Zm4.679-11.353h2.6a2.412,2.412,0,0,0,1.612-.508,2.058,2.058,0,0,0,.551-1.483,1.989,1.989,0,0,0-.551-1.483,2.229,2.229,0,0,0-1.612-.551h-2.6v4.024ZM113.3,291.317l-4.876-8.091L106.892,285v6.312h-4.679V271.66h4.679v6.651l5.663-6.651h6.056l-6.921,7.922,7.471,11.735Z" transform="translate(-55.714 -207.488)" fill="#092f41"/>
  </g>
</svg>
