<svg xmlns="http://www.w3.org/2000/svg" width="100" height="100" viewBox="0 0 100 100">
  <g id="icon_attribute_values" transform="translate(-3980 -8628)">
    <rect id="shapes" width="100" height="100" transform="translate(3980 8628)" fill="none"/>
    <path id="attribute_values" d="M199.13-766a38.034,38.034,0,0,1-27.7-11.25A36.837,36.837,0,0,1,160-804.519a36.6,36.6,0,0,1,3.057-14.98,40.309,40.309,0,0,1,8.437-12.289l22.5-22.133a8.5,8.5,0,0,1,2.446-1.529,7.058,7.058,0,0,1,2.69-.55,7.058,7.058,0,0,1,2.69.55,8.5,8.5,0,0,1,2.446,1.529l22.5,22.133A40.308,40.308,0,0,1,235.2-819.5a36.6,36.6,0,0,1,3.057,14.98,36.837,36.837,0,0,1-11.433,27.269A38.034,38.034,0,0,1,199.13-766Zm0-9.783v-69.457L178.342-824.7a26.575,26.575,0,0,0-6.42,9.171,28.325,28.325,0,0,0-2.14,11.005,27.478,27.478,0,0,0,8.56,20.3A28.511,28.511,0,0,0,199.13-775.783Z" transform="translate(3831.236 9489)"/>
  </g>
</svg>
