<svg id="icon_help" xmlns="http://www.w3.org/2000/svg" width="100" height="100" viewBox="0 0 100 100">
  <rect id="shape" width="100" height="100" fill="none"/>
  <path id="icon_help-2" data-name="icon_help" d="M2042.687,6122.1c0-.6.028-1.051,0-1.5-.331-4.576,1.546-8.2,4.9-11.077,2.257-1.934,4.647-3.722,7.047-5.476,10.538-7.717,11.281-26.134-1.167-34.3a29.916,29.916,0,0,0-14.516-4.6c-9.432-.716-17.829,1.442-24.112,9.1-4.261,5.2-5.885,11.364-6.168,18h16.015c.266-1.809.425-3.53.778-5.205,1.185-5.665,4.957-8.982,10.34-9.056,2.827-.039,5.538.432,7.468,2.855a11.448,11.448,0,0,1-.414,14.064,50.333,50.333,0,0,1-6.33,5.607c-7.047,5.512-9.257,12.9-8.519,21.6Zm-6.871,24.906a8.333,8.333,0,1,0-8.513-8.058A8.357,8.357,0,0,0,2035.816,6147.006Z" transform="translate(-1985.664 -6056.011)"/>
</svg>
