<svg id="icon_zoom-out" xmlns="http://www.w3.org/2000/svg" width="100" height="100" viewBox="0 0 100 100">
  <rect id="shape" width="100" height="100" fill="none"/>
  <g id="zoom_out" data-name="zoom out" transform="translate(-2425.979 -653.164)">
    <path id="search" d="M1997.246,5581.842q-8.92,8.931-17.849,17.859a10.607,10.607,0,0,1-.833.763,3.466,3.466,0,0,1-4.563-.347c-1.464-1.543-1.369-3.53.263-5.158q8.952-8.967,17.908-17.92c.228-.218.5-.4.74-.584a28.143,28.143,0,1,1,4.818,4.8A7.373,7.373,0,0,1,1997.246,5581.842Zm17.63-43.657a21,21,0,1,0,21.1,20.9A20.95,20.95,0,0,0,2014.876,5538.185Z" transform="translate(468.011 -4862.76)" fill="#181818"/>
    <path id="plus" d="M23.942,2a2,2,0,0,1-2,2H2A2,2,0,0,1,2,0h19.95A2,2,0,0,1,23.942,2Z" transform="translate(2470.708 695.333)" fill="#181818"/>
  </g>
</svg>
