<svg id="icon_5" xmlns="http://www.w3.org/2000/svg" width="100" height="100" viewBox="0 0 100 100">
  <rect id="shape" width="100" height="100" fill="none"/>
  <path id="AXIS" d="M-608.625-3379.742h-66a13.907,13.907,0,0,1-9.9-4.1,13.909,13.909,0,0,1-4.1-9.9v-66a13.908,13.908,0,0,1,4.1-9.9,13.908,13.908,0,0,1,9.9-4.1h66a13.908,13.908,0,0,1,9.9,4.1,13.908,13.908,0,0,1,4.1,9.9v66a13.909,13.909,0,0,1-4.1,9.9A13.907,13.907,0,0,1-608.625-3379.742Zm-46.5-38.846h0l-.057.169c-.094,3.683,1.026,6.513,3.328,8.411a13.293,13.293,0,0,0,8.708,2.86c4.228,0,7.491-1.267,9.7-3.766s3.328-5.854,3.328-9.969c0-4.228-1.1-7.639-3.271-10.138a11.091,11.091,0,0,0-8.795-3.712h-.168a10.784,10.784,0,0,0-3.7.694,12.329,12.329,0,0,0-2.874,1.6l1.331-11.583h12.319l.538,3.2h4.191v-8.157h-21.778l-2.38,22.629,4.645.482a5.646,5.646,0,0,1,2.166-3.03,8.87,8.87,0,0,1,4.772-.992,6.544,6.544,0,0,1,5.452,2.535,10.377,10.377,0,0,1,1.968,6.528,10.832,10.832,0,0,1-1.955,6.825,6.608,6.608,0,0,1-5.494,2.492,6.934,6.934,0,0,1-5-1.869,6.924,6.924,0,0,1-1.94-5.21Z" transform="translate(691.625 3476.741)" fill="#010101"/>
</svg>
