<svg id="icon_compressed_extensions" xmlns="http://www.w3.org/2000/svg" width="100" height="100" viewBox="0 0 100 100">
  <rect id="shape" width="100" height="100" fill="none"/>
  <g id="ps" transform="translate(13.006)">
    <path id="Path_19936" data-name="Path 19936" d="M12.881.61H45.963L74,30.145V87.591A12.937,12.937,0,0,1,61.143,100.61H12.881A12.942,12.942,0,0,1,0,87.591V13.629A12.942,12.942,0,0,1,12.881.61Z" transform="translate(0 -0.61)" fill="#ffb536" fill-rule="evenodd"/>
    <path id="Path_19937" data-name="Path 19937" d="M237.139.61V29.92H265.2Z" transform="translate(-191.201 -0.61)" fill="rgba(255,255,255,0.3)" fill-rule="evenodd"/>
    <path id="Path_19989" data-name="Path 19989" d="M88.984,61.713V57.958a.722.722,0,0,0-.727-.727h-2.03a.722.722,0,0,0-.727.727v3.755l-1.133,3.315a3.039,3.039,0,1,0,5.751,0l-1.133-3.315Zm-.474,5.209a1.622,1.622,0,0,1-2.554,0,1.573,1.573,0,0,1-.2-1.421l.372-1.116h2.216L88.73,65.5a1.579,1.579,0,0,1-.22,1.421ZM82.743,37.07v2.063a.722.722,0,0,0,.727.727h2.757v3.078H83.47a.722.722,0,0,0-.727.727v1.59A.736.736,0,0,0,83.47,46h2.757v3.061H83.47a.722.722,0,0,0-.727.727V51.4a.722.722,0,0,0,.727.727h2.757v2.334a.736.736,0,0,0,.744.727h4.042a.733.733,0,0,0,.727-.727V52.85a.744.744,0,0,0-.727-.727H88.24V49.061h2.774a.733.733,0,0,0,.727-.727V46.727A.733.733,0,0,0,91.014,46H88.24V42.939h2.774a.748.748,0,0,0,.727-.744V40.6a.748.748,0,0,0-.727-.744H88.24V37.053Z" transform="translate(-64.749 -17.053)" fill="#fff"/>
  </g>
</svg>
