<svg id="icon_superscript" xmlns="http://www.w3.org/2000/svg" width="24" height="24" viewBox="0 0 24 24">
  <rect id="shape" width="24" height="24" fill="none"/>
  <path id="svg-fill-primary" d="M10.51,12.73,7.3,7.72A1.112,1.112,0,0,1,8.23,6h0a1.12,1.12,0,0,1,.95.53l2.76,4.46h.12L14.8,6.54A1.1,1.1,0,0,1,15.75,6h0a1.117,1.117,0,0,1,.94,1.72l-3.23,5,3.55,5.55A1.116,1.116,0,0,1,16.08,20h0a1.147,1.147,0,0,1-.95-.52l-3.07-4.89h-.12L8.87,19.48a1.134,1.134,0,0,1-.95.52h0a1.116,1.116,0,0,1-.94-1.72ZM23,8.5h0a.5.5,0,0,0-.5-.5H20V7h2a1,1,0,0,0,1-1V5a1,1,0,0,0-1-1H19.5a.5.5,0,0,0-.5.5h0a.5.5,0,0,0,.5.5H22V6H20a1,1,0,0,0-1,1V8a1,1,0,0,0,1,1h2.5A.5.5,0,0,0,23,8.5Z"/>
</svg>
