<svg id="icon_q" xmlns="http://www.w3.org/2000/svg" width="100" height="100" viewBox="0 0 100 100">
  <rect id="shape" width="100" height="100" fill="none"/>
  <path id="AXIS" d="M-608.625-3379.742h-66a13.907,13.907,0,0,1-9.9-4.1,13.909,13.909,0,0,1-4.1-9.9v-66a13.908,13.908,0,0,1,4.1-9.9,13.908,13.908,0,0,1,9.9-4.1h66a13.908,13.908,0,0,1,9.9,4.1,13.908,13.908,0,0,1,4.1,9.9v66a13.909,13.909,0,0,1-4.1,9.9A13.907,13.907,0,0,1-608.625-3379.742Zm-28.308-28.368h0l9.373,6.684,3.823-3.4-8.354-5.891a18.613,18.613,0,0,0,5.693-7.306,24.264,24.264,0,0,0,2.039-10.025v-.595a22.138,22.138,0,0,0-5.169-14.954,16.939,16.939,0,0,0-13.381-5.975,16.163,16.163,0,0,0-12.971,5.975c-3.307,3.965-4.984,9-4.984,14.954v.595c0,5.976,1.677,11.007,4.984,14.952a16.192,16.192,0,0,0,12.971,5.947,18.307,18.307,0,0,0,3.059-.255,21.305,21.305,0,0,0,2.916-.708Zm-5.976-3.6a11.529,11.529,0,0,1-5.193-1.136,10.738,10.738,0,0,1-3.912-3.409c-2.171-3.017-3.271-6.985-3.271-11.8v-.652c0-4.754,1.1-8.7,3.271-11.725a10.75,10.75,0,0,1,3.912-3.419,11.494,11.494,0,0,1,5.193-1.14,12.513,12.513,0,0,1,5.427,1.136,11.184,11.184,0,0,1,4.1,3.409c2.283,3.016,3.441,6.965,3.441,11.739v.652c0,4.83-1.143,8.8-3.4,11.809a10.968,10.968,0,0,1-4.092,3.4A12.721,12.721,0,0,1-642.909-3411.707Z" transform="translate(691.625 3476.741)" fill="#010101"/>
</svg>
