<svg id="icon_noimage" xmlns="http://www.w3.org/2000/svg" width="100" height="100" viewBox="0 0 100 100">
  <rect id="shape" width="100" height="100" fill="none"/>
  <path id="empty" d="M229.189-3118.578a11.437,11.437,0,0,1-11.142-9.086,11.456,11.456,0,0,1-.259-2.377c-.031-3.689-.016-7.379-.016-11.064,0-.129.021-.252.036-.434h11.416c.01.283.036.559.036.832,0,2.48-.005,4.953,0,7.432a2.9,2.9,0,0,0,3.162,3.189c2.474.016,4.953,0,7.426,0h.875v11.467c-.176.016-.321.047-.466.047-2.271,0-4.541.018-6.812.018Q231.318-3118.551,229.189-3118.578Zm57.609.01v-11.467c.269-.016.543-.047.813-.047,2.448,0,4.9.006,7.349,0a2.97,2.97,0,0,0,3.312-3.293c.01-2.428,0-4.848,0-7.275v-.885h11.468v.709c0,3.533.016,7.068-.005,10.6a11.533,11.533,0,0,1-11.7,11.658q-1.858.009-3.718.008C291.833-3118.561,289.337-3118.568,286.8-3118.568Zm-34.523-.051v-11.406h22.91v11.406Zm46.027-34.5v-22.848h11.385v22.848Zm-80.478-.016v-22.832H229.23v22.832Zm80.447-34.445v-.832c0-2.4.005-4.8,0-7.2-.005-2.324-1.1-3.432-3.41-3.437h-8.037V-3210.4c4.368,0,8.642-.26,12.87.063a11.043,11.043,0,0,1,9.978,10.516c.171,3.994.052,7.994.057,12a.924.924,0,0,1-.072.252Zm-80.447-.016a5.37,5.37,0,0,1-.052-.58c0-3.561-.021-7.125.005-10.686a11.454,11.454,0,0,1,9.072-11.391,11.931,11.931,0,0,1,2.453-.27c3.643-.025,7.281-.01,10.919-.01.15,0,.305.021.5.037v11.451h-.859c-2.479,0-4.958-.01-7.432,0a2.9,2.9,0,0,0-3.172,3.189c-.005,2.73,0,5.465,0,8.258Zm34.451-11.5v-11.41H275.2v11.41Z" transform="translate(-213.764 3214.534)"/>
</svg>
