<svg id="icon_b" xmlns="http://www.w3.org/2000/svg" width="100" height="100" viewBox="0 0 100 100">
  <rect id="shape" width="100" height="100" fill="none"/>
  <path id="AXIS" d="M-608.625-3379.742h-66a13.907,13.907,0,0,1-9.9-4.1,13.909,13.909,0,0,1-4.1-9.9v-66a13.908,13.908,0,0,1,4.1-9.9,13.908,13.908,0,0,1,9.9-4.1h66a13.908,13.908,0,0,1,9.9,4.1,13.908,13.908,0,0,1,4.1,9.9v66a13.909,13.909,0,0,1-4.1,9.9A13.907,13.907,0,0,1-608.625-3379.742Zm-49.99-69.234v3.6l4.616.793v32.484l-4.616.793v3.567h19.824c4.172,0,7.526-1.005,9.969-2.987s3.682-4.894,3.682-8.653a10.812,10.812,0,0,0-2.152-6.655,9.621,9.621,0,0,0-5.863-3.654,10.342,10.342,0,0,0,4.6-3.214,7.664,7.664,0,0,0,1.742-4.914c0-3.7-1.225-6.518-3.64-8.368s-5.813-2.79-10.1-2.79h-18.068Zm19.824,36.874h-9.629v-14.982h10.479a6.778,6.778,0,0,1,5.423,2.068,8.508,8.508,0,0,1,1.77,5.691,6.812,6.812,0,0,1-2.111,5.339A8.641,8.641,0,0,1-638.79-3412.1Zm-.311-19.343h-9.318v-13.141h7.873a9.634,9.634,0,0,1,6.061,1.657,6.009,6.009,0,0,1,2.1,5,6.081,6.081,0,0,1-1.856,4.7A7.259,7.259,0,0,1-639.1-3431.445Z" transform="translate(691.625 3476.741)" fill="#010101"/>
</svg>
