<svg id="icon_universal" data-name="language_black_24dp (2)" xmlns="http://www.w3.org/2000/svg" width="16" height="16" viewBox="0 0 16 16">
  <path id="Path_21887" data-name="Path 21887" d="M0,0H16V16H0Z" fill="none" />
  <path id="Path_21888" data-name="Path 21888" d="M8.66,2a6.667,6.667,0,1,0,6.673,6.667A6.663,6.663,0,0,0,8.66,2Zm4.62,4H11.313a10.433,10.433,0,0,0-.92-2.373A5.353,5.353,0,0,1,13.28,6ZM8.667,3.36A9.391,9.391,0,0,1,9.94,6H7.393A9.391,9.391,0,0,1,8.667,3.36ZM3.507,10a5.215,5.215,0,0,1,0-2.667H5.76a11.01,11.01,0,0,0-.093,1.333A11.01,11.01,0,0,0,5.76,10Zm.547,1.333H6.02a10.433,10.433,0,0,0,.92,2.373A5.325,5.325,0,0,1,4.053,11.333ZM6.02,6H4.053A5.325,5.325,0,0,1,6.94,3.627,10.433,10.433,0,0,0,6.02,6Zm2.647,7.973a9.391,9.391,0,0,1-1.273-2.64H9.94A9.391,9.391,0,0,1,8.667,13.973ZM10.227,10H7.107A9.809,9.809,0,0,1,7,8.667a9.723,9.723,0,0,1,.107-1.333h3.12a9.723,9.723,0,0,1,.107,1.333A9.808,9.808,0,0,1,10.227,10Zm.167,3.707a10.433,10.433,0,0,0,.92-2.373H13.28A5.353,5.353,0,0,1,10.393,13.707ZM11.573,10a11.01,11.01,0,0,0,.093-1.333,11.01,11.01,0,0,0-.093-1.333h2.253a5.215,5.215,0,0,1,0,2.667Z" transform="translate(-0.667 -0.667)" />
</svg>