<svg id="icon_multi_image" xmlns="http://www.w3.org/2000/svg" width="17" height="17" viewBox="0 0 17 17">
  <g id="multi-image" transform="translate(0.5 0.5)">
    <path id="shape-2" data-name="shape" d="M1.451,16A1.456,1.456,0,0,1,0,14.549V4.388A1.456,1.456,0,0,1,1.451,2.936h.236v8.679a2.711,2.711,0,0,0,2.7,2.7h8.676v.236A1.456,1.456,0,0,1,11.612,16Zm2.936-2.936a1.456,1.456,0,0,1-1.451-1.451V1.452A1.456,1.456,0,0,1,4.388,0H14.549A1.456,1.456,0,0,1,16,1.452V11.612a1.456,1.456,0,0,1-1.451,1.451Zm0-2.177H14.549L11.283,6.532,8.742,9.805,6.928,7.62ZM6.941,9.638l.019-.025.021.025Z" transform="translate(0)" stroke="rgba(0,0,0,0)" stroke-width="1" />
  </g>
</svg>
