<svg id="icon-star" xmlns="http://www.w3.org/2000/svg" width="24" height="24" viewBox="0 0 24 24">
  <rect id="shape" width="24" height="24" fill="none"/>
  <path id="star_FILL0_wght300_GRAD0_opsz24" d="M178.186-725.167l4.095-2.47,4.095,2.5-1.072-4.68,3.607-3.12-4.745-.422-1.885-4.42-1.885,4.387-4.745.422,3.607,3.152Zm4.095-.178-5.057,3.05a.936.936,0,0,1-.566.139,1.029,1.029,0,0,1-.514-.191,1.092,1.092,0,0,1-.355-.431.842.842,0,0,1-.04-.589l1.342-5.742-4.465-3.865a.958.958,0,0,1-.319-.5.912.912,0,0,1,.036-.556,1.1,1.1,0,0,1,.3-.441,1.049,1.049,0,0,1,.54-.224l5.892-.515,2.287-5.422a.884.884,0,0,1,.379-.447,1.065,1.065,0,0,1,.536-.145,1.065,1.065,0,0,1,.536.145.884.884,0,0,1,.379.447l2.287,5.422,5.892.515a1.049,1.049,0,0,1,.54.224,1.1,1.1,0,0,1,.3.441.912.912,0,0,1,.036.556.958.958,0,0,1-.319.5l-4.465,3.865,1.342,5.742a.842.842,0,0,1-.04.589,1.091,1.091,0,0,1-.355.431,1.028,1.028,0,0,1-.514.191.936.936,0,0,1-.566-.139ZM182.281-731.114Z" transform="translate(-170.281 743.229)"/>
</svg>
