<svg id="icon_subscript" xmlns="http://www.w3.org/2000/svg" width="24" height="24" viewBox="0 0 24 24">
  <rect id="shape" width="24" height="24" fill="none"/>
  <path id="svg-fill-primary" d="M10.52,10.73,7.3,5.72A1.112,1.112,0,0,1,8.23,4h0a1.12,1.12,0,0,1,.95.53l2.76,4.46h.12L14.8,4.54A1.124,1.124,0,0,1,15.76,4h0a1.117,1.117,0,0,1,.94,1.72l-3.23,5,3.55,5.55A1.123,1.123,0,0,1,16.08,18h0a1.147,1.147,0,0,1-.95-.52l-3.07-4.89h-.12L8.87,17.48a1.121,1.121,0,0,1-.95.52h0a1.116,1.116,0,0,1-.94-1.72ZM23,19.5h0a.5.5,0,0,0-.5-.5H20V18h2a1,1,0,0,0,1-1V16a1,1,0,0,0-1-1H19.5a.5.5,0,0,0-.5.5h0a.5.5,0,0,0,.5.5H22v1H20a1,1,0,0,0-1,1v1a1,1,0,0,0,1,1h2.5A.5.5,0,0,0,23,19.5Z"/>
</svg>
