<svg id="icon_special1" xmlns="http://www.w3.org/2000/svg" width="24" height="24" viewBox="0 0 24 24">
  <rect id="shape" width="24" height="24" fill="none"/>
  <path id="Path_24494" data-name="Path 24494" d="M17578.051,18854a2.055,2.055,0,0,1-2.047-1.969c0-.021-.006-.049-.006-.076l.006-.059a31.278,31.278,0,0,1,.281-4.109,16.106,16.106,0,0,1,1.613-5.205l.018-.031a9.388,9.388,0,0,1,3.219-3.375,8.311,8.311,0,0,1,1.918-.879,6.786,6.786,0,0,1,1.9-.3h.082a6.679,6.679,0,0,1,1.908.3,8.229,8.229,0,0,1,1.91.871,9.36,9.36,0,0,1,3.223,3.379l.018.031a16.128,16.128,0,0,1,1.617,5.205,32.992,32.992,0,0,1,.283,4.105v.066a.413.413,0,0,1,0,.072,2.053,2.053,0,0,1-2.045,1.969Zm5.566-13.881a6.349,6.349,0,0,0-1.471.666,7.482,7.482,0,0,0-2.549,2.674,14.13,14.13,0,0,0-1.42,4.576,30.066,30.066,0,0,0-.266,3.871v.063a.143.143,0,0,0,.139.129h13.9a.142.142,0,0,0,.135-.125v-.066a29.7,29.7,0,0,0-.266-3.871,14.264,14.264,0,0,0-1.414-4.576,7.536,7.536,0,0,0-2.561-2.676,6.165,6.165,0,0,0-1.465-.664,4.863,4.863,0,0,0-1.377-.219h-.008A5.033,5.033,0,0,0,17583.617,18840.121Z" transform="translate(-17572.998 -18834.002)"/>
</svg>
