<svg id="icon_enframe" xmlns="http://www.w3.org/2000/svg" width="100" height="100" viewBox="0 0 100 100">
  <rect id="shape" width="100" height="100" fill="none"/>
  <g id="recenter" transform="translate(-224.258 -618.633)">
    <path id="right_down" data-name="right down" d="M321.575,687.326a5.187,5.187,0,0,0-5.146,5.16v15.642a2.6,2.6,0,0,1-2.594,2.6H298.4a5.353,5.353,0,0,0-5.366,4.295,5.165,5.165,0,0,0,5.09,6.029h23.389a5.188,5.188,0,0,0,5.159-5.16v-23.4a5.05,5.05,0,0,0-4.938-5.159C321.682,687.326,321.628,687.325,321.575,687.326Z" transform="translate(-12.416 -12.413)"/>
    <path id="left_down" data-name="left down" d="M262.634,710.722H247.277a2.6,2.6,0,0,1-2.594-2.6V692.762a5.353,5.353,0,0,0-4.294-5.367,5.163,5.163,0,0,0-6.026,5.091v23.4a5.187,5.187,0,0,0,5.158,5.163h23.389A5.165,5.165,0,0,0,268,715.017,5.352,5.352,0,0,0,262.634,710.722Z" transform="translate(-0.019 -12.413)"/>
    <path id="left_up" data-name="left up" d="M262.894,628.633H239.4a5.186,5.186,0,0,0-5.146,5.16v23.179a5.285,5.285,0,0,0,3.478,5.114,5.178,5.178,0,0,0,6.842-4.9V641.637a2.6,2.6,0,0,1,2.594-2.6h15.637a5.206,5.206,0,0,0,.085-10.409Z"/>
    <path id="rght_up" data-name="rght up" d="M321.566,628.633H298.352a5.352,5.352,0,0,0-5.365,4.295,5.164,5.164,0,0,0,5.089,6.028h15.637a2.594,2.594,0,0,1,2.593,2.6v15.365a5.354,5.354,0,0,0,4.294,5.367,5.164,5.164,0,0,0,6.027-5.09v-23.4a5.05,5.05,0,0,0-4.938-5.159Z" transform="translate(-12.407)"/>
    <path id="svg-fill-primary" d="M-337.787-10388.8l-13.135-3.139a1.325,1.325,0,0,1-.621-.349,1.315,1.315,0,0,1-.008-1.873l1.994-1.976a1.32,1.32,0,0,0,0-1.874c-4.1-4.059-6.957-7.082-9.9-10.143s.293-6.967,3.288-4.108,6.886,6.372,10.646,10.1a1.344,1.344,0,0,0,1.889,0l2-1.983a1.334,1.334,0,0,1,.626-.352,1.332,1.332,0,0,1,1.609.967l3.231,13.106a1.322,1.322,0,0,1,0,.624,1.349,1.349,0,0,1-1.316,1.038A1.336,1.336,0,0,1-337.787-10388.8Zm-48.956-36.868a14.7,14.7,0,0,1,14.694-14.694,14.7,14.7,0,0,1,14.694,14.694,14.694,14.694,0,0,1-14.694,14.693A14.694,14.694,0,0,1-386.742-10425.673Z" transform="translate(635.771 11083.776)" stroke="rgba(0,0,0,0)" stroke-width="1"/>
  </g>
</svg>
