<svg id="icon_circle" xmlns="http://www.w3.org/2000/svg" width="100" height="100" viewBox="0 0 100 100">
  <rect id="shape" width="100" height="100" fill="none"/>
  <path id="shape-2" data-name="shape" d="M335.3,287.945a41.691,41.691,0,0,1,41.645,41.64v4.4A41.692,41.692,0,0,1,335.3,375.629h-4.4a41.691,41.691,0,0,1-41.64-41.645v-4.4a41.69,41.69,0,0,1,41.64-41.64h4.4m0-5.158h-4.4a46.936,46.936,0,0,0-46.8,46.8v4.4a46.937,46.937,0,0,0,46.8,46.8h4.4a46.938,46.938,0,0,0,46.8-46.8v-4.4a46.937,46.937,0,0,0-46.8-46.8Z" transform="translate(-283.103 -281.294)" fill="#161615" opacity="0.98"/>
</svg>
