<svg id="icon_money" xmlns="http://www.w3.org/2000/svg" width="100" height="100" viewBox="0 0 100 100">
  <rect id="shape" width="100" height="100" fill="none"/>
  <path id="money" d="M-286.935-3760.177c0-3.257-.464-8.219.466-11.368,5.053,6.616,28.563,15.209,46.331,15.209s36.651-7.549,46.8-13.008c.638,2.386,0,5.9,0,9.167,0,10.419-20.958,18.863-46.8,18.863S-286.935-3749.759-286.935-3760.177Zm0-27.644c0-3.257-.464-8.22.466-11.367,5.053,6.613,28.563,15.206,46.331,15.206s36.651-7.547,46.8-13.006c.638,2.384,0,5.9,0,9.167,0,10.418-20.958,18.865-46.8,18.865S-286.935-3777.4-286.935-3787.822Zm0-28.627c0-10.418,20.954-18.865,46.8-18.865s46.8,8.447,46.8,18.865-20.954,18.867-46.8,18.867S-286.935-3806.029-286.935-3816.449Z" transform="translate(290.051 3838.314)" stroke="rgba(0,0,0,0)" stroke-miterlimit="10" stroke-width="1"/>
</svg>
