<svg id="icon_eye:closed" xmlns="http://www.w3.org/2000/svg" width="100" height="100" viewBox="0 0 100 100">
  <rect id="shape" width="100" height="100" fill="none"/>
  <path id="closed_eye" d="M83.871,330.514l-5.553-.95c-.723,2.449-1.423,4.915-2.184,7.361a21.525,21.525,0,0,1-1.539,4.276,6.017,6.017,0,0,1-7.986,2.477,6.125,6.125,0,0,1-3.176-7.478q1.4-4.927,2.932-9.817c.184-.593.058-.818-.469-1.057-1.3-.592-2.582-1.244-3.953-1.912-.169.264-.346.522-.5.791-1.242,2.124-2.416,4.291-3.735,6.366a6.166,6.166,0,0,1-10.2.463,5.99,5.99,0,0,1-.268-7.007c1.47-2.534,2.949-5.062,4.468-7.668-.419-.393-.852-.771-1.252-1.182-2.043-2.1-4.147-4.141-6.1-6.321a5.471,5.471,0,0,1,8.3-7.13,51.067,51.067,0,0,0,23.781,15.912A43.051,43.051,0,0,0,98.189,319a50.845,50.845,0,0,0,26.747-14.525c.887-.892,1.659-1.9,2.525-2.811a5.528,5.528,0,0,1,7.676-.5,5.455,5.455,0,0,1,.491,7.8c-2.286,2.546-4.705,4.972-7.159,7.547,1.188,2.029,2.485,4.211,3.746,6.414a14.565,14.565,0,0,1,1.289,2.584,6.035,6.035,0,0,1-3.2,7.358,6.2,6.2,0,0,1-7.737-2.045c-1.39-2.133-2.613-4.374-3.911-6.567-.162-.274-.332-.543-.521-.852l-4.623,2.257c.293,1.009.591,2.028.886,3.048.8,2.776,1.723,5.526,2.375,8.338a5.563,5.563,0,0,1-2.548,6.162,5.9,5.9,0,0,1-6.478.243,6.41,6.41,0,0,1-3.082-4.1c-.965-3.244-1.923-6.49-2.9-9.791l-5.557.947v.921c0,3.957.028,7.915-.008,11.872a6.161,6.161,0,0,1-8.29,5.885,5.962,5.962,0,0,1-3.992-5.292c-.075-4.1-.039-8.207-.05-12.31C83.87,331.242,83.871,330.894,83.871,330.514Z" transform="translate(-40.039 -254.655)"/>
</svg>
