<svg id="icon_text-italic" xmlns="http://www.w3.org/2000/svg" width="100" height="100" viewBox="0 0 100 100">
  <rect id="shape" width="100" height="100" fill="none"/>
  <path id="text" d="M94.648,4.84C93.21,3.053,90.743,2.7,89.143,2.7L22.9,2.556c-.072,0-2.713-.131-4.1.75a6.266,6.266,0,0,0-2.737,3.445,92.541,92.541,0,0,0-2.125,9.419,5.51,5.51,0,0,0,6.928,6.023,5.558,5.558,0,0,0,3.783-4.138c.417-1.639.628-2.913.978-4.527h23.64L36.133,86.278l-14.23,0a6.864,6.864,0,0,0-5.062,2.061,4.929,4.929,0,0,0-1.4,3.621c.012,1.578.576,4.892,6.463,4.894,3.6,0,33.123,0,37.975,0a7.52,7.52,0,0,0,2.13,0,5.988,5.988,0,0,0,3.68-2.654,5.053,5.053,0,0,0,0-4.22c-.462-1.333-1.354-3.494-4.963-3.494l-.478-.064c-2.243.014-10.921-.14-13.2-.143l13.131-72.76,23.782-.154c-.2,1.271-.262,1.594-.414,2.4-.615,3.285.745,6.112,3.732,6.811,2.888.677,5.713-1.27,6.476-4.528.489-2.09,1.7-7.644,1.7-7.644C95.8,8.872,96.079,6.618,94.648,4.84Z" transform="translate(-5.254 0.12)"/>
</svg>
