<svg xmlns="http://www.w3.org/2000/svg" width="22.001" height="22" viewBox="0 0 22.001 22">
  <g id="bottom_left" data-name="bottom left" transform="translate(0 7.998)">
    <path id="bottom_left-2" data-name="bottom left" d="M2,14l-.091,0H1.715a1.584,1.584,0,0,1-1.163-.53A1.589,1.589,0,0,1,0,12.288V2A1.874,1.874,0,0,1,1.715,0h.571A1.874,1.874,0,0,1,4,2v8h8a1.873,1.873,0,0,1,2,1.714v.572A1.874,1.874,0,0,1,12,14Z" fill="#d4d4d4"/>
    <rect id="shape" width="22" height="22" transform="translate(0.001 -7.998)" fill="none"/>
  </g>
</svg>
