<svg id="icon_cylinder" xmlns="http://www.w3.org/2000/svg" width="100" height="100" viewBox="0 0 100 100">
  <rect id="shape" width="100" height="100" fill="none"/>
  <g id="cylinder" transform="translate(-1845.156 -880.477)" style="mix-blend-mode: normal;isolation: isolate">
    <path id="Path_6258" data-name="Path 6258" d="M1940.11,900.378a31.66,31.66,0,0,0-4.521-9.38l-.017-.024-.016-.025a7.67,7.67,0,0,0-5.721-3.471h-69.349a7.585,7.585,0,0,0-5.683,3.46l-.019.028-.019.028a31.324,31.324,0,0,0-4.519,9.377,113.248,113.248,0,0,0-.008,60.2,31.353,31.353,0,0,0,4.52,9.381l.02.027.018.029a7.585,7.585,0,0,0,5.689,3.465h69.343a7.684,7.684,0,0,0,5.722-3.466l.016-.024.016-.024a31.644,31.644,0,0,0,4.521-9.381,114.3,114.3,0,0,0,.007-60.2Z" transform="translate(0 0)" fill="#484848"/>
    <path id="Path_6259" data-name="Path 6259" d="M1860.583,970.569l-.085.01h-.085c-1.657,0-3.207-.974-4.739-2.981l-.018-.024-.018-.025a28.723,28.723,0,0,1-4.021-8.4,109.359,109.359,0,0,1,0-57.438,28.724,28.724,0,0,1,4.022-8.4l.018-.025.018-.024c1.532-2.006,3.081-2.981,4.739-2.981h.085l.085.01a6.334,6.334,0,0,1,4.677,3.07,28.891,28.891,0,0,1,3.986,8.344,110.379,110.379,0,0,1,0,57.438,29.028,29.028,0,0,1-3.988,8.351A6.332,6.332,0,0,1,1860.583,970.569Z" transform="translate(0.014 0.045)" fill="#dedede"/>
    <path id="Path_6260" data-name="Path 6260" d="M1921.774,970.6h-56.1l1.3-2.182a35.966,35.966,0,0,0,3.5-7.879,114.285,114.285,0,0,0-.006-60.2,35.937,35.937,0,0,0-3.5-7.859l-1.3-2.181h2.528l53.569-.025h2.519l-1.29,2.178a35.974,35.974,0,0,0-3.466,7.879,113.321,113.321,0,0,0,0,60.206,35.9,35.9,0,0,0,3.468,7.892l1.289,2.177Z" transform="translate(0.169 0.045)" fill="#dedede"/>
    <path id="Path_6261" data-name="Path 6261" d="M1938.117,959.147a28.867,28.867,0,0,1-3.987,8.353,6.33,6.33,0,0,1-4.678,3.07l-.085.01h-.085c-1.657,0-3.206-.974-4.739-2.981l-.018-.024-.018-.025a28.724,28.724,0,0,1-4.02-8.4,109.359,109.359,0,0,1,0-57.438,28.725,28.725,0,0,1,4.021-8.4l.018-.025.018-.024c1.532-2.006,3.081-2.981,4.739-2.981h.085l.085.01a6.333,6.333,0,0,1,4.678,3.07,28.867,28.867,0,0,1,3.985,8.345,110.371,110.371,0,0,1,0,57.436Z" transform="translate(0.608 0.045)" fill="#dedede"/>
  </g>
</svg>
