<svg id="icon_import" xmlns="http://www.w3.org/2000/svg" width="100" height="100" viewBox="0 0 100 100">
  <rect id="shape" width="100" height="100" fill="none"/>
  <path id="export" d="M-557.108-877.169c-5.081-.016-8.88-2.3-11.052-6.921a11.082,11.082,0,0,1-1.018-4.446c-.1-8.078-.092-16.159-.032-24.237a11.583,11.583,0,0,1,11.4-11.364c6.312-.041,12.626-.034,18.939-.026q3.882,0,7.766.006,21.965,0,43.931,0a11.594,11.594,0,0,1,11.629,9.383,13.536,13.536,0,0,1,.273,2.78q.032,11.336.01,22.671a11.78,11.78,0,0,1-12.2,12.16q-17.391.01-34.781,0-10.019,0-20.037.008Q-549.694-877.15-557.108-877.169Zm67.833-11.73a2.084,2.084,0,0,0,2.27-2.265c.035-2.418.017-4.837.007-7.254a2.023,2.023,0,0,0-1.23-2.056,4.306,4.306,0,0,0-1.54-.173q-16.236-.013-32.473-.007h-32.308c-.3,0-.606-.011-.907.011a1.885,1.885,0,0,0-2.022,2.017q-.066,3.832,0,7.666a1.884,1.884,0,0,0,1.856,2.026,6.016,6.016,0,0,0,.9.035q32.473,0,64.946,0C-489.6-888.9-489.439-888.892-489.275-888.9Zm-34.993-42.525c-.1-.1-.188-.2-.284-.3q-6.26-6.557-12.52-13.113-3.415-3.576-6.833-7.15a1.965,1.965,0,0,1-.551-2.316,1.949,1.949,0,0,1,2.049-1.177c4.148.036,8.3.015,12.446.015,1.841,0,1.841,0,1.841-1.8q0-5.649,0-11.3c0-1.949.63-2.582,2.551-2.584,2.335,0,4.67-.011,7.007,0a1.941,1.941,0,0,1,2.152,1.9,7.04,7.04,0,0,1,.043.986q0,5.9,0,11.79v1h1.122c4.479,0,8.958.007,13.436-.007a1.7,1.7,0,0,1,1.649,1.009,1.8,1.8,0,0,1-.116,2.02,13.4,13.4,0,0,1-.984,1.106q-9.5,9.96-19,19.916a2.954,2.954,0,0,1-1.994,1.173A3.011,3.011,0,0,1-524.268-931.424Z" transform="translate(572.253 974.15)" stroke="rgba(0,0,0,0)" stroke-miterlimit="10" stroke-width="1"/>
</svg>
