<svg xmlns="http://www.w3.org/2000/svg" width="24" height="24" viewBox="0 0 24 24">
  <g id="icon_target_age" transform="translate(-0.082 -0.009)">
    <rect id="shape" width="24" height="24" transform="translate(0.082 0.009)" fill="none"/>
    <path id="svg-fill-primary" d="M15.26,9.6a1,1,0,0,1,.2-1.06h0a1,1,0,0,1,1.5.11,6,6,0,0,1-.92,7.78,12.46,12.46,0,0,0-2.45-.63,4,4,0,0,0,1.67-6.2Zm4.55-3.84A1,1,0,1,0,18.25,7a7.85,7.85,0,0,1,1.53,6.92,8.17,8.17,0,0,1-1.9,3.48,3.12,3.12,0,0,1,1.19,1.67,10.14,10.14,0,0,0,2.71-4.94,9.85,9.85,0,0,0-1.97-8.37ZM4,12a8,8,0,0,1,7-7.93v2A6,6,0,0,0,8,16.42a12.54,12.54,0,0,1,2.46-.63A4.08,4.08,0,0,1,12,8a4,4,0,0,1,1,.14V2.71A.71.71,0,0,0,12.29,2,10,10,0,0,0,4.94,19.12a3.1,3.1,0,0,1,1.17-1.7A8,8,0,0,1,4,12Zm4.94,0A3.08,3.08,0,1,0,12,9a3.08,3.08,0,0,0-3.06,3ZM12,16.64c-2,0-6.14,1-6.14,3.08v.76a.76.76,0,0,0,.77.77H17.39a.77.77,0,0,0,.77-.77v-.76C18.16,17.67,14.06,16.64,12,16.64Z"/>
  </g>
</svg>
