<svg id="icon_format-quote" xmlns="http://www.w3.org/2000/svg" width="42" height="42" viewBox="0 0 42 42">
  <rect id="Rectangle_11825" data-name="Rectangle 11825" width="42" height="42" fill="none"/>
  <path id="Path_50549" data-name="Path 50549" d="M-3891.529-3416.066a1.444,1.444,0,0,1,.441-2.076l5.619-3.509a6.757,6.757,0,0,0,3.269-5.72v-.012h-8.957a.622.622,0,0,1-.643-.6v-10.788a.622.622,0,0,1,.643-.6h11.515a.617.617,0,0,1,.642.6v11.4a9.716,9.716,0,0,1-4.693,8.215l-5.618,3.51a2,2,0,0,1-.984.279A1.438,1.438,0,0,1-3891.529-3416.066Zm-19.2-.006a1.466,1.466,0,0,1,.441-2.076l5.619-3.509a6.756,6.756,0,0,0,3.27-5.72v-.012h-8.958a.626.626,0,0,1-.642-.6v-10.788a.621.621,0,0,1,.642-.6h11.515a.617.617,0,0,1,.643.6v11.4a9.685,9.685,0,0,1-4.693,8.209l-5.619,3.51a2.116,2.116,0,0,1-1,.26A1.358,1.358,0,0,1-3910.729-3416.072Z" transform="translate(3916 3448.373)" fill="#181818" stroke="rgba(0,0,0,0)" stroke-width="1"/>
</svg>
