<svg id="icon_arrow_back" xmlns="http://www.w3.org/2000/svg" width="100" height="100" viewBox="0 0 100 100">
  <rect id="shape" width="100" height="100" fill="none"/>
  <g id="Group_3923" data-name="Group 3923" transform="translate(8.002 10.001)">
    <path id="Path_20291" data-name="Path 20291" d="M78.672,34.759H18.424L44.752,9.029a5.221,5.221,0,0,0,.029-7.46l-.029-.029a5.465,5.465,0,0,0-7.607,0L1.577,36.284a5.165,5.165,0,0,0-.051,7.381l.051.05L37.145,78.459a5.465,5.465,0,0,0,7.607,0,5.165,5.165,0,0,0,.051-7.381l-.051-.05L18.4,45.3H78.65a5.273,5.273,0,1,0,0-10.545Z" transform="translate(-0.002 -0.001)"/>
  </g>
</svg>
