<svg id="icon_play" xmlns="http://www.w3.org/2000/svg" width="100" height="100" viewBox="0 0 100 100">
  <rect id="shape" width="100" height="100" fill="none"/>
  <path id="play" d="M-4078.177-5637.211c0-12.467-.023-24.934.031-37.4a15.914,15.914,0,0,1,.691-4.569,5.947,5.947,0,0,1,8.214-3.843,59.915,59.915,0,0,1,6.292,3.389q30.786,17.651,61.55,35.338a17.454,17.454,0,0,1,3.025,2.171,6.029,6.029,0,0,1,.016,9.289,18.173,18.173,0,0,1-3.214,2.247q-18.026,10.386-36.079,20.724c-9.719,5.579-19.426,11.178-29.169,16.715a12.8,12.8,0,0,1-3.838,1.465c-3.747.713-6.69-1.458-7.3-5.238a17.02,17.02,0,0,1-.21-2.678Q-4078.188-5618.407-4078.177-5637.211Z" transform="translate(4087.182 5687.552)"/>
</svg>
