<svg xmlns="http://www.w3.org/2000/svg" width="16" height="15.994" viewBox="0 0 16 15.994">
  <path id="writebox" d="M18.184,13.169l1.4-1.4L16.247,8.44l-1.4,1.4-3.679-3.67a1.781,1.781,0,0,0-2.516,0L6.967,7.852a1.781,1.781,0,0,0,0,2.516l3.671,3.673-4.222,4.23V21.6H9.749l4.23-4.23L17.65,21.05a1.779,1.779,0,0,0,2.516,0l1.689-1.689a1.781,1.781,0,0,0,0-2.516Zm-6.275-.384L8.229,9.108l1.68-1.689h0l1.129,1.129L9.989,9.606l1.253,1.253L12.3,9.8l1.289,1.289Zm7,7.012-3.67-3.679,1.689-1.689,1.289,1.289-1.057,1.057,1.253,1.253,1.057-1.057L20.6,18.1ZM22.156,9.2a.886.886,0,0,0,0-1.252h0l-2.08-2.08a.9.9,0,0,0-1.253,0L17.2,7.491l3.333,3.333Z" transform="translate(-6.416 -5.61)" fill="#383838"/>
</svg>
