<svg id="icon_g" xmlns="http://www.w3.org/2000/svg" width="100" height="100" viewBox="0 0 100 100">
  <rect id="shape" width="100" height="100" fill="none"/>
  <path id="AXIS" d="M-608.625-3379.742h-66a13.907,13.907,0,0,1-9.9-4.1,13.909,13.909,0,0,1-4.1-9.9v-66a13.908,13.908,0,0,1,4.1-9.9,13.908,13.908,0,0,1,9.9-4.1h66a13.908,13.908,0,0,1,9.9,4.1,13.908,13.908,0,0,1,4.1,9.9v66a13.909,13.909,0,0,1-4.1,9.9A13.907,13.907,0,0,1-608.625-3379.742Zm-33.165-69.828c-5.695,0-10.32,1.944-13.749,5.777s-5.169,8.912-5.169,15.095v.679c0,6.145,1.758,11.213,5.225,15.066a17.393,17.393,0,0,0,13.495,5.806,21.632,21.632,0,0,0,9.2-1.685,18.266,18.266,0,0,0,5.352-3.583V-3427.2h-12.348v4.106l6.769.283v9.034a15.039,15.039,0,0,1-3.455,1.558,18.1,18.1,0,0,1-5.522.708,12.739,12.739,0,0,1-5.484-1.14,11.353,11.353,0,0,1-4.16-3.42c-2.321-3.026-3.5-7.047-3.5-11.951v-.736c0-4.829,1.215-8.816,3.611-11.852a11.49,11.49,0,0,1,4.379-3.43,14.513,14.513,0,0,1,5.916-1.143,13.546,13.546,0,0,1,4.715.736,11.86,11.86,0,0,1,3.356,1.869l1.359,5.692h3.909v-7.476a18,18,0,0,0-5.848-3.781A21.113,21.113,0,0,0-641.79-3449.571Z" transform="translate(691.625 3476.741)" fill="#010101"/>
</svg>
