<svg id="icon_help_round" xmlns="http://www.w3.org/2000/svg" width="100" height="100" viewBox="0 0 100 100">
  <rect id="shape" width="100" height="100" fill="none"/>
  <path id="helpcenter" d="M2026.5,6044a47.5,47.5,0,1,1-47.5,47.558A47.547,47.547,0,0,1,2026.5,6044Zm4.684,58.491c0-.394.019-.69,0-.988a8.389,8.389,0,0,1,3.241-7.272c1.494-1.269,3.075-2.443,4.664-3.595,6.974-5.066,7.465-17.157-.772-22.521a19.91,19.91,0,0,0-9.607-3.019c-6.242-.47-11.8.947-15.957,5.974-2.82,3.413-3.894,7.461-4.082,11.814h10.6c.176-1.187.281-2.318.515-3.417.784-3.719,3.28-5.9,6.843-5.945,1.871-.025,3.665.284,4.942,1.875a7.469,7.469,0,0,1-.274,9.233,33.21,33.21,0,0,1-4.189,3.682c-4.664,3.618-6.126,8.469-5.638,14.18Zm-4.547,16.352a5.471,5.471,0,1,0-5.634-5.29A5.5,5.5,0,0,0,2026.633,6118.842Z" transform="translate(-1976.002 -6041.998)"/>
</svg>
