<svg id="icon_2" xmlns="http://www.w3.org/2000/svg" width="100" height="100" viewBox="0 0 100 100">
  <rect id="shape" width="100" height="100" fill="none"/>
  <path id="AXIS" d="M-608.625-3379.742h-66a13.907,13.907,0,0,1-9.9-4.1,13.909,13.909,0,0,1-4.1-9.9v-66a13.908,13.908,0,0,1,4.1-9.9,13.908,13.908,0,0,1,9.9-4.1h66a13.908,13.908,0,0,1,9.9,4.1,13.908,13.908,0,0,1,4.1,9.9v66a13.909,13.909,0,0,1-4.1,9.9A13.907,13.907,0,0,1-608.625-3379.742Zm-34.156-65.439a6.028,6.028,0,0,1,4.786,2.11,7.735,7.735,0,0,1,1.813,5.2,10.163,10.163,0,0,1-1.289,4.871,38.09,38.09,0,0,1-4.914,6.429l-13.508,15.009v3.823h26.706v-9.09h-4.729l-.453,4.729h-14.642l-.057-.142,10.847-11.81a44.125,44.125,0,0,0,5.621-7.278,13.185,13.185,0,0,0,2-6.74,11.129,11.129,0,0,0-3.3-8.255,12.17,12.17,0,0,0-8.879-3.243c-4.323,0-7.748,1.219-10.181,3.624a11.673,11.673,0,0,0-3.526,8.95l.057.17h5.352a8.817,8.817,0,0,1,2.011-6.174C-647.733-3444.448-645.618-3445.181-642.781-3445.181Z" transform="translate(691.625 3476.741)" fill="#010101"/>
</svg>
