<svg id="icon_n" xmlns="http://www.w3.org/2000/svg" width="100" height="100" viewBox="0 0 100 100">
  <rect id="shape" width="100" height="100" fill="none"/>
  <path id="AXIS" d="M-608.625-3379.742h-66a13.907,13.907,0,0,1-9.9-4.1,13.909,13.909,0,0,1-4.1-9.9v-66a13.908,13.908,0,0,1,4.1-9.9,13.908,13.908,0,0,1,9.9-4.1h66a13.908,13.908,0,0,1,9.9,4.1,13.908,13.908,0,0,1,4.1,9.9v66a13.909,13.909,0,0,1-4.1,9.9A13.907,13.907,0,0,1-608.625-3379.742Zm-54.079-69.234v3.6l4.616.793v32.484l-4.616.793v3.567h14.811v-3.567l-4.616-.793v-27.415l.169-.055h0l19.824,31.831h5.579v-36.844l4.616-.793v-3.6h-14.811v3.6l4.616.793v27.357l-.17.057-19.824-31.8h-10.2Z" transform="translate(691.625 3476.741)" fill="#010101"/>
</svg>
