<svg xmlns="http://www.w3.org/2000/svg" width="24" height="24" viewBox="0 0 24 24">
  <g id="icon_move" transform="translate(-6 -7)">
    <rect id="Rectangle_2452" data-name="Rectangle 2452" width="24" height="24" transform="translate(6 6.999)" fill="none"/>
    <path id="shape" d="M16935.271,21115.7l-2.035-2.035a1.3,1.3,0,0,1,0-1.844,1.317,1.317,0,0,1,1.838,0l.928.916.938-.916a1.3,1.3,0,0,1,1.834,1.844l-2.035,2.035a1.042,1.042,0,0,1-.736.307A1.025,1.025,0,0,1,16935.271,21115.7Zm-6.932-6.922-2.035-2.035a1.032,1.032,0,0,1,0-1.467l2.035-2.035a1.3,1.3,0,1,1,1.844,1.834l-.918.932.918.934a1.3,1.3,0,0,1-.924,2.221A1.289,1.289,0,0,1,16928.34,21108.773Zm13.477-.01a1.312,1.312,0,0,1,0-1.834l.916-.928-.916-.932a1.3,1.3,0,0,1,1.844-1.844l2.035,2.033a1.034,1.034,0,0,1,0,1.469l-2.035,2.035a1.306,1.306,0,0,1-1.844,0Zm-4.887-8.58-.928-.916-.928.916a1.317,1.317,0,0,1-1.838,0,1.3,1.3,0,0,1,0-1.844l2.023-2.035a1.034,1.034,0,0,1,1.469,0l2.035,2.035a1.3,1.3,0,0,1-1.834,1.844Z" transform="translate(-16918 -21087)" fill="#787878"/>
    <path id="svg-fill-primary" d="M16933,21106a3,3,0,1,1,3,3A3,3,0,0,1,16933,21106Z" transform="translate(-16917.996 -21087)" fill="#efa106"/>
  </g>
</svg>
