<svg xmlns="http://www.w3.org/2000/svg" width="24" height="24" viewBox="0 0 24 24">
  <g id="icon_save_back" transform="translate(-1211 -206)">
    <path id="svg-primary" d="M20.41,6.42,17.59,3.59A2.006,2.006,0,0,0,16.17,3H5A2,2,0,0,0,3,5v9.1l3.579-3.579A2.758,2.758,0,0,1,8.542,9.7a2.8,2.8,0,0,1,2.692,2.038h3.213a2.789,2.789,0,0,1,2.786,2.785V19.24A2.754,2.754,0,0,1,16.589,21H19a2.006,2.006,0,0,0,2-2V7.83a1.966,1.966,0,0,0-.59-1.41M13,9H7A2,2,0,0,1,7,5h6a2,2,0,0,1,0,4M9,14V12.894a.788.788,0,0,0-1.345-.557l-4.105,4.1a.783.783,0,0,0,0,1.108l4.111,4.111A.784.784,0,0,0,9,21.106V20h5.214A.789.789,0,0,0,15,19.214V14.786A.789.789,0,0,0,14.214,14Z" transform="translate(1211 206)" fill="#787878"/>
    <rect id="shape" width="24" height="24" transform="translate(1211 206)" fill="none"/>
  </g>
</svg>
