<svg xmlns="http://www.w3.org/2000/svg" width="32" height="32" viewBox="0 0 32 32">
  <g id="icon_lock" transform="translate(-7992 -8677)">
    <rect id="Rectangle_12006" data-name="Rectangle 12006" width="32" height="32" transform="translate(7992 8677)" fill="none"/>
    <path id="lock" d="M162.667-892a2.568,2.568,0,0,1-1.883-.783,2.568,2.568,0,0,1-.783-1.883V-908a2.568,2.568,0,0,1,.783-1.883,2.568,2.568,0,0,1,1.883-.783H164v-2.667a6.425,6.425,0,0,1,1.95-4.717,6.425,6.425,0,0,1,4.717-1.95,6.425,6.425,0,0,1,4.717,1.95,6.425,6.425,0,0,1,1.95,4.717v2.667h1.333a2.568,2.568,0,0,1,1.883.783,2.568,2.568,0,0,1,.783,1.883v13.333a2.568,2.568,0,0,1-.783,1.883,2.568,2.568,0,0,1-1.883.783Zm8-6.667a2.568,2.568,0,0,0,1.883-.783,2.568,2.568,0,0,0,.783-1.883,2.568,2.568,0,0,0-.783-1.883,2.568,2.568,0,0,0-1.883-.783,2.568,2.568,0,0,0-1.883.783,2.568,2.568,0,0,0-.783,1.883,2.568,2.568,0,0,0,.783,1.883A2.568,2.568,0,0,0,170.667-898.667Zm-4-12h8v-2.667a3.857,3.857,0,0,0-1.167-2.833,3.857,3.857,0,0,0-2.833-1.167,3.857,3.857,0,0,0-2.833,1.167,3.857,3.857,0,0,0-1.167,2.833Z" transform="translate(7837 9599)"/>
  </g>
</svg>
