<svg xmlns="http://www.w3.org/2000/svg" width="98" height="76" viewBox="0 0 98 76">
  <g id="actionbar-right" transform="translate(0 0)">
    <g id="image">
      <g id="Computer">
        <path id="shape" d="M9.819,2H92.181A7.878,7.878,0,0,1,100,9.917l-.049,60.167A7.878,7.878,0,0,1,92.132,78H9.937a7.878,7.878,0,0,1-7.819-7.917L2,9.917A7.878,7.878,0,0,1,9.819,2ZM92.181,5.167H9.819a4.721,4.721,0,0,0-4.691,4.75L5.079,57.929H96.824l.049-48.012A4.721,4.721,0,0,0,92.181,5.167ZM9.937,74.833h82.2a4.721,4.721,0,0,0,4.691-4.75V61.1H5.079l.167,8.988A4.721,4.721,0,0,0,9.937,74.833Z" transform="translate(-2 -2)" fill="#fcfcfc"/>
        <path id="shape-2" data-name="shape" d="M33.832,41A4.837,4.837,0,1,1,29,45.837,4.834,4.834,0,0,1,33.832,41Zm0,6.449a1.612,1.612,0,1,0-1.611-1.612A1.612,1.612,0,0,0,33.832,47.449Z" transform="translate(14.092 20.156)" fill="#fcfcfc"/>
      </g>
      <path id="shape-3" data-name="shape" d="M79,0H3A3,3,0,0,0,0,3V45a3,3,0,0,0,3,3H79a1,1,0,0,0,1-1V1A1,1,0,0,0,79,0Z" transform="translate(5 5)" fill="#fcfcfc"/>
      <path id="shape-4" data-name="shape" d="M3,0H1A1,1,0,0,0,0,1V47a1,1,0,0,0,1,1H3a3,3,0,0,0,3-3V3A3,3,0,0,0,3,0Z" transform="translate(87 5)" fill="#fcfcfc"/>
    </g>
    <g id="image-2" data-name="image">
      <g id="Computer-2" data-name="Computer">
        <path id="shape-5" data-name="shape" d="M9.819,2H92.181A7.878,7.878,0,0,1,100,9.917l-.049,60.167A7.878,7.878,0,0,1,92.132,78H9.937a7.878,7.878,0,0,1-7.819-7.917L2,9.917A7.878,7.878,0,0,1,9.819,2ZM92.181,5.167H9.819a4.721,4.721,0,0,0-4.691,4.75L5.079,57.929H96.824l.049-48.012A4.721,4.721,0,0,0,92.181,5.167ZM9.937,74.833h82.2a4.721,4.721,0,0,0,4.691-4.75V61.1H5.079l.167,8.988A4.721,4.721,0,0,0,9.937,74.833Z" transform="translate(-2 -2)" fill="#58a7c8"/>
        <path id="shape-6" data-name="shape" d="M33.832,41A4.837,4.837,0,1,1,29,45.837,4.834,4.834,0,0,1,33.832,41Zm0,6.449a1.612,1.612,0,1,0-1.611-1.612A1.612,1.612,0,0,0,33.832,47.449Z" transform="translate(14.092 20.156)" fill="#58a7c8"/>
      </g>
      <path id="shape-7" data-name="shape" d="M79,0H3A3,3,0,0,0,0,3V45a3,3,0,0,0,3,3H79a1,1,0,0,0,1-1V1A1,1,0,0,0,79,0Z" transform="translate(5 5)" fill="#1080b0" opacity="0.5"/>
      <path id="shape-8" data-name="shape" d="M3,0H1A1,1,0,0,0,0,1V47a1,1,0,0,0,1,1H3a3,3,0,0,0,3-3V3A3,3,0,0,0,3,0Z" transform="translate(87 5)" fill="#1080b0"/>
    </g>
  </g>
</svg>
