<svg id="Group_5699" data-name="Group 5699" xmlns="http://www.w3.org/2000/svg" xmlns:xlink="http://www.w3.org/1999/xlink" width="245.832" height="151.328" viewBox="0 0 245.832 151.328">
  <defs>
    <clipPath id="clip-path">
      <rect id="Rectangle_1389" data-name="Rectangle 1389" width="3.65" height="5.541" fill="none"/>
    </clipPath>
    <clipPath id="clip-path-2">
      <rect id="Rectangle_1390" data-name="Rectangle 1390" width="2.607" height="3.958" fill="none"/>
    </clipPath>
    <clipPath id="clip-path-3">
      <rect id="Rectangle_1392" data-name="Rectangle 1392" width="2.58" height="4.703" fill="none"/>
    </clipPath>
    <clipPath id="clip-path-4">
      <rect id="Rectangle_1393" data-name="Rectangle 1393" width="4.762" height="4.713" fill="none"/>
    </clipPath>
    <clipPath id="clip-path-5">
      <rect id="Rectangle_1394" data-name="Rectangle 1394" width="3.401" height="3.367" fill="none"/>
    </clipPath>
    <clipPath id="clip-path-6">
      <rect id="Rectangle_1395" data-name="Rectangle 1395" width="3.935" height="6.895" fill="none"/>
    </clipPath>
  </defs>
  <path id="Path_20168" data-name="Path 20168" d="M50.584,119.592a25.432,25.432,0,0,1,5.466-1.149,23.267,23.267,0,0,1,13.261,2.675,1.453,1.453,0,0,0,.3.067c.145-1.229.073-2.45.177-3.661.174-2.03.152-4.077.235-6.116,0-.068,0-.13,0-.187h.82l0,.011a5.961,5.961,0,0,0-.046.973c.018.608-.385,7.679-.449,8.825a1.064,1.064,0,0,0,.592,1.077,22.629,22.629,0,0,1,6.348,6.02,25.539,25.539,0,0,1,3.157,6.078,8.769,8.769,0,0,1,4.346-5.549,8.406,8.406,0,0,1,2.7-.871c.432-.069.6-.2.256-.631a4.857,4.857,0,0,0-1.3-1.3c-.336-.213-.456-.231-.634-.438a1.614,1.614,0,0,1-.35-.751c.144-9.878.328-13.248.508-13.588a1.752,1.752,0,0,0,.3-.7c.038-.242,0-.423.134-.55a.5.5,0,0,1,.381-.11c1.176.023,2.21-.614,3.362.006.539.291.367.6,1.236,1.391a7.048,7.048,0,0,0,.767.608c.508-.076,1.078-.777,2.08-1.325,1.18-.645,2.893-1.021,3.943-.391,0,0,0-.011,0-.013s.049.019.1.076c.031.022.068.035.1.059.211.169.5.483.482.683.09.123.187.256.3.408q.323,5.364.647,10.728a9.7,9.7,0,0,1,5.69,1.288l.75-12.009c0-.012,0-.024,0-.036a.755.755,0,0,1,.213-.508.742.742,0,0,1,.521-.115c1.1.1,2.2-.093,3.3-.069a13.038,13.038,0,0,1,1.993.061,6.766,6.766,0,0,1,1.225.334.558.558,0,0,0-.218-.13A4.042,4.042,0,0,0,114,110.7c.344-.054.574-.221.633-.147.039.049-.034.147-.1.3a1.112,1.112,0,0,0-.143.756q.258,4.39.478,8.782c.084,1.7.092,3.411.2,5.111.136,2.138.086,4.288.368,6.576a17.335,17.335,0,0,1,3.425-2.817,16.675,16.675,0,0,1,9.314-2.573c.279.01.559-.009.839-.015a18.57,18.57,0,0,1,3.41.529,64.643,64.643,0,1,0-88.411-4.119c.377-.306.756-.61,1.129-.92a39.038,39.038,0,0,1,5.445-2.565m18.264-9.038a.731.731,0,0,1,.5.146,1.286,1.286,0,0,1-.613-.158c.04,0,.074.011.116.012" transform="translate(27.799 0.619)" fill="#ecf0f8"/>
  <path id="Path_20169" data-name="Path 20169" d="M50.584,119.592a25.754,25.754,0,0,1,5.424-1.462c4.7-.46,8.364-.126,12.527,2.039.07.036.933.56,1.075.591a6.1,6.1,0,0,0,1.182-.177c.135-1.147-.058-1.75.046-2.961.174-2.03-.083-4.777,0-6.816,0-.068.419.057.415,0l-.414.415,0,.011a5.961,5.961,0,0,0-.046.973c.018.608-.213,7.232-.278,8.378-.029.524,1.022,1.208,1.448,1.477a21.205,21.205,0,0,1,5.909,6.057,23.341,23.341,0,0,1,2.866,5.85,7.923,7.923,0,0,1,4.049-5.312,8.406,8.406,0,0,1,2.7-.871c.432-.069.6-.2.256-.631a4.857,4.857,0,0,0-1.3-1.3c-.336-.213-.456-.231-.634-.438a1.614,1.614,0,0,1-.35-.751c.144-9.878.328-13.248.508-13.588a1.752,1.752,0,0,0,.3-.7c.038-.242,0-.423.134-.55a.5.5,0,0,1,.381-.11c1.176.023,2.21-.614,3.362.006.539.291.367.6,1.236,1.391a7.048,7.048,0,0,0,.767.608c.508-.076,1.078-.777,2.08-1.325,1.18-.645,2.893-1.021,3.943-.391,0,0,0-.011,0-.013s.049.019.1.076c.031.022.068.035.1.059.211.169.5.483.482.683.09.123.187.256.3.408q.323,5.364.647,10.728a9.7,9.7,0,0,1,5.69,1.288l.75-12.009c0-.012,0-.024,0-.036a.755.755,0,0,1,.213-.508.742.742,0,0,1,.521-.115c1.1.1,2.2-.093,3.3-.069a13.038,13.038,0,0,1,1.993.061,6.766,6.766,0,0,1,1.225.334.558.558,0,0,0-.218-.13A4.042,4.042,0,0,0,114,110.7c.344-.054.574-.221.633-.147.039.049-.034.147-.1.3a1.112,1.112,0,0,0-.143.756q.258,4.39.478,8.782c.084,1.7.092,3.411.2,5.111.136,2.138.086,4.288.368,6.576a17.335,17.335,0,0,1,3.425-2.817c2.865-1.723,5.317-3.074,8.691-2.959.279.01,1.265.006,1.545,0a20.6,20.6,0,0,1,3.591.545,63.518,63.518,0,0,0,22.363-48.768,64.642,64.642,0,1,0-111.039,45c.377-.306.756-.61,1.129-.92A39.038,39.038,0,0,1,50.584,119.592Zm19.439-9.038c.243.007-.777.053-.678.146a17.464,17.464,0,0,0,1.91-.146C71.294,110.558,69.98,110.553,70.023,110.554Z" transform="translate(27.799 0.619)" fill="none" stroke="#ccd4e2" stroke-width="1"/>
  <path id="Path_20170" data-name="Path 20170" d="M177.757,265.11a12.751,12.751,0,0,0-1.661.328q.834-.153,1.661-.328" transform="translate(-45.79 -124.031)" fill="#98a3b9"/>
  <path id="Path_20171" data-name="Path 20171" d="M146.137,225.6c-.726-2.318-4.206-3.772-6.31-4.693a16.762,16.762,0,0,0-2.61-.89,18.449,18.449,0,0,0-3.387-.526c-.278.006-.557.024-.834.015a16.564,16.564,0,0,0-9.251,2.555,17.22,17.22,0,0,0-3.4,2.8c-.281-2.273-.23-4.408-.366-6.532-.108-1.689-.116-3.385-.2-5.077q-.215-4.362-.475-8.723a1.109,1.109,0,0,1,.142-.751c.066-.148.138-.246.1-.294-.058-.073-.287.092-.628.146a4.013,4.013,0,0,1-.716.061.555.555,0,0,1,.217.129,6.718,6.718,0,0,0-1.216-.332,12.948,12.948,0,0,0-1.98-.061c-1.093-.024-2.191.167-3.279.069a.734.734,0,0,0-.518.115.75.75,0,0,0-.212.5c0,.012,0,.024,0,.036l-.745,11.928a9.637,9.637,0,0,0-5.651-1.279q-.321-5.328-.643-10.656c-.108-.151-.2-.283-.293-.405.019-.2-.27-.511-.479-.678-.03-.024-.067-.037-.1-.059-.054-.056-.09-.083-.1-.075s0,.009,0,.013c-1.043-.626-2.745-.252-3.917.388-1,.545-1.561,1.242-2.066,1.317a7,7,0,0,1-.762-.6c-.863-.79-.692-1.093-1.227-1.382-1.144-.616-2.171.017-3.339-.006a.5.5,0,0,0-.379.109c-.129.127-.1.306-.133.547a1.741,1.741,0,0,1-.3.7c-.179.338-.361,3.686-.5,13.5a1.6,1.6,0,0,0,.347.745c.177.205.3.223.629.435a4.825,4.825,0,0,1,1.287,1.292c.339.424.175.558-.254.627a8.35,8.35,0,0,0-2.678.865,8.71,8.71,0,0,0-4.317,5.512,25.368,25.368,0,0,0-3.136-6.037,22.477,22.477,0,0,0-6.306-5.979,1.057,1.057,0,0,1-.588-1.07c.064-1.138.464-8.162.446-8.766a5.921,5.921,0,0,1,.046-.966l0-.011h-.815c0,.057,0,.118,0,.186-.082,2.025-.061,4.059-.234,6.075-.1,1.2-.032,2.416-.176,3.637a1.443,1.443,0,0,1-.3-.066,23.111,23.111,0,0,0-13.172-2.657,25.263,25.263,0,0,0-5.43,1.142,38.774,38.774,0,0,0-5.408,2.547c-.37.308-.747.61-1.122.914-.5.41-1.006.824-1.482,1.264a22.891,22.891,0,0,0-7.658,19.244c.024.351-.112.4-.4.462-.813.169-1.62.372-2.421.589-.242.066-.638.1-.519.494.1.343.447.288.716.213a12.489,12.489,0,0,1,2.433-.53c.751-.053.993-.355.956-1.153a28.05,28.05,0,0,1,.109-4.994,21.467,21.467,0,0,1,5.519-11.991,26.769,26.769,0,0,1,3.3-3.042,21.27,21.27,0,0,1,17.4-4.119c8.685,1.54,14.467,6.731,17.549,14.971a.9.9,0,0,1-.46,1.321,9.006,9.006,0,0,0-4.106,4.97,9.314,9.314,0,0,0-.415,2.192c-.055.768-.2.9-.945.727a8.773,8.773,0,0,0-8.5,2.365c-.839.8-1.491,1.763-2.817.889a.371.371,0,0,0-.593.241c-.076.31.131.446.411.507a4.42,4.42,0,0,1,3.469,3.224c.072.23.226.5.539.39.3-.109.27-.4.2-.648a4.554,4.554,0,0,0-1.3-2.2c-.446-.388-.519-.707-.114-1.157a8.579,8.579,0,0,1,7.971-3.02,8.2,8.2,0,0,1,3.175,1.191c.2.122.4.261.581.017s.057-.472-.173-.634a1.4,1.4,0,0,0-.423-.262c-.885-.213-.892-.863-.8-1.564.039-.3.092-.6.157-.9a9.419,9.419,0,0,1,.344-1.177,8.361,8.361,0,0,1,9.463-5.553A8.238,8.238,0,0,1,97.48,235.4a8.537,8.537,0,0,1,.071,1.325,4.108,4.108,0,0,0,1.088,3.411,1,1,0,0,1,.117,1.349c-.246.459-.352.991-.553,1.477a.453.453,0,0,0,.258.677c.338.131.418-.151.5-.4.1-.316.177-.642.3-.947a11.988,11.988,0,0,1,22.716,1.275c.087.323.1.846.6.7.4-.12.23-.558.144-.874a12.788,12.788,0,0,0-13.907-9.348q-.826.174-1.66.328c-.323.086-.645.18-.966.293a12.757,12.757,0,0,0-6.279,4.751c-.12.168-.174.525-.535.343a3.242,3.242,0,0,1-1.081-2.024,6.726,6.726,0,0,0-.011-2.315c0-.017-.006-.034-.008-.05a9.434,9.434,0,0,0-7.436-7.846,10.517,10.517,0,0,0-4.5.233c-.032-.1-.069-.156-.06-.2a7.574,7.574,0,0,1,11.205-5.28c.275.147.625.461.854.012.186-.367-.217-.539-.459-.673a6.918,6.918,0,0,0-2.649-.931,1.937,1.937,0,0,1-1.678-.992,5.276,5.276,0,0,0-1.76-1.751,1.082,1.082,0,0,1-.556-1.09c.143-2.913.241-5.828.378-8.741.073-1.552.2-3.1.291-4.652a.829.829,0,0,1,.134-.547.5.5,0,0,1,.379-.109,7.506,7.506,0,0,1,3.214.95c.969.581,1.068,1.142,1.514,1.167a.654.654,0,0,0,.235-.047.614.614,0,0,0,.366.016c.5-.135.461-.656.935-1.091,1.266-1.163,4.129.164,4.968.1l.138.253c.009.612.031,1.1.045,1.376q.218,4.449.454,8.9c.019.364-.1.523-.475.625a6.741,6.741,0,0,0-2.135.907c-.268.185-.714.35-.505.729.224.409.588.08.859-.074a7.631,7.631,0,0,1,9.4,1.291c.291.3.523,1.188,1.078.646.449-.439-.326-.809-.607-1.174-.31-.4-.821-.645-.762-1.3.214-2.379.2-4.773.371-7.152.111-1.551.017-3.109.237-4.657a.75.75,0,0,1,.212-.5.709.709,0,0,1,.518-.115c.481.049,2.82.184,6.074.372a1.475,1.475,0,0,1,.081.54c.009,2.361.187,4.716.3,7.073.219,4.383.359,8.769.55,13.154a2.022,2.022,0,0,1-.547,1.746c-.224.209-.516.585-.155.862.411.314.546-.174.726-.412a16.778,16.778,0,0,1,6.858-5.408,16.063,16.063,0,0,1,8.873-1.19c.429.066.858.14,1.282.23A11.061,11.061,0,0,1,140.182,222,33.928,33.928,0,0,1,143.8,224.6c.7.6,1.217,1.352,1.888,1.963.222.2.472.493.6.425.238-.121-.12-1.262-.158-1.386" transform="translate(23.154 -92.966)" fill="#ccd4e2"/>
  <path id="Path_20172" data-name="Path 20172" d="M110.438,204.558c-.042,0-.076-.009-.116-.012a1.278,1.278,0,0,0,.609.157.726.726,0,0,0-.494-.145" transform="translate(-13.214 -94.035)" fill="#98a3b9"/>
  <path id="Path_20173" data-name="Path 20173" d="M194.71,77.863V64.556c.917-.008,1.834,0,2.749-.032.488-.018.611.191.61.643q-.018,6.043,0,12.086c0,.452-.122.661-.61.643-.916-.033-1.833-.024-2.749-.032" transform="translate(-55.009 -24.685)" fill="#d4dae7"/>
  <path id="Path_20174" data-name="Path 20174" d="M194.728,125.014q-.005-5.584-.01-11.168c.916-.007,1.832,0,2.747-.024.4-.01.608.1.607.557-.011,4.6-.007,9.208-.007,13.642l-3.338-3.007" transform="translate(-55.013 -49.101)" fill="#d2d8e5"/>
  <path id="Path_20175" data-name="Path 20175" d="M194.724,102.492q0-4.915-.006-9.83c.888-.006,1.777,0,2.664-.025.478-.017.7.108.694.645q-.031,4.288,0,8.577c0,.527-.2.67-.688.654-.887-.03-1.776-.017-2.664-.021" transform="translate(-55.013 -38.609)" fill="#d2d8e5"/>
  <path id="Path_20176" data-name="Path 20176" d="M193.4,49.952a81.34,81.34,0,0,0-.622-9.08,39.684,39.684,0,0,0-.72-4.064,7.9,7.9,0,0,1,2.231,2.93,21.117,21.117,0,0,1,2.473,9.438c.015.61-.148.848-.786.808-.855-.055-1.716-.025-2.575-.031" transform="translate(-53.695 -10.959)" fill="#d2d8e5"/>
  <path id="Path_20177" data-name="Path 20177" d="M194.067,194.408a15.74,15.74,0,0,0,.152-3.845c.013-.312-.273-.285-.487-.312,1.131-.218,2.261-.443,3.394-.649.313-.057.453.121.451.436-.005,1.168.024,2.336-.013,3.5a.88.88,0,0,1-1,.886c-.834,0-1.668-.013-2.5-.02" transform="translate(-54.525 -86.629)" fill="#d2d8e5"/>
  <path id="Path_20178" data-name="Path 20178" d="M57.72,65.083a14.214,14.214,0,0,0-5.822-9.19,19.1,19.1,0,0,0-4.675-2.327,4.053,4.053,0,0,1-.577-.033,15.194,15.194,0,0,0-6.992.181A14.52,14.52,0,0,0,29.625,71.65a18.676,18.676,0,0,0,2.893,5.48,4,4,0,0,1,.387.312,14.156,14.156,0,0,0,12.244,4.535A14.4,14.4,0,0,0,57.72,65.083" transform="translate(27.034 -19.083)" fill="#eceeef"/>
  <path id="Path_20179" data-name="Path 20179" d="M57.72,65.059A14.446,14.446,0,1,0,45.148,81.954,14.477,14.477,0,0,0,57.72,65.059Z" transform="translate(27.034 -19.059)" fill="none" stroke="#98a4ba" stroke-linecap="round" stroke-width="1" stroke-dasharray="7.906 4.941"/>
  <path id="Path_20180" data-name="Path 20180" d="M246.707,52.026a9.555,9.555,0,0,0-1.093-2.423,62.339,62.339,0,0,0-6.425-8.385.788.788,0,0,1-.083-1.126,9.039,9.039,0,0,0,1.186-6.809,9.468,9.468,0,0,0-14.169-6.3.98.98,0,0,1-1.372-.126,40.733,40.733,0,0,0-3.565-3.006,29.907,29.907,0,0,0-6.246-4.108c-.68-.3-1.489-.653-2.109-.042s-.242,1.415.055,2.1a27.608,27.608,0,0,0,1.842,3.34,3.092,3.092,0,0,0,1.159,1.494c1.69,2.235,3.5,4.366,5.376,6.448a.988.988,0,0,1,.261.9,9.472,9.472,0,0,0,4.584,9.446,10.141,10.141,0,0,0,5.93,1.228,1.565,1.565,0,0,1,1.265.445,91.7,91.7,0,0,0,7.463,6.082c.415.272.813.574,1.248.809,1.113.6,2.12,1.461,3.462,1.535,1.04.058,1.5-.51,1.23-1.511" transform="translate(-63.817 -2.32)" fill="#eceeef"/>
  <path id="Path_20181" data-name="Path 20181" d="M246.707,52.026a9.555,9.555,0,0,0-1.093-2.423,62.339,62.339,0,0,0-6.425-8.385.788.788,0,0,1-.083-1.126,9.039,9.039,0,0,0,1.186-6.809,9.468,9.468,0,0,0-14.169-6.3.98.98,0,0,1-1.372-.126,40.733,40.733,0,0,0-3.565-3.006,29.907,29.907,0,0,0-6.246-4.108c-.68-.3-1.489-.653-2.109-.042s-.242,1.415.055,2.1a27.608,27.608,0,0,0,1.842,3.34,3.092,3.092,0,0,0,1.159,1.494c1.69,2.235,3.5,4.366,5.376,6.448a.988.988,0,0,1,.261.9,9.472,9.472,0,0,0,4.584,9.446,10.141,10.141,0,0,0,5.93,1.228,1.565,1.565,0,0,1,1.265.445,91.7,91.7,0,0,0,7.463,6.082c.415.272.813.574,1.248.809,1.113.6,2.12,1.461,3.462,1.535C246.518,53.594,246.977,53.026,246.707,52.026Z" transform="translate(-63.817 -2.32)" fill="none" stroke="#98a4ba" stroke-linecap="round" stroke-width="1" stroke-dasharray="8 5"/>
  <path id="Path_20182" data-name="Path 20182" d="M274.468,37.714a91.728,91.728,0,0,1-9.3-2.472,1.564,1.564,0,0,0-1.336.115,10.144,10.144,0,0,1-5.91,1.321,9.473,9.473,0,0,1-8.066-6.723.988.988,0,0,0-.61-.718c-2.563-1.128-5.094-2.323-7.554-3.664a3.089,3.089,0,0,1-1.671-.885,27.533,27.533,0,0,1-3.054-2.285c-.553-.506-1.235-1.068-.916-1.9.313-.811,1.2-.821,1.939-.829a29.912,29.912,0,0,1,7.383,1.173,40.718,40.718,0,0,1,4.486,1.272.979.979,0,0,0,1.3-.45,9.469,9.469,0,0,1,15.507-.088,9.039,9.039,0,0,1,1.722,6.694.789.789,0,0,0,.539.992,62.384,62.384,0,0,1,9.306,5,9.542,9.542,0,0,1,1.993,1.758c.659.8.473,1.508-.5,1.883-1.254.485-2.525.116-3.787.026-.493-.035-.98-.147-1.47-.224" transform="translate(-75.442 -1.444)" fill="#99a4ba"/>
  <path id="Path_20183" data-name="Path 20183" d="M269.868,19.686c3.418-1.651,8.252-.185,10.506,3.5a8.584,8.584,0,0,1,.06,9.288c-.184.326-.351.51-.83.385A65.7,65.7,0,0,1,269.233,29.3c-1.34-.6-2.671-1.226-4.027-1.789a1.114,1.114,0,0,1-.79-1.516,8.933,8.933,0,0,1,5.452-6.31" transform="translate(-89.499 -2.145)" fill="#ecf0f9"/>
  <path id="Path_20184" data-name="Path 20184" d="M277.876,46.751c-4.808,2.906-11.3.339-12.659-4.78,4.149,1.769,8.278,3.35,12.659,4.78" transform="translate(-89.93 -13.516)" fill="#ecf0f9"/>
  <path id="Path_20185" data-name="Path 20185" d="M300.99,44.982c.255.464.143.62-.195.633a11.958,11.958,0,0,1-3.032-.309c-.312-.069-.348-.2-.2-.458.241-.433.469-.873.7-1.312.083-.161.184-.3.38-.2a9.544,9.544,0,0,1,2.355,1.646" transform="translate(-105.907 -14.175)" fill="#fefefe"/>
  <path id="Path_20186" data-name="Path 20186" d="M257.1,28.885a9.6,9.6,0,0,1,2.989.336.211.211,0,0,1,.159.312,1.37,1.37,0,0,0-.054.157c-.467,1.9-.471,1.9-2.091.726a11.091,11.091,0,0,1-1.143-.954c-.2-.188-.28-.438.14-.576" transform="translate(-85.762 -7.028)" fill="#fefefe"/>
  <path id="Path_20187" data-name="Path 20187" d="M285.777,25.307a2.911,2.911,0,0,1,2.324,5.337,2.912,2.912,0,1,1-2.324-5.337" transform="translate(-99.202 -5.137)" fill="#c3cad9"/>
  <g id="Group_5676" data-name="Group 5676" transform="translate(184.737 19.918)" style="mix-blend-mode: multiply;isolation: isolate">
    <g id="Group_5675" data-name="Group 5675">
      <g id="Group_5674" data-name="Group 5674" clip-path="url(#clip-path)">
        <path id="Path_20188" data-name="Path 20188" d="M284.772,29.581a3.233,3.233,0,0,1,2.816-4.447,2.809,2.809,0,0,0-1.811.175A2.868,2.868,0,0,0,284.2,29.2a3.015,3.015,0,0,0,1.294,1.4,3.412,3.412,0,0,1-.72-1.018" transform="translate(-283.939 -25.057)" fill="#c3cad9"/>
      </g>
    </g>
  </g>
  <path id="Path_20189" data-name="Path 20189" d="M269.54,25.447a2.075,2.075,0,0,1,1.657,3.8,2.076,2.076,0,1,1-1.657-3.8" transform="translate(-91.422 -5.243)" fill="#c3cad9"/>
  <g id="Group_5679" data-name="Group 5679" transform="translate(176.809 20.023)" style="mix-blend-mode: multiply;isolation: isolate">
    <g id="Group_5678" data-name="Group 5678">
      <g id="Group_5677" data-name="Group 5677" clip-path="url(#clip-path-2)">
        <path id="Path_20190" data-name="Path 20190" d="M268.827,28.5a2.309,2.309,0,0,1,2.012-3.176,2.009,2.009,0,0,0-1.294.125,2.049,2.049,0,0,0-1.128,2.776,2.156,2.156,0,0,0,.925,1,2.437,2.437,0,0,1-.515-.727" transform="translate(-268.232 -25.265)" fill="#c3cad9"/>
      </g>
    </g>
  </g>
  <path id="Path_20191" data-name="Path 20191" d="M248.754,25.265a14.314,14.314,0,0,0-1.554.078c-.9.139-1.16.861-.584,1.583a7.06,7.06,0,0,0,1.752,1.52,47.662,47.662,0,0,0,6.318,3.339,63.476,63.476,0,0,0,7.562,2.845,32.032,32.032,0,0,0,8.509,1.8c.139,0,.278,0,.416-.007a1.053,1.053,0,0,0,1.106-.7,1.172,1.172,0,0,0-.4-1.2,6.3,6.3,0,0,1-.924-1c.871.411,1.759.789,2.609,1.24a37.14,37.14,0,0,1,5.891,3.582c.2.156.389.315.57.488.287.274.581.615.453,1-.122.368-.582.271-.893.29a22.273,22.273,0,0,1-6.41-.862,134.371,134.371,0,0,1-20.284-6.809,75.753,75.753,0,0,1-12.93-6.479,12.611,12.611,0,0,1-2.131-1.727c-.186-.189-.457-.377-.292-.708.129-.26.389-.273.645-.3a14.387,14.387,0,0,1,3.48.209,42.9,42.9,0,0,1,7.092,1.818" transform="translate(-76.195 -4.22)" fill="#d8deea"/>
  <rect id="Rectangle_1391" data-name="Rectangle 1391" width="163.745" height="144.057" transform="translate(41.425 7.271)" fill="none"/>
  <path id="Path_20192" data-name="Path 20192" d="M275.126,43.554a2.408,2.408,0,0,1,1.922,4.414,2.408,2.408,0,1,1-1.922-4.414" transform="translate(-94.084 -14.196)" fill="#c3cad9"/>
  <g id="Group_5684" data-name="Group 5684" transform="translate(179.529 29.292)" style="mix-blend-mode: multiply;isolation: isolate">
    <g id="Group_5683" data-name="Group 5683">
      <g id="Group_5682" data-name="Group 5682" clip-path="url(#clip-path-3)">
        <path id="Path_20193" data-name="Path 20193" d="M275.257,47.934a2.523,2.523,0,0,1-.636-3.635,2.494,2.494,0,0,1,.661-.67,2.3,2.3,0,0,0-1.181.907,2.346,2.346,0,0,0,.592,3.38,2.466,2.466,0,0,0,1.506.411,2.791,2.791,0,0,1-.941-.393" transform="translate(-273.62 -43.629)" fill="#c3cad9"/>
      </g>
    </g>
  </g>
  <path id="Path_20194" data-name="Path 20194" d="M277.875,46.75c-4.38-1.43-8.509-3.011-12.659-4.78,1.363,5.119,7.851,7.686,12.659,4.78" transform="translate(-89.929 -13.515)" fill="none"/>
  <path id="Path_20195" data-name="Path 20195" d="M248.715,44.606a5.5,5.5,0,1,0-5.5,5.5,5.5,5.5,0,0,0,5.5-5.5" transform="translate(-76.304 -12.095)" fill="#fff"/>
  <path id="Path_20196" data-name="Path 20196" d="M245.737,50.059a.124.124,0,0,1-.124-.124V47.795H243.6a.124.124,0,0,1-.124-.124v-.659a.124.124,0,0,1,.124-.124h2.017V44.748a.124.124,0,0,1,.124-.124h.659a.123.123,0,0,1,.123.124v2.141h2.017a.124.124,0,0,1,.124.124v.659a.124.124,0,0,1-.124.124h-2.017v2.141a.124.124,0,0,1-.124.124Z" transform="translate(-79.159 -14.83)" fill="#98a3b9"/>
  <path id="Path_20197" data-name="Path 20197" d="M57.8,76.413a5.5,5.5,0,1,0-5.5,5.5,5.5,5.5,0,0,0,5.5-5.5" transform="translate(18.252 -27.848)" fill="#fff"/>
  <path id="Path_20198" data-name="Path 20198" d="M54.82,81.865a.124.124,0,0,1-.124-.124V79.6H52.679a.124.124,0,0,1-.124-.124v-.659a.124.124,0,0,1,.124-.124H54.7V76.554a.124.124,0,0,1,.124-.124h.659a.123.123,0,0,1,.123.124v2.141h2.017a.124.124,0,0,1,.124.124v.659a.124.124,0,0,1-.124.124H55.6v2.141a.124.124,0,0,1-.124.124Z" transform="translate(15.397 -30.582)" fill="#98a3b9"/>
  <path id="Path_20199" data-name="Path 20199" d="M18.166,25.353a19.1,19.1,0,0,1,4.675,2.328,14.214,14.214,0,0,1,5.823,9.189,13.954,13.954,0,0,1-2.472,10.982,14.007,14.007,0,0,1-10.1,5.913A14.157,14.157,0,0,1,3.848,49.229a4.226,4.226,0,0,0-.387-.312,18.665,18.665,0,0,1-2.893-5.48A14.52,14.52,0,0,1,10.6,25.5a15.2,15.2,0,0,1,6.992-.181,3.98,3.98,0,0,0,.577.033" transform="translate(41.425 -5.11)" fill="#98a4ba"/>
  <path id="Path_20200" data-name="Path 20200" d="M10.736,52.951A9.782,9.782,0,0,1,6.67,50.763,13.041,13.041,0,0,1,1.592,38.878,13.471,13.471,0,0,1,12.82,26.6a13.479,13.479,0,0,1,11.331,3.137,5.236,5.236,0,0,1,.457.482.591.591,0,0,1-.211.6,2.131,2.131,0,0,0-.479,2.091c.36,1.94.916,3.838,1.171,5.8a5.23,5.23,0,0,1-1.043,4.158,5.6,5.6,0,0,0-1.216,3.307,10.065,10.065,0,0,1-.225,1.567,4.15,4.15,0,0,1-3.177,3.386,24.69,24.69,0,0,1-3.457.533,14.7,14.7,0,0,0-4.594,1.129,1.806,1.806,0,0,1-.643.163" transform="translate(40.674 -5.791)" fill="#ecf0f9"/>
  <path id="Path_20201" data-name="Path 20201" d="M19.781,56.722a8.511,8.511,0,0,1,3.871-1.342c1.545-.271,3.127-.314,4.659-.678a3.872,3.872,0,0,0,3.156-3.6,9.285,9.285,0,0,1,1.875-5.286,4.126,4.126,0,0,0,.573-3.269A51.767,51.767,0,0,0,32.8,37.207a2.879,2.879,0,0,1,.852-3.218A13.239,13.239,0,0,1,37.83,42.5a13.064,13.064,0,0,1-2.694,9.658,13.3,13.3,0,0,1-8.609,5.205,11.8,11.8,0,0,1-6.745-.643" transform="translate(31.629 -9.563)" fill="#d2d8e5"/>
  <path id="Path_20202" data-name="Path 20202" d="M14.592,49.214a3.554,3.554,0,0,1-.1,7.107,3.555,3.555,0,1,1,.1-7.107" transform="translate(36.036 -17.098)" fill="#c3cad9"/>
  <path id="Path_20203" data-name="Path 20203" d="M32.96,33.454a2.911,2.911,0,0,1-.079,5.821,2.912,2.912,0,1,1,.079-5.821" transform="translate(26.606 -9.293)" fill="#c3cad9"/>
  <g id="Group_5689" data-name="Group 5689" transform="translate(56.528 24.152)" style="mix-blend-mode: multiply;isolation: isolate">
    <g id="Group_5688" data-name="Group 5688">
      <g id="Group_5687" data-name="Group 5687" clip-path="url(#clip-path-4)">
        <path id="Path_20204" data-name="Path 20204" d="M30.285,36.934a3.232,3.232,0,0,1,4.4-2.893,2.809,2.809,0,0,0-1.723-.587,2.868,2.868,0,0,0-3.038,2.893,3.015,3.015,0,0,0,.6,1.811,3.4,3.4,0,0,1-.238-1.224" transform="translate(-29.921 -33.446)" fill="#c3cad9"/>
      </g>
    </g>
  </g>
  <path id="Path_20205" data-name="Path 20205" d="M13.665,33.853A2.075,2.075,0,0,1,13.609,38a2.076,2.076,0,1,1,.056-4.149" transform="translate(35.731 -9.492)" fill="#c3cad9"/>
  <path id="Path_20206" data-name="Path 20206" d="M38.968,51.206a1.57,1.57,0,0,1,1.573-1.6,1.812,1.812,0,0,1,1.6,1.726,1.538,1.538,0,0,1-1.649,1.591,1.555,1.555,0,0,1-1.527-1.712" transform="translate(22.126 -17.295)" fill="#d2d8e5"/>
  <g id="Group_5692" data-name="Group 5692" transform="translate(47.229 24.355)" style="mix-blend-mode: multiply;isolation: isolate">
    <g id="Group_5691" data-name="Group 5691">
      <g id="Group_5690" data-name="Group 5690" clip-path="url(#clip-path-5)">
        <path id="Path_20207" data-name="Path 20207" d="M11.759,36.339A2.309,2.309,0,0,1,14.9,34.272a2.009,2.009,0,0,0-1.231-.419,2.048,2.048,0,0,0-2.17,2.066,2.154,2.154,0,0,0,.43,1.294,2.44,2.44,0,0,1-.17-.875" transform="translate(-11.498 -33.847)" fill="#c3cad9"/>
      </g>
    </g>
  </g>
  <g id="Group_5695" data-name="Group 5695" transform="translate(46.934 32.102)" style="mix-blend-mode: multiply;isolation: isolate">
    <g id="Group_5694" data-name="Group 5694">
      <g id="Group_5693" data-name="Group 5693" clip-path="url(#clip-path-6)">
        <path id="Path_20208" data-name="Path 20208" d="M12.2,54.991a3.724,3.724,0,0,1,1.353-5.277,3.7,3.7,0,0,1,1.3-.5,3.393,3.393,0,0,0-2.14.5,3.463,3.463,0,0,0-1.258,4.907,3.635,3.635,0,0,0,1.777,1.468,4.1,4.1,0,0,1-1.028-1.1" transform="translate(-10.914 -49.197)" fill="#c3cad9"/>
      </g>
    </g>
  </g>
  <path id="Path_20209" data-name="Path 20209" d="M66.7,197.988a4.476,4.476,0,0,0-3.925-4.389,4.641,4.641,0,0,0-4.756,2.647c-.3.642-.5.92-1.26.456a1.95,1.95,0,0,0-2.953,1.561c-.062.581-.254.785-.814.76-.639-.029-1.28-.008-1.92-.008-.3,0-.606-.047-.593-.416s.324-.4.619-.4c.083,0,.167,0,.25,0,.926.026,1.732.147,2.144-1.144a2.445,2.445,0,0,1,3.172-1.254c.442.138.652.114.91-.331a5.3,5.3,0,0,1,9.89,2.452c.021.469.162.644.63.628.295-.01.689.023.676.436-.014.434-.411.361-.709.372-1.294.048-1.3.046-1.36-1.371" transform="translate(16.425 -88.216)" fill="#9aa5bb"/>
  <path id="Path_20210" data-name="Path 20210" d="M269.578,159.033c-.334-.007-.669-.039-1-.016-1.041.07-1.958.183-2.151-1.343-.121-.962-1.545-1.4-2.492-.835-.81.479-1.076.191-1.384-.525a3.988,3.988,0,0,0-3.764-2.445,4.2,4.2,0,0,0-3.916,2.244,4.055,4.055,0,0,0-.5,2.406c.023.331.074.7-.368.819a1.96,1.96,0,0,1-1.528-.085c-.13-.072-.117-.242-.065-.379a.345.345,0,0,1,.417-.193c.609.081.715-.213.738-.765a5.123,5.123,0,0,1,9.495-2.364c.255.429.442.572.955.41a2.565,2.565,0,0,1,3.2,1.533c.17.424.325.763.853.7.4.28.86.088,1.288.144.565.073.737.269.228.692" transform="translate(-83.566 -68.548)" fill="#99a4ba"/>
  <path id="Path_20211" data-name="Path 20211" d="M25.738,173.6c.445.008.89.01,1.334.024.241.008.454.093.476.366.026.325-.2.429-.478.45s-.556.023-.833.033c-.749-.014-1.5-.043-2.246-.035-.448,0-.716-.1-.792-.615a1.166,1.166,0,0,0-1.05-1.034c-.509-.065-.692-.313-.761-.806a2.531,2.531,0,0,0-1.82-2.045,2.438,2.438,0,0,0-2.812,1.261.868.868,0,0,1-.943.586c-1.564-.085-2.059.318-2.436,1.85-.067.271-.156.506-.475.447-.366-.068-.354-.373-.318-.66a2.906,2.906,0,0,1,2.724-2.467,1.172,1.172,0,0,0,1.023-.528,3.234,3.234,0,0,1,5.748,1.085c.06.228.144.441.371.517a2.309,2.309,0,0,1,1.411,1.322c.117.261.318.274.546.27l1.331-.023" transform="translate(35.201 -76.468)" fill="#99a5ba"/>
  <path id="Path_20212" data-name="Path 20212" d="M292.847,133.261l-7.289-.013c-.166,0-.332.007-.5.005-.268,0-.514-.072-.541-.387s.2-.424.475-.448c.165-.014.331-.006.5-.008v0a21.142,21.142,0,0,0,3.127.078c1.4.045,2.81-.057,4.214.052.44.233.394.475.013.723" transform="translate(-99.489 -58.307)" fill="#97a3b9"/>
  <path id="Path_20213" data-name="Path 20213" d="M248.227,125.02c-1,0-2-.012-3,.006-.4.007-.559-.119-.649-.546-.362-1.726-.886-2.2-2.641-2.479-.474-.076-.63-.338-.669-.793a4.908,4.908,0,0,0-7.377-3.92,4.367,4.367,0,0,0-2.072,2.3c-.2.561-.432.749-1.1.626a3.988,3.988,0,0,0-4.98,3.7c-.035.293-.066.62-.437.574-.538-.066-.411-.531-.369-.862a4.927,4.927,0,0,1,5.44-4.257.815.815,0,0,0,.978-.563,5.678,5.678,0,0,1,10.569,1.576,1,1,0,0,0,.858.942,3.122,3.122,0,0,1,2.387,2.313c.136.469.387.575.839.569,1.7-.024,3.394-.015,5.092-.005.339,0,.842-.114.826.422s-.522.383-.857.388c-.946.015-1.892.005-2.838.005" transform="translate(-69.956 -50.088)" fill="#99a5ba"/>
  <path id="Path_20214" data-name="Path 20214" d="M152.791,97.17c-1.632.007-3.265.011-4.9.023-.292,0-.7-.065-.684.376.015.359.366.433.7.434q2.448.007,4.9.02a1.526,1.526,0,0,1,.271,1.1q.009,5.409,0,10.816a1.488,1.488,0,0,1-.274,1.1l-.54.213c-1.115.432-1.115.432-1.115-.814,0-.417,0-.835,0-1.252-.011-1.043-.517-1.644-1.363-1.627-.828.016-1.321.637-1.33,1.675-.007.751-.012,1.5-.023,2.252,0,.043-.054.085-.118.179-1.564-1.009-3.314-.606-5.009-.575-.448.008-.54-.077-.515-.457.007-.111,0-.222,0-.334,0-9.291.01-18.582-.018-27.873,0-.775.213-1.038.974-.96a16.08,16.08,0,0,0,1.751.01c.329,0,.767.05.751-.423s-.466-.375-.785-.381a15.125,15.125,0,0,0-1.751.009c-.721.072-.945-.154-.939-.911.035-5.146.016-10.292.02-15.438a17.405,17.405,0,0,1,.981-5.877c.223-.626.539-1.219.76-1.846a1.975,1.975,0,0,1,2.089-1.323c1.724-.016,3.449.007,5.173.014a1.037,1.037,0,0,1,.4.614,34.709,34.709,0,0,1,.672,4.523.959.959,0,0,1-.149.637c-.465.247-.829-.175-1.259-.191a29.5,29.5,0,0,0-3.321.009,1.6,1.6,0,0,0-1.425,1.663c.02.323.115.482.458.3,1.354-.739,2.808-.469,4.231-.375a1.75,1.75,0,0,1,1.594,1.158,3.793,3.793,0,0,1,.085.995q0,7.376,0,14.751a1.71,1.71,0,0,1-.276,1.268c-.887.008-1.774.013-2.661.024-.311,0-.671,0-.639.443.027.371.359.36.639.362.887.009,1.774.015,2.661.023a1.472,1.472,0,0,1,.276,1.1q.01,6.736,0,13.472a1.419,1.419,0,0,1-.281,1.1" transform="translate(-29.282 -20.109)" fill="#fff"/>
  <path id="Path_20215" data-name="Path 20215" d="M119.233,140.92a6.756,6.756,0,0,0-.5,2.088.347.347,0,0,1-.4.4c-.167,0-.333,0-.5,0q-7.715,0-15.43,0c-1.542,0-1.892-.512-2.068-2.034a5.856,5.856,0,0,1,2.174-5.289c4.142-3.949,8.083-8.11,12.143-12.147a8.271,8.271,0,0,0,1.9-4q1.2-4.362,2.377-8.728c.376.06.355.378.392.637a7.729,7.729,0,0,1,.027,1.082q0,13.12,0,26.241a9.788,9.788,0,0,1-.117,1.74" transform="translate(-8.245 -47.813)" fill="#fff"/>
  <path id="Path_20216" data-name="Path 20216" d="M117.191,64.111l-2.556.022c-.295,0-.593.054-.593.414s.307.406.6.409q1.278.014,2.556.024a1.442,1.442,0,0,1,.279,1.1q.011,3.82,0,7.64a1.5,1.5,0,0,1-.273,1.1c-1.918.006-3.837-.006-5.755.027-.561.01-.773-.137-.771-.74q.026-11.3,0-22.605c0-.614.225-.779.778-.725a6.956,6.956,0,0,0,.917-.008c.247-.009.447-.117.459-.383s-.174-.394-.423-.415c-.194-.016-.39-.015-.584-.018-1.186-.018-1.167.176-1.122-1.1a20.184,20.184,0,0,1,3.761-11.181c.339-.477.688-1.265,1.57-.739a10.116,10.116,0,0,1,.8,3.545,67.147,67.147,0,0,1,.631,8.275,1.537,1.537,0,0,1-.262,1.184c-.413.012-.826.01-1.238.041a.385.385,0,0,0-.393.437.381.381,0,0,0,.389.357c.413.024.826.025,1.239.036a1.409,1.409,0,0,1,.283,1.093q.011,5.564,0,11.128a1.409,1.409,0,0,1-.283,1.093" transform="translate(-13.388 -10.929)" fill="#fafbfd"/>
  <path id="Path_20217" data-name="Path 20217" d="M188.318,74.814c-1.919.006-3.839-.015-5.757.032-.661.016-.779-.24-.773-.829q.039-4.13,0-8.261c-.007-.616.16-.878.794-.8a5.8,5.8,0,0,0,.917-.009c.243-.009.453-.1.467-.373.017-.328-.221-.412-.493-.435-.056,0-.112,0-.167,0-1.506-.1-1.506-.1-1.506-1.655,0-3.589.017-7.177-.015-10.765-.007-.7.119-1.02.9-.959.408.032,1.173.285,1.188-.334.016-.678-.762-.488-1.212-.458-.709.046-.9-.209-.872-.9a20.081,20.081,0,0,1,3.856-11.485c.322-.438.625-.959,1.323-.8a2.2,2.2,0,0,1,.542,1.195,49.94,49.94,0,0,1,.9,8.272c.018.89.236,1.764.173,2.658a1.443,1.443,0,0,1-.267,1.019c-.777.008-1.554.012-2.33.024-.314,0-.665.023-.636.457.024.37.349.371.633.375l2.33.022a1.389,1.389,0,0,1,.284,1.092q.012,5.562,0,11.124a1.389,1.389,0,0,1-.284,1.092c-.635.008-1.271.013-1.907.023-.3.005-.577.094-.549.459.024.311.285.369.553.371l1.907.023a1.429,1.429,0,0,1,.28,1.094q.011,3.818,0,7.637a1.482,1.482,0,0,1-.275,1.1" transform="translate(-48.607 -10.931)" fill="#fdfdff"/>
  <path id="Path_20218" data-name="Path 20218" d="M180.385,126.119c.283,1.01.545,2.026.854,3.029a5.885,5.885,0,0,0,1.564,2.426q6.676,6.664,13.347,13.332a2.4,2.4,0,0,1,.786,1.924c-.034.778.016,1.559-.016,2.337a1.392,1.392,0,0,1-.975,1.48,1.218,1.218,0,0,1-.654.072c-3.895,0-7.79-.013-11.685.017-.62,0-.939-.192-1.052-.781a3.981,3.981,0,0,0-1.868-2.744,1.668,1.668,0,0,1-.711-1.591q0-4.007,0-8.013c0-3.45-.009-6.9.01-10.35,0-.4-.16-.91.4-1.137" transform="translate(-47.707 -55.192)" fill="#fefefe"/>
  <path id="Path_20219" data-name="Path 20219" d="M156.977,27.065c-.359-.007-.518-.259-.679-.529q-.976-1.635-1.966-3.26a2.654,2.654,0,0,0-4.4.027c-.709,1.148-1.317,2.359-2.133,3.439a1.073,1.073,0,0,1-.251-.852A69.762,69.762,0,0,1,149.684,5.3a19.7,19.7,0,0,1,.852-2.7,2,2,0,0,1,.59-.892l1.509-.008A3.646,3.646,0,0,1,153.7,3.354,52.549,52.549,0,0,1,156.9,16.073a78.513,78.513,0,0,1,.324,10.219,1.044,1.044,0,0,1-.244.773" transform="translate(-31.627 6.429)" fill="#cbd4e3"/>
  <path id="Path_20220" data-name="Path 20220" d="M145.9,1.716a50.75,50.75,0,0,0-2.646,10.68,67.719,67.719,0,0,0-.686,12.352c.013.667.007,1.335.01,2-.243.526-.721.27-1.1.329-.33.051-.846-.149-.878.364-.037.613.527.394.873.45.107.018.215.029.38.051-.548,1.274-1.263,2.431-1.684,3.724a13.539,13.539,0,0,0-.93,5.2c.3,3.909-.816,7.555-1.858,11.226-.456-.1-.392-.492-.4-.8-.031-1.694-.028-3.389,0-5.084.005-.363.035-.733.429-.925a.417.417,0,0,0,0-.7c-.429-.211-.436-.618-.438-1q-.026-5.411,0-10.822a1.306,1.306,0,0,1,.249-.863c.238-.269.514-.537.022-.825A1.042,1.042,0,0,1,137,26.3a39.449,39.449,0,0,1,1.348-12.525A37.935,37.935,0,0,1,142.769,4.2a11.176,11.176,0,0,1,1.318-1.492c.551-.432,1.028-1,1.817-.993" transform="translate(-26.406 6.421)" fill="#fff"/>
  <path id="Path_20221" data-name="Path 20221" d="M176.513,114.781c-.246.26-.137.583-.137.876-.007,6.26,0,12.52-.017,18.78a1.288,1.288,0,0,0,.744,1.33,3.181,3.181,0,0,1,1.731,2.421c.128.968.58,1.147,1.47,1.136,3.923-.046,7.846-.018,11.769-.016-.224.24-.519.16-.787.16-5.31,0-10.62-.01-15.931.008-.579,0-.82-.109-.863-.756a4.013,4.013,0,0,0-1.741-3.086,1.317,1.317,0,0,1-.575-1.256c.015-4.421.009-8.841.009-13.262q0-8.466.011-16.932c0-.349-.264-.9.444-.955.595-.043.789.3.931.831.962,3.579,1.957,7.148,2.942,10.72" transform="translate(-43.835 -43.854)" fill="#d7deec"/>
  <path id="Path_20222" data-name="Path 20222" d="M162.016,27.065c0-2.587.1-5.179-.021-7.761a48.221,48.221,0,0,0-1.145-8.109A43.6,43.6,0,0,0,158.5,3.414c-.248-.583-.551-1.143-.829-1.714a5.841,5.841,0,0,1,2.612,1.7A30,30,0,0,1,168.8,18.965a32.161,32.161,0,0,1,.23,6.3c.024,1.805.005,1.806-1.766,1.805q-2.623,0-5.248-.006" transform="translate(-36.666 6.429)" fill="#b2bccf"/>
  <path id="Path_20223" data-name="Path 20223" d="M161.487,61.122a29.055,29.055,0,0,0-.845-5.824c.472-.007.945-.036,1.416-.016a1.889,1.889,0,0,1,1.735,1.072,16.723,16.723,0,0,1,1.859,7.737c.032,5.2-.009,10.393.029,15.589.006.824-.244,1.05-1.032.994-1-.07-2-.024-3-.029l0-17.179c.329-.808-.1-1.564-.161-2.345" transform="translate(-38.136 -20.105)" fill="#d7deec"/>
  <path id="Path_20224" data-name="Path 20224" d="M106.968,180.671c3.061,0,6.122.023,9.182-.017.715-.01.9.213.872.893-.05,1.334-.071,2.674.006,4.005.047.809-.232.9-.926.772-3.3-.6-6.6-1.159-9.9-1.728q-3.765-.648-7.533-1.284a2.133,2.133,0,0,1-1.872-1.927c-.041-.583.153-.759.743-.754,3.144.027,6.288.013,9.432.013v.027" transform="translate(-6.511 -82.191)" fill="#fff"/>
  <path id="Path_20225" data-name="Path 20225" d="M117.158,122.836l-6.57,6.264c-.047-.041.054-.277.053-.479-.007-4.637.007-9.274-.019-13.912,0-.66.126-.929.857-.907,1.887.057,3.776.03,5.664.036a1.3,1.3,0,0,1,.28,1.008c.011,2.292,0,4.585.006,6.878a2.048,2.048,0,0,1-.27,1.111" transform="translate(-13.34 -49.091)" fill="#f7f8fc"/>
  <path id="Path_20226" data-name="Path 20226" d="M143.808,180.337c-1.558.012-3.115.01-4.672.043-.493.011-.687-.13-.683-.655.021-3.087-.01-6.175.024-9.262a3.313,3.313,0,0,1,2.823-3.142,15.035,15.035,0,0,1,2.158-.068.511.511,0,0,1,.574.475,2.728,2.728,0,0,1,.056.58q.014,5.507,0,11.013a1.308,1.308,0,0,1-.281,1.016" transform="translate(-27.146 -75.562)" fill="#fff"/>
  <path id="Path_20227" data-name="Path 20227" d="M164.347,180.268c-1.441,0-2.882-.015-4.323.009-.487.008-.685-.124-.682-.651.019-3.6.012-7.206.008-10.809,0-.973.805-1.206,1.455-1.485a2.91,2.91,0,0,1,1.542-.233,3.694,3.694,0,0,0,1.323.061.8.8,0,0,1,.927.823c.022.222.024.444.024.666q0,5.174,0,10.347a1.733,1.733,0,0,1-.271,1.272" transform="translate(-37.492 -75.476)" fill="#ecf0f8"/>
  <path id="Path_20228" data-name="Path 20228" d="M137.522,136.962c-.277-.281-.153-.634-.154-.953q-.01-13.894-.011-27.789c0-.32.121-.671-.14-.958.278-1.068.547-2.138.839-3.2a1.915,1.915,0,0,1,.31-.581.572.572,0,0,1,.585-.24c.276.046.334.284.364.5a5.986,5.986,0,0,1,.031.83q0,14.83.012,29.66a1.561,1.561,0,0,1-.7,1.54,6.853,6.853,0,0,0-1.14,1.2" transform="translate(-26.535 -43.855)" fill="#e5e9f3"/>
  <path id="Path_20229" data-name="Path 20229" d="M162.628,122.877q0-7.834.006-15.667c1.111,0,2.223.009,3.334-.02.486-.013.69.122.688.652q-.025,7.21,0,14.42c0,.538-.216.656-.695.643-1.11-.03-2.222-.021-3.333-.027" transform="translate(-39.12 -45.817)" fill="#d7deec"/>
  <path id="Path_20230" data-name="Path 20230" d="M166.72,53.61c2.147,0,4.146.014,6.145-.01.524-.006.66.2.658.687q-.021,5.666,0,11.332c0,.576-.227.708-.742.688-.832-.031-1.669-.046-2.5,0-.643.039-.808-.207-.788-.815a23.751,23.751,0,0,0-.642-6.827,21.72,21.72,0,0,0-2.133-5.059" transform="translate(-41.147 -19.276)" fill="#b2bccf"/>
  <path id="Path_20231" data-name="Path 20231" d="M197.894,180.661c.945-.006,1.892.019,2.836-.029.614-.031.7.266.639.759a2.081,2.081,0,0,1-1.831,1.889q-6.545,1.12-13.094,2.212c-.3.05-.6.094-.9.141a1.037,1.037,0,0,1-.268-.766c-.024-1.084-.014-2.167-.006-3.251.005-.649.259-.911.964-.9,3.584.034,7.169.018,10.754.013a2.234,2.234,0,0,0,.906-.064" transform="translate(-50.33 -82.19)" fill="#fff"/>
  <path id="Path_20232" data-name="Path 20232" d="M141.552,3.683c-.568,1.072-1.388,1.973-1.993,3.029a35.288,35.288,0,0,0-4.541,12.966,63.127,63.127,0,0,0-.314,8.367c-.751,0-1.5,0-2.252.01-.341,0-.606-.041-.594-.483.084-3.04-.3-6.11.514-9.107A31.485,31.485,0,0,1,138.348,6.79a13.176,13.176,0,0,1,3.2-3.107" transform="translate(-23.871 5.447)" fill="#ccd4e3"/>
  <path id="Path_20233" data-name="Path 20233" d="M162.642,152.963q0-6.51,0-13.021c1.111,0,2.222.012,3.332-.016.492-.012.686.135.683.658q-.026,5.873,0,11.746c0,.531-.2.658-.688.646-1.11-.029-2.221-.011-3.332-.012" transform="translate(-39.127 -62.03)" fill="#d7deec"/>
  <path id="Path_20234" data-name="Path 20234" d="M188.34,125a18.228,18.228,0,0,1-6.468-10.3c-.137-.62-.04-.918.7-.9,1.917.05,3.836.027,5.754.034a1.416,1.416,0,0,1,.28,1.095q.012,4.488,0,8.976a1.405,1.405,0,0,1-.27,1.1" transform="translate(-48.625 -49.092)" fill="#f1f4fb"/>
  <path id="Path_20235" data-name="Path 20235" d="M123.586,77.866V64.551c.889-.008,1.778,0,2.666-.029.478-.017.7.1.7.643q-.026,6.044,0,12.087c0,.539-.22.66-.7.643-.888-.031-1.778-.021-2.666-.029" transform="translate(-19.783 -24.684)" fill="#d2d8e5"/>
  <path id="Path_20236" data-name="Path 20236" d="M167.3,180.262q0-5.879,0-11.757c0-1.251,0-1.247-1.212-1.265-.269,0-.562.085-.791-.147,1.528-.1,3-.014,4.143,1.209a3.034,3.034,0,0,1,.862,2.1c.012,3.05-.01,6.1.019,9.148.006.61-.225.759-.778.731-.747-.038-1.5-.014-2.245-.017" transform="translate(-40.441 -75.471)" fill="#d2d8e5"/>
  <path id="Path_20237" data-name="Path 20237" d="M134.874,80.077a1.189,1.189,0,0,0-.172.629c.005,1.935,0,3.869.01,5.8a1.2,1.2,0,0,0,.135.371l-2.824,10.879-.162-.02v-.854c0-5.281.018-10.562-.02-15.843-.006-.823.244-1.072,1.033-.992.661.067,1.333.021,2,.025" transform="translate(-23.872 -32.369)" fill="#ccd4e3"/>
  <path id="Path_20238" data-name="Path 20238" d="M134.693,53.587q.01,5.821.021,11.643a1.665,1.665,0,0,0,.171,1.046c-.776,0-1.553-.011-2.328.018-.477.018-.7-.107-.7-.643q.027-5.7,0-11.392c0-.506.161-.692.669-.671.719.03,1.441,0,2.162,0" transform="translate(-23.882 -19.269)" fill="#ccd4e3"/>
  <path id="Path_20239" data-name="Path 20239" d="M123.6,102.495q0-4.917-.006-9.835c.888-.006,1.777.007,2.664-.023.479-.016.7.11.7.645q-.031,4.289,0,8.578c0,.528-.2.67-.689.653-.888-.029-1.777-.015-2.665-.019" transform="translate(-19.787 -38.609)" fill="#d2d8e5"/>
  <path id="Path_20240" data-name="Path 20240" d="M146.6,180.221c0-4.1,0-8.193.021-12.289,0-.529-.144-.758-.7-.724-.607.036-1.217,0-1.826,0a6.173,6.173,0,0,1,4.48.486.989.989,0,0,1,.547.937q-.019,5.489,0,10.978c0,.536-.215.667-.693.642-.608-.032-1.219-.02-1.829-.027" transform="translate(-29.941 -75.445)" fill="#d7deeb"/>
  <path id="Path_20241" data-name="Path 20241" d="M122.45,50.1a61.437,61.437,0,0,0-1.13-12.34,4.251,4.251,0,0,1-.035-.663,5.9,5.9,0,0,1,1.778,2.257,20.507,20.507,0,0,1,2.75,9.961c0,.6-.136.856-.783.814-.857-.056-1.72-.024-2.58-.029" transform="translate(-18.644 -11.099)" fill="#d2d8e5"/>
  <path id="Path_20242" data-name="Path 20242" d="M155.4,172.112q0-5.174,0-10.347a3.477,3.477,0,0,1,.027-.748.626.626,0,0,1,1.233-.022,2.872,2.872,0,0,1,.033.664q0,10.514-.007,21.029c0,.347.2.841-.38.955s-.926-.04-.92-.766c.028-3.588.013-7.177.013-10.765" transform="translate(-35.533 -72.215)" fill="#fefeff"/>
  <path id="Path_20243" data-name="Path 20243" d="M117.039,194.277c-1.745.006-3.49.022-5.235.013-.916,0-1.1-.21-1.108-1.142q-.011-1.662,0-3.324c0-.241-.038-.564.36-.49,2.049.385,4.13.6,6.153,1.128a6.6,6.6,0,0,1,.122,3.543c-.019.139-.17.206-.292.272" transform="translate(-13.397 -86.495)" fill="#f7f8fc"/>
  <path id="Path_20244" data-name="Path 20244" d="M176.393,94.079q-1.1-4.147-2.2-8.3c-.426-1.6-.841-3.205-1.294-4.8-.185-.652-.2-1.036.681-.945a19.1,19.1,0,0,0,2.331.013c.4-.008.62.089.619.551q-.015,6.728-.006,13.457l-.129.019" transform="translate(-44.156 -32.364)" fill="#b2bccf"/>
  <path id="Path_20245" data-name="Path 20245" d="M193.723,180.675c-.26.239-.581.14-.876.141-3.551.009-7.1.024-10.653,0-.656-.005-.87.178-.845.842.051,1.329.021,2.662.024,3.994-1.3.229-2.607.452-3.908.69-.433.079-.639.016-.626-.512.036-1.5.021-3,.008-4.5,0-.422.066-.74.581-.654a20.713,20.713,0,0,0,3.8.021c4.162-.069,8.327-.023,12.491-.021" transform="translate(-46.158 -82.204)" fill="#d7deec"/>
  <path id="Path_20246" data-name="Path 20246" d="M188.157,194.983c-1.744.006-3.489.022-5.234.015-.925,0-1.106-.207-1.118-1.131-.028-2.078-.027-2.071,2.025-2.387,1.333-.205,2.662-.435,3.993-.654.359-.165.641-.049.686.326a12.585,12.585,0,0,1-.019,3.481.515.515,0,0,1-.333.35" transform="translate(-48.615 -87.204)" fill="#f6f8fc"/>
  <path id="Path_20247" data-name="Path 20247" d="M123.6,122.849l-.015-9c.917-.007,1.835-.011,2.752-.023.336,0,.552.038.611.472.472,3.479-.978,6.191-3.348,8.549" transform="translate(-19.784 -49.104)" fill="#d2d8e5"/>
  <path id="Path_20248" data-name="Path 20248" d="M163.51,197.787c-1.081-.132-2.309.227-3.561.175-.533-.023-.771-.161-.716-.715.089-.9-.384-2.05.2-2.645.513-.521,1.639-.112,2.493-.156,1.507-.079,2.463,1.011,3.567,1.744.4.265.342.886.21,1.334-.14.477-.616.219-.943.255-.357.039-.721.009-1.253.009" transform="translate(-37.391 -88.977)" fill="#bdc6d8"/>
  <path id="Path_20249" data-name="Path 20249" d="M145.077,198.033c-1.073,0-1.9-.01-2.736,0-.382.007-.535-.134-.553-.53a2.117,2.117,0,0,1,.813-1.764c1.442-1.382,3.162-1.221,4.894-1.2.365,0,.493.18.476.515,0,.056,0,.111,0,.166-.062.878.39,2.036-.174,2.569-.727.688-1.96.083-2.721.242" transform="translate(-28.797 -89.072)" fill="#cbd3e2"/>
  <path id="Path_20250" data-name="Path 20250" d="M187.3,202.312c-1.277,0-2.554.005-3.831,0-.232,0-.535.093-.624-.249a.694.694,0,0,1,.235-.751,2.726,2.726,0,0,1,1.917-.838,37.031,37.031,0,0,0,4-.007,3.7,3.7,0,0,1,2.368.825c.27.179.576.425.425.817-.133.345-.483.2-.737.2-1.249.015-2.5.007-3.748.008" transform="translate(-49.12 -92.01)" fill="#c8d0e0"/>
  <path id="Path_20251" data-name="Path 20251" d="M116.094,200.489c.722,0,1.445.029,2.164-.006a3.254,3.254,0,0,1,2.2,1.011.537.537,0,0,1,.214.591c-.087.292-.349.226-.559.226q-3.913.008-7.827,0c-.21,0-.476.067-.563-.221a.638.638,0,0,1,.209-.752,2.966,2.966,0,0,1,2.078-.866,19.567,19.567,0,0,0,2.08.016" transform="translate(-13.89 -92.012)" fill="#c8d1e0"/>
  <path id="Path_20252" data-name="Path 20252" d="M123.268,195.391a9.426,9.426,0,0,0,.167-2.832c.025-.326,0-.655,0-.983a17.578,17.578,0,0,1,2.854.424.522.522,0,0,1,.5.627c-.027.609-.022,1.22,0,1.829.021.664-.27.975-.941.959-.859-.021-1.719-.018-2.577-.025" transform="translate(-19.626 -87.61)" fill="#d2d8e5"/>
  <path id="Path_20253" data-name="Path 20253" d="M156.226,66.35a2.592,2.592,0,0,1,.51,1.875c-.016.247-.063.44-.349.471a2.757,2.757,0,0,0-2.332-.837c-.5.023-1,0-1.5,0a2.447,2.447,0,0,0-1.911.611c-.341.347-.561.27-.611-.256a1.949,1.949,0,0,1,2.152-2.368c.777,0,1.554.007,2.33-.016a2.605,2.605,0,0,1,1.709.517" transform="translate(-32.875 -25.333)" fill="#abb5c7"/>
  <path id="Path_20254" data-name="Path 20254" d="M154.088,84.7c.059.7-.2,1.061-.936,1.058-.684,0-1.038-.289-1.036-.986,0-.63.286-.994.942-1,.636-.007,1.106.177,1.03.929" transform="translate(-33.914 -34.218)" fill="#99a5ba"/>
  <path id="Path_20255" data-name="Path 20255" d="M159.837,84.723c.07.674-.192,1.028-.931,1.026-.682,0-.929-.3-.937-.962-.009-.682.2-1.045.944-1.038.672.007.981.291.924.974" transform="translate(-36.812 -34.207)" fill="#99a4ba"/>
  <path id="Path_20256" data-name="Path 20256" d="M147.378,139.119c-.4.008-.808-.046-.81-.446,0-.474.464-.369.777-.367s.779-.114.763.374c-.013.39-.419.455-.73.439" transform="translate(-31.165 -61.222)" fill="#9ea9bd"/>
  <path id="Path_20257" data-name="Path 20257" d="M122.271,165.739a3.24,3.24,0,0,1-3.322-3.146c.025-.27-.04-.623.352-.631.326-.007.329.3.353.556a2.573,2.573,0,0,0,4.071,2.026c.225-.171.478-.249.654.012.208.31-.021.507-.272.669a2.763,2.763,0,0,1-1.837.514" transform="translate(-17.483 -72.944)" fill="#99a4ba"/>
  <path id="Path_20258" data-name="Path 20258" d="M127.983,159.743a2.7,2.7,0,0,1,0,.333c-.044.359.094.921-.491.856-.565-.064-.262-.539-.217-.867a2.658,2.658,0,0,0-2.358-2.9c-.138-.014-.278,0-.416-.006-.252-.007-.542.013-.52-.36.021-.356.315-.322.561-.341a3.132,3.132,0,0,1,3.443,3.288" transform="translate(-19.977 -70.211)" fill="#99a4ba"/>
  <path id="Path_20259" data-name="Path 20259" d="M185.225,160.174c-.834,0-1.668-.011-2.5,0-.636.011-.906-.289-.9-.915.014-1.111.021-2.224,0-3.335-.012-.575.22-.792.791-.786,1.779.019,3.558.017,5.337,0,.543,0,.741.23.732.755-.018,1.139-.01,2.279,0,3.419a.75.75,0,0,1-.869.859c-.862-.008-1.724,0-2.585,0" transform="translate(-48.626 -69.566)" fill="#d7deec"/>
  <path id="Path_20260" data-name="Path 20260" d="M186.278,160.111c-.609,0-1.22-.034-1.827.01s-.649-.287-.661-.763c-.013-.518.12-.8.691-.726a3.809,3.809,0,0,0,.5,0c1.361,0,1.378,0,1.486-1.329.033-.4.194-.5.563-.523,1.772-.125,1.772-.135,1.772,1.63,0,1.7,0,1.7-1.692,1.7h-.831" transform="translate(-49.6 -70.355)" fill="#fefefe"/>
  <path id="Path_20261" data-name="Path 20261" d="M64.768,142.678a1.555,1.555,0,0,0,1.691-.683,25.213,25.213,0,0,0,1.611-2.009,2.767,2.767,0,0,1,4.449-.12,1.5,1.5,0,0,0,1.219.657A2.348,2.348,0,0,1,75.8,142.76c-.017.229-.023.48-.3.518-.3.04-.32-.213-.388-.434-.414-1.353-.812-1.631-2.208-1.531a.629.629,0,0,1-.652-.388c-.682-1.134-1.292-1.473-2.366-1.25-.979.2-1.3.937-1.687,1.821a3.9,3.9,0,0,1-1.97,1.93,8.785,8.785,0,0,1-2.972.073c-.211,0-.4-.077-.417-.314s.167-.32.372-.363a5.837,5.837,0,0,1,1.562-.145" transform="translate(10.306 -61.474)" fill="#99a5ba"/>
  <path id="Path_20262" data-name="Path 20262" d="M113.528,206.6c.019.625-.4,7.895-.462,9.073a1.094,1.094,0,0,0,.609,1.108,23.255,23.255,0,0,1,6.527,6.189,26.257,26.257,0,0,1,3.246,6.249,9.013,9.013,0,0,1,4.468-5.705,8.641,8.641,0,0,1,2.772-.9c.444-.071.614-.209.263-.649a6.269,6.269,0,0,0-1.332-1.337A7.149,7.149,0,0,0,121,220.6c-.252.167-.528.373-.758.086-.254-.318.068-.567.3-.686.653-.34.7-.875.667-1.52-.094-1.809-.13-3.621-.207-5.431-.1-2.391-.227-4.782-.328-7.173h-7.129a6.1,6.1,0,0,0-.019.723" transform="translate(-14.572 -94.696)" fill="#f6f6f6"/>
  <path id="Path_20263" data-name="Path 20263" d="M113.528,206.6c.019.625-.4,7.895-.462,9.073a1.094,1.094,0,0,0,.609,1.108,23.255,23.255,0,0,1,6.527,6.189,26.257,26.257,0,0,1,3.246,6.249,9.013,9.013,0,0,1,4.468-5.705,8.641,8.641,0,0,1,2.772-.9c.444-.071.614-.209.263-.649a6.269,6.269,0,0,0-1.332-1.337A7.149,7.149,0,0,0,121,220.6c-.252.167-.528.373-.758.086-.254-.318.068-.567.3-.686.653-.34.7-.875.667-1.52-.094-1.809-.13-3.621-.207-5.431-.1-2.391-.227-4.782-.328-7.173h-7.129A6.1,6.1,0,0,0,113.528,206.6Z" transform="translate(-14.572 -94.696)" fill="none" stroke="#ccd4e2" stroke-width="1"/>
  <path id="Path_20264" data-name="Path 20264" d="M162.295,66.818l-.02.008.021.013c0-.007,0-.014,0-.021" transform="translate(-38.945 -25.822)" fill="#98a3b9"/>
  <path id="Path_20265" data-name="Path 20265" d="M157.463,82.924a4.532,4.532,0,0,0-1.432-3.424c-1.83-1.83-3.628-3.691-5.489-5.488a3.5,3.5,0,0,1-1.107-2.736c.029-5.472.014-10.946.014-16.418V43.281c0-4.221-.021-8.442.007-12.663a19.44,19.44,0,0,0-1.631-7.674,13.377,13.377,0,0,0-2.952-4.7,1.3,1.3,0,0,0-2.1,0,10.412,10.412,0,0,0-2.014,2.74,37.607,37.607,0,0,0-1.808,4.082c-.063-1.148-.06-2.28-.063-3.412a21.624,21.624,0,0,0-1.425-7.713c-.573-1.5-1.288-2.938-1.925-4.409a.927.927,0,0,0-.473-.838c-.119-.185-.233-.372-.356-.554a30.275,30.275,0,0,0-5.532-6.769c-1.93-1.59-4.026-1.842-5.858-.528a19.87,19.87,0,0,0-3.638,3.506c-1.1,1.321-1.943,2.817-2.968,4.187-.167.35-.319.707-.5,1.048a24.682,24.682,0,0,0-3.349,12.382c.025,1.026,0,2.052,0,3.078a18.837,18.837,0,0,1-.859-1.927,14.068,14.068,0,0,0-3.063-4.911,1.265,1.265,0,0,0-1.98-.035,7.454,7.454,0,0,0-1.214,1.367A21.046,21.046,0,0,0,102.2,31.152c-.049,13.992-.023,27.984-.007,41.976a1.946,1.946,0,0,1-.627,1.534c-1.672,1.632-3.3,3.307-4.953,4.96a4.652,4.652,0,0,0-1.422,3.28c-.047,2.92-.038,5.841-.006,8.762a2.78,2.78,0,0,0,2.37,2.884c1.243.261,2.5.453,3.759.64.605.09.933.288.885,1-.068,1,.032,2-.031,3a2.038,2.038,0,0,0,1.366,2.176c-.911.351-.7,1.2-1.029,1.784-.46.813-.207,1.348.718,1.372.519.014.649.2.638.662h8.71c-.113-.495-.021-.805.728-.773a.647.647,0,0,0,.657-.968c-.375-.669-.138-1.592-.906-2.075-.132-.083-.14-.217.034-.314,1.01-.563.956-1.52.939-2.483-.023-1.372,0-1.407,1.3-1.109.485.111,1.108-.033,1.4.651.115.271.564.124.863.131.667.014,1.334.006,2,.011.045,0,.09.042.144.07-.007.278-.254.328-.423.451a2.019,2.019,0,0,0-.986,1.726,1.524,1.524,0,0,1-.487,1.353.911.911,0,0,0-.243,1.135,1.051,1.051,0,0,0,.934.6c.543.078.513.014,1.407.182a1.932,1.932,0,0,0,.724.024c.193-.033.325-.111.379-.11,1.112.022,2.226.009,3.339.006.284,0,.52.065.488.406-.069.735.366.818.94.781a10.245,10.245,0,0,1,1.168,0c.42.021.644-.134.593-.575-.055-.48.165-.627.626-.619,1.2.022,2.393.024,3.59,0,.47-.01.479.133.479.133.761.231.912.362,1.152.292.295-.086.212-.327.546-.524.485-.287.9.167,1.378-.172a.929.929,0,0,0,.219-1.552,1.012,1.012,0,0,1-.34-.723,2.435,2.435,0,0,0-1.421-2.514.367.367,0,0,1-.27-.375c.7,0,1.371.021,2.037-.007.473-.02,1,.21,1.305-.517.113-.267.855-.39,1.306-.251.411.126.21.575.218.878.03,1.077-.222,2.249,1.2,2.806-.815.637-.638,1.612-1.089,2.355-.285.47.237.9.758.9.051,0,.248.1.523.157a2.556,2.556,0,0,0,.793.076,4.28,4.28,0,0,0,.518-.115c1.753.018,3.507.039,5.259-.008.1,0,.343.137.693.181a3.52,3.52,0,0,0,1.023-.039c.313-.049.455-.159.628-.146.589.044,1.106-.426.823-.929-.421-.746-.247-1.741-1.14-2.327a1.759,1.759,0,0,0,1.081-2.012c-.056-.943-.026-1.891,0-2.837.012-.524.131-.96.8-1.061,1.613-.243,3.219-.536,4.826-.821a2.668,2.668,0,0,0,2.366-2.842c.005-2.921-.028-5.843.015-8.764M145.419,68.642a18.227,18.227,0,0,1-6.468-10.3c-.137-.62-.04-.918.7-.9,1.917.05,3.836.027,5.754.034a1.416,1.416,0,0,1,.28,1.095q.012,4.488,0,8.977a1.4,1.4,0,0,1-.27,1.1m-5.661-36.879c-.709.046-.9-.209-.872-.9a20.077,20.077,0,0,1,3.856-11.485c.322-.438.625-.959,1.323-.8a2.206,2.206,0,0,1,.542,1.195,49.944,49.944,0,0,1,.9,8.272c.018.89.236,1.764.173,2.658a1.442,1.442,0,0,1-.266,1.019c-.777.008-1.554.012-2.33.024-.314.005-.665.023-.636.457.024.37.349.371.633.375l2.33.022a1.391,1.391,0,0,1,.284,1.092q.012,5.562,0,11.124a1.391,1.391,0,0,1-.284,1.092c-.635.008-1.271.013-1.907.024-.3.005-.577.093-.549.459.024.311.285.368.553.371l1.907.023a1.43,1.43,0,0,1,.281,1.094q.011,3.818,0,7.637a1.482,1.482,0,0,1-.275,1.1c-1.919.006-3.839-.015-5.757.032-.661.016-.779-.24-.773-.829q.039-4.131,0-8.261c-.007-.616.16-.878.794-.8a5.8,5.8,0,0,0,.917-.009c.243-.009.453-.1.467-.373.018-.328-.221-.412-.493-.434-.056-.005-.112,0-.167-.005-1.506-.1-1.506-.1-1.506-1.655,0-3.588.017-7.177-.015-10.765-.006-.7.12-1.02.9-.959.408.032,1.173.285,1.187-.334.016-.678-.761-.488-1.212-.458m-23.051,7.974h0c-.776,0-1.553-.011-2.328.018-.477.018-.7-.107-.7-.643q.027-5.7,0-11.392c0-.506.161-.692.669-.671.719.03,1.441,0,2.162,0,.238-.269.514-.537.023-.826h0c-.751,0-1.5,0-2.252.009-.341,0-.606-.041-.594-.482.084-3.041-.3-6.11.514-9.107a31.5,31.5,0,0,1,5.975-11.677,13.2,13.2,0,0,1,3.2-3.107c.551-.432,1.028-1,1.817-.992l1.509-.008h0a5.842,5.842,0,0,1,2.612,1.7,30,30,0,0,1,8.514,15.569,32.161,32.161,0,0,1,.23,6.3c.024,1.805.005,1.806-1.766,1.805q-2.624,0-5.248-.006c-.359-.007-.518-.259-.679-.529q-.976-1.635-1.966-3.261a2.655,2.655,0,0,0-4.4.028c-.709,1.148-1.317,2.358-2.133,3.439-.243.526-.721.27-1.1.329-.33.051-.846-.149-.878.364-.037.613.526.393.872.45.107.018.216.029.38.051-.548,1.274-1.263,2.431-1.684,3.724a13.54,13.54,0,0,0-.931,5.2c.3,3.909-.816,7.555-1.858,11.226h0L113.855,58.12l-.162-.02v-.855c0-5.28.018-10.562-.02-15.842-.006-.823.244-1.072,1.033-.992.661.067,1.332.021,2,.025a.417.417,0,0,0,0-.7m20.633.024c-.832-.031-1.668-.046-2.5,0-.643.039-.808-.208-.788-.815a23.773,23.773,0,0,0-.642-6.828,21.738,21.738,0,0,0-2.133-5.058c2.147,0,4.146.014,6.144-.01.524-.006.66.2.658.687q-.021,5.665,0,11.332c0,.576-.227.708-.742.688m.736,1.208q-.014,6.728-.006,13.456l-.129.019q-1.1-4.147-2.2-8.295c-.426-1.6-.841-3.206-1.294-4.8-.185-.652-.2-1.035.681-.945a19.1,19.1,0,0,0,2.331.013c.4-.008.619.089.618.551m-33.357-9.2c-.193-.017-.389-.015-.583-.018-1.186-.019-1.167.176-1.122-1.1a20.179,20.179,0,0,1,3.761-11.181c.339-.477.689-1.265,1.57-.74a5.888,5.888,0,0,1,1.778,2.257,20.5,20.5,0,0,1,2.75,9.961c0,.6-.136.856-.783.814-.857-.056-1.719-.024-2.579-.029-.413.012-.827.01-1.238.041a.4.4,0,0,0,0,.794c.412.024.825.025,1.238.035h0c.889-.007,1.778,0,2.666-.029.477-.017.7.1.7.643q-.027,6.043,0,12.087c0,.538-.22.659-.7.643-.888-.031-1.777-.022-2.666-.029l-2.556.022c-.295,0-.593.055-.593.414s.307.406.6.409c.852.01,1.7.016,2.556.024h0c.888-.005,1.777.007,2.664-.023.479-.016.7.109.7.645q-.031,4.289,0,8.578c0,.528-.2.669-.689.653-.888-.029-1.777-.015-2.665-.019-1.918.006-3.837-.006-5.755.027-.562.01-.774-.137-.772-.74q.028-11.3,0-22.605c0-.614.226-.779.779-.725a6.947,6.947,0,0,0,.917-.007c.248-.009.448-.117.46-.384s-.175-.394-.424-.415m-1.733,26.581c0-.66.126-.929.857-.907,1.887.057,3.776.03,5.664.036h0c.917-.007,1.835-.011,2.752-.023.336,0,.552.038.611.472.472,3.479-.978,6.191-3.348,8.549l-6.57,6.264c-.047-.041.054-.277.053-.479-.007-4.637.007-9.274-.019-13.912m9.5,44.455c-.087.292-.349.225-.559.226q-3.913.007-7.826,0c-.21,0-.476.066-.563-.222a.636.636,0,0,1,.209-.752,2.961,2.961,0,0,1,2.078-.866,19.572,19.572,0,0,0,2.08.015c.722,0,1.445.029,2.165-.006a3.254,3.254,0,0,1,2.2,1.011.536.536,0,0,1,.214.591m.376-3.226c.021.664-.271.975-.941.958-.859-.021-1.718-.018-2.578-.025-1.745.006-3.49.022-5.235.013-.916,0-1.1-.209-1.108-1.142-.008-1.108,0-2.216,0-3.324,0-.241-.038-.564.36-.49,2.049.385,4.131.6,6.153,1.128a17.59,17.59,0,0,1,2.855.423.522.522,0,0,1,.5.627c-.027.609-.022,1.22,0,1.83m2.43-2.713c-3.3-.6-6.6-1.159-9.9-1.728q-3.765-.648-7.532-1.284a2.132,2.132,0,0,1-1.872-1.927c-.041-.583.153-.759.742-.754,3.144.027,6.288.013,9.433.013v.027c3.061,0,6.122.023,9.182-.017.715-.01.9.213.871.893-.049,1.334-.071,2.674.007,4.005.047.809-.232.9-.926.772m1.4-11.026a6.755,6.755,0,0,0-.5,2.088.347.347,0,0,1-.4.4c-.167,0-.334,0-.5,0q-7.715,0-15.429,0c-1.543,0-1.892-.512-2.069-2.034a5.855,5.855,0,0,1,2.174-5.289c4.142-3.949,8.083-8.11,12.143-12.147a8.273,8.273,0,0,0,1.9-4q1.2-4.362,2.378-8.728h0c.277-1.068.547-2.138.838-3.2a1.927,1.927,0,0,1,.31-.581.573.573,0,0,1,.586-.24c.276.046.334.284.364.5a5.992,5.992,0,0,1,.03.831q0,14.829.013,29.659a1.561,1.561,0,0,1-.7,1.54,6.9,6.9,0,0,0-1.141,1.2m1,11.712c-.492.01-.687-.13-.683-.656.022-3.087-.009-6.175.025-9.262a3.313,3.313,0,0,1,2.823-3.142h0a6.173,6.173,0,0,1,4.477.487.99.99,0,0,1,.547.937q-.02,5.489,0,10.978c0,.536-.215.667-.693.642-.608-.032-1.219-.02-1.828-.026-1.558.012-3.115.01-4.672.043m7.011,3.9c-.727.688-1.96.083-2.721.242-1.074,0-1.9-.01-2.736,0-.382.006-.534-.135-.552-.531a2.115,2.115,0,0,1,.813-1.765c1.442-1.382,3.161-1.221,4.893-1.2.365,0,.493.18.476.515,0,.056,0,.111,0,.167-.062.877.39,2.035-.174,2.569m1.772,2.709c-.593.116-.926-.04-.92-.766.028-3.588.013-7.177.013-10.765q0-5.174,0-10.348a3.478,3.478,0,0,1,.028-.748.626.626,0,0,1,1.232-.021,2.816,2.816,0,0,1,.033.664q0,10.514-.007,21.029c0,.346.2.841-.38.955M126.2,80.183c-.828.017-1.321.637-1.33,1.675-.007.751-.012,1.5-.023,2.252,0,.043-.054.085-.118.179-1.564-1.008-3.314-.606-5.009-.575-.447.008-.539-.077-.514-.457.007-.111,0-.223,0-.334,0-9.291.01-18.582-.018-27.873,0-.775.212-1.038.974-.961a16.081,16.081,0,0,0,1.751.01c.329,0,.767.05.751-.423s-.466-.376-.785-.381a15.237,15.237,0,0,0-1.751.008c-.721.072-.945-.154-.94-.91.036-5.146.017-10.292.02-15.439a17.409,17.409,0,0,1,.981-5.877c.223-.626.539-1.219.76-1.846a1.975,1.975,0,0,1,2.089-1.323c1.724-.016,3.449.007,5.173.013.472-.007.945-.036,1.416-.016a1.89,1.89,0,0,1,1.735,1.072,16.729,16.729,0,0,1,1.859,7.737c.032,5.2-.009,10.393.029,15.589.006.824-.244,1.05-1.032.994-1-.07-2-.024-3-.029-.887.008-1.774.013-2.661.024-.311,0-.671,0-.639.443.027.371.359.359.639.362q1.331.014,2.661.022c1.111,0,2.223.009,3.334-.02.486-.012.69.122.688.652q-.024,7.21,0,14.42c0,.538-.216.656-.695.643-1.11-.029-2.222-.02-3.333-.027-1.632.007-3.265.011-4.9.022-.292,0-.7-.065-.683.376.015.359.366.434.695.435q2.448.007,4.9.019c1.111,0,2.222.012,3.332-.016.492-.013.686.134.684.657q-.026,5.873,0,11.747c0,.531-.2.658-.689.645-1.11-.029-2.221-.011-3.332-.012-.18.071-.359.143-.54.213-1.115.432-1.115.432-1.115-.814,0-.417,0-.834,0-1.252-.011-1.042-.517-1.643-1.363-1.627m7.61,19.758c.4.265.342.886.21,1.333-.14.477-.616.219-.943.255-.357.039-.721.009-1.253.009-1.081-.132-2.309.227-3.562.174-.532-.022-.77-.16-.716-.715.089-.9-.384-2.049.2-2.645.513-.521,1.639-.112,2.494-.156,1.506-.079,2.462,1.011,3.567,1.744m.994-2.4c-.746-.038-1.5-.015-2.245-.017-1.441,0-2.882-.015-4.323.009-.488.008-.685-.124-.683-.651.019-3.6.013-7.205.008-10.808,0-.973.805-1.206,1.455-1.486a2.917,2.917,0,0,1,1.542-.233c1.528-.1,3-.014,4.143,1.209a3.032,3.032,0,0,1,.862,2.1c.012,3.049-.009,6.1.019,9.148.006.61-.225.759-.779.731M134.62,84.51a1.317,1.317,0,0,1-.575-1.256c.015-4.42.009-8.841.009-13.262q0-8.466.011-16.932c0-.349-.264-.9.444-.955.595-.043.789.3.931.831.962,3.579,1.957,7.147,2.942,10.72.283,1.01.545,2.026.853,3.029A5.886,5.886,0,0,0,140.8,69.11q6.676,6.664,13.346,13.333a2.4,2.4,0,0,1,.787,1.924c-.034.777.016,1.559-.016,2.336a1.393,1.393,0,0,1-.975,1.48h0c-.224.24-.518.16-.787.16-5.31,0-10.621-.01-15.931.007-.579,0-.82-.109-.863-.755a4.012,4.012,0,0,0-1.741-3.086m4.274,14.883c-.028-2.078-.027-2.071,2.025-2.387,1.333-.2,2.662-.435,3.993-.654.359-.165.64-.049.686.326a12.586,12.586,0,0,1-.019,3.481.514.514,0,0,1-.333.35c-1.744.006-3.489.022-5.234.014-.925,0-1.106-.207-1.118-1.13m9.479,3.432c-.133.345-.483.2-.737.2-1.249.015-2.5.007-3.748.008-1.277,0-2.554.005-3.831,0-.232,0-.534.093-.624-.25a.694.694,0,0,1,.235-.751,2.727,2.727,0,0,1,1.917-.838,37.286,37.286,0,0,0,4-.007,3.7,3.7,0,0,1,2.368.824c.27.179.576.426.425.817m8.37-10.894a2.08,2.08,0,0,1-1.832,1.889q-6.544,1.12-13.094,2.212c-.3.05-.6.094-.9.142-1.3.229-2.607.452-3.908.69-.432.079-.639.017-.626-.512.037-1.5.021-3,.008-4.5,0-.422.067-.74.582-.655a20.664,20.664,0,0,0,3.8.021c4.163-.069,8.327-.023,12.492-.021.945-.006,1.892.02,2.835-.029.615-.032.7.266.639.759" transform="translate(-5.704 7.271)" fill="#98a3b9"/>
  <rect id="Rectangle_1396" data-name="Rectangle 1396" width="163.745" height="144.057" transform="translate(41.425 7.271)" fill="none"/>
  <rect id="Rectangle_1397" data-name="Rectangle 1397" width="163.745" height="144.057" transform="translate(41.425 7.271)" fill="none"/>
  <path id="Path_20266" data-name="Path 20266" d="M5.647,0,4.122,4.122,0,5.647,4.122,7.172l1.525,4.122L7.173,7.172l4.122-1.525L7.173,4.122Z" transform="translate(23.812 103.41)" fill="#cbd4e3"/>
  <path id="Path_20267" data-name="Path 20267" d="M4.6,0,3.354,3.354,0,4.595,3.354,5.836,4.6,9.19,5.836,5.836,9.19,4.595,5.836,3.354Z" transform="translate(15.675 33.503)" fill="#cbd4e3"/>
  <path id="Path_20268" data-name="Path 20268" d="M3.543,0,2.586,2.586,0,3.542,2.586,4.5l.957,2.586L4.5,4.5l2.586-.957L4.5,2.586Z" transform="translate(35.106 0)" fill="#cbd4e3"/>
  <path id="Path_20269" data-name="Path 20269" d="M3.07,0,2.241,2.24,0,3.069l2.24.829.829,2.24L3.9,3.9l2.24-.829L3.9,2.24Z" transform="translate(0 68.75)" fill="#cbd4e3"/>
  <path id="Path_20270" data-name="Path 20270" d="M6.236,0,4.552,4.552,0,6.236,4.552,7.92l1.684,4.552L7.92,7.92l4.552-1.684L7.92,4.552Z" transform="translate(190.628 124.927)" fill="#cbd4e3"/>
  <path id="Path_20271" data-name="Path 20271" d="M3.351,0,2.446,2.446,0,3.351l2.446.905L3.351,6.7l.9-2.446L6.7,3.351l-2.446-.9Z" transform="translate(239.13 61.372)" fill="#cbd4e3"/>
  <path id="Path_20273" data-name="Path 20273" d="M4.6,0,3.354,3.354,0,4.595,3.354,5.836,4.6,9.19,5.836,5.836,9.19,4.595,5.836,3.354Z" transform="translate(201.459 82.496)" fill="#cbd4e3"/>
  <path id="Path_20272" data-name="Path 20272" d="M4.6,0,3.354,3.354,0,4.595,3.354,5.836,4.6,9.19,5.836,5.836,9.19,4.595,5.836,3.354Z" transform="translate(215.508 9.456)" fill="#cbd4e3"/>
</svg>
