<svg xmlns="http://www.w3.org/2000/svg" xmlns:xlink="http://www.w3.org/1999/xlink" width="184" height="154" viewBox="0 0 184 154">
  <defs>
    <linearGradient id="linear-gradient" x1="0.5" y1="1" x2="0.5" gradientUnits="objectBoundingBox">
      <stop offset="0" stop-color="gray" stop-opacity="0.251"/>
      <stop offset="0.54" stop-color="gray" stop-opacity="0.122"/>
      <stop offset="1" stop-color="gray" stop-opacity="0.102"/>
    </linearGradient>
    <linearGradient id="linear-gradient-2" x1="0.5" y1="1" x2="0.5" y2="0" xlink:href="#linear-gradient"/>
  </defs>
  <g id="image" transform="translate(0.004 0)">
    <path id="shape" class="svg-fill-primary" d="M138.113,52.169c-6.919,1.237-14.863,3.442-17.662,10.22-2.558,6.2.444,13.177,2.464,19.59a66.567,66.567,0,0,1,3.063,19.56c.052,9.334-1.769,19.177,1.93,27.659,4.173,9.569,14.5,15.1,18.122,24.913,1.518,4.113,1.7,8.613,2.426,12.959a50.881,50.881,0,0,0,12.419,25.772c4.277,4.684,9.846,8.615,16.014,8.709,4.679.073,9.1-2.048,13.431-3.9a136.717,136.717,0,0,1,15.52-5.564,18.752,18.752,0,0,1,6.817-1.042c4.434.382,8.132,3.633,12.34,5.162,11.4,4.13,23.193-4.845,35.225-5.791,10.315-.813,20.675,4.367,30.81,2.2a5.527,5.527,0,0,0,3.873-2.275c1.3-2.281-.312-5.438.84-7.8s4.263-2.61,6.09-4.409c1.859-1.832,2.01-4.994,1.062-7.482s-2.776-4.468-4.533-6.405A274.7,274.7,0,0,1,274.4,133.73c-7.4-10.935-14.335-23.8-12.252-37.048.72-4.56,2.489-8.875,3.291-13.42s.473-9.692-2.47-13.122c-1.757-2.05-4.223-3.233-6.616-4.361-22.318-10.522-46.23-21.3-70.394-17.313-3.934.648-7.828,1.688-11.808,1.83-5.76.206-11.182-2.365-16.808-1.53C150.95,49.708,144.5,51.027,138.113,52.169Z" transform="translate(-119.47 -47.551)" fill="#1080b0" opacity="0.1"/>
    <g id="plant" transform="translate(12.416 8.243)">
      <path id="tronco" d="M228.2,134.55s-7.843-4.306-10.169-10.9a13.556,13.556,0,0,0-5.219-6.805,22.8,22.8,0,0,0-3.669-1.983" transform="translate(-204.461 -110.215)" fill="none" stroke="#484848" stroke-miterlimit="10" stroke-width="2"/>
      <path class="svg-fill-primary" id="shape-2" data-name="shape" d="M187.793,91c.742.746,1.541,4.252,1.541,4.252s-3.5-.82-4.243-1.567a1.907,1.907,0,0,1,2.7-2.685Z" transform="translate(-184.601 -90.498)" fill="#1080b0"/>
      <path class="svg-fill-primary" id="shape-3" data-name="shape" d="M218.668,97.064c.217,1.03-1.016,4.407-1.016,4.407s-2.492-2.591-2.71-3.623a1.907,1.907,0,0,1,3.728-.786Z" transform="translate(-209.137 -94.653)" fill="#1080b0"/>
      <path class="svg-fill-primary" id="shape-4" data-name="shape" d="M255.225,130.023c-.332,1-3.1,3.291-3.1,3.291s-.843-3.5-.511-4.494a1.909,1.909,0,1,1,3.623,1.2Z" transform="translate(-238.771 -120.454)" fill="#1080b0"/>
      <path class="svg-fill-primary" id="shape-5" data-name="shape" d="M275.964,165.567c-.158,1.039-2.5,3.768-2.5,3.768s-1.422-3.3-1.264-4.342a1.907,1.907,0,1,1,3.766.572Z" transform="translate(-255.485 -149.403)" fill="#1080b0"/>
      <path class="svg-fill-primary" id="shape-6" data-name="shape" d="M206.953,125.63c1.053-.011,4.081-1.953,4.081-1.953s-3.072-1.869-4.124-1.857a1.907,1.907,0,0,0,.044,3.814Z" transform="translate(-201.13 -115.847)" fill="#1080b0"/>
      <path class="svg-fill-primary" id="shape-7" data-name="shape" d="M229.974,166.259c1-.326,3.308-3.083,3.308-3.083s-3.491-.864-4.491-.538a1.907,1.907,0,0,0,1.182,3.623Z" transform="translate(-219.355 -148.823)" fill="#1080b0"/>
    </g>
    <g id="plant-2" data-name="plant" transform="translate(5.361 34.668)">
      <path id="tronco-2" data-name="tronco" d="M191.2,272.55s-7.843-4.306-10.169-10.9a13.555,13.555,0,0,0-5.219-6.805,22.8,22.8,0,0,0-3.669-1.983" transform="translate(-167.461 -248.215)" fill="none" stroke="#484848" stroke-miterlimit="10" stroke-width="2"/>
      <path class="svg-fill-primary" id="shape-8" data-name="shape" d="M150.793,229c.742.746,1.541,4.252,1.541,4.252s-3.5-.82-4.243-1.567a1.907,1.907,0,0,1,2.7-2.685Z" transform="translate(-147.601 -228.498)" fill="#1080b0"/>
      <path class="svg-fill-primary" id="shape-9" data-name="shape" d="M181.668,235.064c.217,1.03-1.016,4.407-1.016,4.407s-2.492-2.591-2.71-3.623a1.907,1.907,0,0,1,3.728-.786Z" transform="translate(-172.136 -232.653)" fill="#1080b0"/>
      <path class="svg-fill-primary" id="shape-10" data-name="shape" d="M218.225,268.023c-.332,1-3.1,3.291-3.1,3.291s-.843-3.5-.511-4.494a1.909,1.909,0,0,1,3.623,1.2Z" transform="translate(-201.771 -258.454)" fill="#1080b0"/>
      <path class="svg-fill-primary" id="shape-11" data-name="shape" d="M238.964,303.567c-.158,1.039-2.5,3.768-2.5,3.768s-1.422-3.3-1.264-4.342a1.907,1.907,0,1,1,3.766.572Z" transform="translate(-218.485 -287.403)" fill="#1080b0"/>
      <path class="svg-fill-primary" id="shape-12" data-name="shape" d="M169.953,263.63c1.053-.011,4.081-1.953,4.081-1.953s-3.072-1.869-4.124-1.857a1.907,1.907,0,1,0,.044,3.814Z" transform="translate(-164.13 -253.847)" fill="#1080b0"/>
      <path class="svg-fill-primary" id="shape-13" data-name="shape" d="M192.4,304.259c1-.326,3.308-3.083,3.308-3.083s-3.491-.864-4.491-.538a1.907,1.907,0,1,0,1.182,3.623Z" transform="translate(-181.781 -286.823)" fill="#1080b0"/>
      <path class="svg-fill-primary" id="shape-14" data-name="shape" d="M223.488,339.56c1.041-.153,3.783-2.479,3.783-2.479s-3.295-1.442-4.334-1.289a1.907,1.907,0,1,0,.553,3.77Z" transform="translate(-207.187 -315.324)" fill="#1080b0"/>
    </g>
    <path id="shadow" d="M338.785,47.27H249.849A8.143,8.143,0,0,0,241.69,55.4V178.474a8.143,8.143,0,0,0,8.159,8.128h88.936a8.142,8.142,0,0,0,8.159-8.126V55.394A8.143,8.143,0,0,0,338.785,47.27Z" transform="translate(-218.296 -47.27)" fill="url(#linear-gradient)"/>
    <rect id="device" width="102.748" height="136.408" rx="4" transform="translate(24.648 1.669)" fill="#181818"/>
    <rect id="Rectangle_4" data-name="Rectangle 4" width="92.307" height="110.602" transform="translate(29.869 14.573)" fill="#f1f1f4"/>
    <ellipse id="Ellipse_1" data-name="Ellipse 1" cx="1.254" cy="1.252" rx="1.254" ry="1.252" transform="translate(74.351 6.673)" fill="#fff"/>
    <ellipse id="Ellipse_2" data-name="Ellipse 2" cx="3.76" cy="3.755" rx="3.76" ry="3.755" transform="translate(71.845 127.647)" fill="#fff"/>
    <path class="svg-fill-primary" id="app" d="M4.016,0h10.04a4.016,4.016,0,0,1,4.016,4.016v10.04a4.016,4.016,0,0,1-4.016,4.016H4.016A4.016,4.016,0,0,1,0,14.056V4.016A4.016,4.016,0,0,1,4.016,0Z" transform="translate(40.989 28.94)" fill="#1080b0"/>
    <path id="app-2" data-name="app" d="M4.016,0h10.04a4.013,4.013,0,0,1,4.016,4.011V14.038a4.013,4.013,0,0,1-4.016,4.011H4.016A4.013,4.013,0,0,1,0,14.038V4.011A4.013,4.013,0,0,1,4.016,0Z" transform="translate(111.055 46.912) rotate(180)" fill="#d4d4d4"/>
    <path class="svg-fill-primary" id="app-3" data-name="app" d="M4.016,0h10.04a4.016,4.016,0,0,1,4.016,4.016v10.04a4.016,4.016,0,0,1-4.016,4.016H4.016A4.016,4.016,0,0,1,0,14.056V4.016A4.016,4.016,0,0,1,4.016,0Z" transform="translate(67.025 28.94)" fill="#1080b0"/>
    <path class="svg-fill-primary" id="app-4" data-name="app" d="M4.016,0h10.04a4.016,4.016,0,0,1,4.016,4.016v10.04a4.016,4.016,0,0,1-4.016,4.016H4.016A4.016,4.016,0,0,1,0,14.056V4.016A4.016,4.016,0,0,1,4.016,0Z" transform="translate(40.989 60.678)" fill="#1080b0"/>
    <path id="app-5" data-name="app" d="M4.016,0h10.04a4.013,4.013,0,0,1,4.016,4.011V14.038a4.013,4.013,0,0,1-4.016,4.011H4.016A4.013,4.013,0,0,1,0,14.038V4.011A4.013,4.013,0,0,1,4.016,0Z" transform="translate(111.055 78.651) rotate(180)" fill="#d4d4d4"/>
    <path id="app-6" data-name="app" d="M4.016,0h10.04a4.016,4.016,0,0,1,4.016,4.016v10.04a4.016,4.016,0,0,1-4.016,4.016H4.016A4.016,4.016,0,0,1,0,14.056V4.016A4.016,4.016,0,0,1,4.016,0Z" transform="translate(67.025 60.678)" fill="#d4d4d4"/>
    <path class="svg-fill-primary" id="app-7" data-name="app" d="M4.016,0h10.04a4.016,4.016,0,0,1,4.016,4.016v10.04a4.016,4.016,0,0,1-4.016,4.016H4.016A4.016,4.016,0,0,1,0,14.056V4.016A4.016,4.016,0,0,1,4.016,0Z" transform="translate(40.989 92.417)" fill="#1080b0"/>
    <path class="svg-fill-primary" id="app-8" data-name="app" d="M4.016,0h10.04a4.013,4.013,0,0,1,4.016,4.011V14.038a4.013,4.013,0,0,1-4.016,4.011H4.016A4.013,4.013,0,0,1,0,14.038V4.011A4.013,4.013,0,0,1,4.016,0Z" transform="translate(111.055 110.39) rotate(180)" fill="#1080b0"/>
    <path class="svg-fill-primary" id="app-9" data-name="app" d="M4.016,0h10.04a4.016,4.016,0,0,1,4.016,4.016v10.04a4.016,4.016,0,0,1-4.016,4.016H4.016A4.016,4.016,0,0,1,0,14.056V4.016A4.016,4.016,0,0,1,4.016,0Z" transform="translate(67.025 92.417)" fill="#1080b0"/>
    <g id="man" transform="translate(110.214 31.803)">
      <path id="shadow-2" data-name="shadow" d="M735.535,262.451a1.5,1.5,0,0,0-.227-.572,3.316,3.316,0,0,0-.448-.433c-.9-.847-.416-2.372-.763-3.549a5.747,5.747,0,0,0-2.875-2.86,2.322,2.322,0,0,0-.6-.242,5,5,0,0,0-.793-.063,3.814,3.814,0,0,1-1.209-.275c-.551-.225-1.043-.572-1.607-.763a.818.818,0,0,0-.343-.048c-.616-.057-.637.709-1.3,1.154a1.041,1.041,0,0,0-.536.782c0,.448.458.744.866.94s.5.158.582.156h.034c.055.01.116.057.275.231a5.219,5.219,0,0,0-4.414,5.127,5.112,5.112,0,0,0,.448,2.1c-.017.122-.036.248-.057.381a13.623,13.623,0,0,1-1.209,3.941c-.522.107-.852.191-.852.191a.494.494,0,0,1,.01.076l-.191.141-.8.572c-1.577-2.614-3.188-5.86-3.253-8.3,0,0-.191.132-.515.338v-1.731l-.1-.019.1-.191.744-1.407a3.8,3.8,0,0,0,.44-1.716c.034-2.212-.038-7.665-1.567-8.571-1.928-1.144-2.313,3.8-3.341,6.336-.763,1.89-.381,4.628-.149,5.9.017.086.032.164.048.236a14.427,14.427,0,0,0-1.825.837c.406.16.709,1.432.877,2.347.017.1.034.191.05.276a9.48,9.48,0,0,1-1.184.29l3.314,7.231c-.707.82-2.183,2.256-3.314,1.512-1.543-1.014-6.292-.507-6.292-.507s-2.715-7.21-2.586-9.368l-.381.191v-1.966a2.162,2.162,0,0,1-.276.158l.1-.179.147-.261a3.846,3.846,0,0,0,.488-1.613c.16-2.218.395-7.911-1.36-8.623-2.185-.887-2.828,5.448-2.828,5.448l.465,5.736.01.128c-1.037.092-1.89.092-1.89.092a6.977,6.977,0,0,1,.381,2.568v.254a2.364,2.364,0,0,1-1.279-.034l3.47,9.376s.257,2.288,4.756,3.295c2.645.6,4.489,1.144,5.56,1.5-1.834,4.348-8.2,20.021-6.332,23.835,0,0,1-.381,2.021-.717.236,3.287.646,8.266,1.144,11.456a32.994,32.994,0,0,0-1.087,3.9c-.011.067-.021.13-.029.191-.381,3.041-3.47,8.87,1.157,13.811,0,0,3.213,1.907,3.47,4.182.215,1.918,3.612,6.7,4.687,8.176-.86,1.478-3.285,5.375-5.459,6.4-2.7,1.268-.515,3.041,2.055,2.67s11.06-6.462,11.06-6.462-.059-3.981-.864-4.271h0l-.772-1.594a5.721,5.721,0,0,0,1.251-.343c3.47-1.394,8.226-3.928,8.226-3.928s.093-2.977-1.255-4.067c-.69-2.13-3.886-4.042-3.886-4.042s-2.317-5.959-7.972-7.61a5.19,5.19,0,0,1-.879-2.761c.372-.713.624-1.167.624-1.167l2.925-6.941a9.466,9.466,0,0,0,1.907-2.347q.065-.118.126-.238c1.764.208,3.146.416,3.146.416l-.128-6.083c-1.165-12.551,2.435-16.225,2.435-16.225s5.148-6.209,5.656-10.644c.475-4.094-2.992-4.3-3.528-4.307a4.525,4.525,0,0,1,.067-1.827l.061.044a.715.715,0,0,0,.381.158.437.437,0,0,0,.084,0h.046a.744.744,0,0,0,.357-.111c1.344-.706,2.391-1.981,3.867-2.349.309-.076.631-.111.934-.21a2.6,2.6,0,0,0,1.525-1.43A3.455,3.455,0,0,0,735.535,262.451Zm-18.877,67.12c.257.887,4.37,3.928,4.37,3.928l.158,1.093a38.9,38.9,0,0,1-3.324,2.813l-1.463-3.018s-2.185-6.969-4.113-7.728c-.357-.141-.471-.572-.421-1.177,1.253.917,4.578,3.379,4.786,4.1Z" transform="translate(-694.55 -240.847)" fill="url(#linear-gradient-2)"/>
      <path id="suit" d="M740.779,396.7s-8.741,20.227-6.619,24.6c0,0,3.5-1.373,4-1.123s5.494-26.1,5.494-26.1Z" transform="translate(-726.338 -359.336)" fill="#6a6a6a"/>
      <path id="shadow-3" data-name="shadow" d="M740.779,396.7s-8.741,20.227-6.619,24.6c0,0,3.5-1.373,4-1.123s5.494-26.1,5.494-26.1Z" transform="translate(-726.338 -359.336)" opacity="0.05"/>
      <path id="feet" d="M766.2,740.925s-3,5.619-5.619,6.865-.5,3,2,2.622,10.739-6.369,10.739-6.369-.057-3.922-.841-4.208S766.2,740.925,766.2,740.925Z" transform="translate(-747.019 -639.13)" fill="#545454"/>
      <path id="feet-2" data-name="feet" d="M808.223,688.756s-4.245,4.245-6.119,4.62,1.623,2.872,4.994,1.5S815.089,691,815.089,691s.124-4-2-4.37S808.223,688.756,808.223,688.756Z" transform="translate(-781.171 -596.076)" fill="#545454"/>
      <path id="suit-2" data-name="suit" d="M744.74,511.119s.873,15.233,2,17.352,5.37,8.615,5.37,8.615,4.87,3.5,5.12,4.37,4.245,3.871,4.245,3.871l.25,1.749s6.619-.381,6.243-2.622-3.871-4.37-3.871-4.37-2.248-5.869-7.742-7.492c0,0-1.749-2.5-.25-4.494,0,0,3.747-9.364,5.869-10.487S761.1,510,761.1,510Z" transform="translate(-735.17 -453.153)" fill="#6a6a6a"/>
      <path id="shadow-4" data-name="shadow" d="M744.74,511.119s.873,15.233,2,17.352,5.37,8.615,5.37,8.615,4.87,3.5,5.12,4.37,4.245,3.871,4.245,3.871l.25,1.749s6.619-.381,6.243-2.622-3.871-4.37-3.871-4.37-2.248-5.869-7.742-7.492c0,0-1.749-2.5-.25-4.494,0,0,3.747-9.364,5.869-10.487S761.1,510,761.1,510Z" transform="translate(-735.17 -453.153)" opacity="0.05"/>
      <path id="suit-3" data-name="suit" d="M752.444,555.692l4,8.365c-.624,2.122-6.619,1.373-6.619,1.373s-4.62-6.243-4.87-8.491-3.371-4.121-3.371-4.121c-4.494-4.87-1.5-10.613-1.123-13.611a1.627,1.627,0,0,1,.027-.191c.332-2.01,2.353-7.791,3.924-12.122,1.06-2.917,1.916-5.175,1.916-5.175s8.365.381,10.106,3.371a3.893,3.893,0,0,1-.181,3.945,9.3,9.3,0,0,1-1.846,2.313l-2.843,6.853s-4.992,9.122-3.112,9.873S752.444,555.692,752.444,555.692Z" transform="translate(-730.638 -462.638)" fill="#6a6a6a"/>
      <path id="hand" d="M713.447,275.181a3.829,3.829,0,0,1-.473,1.59l-.143.257-.7,1.268H709.88l-.048-.591-.452-5.652s.623-6.243,2.748-5.37C713.831,267.386,713.6,273,713.447,275.181Z" transform="translate(-706.552 -256.165)" fill="#f7c4a7"/>
      <path id="shadow-5" data-name="shadow" d="M714.749,321.28l-.7,1.268H711.8l-.048-.591A8.542,8.542,0,0,0,714.749,321.28Z" transform="translate(-708.47 -300.418)" opacity="0.1"/>
      <path id="shirt" d="M707.166,321.39v2.872l-4.62,1.249s0-.3-.013-.715a6.815,6.815,0,0,0-.362-2.53S705.917,322.269,707.166,321.39Z" transform="translate(-700.717 -300.507)" fill="#e8e8e8"/>
      <path id="shadow-6" data-name="shadow" d="M708.7,330.22v1.188l-4.62,1.249s0-.3-.013-.715A21.437,21.437,0,0,0,708.7,330.22Z" transform="translate(-702.255 -307.653)" opacity="0.1"/>
      <path id="body" d="M832.972,331.538c-.911,2.631.273,3.814.273,3.814s-11.239.749-8.491-1.249c1.6-1.167,2.315-3.741,2.628-5.678a19.348,19.348,0,0,0,.246-2.429s8.981-.132,7.118,2.372A12.009,12.009,0,0,0,832.972,331.538Z" transform="translate(-799.576 -304.233)" fill="#f7c4a7"/>
      <path id="face" d="M847.736,328.361a7.924,7.924,0,0,0-1.526,2.3,5.018,5.018,0,0,1-.85.071c-2.141,0-4.226-.44-4.99-2.307a19.377,19.377,0,0,0,.246-2.431S849.6,325.857,847.736,328.361Z" transform="translate(-812.565 -304.232)" opacity="0.1"/>
      <circle id="face-2" data-name="face" cx="5.12" cy="5.12" r="5.12" transform="translate(27.426 16.637)" fill="#f7c4a7"/>
      <path id="suit-4" data-name="suit" d="M703.833,330.55s-4.87,2.5-6.243,1.872l3.371,9.24s.25,2.248,4.62,3.242a44.774,44.774,0,0,1,6.493,1.872l8.115-9.614-4.121,1.123s-2.122,3-3.623,2-6.115-.5-6.115-.5S703.709,332.674,703.833,330.55Z" transform="translate(-697.01 -307.92)" fill="#6a6a6a"/>
      <path id="shadow-7" data-name="shadow" d="M703.833,330.55s-4.87,2.5-6.243,1.872l3.371,9.24s.25,2.248,4.62,3.242a44.774,44.774,0,0,1,6.493,1.872l8.115-9.614-4.121,1.123s-2.122,3-3.623,2-6.115-.5-6.115-.5S703.709,332.674,703.833,330.55Z" transform="translate(-697.01 -307.92)" opacity="0.05"/>
      <path id="shadow-8" data-name="shadow" d="M758.45,359.316s6.6-1.888,7.3,1.619c0,0-3.051-1.487-7.421,1.144-.328.191-.648.406-.953.625a19.332,19.332,0,0,0-7.612,11.6l-2.79,12.223-.25,3.285s-4,.789-4.744-.395-.25-5.127.873-6.441,2.866-6.971,2.866-6.971l1.093-3.28a21.929,21.929,0,0,1,4.277-7.5h0l.263-.318a16.4,16.4,0,0,1,6.088-4.553C758.075,360.079,758.538,359.73,758.45,359.316Z" transform="translate(-732.647 -330.791)" opacity="0.1"/>
      <path id="shirt-2" data-name="shirt" d="M758.45,358.006s6.6-1.888,7.3,1.619c0,0-3.051-1.487-7.421,1.144-.328.191-.648.406-.953.625a19.332,19.332,0,0,0-7.612,11.6l-2.79,12.223-.25,3.285s-4,.789-4.744-.395-.25-5.127.873-6.441,2.872-6.967,2.872-6.967l1.093-3.28a21.929,21.929,0,0,1,4.277-7.5h0l.263-.318a16.4,16.4,0,0,1,6.089-4.553C758.075,358.769,758.538,358.42,758.45,358.006Z" transform="translate(-732.647 -329.731)" fill="#f2f2f2"/>
      <path id="shadow-9" data-name="shadow" d="M742.81,386.01l.055,2.151,1.749-1.123s3.114-11.332,5.307-14.421c.257-.364.381-.908.624-1L759.472,363v-2a52.513,52.513,0,0,0-4.933,4c-.16.265-2.553,1.573-4,3.623a45.258,45.258,0,0,0-3.432,5.93l-3,6.742Z" transform="translate(-733.608 -332.564)" opacity="0.1"/>
      <path id="tie" d="M758.948,360.35v1.935l-9.054,8.676c-.24.092-.366.635-.624,1-2.195,3.091-5.307,14.421-5.307,14.421l-1.749,1.123-.055-2.151,1.3-4.714,3-6.742a45.248,45.248,0,0,1,3.432-5.93c1.442-2.048,3.836-3.356,4-3.623a45.564,45.564,0,0,1,4.813-3.814Z" transform="translate(-733.082 -332.038)" fill="#888"/>
      <path id="shadow-10" data-name="shadow" d="M852.721,285.449c-.395-.191-.841-.486-.841-.927a.991.991,0,0,1,.521-.763c.713-.486.658-1.365,1.478-1.091.549.191,1.028.532,1.562.753a3.655,3.655,0,0,0,1.175.271,4.789,4.789,0,0,1,.763.061,2.241,2.241,0,0,1,.571.238,5.015,5.015,0,0,1,2.357,2.942c.339,1.159.305,2.532,1.178,3.366a3.238,3.238,0,0,1,.435.425,1.491,1.491,0,0,1,.219.572,3.452,3.452,0,0,1-.172,2.073,2.54,2.54,0,0,1-1.489,1.409c-.3.1-.606.13-.908.206-1.434.362-2.45,1.621-3.758,2.315a.717.717,0,0,1-.347.109.69.69,0,0,1-.366-.156,1.951,1.951,0,0,1-.908-1.543,3.119,3.119,0,0,1,.334-1.112,10.776,10.776,0,0,0,.625-2.012.981.981,0,0,0,.013-.486c-.1-.3-.431-.444-.664-.66a1.69,1.69,0,0,1-.332-1.689,11.223,11.223,0,0,1,.763-1.642,1.294,1.294,0,0,0,.151-.532c0-.73-.988-1.127-1.4-1.609C853.137,285.308,853.493,285.831,852.721,285.449Z" transform="translate(-821.88 -269.127)" opacity="0.1"/>
      <path id="hair" d="M853.381,285.449c-.395-.191-.841-.486-.841-.927a.991.991,0,0,1,.521-.763c.713-.486.658-1.365,1.478-1.091.549.191,1.028.532,1.562.753a3.655,3.655,0,0,0,1.175.271c.257.015,1.091-.381,1.335-.32a2.239,2.239,0,0,1,.572.238,5.015,5.015,0,0,1,2.357,2.942c.339,1.159.1,2.609.976,3.432.147.141-.053.572.065.73a1.493,1.493,0,0,1,.219.572,3.451,3.451,0,0,1-.172,2.073,2.54,2.54,0,0,1-1.489,1.409c-.3.1-.606.13-.908.206-1.434.362-2.45,1.621-3.758,2.315a.717.717,0,0,1-.347.109.691.691,0,0,1-.366-.156,1.951,1.951,0,0,1-.908-1.543,3.12,3.12,0,0,1,.334-1.112,10.771,10.771,0,0,0,.625-2.012.98.98,0,0,0,.013-.486c-.1-.3-.431-.444-.664-.66a1.69,1.69,0,0,1-.332-1.689,11.232,11.232,0,0,1,.763-1.642,1.293,1.293,0,0,0,.151-.532c0-.73-.988-1.127-1.4-1.609C853.8,285.308,854.153,285.831,853.381,285.449Z" transform="translate(-822.414 -269.127)" fill="#b96b6b"/>
      <path id="shadow-11" data-name="shadow" d="M778.621,529.086a31.783,31.783,0,0,0-6.437-.324c-2.038.339-4.9-1.478-5.413-1.817,1.06-2.917,1.916-5.175,1.916-5.175s8.365.381,10.106,3.371A3.871,3.871,0,0,1,778.621,529.086Z" transform="translate(-752.999 -462.678)" opacity="0.1"/>
      <path id="suit-5" data-name="suit" d="M788.674,368.968c-.5,4.37-5.494,10.487-5.494,10.487s-3.5,3.623-2.372,15.983l.124,5.993s-7.368-1.123-9.614-.749-5.494-1.872-5.494-1.872-1.251-21.6,4.126-26.095a31.705,31.705,0,0,1,2.151-2.946c1.442-1.745,3.4-3.711,5.236-4.195a3.275,3.275,0,0,1,.723-.111s5.619-3.121,7.118-.749C785.177,364.723,789.172,364.6,788.674,368.968Z" transform="translate(-752.132 -334.849)" fill="#6a6a6a"/>
      <path id="shadow-12" data-name="shadow" d="M766.68,498.621a12.231,12.231,0,0,1,5.37-.624c3.371.25,9.374-2.748,9.374-2.748" transform="translate(-752.926 -441.215)" opacity="0.1"/>
      <path id="shadow-13" data-name="shadow" d="M770.3,659s.124.381-1.5.873a5.392,5.392,0,0,0-2.122,1" transform="translate(-752.926 -573.741)" opacity="0.05"/>
      <path id="app-10" class="svg-fill-primary" data-name="app" d="M4,0H14a4,4,0,0,1,4,4V14a4,4,0,0,1-4,4H4a4,4,0,0,1-4-4V4A4,4,0,0,1,4,0Z" transform="translate(21.431 18) rotate(180)" fill="#1080b0"/>
      <path id="hand-2" data-name="hand" d="M789.535,260.346a3.789,3.789,0,0,1-.427,1.693l-.721,1.388-.5.953-3.122.25s-.065-.257-.145-.683c-.233-1.249-.6-3.947.145-5.81,1-2.5,1.373-7.368,3.242-6.243C789.5,252.791,789.569,258.167,789.535,260.346Z" transform="translate(-767.204 -244.129)" fill="#f7c4a7"/>
      <path id="shadow-14" data-name="shadow" d="M789.656,312.511v.038l-.5.953-3.121.25s-.065-.257-.145-.683A7.124,7.124,0,0,1,789.656,312.511Z" transform="translate(-768.473 -293.252)" opacity="0.1"/>
      <path id="shirt-3" data-name="shirt" d="M782.324,313.821v2.254l-4.494,2.372s-.051-.406-.147-.932c-.164-.9-.458-2.157-.852-2.313C776.83,315.2,780.075,313.321,782.324,313.821Z" transform="translate(-761.141 -294.312)" fill="#f2f2f2"/>
      <path id="shadow-15" data-name="shadow" d="M812.651,382.195a5.29,5.29,0,0,1-4.039,1.293c-7.906-.8-8.119-3.6-8.119-3.6l-1.213-2.7c1.442-1.745,3.4-3.711,5.236-4.2,1.31,2.111,2.479,3.634,2.479,3.634s5.869-4.494,7.618-.25C815.625,378.865,814.1,380.915,812.651,382.195Z" transform="translate(-779.31 -342.276)" opacity="0.05"/>
      <path id="Patshadowh_79" data-name="Patshadowh 79" d="M785.941,321.4v.877l-4.494,2.372s-.052-.406-.147-.932A21.363,21.363,0,0,0,785.941,321.4Z" transform="translate(-764.758 -300.515)" opacity="0.1"/>
      <path id="suit-6" data-name="suit" d="M781.763,321.39a19.267,19.267,0,0,1-6.243,2.872l5.869,12.985s.216,2.793,8.119,3.6a5.292,5.292,0,0,0,4.037-1.293c1.449-1.279,2.971-3.329,1.953-5.8-1.749-4.245-7.618.25-7.618.25S781.887,326.134,781.763,321.39Z" transform="translate(-760.081 -300.507)" fill="#6a6a6a"/>
    </g>
    <path id="shape-15" class="svg-fill-primary" data-name="shape" d="M1.34,0H28.524a1.338,1.338,0,1,1,0,2.677H1.34A1.338,1.338,0,1,1,1.34,0Z" transform="translate(151.366 136.582)" fill="#1080b0"/>
    <path id="shape-16" class="svg-fill-primary" data-name="shape" d="M1.34,0H28.524a1.338,1.338,0,1,1,0,2.677H1.34A1.338,1.338,0,1,1,1.34,0Z" transform="translate(148.112 133.905)" fill="#1080b0"/>
    <path id="shape-17" class="svg-fill-primary" data-name="shape" d="M1.34,0H28.524a1.338,1.338,0,1,1,0,2.677H1.34A1.338,1.338,0,1,1,1.34,0Z" transform="translate(148.112 133.905)" opacity="0.05"/>
  </g>
</svg>
