<?xml version="1.0" encoding="utf-8"?>
<!-- Generator: Adobe Illustrator 26.4.1, SVG Export Plug-In . SVG Version: 6.00 Build 0)  -->
<svg version="1.1" id="layer" xmlns="http://www.w3.org/2000/svg" xmlns:xlink="http://www.w3.org/1999/xlink" x="0px" y="0px"
	 viewBox="0 0 652 652" style="enable-background:new 0 0 652 652;" xml:space="preserve">
<style type="text/css">
	.st0{fill-rule:evenodd;clip-rule:evenodd;fill:#2765AF;}
</style>
<g>
	<path d="M498.3,198.7H403c-10.5,0-19.2,8.5-19.2,19.1v217.7c0,10,8.8,18.3,19.5,18.3h114.4c40.9,0,74.3-31.3,74.3-69.5
		c0-27.1-16.8-50.7-41.1-62.2c12.6-13.1,20.4-30.9,20.4-50.3C571.3,231.6,538.4,198.7,498.3,198.7 M551.8,380.2
		c0,19.6-16,35.6-35.6,35.6h-92.8V235.2h73.2c19.1,0,34.6,15.5,34.6,34.6c0,17.2-12.8,31.6-29.3,34.2v0.4h-36.4c-11,0-20,9.1-20,20
		c0,11,9.1,20.1,20,20.1h36.4v0.1h14.3C535.8,344.5,551.8,360.6,551.8,380.2"/>
	<path d="M80.9,457.3c12.6,1.3,23.9-7.8,25.2-20.4L125,263.8l66.8,169.5l0.1,0.4v0.1l0.1,0.3l0.1,0.3l0.1,0.3l0.1,0.3l0.1,0.3
		l0.1,0.1l0.3,0.4l0,0l0.3,0.4l0.1,0.3c0.7,1.3,1.4,2.4,2.4,3.5l0.1,0.1c0.3,0.3,0.4,0.5,0.7,0.8l0,0c0.1,0.3,0.4,0.4,0.5,0.5
		c0.1,0.1,0.4,0.4,0.7,0.5c0.3,0.3,0.5,0.5,0.8,0.7l0.1,0.1c1.1,0.9,2.2,1.7,3.5,2.4l0.3,0.1l0.4,0.3l0,0l0.4,0.3l0.1,0.1l0.3,0.1
		l0.3,0.1l0.3,0.1l0.3,0.1l0.3,0.1h0.1l0.3,0.1c2.5,0.9,5,1.4,7.5,1.6h0.3h0.3h0h0.3h0.4h0.3c2.2-0.1,4.5-0.5,6.7-1.3h0.1l0.3-0.1
		l0.1-0.1h0.1l0.3-0.1l0.3-0.1l0.3-0.1l0.3-0.1l0.3-0.1l0.3-0.1l0.3-0.1l0.1-0.1l0.4-0.3l0.4-0.3h0.1c1.4-0.8,2.8-1.7,3.9-2.8
		l0.4-0.3h0.1c1.8-1.7,3.4-3.8,4.6-6l0.1-0.1l0.1-0.4l0.1-0.1l0.1-0.4l0.1-0.3l0.1-0.4v-0.1l0.1-0.4l0.3-0.4l0,0l0.1-0.1l66.5-169.3
		L319.9,437c1.3,12.6,12.6,21.7,25.2,20.4c12.6-1.3,21.7-12.6,20.4-25.2l-22.2-204.2l0,0v-0.1c-0.3-2.4-0.8-4.7-1.4-7.1
		c-0.7-2.2-1.6-4.5-2.8-6.6c-5.7-10.6-16-18.1-28.5-19.9l0,0c-0.4,0-0.8-0.1-1.3-0.1c-2-0.3-3.9-0.3-5.8-0.1h-0.1
		c-2.5,0.1-4.9,0.4-7,0.9c-11.8,2.8-22,11-26.7,23L213,362.2l-56.8-144.2c-4.7-12.1-14.7-20.2-26.7-23c-2.1-0.5-4.5-0.8-7-0.9h-0.1
		c-2-0.1-3.8,0-5.8,0.1c-0.4,0-0.8,0.1-1.3,0.1l0,0c-12.5,1.7-22.9,9.2-28.5,19.9c-1.2,2.1-2.1,4.3-2.8,6.6
		c-0.7,2.4-1.2,4.7-1.4,7.1l0,0v0.1l0,0L60.5,432.1C59.1,444.7,68.3,456,80.9,457.3"/>
	<path class="st0" d="M163.5,61.1h333.8h17.6c24.7,0,45,21.4,45,47.5v22.7c0,32.1-43.5,31.9-43.5,0.3v-12.4
		c0-7.9-6.4-14.3-14.3-14.3H149.9c-7.9,0-14.3,6.4-14.3,14.3v12.2c0,31.9-41.4,31.7-41.4,0.7v-23.5c0-26.2,20.2-47.5,44.8-47.5
		H163.5z M324.5,590.9h227.8c52.1,0,52.6-55.3,47.2-82.7c-2.9-18.3-34-18.1-37.5,0v21.3c0,9.7-8,17.7-17.7,17.7H324.5h-17.6H107.6
		c-9.7,0-17.7-8-17.7-17.7v-21.3c-3.4-18.1-34.6-18.4-37.5,0c-5.3,27.3-4.7,82.7,47.2,82.7h207.3L324.5,590.9L324.5,590.9z"/>
</g>
</svg>
