<?xml version="1.0" encoding="utf-8"?>
<!-- Generator: Adobe Illustrator 27.1.1, SVG Export Plug-In . SVG Version: 6.00 Build 0)  -->
<svg version="1.1" id="icon_x5F_account" xmlns="http://www.w3.org/2000/svg" xmlns:xlink="http://www.w3.org/1999/xlink" x="0px"
	 y="0px" viewBox="0 0 100 100" style="enable-background:new 0 0 100 100;" xml:space="preserve">
<style type="text/css">
	.st0{fill:none;}
</style>
<rect id="shape_00000095320369325526929900000000368201670022918816_" y="0" class="st0" width="100" height="100"/>
<path id="account" d="M39.4,66.9V33.1c0-4.7,3.8-8.5,8.5-8.5h38.1v-4.2c0-4.7-3.8-8.5-8.5-8.5H18.3c-4.7,0-8.5,3.8-8.5,8.5v59.2
	c0,4.7,3.8,8.5,8.5,8.5h59.2c4.7,0,8.5-3.8,8.5-8.5v-4.2H47.9C43.2,75.4,39.4,71.6,39.4,66.9z M52.1,33.1c-2.5,0-4.2,1.7-4.2,4.2
	v25.4c0,2.5,1.7,4.2,4.2,4.2h38.1V33.1H52.1z M64.8,56.3c-3.4,0-6.3-3-6.3-6.3s3-6.3,6.3-6.3c3.4,0,6.3,3,6.3,6.3
	S68.2,56.3,64.8,56.3z"/>
</svg>
