<svg xmlns="http://www.w3.org/2000/svg" xmlns:xlink="http://www.w3.org/1999/xlink" width="1920" height="1080" viewBox="0 0 1920 1080">
  <defs>
    <clipPath id="clip-niupico">
      <rect width="1920" height="1080"/>
    </clipPath>
  </defs>
  <g id="niupico" clip-path="url(#clip-niupico)">
    <rect width="1920" height="1080" fill="#fff"/>
    <g id="niup_ico">
      <g id="animated_icon-niup">
        <g id="circles" transform="translate(743.866 324.521)">
          <path id="Union_2" data-name="Union 2" d="M-743.866,14.32a49.578,49.578,0,0,1,49.578-49.578A49.579,49.579,0,0,1-644.709,14.32,49.579,49.579,0,0,1-694.288,63.9,49.579,49.579,0,0,1-743.866,14.32Zm304.719-70.91a49.579,49.579,0,0,1,49.579-49.578A49.578,49.578,0,0,1-339.989-56.59,49.579,49.579,0,0,1-389.568-7.011,49.58,49.58,0,0,1-439.147-56.59ZM-650.4-274.943a49.579,49.579,0,0,1,49.579-49.578,49.578,49.578,0,0,1,49.578,49.578,49.579,49.579,0,0,1-49.578,49.579A49.579,49.579,0,0,1-650.4-274.943Z" transform="translate(774.098 324.521)" fill="#202b30" stroke="rgba(0,0,0,0)" stroke-miterlimit="10" stroke-width="1"/>
        </g>
        <g id="Shapes" transform="translate(743.866 324.521)">
          <path id="Union_1" data-name="Union 1" d="M-496.555,86.677l-115.559-35.33A76.029,76.029,0,0,0-587.8-4.459a76.248,76.248,0,0,0-2.916-20.876l77.4,23.682A20.155,20.155,0,0,0-493.68-6.19l59.55-55.574A76.341,76.341,0,0,0-380.1-3.274l-89.881,83.816a27.269,27.269,0,0,1-18.6,7.327A27.248,27.248,0,0,1-496.555,86.677Zm-246.09-255.3a47.6,47.6,0,0,1,13.916-45.519l81.967-76.436a76.263,76.263,0,0,0,45.325,66.587l-42.34,39.511a40.518,40.518,0,0,0-11.832,38.72l15.93,69.05a76.079,76.079,0,0,0-24.378-4.006,76,76,0,0,0-53.279,21.724Zm312.832-33.407a33.555,33.555,0,0,0-22.881-24.548l-59.444-18.185a75.931,75.931,0,0,0,17.806-48.961,75.977,75.977,0,0,0-6.5-30.8l111.648,34.136a40.355,40.355,0,0,1,27.527,29.52L-335.872-149.2a76.147,76.147,0,0,0-23.464-3.7A76.018,76.018,0,0,0-413.313-130.5Z" transform="translate(743.866 343.301)" fill="#202b30" stroke="rgba(0,0,0,0)" stroke-miterlimit="10" stroke-width="1"/>
        </g>
      </g>
    </g>
  </g>

  <style>

/**
 * ----------- SCSS -------------
 * #animated_icon-niup {
 *   animation: bounce-out-top 3s both;
 * }
 * ------------------------------
 */


/**
 * ----------------------------------------
 * animation bounce-out-top
 * ----------------------------------------
 */
@keyframes bounce-out-top {
  0% {
    transform: translateY(0);
    animation-timing-function: ease-out;
  }
  5% {
    transform: translateY(-30px);
    animation-timing-function: ease-in;
  }
  15% {
    transform: translateY(0);
    animation-timing-function: ease-out;
  }
  25% {
    transform: translateY(-38px);
    animation-timing-function: ease-in;
  }
  38% {
    transform: translateY(0);
    animation-timing-function: ease-out;
  }
  52% {
    transform: translateY(-75px);
    animation-timing-function: ease-in;
  }
  70% {
    transform: translateY(0);
    animation-timing-function: ease-out;
  }
  85% {
    opacity: 1;
  }
  100% {
    transform: translateY(-800px);
    opacity: 0;
  }
}

</style>

</svg>
