<svg xmlns="http://www.w3.org/2000/svg" xmlns:xlink="http://www.w3.org/1999/xlink" width="50" height="50" viewBox="0 0 50 50">
  <defs>
    <filter id="shape" x="0" y="0" width="50" height="50" filterUnits="userSpaceOnUse">
      <feOffset dy="3" input="SourceAlpha"/>
      <feGaussianBlur stdDeviation="3" result="blur"/>
      <feFlood flood-opacity="0.161"/>
      <feComposite operator="in" in2="blur"/>
    </filter>
  </defs>
  <g id="Group_15622" data-name="Group 15622" transform="translate(-345.781 6)">
    <g transform="matrix(1, 0, 0, 1, 345.78, -6)" filter="url(#shape)">
      <rect id="shape-2" data-name="shape" width="32" height="32" rx="6" transform="translate(9 6)" fill="#fff" opacity="0.1"/>
    </g>
    <g id="Group_15757" data-name="Group 15757" transform="translate(-1826.703 -4826.948)">
      <path id="Path_757" data-name="Path 757" d="M23.307,62.035a22.809,22.809,0,0,1-2.481.67,2.925,2.925,0,0,1-2.034,1.274,4.506,4.506,0,0,1-.8.067,20.593,20.593,0,0,1-2.481-.134.619.619,0,0,1-.2-.022.5.5,0,0,1-.447-.425.458.458,0,0,1,.492-.492c.067,0,.156.022.224.022a12.964,12.964,0,0,0,3.04.067c1.319-.246,1.7-1.05,1.609-1.721a1.081,1.081,0,0,0-1.14-1.028A20.736,20.736,0,0,1,16,60.225a21.13,21.13,0,0,0-3.353-.022,12.927,12.927,0,0,0-4.761,2.034c-.872.581-1.833,1.3-2.414,1.721a.649.649,0,0,0-.134.916l2.57,3.33a.645.645,0,0,0,.916.112l.939-.738a.823.823,0,0,1,.782-.134,20.913,20.913,0,0,0,4.783.983c2.66.179,7.733-2.95,9.186-3.956A1.361,1.361,0,0,0,23.307,62.035Z" transform="translate(2182.279 4782.914)" fill="#181818"/>
      <path id="Subtraction_14" data-name="Subtraction 14" d="M4.063,0A4.063,4.063,0,1,1,0,4.063,4.063,4.063,0,0,1,4.063,0Z" transform="translate(2195.741 4834)" fill="#181818"/>
    </g>
  </g>
</svg>
