<svg xmlns="http://www.w3.org/2000/svg" xmlns:xlink="http://www.w3.org/1999/xlink" width="50" height="50" viewBox="0 0 50 50">
  <defs>
    <filter id="shape" x="0" y="0" width="50" height="50" filterUnits="userSpaceOnUse">
      <feOffset dy="3" input="SourceAlpha"/>
      <feGaussianBlur stdDeviation="3" result="blur"/>
      <feFlood flood-opacity="0.161"/>
      <feComposite operator="in" in2="blur"/>
    </filter>
  </defs>
  <g id="Group_15622" data-name="Group 15622" transform="translate(-345.781 6)">
    <g transform="matrix(1, 0, 0, 1, 345.78, -6)" filter="url(#shape)">
      <rect id="shape-2" data-name="shape" width="32" height="32" rx="6" transform="translate(9 6)" fill="#fff" opacity="0.1"/>
    </g>
    <g id="icon_people" transform="translate(358.781 4)">
      <rect id="shape-3" data-name="shape" width="24" height="24" fill="none"/>
      <path id="people" d="M20.217,12.788a5.851,5.851,0,0,0-3.19-1.636c.9-.006,1.805-.017,2.708.01a3.968,3.968,0,0,1,3.786,3.779.383.383,0,0,1-.108.25,9.35,9.35,0,0,1-1.481,1.328A5.9,5.9,0,0,0,20.217,12.788Zm-3.905-2.695a4.075,4.075,0,0,1-.984-.128,6.213,6.213,0,0,0,.709-.6,5.863,5.863,0,0,0,1.769-4.169,5.761,5.761,0,0,0-.838-3.013,4.011,4.011,0,0,1,3.381,3.927,4.051,4.051,0,0,1-4.021,3.985Z" transform="translate(0.24 1.44)" fill="#181818" stroke="rgba(0,0,0,0)" stroke-miterlimit="10" stroke-width="1"/>
      <path id="shape-4" data-name="shape" d="M1910.649,211.2a5.284,5.284,0,0,0-4.236-2.138h0a5.284,5.284,0,0,0-4.248,2.15,5.073,5.073,0,0,0-1,3.046,5.29,5.29,0,0,0,2.5,4.411,5.22,5.22,0,0,0,2.734.788h.022a5.183,5.183,0,0,0,2.66-.74,5.249,5.249,0,0,0,2.588-4.461A5.087,5.087,0,0,0,1910.649,211.2Z" transform="translate(-1894.326 -207.624)" fill="#181818" stroke="rgba(0,0,0,0)" stroke-miterlimit="10" stroke-width="1"/>
      <path id="shape-5" data-name="shape" d="M1856.553,374.453c-.57-.017-1.141-.022-1.713-.022-.676,0-1.351.007-2.027.011l-.706,0v-.011l-.872,0q-.731,0-1.462,0c-.564,0-1.127,0-1.69.012h-.008a6.578,6.578,0,0,0-1.519.178,5.159,5.159,0,0,0-3.841,4.72.642.642,0,0,0,.146.391c.053.06.108.118.161.177a10.864,10.864,0,0,0,2.257,1.873,12.263,12.263,0,0,0,6.718,2h.02a13.537,13.537,0,0,0,1.458-.08,12.262,12.262,0,0,0,7.864-3.974l.016-.017a.5.5,0,0,0,.141-.327A5.181,5.181,0,0,0,1856.553,374.453Z" transform="translate(-1840.018 -361.224)" fill="#181818" stroke="rgba(0,0,0,0)" stroke-miterlimit="10" stroke-width="1"/>
      <path id="shape-6" data-name="shape" d="M1855.5,242.426v-.009a5.755,5.755,0,0,1,.85-3.043,3.979,3.979,0,0,0,.443,7.937h.017a3.924,3.924,0,0,0,1.112-.162,6.048,6.048,0,0,1-.649-.558A5.979,5.979,0,0,1,1855.5,242.426Z" transform="translate(-1849.375 -235.779)" fill="#181818" stroke="rgba(0,0,0,0)" stroke-miterlimit="10" stroke-width="1"/>
      <path id="shape-7" data-name="shape" d="M1814.131,365.81l.007,0,.007,0q.3-.071.605-.117c-.876,0-1.752-.009-2.628.006a5.031,5.031,0,0,0-1.17.136,3.952,3.952,0,0,0-2.943,3.616.493.493,0,0,0,.112.3,8.331,8.331,0,0,0,1.638,1.432,5.581,5.581,0,0,1,1.279-3.36A5.946,5.946,0,0,1,1814.131,365.81Z" transform="translate(-1807.77 -353.104)" fill="#181818" stroke="rgba(0,0,0,0)" stroke-miterlimit="10" stroke-width="1"/>
    </g>
  </g>
</svg>
