<svg xmlns="http://www.w3.org/2000/svg" width="375" height="160" viewBox="0 0 375 160">
  <g id="light_logo" transform="translate(-192.706 -192.886)">
    <rect id="Rectangle_56" data-name="Rectangle 56" width="27.023" height="127.089" rx="12.879" transform="translate(258.393 225.676)" fill="#232323"/>
    <path id="Caminho_1" data-name="Caminho 1" d="M241.139,340.062l-5.242-1.112a1.81,1.81,0,0,1-1.321-1.142L220.8,208.258a1.791,1.791,0,0,1,1.394-1.345l5.1-.976a5.293,5.293,0,0,0,4.3-5.194v-2.568a5.3,5.3,0,0,0-5.3-5.289H196.684a3.972,3.972,0,0,0-3.978,3.966l.066.672a5.207,5.207,0,0,0-.066.65l13.737,139.044a1.808,1.808,0,0,1-1.393,1.758l-3.31.786a5.291,5.291,0,0,0-4.076,5.144v2.69a5.3,5.3,0,0,0,5.3,5.289h36.012a5.3,5.3,0,0,0,5.3-5.289v-3.66A3.965,3.965,0,0,0,241.139,340.062Z" transform="translate(0 0)" fill="#232323"/>
    <path id="Caminho_2" data-name="Caminho 2" d="M489.354,470.273q-16.3,0-26.057-10.419t-9.754-26.464v-2.779q0-16.739,9.231-27.576t24.77-10.765q15.257,0,23.688,9.168t8.43,24.8v5.756a5.3,5.3,0,0,1-5.3,5.289h-39.7l-.14.416a19.586,19.586,0,0,0,4.982,12.225q4.424,4.791,12.019,4.793a39.281,39.281,0,0,0,11.217-1.354,42.994,42.994,0,0,0,4.92-1.857,5.333,5.333,0,0,1,7.075,2.674l1.478,3.357a5.314,5.314,0,0,1-2.329,6.78,47.349,47.349,0,0,1-7.974,3.459A51.607,51.607,0,0,1,489.354,470.273Zm-1.81-62.376a10.606,10.606,0,0,0-8.919,4.306,22.379,22.379,0,0,0-4.041,11.323l.21.347h24.942v-1.806q0-6.461-3.031-10.315T487.544,407.9Z" transform="translate(-153.401 -117.509)" fill="#232323"/>
    <path id="Caminho_3" data-name="Caminho 3" d="M638.6,410.107l2.827-.6a3.523,3.523,0,0,0,2.8-3.444V365.215a3.523,3.523,0,0,0-2.864-3.457l-3.7-.71a5.292,5.292,0,0,1-4.3-5.193v-2.569a5.3,5.3,0,0,1,5.3-5.289h20.6a5.3,5.3,0,0,1,5.3,5.289v52.782a3.524,3.524,0,0,0,2.791,3.443l2.77.592a5.292,5.292,0,0,1,4.193,5.171v2.592a5.3,5.3,0,0,1-5.3,5.289H639.7a5.3,5.3,0,0,1-5.3-5.289V415.28A5.292,5.292,0,0,1,638.6,410.107Zm20.663-80.1h-9.735a5.3,5.3,0,0,1-5.3-5.289v-4.635a5.3,5.3,0,0,1,5.3-5.289h9.735a5.3,5.3,0,0,1,5.3,5.289v4.635A5.3,5.3,0,0,1,659.262,330.007Z" transform="translate(-259.15 -71.849)" fill="#232323"/>
    <path id="Caminho_4" data-name="Caminho 4" d="M742.863,321.705v-2.569a5.3,5.3,0,0,1,5.3-5.289h21.861a3.973,3.973,0,0,1,3.978,3.967v57.018a1.81,1.81,0,0,0,1.812,1.807h1.78a1.814,1.814,0,0,0,1.478-.762l9.435-13.269a1.806,1.806,0,0,0-1.233-2.835h0a4.222,4.222,0,0,1-3.657-4.179v-4.328a4.224,4.224,0,0,1,4.231-4.218h28.6a4.224,4.224,0,0,1,4.23,4.218v4.639a4.22,4.22,0,0,1-3.3,4.113l-4.958,1.12a1.814,1.814,0,0,0-1.065.7l-12.443,17.05a1.8,1.8,0,0,0-.044,2.063l17.911,26.883a1.813,1.813,0,0,0,1.142.77l2.774.573a5.293,5.293,0,0,1,4.228,5.179v2.562a5.3,5.3,0,0,1-5.3,5.289H795.405a5.3,5.3,0,0,1-5.3-5.289v-5.337a1.809,1.809,0,0,1,1.515-1.783h0a1.806,1.806,0,0,0,1.243-2.734L783.248,391.6a1.814,1.814,0,0,0-1.541-.855h-5.888a1.81,1.81,0,0,0-1.812,1.807V406.54A1.808,1.808,0,0,0,775.4,408.3l3.31.786a5.292,5.292,0,0,1,4.076,5.144v2.69a5.3,5.3,0,0,1-5.3,5.289H749.213a5.3,5.3,0,0,1-5.3-5.289v-3.66a3.965,3.965,0,0,1,3.147-3.876l5.242-1.112a1.809,1.809,0,0,0,1.435-1.767V329.649a1.808,1.808,0,0,0-1.47-1.774l-5.1-.977A5.293,5.293,0,0,1,742.863,321.705Z" transform="translate(-323.554 -71.291)" fill="#232323"/>
    <path id="Caminho_5" data-name="Caminho 5" d="M978.433,470.273q-16.3,0-26.058-10.419t-9.753-26.464v-2.779q0-16.739,9.231-27.576t24.768-10.765q15.26,0,23.688,9.168t8.431,24.8v5.756a5.3,5.3,0,0,1-5.3,5.289h-39.7l-.139.416a19.585,19.585,0,0,0,4.981,12.225q4.425,4.791,12.02,4.793a39.286,39.286,0,0,0,11.216-1.354,42.958,42.958,0,0,0,4.92-1.857,5.334,5.334,0,0,1,7.075,2.674l1.477,3.356a5.314,5.314,0,0,1-2.329,6.78,47.336,47.336,0,0,1-7.973,3.46A51.612,51.612,0,0,1,978.433,470.273ZM976.621,407.9A10.6,10.6,0,0,0,967.7,412.2a22.379,22.379,0,0,0-4.041,11.323l.208.347h24.944v-1.806q0-6.461-3.032-10.315T976.621,407.9Z" transform="translate(-441.035 -117.509)" fill="#1080b0"/>
    <path id="Rectangle_56-2" data-name="Rectangle 56" d="M374.465,391.337V407.7a5.3,5.3,0,0,1-5.3,5.289l-71.474,6.4a5.3,5.3,0,0,1-5.3-5.289V397.74a5.3,5.3,0,0,1,5.3-5.289l71.474-6.4A5.3,5.3,0,0,1,374.465,391.337Z" transform="translate(-58.62 -113.843)" fill="#1080b0"/>
  </g>
</svg>
