<svg id="Help_user_image" xmlns="http://www.w3.org/2000/svg" xmlns:xlink="http://www.w3.org/1999/xlink" width="168.494" height="120.458" viewBox="0 0 168.494 120.458">
  <defs>
    <linearGradient id="linear-gradient" x1="0.5" y1="1" x2="0.5" gradientUnits="objectBoundingBox">
      <stop offset="0" stop-color="gray" stop-opacity="0.251"/>
      <stop offset="0.54" stop-color="gray" stop-opacity="0.122"/>
      <stop offset="1" stop-color="gray" stop-opacity="0.102"/>
    </linearGradient>
  </defs>
  <path id="Path_4508" data-name="Path 4508" d="M193.123,111.025c-10.8-.279-21.09-2.869-30.913-5.7s-19.554-5.98-30.1-7.482c-6.781-.966-14.537-1.1-20,1.6-5.259,2.6-6.958,7.08-7.871,11.252-.688,3.133-1.092,6.429.791,9.361,1.309,2.036,3.628,3.747,5.234,5.7,5.586,6.786,1.637,15.153-4.415,21.779-2.837,3.108-6.134,6.072-8.325,9.382s-3.2,7.1-1.287,10.475c1.9,3.338,6.427,5.857,11.333,7.624,9.962,3.59,21.7,4.617,33.148,5.2,25.341,1.288,50.815.729,76.222.167,9.4-.207,18.847-.416,28.1-1.5,5.137-.6,10.44-1.552,14.17-3.85,4.733-2.917,5.907-7.858,2.734-11.516-5.321-6.137-20.028-7.662-23.752-14.248-2.046-3.625.055-7.662,3.031-11.025,6.382-7.212,17.079-13.539,17.641-21.784.387-5.661-4.755-11.333-12.706-14.011-8.333-2.807-19.891-2.455-26.037,2.193C213.787,109.423,202.661,111.266,193.123,111.025Z" transform="translate(-95.226 -97.207)" fill="#1080b0" opacity="0.1"/>
  <g id="_3rd_pulley" data-name="3rd pulley" transform="translate(97.518 15.173)">
    <path id="Path_4542" data-name="Path 4542" d="M741.037,217.277a11.489,11.489,0,1,1-11.49,11.489,11.49,11.49,0,0,1,11.49-11.489m0-2.837a14.327,14.327,0,1,0,14.327,14.326A14.327,14.327,0,0,0,741.037,214.44Z" transform="translate(-723.006 -211.09)" fill="#545454"/>
    <rect id="Rectangle_1010" data-name="Rectangle 1010" width="3.358" height="3.535" transform="translate(15.909)" fill="#545454"/>
    <rect id="Rectangle_1011" data-name="Rectangle 1011" width="3.358" height="3.535" transform="matrix(0.857, 0.515, -0.515, 0.857, 25.258, 1.431)" fill="#545454"/>
    <rect id="Rectangle_1012" data-name="Rectangle 1012" width="3.358" height="3.535" transform="matrix(0.485, 0.875, -0.875, 0.485, 32.411, 7.22)" fill="#545454"/>
    <rect id="Rectangle_1013" data-name="Rectangle 1013" width="3.358" height="3.535" transform="matrix(-0.53, 0.848, -0.848, -0.53, 34.145, 25.185)" fill="#545454"/>
    <rect id="Rectangle_1014" data-name="Rectangle 1014" width="3.358" height="3.535" transform="matrix(-0.485, 0.875, -0.875, -0.485, 6.742, 8.936)" fill="#545454"/>
    <rect id="Rectangle_1015" data-name="Rectangle 1015" width="3.358" height="3.535" transform="matrix(0.53, 0.848, -0.848, 0.53, 4.914, 23.312)" fill="#545454"/>
    <rect id="Rectangle_1016" data-name="Rectangle 1016" width="3.358" height="3.535" transform="matrix(-0.857, 0.515, -0.515, -0.857, 12.624, 4.462)" fill="#545454"/>
    <rect id="Rectangle_1017" data-name="Rectangle 1017" width="3.358" height="3.535" transform="translate(15.909 31.816)" fill="#545454"/>
    <rect id="Rectangle_1018" data-name="Rectangle 1018" width="3.358" height="3.535" transform="matrix(0.857, -0.515, 0.515, 0.857, 23.437, 30.889)" fill="#545454"/>
    <rect id="Rectangle_1019" data-name="Rectangle 1019" width="3.358" height="3.535" transform="matrix(-0.857, -0.515, 0.515, -0.857, 10.802, 33.918)" fill="#545454"/>
    <rect id="Rectangle_1020" data-name="Rectangle 1020" width="4.066" height="3.004" transform="translate(0 16.261)" fill="#545454"/>
    <rect id="Rectangle_1021" data-name="Rectangle 1021" width="4.066" height="3.004" transform="translate(36.061 19.265) rotate(180)" fill="#545454"/>
  </g>
  <g id="_2nd_pulley" data-name="2nd pulley" transform="translate(70.828 35.852)">
    <path id="Path_4541" data-name="Path 4541" d="M581.117,341.187a11.489,11.489,0,1,1-11.49,11.489,11.489,11.489,0,0,1,11.49-11.489m0-2.837a14.327,14.327,0,1,0,14.327,14.326A14.327,14.327,0,0,0,581.117,338.35Z" transform="translate(-563.088 -334.999)" fill="#545454"/>
    <rect id="Rectangle_998" data-name="Rectangle 998" width="3.358" height="3.535" transform="translate(15.907)" fill="#545454"/>
    <rect id="Rectangle_999" data-name="Rectangle 999" width="3.358" height="3.535" transform="matrix(0.857, 0.515, -0.515, 0.857, 25.255, 1.434)" fill="#545454"/>
    <rect id="Rectangle_1000" data-name="Rectangle 1000" width="3.358" height="3.535" transform="matrix(0.485, 0.875, -0.875, 0.485, 32.408, 7.223)" fill="#545454"/>
    <rect id="Rectangle_1001" data-name="Rectangle 1001" width="3.358" height="3.535" transform="matrix(-0.53, 0.848, -0.848, -0.53, 34.144, 25.187)" fill="#545454"/>
    <rect id="Rectangle_1002" data-name="Rectangle 1002" width="3.358" height="3.535" transform="matrix(-0.485, 0.875, -0.875, -0.485, 6.742, 8.935)" fill="#545454"/>
    <rect id="Rectangle_1003" data-name="Rectangle 1003" width="3.358" height="3.535" transform="matrix(0.53, 0.848, -0.848, 0.53, 4.913, 23.312)" fill="#545454"/>
    <rect id="Rectangle_1004" data-name="Rectangle 1004" width="3.358" height="3.535" transform="matrix(-0.857, 0.515, -0.515, -0.857, 12.622, 4.464)" fill="#545454"/>
    <rect id="Rectangle_1005" data-name="Rectangle 1005" width="3.358" height="3.535" transform="translate(15.907 31.818)" fill="#545454"/>
    <rect id="Rectangle_1006" data-name="Rectangle 1006" width="3.358" height="3.535" transform="matrix(0.857, -0.515, 0.515, 0.857, 23.435, 30.89)" fill="#545454"/>
    <rect id="Rectangle_1007" data-name="Rectangle 1007" width="3.358" height="3.535" transform="matrix(-0.857, -0.515, 0.515, -0.857, 10.802, 33.92)" fill="#545454"/>
    <rect id="Rectangle_1008" data-name="Rectangle 1008" width="4.066" height="3.004" transform="translate(0 16.263)" fill="#545454"/>
    <rect id="Rectangle_1009" data-name="Rectangle 1009" width="4.066" height="3.004" transform="translate(36.057 19.267) rotate(180)" fill="#545454"/>
  </g>
  <g id="_1st_pulley" data-name="1st pulley" transform="translate(44.092 14.229)">
    <path id="Path_4543" data-name="Path 4543" d="M419.932,211.966h.406a11.489,11.489,0,1,1-.391,22.974c-.135,0-.27,0-.407,0a11.489,11.489,0,1,1,.392-22.974m0-2.836h0a14.326,14.326,0,1,0-.491,28.647c.167,0,.334.006.5.006a14.326,14.326,0,1,0,.489-28.647c-.167,0-.334-.006-.5-.006Z" transform="translate(-401.865 -205.72)" fill="#545454"/>
    <rect id="Rectangle_1022" data-name="Rectangle 1022" width="3.358" height="3.535" transform="translate(16.566 0) rotate(1.99)" fill="#545454"/>
    <rect id="Rectangle_1023" data-name="Rectangle 1023" width="3.358" height="3.535" transform="matrix(0.839, 0.544, -0.544, 0.839, 25.857, 1.755)" fill="#545454"/>
    <rect id="Rectangle_1024" data-name="Rectangle 1024" width="3.358" height="3.535" transform="translate(32.806 7.788) rotate(62.99)" fill="#545454"/>
    <rect id="Rectangle_1025" data-name="Rectangle 1025" width="3.358" height="3.535" transform="translate(33.918 25.797) rotate(123.99)" fill="#545454"/>
    <rect id="Rectangle_1026" data-name="Rectangle 1026" width="3.358" height="3.535" transform="matrix(-0.515, 0.857, -0.857, -0.515, 7.094, 8.607)" fill="#545454"/>
    <rect id="Rectangle_1027" data-name="Rectangle 1027" width="3.37" height="3.547" transform="translate(4.534 23.175) rotate(60.113)" fill="#545454"/>
    <rect id="Rectangle_1028" data-name="Rectangle 1028" width="3.358" height="3.535" transform="translate(13.131 4.34) rotate(150.99)" fill="#545454"/>
    <rect id="Rectangle_1029" data-name="Rectangle 1029" width="3.358" height="3.535" transform="translate(15.462 31.796) rotate(1.99)" fill="#545454"/>
    <rect id="Rectangle_1030" data-name="Rectangle 1030" width="3.358" height="3.535" transform="translate(23.019 31.132) rotate(-29.01)" fill="#545454"/>
    <rect id="Rectangle_1031" data-name="Rectangle 1031" width="3.358" height="3.535" transform="matrix(-0.839, -0.544, 0.544, -0.839, 10.29, 33.717)" fill="#545454"/>
    <rect id="Rectangle_1032" data-name="Rectangle 1032" width="4.066" height="3.004" transform="translate(0.104 15.699) rotate(1.99)" fill="#545454"/>
    <rect id="Rectangle_1033" data-name="Rectangle 1033" width="4.066" height="3.004" transform="translate(36.039 19.948) rotate(-178.01)" fill="#545454"/>
  </g>
  <g id="woman" transform="translate(3.315 19.296)">
    <ellipse id="path" cx="36.384" cy="2.587" rx="36.384" ry="2.587" transform="translate(0 95.988)" fill="#6c63ff" opacity="0.1"/>
    <path id="path-2" data-name="path" d="M249.256,303.563c.5-.9,1.1-1.747,1.584-2.659.442-.835.788-1.719,1.187-2.577.683-1.469,1.524-2.857,2.29-4.286a5.53,5.53,0,0,0,.888-3.014,21.309,21.309,0,0,0-.906-2.837c-.925-3.974-3.149-7.622-4.506-11.466-.347-.975-.684-1.956-1.118-2.9a30.685,30.685,0,0,0-3.171-5.052,14.266,14.266,0,0,0-1.4-1.742c-.419-.419-.89-.788-1.27-1.242-.784-.935-1.152-2.28-2.133-3-.017.043-.035.085-.053.129-.7-1.794-3.059-2.978-4.426-4.465a26.281,26.281,0,0,1-2.191-2.879l-2.976-4.3a7.226,7.226,0,0,1-1.242-2.385c-.254-1.065-.018-2.2-.269-3.265a4.117,4.117,0,0,0-.91-1.729c.028-.008.058-.02.088-.027.567-.152,1.168-.179,1.731-.314,1.227-.292,2.293-1.077,3.515-1.39a8.573,8.573,0,0,0,1.856-.5,1.542,1.542,0,0,0,.718-1.639c-.4-2.095.709-4.218.522-6.342-.05-.587-.2-1.16-.3-1.742a18.474,18.474,0,0,1-.1-4.109,8.679,8.679,0,0,1,1.36-1.691,11.209,11.209,0,0,0,2.17-2.241,4.371,4.371,0,0,0,.451-2.69,2.6,2.6,0,0,0-.835-1.776,2.1,2.1,0,0,0-1.916-.224c-.088.028-.175.063-.26.1a2.188,2.188,0,0,0-1.726-.1,5.23,5.23,0,0,0-1.689,1.065,3.86,3.86,0,0,0-.788.834,4.949,4.949,0,0,0-.537,1.707,16.689,16.689,0,0,1-1.127,3.3c-.09.187-.334.522-.531.843l-.357-.073c-.155,1.487-1.4,2.579-2.158,3.864-.369.624-.628,1.307-.96,1.953a18.931,18.931,0,0,1-1.267,2.031q-.676,1-1.354,1.984A28.2,28.2,0,0,1,223.3,239.2c-.613-.05-1.225-.1-1.836-.105a14.9,14.9,0,0,0-3.056.272,8.51,8.51,0,0,1-.109-1.07v-.065c0-.087.01-.19.022-.3a6.175,6.175,0,0,0-.3-10.448,4.493,4.493,0,0,0,.063-.567v-.334a.788.788,0,0,0-.012-.167,2.208,2.208,0,0,0-.057-.334c-.013-.053-.028-.107-.047-.167a1.576,1.576,0,0,0-.139-.3l-.012-.017c-.022-.035-.043-.07-.068-.1s-.022-.027-.032-.04a.792.792,0,0,0-.057-.07l-.042-.043c-.018-.02-.037-.04-.057-.058l-.047-.042-.058-.052-.053-.04-.06-.045-.058-.038-.06-.038c-.02-.013-.042-.025-.063-.037l-.062-.035-.067-.033-.062-.03-.073-.032-.06-.027-.08-.03-.057-.022-.087-.03-.052-.017-.1-.03-.045-.013-.1-.028-.04-.012-.108-.027-.032-.008-.12-.027h-.02l-.177-.038q-1.1-.225-2.206-.389a4.971,4.971,0,0,0-1.824-.032,12.632,12.632,0,0,0-2.283,1.087,15.348,15.348,0,0,1-2.894.744,4.395,4.395,0,0,0-2.58,1.407,4.913,4.913,0,0,0-.788,2.133c-1.155,6.282.09,12.726.325,19.112.092,2.485-.02,5.142-1.429,7.177l4.1-.109c.2,0,.4-.012.6-.023s.4-.027.6-.05a3.952,3.952,0,0,0,1.487-.446,2.567,2.567,0,0,0,.579-.451,5.772,5.772,0,0,0,1.127-2.145c.092-.259.184-.521.265-.784.033-.11.065-.22.093-.334l.013-.053.047.022a10.32,10.32,0,0,0,.556.918,19.884,19.884,0,0,0,2.525,2.852,24.408,24.408,0,0,0,5.867,4.728,7.05,7.05,0,0,1,2.155,1.335c.284.305.529.7.931.8a4.633,4.633,0,0,1,.764.107c.35.147.479.569.641.916s.527.7.875.542a1.754,1.754,0,0,0,.654,1.741,1.278,1.278,0,0,1,.424.381,1.383,1.383,0,0,1,.087.447,1.767,1.767,0,0,0,.633,1.083c-.325.539-.065,1.312-.057,1.984a7.462,7.462,0,0,1-.312,1.657,12.2,12.2,0,0,0,.134,4.92,5.346,5.346,0,0,0,.963,2.52c.19.225.417.421.618.639a5.943,5.943,0,0,1,.943,1.437,11.266,11.266,0,0,1,1.023,3.278,5.968,5.968,0,0,0,.484,1.652c.366.8.032,1.779.359,2.594a7.528,7.528,0,0,1,.511,1.06,4.825,4.825,0,0,1-.245,1.677c-.19,1.325.766,2.555.853,3.89a.307.307,0,0,1-.047.225c-.065.073-.177.072-.265.114-.167.08-.212.305-.265.492s-.2.4-.389.342c-2.742,1.467-5.581,2.822-8.323,4.289l-1.252.668-6.694,3.577a.484.484,0,0,0-.269.437c0,.08.01.167.017.242-.469.117-.92.257-1.24.315-.132.025-.264.05-.394.078a.421.421,0,0,0,.06-.167.334.334,0,0,0-.3-.334,1.069,1.069,0,0,0-.482.063,7.037,7.037,0,0,1-1.168.215,8.337,8.337,0,0,0-1.4.167,1.592,1.592,0,0,0-1.085.835,2.024,2.024,0,0,0-.12.788,12.059,12.059,0,0,0,.364,3.061.26.26,0,0,0,.122.2c.058.023.129,0,.187.027a.25.25,0,0,1,.108.137,6.863,6.863,0,0,1,.421,2.043q.167,1.544.422,3.079a3.418,3.418,0,0,0,.613,1.682,2.748,2.748,0,0,0,1.756.811,12.252,12.252,0,0,0,4.126-.379,1.208,1.208,0,0,0,.7-.315.786.786,0,0,0,.167-.556c-.032-.686-.656-1.168-1.223-1.554l-.774-.536a.334.334,0,0,1-.167-.377l.05-1.013h-.15a3.639,3.639,0,0,1,.961-1.891c.362-.334.835-.567,1.213-.871a3,3,0,0,0,1.687.619,13.752,13.752,0,0,1,3.822-3.171,37.378,37.378,0,0,1,3.547-1.979q1.479-.731,3-1.37c1.435-.6,2.9-1.143,4.361-1.669A17.559,17.559,0,0,0,237,301.686a7.167,7.167,0,0,0,3.672-6.744c-.4-3.4.452-6.953.4-10.381a10.29,10.29,0,0,0-.357-2.962,1.582,1.582,0,0,1,.2.167c.607.567.754,1.469,1.335,2.116.452.509,1.14.835,1.414,1.455.209.476.179,1.118.614,1.392.123.078.27.112.394.189a1.318,1.318,0,0,1,.366.4,4.439,4.439,0,0,1,.991,2.17c.022.319-.008.688.225.9.067.062.152.107.187.19.073.167-.12.344-.154.529-.048.257.205.452.362.668a1.05,1.05,0,0,1,0,1.237c-1.369,1.778-1.616,4.173-2.812,6.074-.414.656-.875,1.277-1.275,1.941a24.974,24.974,0,0,0-2.458,6.691,3.7,3.7,0,0,0,1.026,1.145,5.675,5.675,0,0,1-1.143,2.111,5.305,5.305,0,0,0-.377.472.918.918,0,0,0-.372-.28,13.223,13.223,0,0,0-.334,2.921,2.084,2.084,0,0,0,.614,1.761,2.179,2.179,0,0,0,.683.282l1.145.334a1.2,1.2,0,0,0,.633.062c.135-.038.255-.122.394-.148a.966.966,0,0,1,.444.058l.99.289a6.541,6.541,0,0,1,.978.346c.282.135.542.31.819.461a9.9,9.9,0,0,0,1.43.588l1.706.587a6.206,6.206,0,0,0,1.479.384c.35.03.706,0,1.051.06.264.045.519.14.784.167a2.057,2.057,0,0,0,1.235-.367,1.1,1.1,0,0,0,.357-.322,1.275,1.275,0,0,0-.209-1.3,5.142,5.142,0,0,0-1.764-1.836c-.3-.167-.629-.29-.941-.444-.888-.434-1.557-1.158-2.4-1.654a.569.569,0,0,0-.719.048,4.858,4.858,0,0,1-1.836-1.631,3.671,3.671,0,0,1-.334-1.127c.392.093.788.167,1.187.232A30.531,30.531,0,0,1,249.256,303.563Zm-16.034-71.182c-.033.189-.07.376-.11.562a9.44,9.44,0,0,1-1.9,4.49,4.173,4.173,0,0,1-1.232.813l-.122.06A26.778,26.778,0,0,1,233.222,232.382Z" transform="translate(-191.794 -219.074)" fill="url(#linear-gradient)"/>
    <path id="path-3" data-name="path" d="M388.392,224.554a4.982,4.982,0,0,1,.539-1.7,3.874,3.874,0,0,1,.789-.835,5.264,5.264,0,0,1,1.692-1.058,2.114,2.114,0,0,1,1.918.222,2.552,2.552,0,0,1,.843,1.764,4.343,4.343,0,0,1-.452,2.67,11,11,0,0,1-2.17,2.226,8.618,8.618,0,0,0-1.414,1.762,5.019,5.019,0,0,1-.644.941,1.223,1.223,0,0,1-1.023.409,1.8,1.8,0,0,1-.834-.489c-.309-.27-1.14-.753-1.168-1.182-.02-.347.629-1.135.788-1.46A16.443,16.443,0,0,0,388.392,224.554Z" transform="translate(-345.348 -220.543)" fill="#fbbebe"/>
    <path id="path-4" data-name="path" d="M293,282.96a14.97,14.97,0,0,1,4.1-.5c2.308.033,4.685.592,6.883-.115a11.944,11.944,0,0,0,1.651-.716,4.189,4.189,0,0,0,1.232-.808,9.41,9.41,0,0,0,1.906-4.46,29.76,29.76,0,0,0,.519-4.747,3.622,3.622,0,0,0,1.8.474,1.3,1.3,0,0,0,1.257-1.168,19.1,19.1,0,0,0,.082,4.421c.1.578.247,1.147.3,1.731.187,2.11-.92,4.218-.524,6.3a1.527,1.527,0,0,1-.718,1.627,7.842,7.842,0,0,1-1.859.5c-1.223.312-2.292,1.09-3.52,1.38-.572.135-1.168.167-1.732.312-.811.214-1.547.678-2.373.824-.619.11-1.257.035-1.883.088-.544.045-1.078.189-1.624.2a4.686,4.686,0,0,1-3.487-1.726A14.653,14.653,0,0,1,293,282.96Z" transform="translate(-267.481 -262.267)" fill="#1080b0"/>
    <path id="path-5" data-name="path" d="M388.392,224.554a4.982,4.982,0,0,1,.539-1.7,3.874,3.874,0,0,1,.789-.835,5.264,5.264,0,0,1,1.692-1.058,2.114,2.114,0,0,1,1.918.222,2.552,2.552,0,0,1,.843,1.764,4.343,4.343,0,0,1-.452,2.67,11,11,0,0,1-2.17,2.226,8.618,8.618,0,0,0-1.414,1.762,5.019,5.019,0,0,1-.644.941,1.223,1.223,0,0,1-1.023.409,1.8,1.8,0,0,1-.834-.489c-.309-.27-1.14-.753-1.168-1.182-.02-.347.629-1.135.788-1.46A16.443,16.443,0,0,0,388.392,224.554Z" transform="translate(-345.348 -220.543)" opacity="0.1"/>
    <path id="path-6" data-name="path" d="M293,282.96a14.97,14.97,0,0,1,4.1-.5c2.308.033,4.685.592,6.883-.115a11.944,11.944,0,0,0,1.651-.716,4.189,4.189,0,0,0,1.232-.808,9.41,9.41,0,0,0,1.906-4.46,29.76,29.76,0,0,0,.519-4.747,3.622,3.622,0,0,0,1.8.474,1.3,1.3,0,0,0,1.257-1.168,19.1,19.1,0,0,0,.082,4.421c.1.578.247,1.147.3,1.731.187,2.11-.92,4.218-.524,6.3a1.527,1.527,0,0,1-.718,1.627,7.842,7.842,0,0,1-1.859.5c-1.223.312-2.292,1.09-3.52,1.38-.572.135-1.168.167-1.732.312-.811.214-1.547.678-2.373.824-.619.11-1.257.035-1.883.088-.544.045-1.078.189-1.624.2a4.686,4.686,0,0,1-3.487-1.726A14.653,14.653,0,0,1,293,282.96Z" transform="translate(-267.481 -262.267)" opacity="0.1"/>
    <path id="path-7" data-name="path" d="M256.484,731.444a3.447,3.447,0,0,0-1.183.369,2.78,2.78,0,0,0-1.03,1.389,12.023,12.023,0,0,0-.691,4.339,9.33,9.33,0,0,0,.446,3.513,2.22,2.22,0,0,0,.589.92,2.1,2.1,0,0,0,.806.391,2.2,2.2,0,0,0,1.889-.234,3.014,3.014,0,0,0,.845-1.971,4.6,4.6,0,0,1,1.123-2.682c.537-.5,1.307-.751,1.7-1.372a2.933,2.933,0,0,0-.077-2.522c-.259-.711-.638-2.155-1.382-2.518S257.258,731.3,256.484,731.444Z" transform="translate(-234.636 -645.517)" fill="#fbbebe"/>
    <path id="path-8" data-name="path" d="M426.6,747.892a5.581,5.581,0,0,1-1.168,2.155c-.334.381-.743.843-.567,1.315a1.178,1.178,0,0,0,.31.416,15.923,15.923,0,0,0,9.266,3.984.317.317,0,0,0,.167,0c.1-.045.124-.167.137-.279a3.529,3.529,0,0,0,0-1.068,3.2,3.2,0,0,0-1.6-1.871,5.009,5.009,0,0,1-1.886-1.647c-.5-.928-.285-2.136-.875-3a3.185,3.185,0,0,0-2.2-1.14c-.292-.045-.913-.365-1.168-.217S426.685,747.6,426.6,747.892Z" transform="translate(-377.298 -658.469)" fill="#fbbebe"/>
    <path id="path-9" data-name="path" d="M246.248,731.7a.334.334,0,0,0-.3-.334,1.068,1.068,0,0,0-.482.062,7.049,7.049,0,0,1-1.168.214,8.39,8.39,0,0,0-1.4.167,1.586,1.586,0,0,0-1.087.835,2.068,2.068,0,0,0-.12.783,11.956,11.956,0,0,0,.364,3.039.264.264,0,0,0,.124.2c.058.023.129,0,.187.027a.247.247,0,0,1,.108.135,6.708,6.708,0,0,1,.422,2.03q.167,1.534.422,3.058a3.35,3.35,0,0,0,.614,1.669,2.745,2.745,0,0,0,1.757.8,12.382,12.382,0,0,0,4.132-.377,1.2,1.2,0,0,0,.7-.312.778.778,0,0,0,.167-.552c-.032-.681-.658-1.168-1.225-1.542l-.781-.526a.405.405,0,0,1-.137-.123.441.441,0,0,1-.038-.25l.05-1a2.867,2.867,0,0,0-2.5,1.554c-.108.215-.21.467-.436.551a.576.576,0,0,1-.683-.412,1.8,1.8,0,0,1,.025-.881c.457-2.45.35-4.969.629-7.445a1.7,1.7,0,0,1,.249-.784C245.971,732.088,246.223,731.924,246.248,731.7Z" transform="translate(-224.734 -645.856)" fill="#3f3d56"/>
    <path id="path-10" data-name="path" d="M430.56,772.49c.115.19.294.334.4.531a.45.45,0,0,1-.087.6.587.587,0,0,1-.361.037,12.2,12.2,0,0,1-6.6-2.984,4.622,4.622,0,0,1-.808-.886c-.215-.334-.4-.726-.764-.863a13.048,13.048,0,0,0-.334,2.9,2.064,2.064,0,0,0,.614,1.749,2.2,2.2,0,0,0,.684.279l1.147.324a1.22,1.22,0,0,0,.634.062c.135-.037.255-.122.394-.147a.974.974,0,0,1,.446.057l.99.289a6.547,6.547,0,0,1,.98.334c.282.134.544.309.82.457a9.808,9.808,0,0,0,1.434.582l1.742.6a6.144,6.144,0,0,0,1.482.38c.35.03.706,0,1.053.06.264.045.519.14.786.167a2.078,2.078,0,0,0,1.235-.365,1.117,1.117,0,0,0,.359-.319,1.261,1.261,0,0,0-.21-1.293,5.079,5.079,0,0,0-1.766-1.818c-.3-.167-.631-.29-.943-.442-.888-.431-1.561-1.15-2.4-1.642C430.7,770.677,430.187,771.878,430.56,772.49Z" transform="translate(-374.959 -677.15)" fill="#3f3d56"/>
    <path id="path-11" data-name="path" d="M266.319,328.578a7.219,7.219,0,0,1-3.081,1.2,12.426,12.426,0,0,1-1.744.093,44.367,44.367,0,0,1-7.254-.606,8.888,8.888,0,0,0,2.28-3.548,5.826,5.826,0,0,0,.109-2.223,16.642,16.642,0,0,0-.678-2.8,19.4,19.4,0,0,0,3.066-.078c.581-.058,2-.588,2.5-.187.469.372.115,1.689.107,2.3v.065a7.39,7.39,0,0,0,.586,2.68A5.1,5.1,0,0,0,266.319,328.578Z" transform="translate(-235.19 -303.388)" fill="#fbbebe"/>
    <circle id="path-12" data-name="path" cx="6.109" cy="6.109" r="6.109" transform="translate(16.991 7.822)" fill="#fbbebe"/>
    <path id="path-13" data-name="path" d="M275.986,376.554a2.837,2.837,0,0,1-1.377,2.452,5.44,5.44,0,0,1-1.5.526,29.645,29.645,0,0,1-8.525,1.053,4.7,4.7,0,0,1-1.809-.381,1.933,1.933,0,0,1-1.117-1.4,1.321,1.321,0,0,0-.088-.444,1.252,1.252,0,0,0-.424-.377,1.738,1.738,0,0,1-.644-1.724c-.349.155-.713-.2-.876-.541s-.292-.763-.643-.908a5.235,5.235,0,0,0-.766-.107c-.4-.1-.648-.5-.931-.8a7.243,7.243,0,0,0-2.158-1.32,24.391,24.391,0,0,1-5.875-4.695,19.52,19.52,0,0,1-2.529-2.837c-.2-.3-.384-.6-.556-.911a25.623,25.623,0,0,1-1.409-3.223,3.707,3.707,0,0,1-.364-1.836c.008-.057.02-.114.033-.167a3.514,3.514,0,0,1,.554-1.12,4.675,4.675,0,0,1,2.5-2.058,6.961,6.961,0,0,1,3.22.289,8.215,8.215,0,0,0,1.093.167,10.193,10.193,0,0,0,3.4-.534l1.212-.334c.608-.167.911-.9,1.525-1.03a2.141,2.141,0,0,1,.823.042,11.352,11.352,0,0,1,3.6,1.177,5.928,5.928,0,0,1,.7.476,4.425,4.425,0,0,1,1.626,2.4c.25,1.056.015,2.185.269,3.241a7.184,7.184,0,0,0,1.245,2.37l2.983,4.259a26.471,26.471,0,0,0,2.195,2.861C272.972,372.869,275.946,374.186,275.986,376.554Z" transform="translate(-226.969 -331.713)" fill="#1080b0"/>
    <path id="path-14" data-name="path" d="M376.454,224.554a4.978,4.978,0,0,1,.537-1.7,3.874,3.874,0,0,1,.789-.835,5.283,5.283,0,0,1,1.692-1.058,2.114,2.114,0,0,1,1.918.222,2.552,2.552,0,0,1,.843,1.764,4.343,4.343,0,0,1-.452,2.67,11,11,0,0,1-2.17,2.226,8.68,8.68,0,0,0-1.414,1.762,5.022,5.022,0,0,1-.644.941,1.223,1.223,0,0,1-1.023.409,1.813,1.813,0,0,1-.834-.489c-.309-.27-1.142-.753-1.168-1.182-.02-.347.629-1.135.788-1.46A16.555,16.555,0,0,0,376.454,224.554Z" transform="translate(-335.401 -220.543)" fill="#fbbebe"/>
    <path id="path-15" data-name="path" d="M317.722,512.13c-.768,1.417-1.609,2.8-2.293,4.256-.4.853-.744,1.731-1.188,2.56-.484.9-1.08,1.746-1.586,2.64a30.314,30.314,0,0,0-2.639,7.3,14.546,14.546,0,0,1-5.2-1.836c-.109-.063-.212-.13-.312-.2a3.712,3.712,0,0,1-1.05-1.157,24.7,24.7,0,0,1,2.462-6.646c.4-.668.863-1.277,1.277-1.928,1.2-1.886,1.447-4.266,2.817-6.032a1.036,1.036,0,0,0,0-1.228c-.158-.205-.411-.4-.364-.654.035-.185.229-.352.154-.526-.035-.083-.12-.129-.187-.189-.234-.215-.2-.582-.224-.9a4.341,4.341,0,0,0-1-2.155,1.335,1.335,0,0,0-.366-.394c-.124-.075-.27-.109-.394-.185-.437-.274-.406-.911-.616-1.384-.274-.623-.963-.94-1.415-1.445-.576-.643-.723-1.539-1.335-2.1a1.661,1.661,0,0,0-.2-.167,10.292,10.292,0,0,1,.355,2.942c.058,3.4-.793,6.926-.394,10.308a7.1,7.1,0,0,1-3.68,6.7,17.726,17.726,0,0,1-2.864,1.207c-1.467.519-2.929,1.055-4.368,1.656q-1.525.631-3,1.36a37.968,37.968,0,0,0-3.553,1.966,13.733,13.733,0,0,0-3.827,3.151,3.442,3.442,0,0,1-2.472-1.36,9.433,9.433,0,0,1-1.354-2.564,7.114,7.114,0,0,1-.643-2.413.477.477,0,0,1,.29-.417l6.7-3.553,1.253-.667c2.745-1.457,5.589-2.8,8.335-4.259.185.055.334-.155.389-.334s.094-.409.267-.489c.087-.042.2-.04.265-.114a.317.317,0,0,0,.047-.222c-.088-1.335-1.046-2.549-.855-3.865a4.685,4.685,0,0,0,.245-1.669,7.281,7.281,0,0,0-.511-1.053c-.334-.81,0-1.784-.36-2.577a5.956,5.956,0,0,1-.484-1.642,11.154,11.154,0,0,0-1.025-3.255,5.933,5.933,0,0,0-.943-1.427c-.2-.217-.429-.411-.621-.636a5.285,5.285,0,0,1-.963-2.5,12.069,12.069,0,0,1-.134-4.887,6.939,6.939,0,0,0,.312-1.646c-.008-.739-.334-1.6.18-2.136a1.659,1.659,0,0,1,.751-.386,22.672,22.672,0,0,1,3.635-.668l5.6-.733a5.084,5.084,0,0,0,1.863-.486,3.746,3.746,0,0,0,1.572-2c.983.718,1.35,2.055,2.135,2.981.382.452.855.818,1.273,1.233a14.29,14.29,0,0,1,1.4,1.731,30.467,30.467,0,0,1,3.171,5.019c.436.935.773,1.909,1.12,2.879,1.367,3.817,3.6,7.44,4.52,11.386a21.677,21.677,0,0,1,.908,2.822A5.391,5.391,0,0,1,317.722,512.13Z" transform="translate(-255.201 -437.359)" fill="#484848"/>
    <path id="path-16" data-name="path" d="M337.967,472.3a1.72,1.72,0,0,0-.207.826c.125-.617.975-.96,1.03-1.57.025-.282-.027-.269-.2-.12C338.326,471.66,338.211,472.054,337.967,472.3Z" transform="translate(-304.77 -429.226)" opacity="0.1"/>
    <path id="path-17" data-name="path" d="M351.913,487.384a1.274,1.274,0,0,0-.387.572,1.452,1.452,0,0,0-.078,1c.125-.058.167-.212.205-.346a2.41,2.41,0,0,1,.265-.591c.1-.167.563-.539.561-.714C352.474,487.039,352.037,487.289,351.913,487.384Z" transform="translate(-316.128 -442.438)" opacity="0.1"/>
    <path id="path-18" data-name="path" d="M260.233,355.908a6.3,6.3,0,0,1-1.288.858c-1.21.613-2.55.936-3.769,1.53a18.673,18.673,0,0,0-1.749,1.02l-3.622,2.295a3.882,3.882,0,0,0-.8.606c-.436.464-.434,1.28-.835,1.777a2.445,2.445,0,0,1-1.757.811,5.712,5.712,0,0,1-1.958-.334,10.18,10.18,0,0,1-1.118-.407,5.269,5.269,0,0,1-1.075-.614,3.067,3.067,0,0,1-1.265-2,3.955,3.955,0,0,1,.215-1.632,6.258,6.258,0,0,1,.386-.99,3.978,3.978,0,0,1,.307-.521,5.728,5.728,0,0,1,3.715-2c.744-.145,1.5-.234,2.255-.361a8.2,8.2,0,0,0,1.093.167,10.192,10.192,0,0,0,3.4-.534l1.212-.334c.607-.167.911-.9,1.525-1.03a2.142,2.142,0,0,1,.823.042,11.352,11.352,0,0,1,3.6,1.177A5.938,5.938,0,0,1,260.233,355.908Z" transform="translate(-224.149 -331.638)" opacity="0.1"/>
    <path id="path-19" data-name="path" d="M263.182,267.35c-.155,1.477-1.4,2.562-2.17,3.839-.369.619-.628,1.3-.96,1.939a19.221,19.221,0,0,1-1.268,2.02l-1.357,1.969a20.375,20.375,0,0,1-2.624,3.3c-1.778.3-3.268,1.622-4.954,2.263a25.389,25.389,0,0,1-4.234.858,5.779,5.779,0,0,0-3.714,2,5.242,5.242,0,0,0-.694,1.5,3.892,3.892,0,0,0-.214,1.631,3.1,3.1,0,0,0,1.263,2,6.99,6.99,0,0,0,2.193,1.021,5.749,5.749,0,0,0,1.958.334,2.382,2.382,0,0,0,1.759-.811c.414-.521.394-1.314.835-1.778a3.9,3.9,0,0,1,.8-.606l3.622-2.295a18.659,18.659,0,0,1,1.747-1.013c1.218-.6,2.559-.918,3.769-1.53a4.488,4.488,0,0,0,2.579-2.959c.738-4.1,3.577-7.561,6.008-10.949-.08-.017-.055-.2-.085-.275a3.5,3.5,0,0,0-1.779-1.793A10.526,10.526,0,0,0,263.182,267.35Z" transform="translate(-224.143 -259.293)" fill="#1080b0"/>
    <path id="path-20" data-name="path" d="M217.644,253.356a2.263,2.263,0,0,0-.252-1.288,2.885,2.885,0,0,0-2-1.06q-1.1-.225-2.21-.387a4.989,4.989,0,0,0-1.828-.03,12.366,12.366,0,0,0-2.287,1.078,15.611,15.611,0,0,1-2.9.739,4.414,4.414,0,0,0-2.584,1.4,4.838,4.838,0,0,0-.788,2.116c-1.157,6.24.088,12.641.325,18.983.092,2.468-.02,5.107-1.43,7.135l4.107-.108a3.734,3.734,0,0,0,4.388-3.093,7.307,7.307,0,0,0,.524-2.113c.065-1.49-.781-2.954-.5-4.421a4.928,4.928,0,0,1,1.854-2.7,16.17,16.17,0,0,0,2.49-2.216,8.068,8.068,0,0,0,1.313-5.663,21.592,21.592,0,0,1-.2-3.53,4.451,4.451,0,0,1,.931-2.473A3.451,3.451,0,0,0,217.644,253.356Z" transform="translate(-191.411 -245.268)" fill="#3f3d56"/>
    <path id="path-21" data-name="path" d="M437.8,584.214,430.26,602.6a3.711,3.711,0,0,1-1.05-1.157,24.706,24.706,0,0,1,2.462-6.646c.4-.668.863-1.277,1.277-1.928,1.2-1.886,1.447-4.266,2.817-6.032a1.036,1.036,0,0,0,0-1.228c-.159-.205-.411-.4-.364-.654.035-.185.229-.352.154-.526-.035-.083-.12-.129-.187-.189-.234-.215-.2-.583-.224-.9a4.342,4.342,0,0,0-1-2.155,1.336,1.336,0,0,0-.366-.394c-.123-.075-.27-.109-.394-.185-.437-.274-.406-.911-.616-1.384-.274-.623-.963-.94-1.415-1.445-.576-.643-.723-1.539-1.335-2.1l-.052-.13.587-3.547Z" transform="translate(-380.957 -513.096)" opacity="0.1"/>
    <path id="path-22" data-name="path" d="M270.165,322.674a6.122,6.122,0,0,1-5.007.768,16.634,16.634,0,0,0-.678-2.8,19.4,19.4,0,0,0,3.066-.078c.581-.058,2-.587,2.5-.187C270.527,320.75,270.173,322.067,270.165,322.674Z" transform="translate(-243.721 -303.346)" opacity="0.1"/>
    <path id="path-23" data-name="path" d="M217.35,254.561a2.837,2.837,0,0,0-1.969-1.052,1.941,1.941,0,0,1,.975.768,2.25,2.25,0,0,1,.252,1.288,3.435,3.435,0,0,1-1.053,2.368,4.446,4.446,0,0,0-.931,2.473,21.592,21.592,0,0,0,.2,3.53,8.076,8.076,0,0,1-1.312,5.663,16.416,16.416,0,0,1-2.49,2.216,4.922,4.922,0,0,0-1.856,2.7c-.275,1.467.571,2.931.5,4.421a7.31,7.31,0,0,1-.526,2.113,3.737,3.737,0,0,1-4.388,3.093l-2.909.077c-.065.107-.132.214-.2.315l4.107-.108a3.734,3.734,0,0,0,4.388-3.093,7.307,7.307,0,0,0,.524-2.113c.065-1.49-.781-2.954-.5-4.421a4.927,4.927,0,0,1,1.854-2.7,16.173,16.173,0,0,0,2.49-2.216,8.068,8.068,0,0,0,1.314-5.663,21.594,21.594,0,0,1-.2-3.53,4.451,4.451,0,0,1,.931-2.473,3.407,3.407,0,0,0,1.053-2.368A2.263,2.263,0,0,0,217.35,254.561Z" transform="translate(-191.369 -247.762)" opacity="0.1"/>
  </g>
</svg>
