<svg id="icon_building" xmlns="http://www.w3.org/2000/svg" width="100" height="100" viewBox="0 0 100 100">
  <rect id="shape" width="100" height="100" fill="none"/>
  <path id="Building" d="M3149.94,3272.476c0-4.323-1.316-5.315-7.05-5.315h-7.1c0-1.027,0-1.829,0-2.632-.006-3.557-1.58-4.756-6.271-4.759-2.583,0-5.168,0-7.877,0,0-1.479.042-2.755-.008-4.029-.1-2.452-1.967-3.87-5.143-3.924-.5-.007-.994-.007-1.49-.013s-.994.007-1.494.013c-3.174.054-5.038,1.472-5.14,3.924-.051,1.274-.008,2.549-.008,4.029-2.712,0-5.291,0-7.879,0-4.69,0-6.266,1.2-6.275,4.759v2.632h-7.1c-5.728,0-7.047.992-7.047,5.315,0,21.6-.061,74.328-.061,74.328,11.737,0,23.369-.01,35-.023,11.635.013,23.267.023,35,.023C3150,3346.8,3149.94,3294.076,3149.94,3272.476Zm-40.1,54.3h-15.29c0-4.323,0-8.565.008-12.812a1.285,1.285,0,0,1,.154-.4c1.107-2.814,4.568-4.56,8.4-4.249,3.658.3,6.541,2.627,6.668,5.571.122,2.979.047,5.962.055,8.941C3109.849,3324.8,3109.842,3325.774,3109.842,3326.779Zm0-28.876c.007,1.074,0,2.15,0,3.292h-15.364c0-4.021-.054-7.9.017-11.777.059-3.2,3.32-5.658,7.439-5.743,4.216-.092,7.68,2.29,7.845,5.563C3109.924,3292.124,3109.834,3295.015,3109.842,3297.9Zm25.606,28.876h-15.294v-2.953c.011-2.979-.062-5.963.06-8.941.123-2.944,3.011-5.272,6.667-5.571,3.84-.311,7.3,1.435,8.4,4.249a1.249,1.249,0,0,1,.154.4C3135.448,3318.214,3135.448,3322.455,3135.448,3326.779Zm.073-25.583h-15.368c0-1.143,0-2.218,0-3.292.014-2.888-.076-5.779.068-8.665.166-3.273,3.628-5.655,7.844-5.563,4.118.086,7.38,2.543,7.438,5.743C3135.58,3293.3,3135.521,3297.175,3135.521,3301.2Z" transform="translate(-3064.998 -3248.804)"/>
</svg>
