<svg id="Icon_appstore" xmlns="http://www.w3.org/2000/svg" width="100" height="100" viewBox="0 0 100 100">
  <path id="shape" d="M0,0H100V100H0Z" fill="none"/>
  <g id="content" transform="translate(1 1.014)">
    <path id="Path_20099" data-name="Path 20099" d="M3.769,147.806a18.87,18.87,0,0,0,18.846,18.846H75.385a18.87,18.87,0,0,0,18.846-18.846V119.834A16.324,16.324,0,0,0,98,109.428V98.806A11.306,11.306,0,0,0,86.692,87.5H11.308A11.306,11.306,0,0,0,0,98.806v10.622a16.324,16.324,0,0,0,3.769,10.407Zm71.615,11.308H22.615a11.306,11.306,0,0,1-11.308-11.308V124.644a13.725,13.725,0,0,0,1.489.377,14.941,14.941,0,0,0,13.588-5.039,14.878,14.878,0,0,0,22.615,0,14.878,14.878,0,0,0,22.615,0A14.941,14.941,0,0,0,85.2,125.017a13.915,13.915,0,0,0,1.489-.377V147.8a11.306,11.306,0,0,1-11.308,11.308Z" transform="translate(0 -68.652)"/>
    <path id="Path_20100" data-name="Path 20100" d="M119.382,0H71.437A11.307,11.307,0,0,0,60.356,9.084l-1.207,5.993h72.52l-1.206-5.993A11.307,11.307,0,0,0,119.381,0Z" transform="translate(-46.409)"/>
    <path id="Path_20101" data-name="Path 20101" d="M163.962,332.5H126.269a3.769,3.769,0,1,0,0,7.538h37.692a3.769,3.769,0,1,0,0-7.538" transform="translate(-96.116 -260.885)"/>
  </g>
</svg>
