<svg xmlns="http://www.w3.org/2000/svg" width="48" height="40" viewBox="0 0 48 40">
  <g id="icon" transform="translate(0 0.273)">
    <rect id="shape" width="48" height="40" transform="translate(0 -0.273)" fill="none"/>
    <g id="icon-2" data-name="icon" transform="translate(8 10.727)">
      <path id="cloud" d="M193.932,180.171a6.9,6.9,0,0,0-1.126.094,9.2,9.2,0,0,0-17.053,2.39,5.712,5.712,0,1,0-1.495,11.225h19.674a6.854,6.854,0,0,0,0-13.708Z" transform="translate(-168.546 -175.411)" fill="#1dd5c1"/>
      <path id="pin" d="M509.549,175.6a3.131,3.131,0,0,0-2.406-1.122,3.7,3.7,0,0,0-.685.066,3.259,3.259,0,0,0-2.622,3.239v.024l0,.024c0,.024.005.053.008.086s.006.074.01.115c.006.066.016.154.031.248a3.289,3.289,0,0,0,.589,1.39q.611.858,1.219,1.717l.613.865c.083.117.165.234.249.349a.667.667,0,0,0,.542.286.631.631,0,0,0,.4-.142.865.865,0,0,0,.165-.185l.751-1.058.84-1.184.193-.272.283-.4a3.246,3.246,0,0,0,.619-1.814A3.109,3.109,0,0,0,509.549,175.6Z" transform="translate(-482.422 -174.475)" fill="#0b535b"/>
      <path id="dot" d="M541.018,210.674h0a.947.947,0,0,1,0,1.894h0a.947.947,0,0,1,0-1.894Z" transform="translate(-516.344 -208.362)" fill="#1dd5c1"/>
    </g>
  </g>
</svg>
