<svg id="icon_lock_open" xmlns="http://www.w3.org/2000/svg" width="20" height="20" viewBox="0 0 20 20">
  <path id="shape" d="M0,0H20V20H0Z" fill="none"/>
  <path id="svg-primary" d="M10.667,11a1.667,1.667,0,1,0,1.667,1.667A1.672,1.672,0,0,0,10.667,11Zm5-4.167h-.833V5.167a4.166,4.166,0,0,0-8.2-1.042.835.835,0,0,0,1.617.417,2.5,2.5,0,0,1,4.917.625V6.833h-7.5A1.672,1.672,0,0,0,4,8.5v8.333A1.672,1.672,0,0,0,5.667,18.5h10a1.672,1.672,0,0,0,1.667-1.667V8.5A1.672,1.672,0,0,0,15.667,6.833Zm0,9.167a.836.836,0,0,1-.833.833H6.5A.836.836,0,0,1,5.667,16V9.333A.836.836,0,0,1,6.5,8.5h8.333a.836.836,0,0,1,.833.833Z" transform="translate(-0.667 -0.167)" fill="#787878"/>
</svg>
