<svg id="Layout_N1" data-name="Layout N1" xmlns="http://www.w3.org/2000/svg" width="100" height="100" viewBox="0 0 100 100">
  <rect id="shape" width="100" height="100" fill="none"/>
  <g id="Grupo_3844" data-name="Grupo 3844" transform="translate(2 13)">
    <path id="Caminho_19865" data-name="Caminho 19865" d="M1,0H17.514a1,1,0,0,1,1,1V33.286a1,1,0,0,1-1,1H1a1,1,0,0,1-1-1V1A1,1,0,0,1,1,0Z" transform="translate(4.8 18.514)" fill="#b8b8b8"/>
    <g id="Caminho_19863" data-name="Caminho 19863" transform="translate(91.2 4.8) rotate(90)" fill="#28aaca">
      <path d="M 10.97142887115479 85.89999389648438 L 3.428573608398438 85.89999389648438 C 1.813751339912415 85.89999389648438 0.4999958276748657 84.58625030517578 0.4999958276748657 82.97144317626953 L 0.4999958276748657 3.428574800491333 C 0.4999958276748657 1.81375253200531 1.813751339912415 0.4999969601631165 3.428573608398438 0.4999969601631165 L 10.97142887115479 0.4999969601631165 C 11.45194053649902 0.4999969601631165 11.84286212921143 0.8909191489219666 11.84286212921143 1.371430277824402 L 11.84286212921143 85.02857208251953 C 11.84286212921143 85.50907135009766 11.45194053649902 85.89999389648438 10.97142887115479 85.89999389648438 Z" stroke="none"/>
      <path d="M 3.428570747375488 1 C 2.089452743530273 1 0.9999942779541016 2.089454650878906 0.9999942779541016 3.428573608398438 L 0.9999942779541016 82.971435546875 C 0.9999942779541016 84.310546875 2.089452743530273 85.39999389648438 3.428570747375488 85.39999389648438 L 10.97142887115479 85.39999389648438 C 11.17622947692871 85.39999389648438 11.34285259246826 85.23337554931641 11.34285259246826 85.02857208251953 L 11.34285259246826 1.371429443359375 C 11.34285259246826 1.166618347167969 11.17622947692871 1 10.97142887115479 1 L 3.428570747375488 1 M 3.428570747375488 0 L 10.97142887115479 0 C 11.72885227203369 0 12.34285259246826 0.6140060424804688 12.34285259246826 1.371429443359375 L 12.34285259246826 85.02857208251953 C 12.34285259246826 85.78598785400391 11.72885227203369 86.39999389648438 10.97142887115479 86.39999389648438 L 3.428570747375488 86.39999389648438 C 1.535029411315918 86.39999389648438 -5.7220458984375e-06 84.86497497558594 -5.7220458984375e-06 82.971435546875 L -5.7220458984375e-06 3.428573608398438 C -5.7220458984375e-06 1.535018920898438 1.535029411315918 0 3.428570747375488 0 Z" stroke="none" fill="#28aaca"/>
    </g>
    <path id="Caminho_19864" data-name="Caminho 19864" d="M1,0H65.514a1,1,0,0,1,1,1V25.429a2,2,0,0,1-2,2H1a1,1,0,0,1-1-1V1A1,1,0,0,1,1,0Z" transform="translate(24.686 25.371)" fill="#d4d4d4"/>
    <path id="Caminho_19866" data-name="Caminho 19866" d="M1,0H20.257a1,1,0,0,1,1,1V4.486a1,1,0,0,1-1,1H1a1,1,0,0,1-1-1V1A1,1,0,0,1,1,0Z" transform="translate(24.686 18.514)" fill="#d4d4d4"/>
    <path id="Caminho_19867" data-name="Caminho 19867" d="M1,0H20.257a1,1,0,0,1,1,1V4.486a1,1,0,0,1-1,1H1a1,1,0,0,1-1-1V1A1,1,0,0,1,1,0Z" transform="translate(47.314 18.514)" fill="#d4d4d4"/>
    <path id="Caminho_19868" data-name="Caminho 19868" d="M1,0H20.257a1,1,0,0,1,1,1V4.486a1,1,0,0,1-1,1H1a1,1,0,0,1-1-1V1A1,1,0,0,1,1,0Z" transform="translate(69.943 18.514)" fill="#d4d4d4"/>
    <g id="Grupo_3830" data-name="Grupo 3830" transform="translate(42.422 8.029)">
      <path id="Caminho_19839" data-name="Caminho 19839" d="M196.831,162h4.349a.14.14,0,0,0,.1-.239l-2.784-2.784a.14.14,0,0,0-.2,0l-.692.692a.294.294,0,0,1-.415,0h0l-2.168-2.168a.14.14,0,0,0-.2,0l-4.24,4.24a.14.14,0,0,0,.1.239h6.154Z" transform="translate(-189.506 -156.116)" fill="#1a758c"/>
      <circle id="Elipse_146" data-name="Elipse 146" cx="1.345" cy="1.345" r="1.345" fill="#1a758c"/>
    </g>
    <g id="Grupo_3829" data-name="Grupo 3829">
      <g id="image">
        <g id="image-2" data-name="image">
          <g id="Computer">
            <path id="shape-2" data-name="shape" d="M90.34,2H9.66A7.7,7.7,0,0,0,2,9.714l.048,58.629a7.7,7.7,0,0,0,7.66,7.714H90.225a7.7,7.7,0,0,0,7.66-7.714L98,9.714A7.7,7.7,0,0,0,90.34,2ZM9.66,5.086H90.34a4.612,4.612,0,0,1,4.6,4.629L94.984,56.5H5.111L5.064,9.714A4.612,4.612,0,0,1,9.66,5.086ZM90.225,72.971H9.707a4.612,4.612,0,0,1-4.6-4.629V59.585H94.984l-.163,8.758A4.612,4.612,0,0,1,90.225,72.971Z" transform="translate(-2 -2)" fill="#fcfcfc"/>
            <path id="shape-3" data-name="shape" d="M33.734,41a4.713,4.713,0,1,0,4.734,4.713A4.723,4.723,0,0,0,33.734,41Zm0,6.284a1.571,1.571,0,1,1,1.578-1.571A1.574,1.574,0,0,1,33.734,47.284Z" transform="translate(15.319 18.592)" fill="#fcfcfc"/>
          </g>
        </g>
      </g>
      <g id="image-3" data-name="image" opacity="0.5" style="isolation: isolate">
        <g id="image-4" data-name="image">
          <g id="Computer-2" data-name="Computer" style="isolation: isolate">
            <path id="shape-4" data-name="shape" d="M90.34,2H9.66A7.7,7.7,0,0,0,2,9.714l.048,58.629a7.7,7.7,0,0,0,7.66,7.714H90.225a7.7,7.7,0,0,0,7.66-7.714L98,9.714A7.7,7.7,0,0,0,90.34,2ZM9.66,5.086H90.34a4.612,4.612,0,0,1,4.6,4.629L94.984,56.5H5.111L5.064,9.714A4.612,4.612,0,0,1,9.66,5.086ZM90.225,72.971H9.707a4.612,4.612,0,0,1-4.6-4.629V59.585H94.984l-.163,8.758A4.612,4.612,0,0,1,90.225,72.971Z" transform="translate(-2 -2)" fill="#b8b8b8"/>
            <path id="shape-5" data-name="shape" d="M33.734,41a4.713,4.713,0,1,0,4.734,4.713A4.723,4.723,0,0,0,33.734,41Zm0,6.284a1.571,1.571,0,1,1,1.578-1.571A1.574,1.574,0,0,1,33.734,47.284Z" transform="translate(15.319 18.592)" fill="#b8b8b8"/>
          </g>
        </g>
      </g>
    </g>
  </g>
</svg>
