<svg id="icon_virtual_machine" xmlns="http://www.w3.org/2000/svg" width="100" height="100" viewBox="0 0 100 100">
  <rect id="shape" width="100" height="100" fill="none"/>
  <path id="virtual" d="M18489.178,3857.769a6.162,6.162,0,0,1,4.68-10.257c5.783-.042,11.566-.014,17.35-.014h.959v-3.518h-.844q-6.375,0-12.76,0a15.044,15.044,0,0,1-9.375-3.062,14.678,14.678,0,0,1-5.994-11.92c-.074-3.761-.018-7.531-.018-11.3v-29.019a14.87,14.87,0,0,1,10.447-14.637,14.607,14.607,0,0,1,4.5-.732q27.779-.07,55.553-.023a14.984,14.984,0,0,1,14.613,12.093,17.742,17.742,0,0,1,.309,3.327c.018,13.272.041,26.54-.006,39.807a15.127,15.127,0,0,1-15.34,15.462q-6.375.014-12.76,0h-.844v3.518h.84q8.631,0,17.273,0a6.159,6.159,0,0,1,1.078,12.256c-.773.07-1.553.107-2.33.107q-31.052.014-62.115.009A6.414,6.414,0,0,1,18489.178,3857.769Zm36.727-22.648q13.673,0,27.34,0a6.144,6.144,0,0,0,6.5-6.487q.015-20.013-.006-40.026a6.866,6.866,0,0,0-.186-1.8c-.857-3.057-3.15-4.7-6.533-4.7q-27.123,0-54.244.009a10.156,10.156,0,0,0-1.877.172,6.313,6.313,0,0,0-4.918,6.436c.037,13.267,0,26.539.043,39.807a7.4,7.4,0,0,0,.625,3.02,5.986,5.986,0,0,0,5.912,3.579l9.115,0Zm-29.08-48.423a7.838,7.838,0,0,1,4.656-2.484,15.433,15.433,0,0,1,2.182-.126q22.556-.007,45.123,0a7.915,7.915,0,0,1,7.824,5.406,10.051,10.051,0,0,1,.457,2.931q.05,15.854.018,31.707a8.2,8.2,0,0,1-2.166,5.872Q18525.894,3808.369,18496.824,3786.7Z" transform="translate(-18476.313 -3766.539)" fill="#181818" stroke="rgba(0,0,0,0)" stroke-miterlimit="10" stroke-width="1"/>
</svg>
