<svg id="icon_restore" xmlns="http://www.w3.org/2000/svg" width="100" height="100" viewBox="0 0 100 100">
  <rect id="shape" width="100" height="100" fill="none"/>
  <g id="restore" transform="translate(-327.71 -503.997)">
    <path id="shape-2" data-name="shape" d="M8.374,0A8.374,8.374,0,1,1,0,8.374,8.374,8.374,0,0,1,8.374,0Z" transform="translate(374.334 544.693)"/>
    <path id="shape-3" data-name="shape" d="M381.665,514h-.012a38.454,38.454,0,0,0-18.434,4.393c-13.738,7.486-21.595,20.973-21.6,35.67v.039c0,.46.221.924.086,1.361-.167.539-.834.79-1.434.892l-4.693.8a2.26,2.26,0,0,0-1.322,3.7l15.017,17.188a2.285,2.285,0,0,0,3.834-.682l8.456-21.389a2.244,2.244,0,0,0-2.474-3.034l-4.713.806a2.26,2.26,0,0,1-2.608-1.841c-.041-.24-.146-.439-.163-.669-.56-7.911,4.811-15.551,11.144-20.952a25.412,25.412,0,0,1,8.1-4.681c11.6-4.035,23.447-1.319,31.633,6.517l.983.981a27.633,27.633,0,0,1,8.346,17.777,32.234,32.234,0,0,1-6.378,21.785,30.194,30.194,0,0,1-27.432,11.311,5.105,5.105,0,0,0-3.937,1.371l-.324.353a4.842,4.842,0,0,0,2.97,8.072,38.725,38.725,0,0,0,9.853.005,40.5,40.5,0,0,0,35.137-39.507A40.089,40.089,0,0,0,381.665,514Z"/>
  </g>
</svg>
