<svg id="icon_production_machine" xmlns="http://www.w3.org/2000/svg" width="20" height="20" viewBox="0 0 20 20">
  <rect id="Rectangle_11987" width="20" height="20" fill="none" />
  <path id="Path_50493" d="M16.167,13H4.5a2.5,2.5,0,1,0,0,5H16.167a2.5,2.5,0,1,0,0-5Zm0,3.333H4.5a.833.833,0,1,1,0-1.667H16.167a.833.833,0,1,1,0,1.667ZM7.833,3.833V10.5a.836.836,0,0,0,.833.833h6.667a.836.836,0,0,0,.833-.833V3.833A.836.836,0,0,0,15.333,3H8.667A.836.836,0,0,0,7.833,3.833Zm5.833,3.333H10.333V5.517h3.333ZM2,8.017H6.117V9.608H2Zm1.675-2.5H6.117V7.15H3.675V5.517Z" />
</svg>
