<svg id="icon_connect" xmlns="http://www.w3.org/2000/svg" width="100" height="100" viewBox="0 0 100 100">
  <rect id="shape" width="100" height="100" fill="none"/>
  <path id="Icon" d="M39.3,88a4.83,4.83,0,0,0,4.845-4.258A44.033,44.033,0,0,1,83.693,44.2,4.837,4.837,0,0,0,88,39.35a4.913,4.913,0,0,0-5.384-4.894,53.893,53.893,0,0,0-48.16,48.111A4.917,4.917,0,0,0,39.3,88m34.016,0H88V73.317A14.663,14.663,0,0,0,73.317,88M59.075,88a4.884,4.884,0,0,0,4.8-4.16A24.562,24.562,0,0,1,83.84,63.871,4.9,4.9,0,0,0,82.42,54.18,34.192,34.192,0,0,0,54.18,82.42,4.889,4.889,0,0,0,59.075,88M48.7,0a4.83,4.83,0,0,0-4.845,4.258A44.033,44.033,0,0,1,4.307,43.8,4.837,4.837,0,0,0,0,48.65a4.913,4.913,0,0,0,5.384,4.894A53.893,53.893,0,0,0,53.544,5.433,4.886,4.886,0,0,0,48.7,0M14.732,0H.049V14.683A14.663,14.663,0,0,0,14.732,0M28.974,0a4.884,4.884,0,0,0-4.8,4.16A24.562,24.562,0,0,1,4.209,24.129a4.922,4.922,0,0,0,1.419,9.74,34.192,34.192,0,0,0,28.24-28.24A4.959,4.959,0,0,0,28.974,0" transform="translate(6 6.014)"/>
</svg>
