<svg id="icon_search" xmlns="http://www.w3.org/2000/svg" width="100" height="100" viewBox="0 0 100 100">
  <rect id="shape" width="100" height="100" fill="none"/>
  <path id="search" d="M2003.384,5594.719q-11.177,11.188-22.362,22.367a12.219,12.219,0,0,1-1.044.956,4.327,4.327,0,0,1-5.716-.423c-1.834-1.94-1.715-4.425.331-6.475q11.212-11.229,22.436-22.439a9.456,9.456,0,0,1,.928-.734c-12.5-16.575-8.5-38.159,5.994-49.483a35.235,35.235,0,1,1,.042,55.5C2003.773,5594.251,2003.6,5594.5,2003.384,5594.719Zm22.091-54.7a26.3,26.3,0,1,0,26.439,26.183A26.252,26.252,0,0,0,2025.475,5540.021Z" transform="translate(-1966.717 -5524.675)" fill="#181818"/>
</svg>
