<svg id="Layout_n5" data-name="Layout n5" xmlns="http://www.w3.org/2000/svg" width="100" height="100" viewBox="0 0 100 100">
  <rect id="shape" width="100" height="100" fill="none"/>
  <g id="Grupo_3848" data-name="Grupo 3848" transform="translate(3 13.799)">
    <path id="Caminho_19895" data-name="Caminho 19895" d="M3,0H18.2a1,1,0,0,1,1,1V47.222a1,1,0,0,1-1,1H3a3,3,0,0,1-3-3V3A3,3,0,0,1,3,0Z" transform="translate(3.9 3.822)" fill="#b8b8b8"/>
    <path id="Subtração_11" data-name="Subtração 11" d="M62.2,48.014,1.2,48A1.2,1.2,0,0,1,0,46.8V1.2A1.2,1.2,0,0,1,1.2,0l61,.014a2.4,2.4,0,0,1,2.4,2.4v43.2A2.4,2.4,0,0,1,62.2,48.014ZM5.66,37.6a2.4,2.4,0,1,0,0,4.8H26.03a2.4,2.4,0,1,0,0-4.8Zm0-8a2.4,2.4,0,0,0,0,4.8H32.323a2.4,2.4,0,0,0,0-4.8Zm0-8a2.4,2.4,0,1,0,0,4.8H45.355a2.4,2.4,0,0,0,0-4.8Zm0-8a2.4,2.4,0,1,0,0,4.8H51.647a2.4,2.4,0,1,0,0-4.8Zm0-8a2.4,2.4,0,1,0,0,4.8H57.94a2.4,2.4,0,0,0,0-4.8Z" transform="translate(25.501 3.801)" fill="#d4d4d4"/>
    <g id="Grupo_3829" data-name="Grupo 3829" transform="translate(-1 -0.999)">
      <g id="image" transform="translate(0)" opacity="0.5" style="isolation: isolate">
        <g id="image-2" data-name="image">
          <g id="Computer" style="isolation: isolate">
            <path id="shape-2" data-name="shape" d="M90.012,1.148H9.442A7.656,7.656,0,0,0,1.793,8.793l.3,59.111a7.656,7.656,0,0,0,7.649,7.644H90.144A7.656,7.656,0,0,0,97.793,67.9L97.661,8.793A7.656,7.656,0,0,0,90.012,1.148ZM9.442,4.206h80.57A4.588,4.588,0,0,1,94.6,8.793l.3,47.374H5.148l-.3-47.374A4.588,4.588,0,0,1,9.442,4.206Zm80.7,68.284H9.738A4.588,4.588,0,0,1,5.148,67.9V59.225H94.9L94.734,67.9A4.588,4.588,0,0,1,90.144,72.491Z" transform="translate(-1.793 -1.148)" fill="#b8b8b8"/>
            <path id="shape-3" data-name="shape" d="M33.734,41a4.713,4.713,0,1,0,4.734,4.713A4.723,4.723,0,0,0,33.734,41Zm0,6.284a1.571,1.571,0,1,1,1.578-1.571A1.574,1.574,0,0,1,33.734,47.284Z" transform="translate(15.567 19.614)" fill="#b8b8b8"/>
          </g>
        </g>
      </g>
    </g>
  </g>
</svg>
