<svg id="icon_keyhole" xmlns="http://www.w3.org/2000/svg" width="100" height="100" viewBox="0 0 100 100">
  <rect id="shape" width="100" height="100" fill="none"/>
  <path id="shape-2" data-name="shape" d="M407.983,282.787h-3.26a34.776,34.776,0,0,0-34.677,34.677v3.26a34.706,34.706,0,0,0,15.675,28.946v31.118h41.263V349.669a34.706,34.706,0,0,0,15.675-28.946v-3.26A34.78,34.78,0,0,0,407.983,282.787Zm29.555,37.869a29.579,29.579,0,0,1-10.553,22.638,30.027,30.027,0,0,1-5.158,3.5v28.833H390.88V346.8a29.764,29.764,0,0,1-15.716-26.14v-3.131a29.546,29.546,0,0,1,10.558-22.632,29.077,29.077,0,0,1,2.342-1.79,29.413,29.413,0,0,1,16.722-5.2h3.131a29.429,29.429,0,0,1,16.727,5.2q1.215.835,2.342,1.79a29.559,29.559,0,0,1,10.553,22.632Z" transform="translate(-356.047 -281.294)" fill="#181818"/>
</svg>
