<svg id="icon_safebox" xmlns="http://www.w3.org/2000/svg" width="100" height="119" viewBox="0 0 100 119">
  <rect id="shape" width="100" height="100" fill="none" />
  <path id="shape-2" data-name="shape" d="M91.635,0H4.364A4.367,4.367,0,0,0,0,4.367v78.6a4.366,4.366,0,0,0,4.364,4.367h8.727V91.7a4.364,4.364,0,0,0,8.727,0V87.332H74.182V91.7a4.364,4.364,0,0,0,8.727,0V87.331h8.727A4.367,4.367,0,0,0,96,82.965V4.367A4.366,4.366,0,0,0,91.635,0M49.574,58.34a20.753,20.753,0,1,1,6.073-14.673A20.753,20.753,0,0,1,49.574,58.34m28.971-5.155a4.576,4.576,0,1,1-9.151.139c0-.047,0-.093,0-.139V34.869a4.576,4.576,0,0,1,9.151-.139c0,.046,0,.093,0,.139Z" transform="translate(2 2.001)" fill="#070808" />
  <path id="cirle" d="M34.912,34.227A9.8,9.8,0,1,0,41.837,37.1a9.8,9.8,0,0,0-6.925-2.871" transform="translate(2 2.001)" fill="#070808" />
</svg>
