<svg id="icon_desktop" xmlns="http://www.w3.org/2000/svg" width="100" height="100" viewBox="0 0 100 100">
  <rect id="shape" width="100" height="100" fill="none"/>
  <g id="desktop" transform="translate(-4180.5 5270)">
    <path id="shape-2" data-name="shape" d="M4186.373-5191.985h88.176c2.686,0,4.872-2.486,4.872-5.541v-57.933c0-3.055-2.186-5.541-4.872-5.541h-88.176c-2.687,0-4.873,2.485-4.873,5.541v57.933C4181.5-5194.471,4183.686-5191.985,4186.373-5191.985Zm1.279-7.649v-53.509a.505.505,0,0,1,.47-.534H4272.8a.5.5,0,0,1,.469.534v53.509a.5.5,0,0,1-.469.534h-84.677A.505.505,0,0,1,4187.652-5199.634Z" transform="translate(0 -0.001)"/>
    <path id="shape-3" data-name="shape" d="M5,0A5,5,0,1,1,0,5,5,5,0,0,1,5,0Z" transform="translate(4225.5 -5214)"/>
    <path id="shape-4" data-name="shape" d="M4275.228-4848h-88.536c-4.235,0-4.692,2.985-4.692,4.27s.457,4.27,4.692,4.27h88.536c4.237,0,4.694-2.987,4.694-4.27S4279.464-4848,4275.228-4848Z" transform="translate(-0.422 -339.54)"/>
  </g>
</svg>
