<svg id="icon_candle_graph" xmlns="http://www.w3.org/2000/svg" width="42" height="42" viewBox="0 0 42 42">
  <path id="Path_50486" d="M0,0H42V42H0Z" fill="none" />
  <path id="Path_50510" d="M39.5,40A2.476,2.476,0,0,1,37,37.5v-27a2.5,2.5,0,1,1,5,0v27A2.476,2.476,0,0,1,39.5,40Zm-31,0A2.476,2.476,0,0,1,6,37.5v-9A2.476,2.476,0,0,1,8.5,26,2.476,2.476,0,0,1,11,28.5v9A2.476,2.476,0,0,1,8.5,40ZM31.75,14a2.476,2.476,0,0,1-2.5-2.5v-1a2.5,2.5,0,1,1,5,0v1a2.476,2.476,0,0,1-2.5,2.5ZM24,18a2.476,2.476,0,0,1-2.5-2.5v-3a2.5,2.5,0,1,1,5,0v3A2.476,2.476,0,0,1,24,18ZM16.25,28a2.476,2.476,0,0,1-2.5-2.5v-3a2.51,2.51,0,0,1,4.275-1.775A2.415,2.415,0,0,1,18.75,22.5v3a2.476,2.476,0,0,1-2.5,2.5Z" transform="translate(-3 -3)" />
</svg>
