<svg id="icon_4" xmlns="http://www.w3.org/2000/svg" width="100" height="100" viewBox="0 0 100 100">
  <rect id="shape" width="100" height="100" fill="none"/>
  <path id="AXIS" d="M-608.625-3379.742h-66a13.907,13.907,0,0,1-9.9-4.1,13.909,13.909,0,0,1-4.1-9.9v-66a13.908,13.908,0,0,1,4.1-9.9,13.908,13.908,0,0,1,9.9-4.1h66a13.908,13.908,0,0,1,9.9,4.1,13.908,13.908,0,0,1,4.1,9.9v66a13.909,13.909,0,0,1-4.1,9.9A13.907,13.907,0,0,1-608.625-3379.742Zm-30.5-37.515v5.154l-4.616.793v3.567h14.783v-3.567l-4.616-.793v-5.154h5.693v-4.361h-5.693v-27.358h-5.891l-18.182,28.576v3.144Zm0-4.361H-651.7l11.838-17.955.566-1.5.17.057v19.4Z" transform="translate(691.625 3476.741)" fill="#010101"/>
</svg>
