<svg id="icon_s" xmlns="http://www.w3.org/2000/svg" width="100" height="100" viewBox="0 0 100 100">
  <rect id="shape" width="100" height="100" fill="none"/>
  <path id="AXIS" d="M-608.625-3379.742h-66a13.907,13.907,0,0,1-9.9-4.1,13.909,13.909,0,0,1-4.1-9.9v-66a13.908,13.908,0,0,1,4.1-9.9,13.908,13.908,0,0,1,9.9-4.1h66a13.908,13.908,0,0,1,9.9,4.1,13.908,13.908,0,0,1,4.1,9.9v66a13.909,13.909,0,0,1-4.1,9.9A13.907,13.907,0,0,1-608.625-3379.742Zm-48.231-40.715v7.674a17.1,17.1,0,0,0,6.018,4.079,21.713,21.713,0,0,0,8.453,1.557c4.361,0,7.939-1.02,10.634-3.03a9.556,9.556,0,0,0,4.064-8.014,10.245,10.245,0,0,0-3.384-7.788c-2.245-2.086-5.575-3.687-9.9-4.758a23.143,23.143,0,0,1-7.831-3.157,5.43,5.43,0,0,1-2.421-4.489,6,6,0,0,1,2.379-4.913c1.578-1.25,3.874-1.884,6.826-1.884a15.653,15.653,0,0,1,4.927.708,10.292,10.292,0,0,1,3.4,1.784l1.048,5.89h4.22v-7.674a17.874,17.874,0,0,0-5.707-3.611,20.332,20.332,0,0,0-7.887-1.487c-4.361,0-7.953,1.081-10.678,3.214a9.886,9.886,0,0,0-4.106,8.058,9.5,9.5,0,0,0,3.681,7.617,25.209,25.209,0,0,0,10.224,4.588c3.57.864,6.1,1.946,7.505,3.214a6.152,6.152,0,0,1,2.124,4.744,5.7,5.7,0,0,1-2.45,4.843,11.164,11.164,0,0,1-6.67,1.784,15.15,15.15,0,0,1-5.352-.85,13.61,13.61,0,0,1-3.851-2.181l-1.076-5.918Z" transform="translate(691.625 3476.741)" fill="#010101"/>
</svg>
