<svg id="icon_process" xmlns="http://www.w3.org/2000/svg" width="100" height="100" viewBox="0 0 100 100">
  <rect id="shape" width="100" height="100" fill="none"/>
  <path id="shape-2" data-name="shape" d="M-155.114-10383.7a48.056,48.056,0,0,1,46.991-47.988v11.973l-.17.008a35.949,35.949,0,0,0-34.725,33.186l0,.014c-.081,1.047-.12,1.963-.12,2.809s.037,1.71.115,2.754a36.166,36.166,0,0,0,35.916,33.286,36.075,36.075,0,0,0,36.029-36.04v-.031h11.97v.031a48.063,48.063,0,0,1-48,48.012A48.061,48.061,0,0,1-155.114-10383.7Zm86.227-7.6c-.228-1.149-.508-2.3-.835-3.409l5.982-1.757c.38,1.288.707,2.615.971,3.948.17.864.319,1.73.437,2.592l-6.176.861C-68.613-10389.814-68.738-10390.558-68.888-10391.3Zm-5.668-13.845,5.2-3.432a45.065,45.065,0,0,1,3.259,5.846l-5.658,2.626A39.009,39.009,0,0,0-74.556-10405.148Zm-7.679-8.556,3.977-4.807a46.177,46.177,0,0,1,4.822,4.634l-4.642,4.168A38.973,38.973,0,0,0-82.234-10413.7Zm-9.849-5.961,2.411-5.754a45.567,45.567,0,0,1,5.961,3.036l-3.228,5.336A39.227,39.227,0,0,0-92.083-10419.665Zm-11.15-2.83.615-6.207a45.544,45.544,0,0,1,6.6,1.159l-1.532,6.048A38.942,38.942,0,0,0-103.233-10422.5Z" transform="translate(157.114 10433.691)" fill="#010101" stroke="rgba(0,0,0,0)" stroke-width="1"/>
</svg>
