<svg id="icon_calendar:range_selection" xmlns="http://www.w3.org/2000/svg" width="100" height="100" viewBox="0 0 100 100">
  <path id="calendar:range_selection" d="M-3924.84-258.823a5.632,5.632,0,0,1-5.777-5.475v-59.159a5.632,5.632,0,0,1,5.777-5.472h6.556v4a9.108,9.108,0,0,0,9.333,8.842,9.107,9.107,0,0,0,9.333-8.842v-4h12v4a9.107,9.107,0,0,0,9.333,8.842,9.108,9.108,0,0,0,9.334-8.842v-4h6.556a5.633,5.633,0,0,1,5.778,5.472V-264.3a5.633,5.633,0,0,1-5.778,5.475Zm43.473-18.608a6.6,6.6,0,0,0,6.775,6.422,6.608,6.608,0,0,0,6.779-6.422,6.607,6.607,0,0,0-6.779-6.419A6.6,6.6,0,0,0-3881.367-277.431Zm-19.113,0a6.6,6.6,0,0,0,6.776,6.422,6.605,6.605,0,0,0,6.779-6.422,6.6,6.6,0,0,0-6.779-6.419A6.6,6.6,0,0,0-3900.48-277.431Zm-19.112,0a6.608,6.608,0,0,0,6.779,6.422,6.6,6.6,0,0,0,6.775-6.422,6.6,6.6,0,0,0-6.775-6.419A6.607,6.607,0,0,0-3919.592-277.431Zm38.921-16.106a6.825,6.825,0,0,0,6.078,3.581,6.61,6.61,0,0,0,6.779-6.422,6.61,6.61,0,0,0-6.779-6.422,6.755,6.755,0,0,0-6.44,4.423h-6.228a6.759,6.759,0,0,0-6.444-4.423,6.607,6.607,0,0,0-6.776,6.422,6.607,6.607,0,0,0,6.776,6.422,6.817,6.817,0,0,0,6.079-3.581Zm-38.921-2.841a6.61,6.61,0,0,0,6.779,6.422,6.607,6.607,0,0,0,6.775-6.422,6.606,6.606,0,0,0-6.775-6.422A6.61,6.61,0,0,0-3919.592-296.378Zm40.444,18.95a4.442,4.442,0,0,1,4.555-4.318,4.443,4.443,0,0,1,4.556,4.318,4.442,4.442,0,0,1-4.556,4.314A4.442,4.442,0,0,1-3879.147-277.428Zm-19.113,0a4.442,4.442,0,0,1,4.557-4.318,4.44,4.44,0,0,1,4.556,4.318,4.44,4.44,0,0,1-4.556,4.314A4.442,4.442,0,0,1-3898.26-277.428Zm-19.108,0a4.442,4.442,0,0,1,4.556-4.318,4.442,4.442,0,0,1,4.555,4.318,4.442,4.442,0,0,1-4.555,4.314A4.442,4.442,0,0,1-3917.368-277.428Zm0-18.95a4.44,4.44,0,0,1,4.556-4.314,4.44,4.44,0,0,1,4.555,4.314,4.442,4.442,0,0,1-4.555,4.318A4.442,4.442,0,0,1-3917.368-296.378Zm34.2-28.552v-9.263a4.761,4.761,0,0,1,4.886-4.63,4.762,4.762,0,0,1,4.888,4.63v9.263a4.765,4.765,0,0,1-4.888,4.633A4.764,4.764,0,0,1-3883.172-324.93Zm-30.67,0v-9.263a4.765,4.765,0,0,1,4.891-4.63,4.764,4.764,0,0,1,4.888,4.63v9.263a4.767,4.767,0,0,1-4.888,4.633A4.768,4.768,0,0,1-3913.842-324.93Z" transform="translate(3943.617 348.823)"/>
  <rect id="shape" width="100" height="100" fill="none"/>
</svg>
