<svg xmlns="http://www.w3.org/2000/svg" width="24" height="24" viewBox="0 0 24 24">
  <g id="icon_cube" transform="translate(6)">
    <rect id="shape" width="24" height="24" transform="translate(-6)" fill="none"/>
    <path id="cube" d="M23.655,6.69l-7-4.037a.907.907,0,0,0-.929,0L8.755,6.69a.93.93,0,0,0-.455.8v8.074a.886.886,0,0,0,.455.8l7,4.037a1.048,1.048,0,0,0,.474.133.8.8,0,0,0,.455-.133l7-4.037a.93.93,0,0,0,.455-.8V7.486A.867.867,0,0,0,23.655,6.69Zm-7.45-2.161,5.137,2.957-5.137,2.957L11.068,7.486ZM10.139,9.1l5.137,2.957v5.932l-5.137-2.957Zm7,8.889V12.053L22.271,9.1v5.932Z" transform="translate(-10.301 0.475)"/>
  </g>
</svg>
