<svg id="icon_color" xmlns="http://www.w3.org/2000/svg" width="100" height="100" viewBox="0 0 100 100">
  <rect id="shape" width="100" height="100" fill="none"/>
  <path id="drop" d="M602.2,248.768a41.126,41.126,0,0,1-68,30.192,40.149,40.149,0,0,1-3.02-58c5.189-5.495,10.87-10.542,16.431-15.685,3.311-3.063,6.8-5.937,10.238-8.866,2.215-1.888,4.383-1.923,6.57-.054,8.777,7.5,17.558,15,25.624,23.262A40.856,40.856,0,0,1,602.2,248.387C602.2,248.514,602.2,248.641,602.2,248.768Zm-41.057-43.334c-.374.267-.592.392-.773.556-6.473,5.848-12.981,11.66-19.4,17.569a37.039,37.039,0,0,0-8.2,10.323c-4.59,9.012-5,18.232-.858,27.416,4.507,9.983,12.435,16.024,23.247,18.292,1.93.405,3.932.476,5.985.711Z" transform="translate(-511.196 -191.971)"/>
</svg>
