<svg id="icon_text-strikethrough" xmlns="http://www.w3.org/2000/svg" width="100" height="100" viewBox="0 0 100 100">
  <rect id="shape" width="100" height="100" fill="none"/>
  <path id="text" d="M92.773,8.651A5.336,5.336,0,0,0,90.616,4.22a6.689,6.689,0,0,0-4.4-1.2c-8.821,0-69.336.014-71.675-.024H14.38A6.4,6.4,0,0,0,9.639,4.777,6.281,6.281,0,0,0,8.018,9.42c.1,2.938.046,17.036.152,18.353a5.318,5.318,0,0,0,4.135,4.513,6.5,6.5,0,0,0,1.268.128,5.324,5.324,0,0,0,4.677-2.681,6.937,6.937,0,0,0,.834-3.685v-11.9H44.9V48.84H15.518a5.813,5.813,0,0,0,0,11.625H44.9V85.813s-12.487.222-13.6.281a5,5,0,0,0-3.79,2.251,5.287,5.287,0,0,0-.809,4.536,5.5,5.5,0,0,0,5.439,4.1c1.12.012,33.117.008,36.311,0,3.367-.007,5.834-2.3,5.866-5.446.032-3.17-2.34-5.435-5.769-5.507-.513-.011-12.561-.016-12.561-.016V60.465H84.482a5.813,5.813,0,0,0,0-11.625H55.989v-34.7H81.765V26.579a5.4,5.4,0,0,0,2.3,4.791,5.217,5.217,0,0,0,3.108,1.114,5.762,5.762,0,0,0,2.275-.515c3.092-1.337,3.162-3.516,3.185-4.231C92.822,21.931,92.773,8.651,92.773,8.651Z" transform="translate(-0.004 -0.01)"/>
</svg>
