<svg id="icon_image" xmlns="http://www.w3.org/2000/svg" width="100" height="100" viewBox="0 0 100 100">
  <rect id="shape" width="100" height="100" fill="none"/>
  <path id="image" d="M756.994,275.843c11.763,0,23.526.067,35.288-.031a10.62,10.62,0,0,1,10.476,8.144,11.659,11.659,0,0,1,.281,2.529q.022,35.283.008,70.566a10.509,10.509,0,0,1-10.706,10.74q-35.288.016-70.576.018a10.709,10.709,0,0,1-10.71-10.656q.109-35.327,0-70.654a10.7,10.7,0,0,1,10.742-10.69C733.526,275.924,745.26,275.843,756.994,275.843ZM747.3,318.6l23.087,22.772,8.019-8.059,11.558,11.432c.031-.338.051-.454.051-.569q0-25-.008-50a5.123,5.123,0,0,0-5.475-5.381q-27.518-.022-55.036,0a5.152,5.152,0,0,0-5.519,5.518q-.02,23.325,0,46.651a6.488,6.488,0,0,0,.091.722Z" transform="translate(-707.051 -271.808)"/>
</svg>
