<svg id="arrow_left_big" xmlns="http://www.w3.org/2000/svg" width="20" height="20" viewBox="0 0 20 20">
  <rect id="shape" width="20" height="20" fill="none"/>
  <path id="arrow_left_big-2" data-name="arrow_left_big" d="M1142.747,636.218c0-.795.006-1.489,0-2.183a1.447,1.447,0,0,1,.889-1.493,1.383,1.383,0,0,1,1.6.445c1.132,1.152,2.286,2.282,3.421,3.431a1.4,1.4,0,0,1,.041,2.247c-1.161,1.2-2.35,2.369-3.536,3.544a1.32,1.32,0,0,1-1.55.338,1.358,1.358,0,0,1-.841-1.351c-.009-.721,0-1.442,0-2.272-.367,0-9.609.011-9.823-.011a1.374,1.374,0,0,1-1.3-1.382,1.322,1.322,0,0,1,1.443-1.307C1134.94,636.206,1141.287,636.218,1142.747,636.218Z" transform="translate(-1130.439 -627.638)"/>
</svg>
