<svg id="icon_send" xmlns="http://www.w3.org/2000/svg" width="100" height="100" viewBox="0 0 100 100">
  <rect id="shape" width="100" height="100" fill="none"/>
  <path id="send" d="M1499.373,482.731a21.7,21.7,0,0,0-.019-2.711,6.554,6.554,0,0,1,1.793-5.2c9.847-12.2,19.609-24.468,29.395-36.717.87-1.09,1.023-2.118.45-2.9-.816-1.12-2.026-1.184-3.272-.13q-4.768,4.034-9.516,8.094-12.916,11.006-25.822,22.025a1.328,1.328,0,0,1-1.564.29c-5.989-2.348-12-4.634-17.991-6.983-3.07-1.2-4.27-4.027-2.735-6.734a6.781,6.781,0,0,1,2.551-2.311q22.717-12.827,45.485-25.562,16.331-9.166,32.668-18.319a6.262,6.262,0,0,1,2.409-.823,3.77,3.77,0,0,1,4.2,4.21c-.362,4.268-.807,8.529-1.219,12.793q-1.008,10.444-2.019,20.888-1.138,11.794-2.272,23.588c-.49,5.085-.989,10.17-1.469,15.256-.366,3.885-3.382,5.791-7.04,4.379-6.076-2.344-12.138-4.724-18.206-7.089-1.242-.484-2.51-.913-3.714-1.476a1.422,1.422,0,0,0-1.832.4q-6.717,6.365-13.488,12.671a3.939,3.939,0,0,1-4.414,1.066,3.815,3.815,0,0,1-2.358-3.866c-.013-.9,0-1.809-.005-2.713Q1499.373,483.793,1499.373,482.731Z" transform="translate(-1463.426 -397.731)"/>
</svg>
