<svg id="icon_3d_extensions" xmlns="http://www.w3.org/2000/svg" width="100" height="100" viewBox="0 0 100 100">
  <rect id="shape" width="100" height="100" fill="none"/>
  <g id="ps" transform="translate(13.006)">
    <path id="Path_19936" data-name="Path 19936" d="M12.881.61H45.963L74,30.145V87.591A12.937,12.937,0,0,1,61.143,100.61H12.881A12.942,12.942,0,0,1,0,87.591V13.629A12.942,12.942,0,0,1,12.881.61Z" transform="translate(0 -0.61)" fill="#008bf5" fill-rule="evenodd"/>
    <path id="Path_19937" data-name="Path 19937" d="M237.139.61V29.92H265.2Z" transform="translate(-191.201 -0.61)" fill="rgba(255,255,255,0.3)" fill-rule="evenodd"/>
    <path id="_3D" data-name="3D" d="M31.9,26.732l-1.641-3.012A.782.782,0,0,0,28.9,23.7l-.021.038a.779.779,0,0,1-1.068.282l-3.074-1.781a.783.783,0,0,1-.389-.678V13.984a.781.781,0,0,0-.389-.675L17.364,9.484a.781.781,0,0,1-.389-.675V5.237a.784.784,0,0,1,.782-.782h.014a.782.782,0,0,0,.668-1.189l-1.77-2.9a.781.781,0,0,0-1.335,0L13.556,3.3a.78.78,0,0,0,.668,1.186h.021a.784.784,0,0,1,.782.782V8.837a.783.783,0,0,1-.393.678l-6.59,3.791a.779.779,0,0,0-.393.678V21.6a.779.779,0,0,1-.393.678L4.188,24.03a.782.782,0,0,1-1.064-.285L3.1,23.7a.78.78,0,0,0-1.36.021L.1,26.736a.78.78,0,0,0,.668,1.155l3.408.077a.78.78,0,0,0,.692-1.175l-.014-.021A.786.786,0,0,1,5.141,25.7l3.1-1.756a.781.781,0,0,1,.776,0l6.6,3.794a.779.779,0,0,0,.779,0l6.59-3.794a.786.786,0,0,1,.782,0l3.078,1.787a.779.779,0,0,1,.285,1.064h0a.783.783,0,0,0,.7,1.172l3.415-.077A.783.783,0,0,0,31.9,26.732Zm-21.13-10.3,3.86,2.229a.776.776,0,0,1,.389.678V23.8a.782.782,0,0,1-1.172.678l-3.86-2.229a.776.776,0,0,1-.389-.678V17.113A.781.781,0,0,1,10.774,16.435Zm4.837.56-3.86-2.226a.783.783,0,0,1,0-1.356l3.86-2.226a.786.786,0,0,1,.782,0l3.86,2.226a.783.783,0,0,1,0,1.356L16.394,17A.786.786,0,0,1,15.612,17Zm1.363,6.8V19.339a.787.787,0,0,1,.389-.678l3.86-2.229a.782.782,0,0,1,1.172.678v4.455a.787.787,0,0,1-.389.678l-3.86,2.229A.782.782,0,0,1,16.975,23.794Z" transform="translate(20.993 52.005)" fill="#fcfcfc"/>
  </g>
</svg>
