<svg id="icon_w" xmlns="http://www.w3.org/2000/svg" width="100" height="100" viewBox="0 0 100 100">
  <rect id="shape" width="100" height="100" fill="none"/>
  <path id="AXIS" d="M-608.625-3379.742h-66a13.907,13.907,0,0,1-9.9-4.1,13.909,13.909,0,0,1-4.1-9.9v-66a13.908,13.908,0,0,1,4.1-9.9,13.908,13.908,0,0,1,9.9-4.1h66a13.908,13.908,0,0,1,9.9,4.1,13.908,13.908,0,0,1,4.1,9.9v66a13.909,13.909,0,0,1-4.1,9.9A13.907,13.907,0,0,1-608.625-3379.742Zm-47.2-69.234h-13.083v3.6l3.313.425,8.977,37.212h4.956l8.269-28.6.708-3.709h.17l.736,3.71,8.156,28.6h4.985l8.977-37.212,3.313-.425v-3.6h-13.112v3.6l4.22.652-5.183,22.712-.821,5.3h-.17l-1.133-5.3-7.618-26.961h-4.928l-7.59,26.961-1.1,5.183-.17-.029-.764-5.154-5.3-22.712,4.191-.652Z" transform="translate(691.625 3476.741)" fill="#010101"/>
</svg>
