<svg id="icon_special-1" xmlns="http://www.w3.org/2000/svg" width="100.024" height="100" viewBox="0 0 100.024 100">
  <rect id="shape" width="100" height="100" fill="none"/>
  <g id="Primitive_special_1" data-name="Primitive special 1" transform="translate(-2352.019 -1051.882)">
    <g id="Path_6342" data-name="Path 6342" fill="#d6d6d6">
      <path d="M 2451.14306640625 1144.98193359375 L 2352.94287109375 1144.98193359375 L 2352.94287109375 1101.881958007812 C 2352.94287109375 1096.060791015625 2354.07470703125 1090.415771484375 2356.306884765625 1085.103637695312 C 2358.461669921875 1079.97119140625 2361.54736328125 1075.361694335938 2365.478759765625 1071.403198242188 C 2369.408935546875 1067.444580078125 2373.984619140625 1064.337036132812 2379.078857421875 1062.1669921875 C 2384.354736328125 1059.9208984375 2389.95703125 1058.781982421875 2395.72998046875 1058.781982421875 L 2408.35595703125 1058.781982421875 C 2414.1298828125 1058.781982421875 2419.732421875 1059.9208984375 2425.007568359375 1062.1669921875 C 2430.100830078125 1064.336791992188 2434.6767578125 1067.4443359375 2438.6083984375 1071.403198242188 C 2442.53857421875 1075.361694335938 2445.62451171875 1079.97119140625 2447.7802734375 1085.103515625 C 2450.01171875 1090.416625976562 2451.14306640625 1096.061767578125 2451.14306640625 1101.881958007812 L 2451.14306640625 1144.98193359375 Z" stroke="none"/>
      <path d="M 2450.242919921875 1144.081909179688 L 2450.242919921875 1101.881958007812 C 2450.242919921875 1096.182006835938 2449.13525390625 1090.654174804688 2446.95068359375 1085.4521484375 C 2444.839599609375 1080.4267578125 2441.81787109375 1075.913330078125 2437.969970703125 1072.037475585938 C 2434.12060546875 1068.161376953125 2429.640625 1065.119018554688 2424.655029296875 1062.9951171875 C 2419.491943359375 1060.796630859375 2414.008056640625 1059.682006835938 2408.35595703125 1059.682006835938 L 2395.72998046875 1059.682006835938 C 2390.078857421875 1059.682006835938 2384.59521484375 1060.796630859375 2379.431396484375 1062.994995117188 C 2374.44482421875 1065.119262695312 2369.96533203125 1068.161499023438 2366.1171875 1072.037475585938 C 2362.267822265625 1075.913452148438 2359.246337890625 1080.4267578125 2357.136474609375 1085.452270507812 C 2354.951171875 1090.653442382812 2353.843017578125 1096.18115234375 2353.843017578125 1101.881958007812 L 2353.843017578125 1144.081909179688 L 2450.242919921875 1144.081909179688 M 2452.04296875 1145.881958007812 L 2352.04296875 1145.881958007812 L 2352.04296875 1101.881958007812 C 2352.04296875 1095.942016601562 2353.197998046875 1090.178955078125 2355.47705078125 1084.755004882812 C 2357.677001953125 1079.515014648438 2360.826904296875 1074.81005859375 2364.840087890625 1070.76904296875 C 2368.85205078125 1066.72802734375 2373.52392578125 1063.555053710938 2378.72607421875 1061.338989257812 C 2384.112060546875 1059.046020507812 2389.8330078125 1057.881958007812 2395.72998046875 1057.881958007812 L 2408.35595703125 1057.881958007812 C 2414.25390625 1057.881958007812 2419.97509765625 1059.046020507812 2425.360107421875 1061.338989257812 C 2430.56201171875 1063.555053710938 2435.23388671875 1066.72802734375 2439.2470703125 1070.76904296875 C 2443.259033203125 1074.81005859375 2446.408935546875 1079.515014648438 2448.610107421875 1084.755004882812 C 2450.887939453125 1090.178955078125 2452.04296875 1095.942016601562 2452.04296875 1101.881958007812 L 2452.04296875 1145.881958007812 Z" stroke="none" fill="#484848"/>
    </g>
  </g>
</svg>
