<svg id="icon_big_arrow-left" xmlns="http://www.w3.org/2000/svg" width="100" height="100" viewBox="0 0 100 100">
  <rect id="shape" width="100" height="100" fill="none"/>
  <path id="arrow_down_big" d="M1187.177,651.339c0-3.972.03-7.443-.009-10.914-.038-3.415,1.234-6.147,4.445-7.466,3.092-1.269,5.7-.109,7.994,2.224,5.658,5.761,11.43,11.409,17.1,17.155,3.8,3.851,3.936,7.383.206,11.236-5.8,5.993-11.752,11.847-17.679,17.72-2.19,2.17-4.776,2.967-7.749,1.692-2.958-1.269-4.167-3.68-4.205-6.753-.044-3.605-.01-7.212-.01-11.358-1.834,0-48.048.057-49.114-.054-3.891-.406-6.589-3.3-6.517-6.909.076-3.833,2.841-6.491,7.217-6.538C1148.144,651.278,1179.881,651.339,1187.177,651.339Z" transform="translate(1225.639 707.598) rotate(180)"/>
</svg>
