<svg id="icon_percentage" xmlns="http://www.w3.org/2000/svg" width="100" height="100" viewBox="0 0 100 100">
  <rect id="shape" width="100" height="100" fill="none"/>
  <path id="horizontal" d="M2.045,0h10.91A2.162,2.162,0,0,1,15,2.262V92.738A2.162,2.162,0,0,1,12.955,95H2.045A2.162,2.162,0,0,1,0,92.738V2.262A2.162,2.162,0,0,1,2.045,0Z" transform="translate(67.147 5.003) rotate(30)"/>
  <path id="shape-2" data-name="shape" d="M13,0A13,13,0,1,1,0,13,13,13,0,0,1,13,0Z" transform="translate(4.794 38.44) rotate(-60)"/>
  <path id="shape-3" data-name="shape" d="M13,0A13,13,0,1,1,0,13,13,13,0,0,1,13,0Z" transform="translate(59.458 70.846) rotate(-60)"/>
</svg>
