<svg id="icon_other_extensions" xmlns="http://www.w3.org/2000/svg" width="100" height="100" viewBox="0 0 100 100">
  <rect id="shape" width="100" height="100" fill="none"/>
  <g id="ps" transform="translate(13.006)">
    <path id="Path_19936" data-name="Path 19936" d="M12.881.61H45.963L74,30.145V87.591A12.937,12.937,0,0,1,61.143,100.61H12.881A12.942,12.942,0,0,1,0,87.591V13.629A12.942,12.942,0,0,1,12.881.61Z" transform="translate(0 -0.61)" fill="#5a6872" fill-rule="evenodd"/>
    <path id="Path_19937" data-name="Path 19937" d="M237.139.61V29.92H265.2Z" transform="translate(-191.201 -0.61)" fill="rgba(255,255,255,0.3)" fill-rule="evenodd"/>
  </g>
  <g id="Group_3850" data-name="Group 3850" transform="translate(31.5 35.2)">
    <ellipse id="Ellipse_147" data-name="Ellipse 147" cx="4.185" cy="4" rx="4.185" ry="4" transform="translate(13.315 36.8)" fill="#fcfcfc"/>
    <ellipse id="Ellipse_148" data-name="Ellipse 148" cx="4.185" cy="4" rx="4.185" ry="4" transform="translate(1.5 36.8)" fill="#fcfcfc"/>
    <ellipse id="Ellipse_149" data-name="Ellipse 149" cx="4.185" cy="4" rx="4.185" ry="4" transform="translate(25.13 36.8)" fill="#fcfcfc"/>
  </g>
</svg>
