<svg id="icon_fullscreen" xmlns="http://www.w3.org/2000/svg" width="100" height="100" viewBox="0 0 100 100">
  <rect id="shape" width="100" height="100" fill="none"/>
  <path id="fullscreen" d="M-1842.753-2678.469a10.282,10.282,0,0,0,.433-3.154q.013-10.088.021-20.177a12.694,12.694,0,0,0-.171-2.11,5.628,5.628,0,0,0-7.354-4.29,8.265,8.265,0,0,0-3,2.03q-3.127,3.12-6.246,6.248c-.072.073-.152.137-.247.222l-.306-.306c-1.54-1.542-20.877-20.878-20.877-20.878s20.691-20.65,22.376-22.337l.257.258c1.81,1.82,3.615,3.646,5.434,5.458a15.717,15.717,0,0,0,2.365,2.1,5.808,5.808,0,0,0,7.516-1.159,5.75,5.75,0,0,0,1.284-3.743q.008-10.655-.04-21.31a10.941,10.941,0,0,0-.306-2.442,4.86,4.86,0,0,0-3.432-3.716,10.249,10.249,0,0,0-3.151-.433q-10.079-.013-20.159-.021a12.647,12.647,0,0,0-2.108.171,5.634,5.634,0,0,0-4.286,7.361,8.272,8.272,0,0,0,2.028,3.007q3.117,3.13,6.242,6.251c.072.073.137.152.222.247l-.306.306c-1.541,1.541-21.865,22.073-21.865,22.073s-19.871-20.16-21.557-21.847l.257-.257c1.818-1.812,3.642-3.618,5.453-5.438a15.74,15.74,0,0,0,2.094-2.367,5.821,5.821,0,0,0-1.159-7.523,5.739,5.739,0,0,0-3.74-1.285q-10.645-.008-21.291.04a10.916,10.916,0,0,0-2.44.306,4.859,4.859,0,0,0-3.713,3.435,10.283,10.283,0,0,0-.433,3.154q-.013,10.088-.02,20.177a12.7,12.7,0,0,0,.171,2.11,5.628,5.628,0,0,0,7.354,4.29,8.266,8.266,0,0,0,3-2.03q3.127-3.12,6.246-6.248c.072-.072.152-.137.247-.222l.306.306,21.293,21.335s-20.368,19.947-22.053,21.633l-.257-.257c-1.81-1.82-3.615-3.646-5.434-5.458a15.729,15.729,0,0,0-2.365-2.1,5.808,5.808,0,0,0-7.516,1.16,5.749,5.749,0,0,0-1.284,3.743q-.008,10.655.04,21.31a10.933,10.933,0,0,0,.306,2.442,4.86,4.86,0,0,0,3.432,3.716,10.249,10.249,0,0,0,3.151.433q10.079.013,20.159.021a12.647,12.647,0,0,0,2.108-.171,5.634,5.634,0,0,0,4.286-7.361,8.276,8.276,0,0,0-2.028-3.007q-3.117-3.13-6.242-6.251c-.072-.073-.137-.152-.222-.247l.306-.306c1.129-1.13,21.542-21.369,21.542-21.369s19.455,19.7,21.141,21.39l-.257.257c-1.818,1.812-3.643,3.618-5.453,5.439a15.716,15.716,0,0,0-2.094,2.367,5.821,5.821,0,0,0,1.159,7.522,5.736,5.736,0,0,0,3.74,1.285q10.645.008,21.291-.04a10.928,10.928,0,0,0,2.44-.306A4.859,4.859,0,0,0-1842.753-2678.469Z" transform="translate(1938.271 2771.236)"/>
</svg>
