<svg id="icon_database" xmlns="http://www.w3.org/2000/svg" width="100" height="100" viewBox="0 0 100 100">
  <rect id="shape" width="100" height="100" fill="none"/>
  <path id="database" d="M18663.951,3855q-14.648,0-29.3,0a12.649,12.649,0,0,1-7.094-1.93,12.46,12.46,0,0,1-5.318-12.642,12.277,12.277,0,0,1,9.385-9.552,17.026,17.026,0,0,1,3-.248q29.4-.021,58.814-.01c5.27,0,9.166,2.345,11.449,7.173a12.152,12.152,0,0,1-8.924,17,18.413,18.413,0,0,1-2.713.2q-8.789.013-17.58.01Zm-6.6-12.217a3.334,3.334,0,1,0,3.354-3.343h-.01A3.325,3.325,0,0,0,18657.35,3842.782Zm-13.316.053a3.316,3.316,0,1,0,3.291-3.4A3.3,3.3,0,0,0,18644.033,3842.834Zm-13.336-.019a3.318,3.318,0,1,0,3.313-3.377A3.311,3.311,0,0,0,18630.7,3842.815Zm3.713-17.6a11.9,11.9,0,0,1-12.035-9.476,11.559,11.559,0,0,1,2.7-10.78,11.851,11.851,0,0,1,9.432-4.131c9.836.038,19.672.014,29.514.014s19.678.019,29.508-.014a12.168,12.168,0,0,1,9.367,20.3,12.033,12.033,0,0,1-9.24,4.088q-16.2,0-32.4.007Q18647.831,3825.222,18634.41,3825.211Zm9.623-12.25a3.316,3.316,0,1,0,3.367-3.315h-.037A3.289,3.289,0,0,0,18644.033,3812.961Zm13.316.057a3.334,3.334,0,1,0,3.32-3.372A3.336,3.336,0,0,0,18657.35,3813.018Zm-23.359-3.372a3.328,3.328,0,1,0,.02,0Zm59.615-14.256q-14.824-.022-29.654,0v-.019c-10.1,0-20.2.048-30.309-.019a11.823,11.823,0,0,1-11.141-8.817,12.137,12.137,0,0,1,10.545-15.431c.713-.048,1.434-.091,2.152-.091q29.147-.007,58.307,0a11.836,11.836,0,0,1,11.389,7.183,12.162,12.162,0,0,1-1.984,13.115,11.838,11.838,0,0,1-9.285,4.078Zm-49.566-12.207a3.313,3.313,0,1,0,3.346-3.333h-.035A3.291,3.291,0,0,0,18644.039,3783.182Zm-10.053-3.333a3.3,3.3,0,1,0,.027,0Zm23.367,3.381a3.353,3.353,0,0,0,3.336,3.372,3.388,3.388,0,0,0,3.328-3.4,3.349,3.349,0,0,0-3.352-3.357A3.315,3.315,0,0,0,18657.354,3783.23Z" transform="translate(-18614 -3763)" fill="#181818" stroke="rgba(0,0,0,0)" stroke-miterlimit="10" stroke-width="1"/>
</svg>
