<svg id="icon_right-column" xmlns="http://www.w3.org/2000/svg" width="100" height="100" viewBox="0 0 100 100">
  <rect id="shape" width="100" height="100" fill="none"/>
  <path id="right_column" d="M445.654,1330.754a11.618,11.618,0,0,0-10.125-5.945H365.546a11.638,11.638,0,0,0-11.664,11.611v69.668a11.518,11.518,0,0,0,2.228,6.776,11.637,11.637,0,0,0,10.125,5.945h69.984a11.679,11.679,0,0,0,9.669-5.12,11.506,11.506,0,0,0,1.995-6.491v-69.668A11.477,11.477,0,0,0,445.654,1330.754Zm-44.428,75.334H366.234v-68.559h34.992Z" transform="translate(-350.882 -1321.809)"/>
</svg>
