<svg id="eye_closed" data-name="eye closed" xmlns="http://www.w3.org/2000/svg" width="100" height="100" viewBox="0 0 100 100">
  <rect id="shape" width="100" height="100" fill="none"/>
  <path id="icone" d="M161.6,34a50.891,50.891,0,0,0-18.24-19.969L153.64,3.753a3.309,3.309,0,0,0,0-4.7,3.309,3.309,0,0,0-4.7,0L137.266,10.736A50.278,50.278,0,0,0,71.2,34a5.016,5.016,0,0,0,0,4.588A50.912,50.912,0,0,0,89.44,58.562L79.158,68.844a3.319,3.319,0,1,0,4.7,4.691L95.537,61.857A50.28,50.28,0,0,0,161.6,38.593,5.044,5.044,0,0,0,161.6,34ZM94.009,36.057a22.56,22.56,0,0,1,35.936-18l-5.474,5.474a15.123,15.123,0,0,0-8.07-2.32,15.342,15.342,0,0,0-4.021.6,7.461,7.461,0,0,1-.75,9.776,7.66,7.66,0,0,1-9.879.74,14.92,14.92,0,0,0,1.9,12.03l-5.235,5.235A22.46,22.46,0,0,1,94.009,36.057ZM116.4,58.928a22.422,22.422,0,0,1-13.333-4.607L108.388,49a15.32,15.32,0,0,0,17.3-.792,14.676,14.676,0,0,0,3.52-20.025l5.446-5.45A22.44,22.44,0,0,1,139.276,36.3,22.752,22.752,0,0,1,116.4,58.928Z" transform="translate(-66.638 9.859)"/>
</svg>
