<svg id="icon_content-detail" xmlns="http://www.w3.org/2000/svg" width="100" height="100" viewBox="0 0 100 100">
  <rect id="shape" width="100" height="100" fill="none"/>
  <path id="content-detial" d="M2148.032,605.971H2075.2a3.585,3.585,0,0,0-3.585,3.585v87.619a3.585,3.585,0,0,0,3.585,3.585h72.829a3.585,3.585,0,0,0,3.585-3.585V609.556A3.585,3.585,0,0,0,2148.032,605.971Zm-8.515,39.987a2.03,2.03,0,0,1-2.03,2.03h-50.842a2.03,2.03,0,0,1-2.03-2.03V624.92a2.03,2.03,0,0,1,2.03-2.03h50.842a2.03,2.03,0,0,1,2.03,2.03Zm0,35.854a2.03,2.03,0,0,1-2.03,2.03h-50.842a2.03,2.03,0,0,1-2.03-2.03V678.7a2.03,2.03,0,0,1,2.03-2.03h50.842a2.03,2.03,0,0,1,2.03,2.03Zm0-17.927a2.03,2.03,0,0,1-2.03,2.03h-50.842a2.03,2.03,0,0,1-2.03-2.03v-3.111a2.03,2.03,0,0,1,2.03-2.03h50.842a2.03,2.03,0,0,1,2.03,2.03Z" transform="translate(-2061.618 -602.971)"/>
</svg>
