<svg id="icon_fuel_station" xmlns="http://www.w3.org/2000/svg" width="100" height="100" viewBox="0 0 100 100">
  <rect id="shape" width="100" height="100" fill="none"/>
  <path id="icon" d="M167.211,286.651V252.8a14.733,14.733,0,0,0-14.831-14.625H126.923A14.727,14.727,0,0,0,112.092,252.8v63.755H110.53a4.881,4.881,0,0,0-4.869,4.81,4.733,4.733,0,0,0,4.67,4.81h58.434a4.806,4.806,0,1,0,.026-9.611h-1.545V294.517h5.844v-7.891ZM139.76,310.675a9.109,9.109,0,0,1-8.857-9.364v-.026a52.3,52.3,0,0,1,7.752-16.771,1.254,1.254,0,0,1,1.744-.247,1.356,1.356,0,0,1,.25.247,52.475,52.475,0,0,1,7.752,16.771,8.784,8.784,0,0,1-8.192,9.365Zm17.49-42.8H122.037V252.8a4.876,4.876,0,0,1,4.878-4.8h25.466a4.863,4.863,0,0,1,4.869,4.8v15.068Z" transform="translate(-89.66 -232.177)" fill="#181818"/>
</svg>
