<svg id="icon_export" xmlns="http://www.w3.org/2000/svg" width="100" height="100" viewBox="0 0 100 100">
  <rect id="shape" width="100" height="100" fill="none"/>
  <path id="export" d="M-557.108-877.17c-5.081-.016-8.881-2.3-11.051-6.92a11.077,11.077,0,0,1-1.019-4.446c-.1-8.078-.091-16.159-.032-24.237a11.584,11.584,0,0,1,11.4-11.364c6.32-.041,12.642-.034,18.963-.027q3.871,0,7.741.006,21.965,0,43.93,0a11.594,11.594,0,0,1,11.63,9.383,13.5,13.5,0,0,1,.272,2.78q.033,11.337.01,22.672a11.78,11.78,0,0,1-12.2,12.16q-17.391.01-34.782,0-10.019,0-20.037.008Q-549.694-877.15-557.108-877.17Zm67.339-11.728c.165,0,.33.005.495,0A2.084,2.084,0,0,0-487-891.163c.034-2.418.017-4.837.006-7.255a2.022,2.022,0,0,0-1.229-2.056,4.284,4.284,0,0,0-1.54-.174q-16.236-.012-32.473-.006h-32.308c-.3,0-.605-.01-.906.011a1.884,1.884,0,0,0-2.022,2.016q-.066,3.834,0,7.667a1.883,1.883,0,0,0,1.856,2.026,5.882,5.882,0,0,0,.9.035Zm-35.8-41.354c-1.921,0-2.55-.636-2.552-2.584q0-5.649,0-11.3c0-1.8,0-1.8-1.842-1.8-4.148,0-8.3-.021-12.446.015a1.948,1.948,0,0,1-2.048-1.177,1.964,1.964,0,0,1,.55-2.316q3.416-3.575,6.834-7.15,6.261-6.556,12.521-13.114c.094-.1.187-.2.282-.3,1.517-1.568,2.515-1.569,4.009,0q9.5,9.957,19,19.915a13.439,13.439,0,0,1,.986,1.106,1.8,1.8,0,0,1,.115,2.02,1.691,1.691,0,0,1-1.648,1.009c-4.479-.014-8.958-.006-13.436-.006h-1.121v1q0,5.895,0,11.79a7.15,7.15,0,0,1-.043.987,1.942,1.942,0,0,1-2.153,1.9q-1.573.011-3.146.009Q-523.638-930.247-525.568-930.251Z" transform="translate(572.253 974.15)" stroke="rgba(0,0,0,0)" stroke-miterlimit="10" stroke-width="1"/>
</svg>
