<svg id="icon_torus" xmlns="http://www.w3.org/2000/svg" width="100" height="100" viewBox="0 0 100 100">
  <rect id="shape" width="100" height="100" fill="none"/>
  <g id="torus" transform="translate(-3244.88 -1925.013)" style="mix-blend-mode: normal;isolation: isolate">
    <path id="shape-2" data-name="shape" d="M3294.851,1936.013c-25.915,0-47,17.494-47,39s21.083,39,47,39,47-17.5,47-39S3320.768,1936.013,3294.851,1936.013Zm0,76.46c-25.058,0-45.445-16.805-45.445-37.462s20.386-37.458,45.445-37.458,45.443,16.8,45.443,37.458S3319.908,2012.473,3294.851,2012.473Z" transform="translate(0 0)" fill="#484848"/>
    <path id="shape-3" data-name="shape" d="M3294.854,1937.571c-25.058,0-45.445,16.8-45.445,37.458s20.386,37.462,45.445,37.462,45.443-16.805,45.443-37.462S3319.911,1937.571,3294.854,1937.571Zm31.349,32.969a13.845,13.845,0,0,1-6.344,8.66,51.413,51.413,0,0,1-24.435,6.191l-.529,0h-.653a50.744,50.744,0,0,1-24.76-6.475l-.2-.117a13.482,13.482,0,0,1-5.66-7.848,12.515,12.515,0,0,1,.3-7.543,3.08,3.08,0,0,1,1.912-1.969,2.455,2.455,0,0,1,2.2.376,3.517,3.517,0,0,1,1.3,2.1,4.317,4.317,0,0,1-.15,2.39,3.843,3.843,0,0,0-.093,2.4,6.679,6.679,0,0,0,2.75,3.751l.344.2c.235.134.478.272.73.41a29.69,29.69,0,0,1,21.309-9.154h.087a30.716,30.716,0,0,1,22.014,9.471c.365-.191.725-.389,1.077-.587a6.979,6.979,0,0,0,3.285-4.278,3.982,3.982,0,0,0-.267-2.591,4.287,4.287,0,0,1-.314-2.423,3.662,3.662,0,0,1,1.074-2.134,2.532,2.532,0,0,1,1.757-.7,2.622,2.622,0,0,1,.5.05,2.925,2.925,0,0,1,1.995,1.729A12.747,12.747,0,0,1,3326.2,1970.54Z" transform="translate(-0.002 -0.018)" fill="#dedede"/>
    <path id="shape-4" data-name="shape" d="M3323.462,1960.994a2.622,2.622,0,0,0-.5-.05,2.532,2.532,0,0,0-1.757.7,3.662,3.662,0,0,0-1.074,2.134,4.287,4.287,0,0,0,.314,2.423,3.982,3.982,0,0,1,.267,2.591,6.979,6.979,0,0,1-3.285,4.278c-.353.2-.712.4-1.077.587a30.716,30.716,0,0,0-22.014-9.471h-.087a29.69,29.69,0,0,0-21.309,9.154c-.252-.138-.5-.277-.73-.41l-.344-.2a6.679,6.679,0,0,1-2.75-3.751,3.843,3.843,0,0,1,.093-2.4,4.317,4.317,0,0,0,.15-2.39,3.517,3.517,0,0,0-1.3-2.1,2.455,2.455,0,0,0-2.2-.376,3.08,3.08,0,0,0-1.912,1.969,12.515,12.515,0,0,0-.3,7.543,13.482,13.482,0,0,0,5.66,7.848l.2.117a50.744,50.744,0,0,0,24.76,6.475h.653l.529,0a51.413,51.413,0,0,0,24.435-6.191,13.845,13.845,0,0,0,6.344-8.66,12.747,12.747,0,0,0-.768-8.085A2.925,2.925,0,0,0,3323.462,1960.994Zm1.306,9.228-.055.234a12.206,12.206,0,0,1-5.619,7.682,51.726,51.726,0,0,1-48.813-.295l-.15-.09a11.944,11.944,0,0,1-4.971-6.927,11.043,11.043,0,0,1,.267-6.646,1.383,1.383,0,0,1,1.165-1.044.946.946,0,0,1,.554.189,1.94,1.94,0,0,1,.686,1.151,2.843,2.843,0,0,1-.089,1.585,5.377,5.377,0,0,0-.129,3.331,8.228,8.228,0,0,0,3.4,4.627l.4.237c.607.349,1.148.644,1.657.906l.194.1.146-.16a28.083,28.083,0,0,1,20.92-9.373,29.141,29.141,0,0,1,21.538,9.678l.145.157.191-.1c.642-.318,1.313-.675,2-1.063a8.59,8.59,0,0,0,4.02-5.226,5.518,5.518,0,0,0-.36-3.622,2.751,2.751,0,0,1-.193-1.539,2.14,2.14,0,0,1,.627-1.272,1,1,0,0,1,.654-.266,1.292,1.292,0,0,1,1.1.873A11.141,11.141,0,0,1,3324.768,1970.222Z" transform="translate(-0.024 -0.286)" fill="#484848"/>
  </g>
</svg>
