<svg xmlns="http://www.w3.org/2000/svg" width="20" height="20" viewBox="0 0 20 20">
  <g id="troubleshoot_black_24dp" transform="translate(0.066)">
    <g id="Group_27091" data-name="Group 27091">
      <rect id="Rectangle_2130" data-name="Rectangle 2130" width="20" height="20" transform="translate(-0.066)" fill="none"/>
      <rect id="Rectangle_2131" data-name="Rectangle 2131" width="20" height="20" transform="translate(-0.066)" fill="none"/>
    </g>
    <g id="Group_27093" data-name="Group 27093" transform="translate(0.833 2.499)">
      <g id="Group_27092" data-name="Group 27092">
        <path id="Path_20154" data-name="Path 20154" d="M18.253,17.067,14.937,13.75a6.608,6.608,0,0,0,1.317-5.167,6.661,6.661,0,0,0-13.183.25H4.753a5,5,0,1,1,.383,2.917H3.345a6.676,6.676,0,0,0,6.333,4.583,6.585,6.585,0,0,0,4.083-1.408l3.317,3.317a.83.83,0,0,0,1.175,0h0A.83.83,0,0,0,18.253,17.067Z" transform="translate(-1.345 -2.999)" fill="#fcfcfc"/>
        <path id="Path_20155" data-name="Path 20155" d="M7.192,9.242l.858,3.725a.9.9,0,0,0,.875.7h0a.9.9,0,0,0,.85-.617l.842-2.533.575,1.383a.844.844,0,0,0,.767.517h.483a.63.63,0,0,0,.625-.625h0a.63.63,0,0,0-.625-.625H12.25l-.808-1.95a.9.9,0,0,0-.833-.55h-.042a.9.9,0,0,0-.85.617l-.733,2.192L8.117,7.692A.9.9,0,0,0,7.242,7h0a.9.9,0,0,0-.858.633l-.842,2.7H1.625A.63.63,0,0,0,1,10.958H1a.63.63,0,0,0,.625.625H5.85A.823.823,0,0,0,6.642,11Z" transform="translate(-1 -3.666)" fill="#fcfcfc"/>
      </g>
    </g>
  </g>
</svg>
