<svg id="icon_bulk" xmlns="http://www.w3.org/2000/svg" width="100" height="100" viewBox="0 0 100 100">
  <rect id="shape" width="100" height="100" fill="none"/>
  <path id="shape-2" data-name="shape" d="M-1102.249-1537.126h-19.318a2.335,2.335,0,0,1-2.366-1.973l-1.836-12.455a35.285,35.285,0,0,1-8.162-4.6l-12.026,4.7a2.458,2.458,0,0,1-2.946-1.034l-9.66-16.256a2.322,2.322,0,0,1,.58-3.007l10.191-7.753a35.967,35.967,0,0,1-.339-4.6,36.015,36.015,0,0,1,.339-4.6l-10.191-7.753a2.288,2.288,0,0,1-.58-3.008l9.66-16.268a2.384,2.384,0,0,1,2.946-1.035l12.021,4.7a37.393,37.393,0,0,1,8.162-4.6l1.835-12.455a2.333,2.333,0,0,1,2.366-1.973h19.319a2.341,2.341,0,0,1,2.37,1.967l1.835,12.456a35.663,35.663,0,0,1,8.162,4.6l12.026-4.7a2.461,2.461,0,0,1,2.941,1.021l9.659,16.268a2.33,2.33,0,0,1-.58,3.008l-10.191,7.753a36.191,36.191,0,0,1,.339,4.6,36.145,36.145,0,0,1-.339,4.6l.008.013,10.191,7.753a2.328,2.328,0,0,1,.58,3.007l-9.66,16.256a2.385,2.385,0,0,1-2.946,1.034l-12.026-4.7a37.432,37.432,0,0,1-8.162,4.6l-1.836,12.455a2.335,2.335,0,0,1-2.3,1.974Zm-31.865-47.625a22.663,22.663,0,0,0,22.023,23.276v0a23,23,0,0,0,23.287-22.653,22.66,22.66,0,0,0-22.034-22.648c-.214-.006-.425-.009-.638-.009A22.66,22.66,0,0,0-1134.114-1584.752Zm16.349,11.238a2.475,2.475,0,0,1-2.4-2.552v-16.114a2.485,2.485,0,0,1,.322-1.29,2.475,2.475,0,0,1,3.375-.928l13.731,8.078a2.557,2.557,0,0,1,.9.9,2.55,2.55,0,0,1-.9,3.495l-13.731,8.092a2.472,2.472,0,0,1-1.222.323Z" transform="translate(1161.783 1634.219)" stroke="rgba(0,0,0,0)" stroke-miterlimit="10" stroke-width="1"/>
</svg>
