<svg id="icon_share_location" xmlns="http://www.w3.org/2000/svg" width="20" height="20" viewBox="0 0 20 20">
  <g id="Group_14712" data-name="Group 14712" transform="translate(1.692 1.855)">
    <g id="Group_14711" data-name="Group 14711">
      <path id="Path_22035" data-name="Path 22035" d="M13.02,20.41h0a.837.837,0,0,0,1.008.825,8.344,8.344,0,0,0,2.6-1.083.838.838,0,0,0,.133-1.292h0a.823.823,0,0,0-1.008-.133,6.533,6.533,0,0,1-2.108.875A.815.815,0,0,0,13.02,20.41Z" transform="translate(-3.862 -4.957)" />
      <path id="Path_22036" data-name="Path 22036" d="M3.7,10.374A6.673,6.673,0,0,1,8.863,3.882a.821.821,0,0,0,.625-.8h0a.834.834,0,0,0-1.017-.817,8.329,8.329,0,0,0,0,16.225.834.834,0,0,0,1.017-.817h0a.814.814,0,0,0-.625-.8A6.69,6.69,0,0,1,3.7,10.374Z" transform="translate(-2.03 -2.229)" />
      <path id="Path_22037" data-name="Path 22037" d="M20.43,10.2h0a.837.837,0,0,0,.825-1.008,8.427,8.427,0,0,0-1.083-2.6.833.833,0,0,0-1.292-.133h0a.81.81,0,0,0-.125,1.008,6.383,6.383,0,0,1,.875,2.108A.8.8,0,0,0,20.43,10.2Z" transform="translate(-4.797 -2.891)" />
      <path id="Path_22038" data-name="Path 22038" d="M16.628,3.329a8.427,8.427,0,0,0-2.6-1.083.836.836,0,0,0-1.008.817h0a.807.807,0,0,0,.617.8,6.642,6.642,0,0,1,2.108.875A.81.81,0,0,0,16.753,4.6h0A.81.81,0,0,0,16.628,3.329Z" transform="translate(-3.862 -2.226)" />
      <path id="Path_22039" data-name="Path 22039" d="M18.871,16.742h0a.833.833,0,0,0,1.292-.133,8.343,8.343,0,0,0,1.083-2.6A.836.836,0,0,0,20.429,13h0a.807.807,0,0,0-.8.617,6.643,6.643,0,0,1-.875,2.108A.808.808,0,0,0,18.871,16.742Z" transform="translate(-4.796 -4.022)" />
      <circle id="Ellipse_418" data-name="Ellipse 418" cx="5" cy="5" r="5" transform="translate(3.308 3.145)" fill="none" />
    </g>
  </g>
</svg>