<svg id="Flags" xmlns="http://www.w3.org/2000/svg" width="20" height="20" viewBox="0 0 20 20">
  <g id="Group_27237" data-name="Group 27237">
    <rect id="Rectangle_11833" data-name="Rectangle 11833" width="20" height="20" fill="none"/>
  </g>
  <path id="Path_50504" data-name="Path 50504" d="M12.833,5.667l-.2-1A.831.831,0,0,0,11.817,4H5.833A.836.836,0,0,0,5,4.833v12.5a.833.833,0,1,0,1.667,0v-5h4.667l.2,1A.823.823,0,0,0,12.35,14h4.317a.836.836,0,0,0,.833-.833V6.5a.836.836,0,0,0-.833-.833Z" transform="translate(-0.833 -0.667)" fill="#787878"/>
</svg>
