<svg id="icon_r" xmlns="http://www.w3.org/2000/svg" width="100" height="100" viewBox="0 0 100 100">
  <rect id="shape" width="100" height="100" fill="none"/>
  <path id="AXIS" d="M-608.625-3379.742h-66a13.907,13.907,0,0,1-9.9-4.1,13.909,13.909,0,0,1-4.1-9.9v-66a13.908,13.908,0,0,1,4.1-9.9,13.908,13.908,0,0,1,9.9-4.1h66a13.908,13.908,0,0,1,9.9,4.1,13.908,13.908,0,0,1,4.1,9.9v66a13.909,13.909,0,0,1-4.1,9.9A13.907,13.907,0,0,1-608.625-3379.742Zm-51.616-69.206v3.569l4.617.793v32.484l-4.617.793v3.567h14.812v-3.567l-4.616-.793v-14.046h8.949a6.951,6.951,0,0,1,5.24,2.039,7.527,7.527,0,0,1,1.954,5.41v3.2a10.457,10.457,0,0,0,1.373,5.495,5,5,0,0,0,4.63,2.265h3v-3.653l-1.359-.17a2.038,2.038,0,0,1-1.586-1.076,6.26,6.26,0,0,1-.482-2.8v-3.313a11.865,11.865,0,0,0-1.487-6.146,8.461,8.461,0,0,0-4.857-3.6,11.131,11.131,0,0,0,4.786-3.653,8.922,8.922,0,0,0,1.671-5.324c0-3.646-1.21-6.5-3.6-8.482s-5.863-2.988-10.337-2.988h-18.1Zm17.531,18.408h-7.335v-14.046h7.9c2.838,0,4.963.638,6.315,1.9a6.729,6.729,0,0,1,2.039,5.154,6.451,6.451,0,0,1-2.124,5.211C-637.322-3431.14-639.609-3430.54-642.71-3430.54Z" transform="translate(691.625 3476.741)" fill="#010101"/>
</svg>
