<svg id="icon_home" xmlns="http://www.w3.org/2000/svg" width="100" height="100" viewBox="0 0 100 100">
  <rect id="shape" width="100" height="100" fill="none"/>
  <path id="home" d="M356.046,99.423c-1.8,0-3.5.028-5.188-.006a4.672,4.672,0,0,1-4.689-5.433,4.46,4.46,0,0,1,1.5-2.765q4.571-4.28,9.13-8.575Q372.159,68.223,387.512,53.8c2.36-2.218,4.853-2.238,7.214-.021q16.259,15.269,32.512,30.543c2.441,2.293,4.849,4.623,7.333,6.867a4.761,4.761,0,0,1-1.3,7.882,6.354,6.354,0,0,1-1.954.339c-1.4.05-2.806.015-4.21.015h-.786v1.01q0,19.411,0,38.822c0,1.528-.52,2.36-1.743,2.756a2.8,2.8,0,0,1-.851.109q-32.544.007-65.089,0a2.46,2.46,0,0,1-2.588-2.747q-.006-11.687,0-23.374V99.423Z" transform="translate(-341.129 -47.127)"/>
</svg>
