<svg id="Icon_licensing" xmlns="http://www.w3.org/2000/svg" width="100" height="100" viewBox="0 0 100 100">
  <g id="content">
    <g id="icone">
      <path id="right" d="M31.331,171.723a29,29,0,0,1-4.891.666,13.8,13.8,0,0,1-8.893-2.885,17.13,17.13,0,0,1-4.891-5.992L.427,185.7a3.327,3.327,0,0,0,3.113,4.882l11.117-.887,5.113,9.985a3.2,3.2,0,0,0,5.78,0L38,177.048a29.06,29.06,0,0,1-6.669-5.325Z" transform="translate(6 -101.512)" />
      <path id="left" d="M162.947,185.8,150.8,163.515a13.668,13.668,0,0,1-4.86,6.018,15,15,0,0,1-8.835,2.9,16.012,16.012,0,0,1-4.86-.668,19.455,19.455,0,0,1-6.847,5.349l12.37,22.732a3.3,3.3,0,0,0,5.743,0l5.08-10.028,11.045.891a3.315,3.315,0,0,0,3.314-4.9Z" transform="translate(-69.397 -101.515)" />
      <path id="star" d="M69.515,59.572c3.057-1.072,8.3,1.928,10.92,0s1.31-7.715,3.275-10.286,7.862-3.214,8.954-6.214c.873-3-3.494-6.858-3.494-10.072s4.367-7.286,3.494-10.072c-1.092-3-6.989-3.643-8.954-6.214s-.655-8.358-3.275-10.286-7.862,1.072-10.92,0C66.457,5.573,64.055,0,60.78,0S55.1,5.357,52.045,6.429s-8.3-1.928-10.92,0-1.31,7.715-3.275,10.286-7.862,3.214-8.954,6.214c-.875,3,3.493,6.857,3.493,10.07s-4.367,7.286-3.495,10.072c1.092,3,6.989,3.643,8.954,6.214s.655,8.358,3.275,10.286,7.862-1.072,10.92,0C55.1,60.427,57.5,66,60.778,66,64.275,65.786,66.677,60.429,69.515,59.572Z" transform="translate(-10.781)" />
    </g>
  </g>
</svg>
