<svg id="icon_settings" xmlns="http://www.w3.org/2000/svg" width="100" height="100" viewBox="0 0 100 100">
  <rect id="shape" width="100" height="100" fill="none"/>
  <path id="settings" d="M1225.315-135.183c3.553-3.594,7.033-7.126,10.543-10.631a1,1,0,0,1,.858-.091,24.575,24.575,0,0,0,8.708,1.483,23.684,23.684,0,0,0,15.682-6.089,24.533,24.533,0,0,0,8.131-14.306,22.571,22.571,0,0,0-.3-9.634c-.429-1.744-2.2-2.188-3.534-.874q-4.114,4.058-8.181,8.165a9.916,9.916,0,0,1-5.686,3.022,9.659,9.659,0,0,1-11.2-8.8,10.439,10.439,0,0,1,3.175-8.181c2.677-2.693,5.376-5.365,8.043-8.068,1.361-1.378.9-3.035-.97-3.539a13.938,13.938,0,0,0-1.786-.374,23.99,23.99,0,0,0-18.9,5.2,23.9,23.9,0,0,0-8.781,14.177,23.933,23.933,0,0,0,.926,12.919,1.138,1.138,0,0,1-.28,1.427c-3.285,3.222-6.525,6.49-9.78,9.742-.172.171-.355.33-.678.631-.872-1.824-1.778-3.529-2.51-5.306a46.773,46.773,0,0,1-1.564-4.72,2.564,2.564,0,0,0-1.849-1.914c-2.484-.771-4.943-1.618-7.412-2.436a2.239,2.239,0,0,1-1.863-2.563q-.008-2.951,0-5.9a2.22,2.22,0,0,1,1.873-2.55c2.469-.82,4.932-1.657,7.411-2.442a2.545,2.545,0,0,0,1.883-1.979,36.625,36.625,0,0,1,4.017-9.705,2.777,2.777,0,0,0,.055-2.965c-1.2-2.275-2.331-4.59-3.483-6.893a2.155,2.155,0,0,1,.48-2.979q2.172-2.18,4.353-4.35c1.034-1.026,1.58-1.115,2.886-.469,2.383,1.178,4.77,2.348,7.136,3.558a2.46,2.46,0,0,0,2.586-.036,38.194,38.194,0,0,1,9.939-4.117,2.56,2.56,0,0,0,1.966-1.9c.77-2.482,1.62-4.94,2.442-7.406a2.2,2.2,0,0,1,2.509-1.816q2.995-.014,5.989,0a2.219,2.219,0,0,1,2.5,1.836c.83,2.463,1.688,4.918,2.468,7.4a2.571,2.571,0,0,0,1.976,1.889,38.327,38.327,0,0,1,9.939,4.118,2.392,2.392,0,0,0,2.509.06c2.392-1.221,4.8-2.4,7.212-3.59,1.3-.642,1.84-.552,2.886.479q2.163,2.13,4.312,4.274a2.164,2.164,0,0,1,.478,3.051c-1.178,2.382-2.343,4.77-3.557,7.133a2.347,2.347,0,0,0,.043,2.5,38.718,38.718,0,0,1,4.155,10.008,2.515,2.515,0,0,0,1.856,1.9c2.506.793,4.994,1.642,7.488,2.474a2,2,0,0,1,1.681,2.311q.013,3.159,0,6.318a2.016,2.016,0,0,1-1.685,2.315c-2.519.845-5.034,1.7-7.568,2.5a2.449,2.449,0,0,0-1.794,1.865,36.821,36.821,0,0,1-4.148,10.006,2.46,2.46,0,0,0-.032,2.589c1.2,2.337,2.364,4.7,3.536,7.05a2.189,2.189,0,0,1-.484,3.056q-2.142,2.15-4.294,4.291a2.092,2.092,0,0,1-2.91.468c-2.408-1.189-4.823-2.366-7.213-3.593a2.358,2.358,0,0,0-2.5.054A38.979,38.979,0,0,1,1255-130.983a2.453,2.453,0,0,0-1.869,1.784c-.791,2.5-1.642,4.991-2.473,7.483a2.163,2.163,0,0,1-2.5,1.809q-2.995.013-5.989,0c-1.534-.008-2.038-.388-2.534-1.874-.815-2.439-1.654-4.871-2.425-7.324a2.556,2.556,0,0,0-1.965-1.895A38.053,38.053,0,0,1,1225.315-135.183Z" transform="translate(-1195.107 218.9)"/>
</svg>
