<svg xmlns="http://www.w3.org/2000/svg" width="100" height="100" viewBox="0 0 100 100">
  <g id="icon_tag" transform="translate(-3980 -8628)">
    <rect id="shape" width="100" height="100" transform="translate(3980 8628)" fill="none"/>
    <path id="tag" d="M136.421-790.648A8.913,8.913,0,0,1,129.857-788a8.913,8.913,0,0,1-6.563-2.648L82.763-831.179a9.562,9.562,0,0,1-2.015-2.994A9.167,9.167,0,0,1,80-837.857v-32.931a8.87,8.87,0,0,1,2.706-6.506A8.87,8.87,0,0,1,89.212-880h32.931a9.166,9.166,0,0,1,3.685.748,9.562,9.562,0,0,1,2.994,2.015l40.531,40.646A8.844,8.844,0,0,1,172-830.085a8.844,8.844,0,0,1-2.648,6.506Zm-35.695-61.717a6.662,6.662,0,0,0,4.894-2.015,6.662,6.662,0,0,0,2.015-4.894,6.662,6.662,0,0,0-2.015-4.894,6.662,6.662,0,0,0-4.894-2.015,6.662,6.662,0,0,0-4.894,2.015,6.662,6.662,0,0,0-2.015,4.894,6.662,6.662,0,0,0,2.015,4.894A6.662,6.662,0,0,0,100.726-852.365Z" transform="translate(3904 9512)"/>
  </g>
</svg>
