<svg id="icon_not_found_content" xmlns="http://www.w3.org/2000/svg" width="100" height="100" viewBox="0 0 100 100">
  <path id="scan_delete" d="M169.143-870.857v0Zm0,82.286a8.8,8.8,0,0,1-6.457-2.686A8.8,8.8,0,0,1,160-797.714v-73.143a8.8,8.8,0,0,1,2.686-6.457A8.8,8.8,0,0,1,169.143-880h36.571l27.429,27.429v19.886a25.664,25.664,0,0,0-4.457-1.2,27.134,27.134,0,0,0-4.686-.4V-848H201.143v-22.857h-32v73.143h29.029a26.338,26.338,0,0,0,2.286,4.914,24.677,24.677,0,0,0,3.2,4.229Zm45.257-2.286-6.4-6.4,9.6-9.6-9.6-9.6,6.4-6.4,9.6,9.6,9.6-9.6,6.4,6.4-9.486,9.6,9.486,9.6-6.4,6.4-9.6-9.486Z" transform="translate(-150.261 884.571)"/>
  <rect id="shape" width="100" height="100" fill="none"/>
</svg>
