<svg id="icon_text_background" xmlns="http://www.w3.org/2000/svg" width="100" height="100" viewBox="0 0 100 100">
  <rect id="shape" width="100" height="100" fill="none"/>
  <path id="Path_24477" data-name="Path 24477" d="M34.892,50.6H53.108L44,26.312ZM79.2,0H8.8A8.826,8.826,0,0,0,0,8.8V79.2A8.826,8.826,0,0,0,8.8,88H79.2A8.826,8.826,0,0,0,88,79.2V8.8A8.826,8.826,0,0,0,79.2,0M60.324,69.872,56.364,59.4H31.548L27.632,69.828a4.262,4.262,0,1,1-7.964-3.036l18.7-47.564A6.1,6.1,0,0,1,44,15.4a6,6,0,0,1,5.588,3.828l18.7,47.564a4.259,4.259,0,0,1-3.96,5.808,4.351,4.351,0,0,1-4-2.728" transform="translate(6 6)"/>
</svg>
