<svg xmlns="http://www.w3.org/2000/svg" width="205" height="182" viewBox="0 0 205 182">
  <g id="error_image" data-name="error image" transform="translate(-17.531 -3.832)">
    <ellipse id="Ellipse_872" data-name="Ellipse 872" cx="71.574" cy="71.443" rx="71.574" ry="71.443" transform="translate(17.531 14.103)" fill="#f6a400" opacity="0.2"/>
    <rect id="Rectangle_3221" data-name="Rectangle 3221" width="50.671" height="10.815" rx="5.407" transform="translate(58.238 53.893)" fill="#fff"/>
    <path id="Path_50389" data-name="Path 50389" d="M116.1,244.445h91.3a5.413,5.413,0,0,1,5.418,5.408h0a5.413,5.413,0,0,1-5.418,5.407H116.1a5.413,5.413,0,0,1-5.418-5.407h0A5.413,5.413,0,0,1,116.1,244.445Z" transform="translate(-78.178 -168.923)" fill="#fff"/>
    <path id="Path_50390" data-name="Path 50390" d="M116.1,314.418h91.3a5.413,5.413,0,0,1,5.418,5.407h0a5.413,5.413,0,0,1-5.418,5.408H116.1a5.413,5.413,0,0,1-5.418-5.408h0A5.413,5.413,0,0,1,116.1,314.418Z" transform="translate(-78.178 -217.266)" fill="#fff"/>
    <path id="Path_50400" data-name="Path 50400" d="M167.261,273.59l-.187.005c-.027.069-.055.138-.089.205Z" transform="translate(-117.043 -189.059)" fill="#2f2e41"/>
    <path id="Path_50401" data-name="Path 50401" d="M174.732,249.3a1.4,1.4,0,0,0,.056.224A1.052,1.052,0,0,0,174.732,249.3Z" transform="translate(-122.391 -172.276)" fill="#2f2e41"/>
    <g id="Group_16020" data-name="Group 16020" transform="translate(82.794 3.832)">
      <path id="Path_50447" data-name="Path 50447" d="M228.65,329.937A3.98,3.98,0,0,0,233.8,331.4a3.832,3.832,0,0,0,.564-.335l20.349,11.884-.059-6.47-19.768-10.551a4.068,4.068,0,0,0-5.408-.284A3.326,3.326,0,0,0,228.65,329.937Z" transform="translate(-208.837 -278.104)" fill="#ffc44d"/>
      <ellipse id="Ellipse_873" data-name="Ellipse 873" cx="22.487" cy="20.683" rx="22.487" ry="20.683" transform="translate(0 10.168)" fill="#f6a400"/>
      <path id="Path_50434" data-name="Path 50434" d="M493.839,461.843l-6.431,1.429-9.056-22.116,9.491-2.109Z" transform="translate(-382.934 -289.721)" fill="#ffc44d"/>
      <path id="Path_50435" data-name="Path 50435" d="M472.379,511.681l-.044-.165c-1.061-4.054,1.649-8.133,6.057-9.117l12.582-2.8,1.975,7.507Z" transform="translate(-378.999 -329.681)" fill="#090909"/>
      <path id="Path_50436" data-name="Path 50436" d="M426.657,472.406h-6.616l-3.147-23.453h9.764Z" transform="translate(-344.218 -296.257)" fill="#ffc44d"/>
      <path id="Path_50437" data-name="Path 50437" d="M411.582,520.025H390.42v-.17c0-4.172,3.68-7.553,8.218-7.553h12.945Z" transform="translate(-327.542 -338.06)" fill="#090909"/>
      <path id="Path_50438" data-name="Path 50438" d="M405.945,345.7l-6.424-70.36,26.591-4.5.105-.018,7.783,4.6-2.709,25.894,12.473,40.371-10.77,2.6L420.5,306.849l-2.859-11.386-1.465,14.795,1.088,36.487Z" transform="translate(-333.276 -178.712)" fill="#232323"/>
      <path id="Path_50439" data-name="Path 50439" d="M397.176,159.012l-.07-.082,9.189-63.587.012-.083.064-.06c.136-.124,3.355-3.048,6.667-3.048.478,0,.934-.011,1.37-.021,2.534-.061,4.536-.109,6.915,2.078,2.424,2.228,10.332,10.362,10.332,21.5,0,10.783,1.068,44.292,1.079,44.629l.015.473-.432-.258c-.107-.063-10.743-6.288-19.664-.5a13.579,13.579,0,0,1-7.433,2.442,11.348,11.348,0,0,1-8.044-3.484" transform="translate(-331.753 -60.783)" fill="#181818"/>
      <path id="Path_50440" data-name="Path 50440" d="M407.434,11.05c6.423-3.227,14.476-1.057,17.987,4.846s1.151,13.3-5.272,16.532-14.476,1.057-17.987-4.846-1.151-13.3,5.272-16.532" transform="translate(-333.913 -6.305)" fill="#ffc44d"/>
      <path id="Path_50442" data-name="Path 50442" d="M413.155,20.023c-1.589.19-2.787-1.3-3.343-2.685s-.98-2.989-2.361-3.735c-1.887-1.019-4.3.206-6.46-.13a5.294,5.294,0,0,1-4.146-5.023c-.124-2.269.858-4.451,1.823-6.543l.336,2.6A5.034,5.034,0,0,1,401.455,0l-.434,3.815A4.377,4.377,0,0,1,406.09.465l-.068,2.273a44.427,44.427,0,0,1,8.478-.381,14.426,14.426,0,0,1,7.806,2.764c3.2,2.556,4.37,6.765,3.977,10.646s-2.136,7.526-3.952,11.048c-.457.886-1.089,1.886-2.149,2a2.149,2.149,0,0,1-2.12-1.468,4.906,4.906,0,0,1,.026-2.614,10.249,10.249,0,0,0,.354-3.956,3.342,3.342,0,0,0-2.715-2.766c-1.437-.161-2.908,1.35-2.217,2.519Z" transform="translate(-331.583)" fill="#484848"/>
      <path id="Path_50443" data-name="Path 50443" d="M435.37,533.7H339.991v-.716h95.52Z" transform="translate(-295.774 -351.709)" fill="#090909"/>
      <path id="Path_50444" data-name="Path 50444" d="M186.216,302.247l2.317-.226a6.372,6.372,0,0,1,5.533,2.222,5.315,5.315,0,0,1,1.045,2.02v.006a5.4,5.4,0,0,1-2.313,5.859l-8,5.426c-5.615,6.979-16.169,11.609-28.548,15.37l-19.242-10.991,6.806-7.582,13.2,6.506,19.618-13.968.011-.009,7.467-4.425Z" transform="translate(-109.3 -264.554)" fill="#181818"/>
      <path id="Path_50445" data-name="Path 50445" d="M232.154,239.161a3.45,3.45,0,0,0,2.415,4.429,4.109,4.109,0,0,0,.654.142l4.764,21.733,5.035-4.518-5.407-20.424a3.629,3.629,0,0,0-3.521-3.786,3.841,3.841,0,0,0-3.941,2.424Z" transform="translate(-200.806 -225.694)" fill="#ffc44d"/>
      <path id="Path_50446" data-name="Path 50446" d="M186.659,283.141l1.781,1.381a5.4,5.4,0,0,1,2.088,5.211,5.231,5.231,0,0,1-.861,2.091l0,.005a6.349,6.349,0,0,1-6.2,2.521l-9.8-1.555c-9.363,1.1-20.3-2.695-31.823-8.306l-4.7-20.38,10.66-.732,4.033,13.263,24.54,3.351.015,0,8.641,1.893Z" transform="translate(-104.685 -241.563)" fill="#181818"/>
      <g id="icon_warning" transform="translate(10.737 19)">
        <rect id="shape" width="24" height="24" fill="none"/>
        <path id="warning" d="M766,1207.637q-2.868-4.951-5.74-9.9c-.762-1.314-1.5-2.646-2.311-3.926a3.107,3.107,0,0,0-3.019-1.428,3.332,3.332,0,0,0-2.755,1.814q-3.913,6.749-7.813,13.5a4.829,4.829,0,0,0-.436.995,3.454,3.454,0,0,0,1.654,3.891,3.778,3.778,0,0,0,1.8.424h7.812q3.811,0,7.623,0c.21,0,.421-.008.63-.024a3.448,3.448,0,0,0,3.117-2.909A3.636,3.636,0,0,0,766,1207.637Zm-10.785,3.212a1.82,1.82,0,1,1,.067-3.638,1.821,1.821,0,0,1-.067,3.638ZM757,1198.5c-.049.951-.105,1.906-.162,2.861-.061,1.033-.122,2.066-.174,3.1,0,.016,0,.032,0,.048a1.458,1.458,0,0,1-1.457,1.433h-.026a1.459,1.459,0,0,1-1.432-1.469q-.146-2.733-.294-5.465c-.011-.2-.025-.394-.039-.591l-.019-.274a1.9,1.9,0,0,1,1.259-2.079l.073-.023a1.765,1.765,0,0,1,2.176,1.22A4.447,4.447,0,0,1,757,1198.5Z" transform="translate(-743.315 -1190.691)" fill="#fcfcfc"/>
      </g>
    </g>
  </g>
</svg>
