<svg id="icon_payment" xmlns="http://www.w3.org/2000/svg" width="100" height="100" viewBox="0 0 100 100">
  <g id="Group_1415" data-name="Group 1415" transform="translate(-5.172 -6.9)">
    <path id="Path_4849" data-name="Path 4849" d="M56.814,75.207a4.615,4.615,0,0,0,.3-4.992L55,66.583h0L47.434,54.027a1.374,1.374,0,0,1,0-1.513l3.328-6.2a1.9,1.9,0,0,1,1.664-.908l13.011,2.421c.454.151.908.3,1.059.756l4.387,7.262a23.339,23.339,0,0,1,9.682.605L77.54,34.208,38.054,15.6,19.9,35.872l.908,1.815,5.6,12.859,23.6,25.113a6.329,6.329,0,0,0,1.815,1.21A4.308,4.308,0,0,0,56.814,75.207Z" transform="translate(5.282 4.462)"/>
    <path id="Path_4850" data-name="Path 4850" d="M41.673,16.885l2.118-2.421L35.47,6.9,9.6,35.947l8.321,7.564,3.933-4.387h0L41.673,16.885Z" transform="translate(0 0)"/>
    <path id="Path_4851" data-name="Path 4851" d="M71,45.56A23.65,23.65,0,0,0,59.352,44.5a22.1,22.1,0,0,0-12.1,6.808l1.513,2.572a7.522,7.522,0,0,1-.454,8.623,7.953,7.953,0,0,1-6.354,3.177H41.5v.3a21.785,21.785,0,0,0,43.57,0A21.234,21.234,0,0,0,71,45.56ZM64.5,76.725v1.967H62.226V76.876a9.676,9.676,0,0,1-5.446-1.513l.908-2.421a9,9,0,0,0,5.144,1.513c2.572,0,4.236-1.513,4.236-3.48S65.706,67.8,63.134,66.74c-3.631-1.362-5.9-3.026-5.9-6.051,0-2.874,2.118-5.144,5.3-5.749V53.124H64.8v1.815a8.165,8.165,0,0,1,4.539,1.21l-.908,2.269a8.464,8.464,0,0,0-4.387-1.21c-2.723,0-3.782,1.664-3.782,3.026,0,1.815,1.362,2.723,4.387,4.085,3.631,1.513,5.446,3.328,5.446,6.505C70.093,73.548,68.126,76.12,64.5,76.725Z" transform="translate(16.36 19.132)"/>
  </g>
  <rect id="shape" width="100" height="100" transform="translate(0 0)" fill="none"/>
</svg>
