<svg id="icon_apps" xmlns="http://www.w3.org/2000/svg" width="100" height="100" viewBox="0 0 100 100">
  <rect id="shape" width="100" height="100" fill="none"/>
  <path id="apps" d="M17699.348,3863c-3.828,0-6.285-2.283-6.307-6.11-.059-9.243-.045-18.487-.01-27.73a5.7,5.7,0,0,1,4.5-5.955,8.029,8.029,0,0,1,1.879-.191q13.6-.02,27.2,0c3.164,0,5.377,1.526,6.16,4.255a7.471,7.471,0,0,1,.219,1.963c.018,4.606.008,9.212.008,13.823s.01,9.212,0,13.819a5.779,5.779,0,0,1-6.105,6.128q-6.885.007-13.771.006Zm-55.324-5.972c.063-4.659.018-9.319.018-13.983,0-4.544.107-9.092-.035-13.632a6.094,6.094,0,0,1,6.408-6.413c4.469.045,8.941.036,13.414.027q3.7-.007,7.4,0c2.5,0,5.012-.036,7.508.094a5.572,5.572,0,0,1,5.213,5.367c.084,2.9.039,5.808.039,8.714,0,6.533.014,13.062,0,19.591a5.738,5.738,0,0,1-4.5,6.026,5.876,5.876,0,0,1-1.451.156q-5.092.007-10.178,0c-5.937,0-11.873-.009-17.807.027h-.033A5.951,5.951,0,0,1,17644.023,3857.03Zm23.463-43.035c-1.486,0-2.973,0-4.455,0-4.32,0-8.646.018-12.973,0a5.742,5.742,0,0,1-5.9-4.477,6.853,6.853,0,0,1-.156-1.794q-.012-6.869,0-13.743h.018c0-4.842-.035-9.684.014-14.526a5.63,5.63,0,0,1,5.443-5.421q14.484-.053,28.967,0a5.708,5.708,0,0,1,5.537,5.363c0,.058.008.116.008.174,0,9.626.035,19.248-.018,28.874a5.6,5.6,0,0,1-5.545,5.523c-2.27.033-4.539.042-6.807.042Q17669.554,3814,17667.486,3813.995Zm31.744,0c-3.742,0-6.182-2.354-6.2-6.133q-.067-13.865,0-27.731a5.716,5.716,0,0,1,4.438-5.923,7.488,7.488,0,0,1,1.873-.165c4.545-.013,9.088,0,13.633,0,4.574,0,9.145.094,13.715-.031a6.09,6.09,0,0,1,6.311,6.32c-.1,9.128-.035,18.26-.035,27.388,0,3.854-2.377,6.275-6.213,6.28q-6.879.01-13.758.01T17699.23,3813.99Z" transform="translate(-17638 -3768.003)" fill="#181818"/>
</svg>
