<svg id="icon_free_angle" xmlns="http://www.w3.org/2000/svg" width="100" height="100" viewBox="0 0 100 100">
  <rect id="shape" width="100" height="100" fill="none"/>
  <path id="free_angle" data-name="free angle" d="M41.057,84A40.3,40.3,0,0,1,12.051,71.708,42.309,42.309,0,0,1,0,41.971v-.015C0,18.77,18.41-.1,41.039-.1S82.078,18.77,82.078,41.955C82.078,65.107,63.7,83.968,41.1,84ZM19.114,19.529l-.542.555A32.29,32.29,0,0,0,19.015,64.4,30.526,30.526,0,0,0,60.13,66.93L44.569,51.553a8.774,8.774,0,0,1-10.755-5.046,9.119,9.119,0,0,1,4.617-11.856,8.548,8.548,0,0,1,6.744-.09,8.851,8.851,0,0,1,4.831,4.82,9.271,9.271,0,0,1,.521,5.447l15.72,15.517A32.3,32.3,0,0,0,60.1,16.97a30.646,30.646,0,0,0-19.066-6.745h-.022A30.728,30.728,0,0,0,19.114,19.529ZM69.358,1.935a9.933,9.933,0,1,1,19.867,0,9.933,9.933,0,0,1-19.867,0Zm6.267,0a3.667,3.667,0,1,0,3.667-3.667A3.67,3.67,0,0,0,75.624,1.935Z" transform="translate(5 12)" stroke="rgba(0,0,0,0)" stroke-miterlimit="10" stroke-width="1"/>
</svg>
