<svg id="icon_audio_extension_light" xmlns="http://www.w3.org/2000/svg" width="100" height="100" viewBox="0 0 100 100">
  <rect id="shape" width="100" height="100" fill="none"/>
  <g id="icon" transform="translate(13.006)">
    <path id="background" d="M12.881.61H45.963L74,30.145V87.591A12.937,12.937,0,0,1,61.143,100.61H12.881A12.942,12.942,0,0,1,0,87.591V13.629A12.942,12.942,0,0,1,12.881.61Z" transform="translate(0 -0.61)" fill="#e8e8e8" fill-rule="evenodd"/>
    <path id="fold" d="M237.139.61V29.92H265.2Z" transform="translate(-191.201 -0.61)" fill="#90c" fill-rule="evenodd" opacity="0.3"/>
    <path id="icon-2" data-name="icon" d="M164.937,264.63a18.577,18.577,0,0,0,2.491-8.142,11.684,11.684,0,0,0-1.2-5.65c-1.424-2.892-3.826-4.494-6.184-6.1a17.412,17.412,0,0,1-4.538-3.826l-.222-.267a8.224,8.224,0,0,1-1.6-2.892,1.7,1.7,0,0,0-3.381.267v30.52a9.729,9.729,0,0,0-5.161-1.424c-4.716,0-8.542,3.07-8.542,6.852s3.826,6.851,8.542,6.851,8.587-3.07,8.587-6.851V254a12.417,12.417,0,0,1,7.919,9.343,7.085,7.085,0,0,1-.667.934,1.754,1.754,0,0,0,.178,2.447,1.7,1.7,0,0,0,2.4-.178,10.543,10.543,0,0,0,1.246-1.78l.133-.133Z" transform="translate(-114.79 -194.204)" fill="#90c"/>
  </g>
</svg>
