<svg id="icon_color_picker" xmlns="http://www.w3.org/2000/svg" width="100" height="100" viewBox="0 0 100 100">
  <rect id="shape" width="100" height="100" fill="none"/>
  <path id="Path_50431" data-name="Path 50431" d="M97.453,17.037,84.973,4.557a5.311,5.311,0,0,0-7.52,0L60.813,21.2l-6.56-6.453a5.317,5.317,0,1,0-7.52,7.52l3.84,3.84L3.8,72.877A2.619,2.619,0,0,0,3,74.8V96.344a2.641,2.641,0,0,0,2.667,2.667H27.213a2.5,2.5,0,0,0,1.867-.8L75.853,51.437l3.84,3.84a5.317,5.317,0,1,0,7.52-7.52l-6.507-6.507,16.64-16.64A5.282,5.282,0,0,0,97.453,17.037ZM23.907,88.344,13.667,78.1,56.653,35.117l10.24,10.24Z" transform="translate(-1 -1.004)"/>
</svg>
