<svg xmlns="http://www.w3.org/2000/svg" width="36" height="36" viewBox="0 0 36 36">
  <g id="icon_phone" transform="translate(-64)">
    <rect id="shape" width="36" height="36" rx="4" transform="translate(64)" fill="#e8e8e8"/>
    <path id="pinterest" d="M-586.468-70.625l-.1-1.485a4.642,4.642,0,0,1,.107-1.361l1.166-5.079a.506.506,0,0,0-.029-.313,3.268,3.268,0,0,1-.266-1.393,3.178,3.178,0,0,1,.321-1.279,1.616,1.616,0,0,1,2.333-.649h0a1.869,1.869,0,0,1,.3,1.681c-.267.867-.5,1.689-.751,2.539a1.46,1.46,0,0,0,1.111,1.85.409.409,0,0,0,.052.01,2.546,2.546,0,0,0,2.6-1.452,4.718,4.718,0,0,0,.432-1.019c.866-3.069-.292-5.036-2.409-5.726a4.313,4.313,0,0,0-5.4,2.521,5.683,5.683,0,0,0-.268,1.248,3.724,3.724,0,0,0,.612,2.469.472.472,0,0,1,.078.315l-.3,1.312a.15.15,0,0,1-.242.081c-.1-.089-.186-.16-.337-.29a4.967,4.967,0,0,1-1.236-5.9l.014-.029a6.251,6.251,0,0,1,2.774-2.989,5.707,5.707,0,0,1,2.2-.592,6.791,6.791,0,0,1,2.308.048,6.193,6.193,0,0,1,4.136,2.953c1.344,2.506.224,5.46-.758,6.753a4.672,4.672,0,0,1-3.389,1.892,2.789,2.789,0,0,1-1.972-.526,2.493,2.493,0,0,1-.568-.6l-.615,2.387a4.453,4.453,0,0,1-.408,1.031c-.363.662-.777,1.324-1.14,1.986C-586.257-70.364-586.337-70.495-586.468-70.625Z" transform="translate(665.19 96.233)" fill="#484848"/>
  </g>
</svg>
