<svg id="icon_9" xmlns="http://www.w3.org/2000/svg" width="100" height="100" viewBox="0 0 100 100">
  <rect id="shape" width="100" height="100" fill="none"/>
  <path id="AXIS" d="M-608.625-3379.742h-66a13.907,13.907,0,0,1-9.9-4.1,13.909,13.909,0,0,1-4.1-9.9v-66a13.908,13.908,0,0,1,4.1-9.9,13.908,13.908,0,0,1,9.9-4.1h66a13.908,13.908,0,0,1,9.9,4.1,13.908,13.908,0,0,1,4.1,9.9v66a13.909,13.909,0,0,1-4.1,9.9A13.907,13.907,0,0,1-608.625-3379.742Zm-43.459-33.3h0l-.85,4.22a16.143,16.143,0,0,0,4.036,1.26,24.639,24.639,0,0,0,4.4.41,13.286,13.286,0,0,0,10.607-4.673c2.64-3.1,3.979-7.922,3.979-14.33v-7.448c0-5.242-1.253-9.259-3.724-11.937s-5.9-4.036-10.182-4.036a11.8,11.8,0,0,0-9.048,4.12,15.236,15.236,0,0,0-3.724,10.578c0,4.473,1.172,7.994,3.483,10.464s5.513,3.724,9.516,3.724A10.165,10.165,0,0,0-639-3421.7a7.557,7.557,0,0,0,3.172-2.917l.113.141c-.056,4.529-.871,7.859-2.422,9.9a7.59,7.59,0,0,1-6.358,3.073,21.259,21.259,0,0,1-4.064-.354,14.939,14.939,0,0,1-3.526-1.175Zm8.5-12.036a6.427,6.427,0,0,1-5.438-2.677,11.745,11.745,0,0,1-1.982-7.123,12.2,12.2,0,0,1,2.138-7.42,6.355,6.355,0,0,1,5.225-2.889,7.154,7.154,0,0,1,6.075,2.776c1.381,1.842,2.082,4.615,2.082,8.241v4.361a7.736,7.736,0,0,1-2.96,3.4A9.308,9.308,0,0,1-643.588-3425.073Z" transform="translate(691.625 3476.741)" fill="#010101"/>
</svg>
