<svg id="icon_star" xmlns="http://www.w3.org/2000/svg" width="100" height="100" viewBox="0 0 100 100">
  <rect id="shape" width="100" height="100" fill="none"/>
  <g id="star" transform="translate(-2485.529 -857.472)">
    <g id="Path_6329" data-name="Path 6329" transform="translate(0 0)" fill="#dedede">
      <path d="M 2565.200927734375 945.9429931640625 L 2535.89306640625 932.9815673828125 L 2535.529052734375 932.8206176757812 L 2535.1650390625 932.9815673828125 L 2505.85791015625 945.9429931640625 L 2511.410888671875 918.7063598632812 L 2511.519287109375 918.1746215820312 L 2511.099609375 917.83056640625 L 2487.7265625 898.6663818359375 L 2520.188232421875 894.6980590820312 L 2520.630126953125 894.64404296875 L 2520.85546875 894.2601318359375 L 2535.529052734375 869.2495727539062 L 2550.20361328125 894.2601318359375 L 2550.428955078125 894.64404296875 L 2550.870849609375 894.6980590820312 L 2583.33154296875 898.6663818359375 L 2559.95849609375 917.83056640625 L 2559.538818359375 918.1746826171875 L 2559.647216796875 918.7063598632812 L 2565.200927734375 945.9429931640625 Z" stroke="none"/>
      <path d="M 2535.529052734375 871.028076171875 L 2521.18115234375 895.4833374023438 L 2489.92431640625 899.304443359375 L 2512.509521484375 917.82275390625 L 2507.088134765625 944.4148559570312 L 2535.529052734375 931.8364868164062 L 2563.970703125 944.4148559570312 L 2558.548583984375 917.82275390625 L 2581.1337890625 899.3043823242188 L 2549.8779296875 895.4833984375 L 2535.529052734375 871.028076171875 M 2535.529052734375 867.4710693359375 L 2550.97998046875 893.8046875 L 2585.529052734375 898.0283203125 L 2560.529052734375 918.5265502929688 L 2566.430908203125 947.4710693359375 L 2535.529052734375 933.8046875 L 2504.6279296875 947.4710693359375 L 2510.529052734375 918.5265502929688 L 2485.529052734375 898.0283203125 L 2520.0791015625 893.8046875 L 2535.529052734375 867.4710693359375 Z" stroke="none" fill="#484848"/>
    </g>
  </g>
</svg>
