<svg xmlns="http://www.w3.org/2000/svg" width="16" height="11.147" viewBox="0 0 16 11.147">
  <path id="youtube" d="M-9.687-11.19c-.032-.214-.068-.428-.109-.641q-.04-.214-.087-.426a2.344,2.344,0,0,0-.079-.277c-.017-.048-.036-.1-.056-.142a2.233,2.233,0,0,0-.617-.821,2.683,2.683,0,0,0-1.373-.591,48.59,48.59,0,0,0-11,0,2.388,2.388,0,0,0-.331.057,2.288,2.288,0,0,0-.335.112l-.027.011a2.609,2.609,0,0,0-.69.409,2.161,2.161,0,0,0-.6.779c-.013.027-.025.056-.036.084s-.018.046-.027.069l-.018.052-.067.242q-.047.212-.087.426-.062.318-.109.641a15.785,15.785,0,0,0-.17,1.955c0,.061,0,.123,0,.185s0,.153,0,.23v.016c0,.077.012.287.176,2.353.032.214.068.428.109.641q.04.214.087.426a2.333,2.333,0,0,0,.079.277c.017.048.036.1.056.141a2.231,2.231,0,0,0,.617.821,2.674,2.674,0,0,0,1.373.591,48.444,48.444,0,0,0,11,0,2.145,2.145,0,0,0,.352-.063l.042-.01a2.429,2.429,0,0,0,.341-.123l.021-.01a2.575,2.575,0,0,0,.627-.383,2.16,2.16,0,0,0,.6-.779c.013-.027.025-.056.036-.084s.018-.046.027-.069l.018-.052.067-.242q.047-.212.087-.426.062-.318.109-.641a15.782,15.782,0,0,0,.17-1.955c0-.061,0-.123,0-.185,0-.082,0-.164,0-.246S-9.523-9.124-9.687-11.19ZM-15.1-8.813l-2.007,1.158L-19.114-6.5a.018.018,0,0,1-.025-.007.017.017,0,0,1,0-.009v-4.634a.018.018,0,0,1,.018-.018l.009,0L-17.107-10l2.007,1.16a.018.018,0,0,1,.007.025A.018.018,0,0,1-15.1-8.813Z" transform="translate(25.511 14.402)" fill="#484848"/>
</svg>
