<svg id="icon_cone" xmlns="http://www.w3.org/2000/svg" width="100" height="100" viewBox="0 0 100 100">
  <rect id="shape" width="100" height="100" fill="none"/>
  <g id="Cone" transform="translate(-2294.192 -1341.368)" style="mix-blend-mode: normal;isolation: isolate">
    <path id="shape-2" data-name="shape" d="M2390.552,1414.6l-46.359-66.228-46.355,66.2c-1.513,1.841-2.547,3.106-2.646,5.116,0,9.637,24.654,14.681,49,14.681s49-5.044,49-14.681C2393.09,1417.686,2391.384,1415.5,2390.552,1414.6Zm-46.35-63.105,40.665,58.848c-12.519-3.845-17.455-4.87-40.666-5.637-21.554.649-28.146,1.792-40.667,5.637Zm-.127,80.408c-25.535,0-46.236-5.35-46.236-11.948s11.976-12.893,47.279-12.949c35.764-.056,45.192,6.35,45.192,12.949S2369.61,1431.9,2344.075,1431.9Z" transform="translate(0 0)" fill="#484848"/>
    <path id="shape-3" data-name="shape" d="M2384.867,1410.33l-40.665-58.848-40.668,58.848c12.521-3.845,19.113-4.989,40.667-5.637C2367.412,1405.46,2372.348,1406.484,2384.867,1410.33Z" transform="translate(0 0.009)" fill="#dedede"/>
    <path id="shape-4" data-name="shape" d="M2345.118,1406.831c-35.3.056-47.279,6.35-47.279,12.949s20.7,11.948,46.236,11.948,46.235-5.35,46.235-11.948S2380.882,1406.775,2345.118,1406.831Z" transform="translate(0 0.171)" fill="#dedede"/>
  </g>
</svg>
