<svg id="icon_finance" xmlns="http://www.w3.org/2000/svg" width="100" height="100" viewBox="0 0 100 100">
  <rect id="shape" width="100" height="100" fill="none"/>
  <g id="finance" transform="translate(1 11)">
    <path id="shape-2" data-name="shape" d="M278.893,447.985v1.163q0,11.279,0,22.559a9.929,9.929,0,0,1-.1,1.864,4.228,4.228,0,0,1-3.8,3.589,12.009,12.009,0,0,1-1.772.135q-43.276.009-86.553,0a13.1,13.1,0,0,1-1.968-.16,4.285,4.285,0,0,1-3.685-3.812,16.689,16.689,0,0,1-.107-1.866q-.008-33.148,0-66.3c0-.524.034-1.05.084-1.572a4.426,4.426,0,0,1,4.355-4.266c.3-.024.593-.022.891-.022q43.672,0,87.345.018a7.082,7.082,0,0,1,2.694.478c2.067.874,2.636,2.658,2.629,4.75-.02,6.3-.007,12.609-.007,18.914v5.112h-1.368c-10.761,0-21.523.018-32.284-.011a9.933,9.933,0,0,0-7.936,3.313,9.143,9.143,0,0,0-1.739,10.01,8.945,8.945,0,0,0,8.587,6.056c11.157.1,22.315.041,33.472.045Z" transform="translate(-180.9 -399.299)"/>
    <path id="shape-3" data-name="shape" d="M482.622,572.353a4.9,4.9,0,1,1-4.9,4.916A4.955,4.955,0,0,1,482.622,572.353Z" transform="translate(-418.929 -538.257)"/>
  </g>
</svg>
