<svg id="icon_shrink" xmlns="http://www.w3.org/2000/svg" width="100" height="100" viewBox="0 0 100 100">
  <rect id="shape" width="100" height="100" fill="none"/>
  <path id="shape-2" data-name="shape" d="M-1607.329-1045.348c-4.939-4.828-17.354-17.283-21.194-21.116-2.091,2.086-3.934,3.894-5.74,5.738-1.777,1.813-3.884,2.58-6.269,1.587-2.3-.958-3.056-2.938-3.037-5.368.054-6-.011-12,.029-18,.027-4.019,1.814-5.946,5.806-6.011,6.207-.1,12.421-.049,18.632-.021a4.912,4.912,0,0,1,4.969,3.182,5.037,5.037,0,0,1-1.341,5.756c-1.875,1.917-3.791,3.794-5.973,5.972.966.964,21.063,20.962,21.565,21.58a5.1,5.1,0,0,1-.206,7.053,4.783,4.783,0,0,1-3.334,1.418A5.631,5.631,0,0,1-1607.329-1045.348Zm-85.72.357a5.094,5.094,0,0,1-.206-7.053c.5-.618,20.6-20.616,21.565-21.58-2.182-2.178-4.1-4.055-5.973-5.972a5.037,5.037,0,0,1-1.341-5.756,4.912,4.912,0,0,1,4.969-3.182c6.211-.028,12.424-.079,18.632.021,3.992.065,5.779,1.992,5.806,6.011.04,6-.026,12,.029,18,.021,2.43-.742,4.41-3.037,5.368-2.384.994-4.491.227-6.268-1.587-1.806-1.844-3.65-3.652-5.74-5.738-3.839,3.833-16.255,16.287-21.194,21.116a5.634,5.634,0,0,1-3.906,1.776A4.782,4.782,0,0,1-1693.049-1044.991Zm55.315-49.642c-3.992-.065-5.779-1.992-5.806-6.011-.04-6,.025-12-.029-17.995-.02-2.431.742-4.41,3.037-5.368,2.385-.994,4.493-.227,6.269,1.587,1.806,1.844,3.649,3.652,5.74,5.738,3.84-3.833,16.255-16.287,21.194-21.117,2.327-2.274,5.182-2.33,7.24-.356a5.094,5.094,0,0,1,.206,7.052c-.5.618-20.6,20.617-21.565,21.58,2.182,2.178,4.1,4.055,5.973,5.972a5.037,5.037,0,0,1,1.341,5.756,4.912,4.912,0,0,1-4.969,3.181c-3.446.016-6.894.038-10.34.038C-1632.208-1094.573-1634.971-1094.588-1637.734-1094.633Zm-36.3.022a4.912,4.912,0,0,1-4.969-3.181,5.036,5.036,0,0,1,1.341-5.756c1.875-1.917,3.791-3.794,5.973-5.972-.966-.963-21.063-20.962-21.565-21.58a5.093,5.093,0,0,1,.206-7.052c2.057-1.974,4.911-1.918,7.24.356,4.939,4.829,17.355,17.284,21.194,21.117,2.091-2.086,3.934-3.894,5.74-5.738,1.777-1.814,3.884-2.58,6.268-1.587,2.3.958,3.058,2.937,3.037,5.368-.055,6,.011,12-.029,17.995-.027,4.019-1.814,5.946-5.806,6.011-2.763.045-5.527.06-8.292.06C-1667.143-1094.573-1670.589-1094.6-1674.036-1094.612Z" transform="translate(1696.569 1141.573)" fill="#040506" stroke="rgba(0,0,0,0)" stroke-miterlimit="10" stroke-width="1"/>
</svg>
