<svg id="icon_clone" xmlns="http://www.w3.org/2000/svg" width="100" height="100" viewBox="0 0 100 100">
  <rect id="shape" width="100" height="100" fill="none"/>
  <path id="clone" d="M83.375,0A8.625,8.625,0,0,1,92,8.625v51.75A8.625,8.625,0,0,1,83.375,69H31.625A8.625,8.625,0,0,1,23,60.375V8.625A8.625,8.625,0,0,1,31.625,0h51.75M31.625,74.75A14.391,14.391,0,0,1,17.25,60.375V23H8.625A8.625,8.625,0,0,0,0,31.625v51.75A8.625,8.625,0,0,0,8.625,92h51.75A8.625,8.625,0,0,0,69,83.375V74.75Z" transform="translate(4 3.959)"/>
</svg>
