<svg xmlns="http://www.w3.org/2000/svg" width="24" height="24" viewBox="0 0 24 24">
  <g id="icon_select_horz_line" transform="translate(-6 -5)">
    <rect id="shape" width="24" height="24" transform="translate(6 5)" fill="none"/>
    <path id="shape-2" data-name="shape" d="M16932.717,20802.549l-8.469-4.887a.5.5,0,0,1-.246-.434v-9.82a.509.509,0,0,1,.246-.434l8.5-4.908a.522.522,0,0,1,.246-.066.537.537,0,0,1,.25.066l8.5,4.908a.5.5,0,0,1,.25.434v9.82a.5.5,0,0,1-.25.434l-8.395,4.85a.424.424,0,0,1-.168.094l-.025.01a.493.493,0,0,1-.156.025A.488.488,0,0,1,16932.717,20802.549Zm-.225-1.287v-8.664l-7.492-4.322v8.666Zm1.039-8.664v8.654l7.471-4.311v-8.656Zm-.523-.854,7.5-4.33-7.51-4.334-7.5,4.33Z" transform="translate(-16915 -20775.32)" fill="#737376"/>
    <path id="svg-fill-primary" d="M16855.223,20692.051a.971.971,0,0,1-.457-.137q-4.137-2.382-8.268-4.762a1,1,0,0,1-.5-.852v-.035a.955.955,0,0,1,.135-.479,1.007,1.007,0,0,1,.846-.5h.043a1.017,1.017,0,0,1,.477.135q3.879,2.235,7.764,4.477,3.756-2.212,7.525-4.414a1,1,0,0,1,1.012,1.725q-4.02,2.353-8.033,4.705a.937.937,0,0,1-.463.141Zm0-9.285a.971.971,0,0,1-.457-.137q-4.137-2.382-8.268-4.762a1,1,0,0,1-.5-.852v-.035a.955.955,0,0,1,.135-.479,1.007,1.007,0,0,1,.846-.5h.043a1.017,1.017,0,0,1,.477.135q3.879,2.235,7.764,4.477,3.756-2.212,7.525-4.414a1,1,0,0,1,1.012,1.725q-4.02,2.353-8.033,4.705a.937.937,0,0,1-.463.141Z" transform="translate(-16837.148 -20664.73)" fill="#efa106"/>
  </g>
</svg>
