<svg id="icon_preview" xmlns="http://www.w3.org/2000/svg" viewBox="0 0 24 24">
  <rect x="-0.07" y="-0.07" width="24" height="24" fill="none"/>
  <g>
    <path d="M11.88,12.63a2.6,2.6,0,1,0,2.57,2.62v0A2.59,2.59,0,0,0,11.88,12.63Zm-.1,3.85h0a1.3,1.3,0,0,1,.09-2.59,1.27,1.27,0,0,1,.94.4,1.35,1.35,0,0,1,.38,1A1.31,1.31,0,0,1,11.78,16.48Z"/>
    <path d="M14.35,1.38H4.67A2.29,2.29,0,0,0,2.25,3.49h0V20.37a2.27,2.27,0,0,0,2.41,2.11H19.19a2.28,2.28,0,0,0,2.42-2.11h0V7.71ZM11.88,19.21a6,6,0,0,1-5.57-4,6,6,0,0,1,5.57-4,6,6,0,0,1,5.57,4A6,6,0,0,1,11.88,19.21Zm8.49-10H13V2.64h1l6.37,5.6Z"/>
  </g>
</svg>
