<svg id="icon_move-object" xmlns="http://www.w3.org/2000/svg" width="100" height="100" viewBox="0 0 100 100">
  <rect id="shape" width="99.985" height="99.985" transform="translate(0)" fill="none"/>
  <path id="Path_6451" data-name="Path 6451" d="M-3.111,1261.109-20.42,1243.78l-6.559,6.558,7.63,7.631,1.764,1.764H-47.121V1230.2l1.764,1.757,7.645,7.622,6.552-6.552-17.315-17.292a4.582,4.582,0,0,0-3.279-1.363,4.587,4.587,0,0,0-3.272,1.356l-17.308,17.3,6.559,6.552,7.637-7.63,1.764-1.756v29.514H-85.913l1.764-1.757,7.608-7.63-6.552-6.56-17.286,17.324a4.593,4.593,0,0,0-1.363,3.265,4.586,4.586,0,0,0,1.348,3.272l17.3,17.322,6.552-6.551-7.623-7.638-1.764-1.763h29.522v29.529l-1.764-1.764-7.623-7.614-6.559,6.559,17.308,17.3a4.592,4.592,0,0,0,3.279,1.37,4.57,4.57,0,0,0,3.25-1.341l17.337-17.329-6.552-6.559-7.637,7.63-1.764,1.763v-29.543H-17.6l-1.756,1.763-7.623,7.644,6.559,6.551,17.308-17.308a4.571,4.571,0,0,0,1.355-3.264A4.6,4.6,0,0,0-3.111,1261.109Z" transform="translate(101.742 -1214.374)" fill="#181818"/>
</svg>
