<svg id="icon_recenter" xmlns="http://www.w3.org/2000/svg" width="100" height="100" viewBox="0 0 100 100">
  <rect id="shape" width="100" height="100" fill="none"/>
  <g id="recenter" transform="translate(-224.258 -618.633)">
    <g id="corners" transform="translate(234.258 628.633)">
      <path id="right_down" data-name="right down" d="M321.575,687.326a5.187,5.187,0,0,0-5.146,5.16v15.642a2.6,2.6,0,0,1-2.594,2.6H298.4a5.353,5.353,0,0,0-5.366,4.295,5.165,5.165,0,0,0,5.09,6.029h23.389a5.188,5.188,0,0,0,5.159-5.16v-23.4a5.05,5.05,0,0,0-4.938-5.159C321.682,687.326,321.628,687.325,321.575,687.326Z" transform="translate(-246.674 -641.046)"/>
      <path id="left_down" data-name="left down" d="M262.634,710.722H247.277a2.6,2.6,0,0,1-2.594-2.6V692.762a5.353,5.353,0,0,0-4.294-5.367,5.163,5.163,0,0,0-6.026,5.091v23.4a5.187,5.187,0,0,0,5.158,5.163h23.389A5.165,5.165,0,0,0,268,715.017,5.352,5.352,0,0,0,262.634,710.722Z" transform="translate(-234.277 -641.046)"/>
      <path id="left_up" data-name="left up" d="M262.894,628.633H239.4a5.186,5.186,0,0,0-5.146,5.16v23.179a5.285,5.285,0,0,0,3.478,5.114,5.178,5.178,0,0,0,6.842-4.9V641.637a2.6,2.6,0,0,1,2.594-2.6h15.637a5.206,5.206,0,0,0,.085-10.409Z" transform="translate(-234.258 -628.633)"/>
      <path id="rght_up" data-name="rght up" d="M321.566,628.633H298.352a5.352,5.352,0,0,0-5.365,4.295,5.164,5.164,0,0,0,5.089,6.028h15.637a2.594,2.594,0,0,1,2.593,2.6v15.365a5.354,5.354,0,0,0,4.294,5.367,5.164,5.164,0,0,0,6.027-5.09v-23.4a5.05,5.05,0,0,0-4.938-5.159Z" transform="translate(-246.665 -628.633)"/>
    </g>
    <path id="shape-2" data-name="shape" d="M267.637,647.324a14.694,14.694,0,1,1-14.694,14.694h0A14.694,14.694,0,0,1,267.637,647.324Z" transform="translate(-3.914 -3.915)"/>
    <path id="arrow" d="M310.285,704.289l-3.23-13.108a1.334,1.334,0,0,0-2.234-.614l-2,1.983a1.346,1.346,0,0,1-1.89,0c-3.761-3.726-7.65-7.241-10.645-10.1s-6.234,1.05-3.289,4.109,5.8,6.084,9.9,10.143a1.316,1.316,0,0,1,0,1.872l-1.993,1.975a1.317,1.317,0,0,0,.007,1.875,1.336,1.336,0,0,0,.622.347l13.136,3.14a1.353,1.353,0,0,0,1.624-1A1.317,1.317,0,0,0,310.285,704.289Z" transform="translate(-10.679 -10.943)"/>
  </g>
</svg>
