<svg id="icon_calendar:day_selection" xmlns="http://www.w3.org/2000/svg" width="100" height="100" viewBox="0 0 100 100">
  <path id="calendar:day_selection" d="M-4076.427-600.117a5.634,5.634,0,0,1-5.779-5.474V-664.75a5.631,5.631,0,0,1,5.779-5.474h6.554v4a9.11,9.11,0,0,0,9.335,8.842,9.107,9.107,0,0,0,9.332-8.842v-4h12v4a9.106,9.106,0,0,0,9.331,8.842,9.1,9.1,0,0,0,9.332-8.842v-4h6.558a5.628,5.628,0,0,1,5.776,5.474v59.158a5.631,5.631,0,0,1-5.776,5.474Zm43.027-18.608a6.606,6.606,0,0,0,6.779,6.42,6.608,6.608,0,0,0,6.778-6.42,6.606,6.606,0,0,0-6.778-6.42A6.6,6.6,0,0,0-4033.4-618.726Zm-19.112,0a6.608,6.608,0,0,0,6.779,6.42,6.608,6.608,0,0,0,6.778-6.42,6.605,6.605,0,0,0-6.778-6.42A6.606,6.606,0,0,0-4052.512-618.726Zm-19.111,0a6.608,6.608,0,0,0,6.778,6.42,6.608,6.608,0,0,0,6.778-6.42,6.606,6.606,0,0,0-6.778-6.42A6.605,6.605,0,0,0-4071.623-618.726Zm38.223-18.946a6.606,6.606,0,0,0,6.779,6.42,6.608,6.608,0,0,0,6.778-6.42,6.609,6.609,0,0,0-6.778-6.423A6.607,6.607,0,0,0-4033.4-637.672Zm-19.112,0a6.608,6.608,0,0,0,6.779,6.42,6.608,6.608,0,0,0,6.778-6.42,6.608,6.608,0,0,0-6.778-6.423A6.609,6.609,0,0,0-4052.512-637.672Zm-19.111,0a6.608,6.608,0,0,0,6.778,6.42,6.608,6.608,0,0,0,6.778-6.42,6.609,6.609,0,0,0-6.778-6.423A6.608,6.608,0,0,0-4071.623-637.672Zm40.445,18.946a4.438,4.438,0,0,1,4.552-4.316,4.439,4.439,0,0,1,4.556,4.316,4.439,4.439,0,0,1-4.556,4.317A4.438,4.438,0,0,1-4031.177-618.726Zm-19.112,0a4.441,4.441,0,0,1,4.556-4.316,4.441,4.441,0,0,1,4.555,4.316,4.441,4.441,0,0,1-4.555,4.317A4.441,4.441,0,0,1-4050.289-618.726Zm-19.112,0a4.441,4.441,0,0,1,4.556-4.316,4.441,4.441,0,0,1,4.555,4.316,4.441,4.441,0,0,1-4.555,4.317A4.441,4.441,0,0,1-4069.4-618.726Zm38.223-18.946a4.439,4.439,0,0,1,4.552-4.317,4.439,4.439,0,0,1,4.556,4.317,4.439,4.439,0,0,1-4.556,4.317A4.439,4.439,0,0,1-4031.177-637.672Zm-38.223,0a4.441,4.441,0,0,1,4.556-4.317,4.441,4.441,0,0,1,4.555,4.317,4.441,4.441,0,0,1-4.555,4.317A4.441,4.441,0,0,1-4069.4-637.672Zm34.64-28.553v-9.261a4.765,4.765,0,0,1,4.889-4.631,4.764,4.764,0,0,1,4.887,4.631v9.261a4.767,4.767,0,0,1-4.887,4.634A4.768,4.768,0,0,1-4034.761-666.225Zm-30.666,0v-9.261a4.763,4.763,0,0,1,4.886-4.631,4.765,4.765,0,0,1,4.89,4.631v9.261a4.768,4.768,0,0,1-4.89,4.634A4.766,4.766,0,0,1-4065.427-666.225Z" transform="translate(4095.206 690.117)"/>
  <rect id="shape" width="100" height="100" fill="none"/>
</svg>
