<svg xmlns="http://www.w3.org/2000/svg" width="24" height="24" viewBox="0 0 24 24">
  <g id="icon_external_side" transform="translate(-20 -448)">
    <rect id="bg" width="24" height="24" transform="translate(20 448)" fill="none"/>
    <g id="svg-fill-c_scale_12">
      <path id="svg-fill-c_scale_12-2" data-name="svg-fill-c_scale_12" d="M20.958,3.4,3.98,0a.329.329,0,0,0-.316.339V5.266L5.419,3.577l.2-.2V2.889a.329.329,0,0,1,.315-.34h0L11.174,3.6a.329.329,0,0,1,.317.34v4.57a.329.329,0,0,1-.317.339L9.707,8.554l.249.231a1.013,1.013,0,0,1,.2,1.057.818.818,0,0,1-.415.461l.672.549.763.153a.329.329,0,0,1,.317.338h0v3.169l.3.32a1.188,1.188,0,0,1,.207,1.2.811.811,0,0,1-.748.56H6.935v.79l14.023,2.744a.329.329,0,0,0,.317-.339V3.744a.329.329,0,0,0-.317-.34m-1.64,14.114a.329.329,0,0,1-.317.34l-5.237-1.05a.329.329,0,0,1-.316-.339V11.9a.329.329,0,0,1,.315-.34h0L19,12.606a.329.329,0,0,1,.317.34Zm0-7.352A.329.329,0,0,1,19,10.5l-5.237-1.05a.329.329,0,0,1-.316-.339V4.543a.329.329,0,0,1,.315-.34h0L19,5.253a.329.329,0,0,1,.317.34Z" transform="translate(21.323 449.936)" fill="#181818"/>
    </g>
    <g id="svg-fill-primary">
      <path id="svg-fill-primary-2" data-name="svg-fill-primary" d="M11.147,14.955,8.638,12.261h1.82c.19,0,.25-.4.125-.539L7.949,9.568H9.265c.191,0,.25-.336.125-.471L7.01,6.876h1c.125,0,.191-.27.063-.41L5.7,4.179h-.13L3.186,6.466c-.125.136-.063.41.062.41h1L1.932,9.165a.247.247,0,0,0-.008.332.212.212,0,0,0,.133.071H3.374L.74,11.723c-.19.2-.125.539.064.539H2.621L.111,14.955c-.19.2-.125.673.126.673H5v1.749a.282.282,0,0,0,.251.27h.751a.282.282,0,0,0,.251-.27v-1.75h4.765c.25,0,.314-.472.125-.672" transform="translate(21.402 450.146)" fill="#1080b0"/>
    </g>
  </g>
</svg>
