<svg xmlns="http://www.w3.org/2000/svg" width="22" height="22" viewBox="0 0 22 22">
  <g id="center_rigth" data-name="center rigth" transform="translate(0.999 0.499)">
    <rect id="shape" width="22" height="22" transform="translate(-0.999 -0.499)" fill="none"/>
    <path id="center_rigth-2" data-name="center rigth" d="M9.882,20a1.874,1.874,0,0,1-1.714-2V4H2.5a1.874,1.874,0,0,1-2-1.715V1.714A1.873,1.873,0,0,1,2.5,0h16a1.873,1.873,0,0,1,2,1.714v.571A1.874,1.874,0,0,1,18.5,4H12.168V18a1.874,1.874,0,0,1-1.715,2Z" transform="translate(21) rotate(90)" fill="#d4d4d4"/>
  </g>
</svg>
