<svg id="icon_security" xmlns="http://www.w3.org/2000/svg" width="100" height="100" viewBox="0 0 100 100">
  <rect id="shape" width="100" height="100" fill="none"/>
  <path id="security" d="M-4382.606,2806.174a17.545,17.545,0,0,1,3.15,1.865c10.845,10.261,23.8,16.424,38.174,19.911,3.106.753,3.542,1.591,3.455,5.329a82.564,82.564,0,0,1-6.919,31.538,66.1,66.1,0,0,1-36.024,35.529,6.451,6.451,0,0,1-4.576-.178c-17.138-7.484-28.9-20.208-35.976-37.4a95.453,95.453,0,0,1-6.605-30.5c-.158-2.473,1.417-3.449,3.51-4.139,5.826-1.923,11.723-3.685,17.381-6.012,7.818-3.214,14.582-8.187,20.949-13.706A29.033,29.033,0,0,1-4382.606,2806.174Zm-5.626,56.395c0,1.769-.014,3.536,0,5.305.032,3.743,2.368,6.262,5.842,6.315,3.558.055,6.057-2.5,6.11-6.331.044-3.459.078-6.921-.021-10.377a4.753,4.753,0,0,1,1.651-3.766c5.461-5.62,5.058-13.233-.784-17.686a11.8,11.8,0,0,0-15.192,1.065c-4.065,4.27-4.551,11.385-.172,15.648,2.527,2.463,2.625,4.872,2.563,7.75C-4388.247,2861.183-4388.233,2861.876-4388.233,2862.568Z" transform="translate(4433.264 -2803.174)" fill="#181818"/>
</svg>
