<svg id="icon_eye:closed" xmlns="http://www.w3.org/2000/svg" width="16" height="16" viewBox="0 0 16 16">
  <rect id="shape" width="16" height="16" fill="none"/>
  <path id="closed_eye" d="M49.573,304.739l-.889-.152c-.116.392-.228.786-.349,1.178a3.444,3.444,0,0,1-.246.684.963.963,0,0,1-1.278.4.98.98,0,0,1-.508-1.2q.225-.788.469-1.571c.029-.095.009-.131-.075-.169-.209-.095-.413-.2-.632-.306-.027.042-.055.083-.081.127-.2.34-.387.687-.6,1.019a.986.986,0,0,1-1.633.074.958.958,0,0,1-.043-1.121c.235-.405.472-.81.715-1.227-.067-.063-.136-.123-.2-.189-.327-.335-.663-.662-.975-1.011a.875.875,0,0,1,1.328-1.141,8.171,8.171,0,0,0,3.8,2.546,6.888,6.888,0,0,0,3.481.218,8.135,8.135,0,0,0,4.279-2.324c.142-.143.266-.3.4-.45a.885.885,0,0,1,1.228-.079.873.873,0,0,1,.079,1.247c-.366.407-.753.8-1.145,1.208.19.325.4.674.6,1.026a2.331,2.331,0,0,1,.206.413A.966.966,0,0,1,57,305.116a.992.992,0,0,1-1.238-.327c-.222-.341-.418-.7-.626-1.051-.026-.044-.053-.087-.083-.136l-.74.361.142.488c.129.444.276.884.38,1.334a.89.89,0,0,1-.408.986.944.944,0,0,1-1.036.039,1.025,1.025,0,0,1-.493-.655c-.154-.519-.308-1.038-.464-1.566l-.889.151v.147c0,.633,0,1.266,0,1.9a.986.986,0,0,1-1.326.942.954.954,0,0,1-.639-.847c-.012-.656-.006-1.313-.008-1.97C49.573,304.855,49.573,304.8,49.573,304.739Z" transform="translate(-42.56 -292.601)" fill="#d4d4d4"/>
</svg>
