<svg xmlns="http://www.w3.org/2000/svg" width="100" height="100" viewBox="0 0 100 100">
  <g id="icon_attributes" transform="translate(-3980 -8628)">
    <rect id="shape" width="100" height="100" transform="translate(3980 8628)" fill="none"/>
    <path id="attributes" d="M110.59-777.321,82.3-805.872a7.9,7.9,0,0,1-1.725-2.553,7.531,7.531,0,0,1-.575-2.9,7.531,7.531,0,0,1,.575-2.9,7.9,7.9,0,0,1,1.725-2.553l26.45-26.578-8.625-8.7a5.147,5.147,0,0,1-1.553-3.6,5.11,5.11,0,0,1,1.438-3.714A4.8,4.8,0,0,1,103.69-861a5.168,5.168,0,0,1,3.795,1.625l42.205,42.594a7.161,7.161,0,0,1,1.667,2.553,8.263,8.263,0,0,1,.517,2.9,8.263,8.263,0,0,1-.517,2.9,7.161,7.161,0,0,1-1.667,2.553L121.4-777.321a7.823,7.823,0,0,1-2.53,1.741A7.344,7.344,0,0,1,116-775a7.344,7.344,0,0,1-2.875-.58A7.823,7.823,0,0,1,110.59-777.321Zm5.4-58.726-24.61,24.837H140.6ZM161.88-775a9.408,9.408,0,0,1-7.015-2.96,10.014,10.014,0,0,1-2.875-7.254,11.973,11.973,0,0,1,1.553-5.919,52.444,52.444,0,0,1,3.507-5.455l2.185-2.785a3.481,3.481,0,0,1,2.7-1.335,3.16,3.16,0,0,1,2.7,1.219l2.3,2.9q1.84,2.669,3.45,5.455a11.642,11.642,0,0,1,1.61,5.919,9.813,9.813,0,0,1-2.99,7.254A9.784,9.784,0,0,1,161.88-775Z" transform="translate(3904 9496)"/>
  </g>
</svg>
