<svg id="icon_shopping-cart" xmlns="http://www.w3.org/2000/svg" width="100" height="100" viewBox="0 0 100 100">
  <rect id="shape" width="100" height="100" fill="none"/>
  <path id="bag" d="M-2511.2-5803.618c3.467,0,6.807,0,10.148,0,3.868,0,5.4,1.527,5.067,5.408-.42,4.9-1.034,9.785-1.559,14.677-.673,6.275-1.3,12.555-2.022,18.825-.714,6.216-1.377,12.444-2.331,18.626-.678,4.391-3.219,7.836-6.575,10.7-4,3.417-8.751,4.616-13.875,4.635-8.943.034-17.885-.01-26.828.015-6.63.019-12.313-2.046-16.734-7.168a20.234,20.234,0,0,1-4.678-11.25c-1.294-11.356-2.454-22.729-3.676-34.093-.531-4.942-1.105-9.879-1.618-14.823-.4-3.846,1.193-5.553,5.1-5.556,2.9,0,5.8-.048,8.692.023,1.1.027,1.61-.289,1.8-1.41a23.535,23.535,0,0,1,9.623-15.247,22.877,22.877,0,0,1,11.472-4.3,27.906,27.906,0,0,1,11.667,1.106,23.085,23.085,0,0,1,11.734,8.565A25.043,25.043,0,0,1-2511.2-5803.618Zm-8.345-.126c-.945-6.376-6.33-13.128-17.542-13.033-8.84.075-14.83,7.658-15.159,13.033Z" transform="translate(2585.944 5827.727)"/>
</svg>
