<svg xmlns="http://www.w3.org/2000/svg" width="24" height="24" viewBox="0 0 24 24">
  <g id="icon_inset" transform="translate(-6 -5)">
    <rect id="shape" width="24" height="24" transform="translate(6 5)" fill="none"/>
    <g id="inset">
      <path id="shape-2" data-name="shape" d="M16932.717,20802.549l-8.469-4.887a.5.5,0,0,1-.246-.434v-9.82a.509.509,0,0,1,.246-.434l8.5-4.908a.522.522,0,0,1,.246-.066.537.537,0,0,1,.25.066l8.5,4.908a.5.5,0,0,1,.25.434v9.82a.5.5,0,0,1-.25.434l-8.395,4.85a.424.424,0,0,1-.168.094l-.025.01a.493.493,0,0,1-.156.025A.488.488,0,0,1,16932.717,20802.549Zm-.225-1.287v-8.664l-7.492-4.322v8.666Zm1.039-8.664v8.654l7.471-4.311v-8.656Zm-.523-.854,7.5-4.33-7.51-4.334-7.5,4.33Z" transform="translate(-16915 -20775.32)" fill="#737376"/>
      <path id="svg-fill-primary" d="M7.129,7.161l4.808,2.776a.127.127,0,0,0,.125,0l4.809-2.776a.126.126,0,0,0,0-.218L12.314,4.31a.631.631,0,0,0-.629,0L7.129,6.943a.126.126,0,0,0,0,.218" transform="translate(6 5)" fill="#efa106"/>
    </g>
  </g>
</svg>
