<svg xmlns="http://www.w3.org/2000/svg" width="24" height="24" viewBox="0 0 24 24">
  <g id="icon_cylinder" transform="translate(6)">
    <rect id="shape" width="24" height="24" transform="translate(-6)" fill="none"/>
    <path id="cylinder" d="M8,0C6.664,0,0,.119,0,2.455v12.7a.774.774,0,0,0,.2.513C1.686,17.367,5.806,18,8.052,18c2.3,0,6.356-.741,7.75-2.333a.774.774,0,0,0,.2-.513V2.455C16,.119,9.336,0,8,0M8,1.636a16.736,16.736,0,0,1,5.98.818A16.736,16.736,0,0,1,8,3.273a16.746,16.746,0,0,1-5.98-.818A16.746,16.746,0,0,1,8,1.636m.052,14.727c-2.2,0-5.174-.621-6.275-1.535V4.124A22.382,22.382,0,0,0,8,4.909a22.382,22.382,0,0,0,6.222-.785v10.7c-1.012.813-3.849,1.538-6.17,1.538" transform="translate(-2 3)" fill="#161615"/>
  </g>
</svg>
