<svg id="icon" xmlns="http://www.w3.org/2000/svg" width="74" height="100" viewBox="0 0 74 100">
  <path id="background" d="M12.881.61H45.963L74,30.145V87.591A12.937,12.937,0,0,1,61.143,100.61H12.881A12.942,12.942,0,0,1,0,87.591V13.629A12.942,12.942,0,0,1,12.881.61Z" transform="translate(0 -0.61)" fill="#e8e8e8" fill-rule="evenodd"/>
  <path id="fold" d="M237.139.61V29.92H265.2Z" transform="translate(-191.201 -0.61)" fill="#e5252a" fill-rule="evenodd" opacity="0.3"/>
  <path id="icon-2" data-name="icon" d="M73.9,312.224V288.418h8.921A6.884,6.884,0,0,1,88.1,290.5a8.733,8.733,0,0,1,0,11.072,6.884,6.884,0,0,1-5.278,2.084H79.262v8.565Zm5.364-13.743h2.954a2.44,2.44,0,0,0,1.864-.651,2.761,2.761,0,0,0,0-3.582,2.44,2.44,0,0,0-1.864-.651H79.262Zm13.022,13.743V288.418h7.429a11.565,11.565,0,0,1,4.13.716,10.747,10.747,0,0,1,3.5,2.117,9.327,9.327,0,0,1,2.467,3.713,16.583,16.583,0,0,1,0,10.714,9.327,9.327,0,0,1-2.467,3.713,10.744,10.744,0,0,1-3.5,2.117,11.567,11.567,0,0,1-4.13.716Zm5.249-5.178h1.549a7.637,7.637,0,0,0,2.323-.326,6.634,6.634,0,0,0,1.979-1.075,4.783,4.783,0,0,0,1.434-2.084,10.428,10.428,0,0,0,0-6.481A4.783,4.783,0,0,0,103.385,295a6.634,6.634,0,0,0-1.979-1.075,7.635,7.635,0,0,0-2.323-.326H97.533Zm15.862,5.178V288.418h14.915V293.6h-9.551v3.81h7.63v5.145h-7.63v9.672H113.4Z" transform="translate(-64.104 -227.321)" fill="#e5252a"/>
</svg>
