<svg id="category_black_24dp_5_" data-name="category_black_24dp (5)" xmlns="http://www.w3.org/2000/svg" width="16" height="16" viewBox="0 0 16 16">
  <path id="Path_24179" data-name="Path 24179" d="M0,0H16V16H0Z" fill="none"/>
  <path id="Path_24180" data-name="Path 24180" d="M9.86,3.24,7.38,7.293a.665.665,0,0,0,.567,1.013H12.9a.665.665,0,0,0,.567-1.013L10.993,3.24a.662.662,0,0,0-1.133,0Z" transform="translate(-2.427 -0.973)" fill="#efa106"/>
  <circle id="Ellipse_49" data-name="Ellipse 49" cx="3" cy="3" r="3" transform="translate(8.667 8.667)" fill="#efa106"/>
  <path id="Path_24181" data-name="Path 24181" d="M3.667,18.833h4a.669.669,0,0,0,.667-.667v-4a.669.669,0,0,0-.667-.667h-4A.669.669,0,0,0,3,14.167v4A.669.669,0,0,0,3.667,18.833Z" transform="translate(-1 -4.5)" fill="#efa106"/>
</svg>
