<svg id="icon_people" xmlns="http://www.w3.org/2000/svg" width="100" height="100" viewBox="0 0 100 100">
  <rect id="shape" width="100" height="100" fill="none"/>
  <path id="people" d="M1518.349-1410.419a51.1,51.1,0,0,1-27.989-8.352,45.268,45.268,0,0,1-9.4-7.806c-.225-.245-.452-.487-.672-.737a2.664,2.664,0,0,1-.611-1.628c.156-8.9,6.962-17.322,16-19.666a27.435,27.435,0,0,1,6.33-.741h.035c2.346-.041,4.694-.052,7.043-.052q3.046,0,6.091.014,1.817.006,3.633.008v.044q1.471,0,2.942-.009c2.815-.015,5.632-.046,8.447-.046,2.379,0,4.757.022,7.136.094a21.585,21.585,0,0,1,20.591,20.554,2.08,2.08,0,0,1-.587,1.364l-.065.07a51.1,51.1,0,0,1-32.768,16.559,56.584,56.584,0,0,1-6.072.333Zm-48.444-24.652a2.047,2.047,0,0,1-.468-1.248c.12-6.816,5.334-13.27,12.261-15.066a21.026,21.026,0,0,1,4.876-.568c3.645-.062,7.3-.037,10.947-.026q-1.271.19-2.522.486l-.029.007-.029.007a24.779,24.779,0,0,0-12.882,8.372,23.268,23.268,0,0,0-5.329,14A34.677,34.677,0,0,1,1469.9-1435.071Zm83.766-10.064a24.375,24.375,0,0,0-13.295-6.818c3.762-.025,7.525-.073,11.285.04a16.536,16.536,0,0,1,15.776,15.747,1.6,1.6,0,0,1-.449,1.045,39.325,39.325,0,0,1-6.167,5.53A24.6,24.6,0,0,0,1553.671-1445.135Zm-34.952-9.974a21.745,21.745,0,0,1-11.391-3.281,22.042,22.042,0,0,1-10.414-18.38,21.146,21.146,0,0,1,4.173-12.691,22.019,22.019,0,0,1,17.7-8.957h.014a22.011,22.011,0,0,1,17.649,8.907,21.2,21.2,0,0,1,4.229,12.733,21.876,21.876,0,0,1-10.785,18.587,21.591,21.591,0,0,1-11.081,3.082Zm18.682-1.255a16.8,16.8,0,0,1-4.1-.53,25.883,25.883,0,0,0,2.953-2.511,24.418,24.418,0,0,0,7.369-17.367,24.019,24.019,0,0,0-3.491-12.557,16.714,16.714,0,0,1,14.088,16.363,16.874,16.874,0,0,1-16.751,16.6Zm-38.051,0a16.841,16.841,0,0,1-16.706-16.6,16.688,16.688,0,0,1,14.861-16.474,24,24,0,0,0-3.542,12.678v.036a24.922,24.922,0,0,0,7.384,17.356,25.309,25.309,0,0,0,2.707,2.327,16.4,16.4,0,0,1-4.633.674Z" transform="translate(-1468.436 1504.419)" stroke="rgba(0,0,0,0)" stroke-miterlimit="10" stroke-width="1"/>
</svg>
