<svg id="icon_camera_indoor" xmlns="http://www.w3.org/2000/svg" width="24" height="24" viewBox="0 0 24 24">
  <rect id="shape" width="24" height="24" fill="none"/>
  <path id="camera_indoor" d="M10.8,3.65l-6,4.5A2.013,2.013,0,0,0,4,9.75v9a2.006,2.006,0,0,0,2,2H18a2.006,2.006,0,0,0,2-2v-9a2.013,2.013,0,0,0-.8-1.6l-6-4.5A2.01,2.01,0,0,0,10.8,3.65Zm4.47,12.02L14,15v1a1,1,0,0,1-1,1H9a1,1,0,0,1-1-1V12a1,1,0,0,1,1-1h4a1,1,0,0,1,1,1v1l1.27-.67a.494.494,0,0,1,.73.44v2.46A.494.494,0,0,1,15.27,15.67Z" fill="#181818"/>
</svg>
