<svg id="icon_cross" xmlns="http://www.w3.org/2000/svg" width="100" height="100"
  viewBox="0 0 100 100">
  <rect id="shape" width="100" height="100" fill="none" />
  <path id="cross"
    d="M-1927.6-3436.7l-25.122-25.122-25.122,25.122a4,4,0,0,1-5.656,0l-4.243-4.242a4,4,0,0,1,0-5.656l25.122-25.122-25.122-25.122a4,4,0,0,1,0-5.657l4.243-4.242a4,4,0,0,1,5.656,0l25.122,25.122,25.122-25.122a4,4,0,0,1,5.657,0l4.243,4.242a4,4,0,0,1,0,5.657l-25.122,25.122,25.122,25.122a4,4,0,0,1,0,5.656l-4.243,4.242a3.988,3.988,0,0,1-2.829,1.172A3.988,3.988,0,0,1-1927.6-3436.7Z"
    transform="translate(2002.917 3521.917)" />
</svg>