<svg xmlns="http://www.w3.org/2000/svg" width="24" height="24" viewBox="0 0 24 24">
  <g id="icon_torus" transform="translate(6)">
    <rect id="shape" width="24" height="24" transform="translate(-6)" fill="none"/>
    <path id="torus" d="M17573,18645c0-3.857,4.041-7,9-7s9,3.141,9,7-4.039,7-9,7S17573,18648.859,17573,18645Zm1.639,0c0,2.9,3.3,5.252,7.363,5.252s7.363-2.355,7.363-5.252-3.3-5.248-7.363-5.248S17574.637,18642.105,17574.637,18645Zm3.791-.393a.817.817,0,1,1,1.635,0c0,.5.828,1.066,1.938,1.066s1.938-.566,1.938-1.066a.819.819,0,1,1,1.639,0c0,1.516-1.572,2.7-3.576,2.7S17578.428,18646.121,17578.428,18644.605Z" transform="translate(-17576 -18633)" fill="#161615" stroke="rgba(0,0,0,0)" stroke-width="1"/>
  </g>
</svg>
