<svg id="icon_height" xmlns="http://www.w3.org/2000/svg" width="100" height="100" viewBox="0 0 100 100">
  <rect id="shape" width="100" height="100" fill="none"/>
  <path id="height" d="M308.487,457.612l-14.2-14.205a4.263,4.263,0,0,0-7.274,3.013v8.522H238.46V446.42a4.263,4.263,0,0,0-7.274-3.013l-14.2,14.205a4.26,4.26,0,0,0,0,6.025h0l14.2,14.2a4.264,4.264,0,0,0,7.274-3.015V466.3h48.549v8.522a4.264,4.264,0,0,0,7.274,3.015l14.2-14.2h0A4.26,4.26,0,0,0,308.487,457.612Z" transform="translate(510.623 -212.273) rotate(90)"/>
</svg>
