<svg id="icon_credit" xmlns="http://www.w3.org/2000/svg" width="100" height="100" viewBox="0 0 100 100">
  <rect id="shape" width="100" height="100" fill="none"/>
  <g id="icon" transform="translate(2.553 14.62)">
    <path id="shape-2" data-name="shape" d="M95.579,67.506v19.67c0,5.731.013,11.463,0,17.195-.011,3.789-1.73,5.583-5.453,5.585q-42.237.023-84.475,0C1.6,109.95,0,108.255,0,104.161q-.008-17.3,0-34.6V67.506Z" transform="translate(0 -39.208)"/>
    <path id="shape-3" data-name="shape" d="M95.477,18.951H.21C.21,13.88.055,8.877.279,3.89.384,1.567,2.177.273,4.545.048,5.238-.018,5.94,0,6.637,0Q47.794,0,88.95,0c5.481,0,6.723,1.262,6.719,6.823q0,5.761-.028,11.523a3.329,3.329,0,0,1-.165.6" transform="translate(-0.092)"/>
  </g>
</svg>
