<svg id="icon_j" xmlns="http://www.w3.org/2000/svg" width="100" height="100" viewBox="0 0 100 100">
  <rect id="shape" width="100" height="100" fill="none"/>
  <path id="AXIS" d="M-608.625-3379.742h-66a13.907,13.907,0,0,1-9.9-4.1,13.909,13.909,0,0,1-4.1-9.9v-66a13.908,13.908,0,0,1,4.1-9.9,13.908,13.908,0,0,1,9.9-4.1h66a13.908,13.908,0,0,1,9.9,4.1,13.908,13.908,0,0,1,4.1,9.9v66a13.909,13.909,0,0,1-4.1,9.9A13.907,13.907,0,0,1-608.625-3379.742Zm-48.883-39.356h0l-.057.17c-.094,3.815,1.04,6.764,3.371,8.765s5.512,3.016,9.459,3.016a12.876,12.876,0,0,0,9.076-3.243,11.42,11.42,0,0,0,3.5-8.765v-25.431l4.616-.793v-3.6h-14.811v3.6l4.616.793v25.431a7.834,7.834,0,0,1-1.954,5.565,6.633,6.633,0,0,1-5.041,2.082,7.577,7.577,0,0,1-5.48-1.883c-1.288-1.25-1.94-3.17-1.94-5.707Z" transform="translate(691.625 3476.741)" fill="#010101"/>
</svg>
