<svg id="icon_photoshop_extension" xmlns="http://www.w3.org/2000/svg" width="100" height="100" viewBox="0 0 100 100">
  <rect id="shape" width="100" height="100" fill="none"/>
  <g id="ps" transform="translate(13.006)">
    <path id="Path_19936" data-name="Path 19936" d="M12.881.61H45.963L74,30.145V87.591A12.937,12.937,0,0,1,61.143,100.61H12.881A12.942,12.942,0,0,1,0,87.591V13.629A12.942,12.942,0,0,1,12.881.61Z" transform="translate(0 -0.61)" fill="#169afc" fill-rule="evenodd"/>
    <path id="Path_19937" data-name="Path 19937" d="M237.139.61V29.92H265.2Z" transform="translate(-191.201 -0.61)" fill="rgba(255,255,255,0.3)" fill-rule="evenodd"/>
    <path id="Path_20034" data-name="Path 20034" d="M626.988,413.531h-8.7v23.221h5.228V428.4h3.473a6.715,6.715,0,0,0,5.142-2.033,8.517,8.517,0,0,0,0-10.8A6.709,6.709,0,0,0,626.988,413.531Zm1.234,9.18a2.387,2.387,0,0,1-1.824.635h-2.879l0-4.765c3.666,0,4.281.191,4.7.635A2.691,2.691,0,0,1,628.222,422.712Z" transform="translate(-597.293 -356.528)" fill="#fff" stroke="rgba(0,0,0,0)" stroke-width="1" fill-rule="evenodd"/>
    <path id="Path_20035" data-name="Path 20035" d="M638.08,423.628v-.02a9.534,9.534,0,0,1-2.167-1.015c-.118,0-.245-.247-.245-.554,0-.882,1.02-1,1.607-1a7.586,7.586,0,0,1,3.372.882.339.339,0,0,0,.275.02.282.282,0,0,0,.176-.216l.9-3.483a.3.3,0,0,0-.158-.353,11.223,11.223,0,0,0-4.725-.96c-4.079,0-6.92,2.314-6.92,5.626-.04,1.607.785,3.815,4.823,5.175,1.961.663,2.176,1,2.176,1.569,0,.255,0,1.058-1.843,1.058a9.549,9.549,0,0,1-4.195-1.2.336.336,0,0,0-.274-.02.282.282,0,0,0-.176.216l-.9,3.627a.3.3,0,0,0,.156.353,11.966,11.966,0,0,0,5.391,1.161c4.528,0,7.351-2.136,7.351-5.568C642.666,426.348,641.255,424.721,638.08,423.628Z" transform="translate(-589.712 -354.283)" fill="#fff" stroke="rgba(0,0,0,0)" stroke-width="1" fill-rule="evenodd"/>
  </g>
</svg>
