<svg id="icon_authentication" xmlns="http://www.w3.org/2000/svg" width="100" height="100" viewBox="0 0 100 100">
  <rect id="shape" width="100" height="100" fill="none"/>
  <path id="key" d="M657.939,259.781a8.171,8.171,0,0,0,.007,1.169c.682,4.678-1.512,8-4.962,10.784a1.876,1.876,0,0,1-2.907-.091,27.782,27.782,0,0,0-2.677-2.5,3.049,3.049,0,0,0-4.123.179,3.138,3.138,0,0,0-.649,3.955,19.45,19.45,0,0,0,2.5,2.871c1.3,1.369,1.34,2.028.033,3.384-1,1.043-2.036,2.061-3.071,3.074a1.774,1.774,0,0,1-2.783,0c-.8-.777-1.542-1.616-2.389-2.334a3.319,3.319,0,0,0-4.548-.065,3.445,3.445,0,0,0-.288,4.56,24.771,24.771,0,0,0,2.4,2.549,1.8,1.8,0,0,1,.026,2.9c-1.066,1.062-2.134,2.12-3.187,3.195a1.83,1.83,0,0,1-3.012-.065c-.611-.648-1.233-1.29-1.892-1.888a3.6,3.6,0,0,0-5.1-.193c-1.274,1.234-1.145,3.334.33,4.94.6.656,1.239,1.282,1.886,1.894,1.134,1.073,1.046,2.091-.032,3.152-1.866,1.837-3.671,3.736-5.571,5.536a1.977,1.977,0,0,0-.606,2.328,27.163,27.163,0,0,1-26.274,35.406,26.837,26.837,0,0,1-24.859-17.192c-4.023-10.606-2.23-20.485,5.677-28.775,7.6-7.968,16.979-10.143,27.526-7.274a2.4,2.4,0,0,0,2.741-.732q18.679-18.781,37.393-37.526a6.966,6.966,0,0,1,5.163-2.257c2.838-.026,5.674-.187,8.512-.241a4.639,4.639,0,0,1,4.912,4.925c-.012,1.448,0,2.9,0,4.345Zm-72.388,70.975a7.556,7.556,0,0,0,7.588-7.643,7.756,7.756,0,0,0-7.614-7.53,7.58,7.58,0,0,0-7.544,7.713A7.481,7.481,0,0,0,585.551,330.756Z" transform="translate(-561.117 -247.51)"/>
</svg>
