<svg id="icon_f" xmlns="http://www.w3.org/2000/svg" width="100" height="100" viewBox="0 0 100 100">
  <rect id="shape" width="100" height="100" fill="none"/>
  <path id="AXIS" d="M-608.625-3379.742h-66a13.907,13.907,0,0,1-9.9-4.1,13.909,13.909,0,0,1-4.1-9.9v-66a13.908,13.908,0,0,1,4.1-9.9,13.908,13.908,0,0,1,9.9-4.1h66a13.908,13.908,0,0,1,9.9,4.1,13.908,13.908,0,0,1,4.1,9.9v66a13.909,13.909,0,0,1-4.1,9.9A13.907,13.907,0,0,1-608.625-3379.742Zm-50.016-69.234v3.6l4.616.793v32.484l-4.616.793v3.567h14.812v-3.567l-4.617-.793v-13.877H-632.5v-4.39h-15.944v-14.216h16.455l.453,5.522h4.758v-9.913Z" transform="translate(691.625 3476.741)" fill="#010101"/>
</svg>
