<svg id="icon_d" xmlns="http://www.w3.org/2000/svg" width="100" height="100" viewBox="0 0 100 100">
  <rect id="shape" width="100" height="100" fill="none"/>
  <path id="AXIS" d="M-608.625-3379.742h-66a13.907,13.907,0,0,1-9.9-4.1,13.909,13.909,0,0,1-4.1-9.9v-66a13.908,13.908,0,0,1,4.1-9.9,13.908,13.908,0,0,1,9.9-4.1h66a13.908,13.908,0,0,1,9.9,4.1,13.908,13.908,0,0,1,4.1,9.9v66a13.909,13.909,0,0,1-4.1,9.9A13.907,13.907,0,0,1-608.625-3379.742Zm-49.99-69.234v3.6l4.616.793v32.484l-4.616.793v3.567h17.276c5.356,0,9.725-1.663,12.985-4.942a17.5,17.5,0,0,0,4.913-12.843v-5.636a17.568,17.568,0,0,0-4.913-12.843c-3.261-3.3-7.63-4.971-12.985-4.971h-17.276Zm17.276,36.874h-7.08v-32.484h7.08a13.233,13.233,0,0,1,5.115.941,10.579,10.579,0,0,1,3.9,2.825,14.1,14.1,0,0,1,3.3,9.6v5.692a14.183,14.183,0,0,1-3.3,9.657,10.584,10.584,0,0,1-3.9,2.825A13.227,13.227,0,0,1-641.339-3412.1Z" transform="translate(691.625 3476.741)" fill="#010101"/>
</svg>
