<svg id="icon_associations" data-name="Group 14706" xmlns="http://www.w3.org/2000/svg" xmlns:xlink="http://www.w3.org/1999/xlink" width="20" height="20" viewBox="0 0 20 20">
  <g id="Group_14705" data-name="Group 14705" clip-path="url(#clip-path)">
    <path id="Path_22033" data-name="Path 22033" d="M19.546,13.037h0a2.967,2.967,0,0,0-5.612-.111A2.7,2.7,0,0,1,11.8,10.312V4.967l1,1a.96.96,0,0,0,1.354,0,.942.942,0,0,0,0-1.326L11.54,2.014A1,1,0,0,0,10.182,2L7.549,4.613A.958.958,0,0,0,8.9,5.968l.984-.984v5.327a2.688,2.688,0,0,1-2.116,2.617,2.975,2.975,0,1,0,.038,1.931,4.577,4.577,0,0,0,2.28-1v1.524a2.371,2.371,0,0,0-.074,4.47v.007h.018a2.366,2.366,0,1,0,1.635-4.44v-.006H11.65c-.019-.008-.039-.011-.057-.018V13.845a4.575,4.575,0,0,0,2.3,1.014,2.968,2.968,0,0,0,5.649-1.822m-13.482.912A1.058,1.058,0,1,1,5.005,12.89a1.058,1.058,0,0,1,1.059,1.059ZM11.615,17.3a.891.891,0,0,1,.043.2h0a.979.979,0,0,1,.025.126v.009a.841.841,0,0,1-.841.834.823.823,0,0,1-.73-.443.718.718,0,0,1-.04-.061.788.788,0,0,1-.043-.2A.688.688,0,0,1,10,17.643v-.009a.839.839,0,0,1,.841-.833.82.82,0,0,1,.729.442.731.731,0,0,1,.041.061m5.091-2.3a1.057,1.057,0,0,1-1.058-1.058,1.046,1.046,0,0,1,1.034-1.058h.024a1.058,1.058,0,0,1,0,2.116" transform="translate(-0.845 -0.873)" />
  </g>
</svg>