<svg id="icon_content_link" xmlns="http://www.w3.org/2000/svg" width="20" height="20" viewBox="0 0 20 20">
  <g id="Group_5610" data-name="Group 5610" transform="translate(2.496 6)">
    <g id="Group_5608" data-name="Group 5608">
      <path id="Path_20156" data-name="Path 20156" d="M14,7H11.6a.834.834,0,0,0,0,1.667H14a2.5,2.5,0,0,1,0,5H11.6a.834.834,0,0,0,0,1.667H14a4.087,4.087,0,0,0,4-4.167A4.087,4.087,0,0,0,14,7ZM6.8,11.167A.82.82,0,0,0,7.6,12h4.8a.834.834,0,0,0,0-1.667H7.6A.82.82,0,0,0,6.8,11.167Zm1.6,2.5H6a2.5,2.5,0,0,1,0-5H8.4A.834.834,0,0,0,8.4,7H6a4.087,4.087,0,0,0-4,4.167,4.087,4.087,0,0,0,4,4.167H8.4a.834.834,0,0,0,0-1.667Z" transform="translate(-2 -7)" />
    </g>
  </g>
</svg>