<svg id="icon_qrcode" xmlns="http://www.w3.org/2000/svg" width="100" height="100" viewBox="0 0 100 100">
  <rect id="shape" width="100" height="100" fill="none"/>
  <path id="qrcode" d="M353.8-1352.192c.063-2.008.056-4.019,0-6.027-.02-.747.221-.917.932-.915,7.267.024,14.533.015,21.8.015h1.07v-23.78h7.841v31.59c-.312.015-.581.04-.848.04q-14.9,0-29.809.015h-.021C354.068-1351.253,353.777-1351.392,353.8-1352.192Zm-66.353.87v-31.587h7.776v23.789h1.149c7.266,0,14.533.012,21.8-.016.743,0,.93.208.913.927-.049,2.008-.016,4.018-.019,6.028,0,.268-.023.537-.038.859Zm15.69-15.688v-23.255H326.4v23.255Zm7.883-7.868h7.558v-7.515h-7.558Zm21.547,7.86v-29.333H303.156v-7.825h37.219v29.31h29.359v7.848ZM361.95-1382.5v-13.789h-7.619v13.778h-7.853v-21.658h23.286v21.669Zm-15.459-27.855v-23.267h23.257v23.267Zm7.832-7.835h7.54v-7.547h-7.54Zm-51.181,7.835v-23.255h23.24v23.255ZM311-1418.2h7.558v-7.54H311Zm21.556,7.837v-23.238h7.778v23.238Zm-45.1-7.366v-31.587h31.551v7.822h-.932c-7.264,0-14.529.013-21.795-.018-.825,0-1.074.206-1.07,1.054.033,7.266.019,14.53.019,21.794v.934Zm90.167-.01v-1.021c0-7.237-.016-14.474.022-21.712.005-.867-.255-1.043-1.066-1.039-7.21.028-14.42.016-21.63.016h-1.089v-7.819h31.581v31.574Z" transform="translate(-286.448 1450.321)" fill="#181818"/>
</svg>
