<svg id="icon_7" xmlns="http://www.w3.org/2000/svg" width="100" height="100" viewBox="0 0 100 100">
  <rect id="shape" width="100" height="100" fill="none"/>
  <path id="AXIS" d="M-608.625-3379.742h-66a13.907,13.907,0,0,1-9.9-4.1,13.909,13.909,0,0,1-4.1-9.9v-66a13.908,13.908,0,0,1,4.1-9.9,13.908,13.908,0,0,1,9.9-4.1h66a13.908,13.908,0,0,1,9.9,4.1,13.908,13.908,0,0,1,4.1,9.9v66a13.909,13.909,0,0,1-4.1,9.9A13.907,13.907,0,0,1-608.625-3379.742Zm-42.638-64.844h17.218a67.5,67.5,0,0,0-9.373,14.981,60.831,60.831,0,0,0-4.616,17.417l-.454,4.446h5.579l.454-4.446a70.659,70.659,0,0,1,3.781-16.638c1.738-4.557,5.135-9.86,10.1-15.76v-4.39h-27.868v9.12h4.758l.425-4.729Z" transform="translate(691.625 3476.741)" fill="#010101"/>
</svg>
