<svg width="24" height="24" viewBox="0 0 24 24" fill="none" xmlns="http://www.w3.org/2000/svg">
<path d="M19.9499 17.15L18.4499 15.65C18.6332 15.2 18.7707 14.7542 18.8624 14.3125C18.9541 13.8708 18.9999 13.4333 18.9999 13C18.9999 11.0667 18.3166 9.41667 16.9499 8.05C15.5832 6.68333 13.9332 6 11.9999 6C11.5999 6 11.1749 6.04167 10.7249 6.125C10.2749 6.20833 9.80824 6.34167 9.3249 6.525L7.8249 5.025C8.45824 4.69167 9.12907 4.4375 9.8374 4.2625C10.5457 4.0875 11.2666 4 11.9999 4C12.9999 4 13.9791 4.16667 14.9374 4.5C15.8957 4.83333 16.7999 5.31667 17.6499 5.95L19.0499 4.55L20.4499 5.95L19.0499 7.35C19.6832 8.2 20.1666 9.10417 20.4999 10.0625C20.8332 11.0208 20.9999 12 20.9999 13C20.9999 13.7 20.9124 14.3958 20.7374 15.0875C20.5624 15.7792 20.2999 16.4667 19.9499 17.15ZM12.9999 10.2V8H10.9999V8.2L12.9999 10.2ZM19.7999 22.6L17.3999 20.2C16.5999 20.7833 15.7374 21.2292 14.8124 21.5375C13.8874 21.8458 12.9499 22 11.9999 22C10.7666 22 9.60407 21.7625 8.5124 21.2875C7.42074 20.8125 6.46657 20.1667 5.6499 19.35C4.83324 18.5333 4.1874 17.5792 3.7124 16.4875C3.2374 15.3958 2.9999 14.2333 2.9999 13C2.9999 12 3.15407 11.0375 3.4624 10.1125C3.77074 9.1875 4.21657 8.35 4.7999 7.6L1.3999 4.2L2.7999 2.8L21.1999 21.2L19.7999 22.6ZM11.9999 20C12.6999 20 13.3832 19.8917 14.0499 19.675C14.7166 19.4583 15.3416 19.15 15.9249 18.75L6.1999 9.025C5.7999 9.60833 5.4999 10.2333 5.2999 10.9C5.0999 11.5667 4.9999 12.2667 4.9999 13C4.9999 14.9333 5.68324 16.5833 7.0499 17.95C8.41657 19.3167 10.0666 20 11.9999 20ZM8.9999 3V1H14.9999V3H8.9999Z" fill="#A80000"/>
</svg>
