<svg id="icon_materials" xmlns="http://www.w3.org/2000/svg" width="100" height="100" viewBox="0 0 100 100">
  <rect id="shape" width="100" height="100" fill="none"/>
  <path id="shape-2" data-name="shape" d="M-2667.815-191.084l-14.617-14.616a4.594,4.594,0,0,1,0-6.5l14.617-14.617a4.594,4.594,0,0,1,6.5,0L-2646.7-212.2a4.594,4.594,0,0,1,0,6.5l-14.616,14.616a4.58,4.58,0,0,1-3.248,1.345A4.579,4.579,0,0,1-2667.815-191.084Zm25.944-23.605-14.616-14.616a4.594,4.594,0,0,1,0-6.5l14.616-14.617a4.594,4.594,0,0,1,6.5,0l14.617,14.617a4.594,4.594,0,0,1,0,6.5l-14.617,14.616a4.579,4.579,0,0,1-3.248,1.345A4.579,4.579,0,0,1-2641.871-214.689Zm-53.081,0-14.616-14.616a4.594,4.594,0,0,1,0-6.5l14.616-14.617a4.594,4.594,0,0,1,6.5,0l14.617,14.617a4.594,4.594,0,0,1,0,6.5l-14.617,14.616a4.579,4.579,0,0,1-3.248,1.345A4.579,4.579,0,0,1-2694.952-214.689Zm27.137-24.5-14.617-14.617a4.594,4.594,0,0,1,0-6.5l14.617-14.616a4.594,4.594,0,0,1,6.5,0L-2646.7-260.3a4.594,4.594,0,0,1,0,6.5l-14.616,14.617a4.58,4.58,0,0,1-3.248,1.345A4.579,4.579,0,0,1-2667.815-239.188Z" transform="translate(2715.532 283.459)"/>
</svg>
