<svg xmlns="http://www.w3.org/2000/svg" width="100" height="100" viewBox="0 0 100 100">
  <g id="icon_related_elements" transform="translate(-3980 -8628)">
    <rect id="shape" width="100" height="100" transform="translate(3980 8628)" fill="none"/>
    <path id="family_history_FILL1_wght400_GRAD0_opsz24" d="M140.468-810a15.378,15.378,0,0,1-11.342-4.661,15.568,15.568,0,0,1-4.632-11.411,15.489,15.489,0,0,1,3.3-9.8,16.221,16.221,0,0,1,8.413-5.732v-9.107H119.169a8.179,8.179,0,0,1-6.017-2.518,8.279,8.279,0,0,1-2.5-6.053v-8.571h-6.39a4.109,4.109,0,0,1-3.035-1.232A4.16,4.16,0,0,1,100-872.143v-21.428a4.16,4.16,0,0,1,1.225-3.054,4.109,4.109,0,0,1,3.035-1.232h21.3a4.109,4.109,0,0,1,3.035,1.232,4.16,4.16,0,0,1,1.225,3.054v21.428a4.16,4.16,0,0,1-1.225,3.054,4.109,4.109,0,0,1-3.035,1.232h-6.39v8.571h42.6v-9.107a16.223,16.223,0,0,1-8.413-5.732,15.489,15.489,0,0,1-3.3-9.8,15.568,15.568,0,0,1,4.632-11.411A15.378,15.378,0,0,1,166.026-900a15.378,15.378,0,0,1,11.342,4.661A15.568,15.568,0,0,1,182-883.929a15.489,15.489,0,0,1-3.3,9.8,16.223,16.223,0,0,1-8.413,5.732v9.107a8.279,8.279,0,0,1-2.5,6.053,8.178,8.178,0,0,1-6.017,2.518H144.727v9.107a16.221,16.221,0,0,1,8.413,5.732,15.489,15.489,0,0,1,3.3,9.8,15.568,15.568,0,0,1-4.632,11.411A15.378,15.378,0,0,1,140.468-810Z" transform="translate(3889 9533)"/>
  </g>
</svg>
