<svg id="icon_0" xmlns="http://www.w3.org/2000/svg" width="100" height="100" viewBox="0 0 100 100">
  <rect id="shape" width="100" height="100" fill="none"/>
  <path id="AXIS" d="M-608.625-3379.742h-66a13.907,13.907,0,0,1-9.9-4.1,13.909,13.909,0,0,1-4.1-9.9v-66a13.908,13.908,0,0,1,4.1-9.9,13.908,13.908,0,0,1,9.9-4.1h66a13.908,13.908,0,0,1,9.9,4.1,13.908,13.908,0,0,1,4.1,9.9v66a13.909,13.909,0,0,1-4.1,9.9A13.907,13.907,0,0,1-608.625-3379.742Zm-34.028-69.828a11.826,11.826,0,0,0-9.572,4.234c-2.33,2.809-3.512,6.882-3.512,12.107v9.77c0,5.224,1.191,9.293,3.54,12.093a11.926,11.926,0,0,0,9.6,4.219,11.891,11.891,0,0,0,9.6-4.206c2.33-2.791,3.512-6.864,3.512-12.107v-9.77c0-5.225-1.191-9.3-3.541-12.107A11.939,11.939,0,0,0-642.653-3449.571Zm.056,38.062a6.5,6.5,0,0,1-5.607-2.732c-1.3-1.813-1.954-4.533-1.954-8.086v-12.092c0-3.552.648-6.264,1.925-8.058a6.453,6.453,0,0,1,5.58-2.7,6.545,6.545,0,0,1,5.649,2.7c1.288,1.795,1.94,4.506,1.94,8.058v12.092c0,3.571-.643,6.3-1.912,8.1A6.46,6.46,0,0,1-642.6-3411.509Z" transform="translate(691.625 3476.741)" fill="#010101"/>
</svg>
