<svg id="icon_undo" xmlns="http://www.w3.org/2000/svg" width="100" height="100" viewBox="0 0 100 100">
  <rect id="shape" width="100" height="100" fill="none"/>
  <path id="undo" d="M2016.945,680.44a37.1,37.1,0,0,0-17.385-4.032c-11.236-.01-36.585-.145-38.589-.145v-.3c0-2.142.016-4.283.011-6.425a13.026,13.026,0,0,0-.161-2.631,4.794,4.794,0,0,0-8.141-2.3q-6.332,6.278-12.63,12.59a9.132,9.132,0,0,0-1.269,1.62,4.032,4.032,0,0,0-.167,4.217,8.576,8.576,0,0,0,1.616,2.115q5.983,5.956,11.969,11.91a10.6,10.6,0,0,0,1.355,1.143,4.747,4.747,0,0,0,6.918-1.811,6.853,6.853,0,0,0,.58-2.97q.006-3.685,0-7.371c0-.085.009-.17.015-.277.138,0,27.859.01,39.408.018a20.756,20.756,0,0,1,3.358.186c11.084,1.833,18.53,8.018,21.862,18.682a26.03,26.03,0,0,1-25.07,33.115q-20.608.028-41.215.041a4.714,4.714,0,0,0-4.981,4.541,4.777,4.777,0,0,0,4.925,4.769c13.6,0,27.207.052,40.809-.1a39.43,39.43,0,0,0,9.842-1.256,34.271,34.271,0,0,0,21.327-16.44A35.088,35.088,0,0,0,2016.945,680.44Z" transform="translate(-1937.098 -655.128)"/>
</svg>
