<svg xmlns="http://www.w3.org/2000/svg" width="94.068" height="94" viewBox="0 0 94.068 94">
  <path id="comment" d="M1268.253,237.254c-.006-6.393-4.267-10.8-10.562-10.805q-36.517-.041-73.035,0a10.052,10.052,0,0,0-10.437,10.414q-.057,26.459,0,52.919c.012,6.227,4.346,10.485,10.571,10.531,2.571.019,42.1.01,59.3-.008a4.28,4.28,0,0,1,3.631,1.49c2.108,2.58,11.625,13.985,14.255,17.124a3.371,3.371,0,0,0,3.342,1.448c2.051-.392,2.942-1.658,2.942-4.157C1268.258,303.071,1268.266,250.433,1268.253,237.254Zm-80.539,8.714a3.113,3.113,0,0,1,2.5-2.606,9.77,9.77,0,0,1,1.8-.135q29.161-.01,58.323.006a7.911,7.911,0,0,1,2.375.272,3.285,3.285,0,0,1,2.044,3.582,3.176,3.176,0,0,1-3.012,2.787c-2.73.063-5.462.038-8.193.039q-11.206.005-22.413,0-14.882,0-29.764-.005C1188.83,249.905,1187.338,248.268,1187.714,245.968Zm64.177,37.479a11.81,11.81,0,0,1-1.561.082q-29.163.006-58.326,0a4.468,4.468,0,0,1-3.281-.888,3.44,3.44,0,0,1-.887-3.646,3.176,3.176,0,0,1,2.938-2.136c.722-.033,1.445-.022,2.168-.022h28.319q14.822,0,29.645,0c2.052,0,3.181.705,3.692,2.248A3.272,3.272,0,0,1,1251.891,283.447Zm2.573-18.674a3.467,3.467,0,0,1-3.428,1.988q-10.965-.023-21.932-.007h-7.833q-15,0-30.006,0a3.375,3.375,0,0,1-3.3-1.983,2.846,2.846,0,0,1,.555-3.549,4.973,4.973,0,0,1,2.87-1.167c5.38-.111,10.764-.053,16.146-.053q21.752,0,43.5,0C1253.833,260,1255.581,262.411,1254.463,264.773Z" transform="translate(-1174.192 -226.428)"/>
</svg>
