<svg id="icon_draw-line" xmlns="http://www.w3.org/2000/svg" width="100" height="100" viewBox="0 0 100 100">
  <rect id="shape" width="100" height="100" fill="none"/>
  <g id="draw" transform="translate(-343.484 -408.49)">
    <g id="line">
      <rect id="shape-2" data-name="shape" width="48" height="48" transform="translate(388.427 415.49)" fill="none"/>
      <path id="shape-3" data-name="shape" d="M1.44,0A1.44,1.44,0,0,1,2.88,1.44V53.28a1.44,1.44,0,0,1-2.88,0V1.44A1.44,1.44,0,0,1,1.44,0Z" transform="translate(430.96 418.882) rotate(45)" fill="#787878"/>
    </g>
    <path id="line-2" data-name="line" d="M0,0H1V22H0Z" transform="translate(380.413 441.49)" fill="#787878"/>
    <path id="line-3" data-name="line" d="M0,0H1V22H0Z" transform="translate(410.913 470.99) rotate(90)" fill="#787878"/>
    <path id="line-4" data-name="line" d="M0,0H1V22H0Z" transform="translate(380.413 479.49)" fill="#787878"/>
    <path id="line-5" data-name="line" d="M0,0H1V22H0Z" transform="translate(372.913 470.99) rotate(90)" fill="#787878"/>
  </g>
</svg>
