<svg id="collapse" xmlns="http://www.w3.org/2000/svg" width="100" height="100" viewBox="0 0 100 100">
  <rect id="shape" width="100" height="100" fill="#a80000"/>
  <g id="Group_781" data-name="Group 781" transform="translate(-201 -310.584)">
    <path id="arrow_shaped" d="M343.44,14.353,353.7,24.528a3.835,3.835,0,0,0,5.523,0l10.257-10.175A3.91,3.91,0,0,0,366.716,7.7H346.2A3.911,3.911,0,0,0,343.44,14.353Z" transform="translate(607.604 395.7) rotate(180)"/>
    <path id="arrow_shaped-2" data-name="arrow_shaped" d="M343.44,14.353,353.7,24.528a3.835,3.835,0,0,0,5.523,0l10.257-10.175A3.911,3.911,0,0,0,366.716,7.7H346.2A3.911,3.911,0,0,0,343.44,14.353Z" transform="translate(-105.315 324.884)"/>
  </g>
</svg>
