<svg id="icon_folder" xmlns="http://www.w3.org/2000/svg" width="12.28" height="12" viewBox="0 0 12.28 12">
  <rect id="shape" width="12" height="12" transform="translate(0.14)" fill="none"/>
  <path id="folder" d="M4.128,5.5H7.719L8.847,6.625h4.305A1.628,1.628,0,0,1,14.78,8.25v5.625A1.628,1.628,0,0,1,13.152,15.5H4.128A1.628,1.628,0,0,1,2.5,13.875l.006-6.75A1.625,1.625,0,0,1,4.128,5.5Zm3.177,1H4.128a.624.624,0,0,0-.622.625L3.5,13.875a.627.627,0,0,0,.628.625h9.024a.627.627,0,0,0,.628-.625V8.25a.627.627,0,0,0-.628-.625H8.433Z" transform="translate(-2.5 -4.44)" fill="#484848"/>
</svg>
