<svg id="icon_graph" xmlns="http://www.w3.org/2000/svg" width="100" height="100" viewBox="0 0 100 100">
  <rect id="shape" width="100" height="100" fill="none"/>
  <path id="graph" d="M17927.928,3852.26a5.826,5.826,0,0,1,5.26-7.883c.166-.009.328,0,.494,0h82.658a5.915,5.915,0,0,1,5.621,3.348c1.813,3.415-.879,8.1-4.729,8.232-.463.013-.924.022-1.387.022h-40.8c-13.764,0-27.529-.036-41.291.027h-.033A6.056,6.056,0,0,1,17927.928,3852.26Zm28.668-13.807v-.865c0-11.445.027-22.891-.018-34.336a3.9,3.9,0,0,1,4.115-4.119c1.3.045,2.609.031,3.914.022.9,0,1.793-.013,2.7,0a3.684,3.684,0,0,1,3.84,3.85q.021,17.41,0,34.82c0,.188-.027.372-.051.627Zm43.434,0v-.878q0-17.249,0-34.489a3.682,3.682,0,0,1,3.832-3.93q3.425-.027,6.852,0a3.683,3.683,0,0,1,3.834,3.867q.012,17.37,0,34.73c0,.215-.027.426-.039.7Zm-21.926,0c-.012-.309-.035-.6-.035-.887q-.006-8.6,0-17.2c0-2.863,1.387-4.244,4.246-4.248,2.008,0,4.025.076,6.029-.018a3.9,3.9,0,0,1,4.27,4.289c-.062,4.535-.018,9.075-.018,13.61v4.45Zm-43.428-.013c-.014-.278-.037-.542-.037-.806,0-6.306.01-12.611-.008-18.916a3.939,3.939,0,0,1,1.371-3.325,4.144,4.144,0,0,1,2.736-.856q3.141-.02,6.281,0c2.623.014,4.1,1.452,4.143,4.074.031,2.12,0,4.239,0,6.359q.009,6.278.006,12.557v.914Zm46.217-30.975a7.948,7.948,0,0,1-2.52-7.6,1.208,1.208,0,0,0-.27-.905q-5.5-5.58-11.066-11.1a1.1,1.1,0,0,0-.9-.237,7.913,7.913,0,0,1-4.5-.018.947.947,0,0,0-1.062.314q-5.435,5.472-10.908,10.9a1.149,1.149,0,0,0-.352,1.219,7.972,7.972,0,0,1-13.137,7.417,7.647,7.647,0,0,1-2.506-7.659,7.493,7.493,0,0,1,5.861-6.018,8.931,8.931,0,0,1,2.307-.143c.414.013.828.022,1.234,0a1.5,1.5,0,0,0,.9-.242q5.81-5.727,11.563-11.517a1.5,1.5,0,0,0,.354-1.062,7.973,7.973,0,0,1,6.146-8.613,12.406,12.406,0,0,1,1.5-.188,7.947,7.947,0,0,1,8.232,8.6,1.818,1.818,0,0,0,.609,1.551q5.6,5.525,11.16,11.109a1.256,1.256,0,0,0,1.193.4,14.823,14.823,0,0,1,1.994-.036c.381.009.768.018,1.148.013a1.324,1.324,0,0,0,.832-.215c3.9-3.867,7.8-7.748,11.648-11.665a1.812,1.812,0,0,0,.283-1.255,7.958,7.958,0,0,1,10.9-7.968,7.961,7.961,0,0,1-5.084,15.062,1.011,1.011,0,0,0-1.135.318q-5.44,5.465-10.922,10.89a1.1,1.1,0,0,0-.385,1.138,7.894,7.894,0,0,1-3.73,8.434,8.277,8.277,0,0,1-4.107,1.1A7.847,7.847,0,0,1,17980.893,3807.459Z" transform="translate(-17924.539 -3764.001)" fill="#181818"/>
</svg>
