<svg id="invert_colors_black_24dp_4_" data-name="invert_colors_black_24dp (4)" xmlns="http://www.w3.org/2000/svg" width="16" height="16" viewBox="0 0 16 16">
  <g id="Group_16203" data-name="Group 16203">
    <path id="Path_24186" data-name="Path 24186" d="M0,0H16V16H0Z" fill="none"/>
  </g>
  <g id="Group_16204" data-name="Group 16204" transform="translate(1.993 1.001)">
    <path id="Path_24187" data-name="Path 24187" d="M10.023,4.216V14.9A4.472,4.472,0,0,1,5.506,10.48,4.341,4.341,0,0,1,6.823,7.363l3.2-3.147M5.769,6.286h0A5.877,5.877,0,0,0,4,10.48a5.972,5.972,0,0,0,6.023,5.925,5.972,5.972,0,0,0,6.023-5.925,5.877,5.877,0,0,0-1.769-4.194h0L10.55,2.62a.755.755,0,0,0-1.054,0Z" transform="translate(-4 -2.405)" fill="#de4e4e"/>
  </g>
</svg>
