<?xml version="1.0" encoding="utf-8"?>
<!-- Generator: Adobe Illustrator 26.3.1, SVG Export Plug-In . SVG Version: 6.00 Build 0)  -->
<svg version="1.1" id="Camada_1" xmlns="http://www.w3.org/2000/svg" xmlns:xlink="http://www.w3.org/1999/xlink" x="0px" y="0px"
	 viewBox="0 0 24 24" style="enable-background:new 0 0 24 24;" xml:space="preserve">
<style type="text/css">
	.st0{fill:none;}
	.st1{fill:#484848;}
</style>
<g id="icon_arrow" transform="translate(0 0) rotate(0)">
	
		<rect id="shape" x="0" transform="matrix(-2.535182e-06 -1 1 -2.535182e-06 3.042219e-05 24)" class="st0" width="24" height="24"/>
	<path id="Path_50250" class="st1" d="M22.4,17.6L22.4,17.6c-0.8,0.7-2,0.7-2.8,0L12,10.3l-7.7,7.3c-0.8,0.7-2,0.7-2.8,0
		c-0.7-0.7-0.8-1.8-0.1-2.6c0,0,0.1-0.1,0.1-0.1l9.1-8.6c0.8-0.7,2-0.7,2.8,0l9,8.6C23.2,15.7,23.2,16.8,22.4,17.6
		C22.5,17.6,22.5,17.6,22.4,17.6"/>
</g>
</svg>
