<svg id="icon_double-arrow" xmlns="http://www.w3.org/2000/svg" width="100" height="100" viewBox="0 0 100 100">
  <rect id="shape" width="100" height="100" fill="none"/>
  <path id="arrow" d="M534.629,1071.379a2.6,2.6,0,0,0-1.719-1.027,2.637,2.637,0,0,0-1.987.525,7.718,7.718,0,0,0-.719.687q-15.927,16.259-31.849,32.521-15.957-16.275-31.923-32.552l-.154-.16c-.141-.149-.284-.3-.437-.432-.063-.054-.128-.108-.2-.155a2.56,2.56,0,0,0-3.56.557c-.923,1.217-.74,2.5.544,3.813l33.542,34.218a3.144,3.144,0,0,0,2.168,1.134h0a3.128,3.128,0,0,0,2.157-1.123q16.748-17.084,33.476-34.156a7.522,7.522,0,0,0,.593-.649A2.616,2.616,0,0,0,534.629,1071.379Z" transform="translate(1152.222 -448.223) rotate(90)"/>
  <path id="line" d="M2.5,0A2.5,2.5,0,0,1,5,2.5v69a2.5,2.5,0,0,1-5,0V2.5A2.5,2.5,0,0,1,2.5,0Z" transform="translate(27 13)"/>
</svg>
