<svg xmlns="http://www.w3.org/2000/svg" width="16" height="15.872" viewBox="0 0 16 15.872">
  <path id="linkedin" d="M4.681,5.734A1.931,1.931,0,1,1,6.1,8.067,1.931,1.931,0,0,1,4.681,5.734Zm.254,3.753H8.183V20.13H4.936Zm8.482,1.475V9.486H10.2V20.129h3.22v-4.2c0-1.822.244-2.694.683-3.17l.026-.028a1.777,1.777,0,0,1,2.508-.16l.041.037a2.406,2.406,0,0,1,.513,1.641v5.887h3.437V14.524c0-4.037-1.505-5.143-3.454-5.292L17,9.219A3.589,3.589,0,0,0,13.418,10.961Z" transform="translate(-4.626 -4.261)" fill="#484848"/>
</svg>
