<svg id="icon_categorization" xmlns="http://www.w3.org/2000/svg" width="100" height="100" viewBox="0 0 100 100">
  <rect id="shape" width="100" height="100" fill="none"/>
  <path id="Path_22041" data-name="Path 22041" d="M93.227,47.026l-42.3-42.3A9.341,9.341,0,0,0,44.3,2H11.4A9.428,9.428,0,0,0,2,11.4V44.3a9.379,9.379,0,0,0,2.773,6.674l42.3,42.3A9.341,9.341,0,0,0,53.7,96a9.19,9.19,0,0,0,6.627-2.773l32.9-32.9A9.19,9.19,0,0,0,96,53.7,9.493,9.493,0,0,0,93.227,47.026ZM18.45,25.5a7.05,7.05,0,1,1,7.05-7.05A7.041,7.041,0,0,1,18.45,25.5Z" transform="translate(1 1)"/>
</svg>
