<svg id="icon_truck_orders" xmlns="http://www.w3.org/2000/svg" width="100" height="100"
  viewBox="0 0 100 100">
  <rect id="shape" width="100" height="100" fill="none" />
  <path id="truck"
    d="M82.559,22.117a6.832,6.832,0,0,0-5.779-3.2H63.534V16.521A6.09,6.09,0,0,0,57.476,10.4H5.719A4.675,4.675,0,0,0,1,14.521a4.565,4.565,0,0,0,4.035,5.026,4.636,4.636,0,0,0,.474.024H25.264a4.414,4.414,0,0,1,4.109,2.545,4.626,4.626,0,0,1-2.23,6.112,4.52,4.52,0,0,1-1.889.423H5.719A4.675,4.675,0,0,0,1,32.814,4.565,4.565,0,0,0,5.035,37.84a4.639,4.639,0,0,0,.474.024H14.9a4.675,4.675,0,0,1,4.7,4.121,4.565,4.565,0,0,1-4.035,5.026,4.638,4.638,0,0,1-.474.024H6a4.675,4.675,0,0,0-4.7,4.121,4.565,4.565,0,0,0,4.035,5.026,4.639,4.639,0,0,0,.474.024H9.368V73.985A6.482,6.482,0,0,0,15.816,80.5h4.4A14.843,14.843,0,0,0,34.3,90.4a15.122,15.122,0,0,0,14.076-9.9H60.625a14.853,14.853,0,0,0,14.086,9.9,15.122,15.122,0,0,0,14.076-9.9h3.739a6.482,6.482,0,0,0,6.448-6.515h0V51.207a10.462,10.462,0,0,0-1.61-5.576ZM34.3,80.9a5.668,5.668,0,0,1-5.629-5.677A5.747,5.747,0,0,1,34.3,69.591a5.687,5.687,0,0,1,.474,11.363q-.237.011-.474,0Zm40.42,0a5.709,5.709,0,0,1-5.659-5.717,5.778,5.778,0,0,1,5.659-5.717,5.709,5.709,0,0,1,5.659,5.717,5.779,5.779,0,0,1-5.669,5.757ZM85.559,47.8H65.614a1.257,1.257,0,0,1-1.25-1.263V29.925a1.257,1.257,0,0,1,1.25-1.263h9.478a1.238,1.238,0,0,1,1.05.586L86.608,45.874a1.271,1.271,0,0,1-.4,1.739A1.243,1.243,0,0,1,85.559,47.8Z"
    transform="translate(0.025 -0.399)" />
</svg>
