<svg id="icon_video_extensions" xmlns="http://www.w3.org/2000/svg" width="100" height="100" viewBox="0 0 100 100">
  <rect id="shape" width="100" height="100" fill="none"/>
  <g id="ps" transform="translate(13.006)">
    <path id="Path_19936" data-name="Path 19936" d="M12.881.61H45.963L74,30.145V87.591A12.937,12.937,0,0,1,61.143,100.61H12.881A12.942,12.942,0,0,1,0,87.591V13.629A12.942,12.942,0,0,1,12.881.61Z" transform="translate(0 -0.61)" fill="#fa0000" fill-rule="evenodd"/>
    <path id="Path_19937" data-name="Path 19937" d="M237.139.61V29.92H265.2Z" transform="translate(-191.201 -0.61)" fill="rgba(255,255,255,0.3)" fill-rule="evenodd"/>
    <path id="Path_19944" data-name="Path 19944" d="M124.5,232.388A16,16,0,1,0,140.486,248.4,16.023,16.023,0,0,0,124.5,232.388ZM131.23,248.9a1.311,1.311,0,0,1-.52.52h0l-9.132,4.579a1.148,1.148,0,0,1-1.534-.52.9.9,0,0,1-.124-.52v-9.132a1.135,1.135,0,0,1,1.138-1.138,1,1,0,0,1,.52.124l9.132,4.554a1.155,1.155,0,0,1,.52,1.534Z" transform="translate(-87.132 -184.438)" fill="#fff"/>
  </g>
</svg>
