<svg id="icon_m" xmlns="http://www.w3.org/2000/svg" width="100" height="100" viewBox="0 0 100 100">
  <rect id="shape" width="100" height="100" fill="none"/>
  <path id="AXIS" d="M-608.625-3379.742h-66a13.907,13.907,0,0,1-9.9-4.1,13.909,13.909,0,0,1-4.1-9.9v-66a13.908,13.908,0,0,1,4.1-9.9,13.908,13.908,0,0,1,9.9-4.1h66a13.908,13.908,0,0,1,9.9,4.1,13.908,13.908,0,0,1,4.1,9.9v66a13.909,13.909,0,0,1-4.1,9.9A13.907,13.907,0,0,1-608.625-3379.742Zm-49.194-61.021,13.339,33.021h3.71l13.339-33.05h0l.141.029-.538,16.708v11.952l-4.616.793v3.567h14.812v-3.567l-4.617-.793v-32.484l4.617-.793v-3.6h-11.782l-13.112,33.5h-.17l-13.14-33.5h-11.753v3.6l4.616.793v32.484l-4.616.793v3.567h14.811v-3.567l-4.616-.793v-11.952l-.566-16.68Z" transform="translate(691.625 3476.741)" fill="#010101"/>
</svg>
