<svg id="icon_process" xmlns="http://www.w3.org/2000/svg" width="100" height="100" viewBox="0 0 100 100">
  <path id="shape" d="M0,0H100V100H0Z" fill="none"/>
  <g id="color_change">
    <path id="points" d="M-1361.888-2340.249c-.229-1.15-.508-2.3-.835-3.407l5.983-1.758c.377,1.288.7,2.616.968,3.948q.259,1.3.44,2.592l-6.178.861Q-1361.665-2339.132-1361.888-2340.249Zm-5.669-13.844,5.207-3.431a45.242,45.242,0,0,1,3.257,5.845l-5.656,2.625A39.082,39.082,0,0,0-1367.557-2354.093Zm-7.68-8.556,3.977-4.805a45.5,45.5,0,0,1,4.824,4.634l-4.641,4.165A39.214,39.214,0,0,0-1375.237-2362.649Zm-9.847-5.962,2.41-5.755a45.538,45.538,0,0,1,5.962,3.038l-3.228,5.334A39.414,39.414,0,0,0-1385.084-2368.611Zm-11.151-2.829.617-6.207a44.864,44.864,0,0,1,6.6,1.158l-1.531,6.045A38.9,38.9,0,0,0-1396.235-2371.44Z" transform="translate(1450.114 2382.637)" stroke="rgba(0,0,0,0)" stroke-width="1"/>
  </g>
  <path id="c-scale-12" d="M-1448.114-2332.651a48.053,48.053,0,0,1,46.991-47.986v11.972l-.17.006a35.953,35.953,0,0,0-34.727,33.188l0,.012c-.081,1.047-.121,1.966-.121,2.809s.036,1.71.116,2.756a36.164,36.164,0,0,0,35.915,33.285,36.076,36.076,0,0,0,36.031-36.041v-.029h3.3v0l4.721,0h3.945v.029a48.062,48.062,0,0,1-48,48.014A48.061,48.061,0,0,1-1448.114-2332.651Z" transform="translate(1450.114 2382.637)" stroke="rgba(0,0,0,0)" stroke-width="1"/>
</svg>
