<svg id="icon_TTF_extension" xmlns="http://www.w3.org/2000/svg" width="100" height="100" viewBox="0 0 100 100">
  <rect id="shape" width="100" height="100" fill="none"/>
  <g id="ps" transform="translate(13.006)">
    <path id="Path_19936" data-name="Path 19936" d="M12.881.61H45.963L74,30.145V87.591A12.937,12.937,0,0,1,61.143,100.61H12.881A12.942,12.942,0,0,1,0,87.591V13.629A12.942,12.942,0,0,1,12.881.61Z" transform="translate(0 -0.61)" fill="#0e1e31" fill-rule="evenodd"/>
    <path id="Path_19937" data-name="Path 19937" d="M237.139.61V29.92H265.2Z" transform="translate(-191.201 -0.61)" fill="rgba(255,255,255,0.3)" fill-rule="evenodd"/>
    <path id="Path_20045" data-name="Path 20045" d="M79.764,277.445v-9.4h-3.7v-2.6H86.746v2.6h-3.7v9.4Zm11.158,0v-9.4h-3.7v-2.6H97.9v2.6h-3.7v9.4Zm7.96,0v-12h9.186v2.6h-5.881v1.934H106.9v2.6h-4.708v4.876Z" transform="translate(-55.393 -197.445)" fill="#fff"/>
  </g>
</svg>
