<svg id="icon_audio_extensions" xmlns="http://www.w3.org/2000/svg" width="100" height="100" viewBox="0 0 100 100">
  <rect id="shape" width="100" height="100" fill="none"/>
  <g id="ps" transform="translate(13.006)">
    <path id="Path_19936" data-name="Path 19936" d="M12.881.61H45.963L74,30.145V87.591A12.937,12.937,0,0,1,61.143,100.61H12.881A12.942,12.942,0,0,1,0,87.591V13.629A12.942,12.942,0,0,1,12.881.61Z" transform="translate(0 -0.61)" fill="#90c" fill-rule="evenodd"/>
    <path id="Path_19937" data-name="Path 19937" d="M237.139.61V29.92H265.2Z" transform="translate(-191.201 -0.61)" fill="rgba(255,255,255,0.3)" fill-rule="evenodd"/>
    <path id="Path_19941" data-name="Path 19941" d="M156.96,256.651a13.347,13.347,0,0,0,1.79-5.85,8.4,8.4,0,0,0-.863-4.06c-1.023-2.078-2.749-3.229-4.443-4.379a12.51,12.51,0,0,1-3.261-2.749l-.16-.192a5.909,5.909,0,0,1-1.151-2.078,1.22,1.22,0,0,0-2.43.192v21.929a6.991,6.991,0,0,0-3.708-1.023c-3.388,0-6.137,2.206-6.137,4.923s2.749,4.923,6.137,4.923,6.17-2.206,6.17-4.923V249.012a8.922,8.922,0,0,1,5.69,6.713,5.091,5.091,0,0,1-.479.671,1.26,1.26,0,0,0,.128,1.758,1.22,1.22,0,0,0,1.726-.128,7.574,7.574,0,0,0,.9-1.279l.1-.1Z" transform="translate(-110.448 -187.935)" fill="#fff"/>
  </g>
</svg>
