<svg xmlns="http://www.w3.org/2000/svg" width="24" height="24" viewBox="0 0 24 24">
  <g id="icon_extrude" transform="translate(-6 -2)">
    <rect id="shape" width="24" height="24" transform="translate(6 2)" fill="none"/>
    <g id="extrude" transform="translate(-50 -294.6)">
      <g id="shape-2" data-name="shape" transform="translate(60 298)" fill="none" stroke-linecap="round" stroke-linejoin="round">
        <path d="M0,8.989v6.942a1,1,0,0,0,.5.866l7,4.042a1,1,0,0,0,1,0l7-4.042a1,1,0,0,0,.5-.866V8.989l-7.5,4.33a1,1,0,0,1-1,0Z" stroke="none"/>
        <path d="M 15 10.72102546691895 L 9.001259803771973 14.18430042266846 C 8.697519302368164 14.36025047302246 8.351289749145508 14.45324993133545 8 14.45324993133545 C 7.648710250854492 14.45324993133545 7.30247974395752 14.36025047302246 7.000009536743164 14.18502998352051 L 1.000012397766113 10.72103118896484 L 1.000049591064453 15.93100070953369 L 7.999950408935547 19.97299957275391 L 15 15.93100070953369 L 15 10.72102546691895 M 0 8.98900032043457 L 7.5 13.31900024414062 C 7.808999061584473 13.49799919128418 8.190999984741211 13.49799919128418 8.5 13.31900024414062 L 16 8.98900032043457 L 16 15.93100070953369 C 16 16.28800010681152 15.80900001525879 16.61800003051758 15.5 16.79700088500977 L 8.5 20.8390007019043 C 8.190999984741211 21.01700210571289 7.809000015258789 21.01700019836426 7.5 20.8390007019043 L 0.5 16.79700088500977 C 0.1909999847412109 16.61800003051758 0 16.28800010681152 0 15.93100070953369 L 0 8.98900032043457 Z" stroke="none" fill="#707070"/>
      </g>
      <path id="svg-fill-primary" d="M15.321-120.159v-3.35a.193.193,0,0,1,.1-.167l7.289-4.223a.194.194,0,0,1,.292.167v3.37a.193.193,0,0,1-.1.167l-7.288,4.2a.192.192,0,0,1-.1.028A.2.2,0,0,1,15.321-120.159Zm-.937.167-7.288-4.2a.193.193,0,0,1-.1-.167v-3.37a.194.194,0,0,1,.293-.167l7.289,4.223a.193.193,0,0,1,.1.167v3.35a.2.2,0,0,1-.2.2A.192.192,0,0,1,14.384-119.992Zm.492-4.227L7.43-128.487a.193.193,0,0,1,0-.335l7.057-4.049a.982.982,0,0,1,.973,0l7.06,4.048a.193.193,0,0,1,0,.335l-7.448,4.269a.2.2,0,0,1-.1.026A.2.2,0,0,1,14.876-124.219Z" transform="translate(53 430.6)" fill="#efa106"/>
    </g>
  </g>
</svg>
