<svg id="icon_site" xmlns="http://www.w3.org/2000/svg" width="100" height="100" viewBox="0 0 100 100">
  <rect id="shape" width="100" height="100" fill="none"/>
  <path id="sites" d="M563.477,284.882A47.5,47.5,0,1,1,610.5,332.477C584.66,332.459,563.478,311.02,563.477,284.882Zm31.645-35.533c.755.327,1.3.58,1.857.8a2.96,2.96,0,0,1,2.037,2.812c.14,2.973.3,5.945.433,8.917a2.239,2.239,0,0,1-2.1,2.562c-.83.128-1.682.105-2.514.224a2.35,2.35,0,0,0-.578,4.59c.47.183,1.124.182,1.4.512.642.76,1.626,1.718,1.555,2.514-.325,3.628-.92,7.235-1.539,10.828a2.668,2.668,0,0,1-1.246,1.655c-4.124,2.162-8.394,3.771-13.2,2.826a8.48,8.48,0,0,0-1.673-.166,3.506,3.506,0,0,0-3.122,2.987c-.045,1.359.859,2.231,2.636,2.492,2.555.375,5.11.752,7.671,1.078a2.963,2.963,0,0,1,2.559,1.883c1.192,2.723,2.486,5.4,3.619,8.149a4.458,4.458,0,0,1,.178,2.418c-.651,3.359-1.3,6.726-2.187,10.027-.4,1.5.13,2.076,1.29,2.723,19.094,10.657,43.816,3.005,53.632-16.6a2.791,2.791,0,0,0,.125-2.842c-1.866-3.37-1.867-6.954-1.2-10.613.06-.33.216-.745.083-.989-.3-.553-.712-1.413-1.149-1.458a27.669,27.669,0,0,0-5.167-.052c-1.171.1-1.492.93-.79,1.941a27.883,27.883,0,0,0,1.944,2.541c.827.94.719,1.788-.265,2.39a5.057,5.057,0,0,1-2.392.817,20.446,20.446,0,0,1-4.012-.429c-1.168-.212-1.694.326-2.239,1.262a15.058,15.058,0,0,0-1.687,7.117,22.536,22.536,0,0,1-3.708,11.01,1.334,1.334,0,0,1-2.232.4,14.24,14.24,0,0,1-4.4-4.721,16.151,16.151,0,0,1-1.823-7.575c-.03-1.235-.352-2.286-1.617-2.64a24.554,24.554,0,0,0-5.007-1.068c-2.027-.124-3.354-.772-3.959-2.829a29.213,29.213,0,0,0-1.579-3.528c-.522-1.169,1.063-7.419,2.062-8.175a.454.454,0,0,1,.146-.083c2.212-.591,4.416-1.633,6.637-1.672,4.516-.079,8.827.888,11.824,4.818.572.75,1.425.97,1.969.131.866-1.336,3.361-1.561,2.7-3.922-.014-.051-.068-.089-.095-.138-.721-1.318-1.409-2.654-2.178-3.943-.258-.433-.8-1.109-1.078-1.048-1.44.319-2.82.9-4.254,1.258a2.545,2.545,0,0,1-1.888-.119c-1.65-1.292-3.285-1.982-5.422-1.207-1.5.544-2.32-.753-2.87-1.772-.665-1.231.566-1.67,1.417-1.988a2.059,2.059,0,0,0,1.413-2.776,9.216,9.216,0,0,1-.189-1.163c-.219-1.993,2.7-4.129,4.551-3.361.709.295,1.724.911,2.15.649,1.93-1.185,3.644-.272,5.468.135,3.014.673,4.169.114,4.9-2.343a17.719,17.719,0,0,0,.373-2.987c-.942.147-1.884.293-2.825.443-1.416.225-3.04.774-4.016-.615-.854-1.215-1.464-1.15-2.39-.3-.412.38-.869.712-1.283,1.091-.873.8-1.694.7-2.181-.327a5.646,5.646,0,0,1-.579-2.487c.095-2.909.469-5.812.478-8.718.011-3.9-.079-4.029-3.991-4.45A38.492,38.492,0,0,0,595.122,249.349Z" transform="translate(-560.477 -234.477)"/>
</svg>
