<svg id="icon_sync" xmlns="http://www.w3.org/2000/svg" width="100" height="100" viewBox="0 0 100 100">
  <rect id="shape" width="100" height="100" fill="none"/>
  <g id="icone" transform="translate(0.425 100.575) rotate(-90)">
    <path id="shape-2" data-name="shape" d="M41.916,5.325l.035.425-.121-.419c-.066,0-.131.008-.2.017l-.45.071c-.3.043-.59.09-.884.139q-.574.1-1.146.206c-.292.057-.584.116-.873.179-.378.082-.752.169-1.127.262-.285.07-.572.14-.855.216-.375.1-.747.209-1.119.321L35,6.794c-.217.064-.435.129-.65.2-.381.121-.756.253-1.133.386l-.234.082c-.179.062-.358.124-.534.189-.4.149-.792.311-1.185.471l-.246.1c-.143.057-.287.114-.43.175-.472.2-.938.419-1.4.637l-.413.19q-.9.434-1.77.91l-.453.259c-.426.238-.85.479-1.267.731q-.2.123-.4.251l-.227.144c-.35.221-.7.442-1.043.672-.167.112-.334.228-.5.345l-.169.12c-.319.222-.637.446-.95.677-.186.138-.371.28-.554.422l-.119.092c-.3.231-.6.463-.889.7q-.334.272-.66.551c-.286.242-.569.487-.848.736q-.322.287-.639.582-.409.38-.808.773c-.206.2-.411.4-.612.608-.264.268-.522.542-.778.817l-.072.077c-.169.182-.339.364-.5.548-.257.287-.508.58-.757.874l-.139.163c-.131.154-.262.309-.391.465-.256.315-.5.636-.751.957l-.153.2c-.105.135-.21.27-.313.408-.278.375-.546.758-.813,1.143l-.133.188c-.067.094-.133.188-.2.282q-.554.822-1.072,1.671l-.175.3c-.279.469-.554.941-.817,1.42-.07.129-.138.261-.205.393l-.133.257c-.2.372-.391.743-.574,1.121-.082.166-.159.335-.236.5l-.105.228c-.168.361-.335.722-.494,1.089-.088.206-.172.415-.257.623l-.065.16c-.146.359-.29.717-.428,1.081-.1.271-.2.545-.3.819q-.192.541-.37,1.09c-.091.279-.176.561-.261.842q-.165.551-.316,1.108-.117.428-.224.859c-.093.376-.179.754-.277,1.2-.058.266-.116.532-.169.8-.076.389-.144.78-.21,1.174l-.034.2c-.037.218-.074.436-.106.655-.062.413-.111.829-.16,1.245L4.849,43c-.024.188-.047.377-.066.566-.045.464-.076.932-.106,1.4l-.019.257c-.012.143-.022.286-.03.432-.034.7-.053,1.4-.053,2.112,0,.78.024,1.587.075,2.465.009.168.024.334.038.5l.025.3c.042.548.088,1.1.15,1.639.028.235.06.47.093.7l.031.221c.068.495.141.988.226,1.477.055.318.116.634.178.95q.141.717.308,1.423c.072.311.145.621.225.929.123.481.259.957.4,1.431l.066.224c.062.212.123.425.19.633.167.525.351,1.043.537,1.558l.094.265c.047.136.094.272.145.407q.419,1.1.894,2.168l.141.3c.278.61.568,1.215.874,1.809.076.15.157.3.237.444l.144.264c.241.449.487.9.745,1.338.117.2.237.4.359.592l.114.186c.249.406.5.808.767,1.206.171.261.348.518.525.775.27.389.546.771.842,1.169.178.241.358.483.542.718.3.387.61.765.925,1.142l.174.21c.124.15.247.3.375.447.37.427.751.84,1.138,1.251l.173.188c.084.092.167.184.253.273a43.246,43.246,0,0,0,5.1,4.5L17.048,86.5A5.312,5.312,0,0,0,20.8,95.574H37.877a5.318,5.318,0,0,0,5.312-5.312V73.189a5.312,5.312,0,0,0-9.068-3.756l-4.534,4.534a32.269,32.269,0,0,1-3.227-2.5c-.219-.193-.439-.388-.653-.587l-.142-.13c-.111-.1-.222-.205-.331-.309-.323-.313-.636-.634-.945-.959l-.309-.319q-.606-.657-1.174-1.346l-.269-.344c-.282-.353-.56-.709-.827-1.074-.089-.12-.174-.242-.259-.366l-.11-.16c-.222-.317-.441-.634-.651-.961-.126-.193-.247-.389-.37-.588-.2-.321-.39-.645-.581-.981-.111-.2-.223-.395-.332-.594-.188-.35-.367-.705-.542-1.062l-.1-.2c-.059-.12-.119-.24-.176-.362-.213-.457-.413-.921-.6-1.391l-.117-.273q-.335-.844-.622-1.714l-.155-.508c-.13-.415-.255-.832-.369-1.255-.042-.157-.08-.317-.119-.476l-.045-.188c-.093-.382-.181-.765-.26-1.152-.049-.236-.093-.473-.136-.711-.07-.387-.131-.777-.2-1.266-.029-.2-.058-.4-.082-.608-.051-.426-.089-.854-.123-1.284l-.02-.238c-.011-.124-.022-.248-.03-.374-.038-.636-.061-1.277-.061-1.923q0-.789.04-1.568l.036-.508c.022-.348.045-.694.079-1.038.013-.136.03-.272.046-.408l.024-.2c.036-.309.072-.616.118-.923.023-.162.051-.325.078-.486l.025-.146c.049-.291.1-.583.156-.871.042-.215.088-.428.135-.642.061-.281.125-.562.194-.84.053-.213.109-.425.165-.636.074-.275.153-.55.234-.822.062-.208.126-.417.192-.623.087-.271.179-.54.292-.862.065-.185.13-.37.2-.552.1-.27.209-.538.319-.805l.056-.141c.059-.145.117-.289.179-.434.119-.276.245-.549.372-.82l.245-.528c.144-.3.3-.588.451-.88l.224-.432c.231-.424.471-.842.747-1.3q.376-.619.778-1.216l.28-.4c.186-.268.373-.536.566-.8l.355-.461c.18-.233.361-.467.547-.7.1-.119.2-.235.294-.352l.1-.119c.183-.215.367-.431.556-.642.14-.157.283-.312.427-.466.189-.2.382-.406.576-.6q.224-.228.452-.452c.2-.193.4-.385.6-.573.155-.145.313-.289.471-.431.207-.185.418-.367.63-.547.16-.137.321-.273.484-.406.22-.18.445-.355.67-.529l.484-.371c.24-.177.484-.349.728-.519l.47-.329c.27-.182.546-.357.822-.529l.414-.263c.414-.251.832-.494,1.283-.74q.64-.349,1.3-.667L33.984,19c.3-.139.594-.277.9-.408l.543-.221c.276-.113.553-.225.833-.331.15-.056.3-.109.454-.162l.137-.048c.27-.1.541-.189.815-.277.186-.06.376-.117.62-.19q.407-.122.817-.233c.211-.057.425-.111.638-.164.275-.068.552-.131.829-.192q.323-.071.649-.135c.281-.055.564-.105.909-.162.2-.033.393-.066.592-.1l.277-.044a5.33,5.33,0,0,0,4.7-5.277v-.444A5.23,5.23,0,0,0,46,6.729,5.389,5.389,0,0,0,41.916,5.325Z" transform="translate(0 0.001)"/>
    <path id="shape-3" data-name="shape" d="M95.422,49.9h0c-.011-.172-.026-.343-.04-.513l-.025-.289c-.041-.55-.087-1.1-.149-1.643-.028-.24-.061-.478-.094-.716l-.03-.212c-.068-.5-.141-.993-.226-1.483-.056-.319-.115-.635-.178-.952q-.141-.72-.307-1.427c-.073-.311-.145-.62-.224-.929-.125-.483-.26-.96-.4-1.434l-.063-.213c-.062-.215-.125-.43-.192-.643-.168-.526-.353-1.045-.539-1.563l-.1-.269c-.047-.133-.093-.265-.143-.4q-.418-1.1-.894-2.168l-.15-.314c-.275-.6-.561-1.2-.864-1.787-.078-.152-.16-.3-.242-.452l-.142-.258c-.24-.448-.486-.893-.742-1.331-.124-.212-.254-.422-.384-.631l-.089-.145c-.249-.406-.5-.806-.766-1.2-.173-.26-.35-.518-.526-.774q-.4-.58-.827-1.145c-.183-.246-.368-.492-.556-.735-.3-.386-.612-.764-.926-1.139l-.175-.21c-.123-.149-.246-.3-.374-.444-.372-.428-.756-.843-1.146-1.257l-.172-.187c-.081-.088-.162-.176-.245-.262a43.8,43.8,0,0,0-5.1-4.5l4.631-4.632a5.228,5.228,0,0,0,1.151-5.79,5.229,5.229,0,0,0-4.907-3.278H62.194a5.318,5.318,0,0,0-5.312,5.312V27.06a5.313,5.313,0,0,0,9.069,3.756l4.533-4.533a31.685,31.685,0,0,1,3.228,2.5c.219.194.439.391.655.591l.132.122c.113.105.225.209.338.317.324.314.636.637.945.963l.31.321q.606.66,1.174,1.352l.263.338c.284.357.564.717.832,1.085.087.119.171.24.255.363l.114.164c.222.318.441.638.652.966.126.194.247.392.369.589.2.322.391.647.576.977.114.2.227.4.337.6.188.35.367.705.542,1.063l.086.172c.064.129.127.257.188.389q.32.685.6,1.387l.119.278c.223.563.43,1.136.621,1.714l.157.509c.13.415.255.831.368,1.252.044.167.085.335.125.5l.039.16c.094.381.182.764.26,1.15.049.235.093.471.136.708.071.386.132.773.2,1.255.029.2.058.406.083.611.05.423.087.848.122,1.276l.019.224c.012.128.023.255.03.384.039.632.062,1.267.062,1.907,0,.523-.015,1.042-.04,1.558l-.036.507c-.022.345-.045.689-.078,1.033-.013.128-.029.255-.044.383l-.036.3c-.034.279-.067.558-.109.835-.026.179-.056.357-.1.629-.05.29-.1.58-.157.867q-.065.322-.134.638c-.062.28-.125.559-.2.838-.051.212-.107.423-.164.633q-.111.412-.233.817c-.063.207-.126.415-.192.62q-.132.406-.275.806c-.071.2-.142.4-.218.6-.1.269-.208.535-.317.8l-.06.146c-.057.142-.115.285-.176.427-.119.277-.245.549-.373.821l-.243.521c-.144.3-.3.586-.453.879l-.223.431c-.231.422-.47.838-.747,1.291-.25.412-.51.814-.778,1.212l-.278.4c-.187.268-.374.535-.569.8-.077.105-.157.207-.237.311l-.115.147c-.18.234-.361.468-.546.7l-.4.468c-.182.216-.368.433-.556.643-.141.157-.283.311-.429.466q-.284.3-.573.6c-.15.152-.3.3-.452.451-.2.193-.4.384-.6.573-.155.145-.313.289-.47.43q-.313.276-.631.546c-.16.136-.322.272-.484.406-.22.178-.445.354-.669.526l-.484.371c-.239.176-.483.347-.727.517l-.152.107c-.106.075-.211.15-.321.223-.25.168-.507.33-.821.528l-.414.262c-.418.253-.84.5-1.271.732s-.866.458-1.31.673l-.441.2c-.3.14-.6.279-.9.41l-.538.218c-.278.114-.555.227-.839.333-.138.052-.277.1-.417.15l-.167.058c-.273.1-.546.191-.821.279-.2.065-.411.127-.618.188-.271.082-.546.161-.817.235l-.639.163c-.274.067-.55.131-.829.192-.215.047-.43.092-.649.135-.282.055-.566.1-.848.152l-.118.02c-.177.03-.354.059-.53.085l-.281.045a5.328,5.328,0,0,0-4.7,5.276v.444a5.227,5.227,0,0,0,1.7,3.883,5.4,5.4,0,0,0,3.69,1.417c.155,0,.312-.005.469-.018.069,0,.137-.009.208-.019l.449-.07c.3-.043.592-.09.884-.139.384-.063.766-.132,1.145-.206.292-.056.584-.117.875-.179.378-.081.752-.169,1.126-.261.286-.07.573-.142.856-.217.376-.1.748-.21,1.118-.321l.149-.044c.225-.067.451-.133.674-.205.369-.118.732-.244,1.134-.386l.257-.09q.257-.089.511-.181c.4-.15.79-.31,1.183-.47l.235-.094c.147-.059.3-.118.442-.181.472-.2.938-.418,1.4-.636l.414-.19q.894-.434,1.769-.911l.452-.259c.427-.237.85-.479,1.268-.731.137-.083.272-.169.407-.256l.219-.139c.351-.221.7-.441,1.045-.672.154-.1.308-.212.459-.319l.208-.146c.319-.222.637-.447.951-.677.186-.138.369-.28.552-.421l.119-.092c.3-.231.6-.464.891-.7.221-.181.441-.366.66-.551q.427-.362.846-.735c.216-.192.428-.387.64-.583q.409-.382.808-.772c.205-.2.411-.4.611-.608.264-.268.522-.543.829-.871.177-.19.354-.379.527-.573.256-.287.508-.58.757-.874l.174-.205c.119-.14.238-.279.356-.423.255-.314.5-.635.75-.957l.145-.185c.107-.138.214-.276.322-.418.278-.375.546-.758.811-1.143l.133-.188c.068-.093.134-.187.2-.283q.556-.822,1.073-1.671l.174-.3c.279-.469.555-.942.816-1.42.075-.138.147-.278.22-.418l.129-.25c.191-.367.383-.731.565-1.1q.122-.252.238-.51l.154-.333c.15-.325.3-.648.442-.979.087-.2.171-.41.255-.615l.068-.168c.145-.358.289-.717.427-1.081.1-.256.188-.516.3-.818.127-.361.251-.724.369-1.088.091-.28.178-.563.262-.844q.165-.55.316-1.109c.078-.284.153-.57.225-.859.093-.376.179-.753.261-1.133l.024-.109c.055-.251.111-.5.16-.758.076-.389.145-.78.209-1.172l.03-.171c.039-.227.078-.456.112-.685.057-.385.1-.772.158-1.246l.032-.264c.023-.182.045-.365.063-.548.046-.464.077-.932.107-1.4l.021-.275c.01-.137.021-.274.028-.413.033-.7.053-1.4.053-2.112C95.5,51.584,95.471,50.773,95.422,49.9Z" transform="translate(0.079)"/>
  </g>
</svg>
