<svg id="icon_person" xmlns="http://www.w3.org/2000/svg" width="100" height="100" viewBox="0 0 100 100">
  <rect id="shape" width="100" height="100" fill="none"/>
  <path id="person" d="M380.225-229.061a53.868,53.868,0,0,1-17.708-3,53.914,53.914,0,0,1-8.351-3.72q-1.705-.942-3.347-2.011a47.4,47.4,0,0,1-4.273-2.983,47.388,47.388,0,0,1-3.917-3.429q-1.242-1.215-2.395-2.519a2.78,2.78,0,0,1-.643-1.7,19.938,19.938,0,0,1,1.693-7.6q.35-.8.765-1.579t.891-1.52a22.857,22.857,0,0,1,1.558-2.15,23.415,23.415,0,0,1,2.456-2.581,23.234,23.234,0,0,1,2.1-1.684q.732-.521,1.506-.986a22.177,22.177,0,0,1,4.964-2.211q.437-.134.884-.248a28.91,28.91,0,0,1,6.649-.775h.038c2.463-.042,4.931-.054,7.4-.054q2.4,0,4.8.011,2.709.009,5.417.013v.046c3.986,0,7.975-.059,11.964-.059,2.5,0,5,.022,7.5.1q1.095.046,2.162.2t2.1.391q1.031.244,2.025.581a22.431,22.431,0,0,1,2.879,1.2q.463.232.914.484a22.7,22.7,0,0,1,5.614,4.438,22.652,22.652,0,0,1,3.021,4.14,22.591,22.591,0,0,1,1.347,2.8q.193.485.364.98.343.991.594,2.021a22.677,22.677,0,0,1,.52,3.039c.041.4.076.807.1,1.217a2.179,2.179,0,0,1-.177.77,2.167,2.167,0,0,1-.44.656q-.838.925-1.716,1.807t-1.791,1.718q-.914.837-1.863,1.63-.474.4-.957.78-.965.768-1.963,1.491a53.826,53.826,0,0,1-5.175,3.314q-1.605.9-3.27,1.7-.555.263-1.115.515-2.242,1-4.573,1.8-1.164.4-2.348.744t-2.385.637q-.6.146-1.205.277-1.813.4-3.659.668-1.231.181-2.473.305a59.266,59.266,0,0,1-6.38.347ZM357.762-263.5a17.244,17.244,0,0,0-8.886,5.8,15.809,15.809,0,0,0-3.558,8.171,41.817,41.817,0,0,0,8.475,6.935l.055.033.054.036a48.12,48.12,0,0,0,26.322,7.816h.077a54.048,54.048,0,0,0,5.779-.315l.025,0,.024,0a48.038,48.038,0,0,0,26.456-11.276q1.779-1.52,3.421-3.219a16.929,16.929,0,0,0-4.838-9.62,16.935,16.935,0,0,0-11.206-4.914c-2.161-.064-4.478-.094-7.291-.094-1.974,0-3.991.014-5.941.029-1.971.014-4.009.03-6.023.03h-5.651v-.059q-1.355-.005-2.711-.006c-.618,0-1.237,0-1.855,0-2.847,0-5.168.017-7.3.053h-.133A23.292,23.292,0,0,0,357.762-263.5Zm60.624-2.911a27.152,27.152,0,0,0-18.021-7.881h-.03l-.029,0c-2.046-.06-4.211-.092-6.757-.1a27.915,27.915,0,0,0,3.53-2.238c2.085,0,4.172.015,6.256.015v.035c4.986,0,9.976-.118,14.962.03a17.391,17.391,0,0,1,16.63,16.52,1.667,1.667,0,0,1-.474,1.1A41.352,41.352,0,0,1,426-251.821,27.144,27.144,0,0,0,418.386-266.412Zm-37.773-9.37a23.228,23.228,0,0,1-3.453-.276c-.376-.059-.748-.126-1.118-.2q-1.107-.23-2.174-.562t-2.086-.765a23.043,23.043,0,0,1-5.618-3.388,23.113,23.113,0,0,1-6.085-7.639q-.49-.988-.885-2.028a22.991,22.991,0,0,1-1.49-7.784,21.89,21.89,0,0,1,2.753-10.738,22.626,22.626,0,0,1,1.795-2.755q.664-.872,1.409-1.678t1.563-1.541a23.358,23.358,0,0,1,3.544-2.615q.949-.57,1.957-1.051a23.2,23.2,0,0,1,3.132-1.224q1.08-.333,2.2-.563a23.258,23.258,0,0,1,4.625-.466h.014a23.055,23.055,0,0,1,3.685.3,22.906,22.906,0,0,1,2.819.641q.907.266,1.782.6c.346.133.686.274,1.023.422a23.215,23.215,0,0,1,2.17,1.1q.383.219.758.453a23.364,23.364,0,0,1,2.17,1.532c.106.085.213.17.318.257.406.335.8.685,1.178,1.045.1.091.194.179.288.271.016.015.033.03.049.046a23.089,23.089,0,0,1,2.173,2.467c.3.392.579.8.851,1.206.335.5.654,1.018.948,1.548a22.151,22.151,0,0,1,2.056,5.118c.11.415.2.836.288,1.26a21.851,21.851,0,0,1,.428,4.358,21.85,21.85,0,0,1-1.429,7.722q-.2.518-.418,1.025a22.753,22.753,0,0,1-1.541,2.925,23.391,23.391,0,0,1-3.45,4.3,23.563,23.563,0,0,1-4.324,3.362q-.946.572-1.949,1.057t-2.052.868q-1.049.386-2.142.671t-2.219.459a22.624,22.624,0,0,1-3.448.265Zm-12.352-34.455a16.524,16.524,0,0,0-4.907,11.745,17.292,17.292,0,0,0,5.161,12.038,17.3,17.3,0,0,0,12.116,5.022h.081a17.324,17.324,0,0,0,11.094-4.083,17,17,0,0,0,6.228-12.935,16.571,16.571,0,0,0-4.941-11.8,18,18,0,0,0-1.517-1.353A17.352,17.352,0,0,0,380.7-315.41,17.433,17.433,0,0,0,368.261-310.236Zm35,29.015c-.429,0-.853-.026-1.274-.058a26.76,26.76,0,0,0,6.286-17.147,26.635,26.635,0,0,0-6.528-17.529c.517-.046,1.04-.074,1.57-.074A17.6,17.6,0,0,1,421-298.638a17.746,17.746,0,0,1-17.66,17.417Z" transform="translate(-337.655 325.061)" stroke="rgba(0,0,0,0)" stroke-miterlimit="10" stroke-width="1"/>
</svg>
