<svg id="icon_association" xmlns="http://www.w3.org/2000/svg" width="100" height="100" viewBox="0 0 100 100">
  <rect id="shape" width="100" height="100" fill="none"/>
  <path id="shape-2" data-name="shape" d="M464.157,531.494V519.1h1.234c3.916,0,7.833.045,11.747-.026a18.691,18.691,0,0,0,17.081-11.621,18.321,18.321,0,0,0-4.686-20.491,19.268,19.268,0,0,0-13.381-5c-3.577-.033-7.154-.006-10.731-.006h-1.268V469.62c.366-.02.726-.06,1.086-.057,4.517.037,9.042-.071,13.549.156a30.391,30.391,0,0,1,20.583,9.385,29.151,29.151,0,0,1,8.121,15.119,30,30,0,0,1-4.8,23.75,30.809,30.809,0,0,1-19.909,12.955,36.008,36.008,0,0,1-6.167.586c-3.8.09-7.605.027-11.408.024C464.881,531.539,464.55,531.511,464.157,531.494Z" transform="translate(-410.153 -450.563)"/>
  <path id="shape-3" data-name="shape" d="M257.016,519.018v12.29a1,1,0,0,1-.317.125c-5.106-.05-10.241.209-15.313-.23A29.958,29.958,0,0,1,218.3,517.48a28.728,28.728,0,0,1-4.545-23.039c2.923-13.029,11.258-21.088,24.346-24.287a30.689,30.689,0,0,1,6.481-.637c3.942-.1,7.888-.03,11.832-.027a4.2,4.2,0,0,1,.585.087v12.307c-.434,0-.864,0-1.294,0-4.28.047-8.571-.074-12.838.179a18.455,18.455,0,0,0-1.013,36.726,28.015,28.015,0,0,0,3.7.218C249.338,519.035,253.123,519.018,257.016,519.018Z" transform="translate(-211.016 -450.465)"/>
  <path id="shape-4" data-name="shape" d="M358.259,594.934c-3.215-.123-5.738-3.388-5.691-6.915.049-3.67,2.724-6.817,6.019-6.892,3.787-.087,7.576-.027,11.364-.029q7.046,0,14.093,0a6.012,6.012,0,0,1,5.893,4.064,7.273,7.273,0,0,1-.964,7.507,6.145,6.145,0,0,1-5.376,2.408c-4.015-.011-8.031,0-12.047,0C371.55,595.077,362.685,595.1,358.259,594.934Z" transform="translate(-321.568 -538.08)"/>
</svg>
