<svg id="icon_vetor_extensions" xmlns="http://www.w3.org/2000/svg" width="100" height="100" viewBox="0 0 100 100">
  <rect id="shape" width="100" height="100" fill="none"/>
  <g id="ps" transform="translate(13.006)">
    <path id="Path_19936" data-name="Path 19936" d="M12.881.61H45.963L74,30.145V87.591A12.937,12.937,0,0,1,61.143,100.61H12.881A12.942,12.942,0,0,1,0,87.591V13.629A12.942,12.942,0,0,1,12.881.61Z" transform="translate(0 -0.61)" fill="#ff9a00" fill-rule="evenodd"/>
    <path id="Path_19937" data-name="Path 19937" d="M237.139.61V29.92H265.2Z" transform="translate(-191.201 -0.61)" fill="rgba(255,255,255,0.3)" fill-rule="evenodd"/>
    <path id="Path_20001" data-name="Path 20001" d="M130.964,266.572h-.984a13.717,13.717,0,0,0-7.059-10.9h3.5a2.838,2.838,0,0,0,2.658,1.817,2.734,2.734,0,1,0,0-5.467,2.838,2.838,0,0,0-2.658,1.817h-7.7v-.9a.942.942,0,0,0-.949-.917h-3.763a.926.926,0,0,0-.932.917v.9h-7.715a2.734,2.734,0,1,0,0,1.833h3.521a13.638,13.638,0,0,0-7.059,10.9h-.984a.928.928,0,0,0-.949.9v3.65a.928.928,0,0,0,.949.9h3.763a.913.913,0,0,0,.932-.9v-3.65a.913.913,0,0,0-.932-.9h-.863a11.932,11.932,0,0,1,9.338-10.533v.533a.927.927,0,0,0,.932.917h3.763a.942.942,0,0,0,.949-.917v-.533a11.935,11.935,0,0,1,9.32,10.533H127.2a.917.917,0,0,0-.949.9v3.65a.917.917,0,0,0,.949.9h3.763a.913.913,0,0,0,.932-.9v-3.65a.913.913,0,0,0-.932-.9Z" transform="translate(-78.902 -192.022)" fill="#fff"/>
  </g>
</svg>
