<svg xmlns="http://www.w3.org/2000/svg" xmlns:xlink="http://www.w3.org/1999/xlink" width="148" height="148" viewBox="0 0 148 148">
  <defs>
    <clipPath id="clip-path">
      <circle id="user" cx="74" cy="74" r="74" transform="translate(286 32)" fill="#f2f2f2"/>
    </clipPath>
  </defs>
  <g id="user-2" data-name="user" transform="translate(-286 -32)" clip-path="url(#clip-path)">
    <circle id="user-3" data-name="user" cx="74" cy="74" r="74" transform="translate(286 32)" fill="#f2f2f2"/>
    <g id="icon_user" transform="translate(298 63)">
      <rect id="shape" width="124" height="124" fill="none"/>
      <path id="user-4" class="svg-fill-primary" data-name="user" d="M13.922,103.252A58.877,58.877,0,0,1,.8,92.178,3.45,3.45,0,0,1,0,90.066C.2,78.533,9.07,67.612,20.848,64.573a35.858,35.858,0,0,1,8.29-.965c7.274-.124,14.564-.038,21.844-.038v.057c8.042,0,16.09-.191,24.132.048a28.051,28.051,0,0,1,26.828,26.649,2.7,2.7,0,0,1-.765,1.768C89.6,104.466,75.412,111.823,58.407,113.648a73.745,73.745,0,0,1-7.914.432A66.81,66.81,0,0,1,13.922,103.252ZM50.866,56.146A28.568,28.568,0,0,1,22.459,28.063C22.384,12.7,35.255.01,50.954,0c15.658-.01,28.567,12.689,28.52,28.054-.034,15.305-13.025,28.092-28.486,28.092Z" transform="translate(11.16 4.96)" fill="#1080b0"/>
    </g>
  </g>
</svg>
