<svg id="icon_containers" xmlns="http://www.w3.org/2000/svg" width="100" height="119" viewBox="0 0 100 119">
  <rect id="shape" width="100" height="100" transform="translate(0 0)" fill="none" />
  <g id="icon" transform="translate(0 0)">
    <path id="Path_20285" data-name="Path 20285" d="M99.934,14.981A14.033,14.033,0,0,0,86.891.032a13.892,13.892,0,0,0-1.975.006H15.075A14.024,14.024,0,0,0,.081,13.026a13.613,13.613,0,0,0-.006,1.955C.05,38.265.162,61.542,0,84.825v.625A14.849,14.849,0,0,0,15.156,99.993h.006q34.836-.309,69.667,0h.625A14.853,14.853,0,0,0,100,84.838v-.012c-.162-23.277-.056-46.56-.056-69.837M90.8,84.188a7.184,7.184,0,0,1-6.575,6.622,24.14,24.14,0,0,1-3.856.312L50,91.135H19.5c-7.694,0-10.656-2.936-10.656-10.583V19.33c0-7.547,2.987-10.514,10.556-10.514H78.772a24.262,24.262,0,0,1,3.687.3,9.335,9.335,0,0,1,8.718,9.914l-.019.237v57a61.723,61.723,0,0,1-.337,7.9" />
    <path id="Path_20286" data-name="Path 20286" d="M8.987,7.3v.025a6.32,6.32,0,0,0-6.381,6.247V28.037a6.324,6.324,0,0,0,6.381,6.247,6.337,6.337,0,0,0,6.387-6.247V13.549A6.329,6.329,0,0,0,8.987,7.3" transform="translate(13.681 48.81)" />
    <path id="Path_20287" data-name="Path 20287" d="M11.943,7.3v.025a6.325,6.325,0,0,0-6.387,6.247V28.037a6.386,6.386,0,0,0,12.768,0V13.549A6.324,6.324,0,0,0,11.943,7.3" transform="translate(29.168 48.81)" />
    <path id="Path_20288" data-name="Path 20288" d="M14.894,7.3v.025a6.325,6.325,0,0,0-6.387,6.247V28.037a6.386,6.386,0,0,0,12.768,0V13.549A6.324,6.324,0,0,0,14.894,7.3" transform="translate(44.66 48.81)" />
    <path id="Path_20289" data-name="Path 20289" d="M17.84,7.3v.025a6.32,6.32,0,0,0-6.381,6.247V28.031a6.121,6.121,0,0,0,1.862,4.423,6.385,6.385,0,0,0,4.512,1.837h.013a6.329,6.329,0,0,0,6.381-6.253V13.549A6.329,6.329,0,0,0,17.84,7.3" transform="translate(60.157 48.81)" />
    <path id="Path_20290" data-name="Path 20290" d="M34.222,8.107a5.762,5.762,0,0,0-5.662-5.4c-6.806-.025-13.606-.025-20.474,0a5.763,5.763,0,0,0-5.55,5.585V18.521l-.006-.006v9.6a6.591,6.591,0,0,0,.15,1.724,5.8,5.8,0,0,0,5.887,4.5l12.75.012c1.206.006,2.412.012,3.619.012s2.419-.006,3.631-.025a5.742,5.742,0,0,0,5.662-5.66Z" transform="translate(13.245 14.121)" />
  </g>
</svg>
