<svg id="icon_generate" xmlns="http://www.w3.org/2000/svg" width="100" height="100.002" viewBox="0 0 100 100.002">
  <rect id="shape" width="100" height="100" fill="none"/>
  <path id="generate" d="M912.92,486.5l-10.85-8.25h.005a33.517,33.517,0,0,0,0-9.8l10.85-8.25a2.476,2.476,0,0,0,.617-3.2l-10.285-17.3a2.617,2.617,0,0,0-3.135-1.1l-12.8,5a37.808,37.808,0,0,0-8.687-4.9l-1.954-13.25a2.486,2.486,0,0,0-2.519-2.1H853.607a2.486,2.486,0,0,0-2.519,2.1l-1.953,13.25a39.751,39.751,0,0,0-8.687,4.9l-12.8-5a2.539,2.539,0,0,0-3.14,1.1L814.235,457a2.421,2.421,0,0,0,.617,3.2l10.85,8.25a33.327,33.327,0,0,0-.005,9.8l-10.85,8.25a2.477,2.477,0,0,0-.617,3.2l7.342,12.354c.153-.021.307-.04.462-.063l.359-.053c.152-.022.3-.044.457-.069.409-.07.814-.151,1.22-.234l.6-.118c.605-.133,1.212-.279,1.817-.444.741-.2,1.47-.428,2.189-.671.148-.049.291-.1.436-.155l.253-.093c.485-.175.965-.351,1.439-.543.23-.093.46-.191.682-.288.537-.23.966-.422,1.39-.626.262-.124.521-.25.778-.381.422-.212.838-.434,1.25-.663l.173-.095c.179-.1.361-.2.54-.3.452-.264.895-.539,1.334-.82l.54-.341c.61-.4,1.208-.823,1.79-1.259l.284-.226q.726-.544,1.418-1.131c.134-.112.263-.226.391-.339l.172-.154c.359-.315.715-.634,1.06-.962.2-.19.394-.384.589-.579.324-.318.64-.641.951-.974.189-.2.381-.406.566-.613.314-.348.615-.7.914-1.059l.154-.184c.116-.136.23-.271.34-.41.342-.427.671-.864.995-1.305l.31-.411q.622-.874,1.2-1.785l.274-.46c.28-.461.556-.923.818-1.4.089-.164.174-.327.261-.49l.1-.191c.164-.313.323-.63.479-.945a37.963,37.963,0,0,0,1.881-4.524l-6.675-3.827a6.376,6.376,0,0,1,1.5-11.685l19.891-5.4a6.382,6.382,0,0,1,7.822,4.483l5.367,19.777a6.374,6.374,0,0,1-9.322,7.2l-6.821-3.907a52.594,52.594,0,0,1-3.609,7.322c-.073.122-.15.245-.227.366l-.163.258c-.356.582-.717,1.157-1.1,1.723-.127.194-.263.383-.4.572l-.188.269c-.335.481-.674.962-1.027,1.431-.222.294-.449.585-.677.874q-.52.672-1.066,1.318c-.241.284-.485.57-.732.852-.372.432-.757.849-1.149,1.265l-.14.149c-.2.216-.4.433-.61.642-.427.435-.865.86-1.308,1.279l-.254.245c-.15.144-.3.285-.448.423-.584.535-1.189,1.055-1.8,1.562l-.317.273q-1.086.886-2.229,1.717c-.14.1-.28.195-.418.292l-.281.2c-.059.042-.12.081-.179.121,1.06.547,2.135,1.061,3.243,1.505l1.953,13.25a2.486,2.486,0,0,0,2.524,2.1h20.559a2.487,2.487,0,0,0,2.519-2.1L878.638,508a39.77,39.77,0,0,0,8.687-4.9l12.8,5a2.541,2.541,0,0,0,3.135-1.1l10.28-17.3A2.476,2.476,0,0,0,912.92,486.5Z" transform="translate(-813.881 -423.351)" fill="#040506"/>
</svg>
