<svg id="icon_p" xmlns="http://www.w3.org/2000/svg" width="100" height="100" viewBox="0 0 100 100">
  <rect id="shape" width="100" height="100" fill="none"/>
  <path id="AXIS" d="M-608.625-3379.742h-66a13.907,13.907,0,0,1-9.9-4.1,13.909,13.909,0,0,1-4.1-9.9v-66a13.908,13.908,0,0,1,4.1-9.9,13.908,13.908,0,0,1,9.9-4.1h66a13.908,13.908,0,0,1,9.9,4.1,13.908,13.908,0,0,1,4.1,9.9v66a13.909,13.909,0,0,1-4.1,9.9A13.907,13.907,0,0,1-608.625-3379.742Zm-50.412-69.234v3.6l4.616.793v32.484l-4.616.793v3.567h14.811v-3.567l-4.616-.793v-12.178h8.751c4.379,0,7.833-1.134,10.266-3.37a11.653,11.653,0,0,0,3.667-8.978,11.678,11.678,0,0,0-3.667-8.95c-2.434-2.255-5.888-3.4-10.266-3.4h-18.946Zm18.946,20.335h-8.751v-15.944h8.751c2.782,0,4.892.772,6.273,2.294a8.228,8.228,0,0,1,2.082,5.72,8.074,8.074,0,0,1-2.082,5.678C-635.2-3429.4-637.31-3428.642-640.091-3428.642Z" transform="translate(691.625 3476.741)" fill="#010101"/>
</svg>
