<svg xmlns="http://www.w3.org/2000/svg" width="24" height="24" viewBox="0 0 24 24">
  <g id="icon_rotate" transform="translate(3 -21)">
    <rect id="shapee" width="24" height="24" transform="translate(-3 21)" fill="none"/>
    <path id="shape" d="M16928.15,21071.445l-2.793-2.793a.5.5,0,0,1,0-.709l2.793-2.791a.5.5,0,0,1,.852.354v1.787a6,6,0,0,0,6-6,6.071,6.071,0,0,0-.437-2.254.96.96,0,0,1,.227-1.035,1,1,0,0,1,1.645.338,7.8,7.8,0,0,1,.566,2.951,8,8,0,0,1-8,8v1.8a.5.5,0,0,1-.5.494A.49.49,0,0,1,16928.15,21071.445Zm-6.578-7.2a7.8,7.8,0,0,1-.572-2.945,8,8,0,0,1,8-8v-1.787a.5.5,0,0,1,.846-.365l2.793,2.793a.492.492,0,0,1,0,.709l-2.793,2.791a.493.493,0,0,1-.846-.354v-1.787a6.007,6.007,0,0,0-6,6,5.868,5.868,0,0,0,.439,2.248.959.959,0,0,1-.229,1.041.989.989,0,0,1-.7.291A1,1,0,0,1,16921.572,21064.242Z" transform="translate(-16920 -21028)" fill="#787878"/>
    <path id="svg-fill-primary" d="M16927,21061.3a2,2,0,1,1,2,2A2.006,2.006,0,0,1,16927,21061.3Z" transform="translate(-16920 -21028)" fill="#efa106"/>
  </g>
</svg>
