<svg id="icon_content" xmlns="http://www.w3.org/2000/svg" width="100.003" height="100" viewBox="0 0 100.003 100">
  <rect id="shape" width="100" height="100" fill="none"/>
  <g id="content" transform="translate(-1345.699 -516.894)">
    <path id="paper" d="M1423.429,587.335a15.115,15.115,0,0,1,.2,1.574c.006,4.136,0,16.9-.012,21.033-.009,2.847-1.024,3.938-3.829,3.94q-34.136.023-68.272,0c-2.667,0-3.809-1.169-3.809-3.811,0-23,0-63.242,0-86.238,0-2.761,1.13-3.935,3.862-3.936q34.135-.014,68.271,0c2.641,0,3.76,1.165,3.774,3.858.019,3.75.071,16.127-.044,19.874a4.166,4.166,0,0,1-1.059,2.557c-8.051,8.233-16.1,16.465-24.3,24.549a12.806,12.806,0,0,0-4.276,8.939c-.1,2.7-.374,5.39-.368,8.085a9.046,9.046,0,0,0,10,8.718c2.757-.321,5.53-.523,8.3-.706a8.688,8.688,0,0,0,5.78-2.718q2.2-2.223,4.4-4.441C1422.412,588.249,1422.808,587.908,1423.429,587.335Zm-37.771-46.849q-11.7,0-23.393,0c-2.266,0-3.641,1.1-3.686,2.872-.05,1.94,1.4,3.214,3.713,3.267.218,0,.436,0,.654,0q22.657,0,45.314-.007a8.81,8.81,0,0,0,1.941-.172,2.811,2.811,0,0,0,2.389-3.353c-.149-1.655-1.391-2.6-3.539-2.606Q1397.354,540.473,1385.657,540.487Zm-4.7,20.6q8.746,0,17.491,0a20.993,20.993,0,0,0,2.12-.094,2.533,2.533,0,0,0,2.48-2.561,2.641,2.641,0,0,0-2.158-3.157,10.88,10.88,0,0,0-2.262-.226q-17.736-.02-35.472,0a6.528,6.528,0,0,0-2.409.286,3.564,3.564,0,0,0-1.771,1.484c-1.1,2.208.432,4.245,3.183,4.259C1368.422,561.112,1374.688,561.09,1380.954,561.091Zm-6.692,8.619v.005c-4.194,0-8.389-.035-12.582.016-1.941.023-2.991.984-3.144,2.63-.165,1.764.747,2.92,2.672,3.284a12.429,12.429,0,0,0,2.27.2q10.866.021,21.733-.005a13.861,13.861,0,0,0,2.579-.3,2.687,2.687,0,0,0,2.3-2.917c-.049-1.9-1.146-2.879-3.407-2.9C1382.541,569.685,1378.4,569.71,1374.262,569.71Zm-.855,14.467q-5.567,0-11.134,0c-1.445,0-2.723.36-3.368,1.84-.987,2.266.6,4.27,3.476,4.3,4.748.043,9.5.012,14.245.011,2.565,0,5.132.039,7.7-.021,1.312-.031,2.654-.165,3.289-1.656,1-2.34-.375-4.408-3.07-4.454C1380.83,584.132,1377.118,584.179,1373.407,584.176Z" transform="translate(0 0)"/>
    <path id="pencil" d="M1529.451,619.821l12.186,12.477c-2.2,2.187-4.569,4.529-6.92,6.9-4.752,4.787-9.447,9.635-14.278,14.34a7.015,7.015,0,0,1-3.528,1.724,73.058,73.058,0,0,1-7.328.646c-2.452.172-3.868-1.147-3.744-3.623.132-2.637.319-5.28.679-7.892a5.171,5.171,0,0,1,1.3-2.738c7.045-7.221,14.159-14.373,21.258-21.54A2.441,2.441,0,0,1,1529.451,619.821Z" transform="translate(-106.348 -65.515)"/>
    <path id="shape-2" data-name="shape" d="M2.55.03,8.539,0A2.444,2.444,0,0,1,11,2.461l-.064,12.347A2.506,2.506,0,0,1,8.449,17.3l-5.989.031A2.444,2.444,0,0,1,0,14.865L.062,2.518A2.506,2.506,0,0,1,2.55.03Z" transform="translate(1425.671 551.173) rotate(-45)"/>
  </g>
</svg>
