<svg id="icon_license" xmlns="http://www.w3.org/2000/svg" width="100" height="100" viewBox="0 0 100 100">
  <rect id="shape" width="100" height="100" fill="none"/>
  <path id="licenses" d="M-748.03,113.408V67.433a9.162,9.162,0,0,0-1.182-4.9,8.353,8.353,0,0,0-7.665-4.107c-15.766,0-34.837,0-50.6.011a9.277,9.277,0,0,0-2.007.176,8.525,8.525,0,0,0-6.813,8.672v36.471q-.012,18.195.009,36.4a11.469,11.469,0,0,0,.245,2.41,8.9,8.9,0,0,0,8.582,6.658c7.273-.122,16.2-.034,23.48-.034,8.761,0,19.172.012,27.93-.027a7.888,7.888,0,0,0,6.325-3.395,8.6,8.6,0,0,0,1.7-5.47Zm-52.438-31.1a.826.826,0,0,1,.683-.543l11.729-1.363,5.526-10.435a.823.823,0,0,1,.754-.439.827.827,0,0,1,.728.482l4.921,10.734,11.632,2.031a.826.826,0,0,1,.651.581.826.826,0,0,1-.233.841l-8.687,8,1.662,11.69a.826.826,0,0,1-.351.8.828.828,0,0,1-.467.144.825.825,0,0,1-.405-.106l-10.291-5.791-10.6,5.194a.826.826,0,0,1-.868-.088.826.826,0,0,1-.306-.817l2.328-11.576-8.216-8.48A.825.825,0,0,1-800.468,82.312Zm42.859,52.181a4.142,4.142,0,0,1-3.4,1.489c-1.517.021-3.051.026-4.567.026l-2.189,0-2.492,0q-4.392,0-8.784,0h-9.08c-4.805,0-9.775,0-14.663-.006-1.9,0-3.409-.643-4.028-1.709a2.121,2.121,0,0,1,.026-2.185,3.726,3.726,0,0,1,3.234-1.736c.161-.012.308-.018.45-.018h8.144c11.1,0,22.586,0,33.879.01,1.853,0,3.289.8,3.748,2.074A2.215,2.215,0,0,1-757.609,134.492Zm0-14.872a4.142,4.142,0,0,1-3.4,1.489c-1.517.021-3.051.026-4.567.026l-2.189,0-2.492,0q-4.392,0-8.784,0h-9.08c-4.805,0-9.775,0-14.663-.006-1.9,0-3.409-.643-4.028-1.709a2.12,2.12,0,0,1,.026-2.185,3.726,3.726,0,0,1,3.234-1.736c.161-.012.308-.018.45-.018h8.144c11.1,0,22.586,0,33.879.01,1.853,0,3.289.8,3.748,2.074A2.214,2.214,0,0,1-757.609,119.62Z" transform="translate(832.547 -53.412)" fill="#181818"/>
</svg>
