<svg id="icon_pin" xmlns="http://www.w3.org/2000/svg" width="100" height="100" viewBox="0 0 100 100">
  <rect id="shape" width="100" height="100" fill="none"/>
  <g id="icone" transform="translate(0.673 2.615)">
    <path id="shape-2" data-name="shape" d="M23.09,18.52,3.325,38.285a2.16,2.16,0,1,0,2.81,3.281,2.02,2.02,0,0,0,.235-.235L26.136,21.566Z" transform="translate(0 52.25)"/>
    <path id="shape-3" data-name="shape" d="M89.424,25.44,66.656,2.678A7.53,7.53,0,0,0,56.148,13.183a.6.6,0,0,1,0,.735L43.573,26.491A9.074,9.074,0,0,1,32.223,28a16.012,16.012,0,0,0-20.456,1.856L7.7,33.985a3.5,3.5,0,0,0,0,4.868L53.24,84.377a3.5,3.5,0,0,0,4.939,0l4.133-4.132A16,16,0,0,0,64.1,59.864a9.068,9.068,0,0,1,1.506-11.346L78.04,36.086a.6.6,0,0,1,.736,0A7.53,7.53,0,0,0,89.284,25.58Z" transform="translate(4.812 0)"/>
  </g>
</svg>
