<svg id="icon_code" xmlns="http://www.w3.org/2000/svg" width="100" height="100" viewBox="0 0 100 100">
  <rect id="shape" width="100" height="100" fill="none"/>
  <g id="code" transform="translate(-3201.587 6501.703)">
    <path id="shape-2" data-name="shape" d="M3383.985-6490.731h0c-.937-.241-1.875-.476-2.814-.712-3.018-.757-4.418.1-5.163,3.147l-6.818,27.939q-4.741,19.427-9.481,38.854c-.315,1.291-.616,2.584-.882,3.726-.1.448-.2.872-.3,1.261.033,1.933.9,3.244,2.438,3.7.885.26,1.8.487,2.693.708l.849.211c2.594.654,4.169-.311,4.813-2.953q3.9-15.994,7.809-31.987l4.8-19.664q2.392-9.787,4.775-19.577A3.5,3.5,0,0,0,3383.985-6490.731Z" transform="translate(-121.068)"/>
    <path id="shape-3" data-name="shape" d="M3226.925-6415.326a6.555,6.555,0,0,0-2.466-.536,4.79,4.79,0,0,0-3.509,1.575c-6.185,6.28-11.375,11.572-16.6,16.98-2.41,2.5-2.35,5.767.152,8.33l2.242,2.3c2.215,2.271,4.5,4.621,6.768,6.918.689.7,1.373,1.4,2.057,2.109,1.928,1.987,3.923,4.043,5.991,5.92a4.549,4.549,0,0,0,3.717,1.049,5.307,5.307,0,0,0,3.737-2.349,5.936,5.936,0,0,0-1.01-7.634c-3.59-3.709-7.112-7.342-10.742-11a2.3,2.3,0,0,1-.835-1.583,2.268,2.268,0,0,1,.8-1.545c2.39-2.383,4.784-4.848,7.1-7.23q1.826-1.88,3.657-3.753a6.41,6.41,0,0,0,2.108-4.2A5.9,5.9,0,0,0,3226.925-6415.326Z" transform="translate(0 -58.464)"/>
    <path id="shape-4" data-name="shape" d="M3544.106-6396.965l-2.043-2.1c-4.7-4.843-9.569-9.852-14.409-14.716a5.553,5.553,0,0,0-3.94-1.683,5.273,5.273,0,0,0-3.8,1.624,5.673,5.673,0,0,0,.113,7.947c.456.5.946.995,1.42,1.474q.306.309.61.619,1.191,1.22,2.378,2.442c2.22,2.282,4.516,4.642,6.8,6.932a2.2,2.2,0,0,1,.779,1.625,2.051,2.051,0,0,1-.882,1.42,3.124,3.124,0,0,0-.344.344c-.069.077-.139.153-.21.227q-1.6,1.645-3.205,3.281c-2.45,2.5-4.984,5.086-7.411,7.685a5.692,5.692,0,0,0-1.547,4.13,5.725,5.725,0,0,0,1.878,4.033c2.167,1.979,5.285,1.731,7.58-.6,3.7-3.76,7.446-7.6,11.068-11.315q2.613-2.68,5.227-5.356a5.171,5.171,0,0,0,1.529-4.088l0-.065.007-.065A4.612,4.612,0,0,0,3544.106-6396.965Z" transform="translate(-245.139 -58.769)"/>
  </g>
</svg>
