<svg id="icon_filter" xmlns="http://www.w3.org/2000/svg" width="20" height="20" viewBox="0 0 20 20">
  <path id="Path_50513" d="M0,0H20V20H0Z" fill="none" />
  <path id="Path_50514" d="M3,14.667a.78.78,0,0,0,.778.778H7.667V13.889H3.778A.78.78,0,0,0,3,14.667ZM3,5.333a.78.78,0,0,0,.778.778h7V4.556h-7A.78.78,0,0,0,3,5.333Zm7.778,10.889v-.778h5.444a.778.778,0,0,0,0-1.556H10.778v-.778a.778.778,0,0,0-1.556,0v3.111a.778.778,0,0,0,1.556,0ZM6.111,8.444v.778H3.778a.778.778,0,0,0,0,1.556H6.111v.778a.778.778,0,0,0,1.556,0V8.444a.778.778,0,0,0-1.556,0ZM17,10a.78.78,0,0,0-.778-.778h-7v1.556h7A.78.78,0,0,0,17,10ZM13.111,7.667a.78.78,0,0,0,.778-.778V6.111h2.333a.778.778,0,0,0,0-1.556H13.889V3.778a.778.778,0,1,0-1.556,0V6.889A.78.78,0,0,0,13.111,7.667Z" transform="translate(0 0)" />
</svg>
