<svg id="Layout_t4" data-name="Layout t4" xmlns="http://www.w3.org/2000/svg" width="100" height="100" viewBox="0 0 100 100">
  <rect id="shape" width="100" height="100" fill="none"/>
  <g id="Grupo_1469" data-name="Grupo 1469" transform="translate(-357.007 -169)">
    <path id="Caminho_19842" data-name="Caminho 19842" d="M2,0H94a2,2,0,0,1,2,2V13a2,2,0,0,1-2,2H2a2,2,0,0,1-2-2V2A2,2,0,0,1,2,0Z" transform="translate(359.007 188)" fill="#181818"/>
    <path id="Caminho_19844" data-name="Caminho 19844" d="M2,0H94a2,2,0,0,1,2,2v9a2,2,0,0,1-2,2H2a2,2,0,0,1-2-2V2A2,2,0,0,1,2,0Z" transform="translate(359.007 205)" fill="#181818"/>
    <path id="Caminho_19840" data-name="Caminho 19840" d="M-15,15H77a2,2,0,0,1,2,2V43a2,2,0,0,1-2,2H-15a2,2,0,0,1-2-2V17A2,2,0,0,1-15,15Z" transform="translate(376.007 205)" fill="#181818"/>
  </g>
</svg>
