<svg id="icon_helpcenter" xmlns="http://www.w3.org/2000/svg" width="100" height="100" viewBox="0 0 100 100">
  <rect id="shape" width="100" height="100" fill="none"/>
  <path id="helpcenter" d="M44.641,89.72a9.276,9.276,0,0,1,.582-18.352,38.92,38.92,0,0,1,7.765.037A8.824,8.824,0,0,1,60.03,76.48a1.112,1.112,0,0,0,1.134.717c3.431,0,6.862.056,10.294.057,3.261,0,4.912-1.66,4.912-4.881q0-17.665.005-35.328c0-4.168-.125-8.322-1.693-12.261C71.12,15.83,64.692,9.951,55.212,7.667a26.271,26.271,0,0,0-21.1,3.674A26.722,26.722,0,0,0,21.894,30.107a30.392,30.392,0,0,0-.265,5.031c-.017,7.982.016,15.965.011,23.947a6.4,6.4,0,0,1-4.665,6.593,5.152,5.152,0,0,1-1.465.258c-3.494-.03-7,.051-10.478-.2-2.641-.188-4.823-2.879-5-5.641C.014,59.769,0,59.44,0,59.11q0-11.478,0-22.958a6.174,6.174,0,0,1,6.2-6.6c1.727-.1,3.461-.088,5.194-.077.767,0,1.533.009,2.3,0,.395,0,.79,0,1.282,0a33.09,33.09,0,0,1,4.466-12.731A33.454,33.454,0,0,1,41.782.777,34.24,34.24,0,0,1,78.665,16.963a28.792,28.792,0,0,1,4.128,11.555c.085.728.357.991,1.132.982,2.7-.03,5.394.017,8.092.037a6.232,6.232,0,0,1,5.95,6.153q.063,12.072-.008,24.145c-.025,3.462-2.948,6.087-6.653,6.136-1.7.022-3.394.02-5.091.018q-1.253,0-2.5,0a2.346,2.346,0,0,0-.343.079c0,.375.014.789,0,1.2a60.371,60.371,0,0,1-.4,8.174A10.576,10.576,0,0,1,72.342,84q-5.5.029-10.994-.006a1.249,1.249,0,0,0-1.316.738,9.215,9.215,0,0,1-8.328,5.21c-.977.024-1.963.054-2.946.054A25.564,25.564,0,0,1,44.641,89.72Zm2.775-25.037a1.422,1.422,0,0,1-1.264-.791c-.732-1.267-1.448-2.542-2.188-3.8a1.156,1.156,0,0,0-.488-.454c-.9-.4-1.807-.77-2.721-1.128a.97.97,0,0,0-.561-.025c-1.441.384-2.877.784-4.314,1.184a1.564,1.564,0,0,1-1.608-.436q-1.012-.993-2.011-2a1.672,1.672,0,0,1-.52-1.141c.21-.814.41-1.629.633-2.438.211-.763.459-1.517.664-2.28a.941.941,0,0,0-.032-.558q-.553-1.4-1.156-2.775a.9.9,0,0,0-.364-.383c-1.281-.739-2.573-1.462-3.86-2.193A1.541,1.541,0,0,1,26.789,44c.015-.9.009-1.81,0-2.715a1.567,1.567,0,0,1,.84-1.5q1.955-1.09,3.9-2.206a.843.843,0,0,0,.336-.357q.616-1.412,1.19-2.842a.752.752,0,0,0,.017-.452c-.4-1.453-.83-2.9-1.227-4.356a1.5,1.5,0,0,1,.408-1.539Q33.266,27.014,34.281,26a1.576,1.576,0,0,1,1.642-.43c1.437.4,2.873.8,4.313,1.191a.832.832,0,0,0,.494-.03q1.439-.57,2.86-1.18a.773.773,0,0,0,.337-.309c.734-1.266,1.456-2.538,2.177-3.81a1.628,1.628,0,0,1,1.588-.9c.885.027,1.771.011,2.656,0a1.6,1.6,0,0,1,1.534.86c.727,1.3,1.472,2.585,2.22,3.871a.777.777,0,0,0,.335.308q1.44.615,2.9,1.191a.768.768,0,0,0,.456.01c1.437-.4,2.87-.811,4.307-1.208a1.557,1.557,0,0,1,1.611.421c.668.668,1.345,1.327,2.018,1.991a1.547,1.547,0,0,1,.438,1.63c-.4,1.428-.807,2.856-1.2,4.288a.824.824,0,0,0,.017.489c.379.941.769,1.878,1.18,2.806a.957.957,0,0,0,.385.405c1.281.74,2.571,1.465,3.862,2.189a1.4,1.4,0,0,1,.792,1.255q.018,1.579,0,3.159a1.41,1.41,0,0,1-.789,1.259c-1.29.726-2.581,1.448-3.862,2.189a1.089,1.089,0,0,0-.426.465q-.588,1.322-1.116,2.672a1.137,1.137,0,0,0-.029.662c.378,1.422.78,2.837,1.178,4.254a1.489,1.489,0,0,1-.413,1.535q-1.02,1.036-2.063,2.051a1.511,1.511,0,0,1-1.548.394c-1.449-.4-2.9-.806-4.349-1.2a.835.835,0,0,0-.491.017q-1.419.564-2.824,1.17a.9.9,0,0,0-.39.352q-1.115,1.912-2.2,3.839a1.441,1.441,0,0,1-1.283.819q-.751.01-1.5.009Q48.254,64.691,47.416,64.683ZM49.023,33a9.617,9.617,0,1,0,.048,0Z" transform="translate(1 5)" fill="#181818"/>
</svg>
