<svg id="icon_txt_extension_light" xmlns="http://www.w3.org/2000/svg" width="100" height="100" viewBox="0 0 100 100">
  <rect id="shape" width="100" height="100" fill="none"/>
  <g id="ps" transform="translate(13.006)">
    <path id="background" d="M12.881.61H45.963L74,30.145V87.591A12.937,12.937,0,0,1,61.143,100.61H12.881A12.942,12.942,0,0,1,0,87.591V13.629A12.942,12.942,0,0,1,12.881.61Z" transform="translate(0 -0.61)" fill="#e8e8e8" fill-rule="evenodd"/>
    <path id="fold" d="M237.139.61V29.92H265.2Z" transform="translate(-191.201 -0.61)" fill="#251d36" fill-rule="evenodd" opacity="0.3"/>
    <path id="icon" d="M75.291,299.457V284.823H69.942V280.76H85.4v4.063H80.075v14.633Zm27.492,0H97.769l-3.42-5.735-3.42,5.735H85.887l5.941-9.979-5.2-8.718h5.015l2.7,4.526,2.675-4.526h5.041L96.868,289.5l5.915,9.953Zm5.812,0V284.823h-5.323V280.76h15.456v4.063h-5.349v14.633Z" transform="translate(-57.341 -215.976)" fill="#251d36"/>
  </g>
</svg>
