<svg id="icon_pause" xmlns="http://www.w3.org/2000/svg" width="100" height="100" viewBox="0 0 100 100">
  <rect id="shape" width="100" height="100" fill="none"/>
  <path id="shape-2" data-name="shape" d="M447.827,427.3q0-20.6,0-41.206c0-4.271,2.628-6.888,6.9-6.889q7.188,0,14.377,0a6.391,6.391,0,0,1,6.705,6.433c.01.263,0,.527,0,.79q0,40.811.007,81.622a7.132,7.132,0,0,1-1.272,4.579A6.209,6.209,0,0,1,469.4,475.2c-5.056-.005-10.113.018-15.169-.008a6.257,6.257,0,0,1-6.4-6.458Q447.816,448.018,447.827,427.3Z" transform="translate(-389.825 -377.204)"/>
  <path id="shape-3" data-name="shape" d="M271.369,427.163c0,13.692-.074,27.385.047,41.076a6.712,6.712,0,0,1-7,6.957c-4.745-.171-9.5-.033-14.252-.042-4.088-.007-6.736-2.6-6.738-6.687q-.018-41.3,0-82.6c0-4.038,2.721-6.658,6.791-6.661q7.24,0,14.48,0a6.337,6.337,0,0,1,6.669,6.658Q271.376,406.513,271.369,427.163Z" transform="translate(-229.417 -377.2)"/>
</svg>
