<svg id="icon_aggregator" xmlns="http://www.w3.org/2000/svg" width="20" height="20" viewBox="0 0 20 20">
  <g id="Group_6183" data-name="Group 6183" transform="translate(2.496 3)">
    <g id="Group_6183-2" data-name="Group 6183" clip-path="url(#clip-path)">
      <path id="Path_22015" data-name="Path 22015" d="M15.869,10.22a2.684,2.684,0,0,0-5.076-.1A2.444,2.444,0,0,1,8.863,7.754V2.92l.907.907a.871.871,0,0,0,1.225,0,.852.852,0,0,0,0-1.2l0,0L8.628.25A.9.9,0,0,0,7.4.233h0L5.019,2.6A.866.866,0,0,0,6.244,3.826l.89-.89V7.754A2.43,2.43,0,0,1,5.22,10.121a2.691,2.691,0,1,0,.034,1.746,4.147,4.147,0,0,0,2.753-1.595,4.147,4.147,0,0,0,2.753,1.595,2.684,2.684,0,0,0,5.109-1.648M2.72,12a.957.957,0,1,1,.956-.956A.957.957,0,0,1,2.72,12M13.3,12a.957.957,0,0,1-.957-.957.946.946,0,0,1,.935-.957H13.3A.957.957,0,0,1,13.3,12" transform="translate(0 0)" />
    </g>
  </g>
</svg>