<svg id="icon_launch" xmlns="http://www.w3.org/2000/svg" width="16" height="16" viewBox="0 0 16 16">
  <rect id="shape" width="100" height="100" fill="none"/>
  <path id="svg-primary-color" d="M15,4H4.5A1.5,1.5,0,0,0,3,5.5v9A1.5,1.5,0,0,0,4.5,16H6.75a.75.75,0,0,0,0-1.5H4.5V7H15v7.5H12.75a.75.75,0,0,0,0,1.5H15a1.5,1.5,0,0,0,1.5-1.5v-9A1.5,1.5,0,0,0,15,4ZM9.487,8.762,7.395,10.855a.376.376,0,0,0,.263.645H9v3.75a.75.75,0,1,0,1.5,0V11.5h1.342a.371.371,0,0,0,.263-.638L10.013,8.77a.369.369,0,0,0-.525-.008Z" transform="translate(-2 -2)" fill="#181818"/>
</svg>
