<svg id="icon_rotate_180" xmlns="http://www.w3.org/2000/svg" width="100" height="100" viewBox="0 0 100 100">
  <g id="rotate_180" data-name="rotate 180" transform="translate(320.079 -283)">
    <rect id="shape" width="100" height="100" transform="translate(-320.079 283)" fill="none"/>
    <g id="triagles" transform="translate(-302.079 294)">
      <path id="path_outlined" data-name="path outlined" d="M-290.5,306l43.213.007a3.389,3.389,0,0,1,3.091,5.065l-42.938,71.434c-1.808,3.007-6.638,1.8-6.652-1.668l-.275-71.44A3.475,3.475,0,0,1-290.5,306Zm11.934,44.778,15.591-28.526a3.394,3.394,0,0,0-3.159-4.947h-15.591a3.477,3.477,0,0,0-3.561,3.385v28.526C-285.29,352.761-280.289,353.923-278.57,350.778Z" transform="translate(294.065 -306)"/>
      <path id="path_full" data-name="path full" d="M-233.106,309.344v71.534a3.44,3.44,0,0,1-3.532,3.34h-43.3a3.344,3.344,0,0,1-3.067-5l43.3-71.534C-237.9,304.715-233.106,305.921-233.106,309.344Z" transform="translate(297.133 -306)"/>
    </g>
  </g>
</svg>
