<svg id="icon_save" xmlns="http://www.w3.org/2000/svg" width="100" height="100" viewBox="0 0 100 100">
  <rect id="shape" width="100" height="100" fill="none"/>
  <path id="shape-2" data-name="shape" d="M108.633,28.867,89.987,10.221a7.693,7.693,0,0,0-5.406-2.236H34.429a7.526,7.526,0,0,0-7.554,7.48V88.9a7.518,7.518,0,0,0,7.48,7.554h68.966a7.51,7.51,0,0,0,7.554-7.48v-54.7A7.694,7.694,0,0,0,108.633,28.867ZM41.286,36.533v-11.4l-.019-.006a2.838,2.838,0,0,1,2.765-2.89H75.1a2.9,2.9,0,0,1,2.89,2.89v11.4a2.9,2.9,0,0,1-2.89,2.89H44.176A2.9,2.9,0,0,1,41.286,36.533ZM68.875,81.7A11.163,11.163,0,1,1,80.042,70.537,11.163,11.163,0,0,1,68.875,81.7Z" transform="translate(-18.875 -1.684)"/>
</svg>
