<svg id="icon_camera_outdoor" xmlns="http://www.w3.org/2000/svg" width="24" height="24" viewBox="0 0 24 24">
  <rect id="shape" width="24" height="24" fill="none"/>
  <path id="camera_outdoor" d="M18,13a1,1,0,0,0-1-1H13a1,1,0,0,0-1,1v4a1,1,0,0,0,1,1h4a1,1,0,0,0,1-1V16l1.27.67a.494.494,0,0,0,.73-.44V13.77a.494.494,0,0,0-.73-.44L18,14ZM10.8,3.9l-6,4.5A2.013,2.013,0,0,0,4,10v9a2.006,2.006,0,0,0,2,2H19a1,1,0,0,0,1-1h0a1,1,0,0,0-1-1H6V10l6-4.5L18,10v1h2V10a2.013,2.013,0,0,0-.8-1.6l-6-4.5A2.01,2.01,0,0,0,10.8,3.9Z"/>
</svg>
