<svg id="icon_c" xmlns="http://www.w3.org/2000/svg" width="100" height="100" viewBox="0 0 100 100">
  <rect id="shape" width="100" height="100" fill="none"/>
  <path id="AXIS" d="M-608.625-3379.489h-66a13.908,13.908,0,0,1-9.9-4.1,13.91,13.91,0,0,1-4.1-9.9v-66a13.907,13.907,0,0,1,4.1-9.9,13.908,13.908,0,0,1,9.9-4.1h66a13.908,13.908,0,0,1,9.9,4.1,13.907,13.907,0,0,1,4.1,9.9v66a13.91,13.91,0,0,1-4.1,9.9A13.908,13.908,0,0,1-608.625-3379.489Zm-30.649-68a16.7,16.7,0,0,0-13.282,5.933c-3.364,3.937-5.07,8.982-5.07,15v.595c0,5.976,1.734,11.007,5.154,14.954a16.75,16.75,0,0,0,13.2,5.947,18.21,18.21,0,0,0,8.269-1.8,15.51,15.51,0,0,0,5.353-4.092v-7.334h-3.937l-1.048,5.834a9.8,9.8,0,0,1-3.54,2.152,14.235,14.235,0,0,1-5.1.878,11.873,11.873,0,0,1-5.349-1.172,11.114,11.114,0,0,1-4.039-3.516,19.823,19.823,0,0,1-3.385-11.852v-.652a19.405,19.405,0,0,1,3.455-11.823,11.107,11.107,0,0,1,4.2-3.494,13.248,13.248,0,0,1,5.685-1.165,12.021,12.021,0,0,1,4.729.849,10.847,10.847,0,0,1,3.342,2.181l1.048,5.835h3.937v-7.335a15.984,15.984,0,0,0-5.353-4.092A17.991,17.991,0,0,0-639.274-3447.489Z" transform="translate(691.625 3476.741)" fill="#010101"/>
</svg>
