<svg id="icon_3" xmlns="http://www.w3.org/2000/svg" width="100" height="100" viewBox="0 0 100 100">
  <rect id="shape" width="100" height="100" fill="none"/>
  <path id="AXIS" d="M-608.625-3379.742h-66a13.907,13.907,0,0,1-9.9-4.1,13.909,13.909,0,0,1-4.1-9.9v-66a13.908,13.908,0,0,1,4.1-9.9,13.908,13.908,0,0,1,9.9-4.1h66a13.908,13.908,0,0,1,9.9,4.1,13.908,13.908,0,0,1,4.1,9.9v66a13.909,13.909,0,0,1-4.1,9.9A13.907,13.907,0,0,1-608.625-3379.742Zm-47.453-38.875h0l-.085.17a9.82,9.82,0,0,0,3.54,8.256,14.24,14.24,0,0,0,9.346,3.044,13.894,13.894,0,0,0,9.445-3.228,11.2,11.2,0,0,0,3.7-8.864,11.282,11.282,0,0,0-1.544-5.834,9.1,9.1,0,0,0-5.253-3.823,9.786,9.786,0,0,0,4.631-3.866,9.743,9.743,0,0,0,1.543-5.083c0-3.74-1.143-6.66-3.4-8.68s-5.324-3.044-9.12-3.044a13.067,13.067,0,0,0-9.218,3.271,10.034,10.034,0,0,0-3.385,7.944l.057.169h5.353a6.792,6.792,0,0,1,1.968-5.083,7.21,7.21,0,0,1,5.225-1.912,6.866,6.866,0,0,1,5.183,1.841,7.544,7.544,0,0,1,1.756,5.381,7.89,7.89,0,0,1-1.543,5.169c-1.025,1.231-2.792,1.855-5.253,1.855h-4.872v4.362h4.872c2.556,0,4.452.61,5.635,1.813s1.785,3.1,1.785,5.636a7.561,7.561,0,0,1-2.011,5.693,7.733,7.733,0,0,1-5.551,1.925,7.6,7.6,0,0,1-5.48-1.925,6.9,6.9,0,0,1-2-5.183Z" transform="translate(691.625 3476.741)" fill="#010101"/>
</svg>
