<svg width="18" height="18" viewBox="0 0 18 18" fill="none" xmlns="http://www.w3.org/2000/svg">
<path d="M3.75 15.75C3.3375 15.75 2.98438 15.6031 2.69063 15.3094C2.39687 15.0156 2.25 14.6625 2.25 14.25C2.25 13.8375 2.39687 13.4844 2.69063 13.1906C2.98438 12.8969 3.3375 12.75 3.75 12.75C4.1625 12.75 4.51563 12.8969 4.80938 13.1906C5.10313 13.4844 5.25 13.8375 5.25 14.25C5.25 14.6625 5.10313 15.0156 4.80938 15.3094C4.51563 15.6031 4.1625 15.75 3.75 15.75ZM12.75 15.75C12.75 14.2875 12.475 12.9219 11.925 11.6531C11.375 10.3844 10.625 9.275 9.675 8.325C8.725 7.375 7.61563 6.625 6.34688 6.075C5.07813 5.525 3.7125 5.25 2.25 5.25V3C4.025 3 5.68125 3.33125 7.21875 3.99375C8.75625 4.65625 10.1063 5.56875 11.2688 6.73125C12.4313 7.89375 13.3438 9.24375 14.0063 10.7813C14.6688 12.3188 15 13.975 15 15.75H12.75ZM8.25 15.75C8.25 14.9125 8.09375 14.1344 7.78125 13.4156C7.46875 12.6969 7.0375 12.0625 6.4875 11.5125C5.9375 10.9625 5.30313 10.5313 4.58438 10.2188C3.86563 9.90625 3.0875 9.75 2.25 9.75V7.5C3.4 7.5 4.47188 7.71563 5.46563 8.14688C6.45938 8.57813 7.33125 9.16875 8.08125 9.91875C8.83125 10.6688 9.42188 11.5406 9.85313 12.5344C10.2844 13.5281 10.5 14.6 10.5 15.75H8.25Z" fill="#DC5F46"/>
</svg>
