<svg id="icon_unfold-more" xmlns="http://www.w3.org/2000/svg" width="100" height="100" viewBox="0 0 100 100">
  <rect id="shape" width="100" height="100" fill="none"/>
  <path id="Path_50379" data-name="Path 50379" d="M24,13.934l14.15,14.15a5.733,5.733,0,1,0,8.1-8.11L28.021,1.682a5.721,5.721,0,0,0-8.1,0L1.683,19.973a5.735,5.735,0,0,0,8.11,8.11Zm0,70.979L9.851,70.763a5.735,5.735,0,0,0-8.11,8.11L19.974,97.164a5.721,5.721,0,0,0,8.1,0L46.312,78.931a5.735,5.735,0,1,0-8.11-8.11Z" transform="translate(26.002 0.361)" fill="#181818"/>
</svg>
