<svg id="icon_eye" xmlns="http://www.w3.org/2000/svg" width="100" height="100" viewBox="0 0 100 100">
  <rect id="shape" width="100" height="100" fill="none"/>
  <path id="eye" d="M93.432,33.143A52.4,52.4,0,0,0,47,4.5,52.406,52.406,0,0,0,.568,33.144a5.174,5.174,0,0,0,0,4.713A52.4,52.4,0,0,0,47,66.5,52.406,52.406,0,0,0,93.432,37.856,5.174,5.174,0,0,0,93.432,33.143ZM47,58.75A23.251,23.251,0,1,1,70.5,35.5,23.376,23.376,0,0,1,47,58.75ZM47,20a15.709,15.709,0,0,0-4.13.612A7.665,7.665,0,0,1,42.1,30.654a7.871,7.871,0,0,1-10.15.76,15.384,15.384,0,0,0,6.377,16.893,15.767,15.767,0,0,0,18.218-.569A15.367,15.367,0,0,0,61.833,30.48,15.619,15.619,0,0,0,47,20Z" transform="translate(3 14.5)"/>
</svg>
