<svg id="icon_grid" xmlns="http://www.w3.org/2000/svg" width="100" height="100" viewBox="0 0 100 100">
  <rect id="shape" width="100" height="100" fill="none"/>
  <path id="grid" d="M-751.8-922.577a6,6,0,0,1-6-6v-10.632a6,6,0,0,1,6-6h10.632a6,6,0,0,1,6,6v10.632a6,6,0,0,1-6,6Zm-31.684,0a6,6,0,0,1-6-6v-10.632a6,6,0,0,1,6-6h10.632a6,6,0,0,1,6,6v10.632a6,6,0,0,1-6,6Zm-31.685,0a6,6,0,0,1-6-6v-10.632a6,6,0,0,1,6-6h10.632a6,6,0,0,1,6,6v10.632a6,6,0,0,1-6,6Zm63.368-31.684a6,6,0,0,1-6-6v-10.632a6,6,0,0,1,6-6h10.632a6,6,0,0,1,6,6v10.632a6,6,0,0,1-6,6Zm-31.684,0a6,6,0,0,1-6-6v-10.632a6,6,0,0,1,6-6h10.632a6,6,0,0,1,6,6v10.632a6,6,0,0,1-6,6Zm-31.685,0a6,6,0,0,1-6-6v-10.632a6,6,0,0,1,6-6h10.632a6,6,0,0,1,6,6v10.632a6,6,0,0,1-6,6Zm63.368-31.684a6,6,0,0,1-6-6v-10.632a6,6,0,0,1,6-6h10.632a6,6,0,0,1,6,6v10.632a6,6,0,0,1-6,6Zm-31.684,0a6,6,0,0,1-6-6v-10.632a6,6,0,0,1,6-6h10.632a6,6,0,0,1,6,6v10.632a6,6,0,0,1-6,6Zm-31.685,0a6,6,0,0,1-6-6v-10.632a6,6,0,0,1,6-6h10.632a6,6,0,0,1,6,6v10.632a6,6,0,0,1-6,6Z" transform="translate(828.164 1015.577)"/>
</svg>
