<svg id="icon_scale" xmlns="http://www.w3.org/2000/svg" width="42" height="42" viewBox="0 0 42 42">
  <rect id="shape" width="42" height="42" fill="none"/>
  <path id="scale" d="M23,17.75V12.5C30.98,11.485,37,7.075,37,2H2c0,5.075,6.02,9.485,14,10.5v5.25C9.56,19.027,2,24.067,2,37H12.5V33.5H5.728C7.355,21.548,17.365,20.9,19.5,20.9s12.145.648,13.773,12.6H26.5V37H37C37,24.067,29.44,19.027,23,17.75ZM19.5,37A3.51,3.51,0,0,1,16,33.5a3.422,3.422,0,0,1,1.032-2.468c1.4-1.4,9.468-4.532,9.468-4.532s-3.133,8.068-4.533,9.468A3.422,3.422,0,0,1,19.5,37Z" transform="translate(1.5 1.5)"/>
</svg>
