<svg id="icon_check" xmlns="http://www.w3.org/2000/svg" width="100" height="100" viewBox="0 0 100 100">
  <rect id="shape" width="100" height="100" fill="none"/>
  <path id="check" d="M-1565.646,743.752c-1.646-1.743-6.07-5.906-6.68-6.119a4.278,4.278,0,0,0-4.734,1.334c-5.606,5.624-32.354,32.364-46.512,46.522-7.671-7.672-14.121-14.121-16.564-16.561-2.115-2.113-4.5-2.111-6.62,0-1.444,1.438-5,5.066-5.265,5.492-1.061,1.831-.7,3.8.986,5.469,2.462,2.445,9.87,9.823,18.489,18.405a5.956,5.956,0,0,0,1.175,1.616c1.44,1.444,5.067,5,5.494,5.265,1.831,1.062,3.8.7,5.47-.986,7.011-7.059,54.583-54.8,54.847-55.106A4.1,4.1,0,0,0-1565.646,743.752Z" transform="translate(1658.618 -721.392)"/>
</svg>
