<svg id="icon_enter" xmlns="http://www.w3.org/2000/svg" width="100" height="100" viewBox="0 0 100 100">
  <rect id="shape" width="100" height="100" fill="none"/>
  <path id="Path_20049" data-name="Path 20049" d="M345.118,446.926a6,6,0,1,0-12,0v32.532c-16.091-.042-57.973-.017-59.332-.017v-10a5.951,5.951,0,0,0-3.725-5.933,5.882,5.882,0,0,0-6.866,1.483c-5.25,5.167-10.525,10.308-15.666,15.583a6.324,6.324,0,0,0-1.283,1.342,6.132,6.132,0,0,0,1.467,8.55c5.025,5.092,10.158,10.025,15.158,15.083a6.163,6.163,0,0,0,7.083,1.967,6.378,6.378,0,0,0,3.933-6.617v-9.591c6.466,0,56.6.092,64.832,0,.167.008.333.025.5.025a5.842,5.842,0,0,0,5.9-5.775.494.494,0,0,1,0-.433Z" transform="translate(-245.118 -424.427)" fill="#181818"/>
</svg>
