<svg id="icon_pre-payment" xmlns="http://www.w3.org/2000/svg" width="100" height="100" viewBox="0 0 100 100">
  <rect id="shape" width="100" height="100" fill="none"/>
  <g id="Group_14723" data-name="Group 14723" transform="translate(-2180.984 -4824.686)">
    <path id="Path_757" data-name="Path 757" d="M84.858,68.148a103.456,103.456,0,0,1-10.916,2.84c-1.573,2.461-4.425,4.544-8.949,5.4a20.584,20.584,0,0,1-3.54.284A94.1,94.1,0,0,1,50.536,76.1,2.825,2.825,0,0,1,49.651,76a2.16,2.16,0,0,1-1.967-1.8,1.978,1.978,0,0,1,2.164-2.083c.3,0,.688.095.983.095,5.311.473,10.228.852,13.375.284,5.8-1.041,7.474-4.449,7.081-7.289a4.69,4.69,0,0,0-5.015-4.354A94.771,94.771,0,0,1,52.7,60.481a96.576,96.576,0,0,0-14.751-.095C33.621,60.86,24.77,63.983,17,69c-3.835,2.461-8.064,5.49-10.621,7.289a2.681,2.681,0,0,0-.59,3.881L17.1,94.273a2.913,2.913,0,0,0,4.032.473l4.13-3.124a3.735,3.735,0,0,1,3.442-.568A95.167,95.167,0,0,0,49.749,95.22c11.7.757,34.026-12.495,40.419-16.754S91.938,65.687,84.858,68.148Z" transform="translate(2181.779 4823.339)" fill="#181818"/>
    <path id="Subtraction_14" data-name="Subtraction 14" d="M17.6,35.2A17.6,17.6,0,1,1,35.2,17.6,17.62,17.62,0,0,1,17.6,35.2ZM9.944,15.141a1,1,0,0,0-.7.288l-1.4,1.4a.992.992,0,0,0,0,1.4l6.447,6.447a1,1,0,0,0,.705.293.994.994,0,0,0,.7-.293l11.41-11.4a1,1,0,0,0,0-1.4l-1.4-1.41a1.006,1.006,0,0,0-1.41,0l-9.294,9.3-4.35-4.34A.979.979,0,0,0,9.944,15.141Z" transform="translate(2213.386 4830.686)" fill="#181818"/>
  </g>
</svg>
