<svg id="icon_image_extensions_light" xmlns="http://www.w3.org/2000/svg" width="100" height="100" viewBox="0 0 100 100">
  <rect id="shape" width="100" height="100" fill="none"/>
  <g id="icon" transform="translate(13.006)">
    <path id="background" d="M12.881.61H45.963L74,30.145V87.591A12.937,12.937,0,0,1,61.143,100.61H12.881A12.942,12.942,0,0,1,0,87.591V13.629A12.942,12.942,0,0,1,12.881.61Z" transform="translate(0 -0.61)" fill="#e8e8e8" fill-rule="evenodd"/>
    <path id="fold" d="M237.139.61V29.92H265.2Z" transform="translate(-191.201 -0.61)" fill="#0ac963" fill-rule="evenodd" opacity="0.3"/>
    <path id="icon-2" data-name="icon" d="M731.4,275.823c5.21,0,10.419.03,15.628-.014a4.7,4.7,0,0,1,4.64,3.607,5.154,5.154,0,0,1,.125,1.12q.01,15.626,0,31.253a4.654,4.654,0,0,1-4.741,4.757q-15.629.007-31.257.008a4.743,4.743,0,0,1-4.743-4.719q.048-15.646,0-31.292a4.741,4.741,0,0,1,4.758-4.734C721.005,275.859,726.2,275.823,731.4,275.823Zm-4.293,18.937,10.225,10.085,3.552-3.569L746,306.339c.014-.15.023-.2.023-.252q0-11.073,0-22.145a2.269,2.269,0,0,0-2.425-2.383q-12.187-.01-24.375,0A2.282,2.282,0,0,0,716.776,284q-.009,10.331,0,20.661a2.881,2.881,0,0,0,.04.32Z" transform="translate(-694.314 -232.298)" fill="#0ac963"/>
  </g>
</svg>
