<svg id="icon_template" xmlns="http://www.w3.org/2000/svg" width="100" height="100" viewBox="0 0 100 100">
  <rect id="shape" width="100" height="100" fill="none"/>
  <path id="template" d="M1725.2-1409.558c-27.636-.1-55.274-.052-82.91-.052-3.6,0-5.287-1.683-5.289-5.33q-.01-20.813,0-41.625,0-20.893,0-41.783c0-3.559,1.644-5.247,5.214-5.249q41.77-.018,83.542,0c3.57,0,5.2,1.8,5.2,5.65q.01,29.518,0,59.036c0,7.861-.072,15.723.035,23.582.044,3.266-1.6,5.77-5.759,5.77Zm-5.577-9.445c1.52.008,1.964-.419,1.96-1.951q-.07-30.938,0-61.878c0-1.567-.507-1.933-1.989-1.93q-35.6.061-71.194,0c-1.58,0-2.083.417-2.078,2.033q.073,30.781.033,61.562c0,2.132.014,2.136,2.23,2.136q17.64,0,35.281,0,8.5,0,17-.006Q1710.243-1419.041,1719.621-1419Zm-7.414-75.323c0,3.024,1.68,4.736,4.641,4.723a4.419,4.419,0,0,0,4.689-4.613,4.547,4.547,0,0,0-4.668-4.682h-.029A4.248,4.248,0,0,0,1712.207-1494.327Zm-14.247-4.572a4.42,4.42,0,0,0-4.626,4.528,4.387,4.387,0,0,0,4.677,4.767c2.9,0,4.656-1.726,4.644-4.571-.012-2.971-1.733-4.724-4.633-4.724Zm-28.67,70.916a3.013,3.013,0,0,1-1.2-2.926l.017-.157q.27-1.6.54-3.238l.007-.041c.495-2.984,1.006-6.071,1.586-9.13.091-.48.056-.656-.383-1.075-2.707-2.583-5.6-5.37-8.44-8.247-.184-.186-1.778-1.861-1.315-3.42s2.818-1.98,3.084-2.023c1.841-.3,3.713-.573,5.523-.835,2.066-.3,4.18-.6,6.248-.955a1.619,1.619,0,0,0,.824-.651c.984-1.886,1.943-3.834,2.872-5.717l.027-.057c.812-1.646,1.65-3.348,2.506-5.012.323-.628,1.473-2.224,2.847-2.06a3.979,3.979,0,0,1,2.7,2.108c.894,1.721,1.76,3.483,2.6,5.188l.018.036c.9,1.832,1.836,3.726,2.8,5.561a1.594,1.594,0,0,0,.837.621c2.058.345,4.153.643,6.179.932,1.886.269,3.835.546,5.757.861a4.007,4.007,0,0,1,2.843,1.9c.687,1.456-1.064,3.25-1.139,3.326-2.814,2.843-5.728,5.7-8.661,8.49a.956.956,0,0,0-.328,1.118c.867,4.652,1.524,8.446,2.066,11.936a3.6,3.6,0,0,1-1.028,3.257c-1.057.774-2.687.3-3.4-.065-3.846-1.941-7.353-3.788-10.722-5.645a1.047,1.047,0,0,0-1.277.045c-3.236,1.754-6.73,3.594-11,5.789a3.707,3.707,0,0,1-1.683.457A2.373,2.373,0,0,1,1669.29-1427.982Z" transform="translate(-1633.996 1506.606)" stroke="rgba(0,0,0,0)" stroke-miterlimit="10" stroke-width="1"/>
</svg>
