<svg id="icon_notifications" xmlns="http://www.w3.org/2000/svg" width="100" height="100" viewBox="0 0 100 100">
  <rect id="shape" width="100" height="100" fill="none"/>
  <path id="bell" d="M41.687,95.285A11.909,11.909,0,0,0,53.592,83.374H29.782A11.909,11.909,0,0,0,41.687,95.285ZM81.772,67.424c-3.6-3.864-10.323-9.676-10.323-28.714A29.389,29.389,0,0,0,47.639,9.834V5.955a5.952,5.952,0,1,0-11.9,0V9.834A29.389,29.389,0,0,0,11.926,38.71C11.926,57.748,5.2,63.56,1.6,67.424A5.815,5.815,0,0,0,0,71.464a5.961,5.961,0,0,0,5.974,5.955H77.4a5.959,5.959,0,0,0,5.974-5.955A5.811,5.811,0,0,0,81.772,67.424Z" transform="translate(8.313 2.5)"/>
</svg>
