<?xml version="1.0" encoding="UTF-8"?>
<svg id="Layer_2" data-name="Layer 2" xmlns="http://www.w3.org/2000/svg" viewBox="0 0 24 24">
  <defs>
    <style>
      .cls-1 {
        fill: none;
      }

      .cls-2 {
        fill: #010101;
      }
    </style>
  </defs>
  <g id="icon_down">
    <path id="shape" class="cls-1" d="M0,0H24V24H0V0Z"/>
    <path id="svg-fill-primary" class="cls-2" d="M14.7,20.57v-2.54c0-.45-.54-.67-.85-.35l-.56,.56L4.8,9.75c-.39-.39-1.02-.39-1.41,0s-.39,1.02,0,1.41l8.49,8.49-.56,.56c-.32,.32-.1,.86,.34,.86h2.54c.28,0,.5-.23,.5-.5ZM9.83,4.21c-.29-.29-.29-.77,0-1.06s.77-.29,1.06,0l.88,.88c.39,.39,.39,1.03,0,1.41l-3.01,3.01c-.29,.29-.77,.29-1.06,0s-.29-.77,0-1.06l2.65-2.65-.53-.53h.01Zm4.6,2.47c-.29-.29-.77-.29-1.06,0s-.29,.77,0,1.06l1.59,1.59-.71,.71-1.41-1.41c-.39-.39-1.03-.39-1.41,0l-1.06,1.06c-.39,.39-.39,1.03,0,1.41l1.94,1.94c.29,.29,.77,.29,1.06,0s.29-.77,0-1.06l-1.59-1.59,.71-.71,1.41,1.41c.39,.39,1.03,.39,1.41,0l1.06-1.06c.39-.39,.39-1.03,0-1.41,0,0-1.94-1.94-1.94-1.94Zm1.94,10.43c.39,.39,1.03,.39,1.41,0l2.83-2.83c.39-.39,.39-1.03,0-1.41l-1.94-1.94c-.29-.29-.77-.29-1.06,0s-.29,.77,0,1.06l1.59,1.59-.71,.71-1.06-1.06c-.2-.2-.51-.2-.71,0s-.2,.51,0,.71l1.06,1.06-.71,.71-1.59-1.59c-.29-.29-.77-.29-1.06,0s-.29,.77,0,1.06l1.94,1.94h0Z"/>
  </g>
</svg>