<svg id="icon_copy" xmlns="http://www.w3.org/2000/svg" width="100" height="100" viewBox="0 0 100 100">
  <rect id="shape" width="100" height="100" fill="none"/>
  <g id="Group_25660" data-name="Group 25660" transform="translate(8 2.363)">
    <path id="Path_50432" data-name="Path 50432" d="M58.059,84.8H12.176V25a4.608,4.608,0,0,0-4.588-4.6h0A4.608,4.608,0,0,0,3,25V84.8A9.215,9.215,0,0,0,12.176,94H58.059a4.608,4.608,0,0,0,4.588-4.6h0A4.608,4.608,0,0,0,58.059,84.8ZM81,66.4V11.2A9.215,9.215,0,0,0,71.824,2H30.529a9.215,9.215,0,0,0-9.176,9.2V66.4a9.215,9.215,0,0,0,9.176,9.2H71.824A9.215,9.215,0,0,0,81,66.4Zm-9.176,0H30.529V11.2H71.824Z"/>
  </g>
</svg>
