<svg id="icon_keybord" xmlns="http://www.w3.org/2000/svg" width="100" height="100" viewBox="0 0 100 100">
  <rect id="shape" width="100" height="100" fill="none"/>
  <path id="Path_50260" data-name="Path 50260" d="M6.693,0H6.72a6.716,6.716,0,0,1,6.693,6.737v.007A6.716,6.716,0,0,1,6.72,13.48H6.693A6.716,6.716,0,0,1,0,6.743V6.737A6.716,6.716,0,0,1,6.693,0" transform="translate(3 23)" fill="#131313" stroke="rgba(0,0,0,0)" stroke-width="1"/>
  <path id="Path_50261" data-name="Path 50261" d="M9.7,0h.027a6.716,6.716,0,0,1,6.693,6.737v.007A6.716,6.716,0,0,1,9.724,13.48H9.7A6.716,6.716,0,0,1,3,6.743V6.737A6.716,6.716,0,0,1,9.7,0" transform="translate(20.141 23)" fill="#131313" stroke="rgba(0,0,0,0)" stroke-width="1"/>
  <path id="Path_50262" data-name="Path 50262" d="M12.7,0h.027a6.716,6.716,0,0,1,6.693,6.737v.007a6.716,6.716,0,0,1-6.693,6.736H12.7A6.716,6.716,0,0,1,6.009,6.743V6.737A6.716,6.716,0,0,1,12.7,0" transform="translate(37.288 23)" fill="#131313" stroke="rgba(0,0,0,0)" stroke-width="1"/>
  <path id="Path_50263" data-name="Path 50263" d="M15.706,0h.027a6.716,6.716,0,0,1,6.693,6.737v.007a6.716,6.716,0,0,1-6.693,6.736h-.027A6.716,6.716,0,0,1,9.013,6.743V6.737A6.716,6.716,0,0,1,15.706,0" transform="translate(54.429 23)" fill="#131313" stroke="rgba(0,0,0,0)" stroke-width="1"/>
  <path id="Path_50264" data-name="Path 50264" d="M18.71,0h.027a6.716,6.716,0,0,1,6.693,6.737v.007a6.716,6.716,0,0,1-6.693,6.736H18.71a6.716,6.716,0,0,1-6.693-6.736V6.737A6.716,6.716,0,0,1,18.71,0" transform="translate(71.571 23)" fill="#131313" stroke="rgba(0,0,0,0)" stroke-width="1"/>
  <path id="Path_50265" data-name="Path 50265" d="M6.693,3H6.72a6.716,6.716,0,0,1,6.693,6.736v.007A6.716,6.716,0,0,1,6.72,16.48H6.693A6.716,6.716,0,0,1,0,9.743V9.736A6.716,6.716,0,0,1,6.693,3" transform="translate(3 40.25)" fill="#131313" stroke="rgba(0,0,0,0)" stroke-width="1"/>
  <path id="Path_50266" data-name="Path 50266" d="M9.7,3h.027a6.716,6.716,0,0,1,6.693,6.736v.007A6.716,6.716,0,0,1,9.724,16.48H9.7A6.716,6.716,0,0,1,3,9.743V9.736A6.716,6.716,0,0,1,9.7,3" transform="translate(20.141 40.25)" fill="#131313" stroke="rgba(0,0,0,0)" stroke-width="1"/>
  <path id="Path_50267" data-name="Path 50267" d="M12.7,3h.027a6.716,6.716,0,0,1,6.693,6.736v.007a6.716,6.716,0,0,1-6.693,6.737H12.7A6.716,6.716,0,0,1,6.009,9.743V9.736A6.716,6.716,0,0,1,12.7,3" transform="translate(37.288 40.25)" fill="#131313" stroke="rgba(0,0,0,0)" stroke-width="1"/>
  <path id="Path_50268" data-name="Path 50268" d="M15.706,3h.027a6.716,6.716,0,0,1,6.693,6.736v.007a6.716,6.716,0,0,1-6.693,6.737h-.027A6.716,6.716,0,0,1,9.013,9.743V9.736A6.716,6.716,0,0,1,15.706,3" transform="translate(54.429 40.25)" fill="#131313" stroke="rgba(0,0,0,0)" stroke-width="1"/>
  <path id="Path_50269" data-name="Path 50269" d="M18.71,3h.027a6.716,6.716,0,0,1,6.693,6.736v.007a6.716,6.716,0,0,1-6.693,6.737H18.71a6.716,6.716,0,0,1-6.693-6.737V9.736A6.716,6.716,0,0,1,18.71,3" transform="translate(71.571 40.25)" fill="#131313" stroke="rgba(0,0,0,0)" stroke-width="1"/>
  <path id="Path_50270" data-name="Path 50270" d="M9.71,6h40.3a6.75,6.75,0,0,1,0,13.5H9.71A6.75,6.75,0,0,1,9.71,6" transform="translate(20.141 57.5)" fill="#131313" stroke="rgba(0,0,0,0)" stroke-width="1"/>
</svg>
