<svg id="icon_quadratic" xmlns="http://www.w3.org/2000/svg" width="20" height="20" viewBox="0 0 20 20">
  <rect id="Rectangle_11782" data-name="Rectangle 11782" width="20" height="20" transform="translate(0)" fill="none"/>
  <path id="Path_50255" data-name="Path 50255" d="M16.333,3H4.667A1.672,1.672,0,0,0,3,4.667V16.333A1.672,1.672,0,0,0,4.667,18H16.333A1.672,1.672,0,0,0,18,16.333V4.667A1.672,1.672,0,0,0,16.333,3ZM15.5,16.333H5.5a.836.836,0,0,1-.833-.833V5.5A.836.836,0,0,1,5.5,4.667h10a.836.836,0,0,1,.833.833v10A.836.836,0,0,1,15.5,16.333Z" transform="translate(-0.5 -0.5)" fill="#f26628"/>
</svg>
