<svg id="icon_user" xmlns="http://www.w3.org/2000/svg" width="100" height="100" viewBox="0 0 100 100">
  <rect id="shape" width="100" height="100" fill="none"/>
  <path id="user" d="M11.227,83.268A47.482,47.482,0,0,1,.642,74.337,2.782,2.782,0,0,1,0,72.634c.164-9.3,7.315-18.108,16.813-20.559A28.918,28.918,0,0,1,23.5,51.3c5.866-.1,11.745-.031,17.616-.031v.046c6.485,0,12.976-.154,19.462.039A22.622,22.622,0,0,1,82.211,72.842a2.175,2.175,0,0,1-.617,1.426A53.776,53.776,0,0,1,47.1,91.652,59.472,59.472,0,0,1,40.72,92,53.879,53.879,0,0,1,11.227,83.268ZM41.021,45.279A23.039,23.039,0,0,1,18.112,22.632C18.051,10.241,28.432.008,41.092,0c12.627-.008,23.038,10.233,23,22.624-.028,12.343-10.5,22.655-22.972,22.655Z" transform="translate(9 4)"/>
</svg>
