<svg xmlns="http://www.w3.org/2000/svg" width="100" height="100" viewBox="0 0 100 100">
  <g id="icon_elements" transform="translate(-3980 -8628)">
    <rect id="shape" width="100" height="100" transform="translate(3980 8628)" fill="none"/>
    <path id="elements" d="M166-799.111a19.687,19.687,0,0,1-14.439-6.006,19.687,19.687,0,0,1-6.006-14.439,19.687,19.687,0,0,1,6.006-14.439A19.687,19.687,0,0,1,166-840a19.687,19.687,0,0,1,14.439,6.005,19.687,19.687,0,0,1,6.006,14.439,19.687,19.687,0,0,1-6.006,14.439A19.687,19.687,0,0,1,166-799.111ZM140.444-748a19.687,19.687,0,0,1-14.439-6.006A19.687,19.687,0,0,1,120-768.444a19.687,19.687,0,0,1,6.006-14.439,19.686,19.686,0,0,1,14.439-6.006,19.686,19.686,0,0,1,14.439,6.006,19.687,19.687,0,0,1,6.006,14.439,19.687,19.687,0,0,1-6.006,14.439A19.687,19.687,0,0,1,140.444-748Zm51.111,0a19.687,19.687,0,0,1-14.439-6.006,19.687,19.687,0,0,1-6.006-14.439,19.687,19.687,0,0,1,6.006-14.439,19.686,19.686,0,0,1,14.439-6.006,19.686,19.686,0,0,1,14.439,6.006A19.687,19.687,0,0,1,212-768.444a19.687,19.687,0,0,1-6.006,14.439A19.687,19.687,0,0,1,191.556-748Z" transform="translate(3863.759 9472)"/>
  </g>
</svg>
