<svg id="Layout_t3" data-name="Layout t3" xmlns="http://www.w3.org/2000/svg" width="100" height="100" viewBox="0 0 100 100">
  <rect id="shape" width="100" height="100" fill="none"/>
  <g id="Grupo_1469" data-name="Grupo 1469" transform="translate(-357.007 -169)">
    <path id="Caminho_19841" data-name="Caminho 19841" d="M2-17H13a2,2,0,0,1,2,2V43a2,2,0,0,1-2,2H2a2,2,0,0,1-2-2V-15A2,2,0,0,1,2-17Z" transform="translate(359.007 205)" fill="#181818"/>
    <path id="Caminho_19843" data-name="Caminho 19843" d="M2-17h9a2,2,0,0,1,2,2V43a2,2,0,0,1-2,2H2a2,2,0,0,1-2-2V-15A2,2,0,0,1,2-17Z" transform="translate(376.007 205)" fill="#181818"/>
    <path id="Caminho_19840" data-name="Caminho 19840" d="M17-17H77a2,2,0,0,1,2,2V43a2,2,0,0,1-2,2H17a2,2,0,0,1-2-2V-15A2,2,0,0,1,17-17Z" transform="translate(376.007 205)" fill="#181818"/>
  </g>
</svg>
