<svg id="icon_photoshop_extension_light" xmlns="http://www.w3.org/2000/svg" width="100" height="100" viewBox="0 0 100 100">
  <rect id="shape" width="100" height="100" fill="none"/>
  <g id="icon" transform="translate(13.006)">
    <path id="background" d="M12.881.61H45.963L74,30.145V87.591A12.937,12.937,0,0,1,61.143,100.61H12.881A12.942,12.942,0,0,1,0,87.591V13.629A12.942,12.942,0,0,1,12.881.61Z" transform="translate(0 -0.61)" fill="#e8e8e8" fill-rule="evenodd"/>
    <path id="fold" d="M237.139.61V29.92H265.2Z" transform="translate(-191.201 -0.61)" fill="#169afc" fill-rule="evenodd" opacity="0.3"/>
    <g id="icon-2" data-name="icon" transform="translate(-6.975 -5.063)">
      <path id="shape-2" data-name="shape" d="M630.782,413.534H618.287v33.344h7.507v-12h4.987a9.643,9.643,0,0,0,7.383-2.92,12.23,12.23,0,0,0,0-15.507A9.634,9.634,0,0,0,630.782,413.534Zm1.772,13.183a3.427,3.427,0,0,1-2.62.912H625.8l0-6.843c5.264,0,6.147.274,6.75.912A3.864,3.864,0,0,1,632.553,426.717Z" transform="translate(-597.293 -356.528)" fill="#169afc" stroke="rgba(0,0,0,0)" stroke-width="1" fill-rule="evenodd"/>
      <path id="shape-3" data-name="shape" d="M641.691,426.547v-.029a13.689,13.689,0,0,1-3.111-1.457c-.169-.006-.352-.355-.352-.8,0-1.267,1.465-1.429,2.308-1.429a10.893,10.893,0,0,1,4.842,1.267.487.487,0,0,0,.4.029.406.406,0,0,0,.252-.31l1.3-5a.424.424,0,0,0-.227-.507,16.115,16.115,0,0,0-6.785-1.379c-5.857,0-9.937,3.323-9.937,8.079-.057,2.308,1.127,5.478,6.926,7.431,2.815.953,3.125,1.429,3.125,2.253,0,.367,0,1.519-2.646,1.519a13.713,13.713,0,0,1-6.023-1.717.483.483,0,0,0-.393-.029.4.4,0,0,0-.252.31l-1.3,5.209a.432.432,0,0,0,.224.507,17.182,17.182,0,0,0,7.74,1.667c6.5,0,10.556-3.068,10.556-8C648.277,430.453,646.25,428.116,641.691,426.547Z" transform="translate(-581.39 -351.818)" fill="#169afc" stroke="rgba(0,0,0,0)" stroke-width="1" fill-rule="evenodd"/>
    </g>
  </g>
</svg>
