<svg id="icon_target" xmlns="http://www.w3.org/2000/svg" width="20" height="20" viewBox="0 0 20 20">
  <path id="Path_22027" data-name="Path 22027" d="M15.045,4.942A.786.786,0,0,0,14.989,6a6.286,6.286,0,0,1,1.223,5.535A6.4,6.4,0,1,1,9.194,3.654V5.27a4.793,4.793,0,1,0,4.772,2.04.79.79,0,0,0-1.2-.088l-.008.008a.809.809,0,0,0-.088,1.016A3.2,3.2,0,1,1,9.194,6.91V8.621A1.584,1.584,0,0,0,8.4,10a1.6,1.6,0,1,0,3.2,0,1.574,1.574,0,0,0-.8-1.376V2.567A.57.57,0,0,0,10.225,2a8,8,0,1,0,7.585,9.7,7.883,7.883,0,0,0-1.575-6.695.8.8,0,0,0-1.191-.064Z" transform="translate(0.492 0.006)" />
</svg>