<svg id="icon_more" xmlns="http://www.w3.org/2000/svg" width="100" height="100" viewBox="0 0 100 100">
  <rect id="shape" width="100" height="100" fill="none"/>
  <path id="plus" d="M48.063.562a47.5,47.5,0,1,0,47.5,47.5A47.492,47.492,0,0,0,48.063.562ZM75.643,53.425a2.305,2.305,0,0,1-2.3,2.3H55.724V73.345a2.305,2.305,0,0,1-2.3,2.3H42.7a2.305,2.305,0,0,1-2.3-2.3V55.724H22.78a2.305,2.305,0,0,1-2.3-2.3V42.7a2.305,2.305,0,0,1,2.3-2.3H40.4V22.78a2.305,2.305,0,0,1,2.3-2.3H53.425a2.305,2.305,0,0,1,2.3,2.3V40.4H73.345a2.305,2.305,0,0,1,2.3,2.3Z" transform="translate(1.938 1.938)"/>
</svg>
