<svg id="apartment_black_24dp" xmlns="http://www.w3.org/2000/svg" width="20" height="20" viewBox="0 0 20 20">
  <g id="Group_27237" data-name="Group 27237">
    <rect id="Rectangle_11833" data-name="Rectangle 11833" width="20" height="20" fill="none"/>
  </g>
  <path id="Path_50500" data-name="Path 50500" d="M15.444,10.111V3H6.556V6.556H3V19h7.111V15.444h1.778V19H19V10.111ZM6.556,17.222H4.778V15.444H6.556Zm0-3.556H4.778V11.889H6.556Zm0-3.556H4.778V8.333H6.556Zm3.556,3.556H8.333V11.889h1.778Zm0-3.556H8.333V8.333h1.778Zm0-3.556H8.333V4.778h1.778Zm3.556,7.111H11.889V11.889h1.778Zm0-3.556H11.889V8.333h1.778Zm0-3.556H11.889V4.778h1.778Zm3.556,10.667H15.444V15.444h1.778Zm0-3.556H15.444V11.889h1.778Z" transform="translate(-1 -1)" fill="#787878"/>
</svg>
