<svg id="icon_tablet" xmlns="http://www.w3.org/2000/svg" width="100" height="100" viewBox="0 0 100 100">
  <rect id="shape" width="100" height="100" fill="none"/>
  <g id="tablet" transform="translate(-3689.583 5268)">
    <path id="shape-2" data-name="shape" d="M3771.061-5259H3708.1a5.467,5.467,0,0,0-5.522,5.4v71.205a5.467,5.467,0,0,0,5.522,5.4h62.956a5.467,5.467,0,0,0,5.522-5.4V-5253.6A5.467,5.467,0,0,0,3771.061-5259Zm-1.316,7.729v66.752a.735.735,0,0,1-.733.717h-58.858a.735.735,0,0,1-.732-.717v-66.752a.734.734,0,0,1,.732-.716h58.858A.734.734,0,0,1,3769.745-5251.272Z" transform="translate(0 0)"/>
    <path id="shape-3" data-name="shape" d="M3883.417-4924.667a5.005,5.005,0,0,0-5,5,5.006,5.006,0,0,0,5,5,5.006,5.006,0,0,0,5-5A5.005,5.005,0,0,0,3883.417-4924.667Z" transform="translate(-143.835 -274.333)"/>
  </g>
</svg>
