<svg id="icon_projects" xmlns="http://www.w3.org/2000/svg" width="100" height="100" viewBox="0 0 100 100">
  <rect id="shape" width="100" height="100" fill="none"/>
  <path id="suitcase" d="M1080.88-1461.325c-16.97-.109-33.941-.092-50.911-.076q-10.257.01-20.514.012c-7.5,0-11.786-4.287-11.79-11.763q-.005-14.1,0-28.2v-1.882h34.98c0,2.923-.011,5.807,0,8.69.018,3.962,1.753,6.9,5.408,8.5a18.47,18.47,0,0,0,4.493,1.288,16.593,16.593,0,0,0,10.453-1.524,8.354,8.354,0,0,0,4.849-7.826c.015-3.008,0-6.016,0-9.119h34.759v1.815c0,9.455-.153,18.913.049,28.364.159,7.4-5.525,11.715-11.7,11.715Zm-40.075-29.707a3.2,3.2,0,0,1-2.415-2.925c-.086-3.059-.026-6.121-.026-9.291h13.5c0,3.235.063,6.407-.03,9.575a2.984,2.984,0,0,1-2.3,2.62,13.152,13.152,0,0,1-4.387.766A13.269,13.269,0,0,1,1040.805-1491.032Zm-42.9-17.153c0-5.183-.346-10.337.1-15.422.4-4.59,4.885-8.122,9.849-8.28,3.863-.124,7.732-.109,11.6-.094,1.677.006,3.354.013,5.031.008.659,0,1.319,0,2.2,0,0-2,.112-3.837-.019-5.656-.624-8.713,3.568-12.622,11.161-14.645a27.031,27.031,0,0,1,19.309,1.64c4.373,2.131,6.821,5.64,6.725,10.684-.049,2.569-.008,5.141-.008,7.977h1.849c5.208,0,10.417-.033,15.626.011,5.411.045,9.274,2.787,10.831,7.628a6.653,6.653,0,0,1,.333,1.964c.028,4.689.014,9.379.014,14.186Zm39.562-35.487c-1.012.448-2.374,1.495-2.464,2.381a91.81,91.81,0,0,0-.117,9.193h20.554c0-2.742-.083-5.366.029-7.98a3.159,3.159,0,0,0-2.279-3.474,28.136,28.136,0,0,0-5.516-1.29,28.059,28.059,0,0,0-3.193-.194A17.111,17.111,0,0,0,1037.471-1543.672Z" transform="translate(-994.663 1557.325)" stroke="rgba(0,0,0,0)" stroke-miterlimit="10" stroke-width="1"/>
</svg>
