<svg id="icon_id_extension" xmlns="http://www.w3.org/2000/svg" width="100" height="100" viewBox="0 0 100 100">
  <rect id="shape" width="100" height="100" fill="none"/>
  <g id="ps" transform="translate(13.006)">
    <path id="Path_19936" data-name="Path 19936" d="M12.881.61H45.963L74,30.145V87.591A12.937,12.937,0,0,1,61.143,100.61H12.881A12.942,12.942,0,0,1,0,87.591V13.629A12.942,12.942,0,0,1,12.881.61Z" transform="translate(0 -0.61)" fill="#f83163" fill-rule="evenodd"/>
    <path id="Path_19937" data-name="Path 19937" d="M237.139.61V29.92H265.2Z" transform="translate(-191.201 -0.61)" fill="rgba(255,255,255,0.3)" fill-rule="evenodd"/>
    <path id="Union_8" data-name="Union 8" d="M12.271,7.471a5.216,5.216,0,0,1-2.036-4.215,5.691,5.691,0,0,1,1.75-4.307,8.875,8.875,0,0,1,6.076-1.9q.645,0,1.146.046V-8.84a.246.246,0,0,1,.255-.244h4.073a.245.245,0,0,1,.254.244V8.308a.263.263,0,0,1-.206.243,35.8,35.8,0,0,1-5.6.365C15.4,8.916,13.543,8.445,12.271,7.471ZM14.8,3.15c0,1.46,1.082,2.312,2.959,2.312a8.2,8.2,0,0,0,1.447-.106V.608a9.526,9.526,0,0,0-1.113-.06C16.024.548,14.8,1.521,14.8,3.15ZM-2.089,8.545V-9.084H2.318V8.545Z" transform="translate(26.151 71.083)" fill="#fff" stroke="rgba(0,0,0,0)" stroke-width="1"/>
  </g>
</svg>
