<svg id="icon_6" xmlns="http://www.w3.org/2000/svg" width="100" height="100" viewBox="0 0 100 100">
  <rect id="shape" width="100" height="100" fill="none"/>
  <path id="AXIS" d="M-608.625-3379.742h-66a13.907,13.907,0,0,1-9.9-4.1,13.909,13.909,0,0,1-4.1-9.9v-66a13.908,13.908,0,0,1,4.1-9.9,13.908,13.908,0,0,1,9.9-4.1h66a13.908,13.908,0,0,1,9.9,4.1,13.908,13.908,0,0,1,4.1,9.9v66a13.909,13.909,0,0,1-4.1,9.9A13.907,13.907,0,0,1-608.625-3379.742Zm-31.395-69.828a13.861,13.861,0,0,0-11.074,5.125c-2.856,3.4-4.3,8.424-4.3,14.925v5.551c0,5.336,1.334,9.519,3.965,12.433a12.949,12.949,0,0,0,10,4.389,11.778,11.778,0,0,0,9.331-4.036,15.427,15.427,0,0,0,3.5-10.435,14.4,14.4,0,0,0-3.285-9.686,11.072,11.072,0,0,0-8.807-3.823,14.011,14.011,0,0,0-4.956.864,11.7,11.7,0,0,0-3.88,2.336l-.113-.113c.113-4.38,1.033-7.7,2.733-9.871a8.341,8.341,0,0,1,6.9-3.27,14.6,14.6,0,0,1,3.625.41,15.49,15.49,0,0,1,2.917,1.062l1.076-4.163a13.84,13.84,0,0,0-3.442-1.218A18.539,18.539,0,0,0-640.02-3449.571Zm-1.416,38.062a7.353,7.353,0,0,1-6.018-3.087c-1.588-2.047-2.393-5.02-2.393-8.835v-3.314a7.81,7.81,0,0,1,3.058-3.073,9.729,9.729,0,0,1,4.872-1.147,6.828,6.828,0,0,1,5.678,2.634,10.641,10.641,0,0,1,2.053,6.712,12.888,12.888,0,0,1-1.912,7.207A6.073,6.073,0,0,1-641.435-3411.509Z" transform="translate(691.625 3476.741)" fill="#010101"/>
</svg>
