<svg xmlns="http://www.w3.org/2000/svg" width="98" height="76" viewBox="0 0 98 76">
  <g id="actionbar-left" transform="translate(-89 0.16)">
    <g id="image" transform="translate(-695 -276.16)">
      <g id="Computer" transform="translate(784 276)">
        <path id="shape" d="M92.181,2H9.819A7.878,7.878,0,0,0,2,9.917l.049,60.167A7.878,7.878,0,0,0,9.868,78h82.2a7.878,7.878,0,0,0,7.819-7.917L100,9.917A7.878,7.878,0,0,0,92.181,2ZM9.819,5.167H92.181a4.721,4.721,0,0,1,4.691,4.75l.049,48.012H5.176L5.128,9.917a4.721,4.721,0,0,1,4.691-4.75ZM92.063,74.833H9.868a4.721,4.721,0,0,1-4.691-4.75V61.1H96.921l-.167,8.988A4.721,4.721,0,0,1,92.063,74.833Z" transform="translate(-2 -2)" fill="#fcfcfc"/>
        <path id="shape-2" data-name="shape" d="M33.832,41a4.837,4.837,0,1,0,4.832,4.837A4.834,4.834,0,0,0,33.832,41Zm0,6.449a1.612,1.612,0,1,1,1.611-1.612A1.612,1.612,0,0,1,33.832,47.449Z" transform="translate(16.243 20.156)" fill="#fcfcfc"/>
      </g>
      <path id="shape-3" data-name="shape" d="M1,0H77a3,3,0,0,1,3,3V45a3,3,0,0,1-3,3H1a1,1,0,0,1-1-1V1A1,1,0,0,1,1,0Z" transform="translate(797 281)" fill="#fcfcfc"/>
      <path id="shape-4" data-name="shape" d="M3,0H5A1,1,0,0,1,6,1V47a1,1,0,0,1-1,1H3a3,3,0,0,1-3-3V3A3,3,0,0,1,3,0Z" transform="translate(789 281)" fill="#fcfcfc"/>
    </g>
    <g id="image-2" data-name="image" transform="translate(-695 -276.16)">
      <g id="Computer-2" data-name="Computer" transform="translate(784 276)">
        <path id="shape-5" data-name="shape" d="M92.181,2H9.819A7.878,7.878,0,0,0,2,9.917l.049,60.167A7.878,7.878,0,0,0,9.868,78h82.2a7.878,7.878,0,0,0,7.819-7.917L100,9.917A7.878,7.878,0,0,0,92.181,2ZM9.819,5.167H92.181a4.721,4.721,0,0,1,4.691,4.75l.049,48.012H5.176L5.128,9.917a4.721,4.721,0,0,1,4.691-4.75ZM92.063,74.833H9.868a4.721,4.721,0,0,1-4.691-4.75V61.1H96.921l-.167,8.988A4.721,4.721,0,0,1,92.063,74.833Z" transform="translate(-2 -2)" fill="#58a7c8"/>
        <path id="shape-6" data-name="shape" d="M33.832,41a4.837,4.837,0,1,0,4.832,4.837A4.834,4.834,0,0,0,33.832,41Zm0,6.449a1.612,1.612,0,1,1,1.611-1.612A1.612,1.612,0,0,1,33.832,47.449Z" transform="translate(16.243 20.156)" fill="#58a7c8"/>
      </g>
      <path id="shape-7" data-name="shape" d="M1,0H77a3,3,0,0,1,3,3V45a3,3,0,0,1-3,3H1a1,1,0,0,1-1-1V1A1,1,0,0,1,1,0Z" transform="translate(797 281)" fill="#1080b0" opacity="0.5"/>
      <path id="shape-8" data-name="shape" d="M3,0H5A1,1,0,0,1,6,1V47a1,1,0,0,1-1,1H3a3,3,0,0,1-3-3V3A3,3,0,0,1,3,0Z" transform="translate(789 281)" fill="#1080b0"/>
    </g>
  </g>
</svg>
