<svg xmlns="http://www.w3.org/2000/svg" xmlns:xlink="http://www.w3.org/1999/xlink" width="200" height="300" viewBox="0 0 200 300">
  <defs>
    <clipPath id="clip-path">
      <rect id="Rectangle_3199" data-name="Rectangle 3199" width="200" height="300" fill="none"/>
    </clipPath>
  </defs>
  <g id="Group_15955" data-name="Group 15955" clip-path="url(#clip-path)">
    <path id="Path_50351" data-name="Path 50351" d="M1.121,67.25A1.536,1.536,0,0,0,.057,69.142L25.71,160.756A1.536,1.536,0,0,0,27.6,161.82l94.569-26.48a1.537,1.537,0,0,0,1.064-1.892L97.581,41.834A1.536,1.536,0,0,0,95.69,40.77Z" transform="translate(0 33.433)" fill="#dedede"/>
    <rect id="Rectangle_3197" data-name="Rectangle 3197" width="93.585" height="90.516" transform="matrix(0.963, -0.27, 0.27, 0.963, 4.383, 103.764)" fill="#fcfcfc"/>
    <path id="Path_50352" data-name="Path 50352" d="M47.39,141.134c-.6.168-.849,1.167-.552,2.226s1.027,1.784,1.628,1.615l41.1-11.509c.6-.169.849-1.167.553-2.226s-1.027-1.784-1.628-1.616Z" transform="translate(-31.092 -25.731)" fill="#e8e8e8"/>
    <path id="Path_50353" data-name="Path 50353" d="M57.289,176.486c-.6.168-.849,1.167-.552,2.226s1.027,1.784,1.628,1.615l41.1-11.509c.6-.168.849-1.167.553-2.226s-1.027-1.784-1.628-1.616Z" transform="translate(-37.681 -49.262)" fill="#e8e8e8"/>
    <path id="Path_50354" data-name="Path 50354" d="M67.074,211.43c-.6.168-.849,1.167-.552,2.226s1.027,1.784,1.628,1.615l41.1-11.509c.6-.169.849-1.167.553-2.226s-1.027-1.784-1.628-1.616Z" transform="translate(-44.194 -72.521)" fill="#e8e8e8"/>
    <path id="Path_50355" data-name="Path 50355" d="M76.973,246.782c-.6.168-.849,1.167-.552,2.226s1.027,1.784,1.628,1.615l41.1-11.509c.6-.169.849-1.167.553-2.226s-1.027-1.784-1.628-1.616Z" transform="translate(-50.783 -96.052)" fill="#e8e8e8"/>
    <path id="Path_50356" data-name="Path 50356" d="M231.127,108.183a1.995,1.995,0,0,0,1.068,3.844l.008,0,7.684-2.151a1.995,1.995,0,0,0-1.076-3.842Z" transform="translate(-152.869 -9.994)" fill="#e8e8e8"/>
    <path id="Path_50357" data-name="Path 50357" d="M240.833,142.85a1.995,1.995,0,1,0,1.068,3.844l.007,0,7.684-2.151a1.995,1.995,0,1,0-1.076-3.842Z" transform="translate(-159.329 -33.069)" fill="#e8e8e8"/>
    <path id="Path_50358" data-name="Path 50358" d="M250.545,177.517a1.995,1.995,0,0,0,1.073,3.843h0l7.684-2.151a1.995,1.995,0,1,0-1.076-3.842Z" transform="translate(-165.796 -56.144)" fill="#e8e8e8"/>
    <path id="Path_50359" data-name="Path 50359" d="M260.262,212.185a1.995,1.995,0,0,0,1.076,3.842l7.684-2.151a1.995,1.995,0,0,0-1.076-3.842Z" transform="translate(-172.267 -79.22)" fill="#e8e8e8"/>
    <path id="Path_50360" data-name="Path 50360" d="M268.729,271.057a2.542,2.542,0,1,0,1.366,4.9h0l9.791-2.742a2.542,2.542,0,0,0-1.371-4.9Z" transform="translate(-177.632 -117.999)" fill="#62cb62"/>
    <rect id="Rectangle_3198" data-name="Rectangle 3198" width="75.237" height="0.669" transform="translate(28.723 163.458) rotate(-15.643)" fill="#e8e8e8"/>
    <path id="Path_50361" data-name="Path 50361" d="M492.346,461.459l-5.811,1.4-8.183-21.744,8.576-2.073Z" transform="translate(-318.398 -231.703)" fill="#ffc44d"/>
    <path id="Path_50362" data-name="Path 50362" d="M472.353,511.478l-.039-.163a7.435,7.435,0,0,1,5.473-8.963l11.369-2.748,1.784,7.381Z" transform="translate(-314.24 -272.011)" fill="#090909"/>
    <path id="Path_50363" data-name="Path 50363" d="M425.716,472.011h-5.978l-2.844-23.058h8.823Z" transform="translate(-277.49 -238.296)" fill="#ffc44d"/>
    <path id="Path_50364" data-name="Path 50364" d="M409.542,519.895H390.42v-.167a7.426,7.426,0,0,1,7.426-7.426h11.7Z" transform="translate(-259.869 -280.462)" fill="#090909"/>
    <path id="Path_50365" data-name="Path 50365" d="M405.326,344.443l-5.8-69.175,24.028-4.429.095-.017,7.032,4.521L428.229,300.8l11.27,39.691-9.732,2.561L418.48,306.242,415.9,295.048l-1.324,14.546.983,35.872Z" transform="translate(-265.927 -119.73)" fill="#232323"/>
    <path id="Path_50366" data-name="Path 50366" d="M397.169,157.885l-.063-.081,8.3-62.516.011-.082.058-.059c.123-.122,3.031-3,6.024-3,.432,0,.844-.011,1.238-.021,2.29-.06,4.1-.107,6.248,2.043,2.19,2.19,9.336,10.187,9.336,21.14,0,10.6.965,43.546.975,43.877l.014.465-.39-.254c-.1-.062-9.707-6.182-17.768-.493a11.6,11.6,0,0,1-6.717,2.4,9.975,9.975,0,0,1-7.269-3.425" transform="translate(-264.319 -0.778)" fill="#62cb62"/>
    <path id="Path_50367" data-name="Path 50367" d="M406.769,11.025a11.976,11.976,0,1,1-4.764,16.253,11.976,11.976,0,0,1,4.764-16.253" transform="translate(-266.602 54.173)" fill="#ffc44d"/>
    <path id="Path_50368" data-name="Path 50368" d="M365.655,282.1a4.9,4.9,0,0,0,.285-7.513l6.8-16.042-8.905,1.639-5.093,14.983a4.93,4.93,0,0,0,6.913,6.934Z" transform="translate(-238.077 -111.558)" fill="#ffc44d"/>
    <path id="Path_50369" data-name="Path 50369" d="M361.879,166.256l2.19-4.624a.9.9,0,0,1-.324-.335c-2.046-3.546,10.313-32.995,11.137-34.948-.126-1.062-1.423-12.32-.475-16.115,1.117-4.467,3.41-6.549,7.668-6.961,4.7-.441,5.962,5.935,5.974,6l0,16.392-5.388,18.868L370.376,169.6Z" transform="translate(-240.872 -8.193)" fill="#62cb62"/>
    <path id="Path_50370" data-name="Path 50370" d="M411.582,19.686c-1.435.187-2.519-1.282-3.021-2.64s-.885-2.939-2.133-3.672c-1.705-1-3.887.2-5.837-.128-2.2-.373-3.634-2.707-3.747-4.938a14.947,14.947,0,0,1,1.647-6.433l.3,2.556A5.07,5.07,0,0,1,401.01,0l-.392,3.751A3.981,3.981,0,0,1,405.2.457l-.062,2.235a36.931,36.931,0,0,1,7.661-.375,12.388,12.388,0,0,1,7.054,2.718c2.892,2.513,3.948,6.651,3.594,10.467s-1.93,7.4-3.571,10.862c-.413.871-.984,1.854-1.942,1.965a1.956,1.956,0,0,1-1.915-1.444,5.232,5.232,0,0,1,.023-2.57,10.928,10.928,0,0,0,.32-3.889,3.17,3.17,0,0,0-2.454-2.72c-1.3-.158-2.628,1.327-2,2.476Z" transform="translate(-264.138 60.533)" fill="#484848"/>
    <path id="Path_50371" data-name="Path 50371" d="M426.175,533.69H339.991v-.7H426.3Z" transform="translate(-226.303 -294.23)" fill="#090909"/>
  </g>
</svg>
