<svg id="promo_message" xmlns="http://www.w3.org/2000/svg" xmlns:xlink="http://www.w3.org/1999/xlink" width="550" height="200" viewBox="0 0 550 200">
  <defs>
    <clipPath id="clip-path">
      <rect id="shape" width="550" height="200" fill="#f2f2f2"/>
    </clipPath>
  </defs>
  <rect id="shape-2" data-name="shape" width="550" height="200" fill="#f2f2f2"/>
  <g id="_20_woman-computer" data-name="20_woman-computer" transform="translate(310.674 24.305)">
    <g id="plant" transform="translate(67.246 117.715)">
      <g id="scale-5">
        <path id="background" d="M496.329,646.989c2.163-4.672,4.324-9.413,5.263-14.475s.545-10.555-2.144-14.946-7.982-7.368-13.034-6.375c-4.149.815-7.481,4.083-9.431,7.834s-2.733,7.983-3.492,12.143c-.245-4.726-.5-9.528-2.075-13.992s-4.661-8.624-9.067-10.352-10.137-.369-12.459,3.754c-3.271,5.809,1.066,13.957-2.7,19.461a10.327,10.327,0,1,0-20.369,3.3,13.916,13.916,0,0,0,5.523,7.984,45.615,45.615,0,0,0,8.754,5.6Z" transform="translate(-426.64 -606.094)" class="svg-fill-c-scale-5"/>
      </g>
      <g id="scale-1" transform="translate(2.816 0.92)">
        <path id="line" d="M438.35,680.544a68.34,68.34,0,0,1,12.737,5.446,23.483,23.483,0,0,1,8.748,8.69,15.454,15.454,0,0,1,1.912,6.421c.029.471.767.475.737,0a18.129,18.129,0,0,0-5.137-11.078,32.49,32.49,0,0,0-11.287-7.371c-2.464-1.047-4.989-1.936-7.515-2.819-.449-.157-.642.555-.2.711Z" transform="translate(-438.097 -662.61)" class="svg-fill-c-scale-1"/>
        <path id="line-2" data-name="line" d="M541.276,610.381a66.438,66.438,0,0,1,6.389,14.184,67.238,67.238,0,0,1,2.947,15.274,66.394,66.394,0,0,1,.07,8.727c-.027.474.71.473.737,0a67.276,67.276,0,0,0-.945-15.669,68.081,68.081,0,0,0-4.526-15.03,66.364,66.364,0,0,0-4.036-7.859.369.369,0,0,0-.637.372Z" transform="translate(-515.881 -609.837)" class="svg-fill-c-scale-1"/>
        <path id="line-3" data-name="line" d="M660.953,628.694a107.505,107.505,0,0,0-7.93,26.676q-.622,3.876-.963,7.789c-.041.473.7.47.737,0a107.119,107.119,0,0,1,5.9-26.883q1.313-3.657,2.891-7.21C661.781,628.636,661.146,628.261,660.953,628.694Z" transform="translate(-599.466 -623.913)" class="svg-fill-c-scale-1"/>
      </g>
    </g>
    <g id="plant-2" data-name="plant" transform="translate(0 114.274)">
      <g id="scale-5-2" data-name="scale-5">
        <path id="background-2" data-name="background" d="M179.138,635.876a34.85,34.85,0,0,1-26.068-34.264,14,14,0,0,1,1.052-5.7,6.446,6.446,0,0,1,4.236-3.71,6.67,6.67,0,0,1,5.806,1.932,17.723,17.723,0,0,1,3.49,5.284c5.614,11.487,9.879,23.813,11.476,36.5Z" transform="translate(-153.066 -592.091)" class="svg-fill-c-scale-5"/>
      </g>
      <g id="scale-1-2" data-name="scale-1" transform="translate(4.332 0.185)">
        <path id="line-4" data-name="line" d="M170.708,593.157l3.934,8.939,3.934,8.939c1.246,2.831,2.49,5.663,3.778,8.476,1.277,2.788,2.6,5.556,4.005,8.28s2.9,5.4,4.524,7.992q.3.485.612.967c.143.222.5.016.355-.208-1.654-2.578-3.178-5.237-4.607-7.945s-2.768-5.471-4.056-8.253-2.54-5.616-3.781-8.436L175.487,603l-3.934-8.939-.49-1.112c-.106-.242-.461-.033-.355.208Z" transform="translate(-170.689 -592.842)" class="svg-fill-c-scale-1"/>
      </g>
    </g>
    <g id="plant-3" data-name="plant" transform="translate(0.652 140.314)">
      <g id="scale-5-3" data-name="scale-5">
        <path id="background-3" data-name="background" d="M179.495,715.834a20.393,20.393,0,0,1-22.784-10.752,8.2,8.2,0,0,1-.991-3.241,3.772,3.772,0,0,1,1.2-3.069,3.9,3.9,0,0,1,3.536-.564,10.371,10.371,0,0,1,3.238,1.8A68.587,68.587,0,0,1,179.5,715.861Z" transform="translate(-155.715 -698.026)" class="svg-fill-c-scale-5"/>
      </g>
      <g id="scale-1-3" data-name="scale-1" transform="translate(0.77 0.97)">
        <path id="line-5" data-name="line" d="M158.893,702.2l4.456,3.579,4.456,3.579c1.411,1.133,2.821,2.268,4.249,3.381s2.848,2.184,4.315,3.217,2.963,2.018,4.506,2.928q.288.17.579.337c.134.077.263-.126.128-.2-1.555-.892-3.064-1.861-4.537-2.881s-2.914-2.093-4.334-3.19-2.835-2.23-4.241-3.359l-4.44-3.566-4.456-3.579-.555-.445c-.121-.1-.248.108-.128.2Z" transform="translate(-158.845 -701.971)" class="svg-fill-c-scale-1"/>
      </g>
    </g>
    <g id="scale-12" transform="translate(14.418 157.888)">
      <path id="floor" d="M393.189,771.235H195.829c-.157,0-.284-.181-.284-.4s.127-.4.284-.4H393.189c.157,0,.284.181.284.4S393.345,771.235,393.189,771.235Z" transform="translate(-195.545 -770.427)" class="#svg-fill-c-scale-12"/>
    </g>
    <g id="lady" transform="translate(154.175 55.81)">
      <g id="scale-11" transform="translate(25.443 73.562)">
        <path id="shape-3" data-name="shape" d="M912.928,653.515H899.16a.615.615,0,0,1-.614.615H885.031a3.161,3.161,0,0,0-.519.492,3.05,3.05,0,0,0-.713,1.966v.492a3.074,3.074,0,0,0,3.073,3.073h26.055A3.075,3.075,0,0,0,916,657.079v-.492A3.077,3.077,0,0,0,912.928,653.515Z" transform="translate(-883.8 -653.515)" class="svg-fill-c-scale-11"/>
        <path id="shape-4" data-name="shape" d="M0,0H3.2V22.614H0Z" transform="translate(14.624 6.515)" class="svg-fill-c-scale-11"/>
        <path id="shape-5" data-name="shape" d="M926.926,762.1c0,.345-4.842.134-10.815.134s-10.815.212-10.815-.134,4.842-3.083,10.815-3.083S926.926,761.757,926.926,762.1Z" transform="translate(-900.012 -733.085)" class="svg-fill-c-scale-11"/>
      </g>
      <g id="primary-light" transform="translate(29.452 9.18)">
        <path id="shape-6" data-name="shape" d="M12.32,0A12.32,12.32,0,1,1,0,12.32,12.32,12.32,0,0,1,12.32,0Z" class="svg-fill-primary_light"/>
      </g>
      <g id="primary-light-2" data-name="primary-light" transform="translate(14.706 39.526)">
        <path id="shape-7" data-name="shape" d="M902.572,641.936l-.536-3.353a1.616,1.616,0,0,0-1.848-1.34l-5.528.883-9.468,1.512-3.08.492h6.681a.615.615,0,0,1,.615.615v.484a.615.615,0,0,1-.615.615h-17a1.557,1.557,0,0,0-.6.492,1.594,1.594,0,0,0-.3,1.219l.152.954.184,1.158.2,1.244a1.613,1.613,0,0,0,1.844,1.337l4.393-.7,12.669-2.023,10.9-1.74A1.619,1.619,0,0,0,902.572,641.936Z" transform="translate(-863.309 -607.192)" class="svg-fill-primary_light"/>
        <path id="shape-8" data-name="shape" d="M877.853,656.507a1.562,1.562,0,0,0-.622-.492h-4.7a1.553,1.553,0,0,0-.624.492,1.59,1.59,0,0,0-.337.981V676.22a1.612,1.612,0,0,0,1.61,1.61h3.4a1.613,1.613,0,0,0,1.61-1.61V657.487a1.593,1.593,0,0,0-.337-.981Z" transform="translate(-863.839 -621.364)" class="svg-fill-primary_light"/>
        <path id="shape-9" data-name="shape" d="M867.554,518.284l-.032-.042-2.109-2.6a1.549,1.549,0,0,0-.4-.352,1.183,1.183,0,0,0-.26-.133,1.55,1.55,0,0,0-.42-.1,1.627,1.627,0,0,0-.29,0l0,0a1.594,1.594,0,0,0-.89.354l-4.329,3.51-5.562,4.513-8.3,6.735-.6.492h10.5l.607-.492,2.008-1.63.142-.113,9.7-7.868.007,0a1.586,1.586,0,0,0,.46-.6,1.618,1.618,0,0,0,.128-.484A1.6,1.6,0,0,0,867.554,518.284Z" transform="translate(-843.31 -515.048)" class="svg-fill-primary_light"/>
        <path id="shape-10" data-name="shape" d="M871.807,635.035l-.337-2.114-.2-1.241a1.613,1.613,0,0,0-1.846-1.337l-8.955,1.428-2.428.388-.492.079v2.687H865.6a.614.614,0,0,1,.614.614v.484a.615.615,0,0,1-.614.615H840.12s0,.01,0,.015l.152.954.384,2.4a1.613,1.613,0,0,0,1.844,1.337l4.393-.7.956-.152.184-.029,6.435-1.028,4.378-.7,6.946-1.109.1-.017,4.569-.728A1.615,1.615,0,0,0,871.807,635.035Z" transform="translate(-840.12 -601.987)" class="svg-fill-primary_light"/>
        <path id="shape-11" data-name="shape" d="M840.75,656.015v18.507a1.612,1.612,0,0,0,1.61,1.61h3.4a1.613,1.613,0,0,0,1.61-1.61V656.015Z" transform="translate(-840.595 -621.364)" class="svg-fill-primary_light"/>
      </g>
      <g id="secondary" transform="translate(23.784 36.369)">
        <path id="shape-12" data-name="shape" d="M894.426,518.182a4.008,4.008,0,0,0-.875-1.794,3.962,3.962,0,0,0-1.635-1.155c-.1-.037-.194-.071-.293-.1a4.2,4.2,0,0,0-.678-.143l-.005,0a4.009,4.009,0,0,0-2.9.8l-7.487,5.722a1.588,1.588,0,0,0-.529,1.123,1.629,1.629,0,0,0,.135.73c.025.052.052.1.081.152a1.426,1.426,0,0,0,.206.275l1.2,1.347,2.79,3.129.079.088.18.2a1.61,1.61,0,0,0,2.279.1l6.457-6.937a3.986,3.986,0,0,0,.784-1.236A4.048,4.048,0,0,0,894.426,518.182Z" transform="translate(-879.292 -511.83)" class="svg-fill-secondary"/>
        <path id="shape-13" data-name="shape" d="M911.807,529.369c0,10.044-1.02,16.051-16.752,14.33l-.064-.007a46.7,46.7,0,0,1-8.291-1.585,24.629,24.629,0,0,1-4.09-1.6c-.31-.157-.607-.322-.9-.492h11.745a.615.615,0,0,0,.615-.614v-.484a.615.615,0,0,0-.615-.615H885.4V522.774a1.8,1.8,0,0,0-1.8-1.8H877.05c.057-.162.113-.327.174-.492a40.258,40.258,0,0,1,2.18-4.96,37.846,37.846,0,0,1,4.076-6.288,26.185,26.185,0,0,1,3.648-3.734A12.624,12.624,0,0,1,895,502.2C905.045,502.2,911.807,519.325,911.807,529.369Z" transform="translate(-877.05 -502.205)" class="svg-fill-secondary"/>
      </g>
      <g id="primary-light-3" data-name="primary-light" transform="translate(32.136 44.059)">
        <path id="shape-14" data-name="shape" d="M927.99,535.716l-.976-.678-1.817-1.261a1.613,1.613,0,0,0-2.242.406l-5.921,8.522-5.513,7.935-.492.708v10.547h.044a1.606,1.606,0,0,0,1.005-.492,1.436,1.436,0,0,0,.155-.189l1.716-2.473,4.24-6.1,4.4-6.322.418-.6,5.388-7.755a1.466,1.466,0,0,0,.081-.128,1.3,1.3,0,0,0,.066-.13A1.61,1.61,0,0,0,927.99,535.716Z" transform="translate(-911.03 -533.49)" class="svg-fill-primary_light"/>
      </g>
      <g id="secondary-2" data-name="secondary" transform="translate(37.821 42.247)">
        <path id="shape-15" data-name="shape" d="M945.448,526.782a3.97,3.97,0,0,0-.546-.3,4.021,4.021,0,0,0-4.911,1.268l-5.594,7.586a1.6,1.6,0,0,0,.536,2.222l5.093,3.2.064.039.256.16a1.616,1.616,0,0,0,2.215-.541l3.95-7.841.066-.13,0,0,.243-.489A4.022,4.022,0,0,0,945.448,526.782Z" transform="translate(-934.155 -526.116)" class="svg-fill-secondary"/>
      </g>
      <g id="scale-12-2" data-name="scale-12" transform="translate(0 54.644)">
        <path id="shape-16" data-name="shape" d="M820.479,593.882h-7.561V578.848a2.3,2.3,0,0,0-2.293-2.293H782.586a2.3,2.3,0,0,0-2.3,2.293v15.437a2.3,2.3,0,0,0,2.3,2.293h37.893c.039,0,.076,0,.113,0s.069-.01.1-.015a1.11,1.11,0,0,0,.89-1.087v-.484A1.106,1.106,0,0,0,820.479,593.882Zm0,2.2H782.586a1.8,1.8,0,0,1-1.8-1.8V578.848a1.8,1.8,0,0,1,1.8-1.8h28.039a1.8,1.8,0,0,1,1.8,1.8v15.525h8.052a.615.615,0,0,1,.615.615v.484A.615.615,0,0,1,820.479,596.087Z" transform="translate(-780.29 -576.555)" class="svg-fill-c-scale-12"/>
        <path id="shape-17" data-name="shape" d="M0,0H.492V2.212H0Z" transform="translate(32.129 17.588)" class="svg-fill-c-scale-12"/>
      </g>
      <g id="primary" transform="translate(14.424 62.766)">
        <path id="shape-18" data-name="shape" d="M1.89,0A1.89,1.89,0,1,1,0,1.89,1.89,1.89,0,0,1,1.89,0Z" class="svg-fill-primary"/>
      </g>
      <g id="scale-12-3" data-name="scale-12" transform="translate(30.793)">
        <path id="shape-19" data-name="shape" d="M941.538,436.241l.013-.46a3.808,3.808,0,0,1-2.179-.492,1.416,1.416,0,0,1-.548-1.042.809.809,0,0,1,.265-.666,1.4,1.4,0,0,1,1.425-.013l.381.175-.73-5.338-.456.062.621,4.541a1.625,1.625,0,0,0-1.537.221,1.259,1.259,0,0,0-.428,1.034,1.872,1.872,0,0,0,.737,1.4A4.235,4.235,0,0,0,941.538,436.241Z" transform="translate(-930.3 -410.175)" class="svg-fill-c-scale-12"/>
        <path id="shape-20" data-name="shape" d="M0,0H2.48V.46H0Z" transform="translate(12.499 18.682)" class="svg-fill-c-scale-12"/>
        <path id="shape-21" data-name="shape" d="M926.378,372.361a5.573,5.573,0,0,0-4.307-2.2,19.728,19.728,0,0,0-5.507.544,14.692,14.692,0,0,1-6.165.259,6.078,6.078,0,0,1-4.131-3.337,7.774,7.774,0,0,1-.453-5.184,9.422,9.422,0,0,1,3.082-4.678,15.807,15.807,0,0,1,10.657-3.509A18.018,18.018,0,0,1,930,357.927a16.965,16.965,0,0,1,6.019,9.432,17.686,17.686,0,0,1-.856,11.124c-.831,1.927-2.032,3.664-2.959,5.542a8.243,8.243,0,0,0-.991,5.732,5.317,5.317,0,0,0,3.591,3.7A3.771,3.771,0,0,0,939,391.741a3.154,3.154,0,0,0-5.03-3.807,3.293,3.293,0,0,0-.659,2.415c.064.435-.6.622-.666.184a3.9,3.9,0,0,1,7.264-2.515,4.209,4.209,0,0,1-.636,4.524,4.409,4.409,0,0,1-4.5,1.617,5.951,5.951,0,0,1-4-3.559,7.681,7.681,0,0,1,.337-5.829c.82-1.981,2.037-3.758,3-5.667a16.141,16.141,0,0,0,1.638-5.514,17.447,17.447,0,0,0-2.488-11.051,16.215,16.215,0,0,0-8.931-6.788,16.947,16.947,0,0,0-11.214.3c-3.509,1.383-6.9,4.4-6.857,8.443a6.222,6.222,0,0,0,1.983,4.645c1.582,1.378,3.786,1.5,5.775,1.281s3.946-.8,5.956-.95a9.3,9.3,0,0,1,5.2.874,5.2,5.2,0,0,1,1.8,1.674C927.221,372.384,926.623,372.73,926.378,372.361Z" transform="translate(-905.566 -354.247)" class="svg-fill-c-scale-12"/>
        <path id="shape-22" data-name="shape" d="M0,0H2.48V.46H0Z" transform="translate(4.673 18.682)" class="svg-fill-c-scale-12"/>
      </g>
    </g>
    <g id="doc" transform="translate(117.728)">
      <g id="scale-12-4" data-name="scale-12">
        <path id="border" d="M667.964,174.028h-34.1a1.851,1.851,0,0,1-1.849-1.849V129.041a1.851,1.851,0,0,1,1.849-1.849h34.1a1.851,1.851,0,0,1,1.849,1.849V172.18A1.851,1.851,0,0,1,667.964,174.028Zm-34.1-46.426a1.44,1.44,0,0,0-1.438,1.438v43.139a1.44,1.44,0,0,0,1.438,1.438h34.1a1.44,1.44,0,0,0,1.438-1.438V129.041a1.44,1.44,0,0,0-1.438-1.438Z" transform="translate(-632.015 -127.192)" class="svg-fill-c-scale-12"/>
      </g>
      <g id="primary-2" data-name="primary" transform="translate(7.632 10.029)">
        <path id="shape-23" data-name="shape" d="M671.494,178.7h-7.506a.925.925,0,0,1-.924-.924v-8.858a.925.925,0,0,1,.924-.924h7.506a.925.925,0,0,1,.924.924v8.858a.925.925,0,0,1-.924.924Z" transform="translate(-663.063 -167.993)" class="svg-fill-primary"/>
      </g>
      <g id="scale-7" transform="translate(22.217 14.137)">
        <path id="shape-24" data-name="shape" d="M730.83,195.414h-7.506a.925.925,0,0,1-.924-.924v-8.858a.925.925,0,0,1,.924-.924h7.506a.925.925,0,0,1,.924.924v8.858A.926.926,0,0,1,730.83,195.414Z" transform="translate(-722.399 -184.707)" class="svg-fill-c-scale-7"/>
      </g>
      <g id="success" transform="translate(10.508 26.668)">
        <path id="shape-25" data-name="shape" d="M683.194,246.393h-7.506a.925.925,0,0,1-.924-.924v-8.858a.925.925,0,0,1,.924-.924h7.506a.925.925,0,0,1,.924.924v8.858a.925.925,0,0,1-.924.924Z" transform="translate(-674.763 -235.686)" class="svg-fill-success"/>
      </g>
    </g>
    <g id="doc-2" data-name="doc" transform="translate(71.54 34.033)">
      <g id="scale-12-5" data-name="scale-12">
        <path id="border-2" data-name="border" d="M481.762,266.792a1.869,1.869,0,0,0-1.708-1.143h-34.1a1.849,1.849,0,0,0-1.848,1.848v43.139a1.849,1.849,0,0,0,1.848,1.848h34.1a1.851,1.851,0,0,0,1.848-1.848V267.5A1.817,1.817,0,0,0,481.762,266.792Zm-.27,43.844a1.44,1.44,0,0,1-1.438,1.438h-34.1a1.438,1.438,0,0,1-1.438-1.438V267.5a1.44,1.44,0,0,1,1.438-1.438h34.1a1.445,1.445,0,0,1,1.335.9,1.615,1.615,0,0,1,.054.162,1.426,1.426,0,0,1,.049.371Z" transform="translate(-444.105 -265.649)" class="svg-fill-c-scale-12"/>
      </g>
      <g id="secondary-3" data-name="secondary" transform="translate(19.447 8.542)">
        <path id="line-6" data-name="line" d="M534.314,302.043H524.043a.822.822,0,0,1,0-1.643h10.271a.822.822,0,1,1,0,1.643Z" transform="translate(-523.221 -300.399)" class="svg-fill-secondary"/>
        <path id="line-7" data-name="line" d="M534.314,319.593H524.043a.822.822,0,1,1,0-1.643h10.271a.822.822,0,1,1,0,1.643Z" transform="translate(-523.221 -313.636)" class="svg-fill-secondary"/>
      </g>
      <g id="primary-3" data-name="primary" transform="translate(6.568 6.249)">
        <path id="image-2" data-name="image" d="M479.257,301.777h-7.506a.926.926,0,0,1-.924-.924v-8.858a.925.925,0,0,1,.924-.924h7.506a.925.925,0,0,1,.924.924v8.858a.925.925,0,0,1-.924.925Z" transform="translate(-470.826 -291.07)" class="svg-fill-primary"/>
      </g>
      <g id="scale-6" transform="translate(6.434 21.689)">
        <path id="line-8" data-name="line" d="M494.316,355.529H471.1a.822.822,0,0,1,0-1.643h23.213a.822.822,0,0,1,0,1.643Z" transform="translate(-470.281 -353.885)" class="svg-fill-c-scale-6"/>
        <path id="line-9" data-name="line" d="M494.316,373.079H471.1a.822.822,0,0,1,0-1.643h23.213a.822.822,0,0,1,0,1.643Z" transform="translate(-470.281 -367.122)" class="svg-fill-c-scale-6"/>
        <path id="line-10" data-name="line" d="M494.316,390.629H471.1a.822.822,0,0,1,0-1.643h23.213a.822.822,0,0,1,0,1.643Z" transform="translate(-470.281 -380.358)" class="svg-fill-c-scale-6"/>
        <path id="line-11" data-name="line" d="M494.316,408.179H471.1a.822.822,0,0,1,0-1.643h23.213a.822.822,0,0,1,0,1.643Z" transform="translate(-470.281 -393.594)" class="svg-fill-c-scale-6"/>
        <path id="line-12" data-name="line" d="M494.316,425.729H471.1a.822.822,0,0,1,0-1.643h23.213a.822.822,0,0,1,0,1.643Z" transform="translate(-470.281 -406.83)" class="svg-fill-c-scale-6"/>
      </g>
    </g>
    <g id="arrow" transform="translate(115.422 51.389)">
      <g id="scale-6-2" data-name="scale-6">
        <path id="shape-26" data-name="shape" d="M0,0H26.841V.411H0Z" transform="translate(0.181 18.667) rotate(-43.593)" class="svg-fill-c-scale-6"/>
        <path id="shape-27" data-name="shape" d="M469.569,279.3l2.467-.029,0-.411-2.026.024.124-2.022-.411-.025Z" transform="translate(-469.569 -260.179)" class="svg-fill-c-scale-6"/>
        <path id="shape-28" data-name="shape" d="M543.712,209.063l-.15,2.463-.411-.025.124-2.022-2.026.024,0-.411Z" transform="translate(-523.627 -209.063)" class="svg-fill-c-scale-6"/>
        <path id="shape-29" data-name="shape" d="M2.26,0A2.26,2.26,0,1,1,0,2.26,2.26,2.26,0,0,1,2.26,0Z" transform="translate(7.783 7.302)" class="svg-fill-c-scale-6"/>
      </g>
    </g>
    <g id="arrow-2" data-name="arrow" transform="translate(89.367 7.635)">
      <g id="scale-6-3" data-name="scale-6">
        <path id="shape-30" data-name="shape" d="M0,0H26.841V.411H0Z" transform="translate(0.181 18.666) rotate(-43.593)" class="svg-fill-c-scale-6"/>
        <path id="shape-31" data-name="shape" d="M363.569,101.3l2.467-.029,0-.411-2.026.024.124-2.022-.411-.025Z" transform="translate(-363.569 -82.179)" class="svg-fill-c-scale-6"/>
        <path id="shape-32" data-name="shape" d="M437.712,31.063l-.15,2.463-.41-.025.124-2.022-2.026.024,0-.411Z" transform="translate(-417.627 -31.063)" class="svg-fill-c-scale-6"/>
        <path id="shape-33" data-name="shape" d="M2.26,0A2.26,2.26,0,1,1,0,2.26,2.26,2.26,0,0,1,2.26,0Z" transform="translate(7.783 7.302)" class="svg-fill-c-scale-6"/>
      </g>
    </g>
    <g id="plant-4" data-name="plant" transform="translate(26.073 140.045)">
      <g id="secodnary" transform="translate(3.411 0)">
        <path id="shape-34" data-name="shape" d="M36.225,673.268c3.767,5.043,11.761,7.208,11.761,7.208s1.887-6.012-1.879-11.055-11.761-7.208-11.761-7.208S32.459,668.225,36.225,673.268Z" transform="translate(-33.873 -662.213)" class="svg-fill-secondary"/>
      </g>
      <g id="primary-4" data-name="primary" transform="translate(0 3.117)">
        <path id="shape-35" data-name="shape" d="M10.974,698.569c4.907,4.091,6.8,12.218,6.8,12.218a13.428,13.428,0,0,1-10.974-2.6C1.89,704.1,0,695.971,0,695.971A13.428,13.428,0,0,1,10.974,698.569Z" transform="translate(0 -695.705)" class="svg-fill-primary"/>
      </g>
    </g>
  </g>
</svg>
