<svg xmlns="http://www.w3.org/2000/svg" width="272" height="260.346" viewBox="0 0 272 260.346">
    <defs>
        <style>.image_preview_not_found-b{opacity:0.05;}.image_preview_not_found-c,.image_preview_not_found-d,.image_preview_not_found-e{opacity:0.1;}.image_preview_not_found-d{fill:#fff;}</style>
    </defs>
    <g transform="translate(-196.231 -6.185)">
        <g transform="translate(257.971 174.438)">
            <path class="svg-fill-primary" d="M330.96,342.993l50.345-8.193v47.665l-47.835-2.5Z" transform="translate(-312.731 -320.253)"/>
            <path class="image_preview_not_found-b" d="M330.96,342.993l50.345-8.193v47.665l-47.835-2.5Z" transform="translate(-312.731 -320.253)"/>
            <path class="svg-fill-primary" d="M407.96,334.8l60.375,4.518L464.994,380.8l-57.034,1.667Z" transform="translate(-339.385 -320.253)"/>
            <path class="image_preview_not_found-c" d="M407.96,334.8l60.375,4.518L464.994,380.8l-57.034,1.667Z" transform="translate(-339.385 -320.253)"/>
            <path class="svg-fill-primary" d="M426.522,312.55,407.96,327.1l60.375,4.518,9.866-14.888Z" transform="translate(-339.385 -312.55)"/>
            <path class="svg-fill-primary" d="M303.08,320.108,348.4,314.59l23.25,13.214L321.309,336Z" transform="translate(-303.08 -313.256)"/>
            <path class="svg-fill-primary" d="M392.342,351.515v65.168l-23.584-2.419L358.5,413.217l-3.125-.327-10.252-1.053-14.162-1.452V347.33l50.339,3.426Z" transform="translate(-312.731 -324.589)"/>
            <path class="svg-fill-primary" d="M474.179,341.71v63.553l-18.9,3.629-9.193,1.765-21.243,4.08V349.569Z" transform="translate(-345.229 -322.644)"/>
            <path class="image_preview_not_found-b" d="M474.179,341.71v63.553l-18.9,3.629-9.193,1.765-21.243,4.08V349.569Z" transform="translate(-345.229 -322.644)"/>
            <path class="svg-fill-primary" d="M303.08,361.048l18.229-13.717,61.382,4.185-9.036,15.221Z" transform="translate(-303.08 -324.589)"/>
            <path class="image_preview_not_found-d" d="M303.08,361.048l18.229-13.717,61.382,4.185-9.036,15.221Z" transform="translate(-303.08 -324.589)"/>
            <path class="svg-fill-primary" d="M474.179,341.71l-49.339,7.859L440.9,363.954l52.85-8.866Z" transform="translate(-345.229 -322.644)"/>
            <path class="image_preview_not_found-e svg-fill-primary" d="M474.179,341.71l-49.339,7.859L440.9,363.954l52.85-8.866Z" transform="translate(-345.229 -322.644)"/>
            <path class="image_preview_not_found-d" d="M466.523,437.056l-9.193,1.765v-13.58l8.611-2.171Z" transform="translate(-356.475 -350.808)"/>
            <path class="image_preview_not_found-d" d="M383.339,435.96v8.984L373.08,443.9V435.96Z" transform="translate(-327.311 -355.27)"/>
            <path class="image_preview_not_found-d" d="M362.872,440.29v4.78l-10.252-1.053V440.29Z" transform="translate(-320.229 -356.769)"/>
        </g>
        <g transform="translate(196.231 6.185)">
            <path class="svg-fill-primary" d="M731.21,167.394s-18.071-1.089-15.959,11.589a3.093,3.093,0,0,0,1.607,3.257s.033-.951,1.855-.623a8.328,8.328,0,0,0,1.964.1,4.075,4.075,0,0,0,2.406-.994h0s5.083-2.1,7.062-10.41c0,0,1.465-1.817,1.427-2.283l-3.053,1.308a5.471,5.471,0,0,1,.219,4.033s-.1-3.952-.685-3.861c-.119,0-1.584.766-1.584.766s1.793,3.833.438,6.624c0,0,.514-4.727-1-6.349l-2.149,1.255s2.1,3.961.675,7.195c0,0,.366-4.96-1.127-6.891l-1.95,1.517s1.973,3.909.77,6.591c0,0-.157-5.773-1.194-6.211a11.764,11.764,0,0,0-1.959,2.121s1.346,2.853.509,4.332c0,0-.514-3.847-.951-3.866a12.8,12.8,0,0,0-1.874,4.28,9.254,9.254,0,0,1,1.46-4.537,5.093,5.093,0,0,0-2.6,1.346s.262-1.8,3.015-1.959a13.009,13.009,0,0,1,1.779-2.054,11.15,11.15,0,0,0-4.4.509s1.46-1.7,4.9-.951l1.9-1.569s-3.6-.476-5.136.052c0,0,1.759-1.5,5.654-.409l2.092-1.251a18.787,18.787,0,0,0-4.9-.423s1.931-1.041,5.516.086l1.5-.671s-2.254-.442-2.91-.514-.694-.252-.694-.252a7.78,7.78,0,0,1,4.228.476S731.277,167.594,731.21,167.394Z" transform="translate(-616.203 -120.12)"/>
            <path class="image_preview_not_found-e svg-fill-primary" d="M846.67,300.734s-18.071-1.089-15.959,11.589a3.093,3.093,0,0,0,1.607,3.257s.033-.951,1.859-.623a8.327,8.327,0,0,0,1.964.1,4.071,4.071,0,0,0,2.378-.989h0s5.088-2.1,7.067-10.414c0,0,1.46-1.812,1.4-2.278l-3.053,1.3a5.487,5.487,0,0,1,.224,4.033s-.1-3.952-.685-3.861c-.119,0-1.588.766-1.588.766s1.8,3.838.442,6.624c0,0,.514-4.727-1-6.348l-2.126,1.241s2.1,3.961.675,7.2c0,0,.366-4.96-1.127-6.891l-1.945,1.522s1.969,3.9.77,6.586c0,0-.157-5.773-1.194-6.211a11.926,11.926,0,0,0-1.964,2.121s1.351,2.853.514,4.332c0,0-.514-3.847-.951-3.866a12.8,12.8,0,0,0-1.874,4.28,9.283,9.283,0,0,1,1.465-4.537,5.117,5.117,0,0,0-2.6,1.346s.266-1.8,3.02-1.959a11.875,11.875,0,0,1,1.779-2.054,11.151,11.151,0,0,0-4.4.509s1.46-1.7,4.9-.927l1.9-1.569s-3.609-.476-5.136.052c0,0,1.759-1.5,5.654-.409l2.092-1.251a19.055,19.055,0,0,0-4.908-.423s1.935-1.041,5.521.086l1.5-.671s-2.254-.442-2.915-.514-.694-.252-.694-.252a7.794,7.794,0,0,1,4.232.476A19.187,19.187,0,0,0,846.67,300.734Z" transform="translate(-676.756 -190.051)"/>
            <path class="image_preview_not_found-e svg-fill-primary" d="M620.008,257.378s4.161-17.638-8.7-17.7a3.089,3.089,0,0,0-3.481,1.027s.918.195.295,1.935a8.464,8.464,0,0,0-.428,1.9,4.085,4.085,0,0,0,.566,2.535h0s1.2,5.374,9.035,8.741c0,0,1.541,1.75,2.007,1.769l-.761-3.229a5.464,5.464,0,0,1-4.014-.476s3.914.575,3.919,0c0-.119-.476-1.693-.476-1.693s-4.085,1.113-6.605-.7c0,0,4.57,1.313,6.429.1l-.856-2.34s-4.28,1.393-7.209-.561c0,0,4.827,1.208,6.986.067l-1.165-2.178s-4.185,1.274-6.624-.366c0,0,5.707.827,6.325-.114a11.813,11.813,0,0,0-1.755-2.3s-3.025.846-4.356-.233c0,0,3.876.147,3.966-.262a12.82,12.82,0,0,0-3.914-2.582,9.321,9.321,0,0,1,4.228,2.216,5.131,5.131,0,0,0-.885-2.791s1.731.571,1.427,3.329a11.846,11.846,0,0,1,1.717,2.1,11.183,11.183,0,0,0,.247-4.423s1.427,1.731.081,4.988l1.217,2.164s1.1-3.471.823-5.069c0,0,1.184,1.988-.561,5.64l.88,2.278a19.042,19.042,0,0,0,1.251-4.755s.7,2.083-1.027,5.426l.409,1.588s.818-2.145,1-2.782.366-.642.366-.642a7.79,7.79,0,0,1-1.184,4.09A18.892,18.892,0,0,0,620.008,257.378Z" transform="translate(-559.873 -157.951)"/>
            <path class="image_preview_not_found-e svg-fill-primary" d="M527.716,284.692s-14.514-10.857-19.7.9a3.1,3.1,0,0,0-.447,3.6s.542-.766,1.9.5a8.328,8.328,0,0,0,1.588,1.16,4.08,4.08,0,0,0,2.554.476h0s5.4,1.041,11.622-4.812c0,0,2.221-.713,2.43-1.132l-3.276-.575a5.5,5.5,0,0,1-2.031,3.491s2.088-3.357,1.546-3.6c-.109-.052-1.745-.238-1.745-.238s-.609,4.194-3.272,5.778c0,0,3.029-3.666,2.654-5.854l-2.487-.133s-.423,4.465-3.391,6.387c0,0,3.029-3.942,2.853-6.377l-2.463.2s-.5,4.342-2.977,5.921c0,0,3.039-4.908,2.416-5.84a11.954,11.954,0,0,0-2.806.69s-.433,3.11-1.954,3.9c0,0,1.688-3.5,1.346-3.738a12.784,12.784,0,0,0-3.928,2.554,9.287,9.287,0,0,1,3.719-2.986,5.122,5.122,0,0,0-2.91-.3s1.208-1.36,3.6.024a12.006,12.006,0,0,1,2.615-.737,11.128,11.128,0,0,0-3.956-1.993s2.159-.618,4.608,1.9l2.468-.252s-2.744-2.378-4.318-2.777c0,0,2.3-.29,4.946,2.763l2.435.109a18.981,18.981,0,0,0-3.862-3.053s2.183.19,4.561,3.105l1.622.262s-1.641-1.607-2.154-2.026-.442-.594-.442-.594a7.814,7.814,0,0,1,3.276,2.72A19.226,19.226,0,0,0,527.716,284.692Z" transform="translate(-507.157 -179.254)"/>
            <path class="image_preview_not_found-e svg-fill-primary" d="M629.326,72.58s-14.514-10.861-19.7.9a3.1,3.1,0,0,0-.447,3.6s.542-.766,1.9.5a8.465,8.465,0,0,0,1.593,1.156,4.076,4.076,0,0,0,2.554.476h0s5.4,1.041,11.622-4.817c0,0,2.221-.709,2.425-1.132L626,72.708a5.47,5.47,0,0,1-2.031,3.491s2.092-3.357,1.55-3.6c-.109-.052-1.745-.238-1.745-.238s-.628,4.2-3.291,5.778c0,0,3.024-3.666,2.654-5.854l-2.487-.133s-.428,4.465-3.391,6.382c0,0,3.029-3.942,2.853-6.377l-2.459.2s-.5,4.346-2.982,5.925c0,0,3.044-4.908,2.421-5.84a11.955,11.955,0,0,0-2.806.69s-.433,3.11-1.954,3.9c0,0,1.688-3.5,1.346-3.743a12.832,12.832,0,0,0-3.928,2.558,9.245,9.245,0,0,1,3.719-2.986,5.088,5.088,0,0,0-2.915-.3s1.213-1.36,3.6.024a11.744,11.744,0,0,1,2.615-.737,11.19,11.19,0,0,0-3.957-2s2.154-.613,4.6,1.9l2.468-.252s-2.739-2.378-4.318-2.782c0,0,2.3-.285,4.95,2.768l2.435.1a18.787,18.787,0,0,0-3.866-3.048s2.188.19,4.565,3.105l1.617.262s-1.645-1.588-2.159-2-.442-.59-.442-.59a7.8,7.8,0,0,1,3.276,2.72A20.528,20.528,0,0,0,629.326,72.58Z" transform="translate(-560.446 -68.009)"/>
            <path class="image_preview_not_found-e svg-fill-primary" d="M747.495,93.321s-5.8-17.172-16.744-10.424a3.126,3.126,0,0,0-2.411,2.715s.88-.323,1.27,1.484a8.557,8.557,0,0,0,.651,1.859,4.118,4.118,0,0,0,1.826,1.85h0s3.861,3.923,12.307,2.625c0,0,2.23.675,2.639.442l-2.378-2.335A5.47,5.47,0,0,1,741,93.259s3.628-1.579,3.329-2.088c-.062-.1-1.3-1.179-1.3-1.179s-2.882,3.105-5.973,2.9c0,0,4.57-1.3,5.5-3.329l-1.969-1.517s-2.882,3.433-6.415,3.329c0,0,4.755-1.526,5.959-3.638l-2.14-1.232s-2.853,3.3-5.811,3.191c0,0,5.288-2.316,5.3-3.438a11.89,11.89,0,0,0-2.7-1.022s-2.121,2.316-3.8,2.107c0,0,3.367-1.926,3.224-2.321a12.759,12.759,0,0,0-4.684-.119,9.268,9.268,0,0,1,4.755-.357,5.131,5.131,0,0,0-2.23-1.9s1.769-.433,2.953,2.059a11.976,11.976,0,0,1,2.568.875,11.177,11.177,0,0,0-2.126-3.885s2.126.718,2.706,4.194l2.178,1.189s-.9-3.524-1.983-4.755c0,0,2.059,1.065,2.506,5.084l1.95,1.469a18.905,18.905,0,0,0-1.455-4.708s1.693,1.4,2,5.15l1.184,1.132s-.437-2.254-.618-2.891-.033-.68-.033-.68a7.841,7.841,0,0,1,1.156,4.1A18.946,18.946,0,0,0,747.495,93.321Z" transform="translate(-623.157 -74.994)"/>
            <path class="image_preview_not_found-e svg-fill-primary" d="M670.668,108.2s-18.023-2.007-16.535,10.781a3.087,3.087,0,0,0,1.427,3.329s.081-.951,1.9-.523a8.749,8.749,0,0,0,1.959.195,4.089,4.089,0,0,0,2.449-.87h0s5.188-1.84,7.609-10.044c0,0,1.55-1.736,1.517-2.207l-3.115,1.151a5.3,5.3,0,0,1,0,4.037s.1-3.952-.476-3.89c-.119,0-1.622.685-1.622.685s1.6,3.923.1,6.658c0,0,.751-4.7-.68-6.391L663,112.255s1.9,4.066.309,7.224c0,0,.618-4.936-.775-6.938l-2.021,1.427s1.769,4,.433,6.62c0,0,.138-5.773-.875-6.263A12.373,12.373,0,0,0,658,116.34s1.2,2.9.295,4.351c0,0-.319-3.866-.737-3.9a12.787,12.787,0,0,0-2.092,4.194,9.257,9.257,0,0,1,1.693-4.461,5.116,5.116,0,0,0-2.663,1.213s.352-1.783,3.11-1.8c0,0,1.5-1.859,1.9-1.959a11.18,11.18,0,0,0-4.423.285s1.545-1.626,4.941-.68l2-1.469s-3.619-.732-5.15-.257c0,0,1.836-1.427,5.669-.119l2.154-1.146a18.935,18.935,0,0,0-4.879-.671s1.983-.951,5.507.366l1.531-.594s-2.23-.556-2.887-.661-.68-.285-.68-.285a7.823,7.823,0,0,1,4.2.685A19.451,19.451,0,0,0,670.668,108.2Z" transform="translate(-584.194 -89.029)"/>
            <path class="image_preview_not_found-e svg-fill-primary" d="M1002.279,402.373s-18.014-2.007-16.525,10.766a3.087,3.087,0,0,0,1.427,3.329s.081-.951,1.9-.528a8.227,8.227,0,0,0,1.959.195,4.056,4.056,0,0,0,2.449-.87h0s5.188-1.84,7.585-10.039c0,0,1.55-1.741,1.517-2.207l-3.115,1.146a5.317,5.317,0,0,1,0,4.042s.1-3.957-.476-3.89c-.119,0-1.622.68-1.622.68s1.6,3.923.1,6.658c0,0,.751-4.694-.68-6.391l-2.211,1.146s1.9,4.066.314,7.224c0,0,.613-4.936-.78-6.943l-2.021,1.427s1.769,4,.433,6.615c0,0,.138-5.773-.875-6.258a12.558,12.558,0,0,0-2.069,2.016s1.208,2.9.295,4.351c0,0-.319-3.866-.737-3.9a12.788,12.788,0,0,0-2.092,4.194,9.258,9.258,0,0,1,1.693-4.461,5.074,5.074,0,0,0-2.663,1.213s.352-1.788,3.11-1.807c0,0,1.5-1.859,1.9-1.954a11.142,11.142,0,0,0-4.423.281s1.546-1.622,4.946-.675l2-1.469s-3.576-.675-5.131-.209c0,0,1.836-1.427,5.669-.124l2.154-1.141a18.935,18.935,0,0,0-4.879-.671s1.983-.951,5.507.366l1.531-.6s-2.23-.556-2.887-.656-.68-.285-.68-.285a7.794,7.794,0,0,1,4.2.68A18.629,18.629,0,0,0,1002.279,402.373Z" transform="translate(-758.113 -243.308)"/>
            <path class="image_preview_not_found-e svg-fill-primary" d="M1002.279,402.373s-18.014-2.007-16.525,10.766a3.087,3.087,0,0,0,1.427,3.329s.081-.951,1.9-.528a8.227,8.227,0,0,0,1.959.195,4.056,4.056,0,0,0,2.449-.87h0s5.188-1.84,7.585-10.039c0,0,1.55-1.741,1.517-2.207l-3.115,1.146a5.317,5.317,0,0,1,0,4.042s.1-3.957-.476-3.89c-.119,0-1.622.68-1.622.68s1.6,3.923.1,6.658c0,0,.751-4.694-.68-6.391l-2.211,1.146s1.9,4.066.314,7.224c0,0,.613-4.936-.78-6.943l-2.021,1.427s1.769,4,.433,6.615c0,0,.138-5.773-.875-6.258a12.558,12.558,0,0,0-2.069,2.016s1.208,2.9.295,4.351c0,0-.319-3.866-.737-3.9a12.788,12.788,0,0,0-2.092,4.194,9.258,9.258,0,0,1,1.693-4.461,5.074,5.074,0,0,0-2.663,1.213s.352-1.788,3.11-1.807c0,0,1.5-1.859,1.9-1.954a11.142,11.142,0,0,0-4.423.281s1.546-1.622,4.946-.675l2-1.469s-3.576-.675-5.131-.209c0,0,1.836-1.427,5.669-.124l2.154-1.141a18.935,18.935,0,0,0-4.879-.671s1.983-.951,5.507.366l1.531-.6s-2.23-.556-2.887-.656-.68-.285-.68-.285a7.794,7.794,0,0,1,4.2.68A18.629,18.629,0,0,0,1002.279,402.373Z" transform="translate(-957.113 -253.308)"/>
            <path class="image_preview_not_found-e svg-fill-primary" d="M1060.189,437.754s-18.014-2-16.525,10.766a3.1,3.1,0,0,0,1.427,3.329s.081-.951,1.9-.523a8.4,8.4,0,0,0,1.955.19,4.109,4.109,0,0,0,2.44-.866h0s5.183-1.84,7.58-10.044c0,0,1.555-1.736,1.517-2.207l-3.115,1.146a5.317,5.317,0,0,1,0,4.042s.1-3.952-.475-3.89c-.119,0-1.622.68-1.622.68s1.6,3.923.1,6.658c0,0,.751-4.694-.68-6.387l-2.211,1.141s1.9,4.066.314,7.224c0,0,.613-4.936-.78-6.938L1050,443.5s1.769,4,.438,6.62c0,0,.133-5.778-.88-6.263a12.56,12.56,0,0,0-2.069,2.016s1.208,2.9.295,4.351c0,0-.319-3.866-.737-3.9a12.715,12.715,0,0,0-2.088,4.194,9.283,9.283,0,0,1,1.688-4.461,5.117,5.117,0,0,0-2.663,1.213s.357-1.788,3.115-1.8c0,0,1.5-1.859,1.9-1.959a11.18,11.18,0,0,0-4.422.285s1.545-1.626,4.946-.68l2-1.469s-3.576-.675-5.131-.209c0,0,1.836-1.427,5.668-.119l2.154-1.146a18.935,18.935,0,0,0-4.879-.671s1.983-.951,5.507.366l1.531-.594s-2.23-.556-2.882-.661-.685-.285-.685-.285a7.823,7.823,0,0,1,4.2.685A18.819,18.819,0,0,0,1060.189,437.754Z" transform="translate(-788.484 -261.864)"/>
            <path class="image_preview_not_found-e svg-fill-primary" d="M927.266,134.832s-14.514-10.857-19.7.9a3.1,3.1,0,0,0-.447,3.6s.542-.766,1.9.5a8.324,8.324,0,0,0,1.588,1.16,4.085,4.085,0,0,0,2.554.476h0s5.4,1.041,11.627-4.813c0,0,2.216-.713,2.425-1.132l-3.267-.59a5.494,5.494,0,0,1-2.031,3.491s2.088-3.357,1.546-3.6c-.109-.052-1.74-.238-1.74-.238s-.613,4.194-3.276,5.778c0,0,3.029-3.666,2.654-5.854l-2.487-.133s-.423,4.465-3.391,6.387c0,0,3.034-3.942,2.853-6.377l-2.463.2s-.476,4.342-2.977,5.921c0,0,3.044-4.908,2.416-5.84a11.955,11.955,0,0,0-2.806.69s-.428,3.11-1.95,3.9c0,0,1.683-3.5,1.341-3.738a12.784,12.784,0,0,0-3.928,2.554,9.287,9.287,0,0,1,3.719-2.986,5.122,5.122,0,0,0-2.91-.3s1.213-1.36,3.6.024a11.957,11.957,0,0,1,2.611-.737,11.129,11.129,0,0,0-3.957-1.993s2.159-.618,4.608,1.9l2.468-.252s-2.739-2.378-4.318-2.777c0,0,2.3-.29,4.946,2.763l2.44.109a19.066,19.066,0,0,0-3.866-3.053s2.187.19,4.56,3.105l1.622.262s-1.641-1.607-2.154-2.026-.437-.556-.437-.556a7.818,7.818,0,0,1,3.272,2.72A19.1,19.1,0,0,0,927.266,134.832Z" transform="translate(-716.702 -100.659)"/>
            <path class="image_preview_not_found-e svg-fill-primary" d="M952.8,290.881s-5-17.419-16.254-11.166a3.089,3.089,0,0,0-2.535,2.6s.894-.281,1.2,1.541a8.433,8.433,0,0,0,.571,1.9,4.085,4.085,0,0,0,1.74,1.94h0s3.681,4.09,12.174,3.177c0,0,2.2.77,2.615.561l-2.249-2.444a5.468,5.468,0,0,1-3.724,1.56s3.69-1.427,3.4-1.935c-.057-.1-1.246-1.241-1.246-1.241s-3.015,2.977-6.1,2.63c0,0,4.627-1.094,5.645-3.062l-1.9-1.607s-3.034,3.3-6.558,3.043c0,0,4.793-1.317,6.115-3.367l-2.083-1.327s-3.02,3.162-5.949,2.925c0,0,5.388-2.078,5.454-3.2a11.868,11.868,0,0,0-2.658-1.141s-2.221,2.216-3.909,1.931c0,0,3.452-1.774,3.329-2.173a12.843,12.843,0,0,0-4.675-.333,9.278,9.278,0,0,1,4.755-.138,5.1,5.1,0,0,0-2.14-2s1.788-.357,2.853,2.188a11.867,11.867,0,0,1,2.525.989,11.122,11.122,0,0,0-1.95-3.976s2.092.808,2.516,4.308l2.121,1.289s-.742-3.567-1.769-4.822c0,0,2.007,1.156,2.278,5.188l1.9,1.555a18.861,18.861,0,0,0-1.241-4.755s1.631,1.474,1.764,5.231l1.132,1.189s-.333-2.273-.475-2.92,0-.737,0-.737a7.794,7.794,0,0,1,.975,4.147A18.873,18.873,0,0,0,952.8,290.881Z" transform="translate(-731.022 -178.329)"/>
            <path class="image_preview_not_found-e svg-fill-primary" d="M716.512,377.232s-9.715-15.3-18.736-6.144a3.076,3.076,0,0,0-1.7,3.21s.785-.523,1.593,1.141a8.141,8.141,0,0,0,1.075,1.645,4.062,4.062,0,0,0,2.211,1.37h0s4.684,2.891,12.578-.38c0,0,2.325.124,2.668-.195l-2.853-1.712a5.467,5.467,0,0,1-3.139,2.544s3.148-2.378,2.725-2.815c-.081-.086-1.545-.837-1.545-.837s-2.059,3.7-5.112,4.237c0,0,4.132-2.354,4.56-4.532l-2.278-1s-1.983,4.018-5.435,4.755c0,0,4.232-2.611,4.922-4.95l-2.378-.685s-2.007,3.885-4.884,4.48c0,0,4.584-3.51,4.332-4.6a11.813,11.813,0,0,0-2.853-.347s-1.508,2.753-3.21,2.953c0,0,2.815-2.673,2.582-3.024a12.813,12.813,0,0,0-4.579,1,9.254,9.254,0,0,1,4.537-1.474,5.1,5.1,0,0,0-2.611-1.317s1.612-.842,3.329,1.3a11.747,11.747,0,0,1,2.706.238,10.947,10.947,0,0,0-2.991-3.267s2.235.19,3.624,3.429l2.4.637s-1.717-3.21-3.053-4.128c0,0,2.249.542,3.643,4.342l2.245.951a18.956,18.956,0,0,0-2.535-4.223s1.978.951,3.162,4.522l1.427.823s-.951-2.088-1.289-2.663-.2-.709-.2-.709a7.8,7.8,0,0,1,2.1,3.7A19.339,19.339,0,0,0,716.512,377.232Z" transform="translate(-606.212 -225.428)"/>
            <path class="svg-fill-primary" d="M850.9,212.388s-9.24-15.593-18.546-6.719a3.092,3.092,0,0,0-1.8,3.158s.794-.5,1.555,1.184a8.217,8.217,0,0,0,1.023,1.683,4.037,4.037,0,0,0,2.168,1.427h0s4.589,3.034,12.583,0c0,0,2.321.195,2.673-.114l-2.792-1.8a5.467,5.467,0,0,1-3.215,2.444s3.219-2.3,2.815-2.73c-.086-.09-1.522-.889-1.522-.889s-2.173,3.638-5.231,4.08c0,0,4.2-2.226,4.694-4.385l-2.245-1.056s-2.107,3.961-5.583,4.594c0,0,4.313-2.478,5.074-4.793l-2.349-.761s-2.13,3.8-5.022,4.327c0,0,4.689-3.367,4.47-4.465a11.745,11.745,0,0,0-2.853-.438s-1.593,2.706-3.3,2.853c0,0,2.9-2.577,2.677-2.939a12.8,12.8,0,0,0-4.608.856,9.283,9.283,0,0,1,4.579-1.332,5.112,5.112,0,0,0-2.573-1.4s1.641-.794,3.329,1.4a12.047,12.047,0,0,1,2.7.323,11.375,11.375,0,0,0-2.887-3.357s2.226.257,3.514,3.538l2.378.713s-1.612-3.262-2.925-4.223c0,0,2.235.613,3.51,4.451l2.211,1.032a19.105,19.105,0,0,0-2.378-4.28s1.945,1.013,3.024,4.618l1.393.865s-.894-2.116-1.208-2.7-.181-.713-.181-.713a7.813,7.813,0,0,1,1.983,3.766A18.411,18.411,0,0,0,850.9,212.388Z" transform="translate(-676.751 -138.773)"/>
            <path class="svg-fill-primary" d="M733.547,274.323s.476-18.118-12.112-15.565a3.1,3.1,0,0,0-3.205,1.717s.951,0,.685,1.831a8.348,8.348,0,0,0-.029,1.969,4.065,4.065,0,0,0,1.07,2.378h0s2.268,5.012,10.643,6.715c0,0,1.859,1.4,2.325,1.327l-1.427-3.005a5.489,5.489,0,0,1-4.023.357s3.947-.233,3.838-.813c0-.119-.818-1.565-.818-1.565s-3.776,1.926-6.605.661c0,0,4.755.357,6.31-1.208l-1.327-2.107s-3.89,2.226-7.171.913c0,0,4.969.2,6.853-1.355l-1.584-1.9s-3.838,2.1-6.558.989c0,0,5.764-.347,6.182-1.4a12.333,12.333,0,0,0-2.187-1.9s-2.787,1.427-4.308.656c0,0,3.8-.637,3.828-1.06a12.762,12.762,0,0,0-4.356-1.731,9.259,9.259,0,0,1,4.589,1.313,5.112,5.112,0,0,0-1.427-2.554s1.812.2,2.059,2.948a11.824,11.824,0,0,1,2.111,1.712,11.121,11.121,0,0,0-.656-4.38s1.75,1.4,1.094,4.865L728.973,266s.371-3.624-.223-5.131c0,0,1.56,1.707.6,5.635l1.317,2.05a18.958,18.958,0,0,0,.261-4.917s1.1,1.9.1,5.521l.723,1.474s.366-2.268.414-2.929.228-.7.228-.7a7.809,7.809,0,0,1-.328,4.247S733.338,274.384,733.547,274.323Z" transform="translate(-617.855 -167.919)"/>
        </g>
    </g>
</svg>