<svg xmlns="http://www.w3.org/2000/svg" width="529.698" height="193.098" viewBox="0 0 529.698 193.098">
<defs>
<style>.image_arrow_not_found-a{fill:#e8e8e8;}</style>
</defs>
<path class="svg-fill-c-scale-4" d="M348.357,54.033c8.444-1.193,13.681-3.232,19.764-9.276,5.344-5.311,10.037-10.947,16.039-15.567,11.474-8.831,27.412-17.579,42.256-16.8,15,.787,29,7.958,42.238,14.409,7.25,3.533,14.579,6.97,21.909,10.336,3.639,1.671,7.182,3.527,10.783,5.272,3.349,1.625,8.314,2.735,10.91,5.332-5.571,2.314-14.379,1.633-20.461,2.6-3.5.557-16.2,4.143-6.28,6.2,6.156,1.277,14.648-.115,21.122-.733,7.019-.67,14.272-1.021,21.278-1.983,8.675-1.19,4.24-6.085,2.405-12.109-2.069-6.792-3.439-16.718-7.4-22.637-4.713-7.043-10.559-1.377-8.755,5.441,1.021,3.855,3.185,7.867,4.8,11.53.692,1.573,3.881,6.4,3.242,8.236-23.136-9.909-42.4-26.906-65.526-36.938C446.19,2.8,433.614-.635,422.071.1c-11.2.712-22.2,5.953-31.762,11.688-11.171,6.7-19.533,14.791-28.088,24.478-7.76,8.782-16,10.78-27.19,7.357-10.669-3.262-34.1-7.128-55.759-9.888s-276.756,5.3-277.715.449c-.215-1.1-.325-.061-1.038-.973-1.329-1.7.406.17-.318,1.187,11.77,3.316,273.218,1.14,299.706,7.566s36.424,13.167,48.45,12.069C350.182,53.775,346.855,54.171,348.357,54.033Z" transform="matrix(-0.966, -0.259, 0.259, -0.966, 514.928, 193.098)"/></svg>