<svg id="image" xmlns="http://www.w3.org/2000/svg" xmlns:xlink="http://www.w3.org/1999/xlink" width="239.192" height="171" viewBox="0 0 239.192 171">
  <defs>
    <linearGradient id="linear-gradient" x1="0.5" y1="1" x2="0.5" gradientUnits="objectBoundingBox">
      <stop offset="0" stop-color="gray" stop-opacity="0.251"/>
      <stop offset="0.54" stop-color="gray" stop-opacity="0.122"/>
      <stop offset="1" stop-color="gray" stop-opacity="0.102"/>
    </linearGradient>
  </defs>
  <path id="Caminho_4508" class="svg-fill-primary" data-name="Caminho 4508" d="M234.2,116.823c-15.334-.4-29.939-4.073-43.884-8.1s-27.759-8.489-42.726-10.622c-9.626-1.372-20.637-1.566-28.391,2.27-7.466,3.687-9.878,10.051-11.174,15.974-.976,4.447-1.55,9.127,1.123,13.289,1.858,2.891,5.151,5.319,7.43,8.089,7.93,9.634,2.324,21.511-6.267,30.917-4.028,4.412-8.707,8.62-11.818,13.318s-4.549,10.077-1.827,14.87c2.7,4.739,9.124,8.314,16.088,10.823,14.142,5.1,30.8,6.554,47.057,7.38,35.973,1.829,72.136,1.035,108.2.237,13.349-.294,26.754-.59,39.885-2.132,7.293-.851,14.82-2.2,20.115-5.466,6.719-4.142,8.385-11.155,3.881-16.348-7.553-8.712-28.432-10.877-33.718-20.227-2.9-5.146.078-10.877,4.3-15.652,9.06-10.238,24.245-19.22,25.044-30.924.55-8.037-6.75-16.088-18.038-19.89-11.83-3.985-28.237-3.485-36.961,3.113C263.533,114.549,247.739,117.165,234.2,116.823Z" transform="translate(-95.226 -97.207)" fill="#1080b0" opacity="0.1"/>
  <g id="_3rd_pulley" data-name="3rd pulley" transform="translate(138.435 21.539)">
    <path id="Caminho_4542" data-name="Caminho 4542" d="M747.048,218.468a16.31,16.31,0,1,1-16.31,16.31,16.31,16.31,0,0,1,16.31-16.31m0-4.028a20.338,20.338,0,1,0,20.338,20.337A20.338,20.338,0,0,0,747.048,214.44Z" transform="translate(-721.452 -209.685)" fill="#545454"/>
    <rect id="Retângulo_1010" data-name="Retângulo 1010" width="4.767" height="5.018" transform="translate(22.584)" fill="#545454"/>
    <rect id="Retângulo_1011" data-name="Retângulo 1011" width="4.767" height="5.018" transform="matrix(0.857, 0.515, -0.515, 0.857, 35.856, 2.032)" fill="#545454"/>
    <rect id="Retângulo_1012" data-name="Retângulo 1012" width="4.767" height="5.018" transform="matrix(0.485, 0.875, -0.875, 0.485, 46.01, 10.25)" fill="#545454"/>
    <rect id="Retângulo_1013" data-name="Retângulo 1013" width="4.767" height="5.018" transform="matrix(-0.53, 0.848, -0.848, -0.53, 48.471, 35.753)" fill="#545454"/>
    <rect id="Retângulo_1014" data-name="Retângulo 1014" width="4.767" height="5.018" transform="matrix(-0.485, 0.875, -0.875, -0.485, 9.571, 12.685)" fill="#545454"/>
    <rect id="Retângulo_1015" data-name="Retângulo 1015" width="4.767" height="5.018" transform="matrix(0.53, 0.848, -0.848, 0.53, 6.976, 33.093)" fill="#545454"/>
    <rect id="Retângulo_1016" data-name="Retângulo 1016" width="4.767" height="5.018" transform="matrix(-0.857, 0.515, -0.515, -0.857, 17.92, 6.334)" fill="#545454"/>
    <rect id="Retângulo_1017" data-name="Retângulo 1017" width="4.767" height="5.018" transform="translate(22.584 45.166)" fill="#545454"/>
    <rect id="Retângulo_1018" data-name="Retângulo 1018" width="4.767" height="5.018" transform="matrix(0.857, -0.515, 0.515, 0.857, 33.271, 43.849)" fill="#545454"/>
    <rect id="Retângulo_1019" data-name="Retângulo 1019" width="4.767" height="5.018" transform="matrix(-0.857, -0.515, 0.515, -0.857, 15.335, 48.149)" fill="#545454"/>
    <rect id="Retângulo_1020" data-name="Retângulo 1020" width="5.772" height="4.265" transform="translate(0 23.084)" fill="#545454"/>
    <rect id="Retângulo_1021" data-name="Retângulo 1021" width="5.772" height="4.265" transform="translate(51.191 27.349) rotate(180)" fill="#545454"/>
  </g>
  <g id="_2nd_pulley" data-name="2nd pulley" transform="translate(100.547 50.895)">
    <path id="Caminho_4541" data-name="Caminho 4541" d="M587.128,342.378a16.31,16.31,0,1,1-16.31,16.31,16.31,16.31,0,0,1,16.31-16.31m0-4.028a20.338,20.338,0,1,0,20.338,20.337A20.338,20.338,0,0,0,587.128,338.35Z" transform="translate(-561.535 -333.592)" fill="#545454"/>
    <rect id="Retângulo_998" data-name="Retângulo 998" width="4.767" height="5.018" transform="translate(22.582)" fill="#545454"/>
    <rect id="Retângulo_999" data-name="Retângulo 999" width="4.767" height="5.018" transform="matrix(0.857, 0.515, -0.515, 0.857, 35.852, 2.036)" fill="#545454"/>
    <rect id="Retângulo_1000" data-name="Retângulo 1000" width="4.767" height="5.018" transform="matrix(0.485, 0.875, -0.875, 0.485, 46.007, 10.253)" fill="#545454"/>
    <rect id="Retângulo_1001" data-name="Retângulo 1001" width="4.767" height="5.018" transform="matrix(-0.53, 0.848, -0.848, -0.53, 48.47, 35.755)" fill="#545454"/>
    <rect id="Retângulo_1002" data-name="Retângulo 1002" width="4.767" height="5.018" transform="matrix(-0.485, 0.875, -0.875, -0.485, 9.57, 12.684)" fill="#545454"/>
    <rect id="Retângulo_1003" data-name="Retângulo 1003" width="4.767" height="5.018" transform="matrix(0.53, 0.848, -0.848, 0.53, 6.974, 33.094)" fill="#545454"/>
    <rect id="Retângulo_1004" data-name="Retângulo 1004" width="4.767" height="5.018" transform="matrix(-0.857, 0.515, -0.515, -0.857, 17.918, 6.337)" fill="#545454"/>
    <rect id="Retângulo_1005" data-name="Retângulo 1005" width="4.767" height="5.018" transform="translate(22.582 45.168)" fill="#545454"/>
    <rect id="Retângulo_1006" data-name="Retângulo 1006" width="4.767" height="5.018" transform="matrix(0.857, -0.515, 0.515, 0.857, 33.268, 43.851)" fill="#545454"/>
    <rect id="Retângulo_1007" data-name="Retângulo 1007" width="4.767" height="5.018" transform="matrix(-0.857, -0.515, 0.515, -0.857, 15.334, 48.152)" fill="#545454"/>
    <rect id="Retângulo_1008" data-name="Retângulo 1008" width="5.772" height="4.265" transform="translate(0 23.087)" fill="#545454"/>
    <rect id="Retângulo_1009" data-name="Retângulo 1009" width="5.772" height="4.265" transform="translate(51.187 27.351) rotate(180)" fill="#545454"/>
  </g>
  <g id="_1st_pulley" data-name="1st pulley" transform="translate(62.593 20.199)">
    <path id="Caminho_4543" data-name="Caminho 4543" d="M426.046,213.158h.576a16.309,16.309,0,1,1-.555,32.613c-.192,0-.384,0-.578,0a16.309,16.309,0,1,1,.557-32.613m0-4.025h0a20.337,20.337,0,1,0-.7,40.667c.237,0,.474.009.711.009a20.337,20.337,0,1,0,.694-40.667c-.237,0-.474-.009-.711-.009Z" transform="translate(-400.398 -204.29)" fill="#545454"/>
    <rect id="Retângulo_1022" data-name="Retângulo 1022" width="4.767" height="5.018" transform="translate(23.517 0) rotate(1.99)" fill="#545454"/>
    <rect id="Retângulo_1023" data-name="Retângulo 1023" width="4.767" height="5.018" transform="matrix(0.839, 0.544, -0.544, 0.839, 36.707, 2.491)" fill="#545454"/>
    <rect id="Retângulo_1024" data-name="Retângulo 1024" width="4.767" height="5.018" transform="translate(46.571 11.056) rotate(62.99)" fill="#545454"/>
    <rect id="Retângulo_1025" data-name="Retângulo 1025" width="4.767" height="5.018" transform="translate(48.15 36.621) rotate(123.99)" fill="#545454"/>
    <rect id="Retângulo_1026" data-name="Retângulo 1026" width="4.767" height="5.018" transform="matrix(-0.515, 0.857, -0.857, -0.515, 10.071, 12.219)" fill="#545454"/>
    <rect id="Retângulo_1027" data-name="Retângulo 1027" width="4.783" height="5.035" transform="translate(6.436 32.899) rotate(60.113)" fill="#545454"/>
    <rect id="Retângulo_1028" data-name="Retângulo 1028" width="4.767" height="5.018" transform="translate(18.64 6.16) rotate(150.99)" fill="#545454"/>
    <rect id="Retângulo_1029" data-name="Retângulo 1029" width="4.767" height="5.018" transform="translate(21.95 45.137) rotate(1.99)" fill="#545454"/>
    <rect id="Retângulo_1030" data-name="Retângulo 1030" width="4.767" height="5.018" transform="translate(32.678 44.195) rotate(-29.01)" fill="#545454"/>
    <rect id="Retângulo_1031" data-name="Retângulo 1031" width="4.767" height="5.018" transform="matrix(-0.839, -0.544, 0.544, -0.839, 14.608, 47.865)" fill="#545454"/>
    <rect id="Retângulo_1032" data-name="Retângulo 1032" width="5.772" height="4.265" transform="translate(0.148 22.286) rotate(1.99)" fill="#545454"/>
    <rect id="Retângulo_1033" data-name="Retângulo 1033" width="5.772" height="4.265" transform="translate(51.161 28.317) rotate(-178.01)" fill="#545454"/>
  </g>
  <g id="woman" transform="translate(4.706 27.392)">
    <ellipse id="path" cx="51.651" cy="3.672" rx="51.651" ry="3.672" transform="translate(0 136.263)" fill="#6c63ff" opacity="0.1"/>
    <path id="path-2" data-name="path" d="M269.021,339.014c.711-1.277,1.561-2.481,2.249-3.774.628-1.185,1.118-2.44,1.685-3.658.969-2.085,2.163-4.056,3.251-6.084a7.851,7.851,0,0,0,1.26-4.279c-.13-1.422-.964-2.654-1.287-4.028-1.313-5.641-4.471-10.821-6.4-16.277-.493-1.384-.971-2.777-1.587-4.113a43.561,43.561,0,0,0-4.5-7.172,20.252,20.252,0,0,0-1.99-2.474c-.595-.595-1.263-1.118-1.8-1.763-1.114-1.327-1.635-3.237-3.028-4.265-.024.062-.05.121-.076.182-1-2.547-4.343-4.227-6.283-6.338a37.308,37.308,0,0,1-3.111-4.087l-4.224-6.106a10.257,10.257,0,0,1-1.763-3.386c-.36-1.512-.026-3.123-.381-4.634a5.845,5.845,0,0,0-1.291-2.455c.04-.012.083-.028.126-.038.806-.216,1.659-.254,2.457-.445,1.741-.415,3.255-1.528,4.99-1.974a12.173,12.173,0,0,0,2.635-.711,2.189,2.189,0,0,0,1.019-2.327c-.562-2.973,1.007-5.987.742-9-.071-.834-.284-1.647-.422-2.474a26.225,26.225,0,0,1-.147-5.833,12.322,12.322,0,0,1,1.931-2.4,15.911,15.911,0,0,0,3.08-3.182,6.205,6.205,0,0,0,.64-3.819,3.685,3.685,0,0,0-1.185-2.521,2.978,2.978,0,0,0-2.72-.317c-.126.04-.249.09-.37.142a3.106,3.106,0,0,0-2.45-.142,7.424,7.424,0,0,0-2.4,1.512,5.48,5.48,0,0,0-1.118,1.185,7.026,7.026,0,0,0-.763,2.424,23.693,23.693,0,0,1-1.6,4.689c-.128.265-.474.742-.753,1.2l-.507-.1c-.22,2.111-1.988,3.661-3.064,5.485-.524.886-.891,1.855-1.362,2.772a26.869,26.869,0,0,1-1.8,2.883q-.96,1.422-1.922,2.817a40.043,40.043,0,0,1-2.606,3.525c-.87-.071-1.739-.135-2.606-.149a21.155,21.155,0,0,0-4.338.386,12.084,12.084,0,0,1-.154-1.519v-.092c0-.123.014-.27.031-.429a8.766,8.766,0,0,0-.419-14.832,6.374,6.374,0,0,0,.09-.806v-.474a1.118,1.118,0,0,0-.017-.237,3.134,3.134,0,0,0-.081-.474c-.019-.076-.04-.152-.066-.237a2.236,2.236,0,0,0-.2-.426.209.209,0,0,0-.017-.024c-.031-.05-.062-.1-.1-.147s-.031-.038-.045-.057a1.13,1.13,0,0,0-.081-.1l-.059-.062c-.026-.028-.052-.057-.081-.083l-.066-.059-.083-.073-.076-.057-.085-.064-.083-.054-.085-.054c-.028-.019-.059-.036-.09-.052l-.088-.05-.095-.047-.088-.043-.1-.045-.085-.038-.114-.043-.081-.031-.123-.043-.073-.024-.135-.043-.064-.019-.147-.04-.057-.017-.154-.038-.045-.012-.171-.038h-.028l-.251-.054q-1.557-.32-3.132-.552a7.056,7.056,0,0,0-2.59-.045,17.933,17.933,0,0,0-3.241,1.542,21.789,21.789,0,0,1-4.108,1.057,6.238,6.238,0,0,0-3.663,2,6.974,6.974,0,0,0-1.118,3.028c-1.64,8.918.128,18.066.462,27.131.13,3.528-.028,7.3-2.028,10.188l5.824-.154c.28,0,.562-.017.846-.033s.569-.038.848-.071a5.611,5.611,0,0,0,2.111-.633,3.643,3.643,0,0,0,.822-.64,8.194,8.194,0,0,0,1.6-3.045c.13-.367.261-.739.377-1.114.047-.156.092-.313.133-.474l.019-.076.066.031a14.651,14.651,0,0,0,.789,1.3,28.227,28.227,0,0,0,3.585,4.049c2.542,2.523,5.141,5.092,8.328,6.712a10.008,10.008,0,0,1,3.059,1.9c.4.434.751.99,1.322,1.14a6.579,6.579,0,0,1,1.085.152c.5.208.68.808.91,1.3s.749,1,1.242.77a2.49,2.49,0,0,0,.929,2.471,1.815,1.815,0,0,1,.6.54,1.965,1.965,0,0,1,.123.635,2.509,2.509,0,0,0,.9,1.538c-.462.765-.092,1.862-.081,2.817a10.594,10.594,0,0,1-.443,2.353,17.322,17.322,0,0,0,.19,6.985,7.589,7.589,0,0,0,1.367,3.578c.27.32.592.6.877.907a8.436,8.436,0,0,1,1.339,2.04,15.993,15.993,0,0,1,1.452,4.653,8.473,8.473,0,0,0,.687,2.346c.519,1.133.045,2.526.509,3.682a10.688,10.688,0,0,1,.725,1.5,6.85,6.85,0,0,1-.348,2.381c-.27,1.881,1.088,3.627,1.211,5.523a.436.436,0,0,1-.066.32c-.092.1-.251.1-.377.161-.237.114-.3.434-.377.7s-.289.566-.552.486c-3.893,2.083-7.923,4.007-11.816,6.089l-1.777.948-9.5,5.077a.687.687,0,0,0-.381.621c0,.114.014.237.024.344-.666.166-1.305.365-1.76.448-.187.036-.374.071-.559.111a.6.6,0,0,0,.085-.237.474.474,0,0,0-.419-.474,1.518,1.518,0,0,0-.685.09,9.989,9.989,0,0,1-1.659.306,11.836,11.836,0,0,0-1.988.237,2.26,2.26,0,0,0-1.54,1.185,2.873,2.873,0,0,0-.171,1.118,17.118,17.118,0,0,0,.517,4.345.369.369,0,0,0,.173.277c.083.033.182,0,.265.038a.355.355,0,0,1,.154.194,9.743,9.743,0,0,1,.6,2.9q.237,2.192.6,4.371a4.852,4.852,0,0,0,.87,2.388,3.9,3.9,0,0,0,2.492,1.151,17.392,17.392,0,0,0,5.857-.538,1.716,1.716,0,0,0,.988-.448,1.116,1.116,0,0,0,.237-.789c-.045-.974-.931-1.659-1.737-2.206l-1.1-.76a.474.474,0,0,1-.237-.535l.071-1.438h-.213a5.166,5.166,0,0,1,1.365-2.684c.514-.474,1.185-.806,1.722-1.237a4.265,4.265,0,0,0,2.4.879,19.522,19.522,0,0,1,5.426-4.5,53.068,53.068,0,0,1,5.035-2.81q2.1-1.038,4.265-1.945c2.038-.858,4.113-1.623,6.191-2.369a24.93,24.93,0,0,0,4.061-1.722c3.317-1.917,5.66-5.743,5.212-9.574-.564-4.833.642-9.871.562-14.737a14.607,14.607,0,0,0-.507-4.205,2.248,2.248,0,0,1,.282.237c.862.806,1.071,2.085,1.9,3,.642.723,1.618,1.185,2.007,2.066.3.675.253,1.587.872,1.976.175.111.384.159.559.268a1.87,1.87,0,0,1,.519.562,6.3,6.3,0,0,1,1.407,3.08c.031.453-.012.976.32,1.282.095.088.216.152.265.27.1.237-.171.488-.218.751-.069.365.291.642.514.948a1.49,1.49,0,0,1,0,1.756c-1.943,2.523-2.294,5.923-3.992,8.622-.588.931-1.242,1.813-1.81,2.755a35.453,35.453,0,0,0-3.49,9.5,5.248,5.248,0,0,0,1.457,1.625,8.056,8.056,0,0,1-1.623,3,7.538,7.538,0,0,0-.535.67,1.3,1.3,0,0,0-.528-.4,18.772,18.772,0,0,0-.474,4.146,2.959,2.959,0,0,0,.872,2.5,3.092,3.092,0,0,0,.969.4l1.625.474a1.7,1.7,0,0,0,.9.088c.192-.054.362-.173.559-.211a1.371,1.371,0,0,1,.63.083l1.4.41a9.292,9.292,0,0,1,1.388.49c.4.192.77.441,1.163.654a14.061,14.061,0,0,0,2.031.834l2.421.834a8.813,8.813,0,0,0,2.1.545c.5.043,1,0,1.493.085.374.064.737.2,1.114.237a2.919,2.919,0,0,0,1.753-.521,1.566,1.566,0,0,0,.507-.457,1.81,1.81,0,0,0-.3-1.846,7.3,7.3,0,0,0-2.5-2.606c-.429-.237-.893-.412-1.336-.63-1.261-.616-2.211-1.644-3.4-2.348a.808.808,0,0,0-1.021.069,6.9,6.9,0,0,1-2.606-2.315,5.211,5.211,0,0,1-.474-1.6c.557.133,1.118.237,1.685.329A43.341,43.341,0,0,1,269.021,339.014ZM246.259,237.966c-.047.268-.1.533-.156.8-.474,2.225-1.152,4.717-2.7,6.373a5.924,5.924,0,0,1-1.749,1.154l-.173.085A38.012,38.012,0,0,1,246.259,237.966Z" transform="translate(-187.449 -219.074)" fill="url(#linear-gradient)"/>
    <path id="path-3" data-name="path" d="M389.2,226.114a7.071,7.071,0,0,1,.765-2.407,5.5,5.5,0,0,1,1.121-1.185,7.472,7.472,0,0,1,2.4-1.5,3,3,0,0,1,2.722.315,3.624,3.624,0,0,1,1.2,2.5,6.166,6.166,0,0,1-.642,3.791,15.614,15.614,0,0,1-3.08,3.161,12.232,12.232,0,0,0-2.007,2.5,7.126,7.126,0,0,1-.915,1.336,1.736,1.736,0,0,1-1.452.58,2.562,2.562,0,0,1-1.185-.694c-.438-.384-1.618-1.069-1.659-1.677-.028-.493.893-1.611,1.118-2.073A23.344,23.344,0,0,0,389.2,226.114Z" transform="translate(-328.095 -220.419)" fill="#fbbebe"/>
    <path id="path-4" class="svg-fill-primary" data-name="path" d="M293,288.012a21.252,21.252,0,0,1,5.821-.711c3.277.047,6.651.841,9.771-.163a16.953,16.953,0,0,0,2.343-1.016,5.947,5.947,0,0,0,1.749-1.147c1.552-1.644,2.22-4.12,2.706-6.331a42.245,42.245,0,0,0,.737-6.738,5.141,5.141,0,0,0,2.554.673,1.852,1.852,0,0,0,1.784-1.659,27.113,27.113,0,0,0,.116,6.276c.137.82.351,1.628.424,2.457.265,2.995-1.305,5.987-.744,8.942a2.168,2.168,0,0,1-1.019,2.31,11.132,11.132,0,0,1-2.639.711c-1.737.443-3.253,1.547-5,1.959-.813.192-1.659.237-2.459.443-1.151.3-2.2.962-3.369,1.17-.879.156-1.784.05-2.673.126-.772.064-1.531.268-2.305.287a6.652,6.652,0,0,1-4.949-2.45A20.8,20.8,0,0,1,293,288.012Z" transform="translate(-256.773 -258.636)" fill="#1080b0"/>
    <path id="path-5" data-name="path" d="M389.2,226.114a7.071,7.071,0,0,1,.765-2.407,5.5,5.5,0,0,1,1.121-1.185,7.472,7.472,0,0,1,2.4-1.5,3,3,0,0,1,2.722.315,3.624,3.624,0,0,1,1.2,2.5,6.166,6.166,0,0,1-.642,3.791,15.614,15.614,0,0,1-3.08,3.161,12.232,12.232,0,0,0-2.007,2.5,7.126,7.126,0,0,1-.915,1.336,1.736,1.736,0,0,1-1.452.58,2.562,2.562,0,0,1-1.185-.694c-.438-.384-1.618-1.069-1.659-1.677-.028-.493.893-1.611,1.118-2.073A23.344,23.344,0,0,0,389.2,226.114Z" transform="translate(-328.095 -220.419)" opacity="0.1"/>
    <path id="path-6" data-name="path" d="M293,288.012a21.252,21.252,0,0,1,5.821-.711c3.277.047,6.651.841,9.771-.163a16.953,16.953,0,0,0,2.343-1.016,5.947,5.947,0,0,0,1.749-1.147c1.552-1.644,2.22-4.12,2.706-6.331a42.245,42.245,0,0,0,.737-6.738,5.141,5.141,0,0,0,2.554.673,1.852,1.852,0,0,0,1.784-1.659,27.113,27.113,0,0,0,.116,6.276c.137.82.351,1.628.424,2.457.265,2.995-1.305,5.987-.744,8.942a2.168,2.168,0,0,1-1.019,2.31,11.132,11.132,0,0,1-2.639.711c-1.737.443-3.253,1.547-5,1.959-.813.192-1.659.237-2.459.443-1.151.3-2.2.962-3.369,1.17-.879.156-1.784.05-2.673.126-.772.064-1.531.268-2.305.287a6.652,6.652,0,0,1-4.949-2.45A20.8,20.8,0,0,1,293,288.012Z" transform="translate(-256.773 -258.636)" opacity="0.1"/>
    <path id="path-7" data-name="path" d="M257.7,731.652a4.895,4.895,0,0,0-1.68.524,3.946,3.946,0,0,0-1.462,1.971,17.068,17.068,0,0,0-.981,6.16,13.244,13.244,0,0,0,.633,4.987,3.151,3.151,0,0,0,.836,1.306,2.975,2.975,0,0,0,1.144.554,3.124,3.124,0,0,0,2.682-.332,4.279,4.279,0,0,0,1.2-2.8,6.534,6.534,0,0,1,1.595-3.807c.763-.711,1.855-1.066,2.41-1.948.661-1.047.313-2.414-.109-3.58-.367-1.009-.905-3.059-1.962-3.575S258.8,731.453,257.7,731.652Z" transform="translate(-226.69 -609.671)" fill="#fbbebe"/>
    <path id="path-8" data-name="path" d="M427.342,748.478a7.924,7.924,0,0,1-1.659,3.059c-.474.54-1.054,1.2-.806,1.867a1.671,1.671,0,0,0,.441.59c3.473,3.4,8.333,5.054,13.154,5.655a.451.451,0,0,0,.237,0c.142-.064.175-.237.194-.4a5.008,5.008,0,0,0,0-1.516,4.537,4.537,0,0,0-2.277-2.656,7.111,7.111,0,0,1-2.677-2.339c-.711-1.317-.405-3.033-1.242-4.265a4.521,4.521,0,0,0-3.13-1.618c-.415-.064-1.3-.519-1.658-.308S427.468,748.066,427.342,748.478Z" transform="translate(-357.36 -621.534)" fill="#fbbebe"/>
    <path id="path-9" data-name="path" d="M248.161,731.838a.474.474,0,0,0-.419-.474,1.516,1.516,0,0,0-.685.088,10.012,10.012,0,0,1-1.659.3,11.9,11.9,0,0,0-1.993.237,2.251,2.251,0,0,0-1.542,1.185,2.934,2.934,0,0,0-.171,1.111,16.972,16.972,0,0,0,.516,4.314.374.374,0,0,0,.175.277c.083.033.182,0,.265.038a.351.351,0,0,1,.154.192,9.521,9.521,0,0,1,.6,2.881q.237,2.177.6,4.341a4.756,4.756,0,0,0,.872,2.369,3.9,3.9,0,0,0,2.495,1.142,17.576,17.576,0,0,0,5.866-.535,1.71,1.71,0,0,0,.988-.443,1.1,1.1,0,0,0,.237-.784c-.045-.967-.934-1.659-1.739-2.189l-1.109-.746a.575.575,0,0,1-.194-.175.626.626,0,0,1-.055-.355l.071-1.422a4.07,4.07,0,0,0-3.554,2.206c-.154.306-.3.663-.618.782a.817.817,0,0,1-.969-.585,2.55,2.55,0,0,1,.036-1.251c.649-3.478.5-7.053.893-10.569a2.407,2.407,0,0,1,.353-1.114C247.767,732.4,248.125,732.163,248.161,731.838Z" transform="translate(-217.62 -609.981)" fill="#3f3d56"/>
    <path id="path-10" data-name="path" d="M434.148,773.988c.164.27.417.474.569.753a.638.638,0,0,1-.123.846.834.834,0,0,1-.512.052,17.319,17.319,0,0,1-9.366-4.236,6.562,6.562,0,0,1-1.147-1.258c-.306-.474-.564-1.031-1.085-1.225a18.522,18.522,0,0,0-.474,4.118,2.93,2.93,0,0,0,.872,2.483,3.119,3.119,0,0,0,.971.4l1.628.46a1.731,1.731,0,0,0,.9.088c.192-.052.363-.173.559-.208a1.383,1.383,0,0,1,.633.08l1.405.41a9.3,9.3,0,0,1,1.391.474c.4.19.772.438,1.163.649a13.924,13.924,0,0,0,2.035.827l2.474.858a8.722,8.722,0,0,0,2.1.54c.5.043,1,0,1.5.085.374.064.737.2,1.116.237a2.95,2.95,0,0,0,1.753-.519,1.585,1.585,0,0,0,.509-.453,1.79,1.79,0,0,0-.3-1.836,7.21,7.21,0,0,0-2.507-2.58c-.431-.237-.9-.412-1.339-.628-1.26-.611-2.215-1.632-3.407-2.331C434.342,771.415,433.617,773.118,434.148,773.988Z" transform="translate(-355.217 -638.644)" fill="#3f3d56"/>
    <path id="path-11" data-name="path" d="M271.387,332.059a10.247,10.247,0,0,1-4.374,1.7,17.635,17.635,0,0,1-2.476.133,62.98,62.98,0,0,1-10.3-.86A12.617,12.617,0,0,0,257.476,328a8.272,8.272,0,0,0,.154-3.156,23.622,23.622,0,0,0-.962-3.973,27.534,27.534,0,0,0,4.352-.111c.824-.083,2.843-.834,3.554-.265.666.528.163,2.4.152,3.26v.092a10.491,10.491,0,0,0,.832,3.805A7.24,7.24,0,0,0,271.387,332.059Z" transform="translate(-227.197 -296.3)" fill="#fbbebe"/>
    <circle id="path-12" data-name="path" cx="8.672" cy="8.672" r="8.672" transform="translate(24.12 11.104)" fill="#fbbebe"/>
    <path id="path-13" class="svg-fill-primary" data-name="path" d="M289.251,385.9a4.028,4.028,0,0,1-1.955,3.48,7.721,7.721,0,0,1-2.132.746,42.082,42.082,0,0,1-12.1,1.5,6.665,6.665,0,0,1-2.568-.54,2.743,2.743,0,0,1-1.585-1.981,1.876,1.876,0,0,0-.126-.63,1.777,1.777,0,0,0-.6-.535,2.467,2.467,0,0,1-.915-2.448c-.5.22-1.012-.277-1.244-.768s-.415-1.083-.912-1.289a7.428,7.428,0,0,0-1.088-.152c-.571-.147-.919-.711-1.322-1.132a10.283,10.283,0,0,0-3.064-1.874c-3.191-1.609-5.793-4.158-8.34-6.665a27.71,27.71,0,0,1-3.589-4.028c-.287-.419-.545-.851-.789-1.294a36.376,36.376,0,0,1-2-4.575,5.262,5.262,0,0,1-.517-2.606c.012-.081.028-.161.047-.237a4.988,4.988,0,0,1,.787-1.59,6.637,6.637,0,0,1,3.554-2.921c1.516-.4,3.03.083,4.57.41a11.648,11.648,0,0,0,1.552.237,14.47,14.47,0,0,0,4.826-.758l1.72-.474c.862-.237,1.294-1.279,2.166-1.462a3.039,3.039,0,0,1,1.168.059,16.115,16.115,0,0,1,5.111,1.67,8.416,8.416,0,0,1,.993.675,6.281,6.281,0,0,1,2.308,3.409c.355,1.5.021,3.1.381,4.6a10.2,10.2,0,0,0,1.768,3.365l4.234,6.046A37.579,37.579,0,0,0,282.7,378.2C284.972,380.669,289.194,382.538,289.251,385.9Z" transform="translate(-219.667 -322.245)" fill="#1080b0"/>
    <path id="path-14" data-name="path" d="M377.262,226.114a7.068,7.068,0,0,1,.763-2.407,5.5,5.5,0,0,1,1.121-1.185,7.5,7.5,0,0,1,2.4-1.5,3,3,0,0,1,2.722.315,3.623,3.623,0,0,1,1.2,2.5,6.166,6.166,0,0,1-.642,3.791,15.612,15.612,0,0,1-3.08,3.161,12.323,12.323,0,0,0-2.007,2.5,7.129,7.129,0,0,1-.915,1.336,1.737,1.737,0,0,1-1.452.58,2.574,2.574,0,0,1-1.185-.694c-.438-.384-1.621-1.069-1.658-1.677-.028-.493.893-1.611,1.118-2.073A23.5,23.5,0,0,0,377.262,226.114Z" transform="translate(-318.984 -220.419)" fill="#fbbebe"/>
    <path id="path-15" data-name="path" d="M334.28,525.154c-1.09,2.011-2.284,3.971-3.255,6.042-.566,1.211-1.057,2.457-1.687,3.634-.687,1.284-1.533,2.478-2.251,3.748a43.033,43.033,0,0,0-3.746,10.368,20.651,20.651,0,0,1-7.383-2.606c-.154-.09-.3-.185-.443-.287a5.27,5.27,0,0,1-1.49-1.642,35.069,35.069,0,0,1,3.495-9.435c.571-.948,1.225-1.813,1.813-2.737,1.7-2.677,2.054-6.056,4-8.563a1.471,1.471,0,0,0,0-1.744c-.225-.291-.583-.569-.516-.929.05-.263.325-.5.218-.746-.05-.118-.171-.182-.265-.268-.332-.306-.289-.827-.317-1.275a6.162,6.162,0,0,0-1.422-3.059,1.9,1.9,0,0,0-.519-.559c-.175-.107-.384-.154-.559-.263-.621-.389-.576-1.294-.874-1.964-.389-.884-1.367-1.334-2.009-2.052-.817-.912-1.026-2.185-1.9-2.983a2.359,2.359,0,0,0-.282-.237,14.611,14.611,0,0,1,.5,4.177c.083,4.831-1.125,9.833-.559,14.633.445,3.807-1.9,7.608-5.224,9.51a25.154,25.154,0,0,1-4.066,1.713c-2.083.737-4.158,1.5-6.2,2.35q-2.166.9-4.265,1.931a53.9,53.9,0,0,0-5.044,2.791,19.5,19.5,0,0,0-5.433,4.473,4.887,4.887,0,0,1-3.509-1.931,13.39,13.39,0,0,1-1.921-3.639,10.1,10.1,0,0,1-.912-3.426.678.678,0,0,1,.412-.592l9.518-5.044,1.779-.948c3.9-2.069,7.935-3.98,11.832-6.046.263.078.474-.22.552-.474s.133-.581.379-.694c.123-.059.284-.057.377-.161a.45.45,0,0,0,.066-.315c-.125-1.9-1.485-3.618-1.213-5.487a6.651,6.651,0,0,0,.348-2.369,10.338,10.338,0,0,0-.725-1.5c-.474-1.149,0-2.533-.512-3.658a8.457,8.457,0,0,1-.687-2.331,15.833,15.833,0,0,0-1.455-4.62,8.42,8.42,0,0,0-1.339-2.026c-.287-.308-.609-.583-.881-.9a7.5,7.5,0,0,1-1.367-3.554,17.133,17.133,0,0,1-.19-6.937,9.853,9.853,0,0,0,.443-2.336c-.012-1.05-.474-2.275.256-3.033a2.355,2.355,0,0,1,1.066-.547,32.184,32.184,0,0,1,5.16-.948l7.949-1.04a7.219,7.219,0,0,0,2.644-.69,5.318,5.318,0,0,0,2.232-2.843c1.4,1.019,1.917,2.917,3.03,4.232.543.642,1.213,1.161,1.808,1.751a20.29,20.29,0,0,1,1.993,2.457,43.254,43.254,0,0,1,4.5,7.125c.618,1.327,1.1,2.711,1.59,4.087,1.94,5.419,5.1,10.562,6.416,16.163.322,1.369,1.159,2.606,1.289,4.006A7.653,7.653,0,0,1,334.28,525.154Z" transform="translate(-245.526 -419.01)" fill="#484848"/>
    <path id="path-16" data-name="path" d="M338.054,472.7a2.441,2.441,0,0,0-.294,1.173c.178-.877,1.384-1.362,1.462-2.229.035-.4-.038-.382-.284-.171C338.563,471.8,338.4,472.359,338.054,472.7Z" transform="translate(-290.928 -411.561)" opacity="0.1"/>
    <path id="path-17" data-name="path" d="M352.132,487.467a1.807,1.807,0,0,0-.55.813,2.061,2.061,0,0,0-.111,1.422c.178-.083.237-.3.291-.49a3.422,3.422,0,0,1,.377-.839c.142-.237.8-.765.8-1.014C352.928,486.977,352.307,487.332,352.132,487.467Z" transform="translate(-301.331 -423.663)" opacity="0.1"/>
    <path id="path-18" data-name="path" d="M268.308,356.63a8.941,8.941,0,0,1-1.829,1.218c-1.718.87-3.62,1.329-5.35,2.173a26.5,26.5,0,0,0-2.483,1.448l-5.141,3.258a5.513,5.513,0,0,0-1.132.86c-.618.659-.616,1.817-1.185,2.523a3.47,3.47,0,0,1-2.495,1.151,8.107,8.107,0,0,1-2.779-.474,14.441,14.441,0,0,1-1.587-.578,7.48,7.48,0,0,1-1.526-.872,4.354,4.354,0,0,1-1.8-2.843,5.615,5.615,0,0,1,.306-2.317,8.886,8.886,0,0,1,.547-1.4,5.652,5.652,0,0,1,.436-.739,8.132,8.132,0,0,1,5.274-2.843c1.057-.206,2.132-.332,3.2-.512a11.645,11.645,0,0,0,1.552.237,14.469,14.469,0,0,0,4.826-.758l1.72-.474c.862-.237,1.294-1.279,2.165-1.462a3.04,3.04,0,0,1,1.168.059,16.115,16.115,0,0,1,5.111,1.67A8.425,8.425,0,0,1,268.308,356.63Z" transform="translate(-217.084 -322.176)" opacity="0.1"/>
    <path id="path-19" class="svg-fill-primary" data-name="path" d="M272.5,267.35c-.22,2.1-1.99,3.637-3.08,5.449-.524.879-.891,1.843-1.362,2.753a27.287,27.287,0,0,1-1.8,2.867l-1.926,2.8a28.923,28.923,0,0,1-3.725,4.679c-2.523.429-4.639,2.3-7.032,3.213a36.045,36.045,0,0,1-6.011,1.218,8.2,8.2,0,0,0-5.272,2.843,7.442,7.442,0,0,0-.986,2.132,5.525,5.525,0,0,0-.3,2.315,4.395,4.395,0,0,0,1.794,2.843,9.923,9.923,0,0,0,3.113,1.45,8.161,8.161,0,0,0,2.779.474,3.382,3.382,0,0,0,2.5-1.151c.588-.739.559-1.865,1.185-2.523a5.532,5.532,0,0,1,1.135-.86l5.141-3.258a26.5,26.5,0,0,1,2.481-1.438c1.73-.846,3.632-1.3,5.35-2.173a6.371,6.371,0,0,0,3.661-4.2c1.047-5.824,5.077-10.733,8.53-15.543-.114-.024-.078-.282-.121-.391a4.964,4.964,0,0,0-2.526-2.545A14.943,14.943,0,0,0,272.5,267.35Z" transform="translate(-217.079 -255.912)" fill="#1080b0"/>
    <path id="path-20" data-name="path" d="M224.338,254.547a3.212,3.212,0,0,0-.358-1.829,4.1,4.1,0,0,0-2.843-1.5q-1.561-.32-3.137-.55a7.083,7.083,0,0,0-2.594-.043,17.551,17.551,0,0,0-3.246,1.531,22.164,22.164,0,0,1-4.116,1.05,6.267,6.267,0,0,0-3.668,1.985,6.868,6.868,0,0,0-1.118,3c-1.642,8.859.126,17.945.462,26.948.13,3.5-.028,7.25-2.031,10.129l5.831-.154a5.3,5.3,0,0,0,6.229-4.39,10.372,10.372,0,0,0,.744-3c.092-2.116-1.109-4.194-.711-6.276a7,7,0,0,1,2.632-3.831,22.955,22.955,0,0,0,3.535-3.146c1.749-2.211,2.083-5.231,1.865-8.039a30.653,30.653,0,0,1-.284-5.011,6.319,6.319,0,0,1,1.322-3.511A4.9,4.9,0,0,0,224.338,254.547Z" transform="translate(-187.097 -243.067)" fill="#3f3d56"/>
    <path id="path-21" data-name="path" d="M441.4,589.339l-10.7,26.1a5.27,5.27,0,0,1-1.49-1.642,35.073,35.073,0,0,1,3.495-9.435c.571-.948,1.225-1.813,1.813-2.737,1.7-2.677,2.054-6.056,4-8.563a1.471,1.471,0,0,0,0-1.744c-.225-.291-.583-.569-.516-.929.05-.263.325-.5.218-.746-.05-.118-.171-.182-.265-.268-.332-.306-.289-.827-.318-1.275a6.163,6.163,0,0,0-1.422-3.059,1.9,1.9,0,0,0-.519-.559c-.175-.107-.384-.154-.559-.263-.621-.389-.576-1.294-.874-1.964-.389-.884-1.367-1.334-2.009-2.052-.817-.912-1.026-2.185-1.9-2.983l-.073-.185.834-5.035Z" transform="translate(-360.711 -488.381)" opacity="0.1"/>
    <path id="path-22" data-name="path" d="M272.55,323.7a8.691,8.691,0,0,1-7.108,1.09,23.616,23.616,0,0,0-.962-3.973,27.535,27.535,0,0,0,4.352-.111c.825-.083,2.843-.834,3.554-.265C273.064,320.969,272.562,322.838,272.55,323.7Z" transform="translate(-235.011 -296.262)" opacity="0.1"/>
    <path id="path-23" data-name="path" d="M223.942,255a4.027,4.027,0,0,0-2.8-1.493,2.756,2.756,0,0,1,1.384,1.09,3.194,3.194,0,0,1,.358,1.829,4.876,4.876,0,0,1-1.5,3.362,6.311,6.311,0,0,0-1.322,3.511,30.652,30.652,0,0,0,.284,5.011c.218,2.808-.116,5.828-1.862,8.039a23.3,23.3,0,0,1-3.535,3.146,6.987,6.987,0,0,0-2.635,3.831c-.391,2.083.81,4.161.711,6.276a10.377,10.377,0,0,1-.746,3,5.3,5.3,0,0,1-6.229,4.39l-4.13.109c-.092.152-.187.3-.289.448l5.831-.154a5.3,5.3,0,0,0,6.229-4.39,10.372,10.372,0,0,0,.744-3c.092-2.116-1.109-4.194-.711-6.276a7,7,0,0,1,2.632-3.831,22.961,22.961,0,0,0,3.535-3.146c1.749-2.211,2.083-5.231,1.865-8.039a30.657,30.657,0,0,1-.284-5.011,6.318,6.318,0,0,1,1.322-3.511,4.837,4.837,0,0,0,1.5-3.362A3.212,3.212,0,0,0,223.942,255Z" transform="translate(-187.059 -245.351)" opacity="0.1"/>
  </g>
</svg>
