<svg id="_21_docs-sheets" data-name="21_docs-sheets" xmlns="http://www.w3.org/2000/svg" width="183.933" height="179.541" viewBox="0 0 183.933 179.541">
  <g id="scale-5" transform="translate(0.001 -0.001)">
    <path id="shape" d="M420.978,194.483H371.416a4.265,4.265,0,0,0-4.26,4.26V308.9l-.568.173-12.158,3.723a2.274,2.274,0,0,1-2.837-1.508L315.427,193.151a2.273,2.273,0,0,1,1.508-2.837l18.736-5.737,54.316-16.626,18.736-5.737a2.269,2.269,0,0,1,2.837,1.505l9.244,30.2Z" transform="translate(-304.211 -154.105)" class="svg-fill-c-scale-5"/>
    <path id="shape-2" data-name="shape" d="M630.727,413.938H534.732a2.417,2.417,0,0,1-2.414-2.414V296.5a2.417,2.417,0,0,1,2.414-2.414h95.995a2.417,2.417,0,0,1,2.414,2.414V411.524A2.417,2.417,0,0,1,630.727,413.938Z" transform="translate(-459.574 -248.598)" class="svg-fill-c-scale-5"/>
  </g>
  <g id="scale-12" transform="translate(0.001 -0.001)">
    <path id="shape-3" data-name="shape" d="M403.766,173.726l-11.142-36.393a4.826,4.826,0,0,0-6.029-3.2l-26.342,8.063L305.94,158.822,279.6,166.887a4.832,4.832,0,0,0-3.2,6.03l38.08,124.376a4.836,4.836,0,0,0,4.618,3.417,4.768,4.768,0,0,0,1.411-.213l18.057-5.527.568-.176V294.2l-.568.173-18.225,5.581a4.264,4.264,0,0,1-5.319-2.826L276.94,172.749a4.254,4.254,0,0,1,2.826-5.319l26.342-8.066,54.314-16.626,26.342-8.066a4.256,4.256,0,0,1,5.32,2.826l11.09,36.228.176.568h.591Z" transform="translate(-276.184 -133.916)" class="svg-fill-c-scale-12"/>
    <path id="shape-4" data-name="shape" d="M560.43,274.087H500.646a4.835,4.835,0,0,0-4.828,4.828V394.734l.568-.173V278.915a4.265,4.265,0,0,1,4.26-4.26h59.96Zm52.115,0h-111.9a4.835,4.835,0,0,0-4.828,4.828V408.991a4.835,4.835,0,0,0,4.828,4.828h111.9a4.835,4.835,0,0,0,4.828-4.828V278.915A4.835,4.835,0,0,0,612.545,274.087Zm4.26,134.9a4.265,4.265,0,0,1-4.26,4.26h-111.9a4.265,4.265,0,0,1-4.26-4.26V278.915a4.265,4.265,0,0,1,4.26-4.26h111.9a4.265,4.265,0,0,1,4.26,4.26Z" transform="translate(-433.441 -234.277)" class="svg-fill-c-scale-12"/>
  </g>
  <g id="primary" transform="translate(0.001 -0.001)">
    <path id="shape-5" data-name="shape" d="M383.191,180.156a2.561,2.561,0,0,1-2.446-1.808L377.087,166.4a2.556,2.556,0,0,1,1.7-3.192l49.968-15.3a2.559,2.559,0,0,1,3.192,1.7l3.658,11.949a2.559,2.559,0,0,1-1.7,3.192l-49.968,15.3A2.548,2.548,0,0,1,383.191,180.156Z" transform="translate(-348.35 -143.855)" class="svg-fill-primary"/>
    <path id="shape-6" data-name="shape" d="M5.68,0A5.68,5.68,0,1,1,0,5.68,5.68,5.68,0,0,1,5.68,0Z" transform="translate(48.324 1.406)" class="svg-fill-primary"/>
    <path id="shape-7" data-name="shape" d="M663.631,273.7H611.374a2.559,2.559,0,0,1-2.556-2.556v-12.5a2.559,2.559,0,0,1,2.556-2.556h52.257a2.559,2.559,0,0,1,2.556,2.556v12.5A2.559,2.559,0,0,1,663.631,273.7Z" transform="translate(-514.348 -221.391)" class="svg-fill-primary"/>
    <path id="shape-8" data-name="shape" d="M5.68,0A5.68,5.68,0,1,1,0,5.68,5.68,5.68,0,0,1,5.68,0Z" transform="translate(117.475 24.189)" class="svg-fill-primary"/>
  </g>
  <g id="scale-1" transform="translate(0.001 -0.001)">
    <path id="shape-9" data-name="shape" d="M3.6,0A3.6,3.6,0,1,1,0,3.6,3.6,3.6,0,0,1,3.6,0Z" transform="translate(50.406 3.49)" class="svg-fill-c-scale-1"/>
    <path id="shape-10" data-name="shape" d="M3.46,0A3.46,3.46,0,1,1,0,3.46,3.46,3.46,0,0,1,3.46,0Z" transform="translate(119.695 26.41)" class="svg-fill-c-scale-1"/>
  </g>
</svg>
