<svg xmlns="http://www.w3.org/2000/svg" width="24" height="34" viewBox="0 0 24 34">
  <path id="Subtração_9" data-name="Subtração 9" d="M18,34H6a6.007,6.007,0,0,1-6-6V6A6.007,6.007,0,0,1,6,0H18a6.007,6.007,0,0,1,6,6V28A6.007,6.007,0,0,1,18,34Zm-.183-9.128A1.532,1.532,0,1,0,19.363,26.4,1.54,1.54,0,0,0,17.817,24.872Zm-5.818,0A1.532,1.532,0,1,0,13.545,26.4,1.54,1.54,0,0,0,12,24.872Zm-5.818,0A1.532,1.532,0,1,0,7.727,26.4,1.541,1.541,0,0,0,6.182,24.872Zm11.636-6.511a1.532,1.532,0,1,0,1.545,1.532A1.54,1.54,0,0,0,17.818,18.362Zm-5.819,0a1.532,1.532,0,1,0,1.546,1.532A1.54,1.54,0,0,0,12,18.362Zm-5.82,0a1.532,1.532,0,1,0,1.546,1.532A1.54,1.54,0,0,0,6.179,18.362Zm11.639-6.511a1.532,1.532,0,1,0,1.545,1.532A1.54,1.54,0,0,0,17.818,11.851Zm-5.819,0a1.532,1.532,0,1,0,1.546,1.532A1.54,1.54,0,0,0,12,11.851Zm-5.818,0a1.532,1.532,0,1,0,1.545,1.532A1.54,1.54,0,0,0,6.182,11.851Zm.182-8.234a2,2,0,0,0-2,2V6.681a2,2,0,0,0,2,2H17.636a2,2,0,0,0,2-2V5.617a2,2,0,0,0-2-2Z" transform="translate(0 0)" fill="#37b26a"/>
</svg>
