<svg xmlns="http://www.w3.org/2000/svg" width="55.676" height="19.862" viewBox="0 0 55.676 19.862">
  <g id="lettering" transform="translate(0 0)">
    <path id="s" d="M747.081,295.106a1.887,1.887,0,0,0-1.606-.964,1.112,1.112,0,0,0-.8.294.849.849,0,0,0-.241.589.721.721,0,0,0,.375.642c.161.107.321.161.883.455l1.338.669a5.409,5.409,0,0,1,1.579,1.044,2.782,2.782,0,0,1,.83,2.088,3.742,3.742,0,0,1-.99,2.57,4.024,4.024,0,0,1-3.159,1.258,3.88,3.88,0,0,1-2.436-.723,4.391,4.391,0,0,1-1.445-2.061l2.141-1.017a2.964,2.964,0,0,0,.616,1.071,1.606,1.606,0,0,0,1.151.428,1.579,1.579,0,0,0,1.071-.375,1.329,1.329,0,0,0,.375-.883,1.215,1.215,0,0,0-.348-.857,3.459,3.459,0,0,0-1.124-.7l-.964-.455a5.56,5.56,0,0,1-1.552-.964,2.457,2.457,0,0,1-.8-1.9,3.52,3.52,0,0,1,.937-2.409,3.632,3.632,0,0,1,2.757-1.071,3.526,3.526,0,0,1,2.088.589,3.87,3.87,0,0,1,1.285,1.392Z" transform="translate(-741.406 -283.89)" fill="#0b535b"/>
    <path id="e" d="M893.416,300.834a5.909,5.909,0,0,1-1.9,2.061,6.2,6.2,0,0,1-3.319.857,5,5,0,0,1-3.8-1.446,6.049,6.049,0,0,1-1.66-4.31,6.606,6.606,0,0,1,1.794-4.631,5.134,5.134,0,0,1,3.774-1.526,4.853,4.853,0,0,1,3.614,1.472,6.767,6.767,0,0,1,1.579,4.765v.321h-8.084a3.725,3.725,0,0,0,.964,2.275,2.68,2.68,0,0,0,2.008.723,2.762,2.762,0,0,0,1.793-.562,4.072,4.072,0,0,0,1.044-1.231Zm-2.6-4.577a2.726,2.726,0,0,0-.8-1.526,2.735,2.735,0,0,0-3.614.08,2.954,2.954,0,0,0-.8,1.446Z" transform="translate(-872.939 -283.89)" fill="#0b535b"/>
    <path id="a" d="M1077.7,292.135h2.623V303.4H1077.7v-1.178a4.328,4.328,0,0,1-3.373,1.526c-3.48,0-5.461-2.891-5.461-6,0-3.667,2.516-5.916,5.488-5.916a4.109,4.109,0,0,1,3.346,1.606Zm-6.157,5.675c0,1.954,1.231,3.587,3.132,3.587,1.66,0,3.185-1.2,3.185-3.56,0-2.463-1.526-3.64-3.185-3.64C1072.774,294.2,1071.543,295.8,1071.543,297.809Z" transform="translate(-1046.167 -283.89)" fill="#0b535b"/>
    <path id="s-2" data-name="s" d="M1276.892,295.106a1.887,1.887,0,0,0-1.606-.964,1.112,1.112,0,0,0-.8.294.85.85,0,0,0-.241.589.721.721,0,0,0,.375.642c.161.107.321.161.883.455l1.339.669a5.406,5.406,0,0,1,1.579,1.044,2.782,2.782,0,0,1,.83,2.088,3.742,3.742,0,0,1-.99,2.57,4.024,4.024,0,0,1-3.159,1.258,3.88,3.88,0,0,1-2.436-.723,4.392,4.392,0,0,1-1.445-2.061l2.141-1.017a2.969,2.969,0,0,0,.616,1.071,1.607,1.607,0,0,0,1.151.428,1.579,1.579,0,0,0,1.071-.375,1.329,1.329,0,0,0,.375-.883,1.215,1.215,0,0,0-.348-.857,3.459,3.459,0,0,0-1.124-.7l-.964-.455a5.556,5.556,0,0,1-1.553-.964,2.457,2.457,0,0,1-.8-1.9,3.52,3.52,0,0,1,.937-2.409,3.632,3.632,0,0,1,2.757-1.071,3.526,3.526,0,0,1,2.088.589,3.871,3.871,0,0,1,1.285,1.392Z" transform="translate(-1234.491 -283.89)" fill="#0b535b"/>
    <path id="i" d="M1417.323,204.568a1.686,1.686,0,1,1-1.686,1.686A1.647,1.647,0,0,1,1417.323,204.568Zm1.312,6.344v11.269h-2.623V210.912Z" transform="translate(-1368.901 -202.667)" fill="#0b535b"/>
    <path id="l" d="M1509.389,177.151v19.514h-2.623V177.151Z" transform="translate(-1453.713 -177.151)" fill="#0b535b"/>
  </g>
</svg>
