<svg xmlns="http://www.w3.org/2000/svg" xmlns:xlink="http://www.w3.org/1999/xlink" width="420" height="212" viewBox="0 0 420 212">
  <defs>
    <clipPath id="a">
      <path class="a svg-fill-info_light" d="M8,0H412a8,8,0,0,1,8,8V200a0,0,0,0,1,0,0H0a0,0,0,0,1,0,0V8A8,8,0,0,1,8,0Z" transform="translate(750 290)"/>
    </clipPath>
    <style>
      .a{fill:#1080B0}.d{fill:#f5f5f5}
    </style>
  </defs>
  <g transform="translate(-750 -290)" style="clip-path:url(#a)">
    <path class="svg-fill-info_light" d="M0,188.824,57.625,199.1c57.625,9.892,172.876,31.022,288.127,5.09s230.5-97,345.752-92.2,230.5,87.4,345.752,112.658c115.251,25.643,230.5-5.09,288.127-20.457l57.625-15.367V311.758H0Z" transform="translate(1870 601.759) rotate(180)"/>
  </g>
  <g transform="translate(-750 -343)">
    <circle class="svg-fill-info" cx="70" cy="70" r="70" transform="translate(890 415)"/>
    <path class="d" d="M2.89,70.963A2.889,2.889,0,0,1,0,68.073C0,47.055,6.781,29.37,19.614,16.93A60.652,60.652,0,0,1,63.528.032a2.89,2.89,0,0,1-.179,5.777A54.855,54.855,0,0,0,23.638,21.081C11.955,32.406,5.779,48.654,5.779,68.073A2.889,2.889,0,0,1,2.89,70.963Z" transform="translate(898.339 423.436)"/>
    <path class="d" d="M63.438,0a2.889,2.889,0,0,1,2.89,2.89c0,21.018-6.781,38.7-19.614,51.143A60.652,60.652,0,0,1,2.8,70.933a2.89,2.89,0,0,1,.179-5.777A54.855,54.855,0,0,0,42.69,49.885C54.372,38.56,60.548,22.311,60.548,2.892A2.889,2.889,0,0,1,63.438,0Z" transform="translate(952.339 474.436)"/>
    <g transform="translate(924 447)">
      <rect width="72" height="72" style="fill:none"/>
      <path class="d" d="M2.319,49.191H4.638V32.441H2.319A2.319,2.319,0,0,1,0,30.121V24.582a2.319,2.319,0,0,1,2.319-2.319H15.306a2.319,2.319,0,0,1,2.319,2.319V49.191h2.319a2.319,2.319,0,0,1,2.319,2.319v5.539a2.319,2.319,0,0,1-2.319,2.319H2.319A2.319,2.319,0,0,1,0,57.049V51.51A2.319,2.319,0,0,1,2.319,49.191ZM11.132,0A8.349,8.349,0,1,0,19.48,8.349,8.349,8.349,0,0,0,11.132,0Z" transform="translate(24.632 6.316)"/>
    </g>
  </g>
</svg>
