<?xml version="1.0" encoding="utf-8"?>
<!-- Generator: Adobe Illustrator 26.4.1, SVG Export Plug-In . SVG Version: 6.00 Build 0)  -->
<svg version="1.1" id="layer" xmlns="http://www.w3.org/2000/svg" xmlns:xlink="http://www.w3.org/1999/xlink" x="0px" y="0px"
	 viewBox="0 0 652 652" style="enable-background:new 0 0 652 652;" xml:space="preserve">
<style type="text/css">
	.st0{fill-rule:evenodd;clip-rule:evenodd;fill:#009EE3;}
	.st1{fill-rule:evenodd;clip-rule:evenodd;fill:#113984;}
	.st2{fill-rule:evenodd;clip-rule:evenodd;fill:#172C70;}
</style>
<g>
	<path class="st0" d="M293.3,184.8h150.5c80.8,0,111.2,40.9,106.5,101C542.6,385,482.6,439.9,403,439.9h-40.2
		c-10.9,0-18.3,7.2-21.2,26.8l-17.1,113.8c-1.1,7.4-5,11.7-10.8,12.2h-94.6c-8.9,0-12-6.8-9.7-21.5l57.6-364.9
		C269.4,191.8,277.4,184.8,293.3,184.8z"/>
	<path class="st1" d="M199.2,59.2h150.6c42.4,0,92.8,1.4,126.4,31.1c22.5,19.9,34.3,51.4,31.6,85.5c-9.2,115-78,179.5-170.3,179.5
		h-74.3c-12.7,0-21,8.4-24.6,31.1l-20.7,132.1c-1.4,8.5-5,13.6-11.7,14.2h-93c-10.3,0-13.9-7.8-11.3-24.9l66.8-423.3
		C171.5,67.3,180.9,59.2,199.2,59.2z"/>
	<path class="st2" d="M240.8,372.9l26.3-166.5c2.3-14.6,10.3-21.6,26.2-21.6h150.5c24.9,0,45.1,3.9,60.8,11.1
		c-15.1,102.4-81.3,159.3-168,159.3h-74.2C252.5,355.2,245.2,360.1,240.8,372.9z"/>
</g>
</svg>
