<svg id="pdf_extension" xmlns="http://www.w3.org/2000/svg" width="100" height="100" viewBox="0 0 100 100">
  <rect id="shape" width="100" height="100" fill="none"/>
  <g id="Pdf" transform="translate(13.006)">
    <path id="Path_19936" data-name="Path 19936" d="M12.881.61H45.963L74,30.145V87.591A12.937,12.937,0,0,1,61.143,100.61H12.881A12.942,12.942,0,0,1,0,87.591V13.629A12.942,12.942,0,0,1,12.881.61Z" transform="translate(0 -0.61)" fill="#e5252a" fill-rule="evenodd"/>
    <path id="Path_19937" data-name="Path 19937" d="M237.139.61V29.92H265.2Z" transform="translate(-191.201 -0.61)" fill="rgba(255,255,255,0.3)" fill-rule="evenodd"/>
    <path id="Path_19938" data-name="Path 19938" d="M73.9,302.418v-14h5.246a4.048,4.048,0,0,1,3.1,1.226,5.136,5.136,0,0,1,0,6.511,4.048,4.048,0,0,1-3.1,1.226H77.052v5.037Zm3.154-8.082H78.79a1.435,1.435,0,0,0,1.1-.383,1.624,1.624,0,0,0,0-2.107,1.435,1.435,0,0,0-1.1-.383H77.052Zm7.658,8.082v-14H89.08a6.8,6.8,0,0,1,2.429.421,6.321,6.321,0,0,1,2.058,1.245,5.485,5.485,0,0,1,1.451,2.183,9.753,9.753,0,0,1,0,6.3,5.485,5.485,0,0,1-1.451,2.183A6.319,6.319,0,0,1,91.509,302a6.8,6.8,0,0,1-2.429.421Zm3.087-3.045h.911a4.491,4.491,0,0,0,1.366-.191,3.9,3.9,0,0,0,1.164-.632,2.813,2.813,0,0,0,.843-1.226,6.132,6.132,0,0,0,0-3.811,2.813,2.813,0,0,0-.843-1.226,3.9,3.9,0,0,0-1.164-.632,4.491,4.491,0,0,0-1.366-.191H87.8Zm9.329,3.045v-14H105.9v3.045h-5.617V293.7h4.487v3.026h-4.487v5.688H97.126Z" transform="translate(-52.898 -222.418)" fill="#fff"/>
  </g>
</svg>
