<?xml version="1.0" encoding="utf-8"?>
<!-- Generator: Adobe Illustrator 26.4.1, SVG Export Plug-In . SVG Version: 6.00 Build 0)  -->
<svg version="1.1" id="layer" xmlns="http://www.w3.org/2000/svg" xmlns:xlink="http://www.w3.org/1999/xlink" x="0px" y="0px"
	 viewBox="0 0 652 652" style="enable-background:new 0 0 652 652;" xml:space="preserve">
<style type="text/css">
	.st0{fill-rule:evenodd;clip-rule:evenodd;fill:#191E70;}
	.st1{fill-rule:evenodd;clip-rule:evenodd;fill:#F7B600;}
</style>
<g>
	<path class="st0" d="M232.9,419.9l31.9-187.3h51l-31.9,187.3H232.9z M469,237.2c-10.1-3.8-26-7.9-45.7-7.9
		c-50.4,0-86,25.4-86.3,61.8c-0.3,26.9,25.4,41.9,44.7,50.9c19.9,9.2,26.5,15,26.5,23.2c-0.1,12.5-15.9,18.3-30.5,18.3
		c-20.4,0-31.3-2.8-48-9.8l-6.6-3l-7.2,41.9c11.9,5.2,34,9.8,56.9,10c53.7,0,88.5-25.1,88.9-64c0.2-21.3-13.4-37.5-42.9-50.9
		c-17.8-8.7-28.8-14.4-28.7-23.2c0-7.8,9.2-16.1,29.2-16.1c16.7-0.3,28.8,3.4,38.2,7.2l4.6,2.2L469,237.2L469,237.2z M599.9,232.8
		h-39.4c-12.2,0-21.4,3.3-26.7,15.5l-75.8,171.6h53.6c0,0,8.8-23.1,10.7-28.1c5.9,0,57.9,0.1,65.4,0.1c1.5,6.6,6.2,28.1,6.2,28.1
		l47.4,0L599.9,232.8L599.9,232.8z M537,353.5c4.2-10.8,20.3-52.3,20.3-52.3c-0.3,0.5,4.2-10.8,6.8-17.9l3.5,16.1
		c0,0,9.8,44.7,11.8,54.1L537,353.5L537,353.5z M190.1,232.7l-50,127.7l-5.3-25.9c-9.3-29.9-38.3-62.3-70.7-78.6l45.7,163.8l54-0.1
		l80.4-186.9H190.1z"/>
	<path class="st1" d="M93.7,232.6H11.4l-0.7,3.9c64,15.5,106.4,53,124,98l-17.9-86.1C113.8,236.6,104.8,233,93.7,232.6z"/>
</g>
</svg>
